<?xml version="1.0" encoding="UTF-8" standalone="no"?>
<svg
   viewBox="0 0 1 1"
   version="1.1"
   id="svg1"
   sodipodi:docname="Dragon.svg"
   width="1"
   height="1"
   inkscape:version="1.3.2 (091e20e, 2023-11-25, custom)"
   xmlns:inkscape="http://www.inkscape.org/namespaces/inkscape"
   xmlns:sodipodi="http://sodipodi.sourceforge.net/DTD/sodipodi-0.dtd"
   xmlns="http://www.w3.org/2000/svg"
   xmlns:svg="http://www.w3.org/2000/svg">
  <defs
     id="defs1" />
  <sodipodi:namedview
     id="namedview1"
     pagecolor="#ffffff"
     bordercolor="#666666"
     borderopacity="1.0"
     inkscape:showpageshadow="2"
     inkscape:pageopacity="0.0"
     inkscape:pagecheckerboard="0"
     inkscape:deskcolor="#d1d1d1"
     inkscape:zoom="11.313709"
     inkscape:cx="20.771262"
     inkscape:cy="23.643883"
     inkscape:window-width="1920"
     inkscape:window-height="1027"
     inkscape:window-x="-8"
     inkscape:window-y="22"
     inkscape:window-maximized="1"
     inkscape:current-layer="svg1" />
  <path
     fill="#000000"
     d="m 0.38190563,3.3e-5 c -0.01478,1.84e-4 -0.031,0.0016 -0.04838,0.004 0.05837,0.04334 0.108192,0.09581 0.143119,0.149329 0.0035,0 0.007,2.6e-5 0.0105,10e-5 0.03825,8.25e-4 0.07514,0.0062 0.112679,0.01525 -0.03323,-0.06025 -0.06338,-0.10627 -0.100468,-0.133859 -0.02925,-0.02176 -0.06365,-0.03423 -0.111203,-0.03484 -0.002,-2.8e-5 -0.0041,-2.8e-5 -0.0062,0 z m -0.194075,0.04861 c -0.0015,-4e-6 -0.0031,1.2e-5 -0.0046,4.6e-5 -0.02974,6.57e-4 -0.06217,0.0083 -0.09922,0.02357 0.118952,0.03982 0.226523,0.106858 0.283526,0.176978 0.03891,-0.01086 0.06233,-0.03117 0.07719,-0.06101 -0.07358,-0.06222 -0.132281,-0.108781 -0.19044,-0.128324 -0.02153,-0.0072 -0.04326,-0.01123 -0.06641,-0.01125 z m -4.3e-4,0.111766 c -0.08347,0.01431 -0.158229,0.06744 -0.185949,0.157085 v 0.682514 h 0.450422 c -0.282962,-0.102452 -0.365881,-0.602334 -0.09925,-0.552336 0.01236,-0.02999 0.021,-0.05934 0.02333,-0.08779 l 0.03944,0.0032 c -0.0036,0.0436 -0.01869,0.08573 -0.03818,0.12692 -0.0016,0.0043 -0.0031,0.0087 -0.0046,0.01284 0.06954,0.180482 0.24089,0.340235 0.358879,0.35613 0.0019,7e-5 0.004,-4e-6 0.0063,-1.91e-4 0.03603,0.0022 0.07593,-0.0089 0.110547,-0.04723 l 0.0169,-0.0187 -0.02217,-0.01198 c -0.01378,-0.0074 -0.03026,-0.01502 -0.03847,-0.02313 -0.0041,-0.0041 -0.0059,-0.0073 -0.0065,-0.011 -5.97e-4,-0.0037 -2.75e-4,-0.0089 0.0047,-0.01816 l 0.0226,-0.04162 -0.04549,0.01317 c -0.01335,0.0039 -0.03664,-0.0064 -0.04917,-0.02268 -0.0063,-0.0081 -0.0093,-0.01674 -0.0093,-0.02296 4.3e-5,-0.0062 0.0015,-0.01085 0.01005,-0.01704 l 0.04119,-0.02991 -0.05057,-0.0058 c -0.02112,-0.0024 -0.03466,-0.0141 -0.04059,-0.02603 -0.0059,-0.01193 -0.0049,-0.02135 0.0029,-0.02818 l 0.02584,-0.02261 -0.03252,-0.01102 c -0.01422,-0.0048 -0.0218,-0.016 -0.02193,-0.02251 -5.9e-5,-0.0029 5.04e-4,-0.0056 0.0039,-0.0095 0.02314,-0.0051 0.04501,-9.53e-4 0.05947,0.0135 0.01303,0.01301 0.01768,0.03203 0.01477,0.05258 0.0181,-0.0048 0.03596,-0.0034 0.05105,0.0053 0.01978,0.01141 0.03101,0.03323 0.03318,0.05921 0.03221,-0.02145 0.06808,-0.02694 0.09583,-0.01093 0.03275,0.01889 0.04523,0.06249 0.03558,0.109572 0.0508,-0.07062 0.0732301,-0.160319 0.01189,-0.254991 -0.09894,-0.0094 -0.172972,-0.06495 -0.197533,-0.143217 -0.01064,-0.03391 -0.04507,-0.0607 -0.08893,-0.08026 l -1.69e-4,4.6e-4 c -0.06297,-0.02292 -0.117671,-0.03674 -0.174901,-0.03966 l 1.7e-4,3.28e-4 c -0.0049,-1.97e-4 -0.0097,-3.39e-4 -0.01432,-3.64e-4 -0.02019,0.04843 -0.06069,0.08448 -0.121611,0.09751 l -0.01251,0.0027 -0.0076,-0.0103 c -0.0301,-0.04093 -0.0873,-0.08565 -0.156687,-0.122963 z m 0.33076,0.138177 c 0.05913,-1.54e-4 0.09501,0.0246 0.08912,0.09412 -0.07589,0.0072 -0.10996,-0.03532 -0.133549,-0.09027 0.0159,-0.0024 0.03078,-0.0038 0.04443,-0.0038 z m 0.102494,0.140513 c 0.0079,1.48e-4 0.01512,0.0021 0.0212,0.006 -0.0032,0.0023 -0.0061,0.0048 -0.0088,0.0075 -0.01111,0.0111 -0.01712,0.02567 -0.01685,0.03968 3.87e-4,0.01974 0.01116,0.03639 0.02685,0.04777 -0.0066,0.01716 -0.0052,0.03696 0.003,0.0534 0.0081,0.01624 0.02232,0.03022 0.04087,0.03895 -0.0031,0.0071 -0.005,0.01453 -0.0051,0.02187 -1.31e-4,0.0178 0.0072,0.03397 0.01752,0.04741 0.01438,0.01865 0.0357,0.03374 0.05934,0.03792 -3.87e-4,0.0046 -4.32e-4,0.0092 2.82e-4,0.01357 0.0022,0.01364 0.0096,0.02469 0.01774,0.03278 0.0072,0.0071 0.01522,0.01248 0.02286,0.01692 -0.01343,0.01015 -0.02628,0.01494 -0.03942,0.01649 -0.0138,-0.01681 -0.02056,-0.04041 -0.01993,-0.0666 -0.02491,0.01308 -0.05126,0.01515 -0.07224,0.003 -0.03106,-0.01791 -0.04106,-0.06148 -0.02792,-0.106566 -0.024,0.0059 -0.04686,0.0019 -0.0618,-0.01298 -0.01879,-0.01877 -0.02019,-0.05002 -0.0066,-0.08035 -0.0078,-0.0013 -0.01474,-0.0046 -0.02017,-0.01 -0.01865,-0.01863 -0.01222,-0.05524 0.01435,-0.08178 0.01661,-0.01659 0.03715,-0.02532 0.05478,-0.02499 z"
     id="path1"
     style="stroke-width:0.00211734" />
</svg>
