<?xml version="1.0" encoding="UTF-8" standalone="no"?>
<!-- Created with Inkscape (http://www.inkscape.org/) -->

<svg
   width="30.48mm"
   height="128.5mm"
   viewBox="0 0 30.480002 128.50002"
   version="1.1"
   id="svg8"
   inkscape:version="1.3.2 (091e20e, 2023-11-25, custom)"
   sodipodi:docname="MetaModule_Dark.svg"
   xml:space="preserve"
   xmlns:inkscape="http://www.inkscape.org/namespaces/inkscape"
   xmlns:sodipodi="http://sodipodi.sourceforge.net/DTD/sodipodi-0.dtd"
   xmlns="http://www.w3.org/2000/svg"
   xmlns:svg="http://www.w3.org/2000/svg"
   xmlns:rdf="http://www.w3.org/1999/02/22-rdf-syntax-ns#"
   xmlns:cc="http://creativecommons.org/ns#"
   xmlns:dc="http://purl.org/dc/elements/1.1/"><defs
     id="defs2"><linearGradient
       id="uuid-f0636bc7-c65b-4b70-b857-f875576c11d6"
       x1="37.5"
       y1="0"
       x2="37.5"
       y2="380"
       gradientUnits="userSpaceOnUse"><stop
         offset="0"
         stop-color="#ebebeb"
         id="stop2" /><stop
         offset="1"
         stop-color="#e1e1e1"
         id="stop4" /></linearGradient></defs><sodipodi:namedview
     id="base"
     pagecolor="#ffffff"
     bordercolor="#666666"
     borderopacity="1.0"
     inkscape:pageopacity="0.0"
     inkscape:pageshadow="2"
     inkscape:zoom="1.8152901"
     inkscape:cx="23.687674"
     inkscape:cy="306.56257"
     inkscape:document-units="mm"
     inkscape:current-layer="layer1"
     showgrid="true"
     units="mm"
     inkscape:snap-bbox="true"
     inkscape:snap-page="true"
     inkscape:bbox-nodes="false"
     inkscape:snap-bbox-edge-midpoints="false"
     inkscape:window-width="1920"
     inkscape:window-height="1027"
     inkscape:window-x="-8"
     inkscape:window-y="22"
     inkscape:window-maximized="1"
     inkscape:snap-bbox-midpoints="true"
     inkscape:snap-nodes="false"
     inkscape:showpageshadow="2"
     inkscape:pagecheckerboard="0"
     inkscape:deskcolor="#d1d1d1"><inkscape:grid
       id="grid1"
       units="px"
       originx="0"
       originy="0"
       spacingx="0.26458336"
       spacingy="0.26458338"
       empcolor="#3f3fff"
       empopacity="0.25098039"
       color="#3f3fff"
       opacity="0.1254902"
       empspacing="5"
       dotted="false"
       gridanglex="30"
       gridanglez="30"
       visible="true" /></sodipodi:namedview><metadata
     id="metadata5"><rdf:RDF><cc:Work
         rdf:about=""><dc:format>image/svg+xml</dc:format><dc:type
           rdf:resource="http://purl.org/dc/dcmitype/StillImage" /></cc:Work></rdf:RDF></metadata><g
     inkscape:label="Layer 1"
     inkscape:groupmode="layer"
     id="layer1"
     transform="translate(0,-168.49998)"
     style="display:inline"><rect
       style="display:inline;opacity:1;vector-effect:none;fill:#1f1f1f;fill-opacity:1;fill-rule:evenodd;stroke:none;stroke-width:0.649358;stroke-linecap:butt;stroke-linejoin:miter;stroke-miterlimit:4;stroke-dasharray:none;stroke-dashoffset:0;stroke-opacity:1;paint-order:normal"
       id="rect420"
       width="30.48"
       height="128.5"
       x="5.9211732e-17"
       y="168.49997" /><rect
       style="display:inline;fill:#e6e6e6;fill-opacity:1;stroke-width:0.264583"
       id="rect3"
       width="24.606249"
       height="13.229156"
       x="2.9104166"
       y="273.01041"
       ry="1.3229064"
       rx="1.0583339" /><path
       style="font-size:2.11667px;line-height:1.25;font-family:Nunito;-inkscape-font-specification:Nunito;letter-spacing:0px;word-spacing:0px;fill:#1f1f1f;stroke-width:0.264583;fill-opacity:1"
       d="M 7.0381277,275.73996 H 7.7678 q 0.050643,0 0.080615,-0.0351 0.031006,-0.0351 0.031006,-0.0816 0,-0.0475 -0.031006,-0.0827 -0.029972,-0.0362 -0.080615,-0.0362 H 7.184889 l -0.00103,-1.09967 q 0,-0.0692 -0.043408,-0.11162 -0.043408,-0.0424 -0.103353,-0.0424 -0.060978,0 -0.1054201,0.0424 -0.044442,0.0424 -0.044442,0.11162 v 1.15445 q 0,0.0744 0.042375,0.12816 0.042375,0.0527 0.1085207,0.0527 z m 1.1740903,0 h 0.7658459 q 0.049609,0 0.078548,-0.0341 0.029972,-0.0351 0.029972,-0.0817 0,-0.0465 -0.029972,-0.0816 -0.028939,-0.0351 -0.078548,-0.0351 H 8.3610464 v -0.41445 h 0.5529387 q 0.050643,0 0.080615,-0.0341 0.031006,-0.0341 0.031006,-0.0806 0,-0.0465 -0.029972,-0.0806 -0.029972,-0.0341 -0.081649,-0.0341 H 8.3610464 v -0.38034 h 0.5932463 q 0.050643,0 0.080615,-0.0351 0.029972,-0.0351 0.029972,-0.0817 0,-0.0465 -0.029972,-0.0817 -0.029972,-0.0351 -0.080615,-0.0351 h -0.73484 q -0.073381,0 -0.1136883,0.0496 -0.039274,0.0486 -0.039274,0.12506 v 1.14928 q 0,0.0651 0.042375,0.11576 0.042375,0.0506 0.103353,0.0506 z m 1.298114,0 q 0.060978,0 0.1054201,-0.0424 0.044442,-0.0424 0.044442,-0.11162 v -0.49712 h 0.5281341 q 0.05064,0 0.07958,-0.0331 0.02894,-0.0341 0.02894,-0.0817 0,-0.0465 -0.02997,-0.0806 -0.02894,-0.0341 -0.07855,-0.0341 H 9.6601939 v -0.3762 H 10.2183 q 0.04961,0 0.07855,-0.0351 0.02997,-0.0351 0.02997,-0.0817 0,-0.0465 -0.02997,-0.0817 -0.02894,-0.0351 -0.07855,-0.0351 H 9.5196337 q -0.065112,0 -0.1105877,0.0424 -0.045475,0.0413 -0.045475,0.11059 v 1.18339 q 0,0.0693 0.042375,0.11162 0.043408,0.0424 0.1043866,0.0424 z m 1.515155,0.001 q 0.06098,0 0.104387,-0.0424 0.04444,-0.0434 0.04444,-0.11266 v -1.10174 h 0.335897 q 0.05168,0 0.08268,-0.0351 0.03101,-0.0351 0.03101,-0.0827 0,-0.0465 -0.03204,-0.0817 -0.03101,-0.0362 -0.08165,-0.0362 h -0.969451 q -0.05168,0 -0.08372,0.0362 -0.03101,0.0351 -0.03101,0.0827 0,0.0475 0.03101,0.0827 0.03101,0.0341 0.08372,0.0341 h 0.336931 v 1.10174 q 0,0.0693 0.04341,0.11266 0.04444,0.0424 0.104386,0.0424 z"
       id="text1-4"
       aria-label="LEFT" /><path
       style="font-size:2.11667px;line-height:1.25;font-family:Nunito;-inkscape-font-specification:Nunito;letter-spacing:0px;word-spacing:0px;fill:#1f1f1f;stroke-width:0.264583;fill-opacity:1"
       d="m 18.191703,275.74668 q 0.06098,0 0.104387,-0.0403 0.04444,-0.0403 0.04444,-0.11265 v -0.48473 h 0.270785 0.0041 q 0.07235,0 0.118856,0.0134 0.04754,0.0134 0.07648,0.0455 0.02894,0.031 0.04237,0.0744 0.01344,0.0434 0.02067,0.11266 l 0.02584,0.23875 q 0.0072,0.0754 0.05168,0.11472 0.04444,0.0382 0.106454,0.0382 0.05994,0 0.09922,-0.0393 0.04031,-0.0393 0.04031,-0.10955 0,-0.0176 -0.001,-0.0269 l -0.02894,-0.24392 q -0.01654,-0.14676 -0.08785,-0.23151 -0.07028,-0.0858 -0.213941,-0.11368 v -0.004 q 0.168466,-0.0269 0.252181,-0.11782 0.08372,-0.092 0.08372,-0.22428 0,-0.3793 -0.54467,-0.3793 h -0.455787 q -0.06511,0 -0.111621,0.0434 -0.04547,0.0424 -0.04547,0.10852 v 1.18546 q 0,0.0713 0.04341,0.11265 0.04341,0.0403 0.104386,0.0403 z m 0.147795,-0.85783 v -0.40928 h 0.252182 0.0217 q 0.03721,0 0.06098,0.001 0.02377,0.001 0.05788,0.005 0.03411,0.003 0.05478,0.0114 0.0217,0.007 0.04651,0.0217 0.0248,0.0145 0.03824,0.0351 0.01447,0.0207 0.02377,0.0527 0.0093,0.031 0.0093,0.0713 0,0.0424 -0.01137,0.0755 -0.01137,0.0331 -0.02894,0.0548 -0.01757,0.0217 -0.04754,0.0372 -0.02894,0.0155 -0.05684,0.0238 -0.02687,0.008 -0.06718,0.0134 -0.03927,0.004 -0.06925,0.005 -0.02894,0.001 -0.07235,0.001 z m 1.328087,0.85783 q 0.06098,0 0.10542,-0.0424 0.04444,-0.0424 0.04444,-0.11162 v -1.18339 q 0,-0.0693 -0.04444,-0.11162 -0.04444,-0.0424 -0.104387,-0.0424 -0.05994,0 -0.104386,0.0424 -0.04341,0.0424 -0.04341,0.11162 v 1.18339 q 0,0.0693 0.04341,0.11162 0.04341,0.0424 0.103353,0.0424 z m 1.200962,0.0279 q 0.156063,0 0.433049,-0.061 0.07752,-0.0186 0.109554,-0.062 0.03307,-0.0434 0.03307,-0.13746 v -0.43408 q 0,-0.13953 -0.112655,-0.13953 h -0.399976 q -0.04547,0 -0.07131,0.0331 -0.0248,0.032 -0.0248,0.0734 0,0.0444 0.02687,0.0754 0.02687,0.03 0.07338,0.03 h 0.216008 v 0.35243 q -0.136426,0.032 -0.268718,0.032 -0.455787,0 -0.455787,-0.5426 0,-0.12506 0.02584,-0.22221 0.02584,-0.0971 0.08062,-0.1695 0.05478,-0.0734 0.145728,-0.11162 0.09095,-0.0393 0.21394,-0.0393 0.145728,0 0.360702,0.0661 0.0155,0.008 0.03514,0.008 0.04548,0 0.07441,-0.0362 0.02894,-0.0372 0.02894,-0.0837 0,-0.0289 -0.01654,-0.0558 -0.01654,-0.0279 -0.04858,-0.0444 -0.190169,-0.091 -0.445451,-0.091 -0.189136,0 -0.337965,0.061 -0.148828,0.061 -0.241846,0.16847 -0.09302,0.10749 -0.14056,0.24701 -0.04754,0.13953 -0.04754,0.30386 0,0.25115 0.09405,0.42788 0.09405,0.17674 0.262517,0.26459 0.168465,0.0868 0.397909,0.0868 z m 1.004591,-0.0279 q 0.06098,0 0.104387,-0.0424 0.04444,-0.0424 0.04444,-0.11162 v -0.49609 h 0.640789 v 0.49609 q 0,0.0693 0.04444,0.11162 0.04444,0.0424 0.104386,0.0424 0.06098,0 0.104387,-0.0424 0.04341,-0.0424 0.04341,-0.11162 v -1.18029 q 0,-0.0693 -0.04341,-0.11162 -0.04341,-0.0424 -0.103353,-0.0424 -0.06098,0 -0.10542,0.0424 -0.04444,0.0424 -0.04444,0.11162 v 0.44235 h -0.640789 v -0.44235 q 0,-0.0693 -0.04444,-0.11162 -0.04341,-0.0424 -0.103353,-0.0424 -0.06098,0 -0.105421,0.0424 -0.04341,0.0424 -0.04341,0.11162 v 1.18029 q 0,0.0693 0.04341,0.11162 0.04444,0.0424 0.104387,0.0424 z m 1.816946,0.002 q 0.06098,0 0.104387,-0.0424 0.04444,-0.0434 0.04444,-0.11265 v -1.10175 h 0.335897 q 0.05168,0 0.08268,-0.0351 0.03101,-0.0351 0.03101,-0.0827 0,-0.0465 -0.03204,-0.0816 -0.03101,-0.0362 -0.08165,-0.0362 h -0.969451 q -0.05168,0 -0.08372,0.0362 -0.03101,0.0351 -0.03101,0.0827 0,0.0476 0.03101,0.0827 0.03101,0.0341 0.08372,0.0341 h 0.336931 v 1.10175 q 0,0.0692 0.04341,0.11265 0.04444,0.0424 0.104386,0.0424 z"
       id="text2-9"
       aria-label="RIGHT" /><path
       style="font-size:2.11667px;line-height:1.25;font-family:Nunito;-inkscape-font-specification:Nunito;letter-spacing:0px;word-spacing:0px;stroke-width:0.264583;fill:#e6e6e6;fill-opacity:1"
       d="M 7.0495956,259.84747 H 7.779268 q 0.050643,0 0.080615,-0.0351 0.031006,-0.0351 0.031006,-0.0816 0,-0.0475 -0.031006,-0.0827 -0.029972,-0.0362 -0.080615,-0.0362 H 7.1963569 l -0.00103,-1.09968 q 0,-0.0692 -0.043408,-0.11162 -0.043408,-0.0424 -0.103353,-0.0424 -0.060978,0 -0.1054201,0.0424 -0.044442,0.0424 -0.044442,0.11162 v 1.15446 q 0,0.0744 0.042375,0.12815 0.042375,0.0527 0.1085206,0.0527 z m 1.1740904,0 h 0.7658459 q 0.049609,0 0.078548,-0.0341 0.029972,-0.0351 0.029972,-0.0817 0,-0.0465 -0.029972,-0.0816 -0.028939,-0.0351 -0.078548,-0.0351 H 8.3725143 v -0.41445 H 8.925453 q 0.050643,0 0.080615,-0.0341 0.031006,-0.0341 0.031006,-0.0806 0,-0.0465 -0.029972,-0.0806 -0.029972,-0.0341 -0.081649,-0.0341 H 8.3725143 v -0.38034 h 0.5932464 q 0.050643,0 0.080615,-0.0351 0.029972,-0.0351 0.029972,-0.0817 0,-0.0465 -0.029972,-0.0816 -0.029972,-0.0351 -0.080615,-0.0351 h -0.73484 q -0.073381,0 -0.1136883,0.0496 -0.039274,0.0486 -0.039274,0.12506 v 1.14928 q 0,0.0651 0.042375,0.11576 0.042375,0.0506 0.1033531,0.0506 z m 1.2981139,0 q 0.060978,0 0.1054201,-0.0424 0.044442,-0.0424 0.044442,-0.11162 v -0.49713 h 0.5281342 q 0.05064,0 0.07958,-0.0331 0.02894,-0.0341 0.02894,-0.0816 0,-0.0465 -0.02997,-0.0806 -0.02894,-0.0341 -0.07855,-0.0341 H 9.6716618 v -0.37621 h 0.5581062 q 0.04961,0 0.07855,-0.0351 0.02997,-0.0351 0.02997,-0.0817 0,-0.0465 -0.02997,-0.0816 -0.02894,-0.0351 -0.07855,-0.0351 H 9.5311017 q -0.065112,0 -0.1105878,0.0424 -0.045475,0.0413 -0.045475,0.11059 v 1.18339 q 0,0.0692 0.042375,0.11162 0.043408,0.0424 0.1043865,0.0424 z m 1.5151551,0.001 q 0.06098,0 0.104387,-0.0424 0.04444,-0.0434 0.04444,-0.11265 v -1.10175 h 0.335897 q 0.05168,0 0.08268,-0.0351 0.03101,-0.0351 0.03101,-0.0827 0,-0.0465 -0.03204,-0.0816 -0.03101,-0.0362 -0.08165,-0.0362 H 10.55223 q -0.05168,0 -0.08372,0.0362 -0.03101,0.0351 -0.03101,0.0827 0,0.0475 0.03101,0.0827 0.03101,0.0341 0.08372,0.0341 h 0.33693 v 1.10175 q 0,0.0692 0.04341,0.11265 0.04444,0.0424 0.104386,0.0424 z"
       id="text1"
       aria-label="LEFT" /><path
       style="font-size:2.11667px;line-height:1.25;font-family:Nunito;-inkscape-font-specification:Nunito;letter-spacing:0px;word-spacing:0px;stroke-width:0.264583;fill:#e6e6e6;fill-opacity:1"
       d="m 18.203168,259.85419 q 0.06098,0 0.104387,-0.0403 0.04444,-0.0403 0.04444,-0.11265 v -0.48473 h 0.270785 0.0041 q 0.07235,0 0.118856,0.0134 0.04754,0.0134 0.07648,0.0455 0.02894,0.031 0.04237,0.0744 0.01344,0.0434 0.02067,0.11265 l 0.02584,0.23875 q 0.0072,0.0754 0.05168,0.11472 0.04444,0.0382 0.106454,0.0382 0.05994,0 0.09922,-0.0393 0.04031,-0.0393 0.04031,-0.10956 0,-0.0176 -0.001,-0.0269 l -0.02894,-0.24391 q -0.01654,-0.14676 -0.08785,-0.23151 -0.07028,-0.0858 -0.213941,-0.11369 v -0.004 q 0.168466,-0.0269 0.252182,-0.11782 0.08372,-0.092 0.08372,-0.22427 0,-0.37931 -0.54467,-0.37931 H 18.21247 q -0.06511,0 -0.111621,0.0434 -0.04547,0.0424 -0.04547,0.10852 v 1.18546 q 0,0.0713 0.04341,0.11265 0.04341,0.0403 0.104386,0.0403 z m 0.147795,-0.85783 v -0.40928 h 0.252182 0.0217 q 0.03721,0 0.06098,0.001 0.02377,0.001 0.05788,0.005 0.03411,0.003 0.05478,0.0114 0.0217,0.007 0.04651,0.0217 0.0248,0.0145 0.03824,0.0351 0.01447,0.0207 0.02377,0.0527 0.0093,0.031 0.0093,0.0713 0,0.0424 -0.01137,0.0754 -0.01137,0.0331 -0.02894,0.0548 -0.01757,0.0217 -0.04754,0.0372 -0.02894,0.0155 -0.05684,0.0238 -0.02687,0.008 -0.06718,0.0134 -0.03927,0.004 -0.06925,0.005 -0.02894,0.001 -0.07235,0.001 z m 1.328087,0.85783 q 0.06098,0 0.10542,-0.0424 0.04444,-0.0424 0.04444,-0.11162 v -1.1834 q 0,-0.0692 -0.04444,-0.11162 -0.04444,-0.0424 -0.104387,-0.0424 -0.05994,0 -0.104386,0.0424 -0.04341,0.0424 -0.04341,0.11162 v 1.1834 q 0,0.0692 0.04341,0.11162 0.04341,0.0424 0.103353,0.0424 z m 1.200962,0.0279 q 0.156063,0 0.433049,-0.061 0.07751,-0.0186 0.109554,-0.062 0.03307,-0.0434 0.03307,-0.13746 v -0.43409 q 0,-0.13952 -0.112655,-0.13952 h -0.399976 q -0.04547,0 -0.07131,0.0331 -0.0248,0.032 -0.0248,0.0734 0,0.0444 0.02687,0.0754 0.02687,0.03 0.07338,0.03 h 0.216008 v 0.35244 q -0.136426,0.032 -0.268718,0.032 -0.455787,0 -0.455787,-0.5426 0,-0.12506 0.02584,-0.22221 0.02584,-0.0971 0.08062,-0.1695 0.05478,-0.0734 0.145728,-0.11162 0.09095,-0.0393 0.21394,-0.0393 0.145728,0 0.360702,0.0661 0.0155,0.008 0.03514,0.008 0.04547,0 0.07441,-0.0362 0.02894,-0.0372 0.02894,-0.0837 0,-0.0289 -0.01654,-0.0558 -0.01654,-0.0279 -0.04858,-0.0444 -0.190169,-0.091 -0.445451,-0.091 -0.189136,0 -0.337965,0.061 -0.148828,0.061 -0.241846,0.16846 -0.09302,0.10749 -0.14056,0.24702 -0.04754,0.13952 -0.04754,0.30385 0,0.25115 0.09405,0.42789 0.09405,0.17673 0.262517,0.26458 0.168465,0.0868 0.397909,0.0868 z m 1.004591,-0.0279 q 0.06098,0 0.104387,-0.0424 0.04444,-0.0424 0.04444,-0.11162 v -0.4961 h 0.640789 v 0.4961 q 0,0.0692 0.04444,0.11162 0.04444,0.0424 0.104387,0.0424 0.06098,0 0.104386,-0.0424 0.04341,-0.0424 0.04341,-0.11162 v -1.1803 q 0,-0.0692 -0.04341,-0.11162 -0.04341,-0.0424 -0.103353,-0.0424 -0.06098,0 -0.10542,0.0424 -0.04444,0.0424 -0.04444,0.11162 v 0.44235 h -0.640789 v -0.44235 q 0,-0.0692 -0.04444,-0.11162 -0.04341,-0.0424 -0.103353,-0.0424 -0.06098,0 -0.10542,0.0424 -0.04341,0.0424 -0.04341,0.11162 v 1.1803 q 0,0.0692 0.04341,0.11162 0.04444,0.0424 0.104386,0.0424 z m 1.816946,0.002 q 0.06098,0 0.104387,-0.0424 0.04444,-0.0434 0.04444,-0.11265 v -1.10174 h 0.335897 q 0.05168,0 0.08268,-0.0351 0.03101,-0.0351 0.03101,-0.0827 0,-0.0465 -0.03204,-0.0816 -0.03101,-0.0362 -0.08165,-0.0362 h -0.969451 q -0.05168,0 -0.08372,0.0362 -0.03101,0.0351 -0.03101,0.0827 0,0.0475 0.03101,0.0827 0.03101,0.0341 0.08372,0.0341 h 0.336931 v 1.10174 q 0,0.0693 0.04341,0.11265 0.04444,0.0424 0.104386,0.0424 z"
       id="text2"
       aria-label="RIGHT" /></g><g
     id="g3"
     style="display:none"><circle
       inkscape:label="input_2"
       cy="96.569099"
       cx="21.177668"
       id="input_2"
       style="display:inline;vector-effect:none;fill:#00ff00;fill-opacity:1;fill-rule:evenodd;stroke:none;stroke-width:1;stroke-linecap:butt;stroke-linejoin:miter;stroke-miterlimit:4;stroke-dasharray:none;stroke-dashoffset:0;stroke-opacity:1;paint-order:normal"
       r="4" /><circle
       inkscape:label="input_1"
       cy="96.560974"
       cx="9.2670345"
       id="input_1"
       style="display:inline;vector-effect:none;fill:#00ff00;fill-opacity:1;fill-rule:evenodd;stroke:none;stroke-width:1;stroke-linecap:butt;stroke-linejoin:miter;stroke-miterlimit:4;stroke-dasharray:none;stroke-dashoffset:0;stroke-opacity:1;paint-order:normal"
       r="4" /><circle
       inkscape:label="output_2"
       cy="112.4538"
       cx="21.166203"
       id="output_2"
       style="display:inline;vector-effect:none;fill:#0000ff;fill-opacity:1;fill-rule:evenodd;stroke:none;stroke-width:1;stroke-linecap:butt;stroke-linejoin:miter;stroke-miterlimit:4;stroke-dasharray:none;stroke-dashoffset:0;stroke-opacity:1;paint-order:normal"
       r="4" /><circle
       inkscape:label="output_1"
       cy="112.44569"
       cx="9.2555666"
       id="output_1"
       style="display:inline;vector-effect:none;fill:#0000ff;fill-opacity:1;fill-rule:evenodd;stroke:none;stroke-width:1;stroke-linecap:butt;stroke-linejoin:miter;stroke-miterlimit:4;stroke-dasharray:none;stroke-dashoffset:0;stroke-opacity:1;paint-order:normal"
       r="4" /><rect
       style="display:inline;fill:#ffff00;fill-opacity:1;stroke-width:0.264583"
       id="widgetLogo"
       width="19.84375"
       height="79.375"
       x="5.2916665"
       y="5.2916665"
       ry="0"
       inkscape:label="widgetLogo"
       rx="0" /></g></svg>
