<?xml version="1.0" encoding="UTF-8" standalone="no"?>
<!-- Created with Inkscape (http://www.inkscape.org/) -->

<svg
   width="255"
   height="379.99997"
   viewBox="0 0 255 379.99997"
   version="1.1"
   id="svg8"
   inkscape:version="1.4.2 (ebf0e94, 2025-05-08)"
   sodipodi:docname="Automata.svg"
   xml:space="preserve"
   xmlns:inkscape="http://www.inkscape.org/namespaces/inkscape"
   xmlns:sodipodi="http://sodipodi.sourceforge.net/DTD/sodipodi-0.dtd"
   xmlns="http://www.w3.org/2000/svg"
   xmlns:svg="http://www.w3.org/2000/svg"
   xmlns:rdf="http://www.w3.org/1999/02/22-rdf-syntax-ns#"
   xmlns:cc="http://creativecommons.org/ns#"
   xmlns:dc="http://purl.org/dc/elements/1.1/"><defs
     id="defs2"><rect
       x="90"
       y="400"
       width="49.999996"
       height="50"
       id="rect1" /><linearGradient
       id="uuid-f0636bc7-c65b-4b70-b857-f875576c11d6"
       x1="37.5"
       y1="0"
       x2="37.5"
       y2="380"
       gradientUnits="userSpaceOnUse"><stop
         offset="0"
         stop-color="#ebebeb"
         id="stop2" /><stop
         offset="1"
         stop-color="#e1e1e1"
         id="stop4" /></linearGradient><rect
       x="90"
       y="400"
       width="49.999996"
       height="50"
       id="rect1-3" /><rect
       x="90"
       y="400"
       width="49.999996"
       height="50"
       id="rect1-3-6" /><rect
       x="90"
       y="400"
       width="64.788734"
       height="55.488926"
       id="rect1-3-6-5" /><rect
       x="90"
       y="400"
       width="64.788734"
       height="55.488926"
       id="rect5" /><rect
       x="90"
       y="400"
       width="64.788734"
       height="55.488926"
       id="rect6" /><rect
       x="90"
       y="400"
       width="64.788734"
       height="55.488926"
       id="rect6-0" /></defs><sodipodi:namedview
     id="base"
     pagecolor="#ffffff"
     bordercolor="#666666"
     borderopacity="1.0"
     inkscape:pageopacity="0.0"
     inkscape:pageshadow="2"
     inkscape:zoom="3.0963836"
     inkscape:cx="100.27827"
     inkscape:cy="217.02737"
     inkscape:document-units="px"
     inkscape:current-layer="layer2"
     showgrid="true"
     units="mm"
     inkscape:snap-bbox="true"
     inkscape:snap-page="true"
     inkscape:bbox-nodes="false"
     inkscape:snap-bbox-edge-midpoints="false"
     inkscape:window-width="1920"
     inkscape:window-height="1027"
     inkscape:window-x="-8"
     inkscape:window-y="22"
     inkscape:window-maximized="1"
     inkscape:snap-bbox-midpoints="true"
     inkscape:snap-nodes="false"
     inkscape:showpageshadow="2"
     inkscape:pagecheckerboard="0"
     inkscape:deskcolor="#d1d1d1"
     showguides="true"><inkscape:grid
       id="grid1"
       units="px"
       originx="2.7755576e-17"
       originy="0"
       spacingx="1"
       spacingy="1"
       empcolor="#3f3fff"
       empopacity="0.25098039"
       color="#3f3fff"
       opacity="0.1254902"
       empspacing="5"
       dotted="false"
       gridanglex="30"
       gridanglez="30"
       visible="true" /></sodipodi:namedview><metadata
     id="metadata5"><rdf:RDF><cc:Work
         rdf:about=""><dc:format>image/svg+xml</dc:format><dc:type
           rdf:resource="http://purl.org/dc/dcmitype/StillImage" /></cc:Work></rdf:RDF></metadata><g
     inkscape:label="Layer 1"
     inkscape:groupmode="layer"
     id="layer1"
     transform="translate(0,-168.49998)"
     style="display:inline"><rect
       style="display:inline;opacity:1;vector-effect:none;fill:#1f1f1f;fill-opacity:1;fill-rule:evenodd;stroke:none;stroke-width:3.22989;stroke-linecap:butt;stroke-linejoin:miter;stroke-miterlimit:4;stroke-dasharray:none;stroke-dashoffset:0;stroke-opacity:1;paint-order:normal"
       id="bg--background-fill"
       width="255"
       height="379.99997"
       x="2.2903763e-16"
       y="168.49998" /><rect
       style="display:inline;fill:#707070;stroke-width:3.11924;paint-order:stroke fill markers"
       id="footer--hidden"
       width="255"
       height="35"
       x="2.1034791e-14"
       y="513.49994" /><rect
       style="display:inline;fill:#707070;stroke-width:3.11924;paint-order:stroke fill markers"
       id="header--hidden"
       width="255"
       height="35"
       x="-2.7755576e-17"
       y="168.49998" /><rect
       style="display:inline;fill:#bf9b30;fill-opacity:1;stroke-width:0;stroke-dasharray:none"
       id="outputBlock--output-fill"
       width="243"
       height="42"
       x="6"
       y="467.49997"
       ry="4.4210525" /><text
       xml:space="preserve"
       style="font-size:10px;line-height:1.25;font-family:Nunito;-inkscape-font-specification:Nunito;letter-spacing:0px;word-spacing:0px;display:inline;fill:#1f1f1f;fill-opacity:1"
       x="226.105"
       y="477.49997"
       id="textEOCOut--text-output"><tspan
         sodipodi:role="line"
         id="tspan1-7-8-5-4-1-8-4"
         x="226.105"
         y="477.49997"
         style="font-style:normal;font-variant:normal;font-weight:500;font-stretch:normal;font-size:10px;font-family:Sono;-inkscape-font-specification:'Sono Medium';fill:#1f1f1f;fill-opacity:1">EOC</tspan></text><text
       xml:space="preserve"
       style="display:inline;font-size:10px;line-height:1.25;font-family:Nunito;-inkscape-font-specification:Nunito;letter-spacing:0px;word-spacing:0px;fill:#1f1f1f;fill-opacity:1"
       x="205.27251"
       y="477.49997"
       id="textTriggerGroup8--text-output"><tspan
         sodipodi:role="line"
         id="tspan1-7-8-5-4-1-8-4-6-42"
         x="205.27251"
         y="477.49997"
         style="font-style:normal;font-variant:normal;font-weight:500;font-stretch:normal;font-size:10px;font-family:Sono;-inkscape-font-specification:'Sono Medium';fill:#1f1f1f;fill-opacity:1">8</tspan></text><text
       xml:space="preserve"
       style="display:inline;font-size:10px;line-height:1.25;font-family:Nunito;-inkscape-font-specification:Nunito;letter-spacing:0px;word-spacing:0px;fill:#1f1f1f;fill-opacity:1"
       x="178.7675"
       y="477.49997"
       id="textTriggerGroup7--text-output"><tspan
         sodipodi:role="line"
         id="tspan1-7-8-5-4-1-8-4-6-6"
         x="178.7675"
         y="477.49997"
         style="font-style:normal;font-variant:normal;font-weight:500;font-stretch:normal;font-size:10px;font-family:Sono;-inkscape-font-specification:'Sono Medium';fill:#1f1f1f;fill-opacity:1">7</tspan></text><text
       xml:space="preserve"
       style="font-size:10px;line-height:1.25;font-family:Nunito;-inkscape-font-specification:Nunito;letter-spacing:0px;word-spacing:0px;display:inline;fill:#1f1f1f;fill-opacity:1"
       x="151.545"
       y="477.49997"
       id="textTriggerGroup6--text-output"><tspan
         sodipodi:role="line"
         id="tspan1-7-8-5-4-1-8-4-6-0"
         x="151.545"
         y="477.49997"
         style="font-style:normal;font-variant:normal;font-weight:500;font-stretch:normal;font-size:10px;font-family:Sono;-inkscape-font-specification:'Sono Medium';fill:#1f1f1f;fill-opacity:1">6</tspan></text><text
       xml:space="preserve"
       style="display:inline;font-size:10px;line-height:1.25;font-family:Nunito;-inkscape-font-specification:Nunito;letter-spacing:0px;word-spacing:0px;fill:#1f1f1f;fill-opacity:1"
       x="124.7425"
       y="477.49997"
       id="textTriggerGroup5--text-output"><tspan
         sodipodi:role="line"
         id="tspan1-7-8-5-4-1-8-4-6-35"
         x="124.7425"
         y="477.49997"
         style="font-style:normal;font-variant:normal;font-weight:500;font-stretch:normal;font-size:10px;font-family:Sono;-inkscape-font-specification:'Sono Medium';fill:#1f1f1f;fill-opacity:1">5</tspan></text><text
       xml:space="preserve"
       style="display:inline;font-size:10px;line-height:1.25;font-family:Nunito;-inkscape-font-specification:Nunito;letter-spacing:0px;word-spacing:0px;fill:#1f1f1f;fill-opacity:1"
       x="97.802498"
       y="477.49997"
       id="textTriggerGroup4--text-output"><tspan
         sodipodi:role="line"
         id="tspan1-7-8-5-4-1-8-4-6-2"
         x="97.802498"
         y="477.49997"
         style="font-style:normal;font-variant:normal;font-weight:500;font-stretch:normal;font-size:10px;font-family:Sono;-inkscape-font-specification:'Sono Medium';fill:#1f1f1f;fill-opacity:1">4</tspan></text><text
       xml:space="preserve"
       style="display:inline;font-size:10px;line-height:1.25;font-family:Nunito;-inkscape-font-specification:Nunito;letter-spacing:0px;word-spacing:0px;fill:#1f1f1f;fill-opacity:1"
       x="71.122498"
       y="477.49997"
       id="textTriggerGroup3--text-output"><tspan
         sodipodi:role="line"
         id="tspan1-7-8-5-4-1-8-4-6-3"
         x="71.122498"
         y="477.49997"
         style="font-style:normal;font-variant:normal;font-weight:500;font-stretch:normal;font-size:10px;font-family:Sono;-inkscape-font-specification:'Sono Medium';fill:#1f1f1f;fill-opacity:1">3</tspan></text><text
       xml:space="preserve"
       style="display:inline;font-size:10px;line-height:1.25;font-family:Nunito;-inkscape-font-specification:Nunito;letter-spacing:0px;word-spacing:0px;fill:#1f1f1f;fill-opacity:1"
       x="44.18"
       y="477.49997"
       id="textTriggerGroup2--text-output"><tspan
         sodipodi:role="line"
         id="tspan1-7-8-5-4-1-8-4-6-4"
         x="44.18"
         y="477.49997"
         style="font-style:normal;font-variant:normal;font-weight:500;font-stretch:normal;font-size:10px;font-family:Sono;-inkscape-font-specification:'Sono Medium';fill:#1f1f1f;fill-opacity:1">2</tspan></text><text
       xml:space="preserve"
       style="display:inline;font-size:10px;line-height:1.25;font-family:Nunito;-inkscape-font-specification:Nunito;letter-spacing:0px;word-spacing:0px;fill:#1f1f1f;fill-opacity:1"
       x="17.559996"
       y="477.49997"
       id="textTriggerGroup1--text-output"><tspan
         sodipodi:role="line"
         id="tspan1-7-8-5-4-1-8-4-6"
         x="17.559996"
         y="477.49997"
         style="font-style:normal;font-variant:normal;font-weight:500;font-stretch:normal;font-size:10px;font-family:Sono;-inkscape-font-specification:'Sono Medium';fill:#1f1f1f;fill-opacity:1">1</tspan></text><text
       xml:space="preserve"
       style="font-size:10px;line-height:1.25;font-family:Nunito;-inkscape-font-specification:Nunito;letter-spacing:0px;word-spacing:0px;display:inline;fill:#bf9b30;fill-opacity:1"
       x="223.39001"
       y="429.39499"
       id="textRandomTrig--text"><tspan
         sodipodi:role="line"
         id="tspan1-7-8-5-4-1-8"
         x="223.39001"
         y="429.39499"
         style="font-style:normal;font-variant:normal;font-weight:500;font-stretch:normal;font-size:10px;font-family:Sono;-inkscape-font-specification:'Sono Medium';fill:#bf9b30;fill-opacity:1">RAND</tspan></text><text
       xml:space="preserve"
       style="font-size:10px;line-height:1.25;font-family:Nunito;-inkscape-font-specification:Nunito;letter-spacing:0px;word-spacing:0px;display:inline;fill:#bf9b30;fill-opacity:1"
       x="168.66701"
       y="429.39499"
       id="textRandomDensityCV--text"><tspan
         sodipodi:role="line"
         id="tspan1-7-8-5-4-1"
         x="168.66701"
         y="429.39499"
         style="font-style:normal;font-variant:normal;font-weight:500;font-stretch:normal;font-size:10px;font-family:Sono;-inkscape-font-specification:'Sono Medium';fill:#bf9b30;fill-opacity:1">RND % CV</tspan></text><text
       xml:space="preserve"
       style="font-size:10px;line-height:1.25;font-family:Nunito;-inkscape-font-specification:Nunito;letter-spacing:0px;word-spacing:0px;display:inline;fill:#bf9b30;fill-opacity:1"
       x="116.777"
       y="429.39499"
       id="textLengthCV--text"><tspan
         sodipodi:role="line"
         id="tspan1-7-8-5-4-3"
         x="116.777"
         y="429.39499"
         style="font-style:normal;font-variant:normal;font-weight:500;font-stretch:normal;font-size:10px;font-family:Sono;-inkscape-font-specification:'Sono Medium';fill:#bf9b30;fill-opacity:1">LEN CV</tspan></text><text
       xml:space="preserve"
       style="font-size:10px;line-height:1.25;font-family:Nunito;-inkscape-font-specification:Nunito;letter-spacing:0px;word-spacing:0px;display:inline;fill:#bf9b30;fill-opacity:1"
       x="68.987503"
       y="429.39499"
       id="textLengthTrig--text"><tspan
         sodipodi:role="line"
         id="tspan1-7-8-5-2-0-8"
         x="68.987503"
         y="429.39499"
         style="font-style:normal;font-variant:normal;font-weight:500;font-stretch:normal;font-size:10px;font-family:Sono;-inkscape-font-specification:'Sono Medium';fill:#bf9b30;fill-opacity:1">LEN TGL</tspan></text><text
       xml:space="preserve"
       style="font-size:10px;line-height:1.25;font-family:Nunito;-inkscape-font-specification:Nunito;letter-spacing:0px;word-spacing:0px;display:inline;fill:#bf9b30;fill-opacity:1"
       x="44.635002"
       y="429.39499"
       id="textResetTrig--text"><tspan
         sodipodi:role="line"
         id="tspan1-7-8-5-2-0"
         x="44.635002"
         y="429.39499"
         style="font-style:normal;font-variant:normal;font-weight:500;font-stretch:normal;font-size:10px;font-family:Sono;-inkscape-font-specification:'Sono Medium';fill:#bf9b30;fill-opacity:1">RST</tspan></text><text
       xml:space="preserve"
       style="font-size:10px;line-height:1.25;font-family:Nunito;-inkscape-font-specification:Nunito;letter-spacing:0px;word-spacing:0px;display:inline;fill:#bf9b30;fill-opacity:1"
       x="11.992502"
       y="429.39499"
       id="textClock--text"><tspan
         sodipodi:role="line"
         id="tspan1-7-8-5-2"
         x="11.992502"
         y="429.39499"
         style="font-style:normal;font-variant:normal;font-weight:500;font-stretch:normal;font-size:10px;font-family:Sono;-inkscape-font-specification:'Sono Medium';fill:#bf9b30;fill-opacity:1">CLK</tspan></text><text
       xml:space="preserve"
       style="font-size:10px;line-height:1.25;font-family:Nunito;-inkscape-font-specification:Nunito;letter-spacing:0px;word-spacing:0px;display:inline;fill:#bf9b30;fill-opacity:1"
       x="222.78001"
       y="385.39499"
       id="textMode--text"><tspan
         sodipodi:role="line"
         id="tspan1-7-8-5-8-7"
         x="222.78001"
         y="385.39499"
         style="font-style:normal;font-variant:normal;font-weight:500;font-stretch:normal;font-size:10px;font-family:Sono;-inkscape-font-specification:'Sono Medium';fill:#bf9b30;fill-opacity:1">MODE</tspan></text><text
       xml:space="preserve"
       style="font-size:10px;line-height:1.25;font-family:Nunito;-inkscape-font-specification:Nunito;letter-spacing:0px;word-spacing:0px;display:inline;fill:#bf9b30;fill-opacity:1"
       x="182.45"
       y="385.39499"
       id="textRandomDensity--text"><tspan
         sodipodi:role="line"
         id="tspan1-7-8-5-8-9-1"
         x="182.45"
         y="385.39499"
         style="font-style:normal;font-variant:normal;font-weight:500;font-stretch:normal;font-size:10px;font-family:Sono;-inkscape-font-specification:'Sono Medium';fill:#bf9b30;fill-opacity:1">RND %</tspan></text><text
       xml:space="preserve"
       style="font-size:10px;line-height:1.25;font-family:Nunito;-inkscape-font-specification:Nunito;letter-spacing:0px;word-spacing:0px;display:inline;fill:#bf9b30;fill-opacity:1"
       x="146.69"
       y="385.39499"
       id="textRandomize--text"><tspan
         sodipodi:role="line"
         id="tspan1-7-8-5-8-9"
         x="146.69"
         y="385.39499"
         style="font-style:normal;font-variant:normal;font-weight:500;font-stretch:normal;font-size:10px;font-family:Sono;-inkscape-font-specification:'Sono Medium';fill:#bf9b30;fill-opacity:1">RAND</tspan></text><text
       xml:space="preserve"
       style="font-size:10px;line-height:1.25;font-family:Nunito;-inkscape-font-specification:Nunito;letter-spacing:0px;word-spacing:0px;display:inline;fill:#bf9b30;fill-opacity:1"
       x="89.667007"
       y="385.39499"
       id="textLength--text"><tspan
         sodipodi:role="line"
         x="89.667007"
         y="385.39499"
         style="font-style:normal;font-variant:normal;font-weight:500;font-stretch:normal;font-size:10px;font-family:Sono;-inkscape-font-specification:'Sono Medium';fill:#bf9b30;fill-opacity:1"
         id="tspan2">SEQ LEN</tspan></text><text
       xml:space="preserve"
       style="font-size:10px;line-height:1.25;font-family:Nunito;-inkscape-font-specification:Nunito;letter-spacing:0px;word-spacing:0px;display:inline;fill:#bf9b30;fill-opacity:1"
       x="47.334999"
       y="385.39499"
       id="textResetButton--text"><tspan
         sodipodi:role="line"
         id="tspan1-7-8-5-8"
         x="47.334999"
         y="385.39499"
         style="font-style:normal;font-variant:normal;font-weight:500;font-stretch:normal;font-size:10px;font-family:Sono;-inkscape-font-specification:'Sono Medium';fill:#bf9b30;fill-opacity:1">RST</tspan></text><text
       xml:space="preserve"
       style="font-size:10px;line-height:1.25;font-family:Nunito;-inkscape-font-specification:Nunito;letter-spacing:0px;word-spacing:0px;display:inline;fill:#bf9b30;fill-opacity:1"
       x="8.8049984"
       y="385.39499"
       id="textStep--text"><tspan
         sodipodi:role="line"
         id="tspan1-7-8-5"
         x="8.8049984"
         y="385.39499"
         style="font-style:normal;font-variant:normal;font-weight:500;font-stretch:normal;font-size:10px;font-family:Sono;-inkscape-font-specification:'Sono Medium';fill:#bf9b30;fill-opacity:1">STEP</tspan></text><rect
       style="display:inline;fill:#bf9b30;fill-opacity:1;stroke-width:0;stroke-dasharray:none"
       id="silkRandomDensityCVLine--silkscreen"
       width="27"
       height="2"
       x="177.59953"
       y="446.49997" /><rect
       style="display:inline;fill:#bf9b30;fill-opacity:1;stroke-width:0;stroke-dasharray:none"
       id="silkLengthCVLine--silkscreen"
       width="27"
       height="2"
       x="120.19952"
       y="446.49997" /><rect
       style="display:inline;fill:#bf9b30;fill-opacity:1;stroke-width:0;stroke-dasharray:none"
       id="silkLengthLine--silkscreen"
       width="30"
       height="2"
       x="93.699997"
       y="402.49997" /><text
       xml:space="preserve"
       style="font-style:normal;font-weight:normal;font-size:16px;line-height:1.25;font-family:sans-serif;text-align:end;letter-spacing:0px;word-spacing:0px;direction:ltr;text-anchor:end;display:inline;fill:#bf9b30;fill-opacity:1;stroke:none;stroke-width:0.781836"
       x="175.22693"
       y="190.77621"
       id="moduleName--moduleName"
       transform="scale(0.99924857,1.000752)"><tspan
         sodipodi:role="line"
         id="tspan2-1"
         style="font-style:normal;font-variant:normal;font-weight:500;font-stretch:normal;font-family:Sono;-inkscape-font-specification:'Sono Medium';text-align:start;letter-spacing:0px;word-spacing:0px;direction:ltr;baseline-shift:baseline;text-anchor:start;fill:#bf9b30;fill-opacity:1;stroke-width:0.781836"
         x="175.22693"
         y="190.77621"
         rotate="0 0 0 0 0 0 0 0 0">AUTOMATA</tspan></text></g><g
     inkscape:groupmode="layer"
     id="layer2"
     inkscape:label="Widgets"><rect
       style="fill:#ffff00;fill-opacity:1;stroke-width:10.8096;paint-order:stroke fill markers"
       id="widgetLogo--hidden"
       width="25"
       height="25"
       x="115"
       y="349.99994" /><rect
       style="display:inline;fill:#ffff00;fill-opacity:1;stroke-width:4.35296;paint-order:stroke fill markers"
       id="widget_Board--hidden"
       width="200"
       height="170"
       x="27.5"
       y="35" /><path
       style="fill:#0000ff;fill-opacity:1;stroke-width:0.57378;paint-order:stroke fill markers"
       id="output_EOC--hidden"
       sodipodi:type="arc"
       sodipodi:cx="235"
       sodipodi:cy="325"
       sodipodi:rx="12"
       sodipodi:ry="12"
       sodipodi:start="0"
       sodipodi:end="6.219305"
       sodipodi:arc-type="arc"
       d="m 247,325 a 12,12 0 0 1 -11.80837,11.99847 12,12 0 0 1 -12.18551,-11.61525 12,12 0 0 1 11.41918,-12.36945 12,12 0 0 1 12.55022,11.22019"
       sodipodi:open="true" /><path
       style="display:inline;fill:#0000ff;fill-opacity:1;stroke-width:0.57378;paint-order:stroke fill markers"
       id="output_Trigger8--hidden"
       sodipodi:type="arc"
       sodipodi:cx="208.125"
       sodipodi:cy="325"
       sodipodi:rx="12"
       sodipodi:ry="12"
       sodipodi:start="0"
       sodipodi:end="6.219305"
       sodipodi:arc-type="arc"
       d="m 220.125,325 a 12,12 0 0 1 -11.80837,11.99847 12,12 0 0 1 -12.18551,-11.61525 12,12 0 0 1 11.41918,-12.36945 12,12 0 0 1 12.55022,11.22019"
       sodipodi:open="true" /><path
       style="display:inline;fill:#0000ff;fill-opacity:1;stroke-width:0.57378;paint-order:stroke fill markers"
       id="output_Trigger7--hidden"
       sodipodi:type="arc"
       sodipodi:cx="181.25"
       sodipodi:cy="325"
       sodipodi:rx="12"
       sodipodi:ry="12"
       sodipodi:start="0"
       sodipodi:end="6.219305"
       sodipodi:arc-type="arc"
       d="m 193.25,325 a 12,12 0 0 1 -11.80837,11.99847 12,12 0 0 1 -12.18551,-11.61525 12,12 0 0 1 11.41918,-12.36945 12,12 0 0 1 12.55022,11.22019"
       sodipodi:open="true" /><path
       style="display:inline;fill:#0000ff;fill-opacity:1;stroke-width:0.57378;paint-order:stroke fill markers"
       id="output_Trigger6--hidden"
       sodipodi:type="arc"
       sodipodi:cx="154.375"
       sodipodi:cy="325"
       sodipodi:rx="12"
       sodipodi:ry="12"
       sodipodi:start="0"
       sodipodi:end="6.219305"
       sodipodi:arc-type="arc"
       d="m 166.375,325 a 12,12 0 0 1 -11.80837,11.99847 12,12 0 0 1 -12.18551,-11.61525 12,12 0 0 1 11.41918,-12.36945 12,12 0 0 1 12.55022,11.22019"
       sodipodi:open="true" /><path
       style="display:inline;fill:#0000ff;fill-opacity:1;stroke-width:0.57378;paint-order:stroke fill markers"
       id="output_Trigger5--hidden"
       sodipodi:type="arc"
       sodipodi:cx="127.5"
       sodipodi:cy="325"
       sodipodi:rx="12"
       sodipodi:ry="12"
       sodipodi:start="0"
       sodipodi:end="6.219305"
       sodipodi:arc-type="arc"
       d="m 139.5,325 a 12,12 0 0 1 -11.80837,11.99847 12,12 0 0 1 -12.18551,-11.61525 12,12 0 0 1 11.41918,-12.36945 12,12 0 0 1 12.55022,11.22019"
       sodipodi:open="true" /><path
       style="display:inline;fill:#0000ff;fill-opacity:1;stroke-width:0.57378;paint-order:stroke fill markers"
       id="output_Trigger4--hidden"
       sodipodi:type="arc"
       sodipodi:cx="100.625"
       sodipodi:cy="325"
       sodipodi:rx="12"
       sodipodi:ry="12"
       sodipodi:start="0"
       sodipodi:end="6.219305"
       sodipodi:arc-type="arc"
       d="m 112.625,325 a 12,12 0 0 1 -11.80837,11.99847 12,12 0 0 1 -12.185509,-11.61525 12,12 0 0 1 11.419179,-12.36945 12,12 0 0 1 12.55022,11.22019"
       sodipodi:open="true" /><path
       style="fill:#0000ff;fill-opacity:1;stroke-width:0.57378;paint-order:stroke fill markers"
       id="output_Trigger3--hidden"
       sodipodi:type="arc"
       sodipodi:cx="73.75"
       sodipodi:cy="325"
       sodipodi:rx="12"
       sodipodi:ry="12"
       sodipodi:start="0"
       sodipodi:end="6.219305"
       sodipodi:arc-type="arc"
       d="M 85.75,325 A 12,12 0 0 1 73.941633,336.99847 12,12 0 0 1 61.756121,325.38322 12,12 0 0 1 73.175297,313.01377 12,12 0 0 1 85.725524,324.23396"
       sodipodi:open="true" /><path
       style="fill:#0000ff;fill-opacity:1;stroke-width:0.57378;paint-order:stroke fill markers"
       id="output_Trigger2--hidden"
       sodipodi:type="arc"
       sodipodi:cx="46.875"
       sodipodi:cy="325"
       sodipodi:rx="12"
       sodipodi:ry="12"
       sodipodi:start="0"
       sodipodi:end="6.219305"
       sodipodi:arc-type="arc"
       d="M 58.875,325 A 12,12 0 0 1 47.066633,336.99847 12,12 0 0 1 34.881121,325.38322 12,12 0 0 1 46.300297,313.01377 12,12 0 0 1 58.850524,324.23396"
       sodipodi:open="true" /><path
       style="fill:#0000ff;fill-opacity:1;stroke-width:0.57378;paint-order:stroke fill markers"
       id="output_Trigger1--hidden"
       sodipodi:type="arc"
       sodipodi:cx="20"
       sodipodi:cy="325"
       sodipodi:rx="12"
       sodipodi:ry="12"
       sodipodi:start="0"
       sodipodi:end="6.219305"
       sodipodi:arc-type="arc"
       d="M 32,325 A 12,12 0 0 1 20.191633,336.99847 12,12 0 0 1 8.0061205,325.38322 12,12 0 0 1 19.425297,313.01377 12,12 0 0 1 31.975524,324.23396"
       sodipodi:open="true" /><path
       style="fill:#ff0000;fill-opacity:1;stroke-width:0.57378;paint-order:stroke fill markers"
       id="param_ModeSelect--hidden"
       sodipodi:type="arc"
       sodipodi:cx="235"
       sodipodi:cy="235"
       sodipodi:rx="12"
       sodipodi:ry="12"
       sodipodi:start="0"
       sodipodi:end="6.219305"
       sodipodi:arc-type="arc"
       d="m 247,235 a 12,12 0 0 1 -11.80837,11.99847 12,12 0 0 1 -12.18551,-11.61525 12,12 0 0 1 11.41918,-12.36945 12,12 0 0 1 12.55022,11.22019"
       sodipodi:open="true" /><path
       style="fill:#00ff00;fill-opacity:1;stroke-width:0.57378;paint-order:stroke fill markers"
       id="input_LengthCV--hidden"
       sodipodi:type="arc"
       sodipodi:cx="120.2"
       sodipodi:cy="279"
       sodipodi:rx="12"
       sodipodi:ry="12"
       sodipodi:start="0"
       sodipodi:end="6.219305"
       sodipodi:arc-type="arc"
       d="m 132.2,279 a 12,12 0 0 1 -11.80837,11.99847 12,12 0 0 1 -12.18551,-11.61525 12,12 0 0 1 11.41917,-12.36945 12,12 0 0 1 12.55023,11.22019"
       sodipodi:open="true" /><path
       style="fill:#ff0000;fill-opacity:1;stroke-width:0.430335;paint-order:stroke fill markers"
       id="param_LengthCVAtten--hidden"
       sodipodi:type="arc"
       sodipodi:cx="147.19998"
       sodipodi:cy="279"
       sodipodi:rx="9"
       sodipodi:ry="9"
       sodipodi:start="0"
       sodipodi:end="6.219305"
       sodipodi:arc-type="arc"
       d="m 156.19998,279 a 9,9 0 0 1 -8.85627,8.99885 9,9 0 0 1 -9.13914,-8.71144 9,9 0 0 1 8.56438,-9.27708 9,9 0 0 1 9.41267,8.41514"
       sodipodi:open="true" /><path
       style="fill:#ff0000;fill-opacity:1;stroke-width:0.57378;paint-order:stroke fill markers"
       id="param_Length--hidden"
       sodipodi:type="arc"
       sodipodi:cx="93.699997"
       sodipodi:cy="235"
       sodipodi:rx="12"
       sodipodi:ry="12"
       sodipodi:start="0"
       sodipodi:end="6.219305"
       sodipodi:arc-type="arc"
       d="M 105.7,235 A 12,12 0 0 1 93.89163,246.99847 12,12 0 0 1 81.706117,235.38322 12,12 0 0 1 93.125294,223.01377 12,12 0 0 1 105.67552,234.23396"
       sodipodi:open="true" /><path
       style="fill:#00ff00;fill-opacity:1;stroke-width:0.57378;paint-order:stroke fill markers"
       id="input_LengthEnable--hidden"
       sodipodi:type="arc"
       sodipodi:cx="86.800003"
       sodipodi:cy="279"
       sodipodi:rx="12"
       sodipodi:ry="12"
       sodipodi:start="0"
       sodipodi:end="6.219305"
       sodipodi:arc-type="arc"
       d="M 98.800003,279 A 12,12 0 0 1 86.991636,290.99847 12,12 0 0 1 74.806124,279.38322 12,12 0 0 1 86.2253,267.01377 12,12 0 0 1 98.775527,278.23396"
       sodipodi:open="true" /><path
       style="fill:#ff0000;fill-opacity:1;stroke-width:0.502057;paint-order:stroke fill markers"
       id="param_LengthButton--hidden"
       sodipodi:type="arc"
       sodipodi:cx="122.2"
       sodipodi:cy="235"
       sodipodi:rx="10.5"
       sodipodi:ry="10.5"
       sodipodi:start="0"
       sodipodi:end="6.219305"
       sodipodi:arc-type="arc"
       d="m 132.7,235 a 10.5,10.5 0 0 1 -10.33232,10.49866 10.5,10.5 0 0 1 -10.66233,-10.16335 10.5,10.5 0 0 1 9.99178,-10.82326 10.5,10.5 0 0 1 10.98145,9.81766"
       sodipodi:open="true" /><path
       style="fill:#00ff00;fill-opacity:1;stroke-width:0.57378;paint-order:stroke fill markers"
       id="input_Randomize--hidden"
       sodipodi:type="arc"
       sodipodi:cx="235"
       sodipodi:cy="279"
       sodipodi:rx="12"
       sodipodi:ry="12"
       sodipodi:start="0"
       sodipodi:end="6.219305"
       sodipodi:arc-type="arc"
       d="m 247,279 a 12,12 0 0 1 -11.80837,11.99847 12,12 0 0 1 -12.18551,-11.61525 12,12 0 0 1 11.41918,-12.36945 12,12 0 0 1 12.55022,11.22019"
       sodipodi:open="true" /><path
       style="fill:#ff0000;fill-opacity:1;stroke-width:0.502057;paint-order:stroke fill markers"
       id="param_RandomButton--hidden"
       sodipodi:type="arc"
       sodipodi:cx="158.3"
       sodipodi:cy="235"
       sodipodi:rx="10.5"
       sodipodi:ry="10.5"
       sodipodi:start="0"
       sodipodi:end="6.219305"
       sodipodi:arc-type="arc"
       d="m 168.8,235 a 10.5,10.5 0 0 1 -10.33232,10.49866 10.5,10.5 0 0 1 -10.66232,-10.16335 10.5,10.5 0 0 1 9.99178,-10.82326 10.5,10.5 0 0 1 10.98145,9.81766"
       sodipodi:open="true" /><path
       style="fill:#ff0000;fill-opacity:1;stroke-width:0.430335;paint-order:stroke fill markers"
       id="param_RandomDensityCVAtten--hidden"
       sodipodi:type="arc"
       sodipodi:cx="204.60001"
       sodipodi:cy="279"
       sodipodi:rx="9"
       sodipodi:ry="9"
       sodipodi:start="0"
       sodipodi:end="6.219305"
       sodipodi:arc-type="arc"
       d="m 213.60001,279 a 9,9 0 0 1 -8.85628,8.99885 9,9 0 0 1 -9.13913,-8.71144 9,9 0 0 1 8.56438,-9.27708 9,9 0 0 1 9.41267,8.41514"
       sodipodi:open="true" /><path
       style="fill:#00ff00;fill-opacity:1;stroke-width:0.57378;paint-order:stroke fill markers"
       id="input_RandomDensity--hidden"
       sodipodi:type="arc"
       sodipodi:cx="177.60001"
       sodipodi:cy="279"
       sodipodi:rx="12"
       sodipodi:ry="12"
       sodipodi:start="0"
       sodipodi:end="6.219305"
       sodipodi:arc-type="arc"
       d="m 189.60001,279 a 12,12 0 0 1 -11.80837,11.99847 12,12 0 0 1 -12.18551,-11.61525 12,12 0 0 1 11.41917,-12.36945 12,12 0 0 1 12.55023,11.22019"
       sodipodi:open="true" /><path
       style="fill:#ff0000;fill-opacity:1;stroke-width:0.57378;paint-order:stroke fill markers"
       id="param_RandomDensity--hidden"
       sodipodi:type="arc"
       sodipodi:cx="195.89999"
       sodipodi:cy="235"
       sodipodi:rx="12"
       sodipodi:ry="12"
       sodipodi:start="0"
       sodipodi:end="6.219305"
       sodipodi:arc-type="arc"
       d="m 207.89999,235 a 12,12 0 0 1 -11.80836,11.99847 12,12 0 0 1 -12.18552,-11.61525 12,12 0 0 1 11.41918,-12.36945 12,12 0 0 1 12.55023,11.22019"
       sodipodi:open="true" /><path
       style="fill:#00ff00;fill-opacity:1;stroke-width:0.57378;paint-order:stroke fill markers"
       id="input_Reset--hidden"
       sodipodi:type="arc"
       sodipodi:cx="53.400002"
       sodipodi:cy="279"
       sodipodi:rx="12"
       sodipodi:ry="12"
       sodipodi:start="0"
       sodipodi:end="6.219305"
       sodipodi:arc-type="arc"
       d="M 65.400002,279 A 12,12 0 0 1 53.591634,290.99847 12,12 0 0 1 41.406122,279.38322 12,12 0 0 1 52.825299,267.01377 12,12 0 0 1 65.375526,278.23396"
       sodipodi:open="true" /><path
       style="fill:#ff0000;fill-opacity:1;stroke-width:0.502057;paint-order:stroke fill markers"
       id="param_ResetButton--hidden"
       sodipodi:type="arc"
       sodipodi:cx="56.099998"
       sodipodi:cy="235"
       sodipodi:rx="10.5"
       sodipodi:ry="10.5"
       sodipodi:start="0"
       sodipodi:end="6.219305"
       sodipodi:arc-type="arc"
       d="m 66.599998,235 a 10.5,10.5 0 0 1 -10.332321,10.49866 10.5,10.5 0 0 1 -10.662323,-10.16335 10.5,10.5 0 0 1 9.991779,-10.82326 10.5,10.5 0 0 1 10.981449,9.81766"
       sodipodi:open="true" /><path
       style="fill:#00ff00;fill-opacity:1;stroke-width:0.57378;paint-order:stroke fill markers"
       id="input_Clock--hidden"
       sodipodi:type="arc"
       sodipodi:cx="20"
       sodipodi:cy="279"
       sodipodi:rx="12"
       sodipodi:ry="12"
       sodipodi:start="0"
       sodipodi:end="6.219305"
       sodipodi:arc-type="arc"
       d="M 32,279 A 12,12 0 0 1 20.191633,290.99847 12,12 0 0 1 8.0061205,279.38322 12,12 0 0 1 19.425297,267.01377 12,12 0 0 1 31.975524,278.23396"
       sodipodi:open="true" /><path
       style="fill:#ff0000;fill-opacity:1;stroke-width:0.502057;paint-order:stroke fill markers"
       id="param_StepButton--hidden"
       sodipodi:type="arc"
       sodipodi:cx="20"
       sodipodi:cy="235"
       sodipodi:rx="10.5"
       sodipodi:ry="10.5"
       sodipodi:start="0"
       sodipodi:end="6.219305"
       sodipodi:arc-type="arc"
       d="M 30.5,235 A 10.5,10.5 0 0 1 20.167679,245.49866 10.5,10.5 0 0 1 9.5053555,235.33531 10.5,10.5 0 0 1 19.497135,224.51205 10.5,10.5 0 0 1 30.478584,234.32971"
       sodipodi:open="true" /></g></svg>
