<?xml version="1.0" encoding="UTF-8" standalone="no"?>
<svg
   viewBox="0 0 1 1"
   version="1.1"
   id="svg1"
   sodipodi:docname="BleedingEye.svg"
   width="1"
   height="1"
   inkscape:version="1.3.2 (091e20e, 2023-11-25, custom)"
   xmlns:inkscape="http://www.inkscape.org/namespaces/inkscape"
   xmlns:sodipodi="http://sodipodi.sourceforge.net/DTD/sodipodi-0.dtd"
   xmlns="http://www.w3.org/2000/svg"
   xmlns:svg="http://www.w3.org/2000/svg">
  <defs
     id="defs1" />
  <sodipodi:namedview
     id="namedview1"
     pagecolor="#ffffff"
     bordercolor="#666666"
     borderopacity="1.0"
     inkscape:showpageshadow="2"
     inkscape:pageopacity="0.0"
     inkscape:pagecheckerboard="0"
     inkscape:deskcolor="#d1d1d1"
     inkscape:zoom="256"
     inkscape:cx="0.51953125"
     inkscape:cy="0.77539062"
     inkscape:window-width="1920"
     inkscape:window-height="1027"
     inkscape:window-x="-8"
     inkscape:window-y="22"
     inkscape:window-maximized="1"
     inkscape:current-layer="svg1" />
  <path
     fill="#000000"
     d="M 0.4783,0.0088 C 0.28671,0.00872 0.10234,0.1039 -5e-5,0.29453 c 0.0456,0.0834 0.0968,0.13767 0.11682,0.21484 v 0.10735 c -0.0102,0.0218 -0.0259,0.037 -0.0259,0.061 0,0.0195 0.025,0.0389 0.0452,0.0389 0.0198,0 0.0464,-0.0208 0.0464,-0.0414 0,-0.0244 -0.0157,-0.0383 -0.0255,-0.0581 v -0.0693 c 0.0344,-0.0691 0.17478,-0.0202 0.22739,0.098 v 0.17314 c -0.0137,0.0225 -0.0293,0.0364 -0.0293,0.062 0,0.0384 0.0253,0.0526 0.0514,0.0526 0.0256,0 0.0464,-0.0122 0.0464,-0.0526 0,-0.02 -0.016,-0.0357 -0.0284,-0.0667 v -0.1679 c 0.0337,-0.0784 0.11799,-0.0433 0.15395,0.0671 v 0.16078 c -0.0116,0.0226 -0.0252,0.0418 -0.0252,0.0694 0,0.0278 0.0216,0.0477 0.0452,0.0477 0.0231,0 0.0477,-0.0209 0.0477,-0.0502 0,-0.031 -0.0152,-0.0503 -0.0275,-0.0743 V 0.68516 H 0.61813 C 0.65113,0.54342 0.73048,0.46725 0.76583,0.57217 V 0.7006 c -0.01,0.0192 -0.0205,0.0373 -0.0205,0.0636 0,0.03 0.0205,0.0514 0.0401,0.0514 0.0201,0 0.0389,-0.0205 0.0389,-0.0489 0,-0.0233 -0.009,-0.0409 -0.0183,-0.0592 V 0.5573 C 0.84893,0.40726 0.94878,0.3697 1.00005,0.2944 0.86882,0.10408 0.66999,0.00874 0.4784,0.00866 Z m 9.4e-4,0.0473 C 0.65485,0.0551 0.83604,0.1373 0.94356,0.30511 0.62171,0.53801 0.34149,0.53843 0.05635,0.29451 0.14405,0.13736 0.30904,0.05737 0.47924,0.05611 Z m 0.0101,0.0344 c -0.0966,0 -0.1749,0.0784 -0.1749,0.17496 0,0.0966 0.0783,0.17489 0.17489,0.17489 0.0966,0 0.17496,-0.0783 0.17496,-0.17489 0,-0.0966 -0.0784,-0.17496 -0.17496,-0.17496 z m -0.001,0.10541 c 0.0347,0 0.0627,0.0281 0.0627,0.0627 0,0.0346 -0.028,0.0628 -0.0627,0.0628 -0.0346,0 -0.0628,-0.0281 -0.0628,-0.0628 0,-0.0346 0.0281,-0.0627 0.0628,-0.0627 z"
     id="emblem-image"
     style="stroke-width:0.00214838" />
</svg>
