<?xml version="1.0" encoding="UTF-8" standalone="no"?>
<!-- Generator: Adobe Illustrator 27.5.0, SVG Export Plug-In . SVG Version: 6.00 Build 0)  -->

<svg
   width="100"
   height="100"
   viewBox="0 0 100 100"
   version="1.1"
   id="svg15246"
   inkscape:version="1.4.2 (ebf0e94, 2025-05-08)"
   sodipodi:docname="ConductorGridPad.svg"
   xml:space="preserve"
   xmlns:inkscape="http://www.inkscape.org/namespaces/inkscape"
   xmlns:sodipodi="http://sodipodi.sourceforge.net/DTD/sodipodi-0.dtd"
   xmlns:xlink="http://www.w3.org/1999/xlink"
   xmlns="http://www.w3.org/2000/svg"
   xmlns:svg="http://www.w3.org/2000/svg"><defs
   id="defs18"><linearGradient
     id="linearGradient6"
     inkscape:collect="always"><stop
       style="stop-color:#dbdbdb;stop-opacity:1;"
       offset="0"
       id="stop5" /><stop
       style="stop-color:#bfbfbf;stop-opacity:1;"
       offset="1"
       id="stop6" /></linearGradient><linearGradient
     id="linearGradient3"
     inkscape:collect="always"><stop
       style="stop-color:#cfcfcf;stop-opacity:1;"
       offset="0"
       id="stop3" /><stop
       style="stop-color:#a6a6a6;stop-opacity:1;"
       offset="1"
       id="stop4" /></linearGradient><linearGradient
     inkscape:collect="always"
     xlink:href="#linearGradient3"
     id="linearGradient4"
     x1="10.5"
     y1="0.64999962"
     x2="10.5"
     y2="20.35"
     gradientUnits="userSpaceOnUse"
     gradientTransform="scale(4.7619047)" /><linearGradient
     inkscape:collect="always"
     xlink:href="#linearGradient6"
     id="linearGradient5"
     gradientUnits="userSpaceOnUse"
     x1="10.5"
     y1="0.64999962"
     x2="10.5"
     y2="20.35"
     gradientTransform="matrix(3.6258158,0,0,3.6258158,11.928938,11.928936)" /></defs>
<sodipodi:namedview
   bordercolor="#666666"
   borderopacity="1.0"
   fit-margin-bottom="0"
   fit-margin-left="0"
   fit-margin-right="0"
   fit-margin-top="0"
   id="base"
   inkscape:current-layer="svg15246"
   inkscape:cx="25.341346"
   inkscape:cy="50.682692"
   inkscape:document-rotation="0"
   inkscape:document-units="px"
   inkscape:pageopacity="0.0"
   inkscape:pageshadow="2"
   inkscape:window-height="1027"
   inkscape:window-maximized="1"
   inkscape:window-width="1920"
   inkscape:window-x="-8"
   inkscape:window-y="22"
   inkscape:zoom="4.952381"
   pagecolor="#ffffff"
   showgrid="false"
   units="mm"
   inkscape:showpageshadow="2"
   inkscape:pagecheckerboard="0"
   inkscape:deskcolor="#d1d1d1"
   showguides="false">
	</sodipodi:namedview>

<path
   id="light-button-outline"
   style="fill:#878787;stroke-width:97.5237"
   d="M 4.7619047,0 H 95.238095 C 97.87619,0 100,2.1238095 100,4.7619047 V 95.238095 C 100,97.87619 97.87619,100 95.238095,100 H 4.7619047 C 2.1238095,100 0,97.87619 0,95.238095 V 4.7619047 C 0,2.1238095 2.1238095,0 4.7619047,0 Z" /><path
   id="light-button-outer"
   style="fill:url(#linearGradient4);stroke-width:91.4867"
   d="M 7.5623565,3.0952363 H 92.437641 c 2.474784,0 4.46712,1.9923356 4.46712,4.4671202 V 92.437641 c 0,2.474784 -1.992336,4.46712 -4.46712,4.46712 H 7.5623565 c -2.4747846,0 -4.4671202,-1.992336 -4.4671202,-4.46712 V 7.5623565 c 0,-2.4747846 1.9923356,-4.4671202 4.4671202,-4.4671202 z" /><path
   id="light-button-inner"
   style="display:inline;opacity:0.65;fill:url(#linearGradient5);stroke:#b8b8b8;stroke-width:1.81429"
   d="m 17.687075,14.285715 h 64.625853 c 1.884354,0 3.401361,1.517007 3.401361,3.40136 v 64.625853 c 0,1.884354 -1.517007,3.401361 -3.401361,3.401361 H 17.687075 c -1.884353,0 -3.40136,-1.517007 -3.40136,-3.401361 V 17.687075 c 0,-1.884353 1.517007,-3.40136 3.40136,-3.40136 z" /></svg>
