<?xml version="1.0" encoding="UTF-8" standalone="no"?>
<!-- Generator: Adobe Illustrator 27.5.0, SVG Export Plug-In . SVG Version: 6.00 Build 0)  -->

<svg
   width="45"
   height="45"
   viewBox="0 0 45 45"
   version="1.1"
   id="svg15246"
   inkscape:version="1.4.2 (ebf0e94, 2025-05-08)"
   sodipodi:docname="ConductorGridPadSmaller.svg"
   xml:space="preserve"
   xmlns:inkscape="http://www.inkscape.org/namespaces/inkscape"
   xmlns:sodipodi="http://sodipodi.sourceforge.net/DTD/sodipodi-0.dtd"
   xmlns:xlink="http://www.w3.org/1999/xlink"
   xmlns="http://www.w3.org/2000/svg"
   xmlns:svg="http://www.w3.org/2000/svg"><defs
   id="defs18"><linearGradient
     id="linearGradient6"
     inkscape:collect="always"><stop
       style="stop-color:#dbdbdb;stop-opacity:1;"
       offset="0"
       id="stop5" /><stop
       style="stop-color:#bfbfbf;stop-opacity:1;"
       offset="1"
       id="stop6" /></linearGradient><linearGradient
     id="linearGradient3"
     inkscape:collect="always"><stop
       style="stop-color:#cfcfcf;stop-opacity:1;"
       offset="0"
       id="stop3" /><stop
       style="stop-color:#a6a6a6;stop-opacity:1;"
       offset="1"
       id="stop4" /></linearGradient><linearGradient
     inkscape:collect="always"
     xlink:href="#linearGradient3"
     id="linearGradient4"
     x1="10.5"
     y1="0.64999962"
     x2="10.5"
     y2="20.35"
     gradientUnits="userSpaceOnUse"
     gradientTransform="scale(2.1428571)" /><linearGradient
     inkscape:collect="always"
     xlink:href="#linearGradient6"
     id="linearGradient5"
     gradientUnits="userSpaceOnUse"
     x1="10.5"
     y1="0.64999962"
     x2="10.5"
     y2="20.35"
     gradientTransform="matrix(1.6316171,0,0,1.6316171,5.3680221,5.3680212)" /></defs>
<sodipodi:namedview
   bordercolor="#666666"
   borderopacity="1.0"
   fit-margin-bottom="0"
   fit-margin-left="0"
   fit-margin-right="0"
   fit-margin-top="0"
   id="base"
   inkscape:current-layer="svg15246"
   inkscape:cx="22.536058"
   inkscape:cy="50"
   inkscape:document-rotation="0"
   inkscape:document-units="px"
   inkscape:pageopacity="0.0"
   inkscape:pageshadow="2"
   inkscape:window-height="1027"
   inkscape:window-maximized="1"
   inkscape:window-width="1920"
   inkscape:window-x="-8"
   inkscape:window-y="22"
   inkscape:zoom="8.32"
   pagecolor="#ffffff"
   showgrid="false"
   units="mm"
   inkscape:showpageshadow="2"
   inkscape:pagecheckerboard="0"
   inkscape:deskcolor="#d1d1d1"
   showguides="false">
	</sodipodi:namedview>

<path
   id="light-button-outline"
   style="fill:#878787;stroke-width:43.8857"
   d="M 2.1428571,0 H 42.857143 C 44.044286,0 45,0.95571426 45,2.1428571 V 42.857143 C 45,44.044286 44.044286,45 42.857143,45 H 2.1428571 C 0.95571426,45 0,44.044286 0,42.857143 V 2.1428571 C 0,0.95571426 0.95571426,0 2.1428571,0 Z" /><path
   id="light-button-outer"
   style="fill:url(#linearGradient4);stroke-width:41.169"
   d="M 3.4030604,1.3928564 H 41.596939 c 1.113653,0 2.010204,0.896551 2.010204,2.010204 V 41.596939 c 0,1.113653 -0.896551,2.010204 -2.010204,2.010204 H 3.4030604 c -1.113653,0 -2.010204,-0.896551 -2.010204,-2.010204 V 3.4030604 c 0,-1.113653 0.896551,-2.010204 2.010204,-2.010204 z" /><path
   id="light-button-inner"
   style="display:inline;opacity:0.65;fill:url(#linearGradient5);stroke:#b8b8b8;stroke-width:0.816429"
   d="M 7.9591838,6.4285717 H 37.040816 c 0.847959,0 1.530612,0.682653 1.530612,1.5306121 V 37.040816 c 0,0.847959 -0.682653,1.530612 -1.530612,1.530612 H 7.9591838 c -0.8479591,0 -1.5306121,-0.682653 -1.5306121,-1.530612 V 7.9591838 c 0,-0.8479591 0.682653,-1.5306121 1.5306121,-1.5306121 z" /></svg>
