<?xml version="1.0" encoding="UTF-8" standalone="no"?>
<!-- Generator: Adobe Illustrator 27.5.0, SVG Export Plug-In . SVG Version: 6.00 Build 0)  -->

<svg
   width="8mm"
   height="8mm"
   viewBox="0 0 8 8"
   version="1.1"
   id="svg15246"
   inkscape:version="1.3.2 (091e20e, 2023-11-25, custom)"
   sodipodi:docname="KnobMetalSmall.svg"
   xml:space="preserve"
   xmlns:inkscape="http://www.inkscape.org/namespaces/inkscape"
   xmlns:sodipodi="http://sodipodi.sourceforge.net/DTD/sodipodi-0.dtd"
   xmlns:xlink="http://www.w3.org/1999/xlink"
   xmlns="http://www.w3.org/2000/svg"
   xmlns:svg="http://www.w3.org/2000/svg"><defs
   id="defs18"><linearGradient
     id="linearGradient15"
     inkscape:collect="always"><stop
       style="stop-color:#b5b5b5;stop-opacity:1;"
       offset="0"
       id="stop15" /><stop
       style="stop-color:#c3c3c3;stop-opacity:1;"
       offset="1"
       id="stop16" /></linearGradient><linearGradient
     id="linearGradient4"
     inkscape:collect="always"><stop
       style="stop-color:#6b6b6b;stop-opacity:1;"
       offset="0"
       id="stop3" /><stop
       style="stop-color:#9a9a9a;stop-opacity:1;"
       offset="1"
       id="stop4" /></linearGradient><linearGradient
     id="linearGradient1"
     inkscape:collect="always"><stop
       style="stop-color:#ababab;stop-opacity:1;"
       offset="0"
       id="stop1" /><stop
       style="stop-color:#c7c7c7;stop-opacity:1;"
       offset="1"
       id="stop2" /></linearGradient><linearGradient
     inkscape:collect="always"
     xlink:href="#linearGradient1"
     id="linearGradient2"
     x1="4.0000005"
     y1="8"
     x2="4.0000005"
     y2="0.0087767653"
     gradientUnits="userSpaceOnUse" /><linearGradient
     inkscape:collect="always"
     xlink:href="#linearGradient4"
     id="linearGradient3"
     gradientUnits="userSpaceOnUse"
     x1="4.0000005"
     y1="8"
     x2="4.0000005"
     y2="0.0087767653"
     gradientTransform="matrix(0.90645567,0,0,0.90645567,0.37417733,0.37417733)" /><linearGradient
     inkscape:collect="always"
     xlink:href="#linearGradient15"
     id="linearGradient16"
     x1="4"
     y1="3.9480793"
     x2="4"
     y2="0"
     gradientUnits="userSpaceOnUse" /></defs>
<sodipodi:namedview
   bordercolor="#666666"
   borderopacity="1.0"
   fit-margin-bottom="0"
   fit-margin-left="0"
   fit-margin-right="0"
   fit-margin-top="0"
   id="base"
   inkscape:current-layer="layer6"
   inkscape:cx="1.8591851"
   inkscape:cy="16.879443"
   inkscape:document-rotation="0"
   inkscape:document-units="mm"
   inkscape:pageopacity="0.0"
   inkscape:pageshadow="2"
   inkscape:window-height="1027"
   inkscape:window-maximized="1"
   inkscape:window-width="1920"
   inkscape:window-x="-8"
   inkscape:window-y="22"
   inkscape:zoom="10.219531"
   pagecolor="#ffffff"
   showgrid="false"
   units="mm"
   inkscape:showpageshadow="2"
   inkscape:pagecheckerboard="0"
   inkscape:deskcolor="#d1d1d1"
   showguides="true">
	</sodipodi:namedview>

<g
   inkscape:groupmode="layer"
   id="layer6"
   inkscape:label="Body"
   style="display:none"><path
     id="knob-metal-outer"
     style="fill:url(#linearGradient2);stroke-width:0.244454;paint-order:stroke fill markers"
     d="M 8,4 A 4,4 0 0 1 4.0638776,7.9994899 4,4 0 0 1 0.00204017,4.1277389 4,4 0 0 1 3.8084324,0.0045899 4,4 0 0 1 7.9918414,3.7446525" /><path
     id="path13"
     style="display:inline;fill:#ffffff;stroke-width:0.244454;paint-order:stroke fill markers"
     d="m 2,0.53589839 a 4,4 0 0 1 4.0000002,8e-8 L 4,4 Z" /><path
     id="knob-metal-mid"
     style="display:inline;fill:url(#linearGradient3);stroke-width:0.221587;paint-order:stroke fill markers"
     d="M 7.6258228,4 A 3.6258228,3.6258228 0 0 1 4.0579022,7.6253604 3.6258228,3.6258228 0 0 1 0.37602654,4.1157896 3.6258228,3.6258228 0 0 1 3.8263524,0.37833776 3.6258228,3.6258228 0 0 1 7.6184274,3.7685388" /><path
     id="shadow2"
     style="display:inline;opacity:0.25;stroke-width:0.221587;paint-order:stroke fill markers"
     d="m 7.1400546,2.1870885 a 3.6258228,3.6258228 0 0 1 0,3.6258229 L 4,4 Z" /><path
     id="shadow1"
     style="display:inline;opacity:0.25;stroke-width:0.221587;paint-order:stroke fill markers"
     d="m 0.85994532,5.8129113 a 3.6258228,3.6258228 0 0 1 -1e-8,-3.6258226 L 4,4 Z" /><path
     id="hilite2"
     style="display:inline;opacity:0.1;fill:#fcfcfc;stroke-width:0.221587;paint-order:stroke fill markers"
     d="m 2.1870886,0.85994537 a 3.6258228,3.6258228 0 0 1 3.6258229,7e-8 L 4,4 Z" /><path
     id="hilite1"
     style="display:inline;opacity:0.1;fill:#fcfcfc;stroke-width:0.221587;paint-order:stroke fill markers"
     d="m 5.8129112,7.1400547 a 3.6258228,3.6258228 0 0 1 -3.6258226,-1e-7 L 4,4 Z" /></g><g
   inkscape:groupmode="layer"
   id="layer5"
   inkscape:label="Pointer"
   style="display:inline"><path
     id="knob-metal-pointer"
     style="display:inline;opacity:1;fill:url(#linearGradient16);fill-opacity:1;stroke-width:1.31417;paint-order:stroke fill markers"
     d="m 3.6922668,0 v 0.1860352 1.0376627 2.5383464 c 0,0.1030633 0.082972,0.1860351 0.1860352,0.1860351 h 0.243396 c 0.1030633,0 0.1860351,-0.082972 0.1860351,-0.1860351 V 1.2236979 0.1860352 0 H 4.121698 3.878302 Z" /></g></svg>
