<?xml version="1.0" encoding="UTF-8" standalone="no"?>
<!-- Generator: Adobe Illustrator 25.2.3, SVG Export Plug-In . SVG Version: 6.00 Build 0)  -->

<svg
   version="1.0"
   id="svg18800"
   x="0px"
   y="0px"
   width="15"
   height="15"
   viewBox="0 0 15 15"
   enable-background="new 0 0 15 14.9989"
   xml:space="preserve"
   sodipodi:docname="Screw.svg"
   inkscape:version="1.4.2 (ebf0e94, 2025-05-08)"
   xmlns:inkscape="http://www.inkscape.org/namespaces/inkscape"
   xmlns:sodipodi="http://sodipodi.sourceforge.net/DTD/sodipodi-0.dtd"
   xmlns:xlink="http://www.w3.org/1999/xlink"
   xmlns="http://www.w3.org/2000/svg"
   xmlns:svg="http://www.w3.org/2000/svg"><defs
   id="defs6"><linearGradient
     id="linearGradient21"
     inkscape:collect="always"><stop
       style="stop-color:#666666;stop-opacity:1;"
       offset="0"
       id="stop21" /><stop
       style="stop-color:#858585;stop-opacity:1;"
       offset="1"
       id="stop22" /></linearGradient><linearGradient
     id="linearGradient20"
     inkscape:collect="always"><stop
       style="stop-color:#5c5c5c;stop-opacity:1;"
       offset="0"
       id="stop19" /><stop
       style="stop-color:#8f8f8f;stop-opacity:1;"
       offset="1"
       id="stop20" /></linearGradient><linearGradient
     id="linearGradient17"
     inkscape:collect="always"><stop
       style="stop-color:#525252;stop-opacity:1;"
       offset="0"
       id="stop17" /><stop
       style="stop-color:#6b6b6b;stop-opacity:1;"
       offset="1"
       id="stop18" /></linearGradient><linearGradient
     id="SVGID_1_"
     gradientUnits="userSpaceOnUse"
     x1="219.99944"
     y1="6477.3999"
     x2="232.99944"
     y2="6477.3999"
     gradientTransform="matrix(0,1,1,0,-6469.8999,-219)">
	<stop
   offset="0"
   style="stop-color:#6c6c6c;stop-opacity:1;"
   id="stop11" />
	<stop
   offset="1"
   style="stop-color:#c7c7c7;stop-opacity:1;"
   id="stop12" />
</linearGradient><linearGradient
     inkscape:collect="always"
     xlink:href="#linearGradient17"
     id="linearGradient18"
     x1="7.5"
     y1="14.000237"
     x2="7.5"
     y2="0.99866295"
     gradientUnits="userSpaceOnUse"
     gradientTransform="matrix(0.99987888,0,0,0.99987888,9.082533e-4,0.00145796)" /><linearGradient
     inkscape:collect="always"
     xlink:href="#linearGradient20"
     id="linearGradient19"
     gradientUnits="userSpaceOnUse"
     x1="7.5"
     y1="14.000237"
     x2="7.5"
     y2="0.99866295"
     gradientTransform="matrix(0.87198722,0,0,0.87198722,0.96009344,0.96057303)" /><linearGradient
     inkscape:collect="always"
     xlink:href="#linearGradient21"
     id="linearGradient22"
     x1="7.5"
     y1="12.790789"
     x2="7.5"
     y2="2.2081118"
     gradientUnits="userSpaceOnUse"
     gradientTransform="matrix(0.98317588,0,0,0.98317588,0.12618025,0.12672069)" /></defs>
<sodipodi:namedview
   bordercolor="#666666"
   borderopacity="1.0"
   fit-margin-bottom="0"
   fit-margin-left="0"
   fit-margin-right="0"
   fit-margin-top="0"
   id="base"
   inkscape:current-layer="svg18800"
   inkscape:cx="0.46875"
   inkscape:cy="11.75"
   inkscape:document-units="px"
   inkscape:pageopacity="0.0"
   inkscape:pageshadow="2"
   inkscape:window-height="1027"
   inkscape:window-maximized="1"
   inkscape:window-width="1920"
   inkscape:window-x="-8"
   inkscape:window-y="22"
   inkscape:zoom="16"
   pagecolor="#ffffff"
   showgrid="false"
   units="px"
   inkscape:showpageshadow="2"
   inkscape:pagecheckerboard="0"
   inkscape:deskcolor="#d1d1d1">
	</sodipodi:namedview>







<path
   id="screw-outer"
   style="fill:url(#linearGradient18);stroke-width:0.633654;stroke-linejoin:bevel"
   d="M 14,7.5 A 6.5,6.5 0 0 1 7.5,14 6.5,6.5 0 0 1 1,7.5 6.5,6.5 0 0 1 7.5,1 6.5,6.5 0 0 1 14,7.5 Z" /><path
   id="screw-mid"
   style="fill:url(#linearGradient19);stroke-width:0.552606;stroke-linejoin:bevel"
   d="M 13.168605,7.5 A 5.6686049,5.6686049 0 0 1 7.5,13.168605 5.6686049,5.6686049 0 0 1 1.8313951,7.5 5.6686049,5.6686049 0 0 1 7.5,1.8313951 5.6686049,5.6686049 0 0 1 13.168605,7.5 Z" /><path
   id="screw-inner"
   style="fill:url(#linearGradient22);stroke-width:0.507151;stroke-linejoin:bevel"
   d="M 12.702316,7.5 A 5.2023158,5.2023158 0 0 1 7.5,12.702316 5.2023158,5.2023158 0 0 1 2.2976842,7.5 5.2023158,5.2023158 0 0 1 7.5,2.2976842 5.2023158,5.2023158 0 0 1 12.702316,7.5 Z" /><path
   id="screw-socket"
   style="fill:#525252;stroke:#000000;stroke-width:0.9023;paint-order:stroke fill markers"
   transform="matrix(0.70685904,-0.19380394,0.19380394,0.70685904,7.5000002,7.5000002)"
   d="M 5.0157833,-9.3243412e-8 2.5078917,4.3437957 -2.5078916,4.3437958 -5.0157833,9.3243413e-8 -2.5078917,-4.3437957 l 5.0157833,-10e-8 z" /></svg>
