<?xml version="1.0" encoding="UTF-8" standalone="no"?>
<!-- Generator: Adobe Illustrator 27.5.0, SVG Export Plug-In . SVG Version: 6.00 Build 0)  -->

<svg
   width="18"
   height="18"
   viewBox="0 0 18 18"
   version="1.1"
   id="svg15246"
   inkscape:version="1.4.2 (ebf0e94, 2025-05-08)"
   sodipodi:docname="Trimmer_BG.svg"
   xml:space="preserve"
   xmlns:inkscape="http://www.inkscape.org/namespaces/inkscape"
   xmlns:sodipodi="http://sodipodi.sourceforge.net/DTD/sodipodi-0.dtd"
   xmlns:xlink="http://www.w3.org/1999/xlink"
   xmlns="http://www.w3.org/2000/svg"
   xmlns:svg="http://www.w3.org/2000/svg"><defs
   id="defs18"><linearGradient
     id="linearGradient10"
     inkscape:collect="always"><stop
       style="stop-color:#424242;stop-opacity:1;"
       offset="0"
       id="stop10" /><stop
       style="stop-color:#1b1b1b;stop-opacity:1;"
       offset="1"
       id="stop11" /></linearGradient><linearGradient
     id="linearGradient9"
     inkscape:collect="always"><stop
       style="stop-color:#9d9d9d;stop-opacity:1;"
       offset="0"
       id="stop8" /><stop
       style="stop-color:#101010;stop-opacity:1;"
       offset="1"
       id="stop9" /></linearGradient><linearGradient
     inkscape:collect="always"
     xlink:href="#linearGradient9"
     id="linearGradient8"
     gradientUnits="userSpaceOnUse"
     gradientTransform="matrix(1.1785713,0,0,1.1785713,-0.42857113,-0.42857115)"
     x1="8"
     y1="1"
     x2="8"
     y2="15" /><linearGradient
     inkscape:collect="always"
     xlink:href="#linearGradient10"
     id="linearGradient11"
     x1="9"
     y1="1.75"
     x2="9"
     y2="16.25"
     gradientUnits="userSpaceOnUse"
     gradientTransform="matrix(0.96551724,0,0,0.96551724,0.31034483,0.31034483)" /></defs>
<sodipodi:namedview
   bordercolor="#666666"
   borderopacity="1.0"
   fit-margin-bottom="0"
   fit-margin-left="0"
   fit-margin-right="0"
   fit-margin-top="0"
   id="base"
   inkscape:current-layer="svg15246"
   inkscape:cx="4.140625"
   inkscape:cy="9.34375"
   inkscape:document-rotation="0"
   inkscape:document-units="px"
   inkscape:pageopacity="0.0"
   inkscape:pageshadow="2"
   inkscape:window-height="1027"
   inkscape:window-maximized="1"
   inkscape:window-width="1920"
   inkscape:window-x="-8"
   inkscape:window-y="22"
   inkscape:zoom="32"
   pagecolor="#ffffff"
   showgrid="false"
   units="mm"
   inkscape:showpageshadow="2"
   inkscape:pagecheckerboard="0"
   inkscape:deskcolor="#d1d1d1"
   showguides="true">
	</sodipodi:namedview>

<path
   id="trimmer-knob-outline"
   style="display:inline;stroke-width:1.098"
   d="M 18,9 A 9,9 0 0 1 9,18 9,9 0 0 1 0,9 9,9 0 0 1 9,0 9,9 0 0 1 18,9 Z" /><path
   id="trimmer-knob-outer"
   style="display:inline;fill:url(#linearGradient8);stroke-width:1.00592"
   d="M 17.25,9 A 8.25,8.25 0 0 1 9,17.25 8.25,8.25 0 0 1 0.75,9 8.25,8.25 0 0 1 9,0.75 8.25,8.25 0 0 1 17.25,9 Z" /><path
   id="trimmer-knob-inner"
   style="display:inline;opacity:1;fill:url(#linearGradient11);stroke-width:0.365217"
   d="M 16,9 A 7,7 0 0 1 9,16 7,7 0 0 1 2,9 7,7 0 0 1 9,2 7,7 0 0 1 16,9 Z" /></svg>
