<?xml version="1.0" encoding="UTF-8" standalone="no"?>
<!-- Created with Inkscape (http://www.inkscape.org/) -->

<svg
   width="255"
   height="379.99997"
   viewBox="0 0 255 379.99997"
   version="1.1"
   id="svg8"
   inkscape:version="1.4.2 (ebf0e94, 2025-05-08)"
   sodipodi:docname="Automata.svg"
   xml:space="preserve"
   xmlns:inkscape="http://www.inkscape.org/namespaces/inkscape"
   xmlns:sodipodi="http://sodipodi.sourceforge.net/DTD/sodipodi-0.dtd"
   xmlns="http://www.w3.org/2000/svg"
   xmlns:svg="http://www.w3.org/2000/svg"
   xmlns:rdf="http://www.w3.org/1999/02/22-rdf-syntax-ns#"
   xmlns:cc="http://creativecommons.org/ns#"
   xmlns:dc="http://purl.org/dc/elements/1.1/"><defs
     id="defs2"><rect
       x="90"
       y="400"
       width="49.999996"
       height="50"
       id="rect1" /><linearGradient
       id="uuid-f0636bc7-c65b-4b70-b857-f875576c11d6"
       x1="37.5"
       y1="0"
       x2="37.5"
       y2="380"
       gradientUnits="userSpaceOnUse"><stop
         offset="0"
         stop-color="#ebebeb"
         id="stop2" /><stop
         offset="1"
         stop-color="#e1e1e1"
         id="stop4" /></linearGradient><rect
       x="90"
       y="400"
       width="49.999996"
       height="50"
       id="rect1-3" /><rect
       x="90"
       y="400"
       width="49.999996"
       height="50"
       id="rect1-3-6" /><rect
       x="90"
       y="400"
       width="64.788734"
       height="55.488926"
       id="rect1-3-6-5" /><rect
       x="90"
       y="400"
       width="64.788734"
       height="55.488926"
       id="rect5" /><rect
       x="90"
       y="400"
       width="64.788734"
       height="55.488926"
       id="rect6" /><rect
       x="90"
       y="400"
       width="64.788734"
       height="55.488926"
       id="rect6-0" /></defs><sodipodi:namedview
     id="base"
     pagecolor="#ffffff"
     bordercolor="#666666"
     borderopacity="1.0"
     inkscape:pageopacity="0.0"
     inkscape:pageshadow="2"
     inkscape:zoom="3.0963836"
     inkscape:cx="100.27827"
     inkscape:cy="217.02737"
     inkscape:document-units="px"
     inkscape:current-layer="layer2"
     showgrid="true"
     units="mm"
     inkscape:snap-bbox="true"
     inkscape:snap-page="true"
     inkscape:bbox-nodes="false"
     inkscape:snap-bbox-edge-midpoints="false"
     inkscape:window-width="1920"
     inkscape:window-height="1027"
     inkscape:window-x="-8"
     inkscape:window-y="22"
     inkscape:window-maximized="1"
     inkscape:snap-bbox-midpoints="true"
     inkscape:snap-nodes="false"
     inkscape:showpageshadow="2"
     inkscape:pagecheckerboard="0"
     inkscape:deskcolor="#d1d1d1"
     showguides="true"><inkscape:grid
       id="grid1"
       units="px"
       originx="2.7755576e-17"
       originy="0"
       spacingx="1"
       spacingy="1"
       empcolor="#3f3fff"
       empopacity="0.25098039"
       color="#3f3fff"
       opacity="0.1254902"
       empspacing="5"
       dotted="false"
       gridanglex="30"
       gridanglez="30"
       visible="true" /></sodipodi:namedview><metadata
     id="metadata5"><rdf:RDF><cc:Work
         rdf:about=""><dc:format>image/svg+xml</dc:format><dc:type
           rdf:resource="http://purl.org/dc/dcmitype/StillImage" /></cc:Work></rdf:RDF></metadata><g
     inkscape:label="Layer 1"
     inkscape:groupmode="layer"
     id="layer1"
     transform="translate(0,-168.49998)"
     style="display:inline"><path
       id="bg--background-fill"
       style="display:inline;opacity:1;vector-effect:none;fill:#1f1f1f;fill-rule:evenodd;stroke-width:3.22989"
       d="M 0,168.49998 H 255 V 548.49995 H 0 Z" /><path
       id="footer--hidden"
       style="display:inline;fill:#707070;stroke-width:3.11924;paint-order:stroke fill markers"
       d="m 0,513.49994 h 255 v 35 H 0 Z" /><path
       id="header--hidden"
       style="display:inline;fill:#707070;stroke-width:3.11924;paint-order:stroke fill markers"
       d="m 0,168.49998 h 255 v 35 H 0 Z" /><path
       id="outputBlock--output-fill"
       style="display:inline;fill:#bf9b30;stroke-width:0"
       d="M 10.421052,467.49997 H 244.57895 c 2.44926,0 4.42105,1.97179 4.42105,4.42105 v 33.1579 c 0,2.44926 -1.97179,4.42105 -4.42105,4.42105 H 10.421052 C 7.9717894,509.49997 6,507.52818 6,505.07892 v -33.1579 c 0,-2.44926 1.9717894,-4.42105 4.421052,-4.42105 z" /><path
       style="font-weight:500;font-size:10px;line-height:1.25;font-family:Sono;-inkscape-font-specification:'Sono Medium';letter-spacing:0px;word-spacing:0px;fill:#1f1f1f"
       d="m 230.945,471.71497 q 0,0.415 -0.64,0.415 h -2.455 v 1.85 h 2.01 q 0.325,0 0.46,0.105 0.135,0.105 0.135,0.305 0,0.195 -0.135,0.305 -0.135,0.105 -0.46,0.105 h -2.01 v 1.88 h 2.455 q 0.64,0 0.64,0.41 0,0.41 -0.64,0.41 h -2.9 q -0.665,0 -0.665,-0.67 v -4.855 q 0,-0.665 0.665,-0.665 h 2.9 q 0.64,0 0.64,0.405 z m 3.705,5.89 q -0.495,0 -0.975,-0.17 -0.48,-0.175 -0.875,-0.55 -0.39,-0.375 -0.625,-0.98 -0.235,-0.61 -0.235,-1.48 0,-0.87 0.235,-1.475 0.235,-0.61 0.625,-0.98 0.395,-0.375 0.875,-0.545 0.48,-0.175 0.975,-0.175 0.485,0 0.965,0.175 0.48,0.17 0.87,0.545 0.395,0.37 0.63,0.98 0.235,0.605 0.235,1.475 0,0.87 -0.235,1.48 -0.235,0.605 -0.63,0.98 -0.39,0.375 -0.87,0.55 -0.48,0.17 -0.965,0.17 z m 0,-0.825 q 0.425,0 0.78,-0.255 0.355,-0.26 0.57,-0.78 0.215,-0.525 0.215,-1.32 0,-0.79 -0.215,-1.31 -0.215,-0.525 -0.57,-0.78 -0.355,-0.26 -0.78,-0.26 -0.43,0 -0.79,0.26 -0.36,0.255 -0.575,0.78 -0.215,0.52 -0.215,1.31 0,0.795 0.215,1.32 0.215,0.52 0.575,0.78 0.36,0.255 0.79,0.255 z m 6.435,0.82 q -0.51,0 -1.01,-0.17 -0.5,-0.17 -0.91,-0.545 -0.41,-0.375 -0.655,-0.98 -0.245,-0.61 -0.245,-1.48 0,-0.87 0.245,-1.475 0.245,-0.61 0.655,-0.985 0.41,-0.375 0.91,-0.545 0.5,-0.17 1.01,-0.17 0.48,0 0.875,0.145 0.4,0.14 0.69,0.375 0.295,0.235 0.45,0.515 0.16,0.28 0.16,0.555 0,0.22 -0.14,0.35 -0.14,0.125 -0.33,0.125 -0.235,0 -0.335,-0.105 -0.095,-0.105 -0.16,-0.26 -0.055,-0.185 -0.195,-0.385 -0.14,-0.205 -0.385,-0.345 -0.245,-0.145 -0.625,-0.145 -0.425,0 -0.815,0.25 -0.385,0.245 -0.63,0.765 -0.245,0.515 -0.245,1.335 0,0.82 0.245,1.34 0.245,0.52 0.63,0.765 0.39,0.245 0.815,0.245 0.38,0 0.625,-0.14 0.245,-0.145 0.385,-0.345 0.14,-0.205 0.195,-0.39 0.065,-0.16 0.16,-0.265 0.1,-0.105 0.335,-0.105 0.19,0 0.33,0.135 0.14,0.13 0.14,0.345 0,0.275 -0.16,0.555 -0.16,0.28 -0.455,0.515 -0.29,0.235 -0.69,0.38 -0.395,0.14 -0.87,0.14 z"
       id="textEOCOut--text-output"
       aria-label="EOC" /><path
       style="font-weight:500;font-size:10px;line-height:1.25;font-family:Sono;-inkscape-font-specification:'Sono Medium';letter-spacing:0px;word-spacing:0px;fill:#1f1f1f"
       d="m 208.13251,477.60497 q -0.69,0 -1.215,-0.215 -0.525,-0.215 -0.825,-0.62 -0.3,-0.41 -0.3,-0.99 0,-0.62 0.33,-1.01 0.33,-0.395 0.815,-0.58 -0.385,-0.195 -0.635,-0.53 -0.245,-0.34 -0.245,-0.805 0,-0.515 0.28,-0.875 0.28,-0.36 0.75,-0.545 0.475,-0.185 1.045,-0.185 0.565,0 1.035,0.185 0.47,0.185 0.75,0.545 0.28,0.36 0.28,0.875 0,0.465 -0.25,0.805 -0.245,0.335 -0.635,0.535 0.48,0.185 0.81,0.575 0.335,0.39 0.335,1.01 0,0.58 -0.3,0.99 -0.295,0.405 -0.82,0.62 -0.52,0.215 -1.205,0.215 z m -1.295,-1.88 q 0,0.545 0.37,0.82 0.375,0.27 0.925,0.27 0.545,0 0.91,-0.27 0.37,-0.275 0.37,-0.82 0,-0.36 -0.185,-0.605 -0.18,-0.245 -0.475,-0.365 -0.29,-0.125 -0.62,-0.125 -0.33,0 -0.63,0.125 -0.295,0.12 -0.48,0.365 -0.185,0.245 -0.185,0.605 z m 0.215,-2.8 q 0,0.395 0.29,0.655 0.29,0.26 0.79,0.26 0.49,0 0.78,-0.26 0.29,-0.26 0.29,-0.655 0,-0.42 -0.31,-0.65 -0.31,-0.235 -0.76,-0.235 -0.46,0 -0.77,0.235 -0.31,0.23 -0.31,0.65 z"
       id="textTriggerGroup8--text-output"
       aria-label="8" /><path
       style="font-weight:500;font-size:10px;line-height:1.25;font-family:Sono;-inkscape-font-specification:'Sono Medium';letter-spacing:0px;word-spacing:0px;fill:#1f1f1f"
       d="m 179.1875,471.70497 q 0,-0.19 0.145,-0.29 0.15,-0.105 0.4,-0.105 h 2.91 q 0.67,0 0.67,0.505 0,0.195 -0.06,0.335 -0.06,0.14 -0.185,0.335 -0.385,0.56 -0.755,1.255 -0.365,0.695 -0.605,1.5 -0.24,0.8 -0.24,1.685 0,0.645 -0.545,0.645 -0.27,0 -0.41,-0.18 -0.14,-0.18 -0.14,-0.52 0,-0.735 0.175,-1.435 0.175,-0.705 0.455,-1.33 0.285,-0.625 0.61,-1.135 0.325,-0.51 0.625,-0.86 h -2.505 q -0.25,0 -0.4,-0.105 -0.145,-0.105 -0.145,-0.3 z"
       id="textTriggerGroup7--text-output"
       aria-label="7" /><path
       style="font-weight:500;font-size:10px;line-height:1.25;font-family:Sono;-inkscape-font-specification:'Sono Medium';letter-spacing:0px;word-spacing:0px;fill:#1f1f1f"
       d="m 154.8,473.35497 q 0.855,0 1.38,0.51 0.53,0.505 0.53,1.54 0,0.67 -0.285,1.165 -0.28,0.495 -0.805,0.765 -0.52,0.27 -1.235,0.27 -0.72,0 -1.245,-0.33 -0.525,-0.33 -0.815,-1.015 -0.285,-0.685 -0.285,-1.755 0,-0.82 0.23,-1.43 0.23,-0.615 0.615,-1.02 0.39,-0.405 0.88,-0.605 0.49,-0.2 1.01,-0.2 0.43,0 0.785,0.135 0.36,0.13 0.57,0.335 0.215,0.2 0.215,0.415 0,0.175 -0.1,0.285 -0.095,0.105 -0.285,0.105 -0.165,0 -0.285,-0.07 -0.115,-0.07 -0.235,-0.165 -0.115,-0.1 -0.275,-0.17 -0.16,-0.07 -0.415,-0.07 -0.38,0 -0.73,0.225 -0.345,0.225 -0.58,0.68 -0.23,0.455 -0.275,1.145 0,0.045 -0.005,0.095 0,0.045 -0.005,0.09 0.265,-0.425 0.7,-0.675 0.44,-0.255 0.945,-0.255 z m -1.585,2.235 q 0.125,0.65 0.425,0.935 0.3,0.28 0.73,0.28 0.57,0 0.915,-0.345 0.35,-0.35 0.35,-1.055 0,-0.475 -0.165,-0.75 -0.165,-0.275 -0.43,-0.39 -0.26,-0.12 -0.56,-0.12 -0.3,0 -0.575,0.155 -0.275,0.15 -0.465,0.47 -0.185,0.32 -0.225,0.82 z"
       id="textTriggerGroup6--text-output"
       aria-label="6" /><path
       style="font-weight:500;font-size:10px;line-height:1.25;font-family:Sono;-inkscape-font-specification:'Sono Medium';letter-spacing:0px;word-spacing:0px;fill:#1f1f1f"
       d="m 127.6975,473.36497 q 0.55,0 1.02,0.22 0.47,0.215 0.755,0.675 0.29,0.455 0.29,1.175 0,0.54 -0.2,0.95 -0.195,0.405 -0.545,0.675 -0.345,0.27 -0.8,0.41 -0.455,0.135 -0.97,0.135 -0.5,0 -0.925,-0.12 -0.42,-0.125 -0.715,-0.345 -0.175,-0.11 -0.275,-0.255 -0.095,-0.145 -0.095,-0.29 0,-0.185 0.115,-0.31 0.12,-0.125 0.33,-0.125 0.165,0 0.27,0.065 0.105,0.06 0.205,0.155 0.185,0.175 0.455,0.3 0.27,0.125 0.65,0.125 0.41,0 0.725,-0.15 0.32,-0.15 0.5,-0.45 0.185,-0.3 0.185,-0.75 0,-0.62 -0.36,-0.96 -0.355,-0.345 -0.905,-0.345 -0.385,0 -0.64,0.13 -0.255,0.13 -0.48,0.395 -0.12,0.135 -0.22,0.195 -0.1,0.06 -0.24,0.06 -0.25,0 -0.37,-0.125 -0.12,-0.13 -0.12,-0.39 0,-0.045 0.03,-0.295 0.03,-0.255 0.075,-0.605 0.045,-0.355 0.095,-0.715 0.05,-0.36 0.085,-0.63 0.04,-0.275 0.05,-0.35 0.045,-0.265 0.205,-0.385 0.165,-0.125 0.47,-0.125 h 2.605 q 0.285,0 0.425,0.105 0.145,0.1 0.145,0.29 0,0.195 -0.145,0.3 -0.14,0.105 -0.425,0.105 h -2.36 l -0.215,1.78 q 0.22,-0.235 0.545,-0.38 0.325,-0.145 0.775,-0.145 z"
       id="textTriggerGroup5--text-output"
       aria-label="5" /><path
       style="font-weight:500;font-size:10px;line-height:1.25;font-family:Sono;-inkscape-font-specification:'Sono Medium';letter-spacing:0px;word-spacing:0px;fill:#1f1f1f"
       d="m 101.6275,477.59497 q -0.255,0 -0.4,-0.145 -0.145,-0.15 -0.145,-0.49 v -1.16 h -2.225002 q -0.325,0 -0.495,-0.135 -0.165,-0.14 -0.165,-0.38 0,-0.115 0.035,-0.275 0.04,-0.16 0.085,-0.3 l 1.115,-3.07 q 0.065,-0.2 0.205,-0.295 0.14,-0.1 0.305,-0.1 0.170002,0 0.305002,0.115 0.135,0.115 0.135,0.34 0,0.045 -0.01,0.1 -0.005,0.05 -0.025,0.11 l -1.095002,3.09 h 1.835002 v -2.74 q 0,-0.21 0.075,-0.325 0.075,-0.12 0.195,-0.17 0.12,-0.055 0.24,-0.055 0.12,0 0.235,0.055 0.12,0.05 0.195,0.17 0.075,0.115 0.075,0.325 v 2.74 h 0.42 q 0.25,0 0.39,0.105 0.14,0.105 0.14,0.295 0,0.195 -0.14,0.3 -0.14,0.1 -0.39,0.1 h -0.42 v 1.16 q 0,0.34 -0.14,0.49 -0.135,0.145 -0.335,0.145 z"
       id="textTriggerGroup4--text-output"
       aria-label="4" /><path
       style="font-weight:500;font-size:10px;line-height:1.25;font-family:Sono;-inkscape-font-specification:'Sono Medium';letter-spacing:0px;word-spacing:0px;fill:#1f1f1f"
       d="m 71.617498,476.53497 q 0,-0.18 0.13,-0.305 0.135,-0.13 0.305,-0.13 0.135,0 0.27,0.08 0.135,0.075 0.25,0.195 0.175,0.19 0.435,0.315 0.265,0.12 0.625,0.12 0.32,0 0.59,-0.12 0.27,-0.12 0.43,-0.355 0.165,-0.235 0.165,-0.57 0,-0.325 -0.2,-0.545 -0.2,-0.22 -0.515,-0.335 -0.31,-0.12 -0.66,-0.13 -0.185,-0.02 -0.32,-0.115 -0.135,-0.095 -0.135,-0.29 0,-0.21 0.135,-0.29 0.135,-0.085 0.32,-0.11 0.35,-0.015 0.63,-0.13 0.28,-0.12 0.445,-0.34 0.165,-0.22 0.165,-0.53 0,-0.305 -0.145,-0.505 -0.145,-0.205 -0.39,-0.305 -0.24,-0.1 -0.525,-0.1 -0.27,0 -0.55,0.12 -0.28,0.12 -0.475,0.33 -0.14,0.13 -0.245,0.205 -0.105,0.07 -0.255,0.07 -0.175,0 -0.295,-0.125 -0.12,-0.13 -0.12,-0.305 0,-0.26 0.275,-0.47 0.265,-0.25 0.69,-0.435 0.43,-0.185 0.975,-0.185 0.545,0 1.03,0.165 0.485,0.165 0.79,0.52 0.31,0.35 0.31,0.905 0,0.41 -0.18,0.72 -0.18,0.31 -0.475,0.51 -0.29,0.195 -0.63,0.27 0.375,0.085 0.695,0.265 0.325,0.175 0.52,0.47 0.2,0.295 0.2,0.735 0,0.575 -0.31,0.98 -0.305,0.405 -0.815,0.615 -0.51,0.21 -1.115,0.21 -0.565,0 -1.01,-0.175 -0.44,-0.18 -0.75,-0.44 -0.14,-0.11 -0.205,-0.23 -0.06,-0.12 -0.06,-0.23 z"
       id="textTriggerGroup3--text-output"
       aria-label="3" /><path
       style="font-weight:500;font-size:10px;line-height:1.25;font-family:Sono;-inkscape-font-specification:'Sono Medium';letter-spacing:0px;word-spacing:0px;fill:#1f1f1f"
       d="m 48.87,472.99997 q 0,0.435 -0.23,0.9 -0.23,0.46 -0.59,0.905 -0.355,0.445 -0.745,0.83 -0.39,0.38 -0.725,0.66 -0.33,0.275 -0.505,0.4 h 2.4 q 0.27,0 0.415,0.105 0.15,0.105 0.15,0.3 0,0.19 -0.15,0.295 -0.145,0.105 -0.415,0.105 H 45.33 q -0.325,0 -0.475,-0.13 -0.145,-0.135 -0.145,-0.34 0,-0.205 0.11,-0.33 0.11,-0.125 0.325,-0.29 0.265,-0.215 0.61,-0.52 0.345,-0.305 0.7,-0.665 0.36,-0.36 0.66,-0.745 0.305,-0.385 0.49,-0.755 0.19,-0.375 0.19,-0.7 0,-0.47 -0.255,-0.725 -0.255,-0.255 -0.7,-0.255 -0.36,0 -0.65,0.165 -0.29,0.165 -0.49,0.375 -0.125,0.115 -0.255,0.2 -0.125,0.08 -0.265,0.08 -0.16,0 -0.31,-0.12 -0.145,-0.125 -0.145,-0.295 0,-0.265 0.3,-0.515 0.295,-0.285 0.77,-0.485 0.475,-0.205 1.07,-0.205 0.92,0 1.46,0.44 0.545,0.435 0.545,1.315 z"
       id="textTriggerGroup2--text-output"
       aria-label="2" /><path
       style="font-weight:500;font-size:10px;line-height:1.25;font-family:Sono;-inkscape-font-specification:'Sono Medium';letter-spacing:0px;word-spacing:0px;fill:#1f1f1f"
       d="m 18.604996,477.49997 q -0.29,0 -0.445,-0.105 -0.15,-0.105 -0.15,-0.3 0,-0.395 0.595,-0.395 h 0.915 v -4.31 q -0.205,0.185 -0.495,0.275 -0.29,0.09 -0.59,0.09 -0.11,0 -0.225,-0.035 -0.11,-0.035 -0.185,-0.12 -0.075,-0.09 -0.075,-0.24 0,-0.155 0.075,-0.24 0.075,-0.09 0.19,-0.13 0.115,-0.04 0.235,-0.04 0.37,-0.01 0.645,-0.14 0.275,-0.135 0.445,-0.33 0.105,-0.095 0.23,-0.15 0.125,-0.06 0.31,-0.06 0.28,0 0.39,0.17 0.11,0.17 0.11,0.54 v 4.72 h 0.875 q 0.595,0 0.595,0.395 0,0.195 -0.155,0.3 -0.15,0.105 -0.44,0.105 z"
       id="textTriggerGroup1--text-output"
       aria-label="1" /><path
       style="font-weight:500;font-size:10px;line-height:1.25;font-family:Sono;-inkscape-font-specification:'Sono Medium';letter-spacing:0px;word-spacing:0px;fill:#bf9b30"
       d="m 225.13501,424.02499 v 1.925 h 1.255 q 0.515,0 0.8,-0.255 0.29,-0.255 0.29,-0.735 0,-0.48 -0.3,-0.705 -0.295,-0.23 -0.825,-0.23 z m -1.11,4.775 v -4.93 q 0,-0.665 0.665,-0.665 h 1.845 q 0.345,0 0.705,0.07 0.36,0.065 0.665,0.25 0.31,0.185 0.5,0.52 0.19,0.33 0.19,0.865 0,0.67 -0.32,1.065 -0.32,0.39 -0.775,0.545 l 0.96,2.175 q 0.04,0.09 0.06,0.175 0.02,0.08 0.02,0.155 0,0.205 -0.135,0.325 -0.13,0.115 -0.375,0.115 -0.3,0 -0.43,-0.15 -0.13,-0.15 -0.24,-0.43 l -0.905,-2.115 h -1.32 v 2.03 q 0,0.665 -0.56,0.665 -0.55,0 -0.55,-0.665 z m 5.765,0.69 q -0.22,0 -0.36,-0.125 -0.135,-0.125 -0.135,-0.36 0,-0.055 0.01,-0.12 0.01,-0.065 0.03,-0.135 l 1.71,-4.95 q 0.095,-0.285 0.285,-0.45 0.195,-0.17 0.46,-0.17 h 0.255 q 0.27,0 0.46,0.17 0.195,0.165 0.285,0.45 l 1.71,4.95 q 0.025,0.07 0.035,0.135 0.01,0.065 0.01,0.12 0,0.235 -0.14,0.36 -0.14,0.125 -0.365,0.125 -0.275,0 -0.405,-0.145 -0.13,-0.145 -0.215,-0.445 l -0.38,-1.105 h -2.245 l -0.38,1.105 q -0.08,0.3 -0.215,0.445 -0.13,0.145 -0.41,0.145 z m 1.235,-2.515 h 1.79 l -0.845,-2.55 q -0.015,-0.055 -0.03,-0.11 -0.015,-0.06 -0.025,-0.105 -0.005,0.045 -0.02,0.105 -0.01,0.055 -0.025,0.11 z m 4.75,2.465 q -0.5,0 -0.5,-0.655 v -4.94 q 0,-0.325 0.195,-0.495 0.2,-0.17 0.52,-0.17 h 0.025 q 0.285,0 0.485,0.145 0.205,0.145 0.345,0.415 l 2.11,3.995 v -3.9 q 0,-0.655 0.505,-0.655 0.235,0 0.37,0.165 0.135,0.165 0.135,0.49 v 4.94 q 0,0.32 -0.17,0.495 -0.165,0.17 -0.485,0.17 h -0.01 q -0.29,0 -0.48,-0.145 -0.185,-0.145 -0.33,-0.415 l -2.225,-4.135 v 4.04 q 0,0.655 -0.49,0.655 z m 7.24,-6.235 q 0.315,0 0.705,0.065 0.39,0.065 0.785,0.25 0.395,0.18 0.73,0.525 0.335,0.345 0.535,0.895 0.205,0.55 0.205,1.36 0,0.805 -0.205,1.355 -0.2,0.55 -0.535,0.895 -0.335,0.345 -0.73,0.53 -0.395,0.18 -0.785,0.25 -0.39,0.065 -0.705,0.065 h -1.25 q -0.665,0 -0.665,-0.67 v -4.855 q 0,-0.665 0.665,-0.665 z m -0.015,5.37 q 0.365,0 0.695,-0.125 0.335,-0.125 0.595,-0.395 0.265,-0.27 0.415,-0.705 0.15,-0.435 0.15,-1.05 0,-0.62 -0.15,-1.055 -0.15,-0.435 -0.415,-0.705 -0.26,-0.27 -0.595,-0.39 -0.33,-0.125 -0.695,-0.125 h -0.795 v 4.55 z"
       id="textRandomTrig--text"
       aria-label="RAND" /><path
       style="font-weight:500;font-size:10px;line-height:1.25;font-family:Sono;-inkscape-font-specification:'Sono Medium';letter-spacing:0px;word-spacing:0px;fill:#bf9b30"
       d="m 170.41201,424.02499 v 1.925 h 1.255 q 0.515,0 0.8,-0.255 0.29,-0.255 0.29,-0.735 0,-0.48 -0.3,-0.705 -0.295,-0.23 -0.825,-0.23 z m -1.11,4.775 v -4.93 q 0,-0.665 0.665,-0.665 h 1.845 q 0.345,0 0.705,0.07 0.36,0.065 0.665,0.25 0.31,0.185 0.5,0.52 0.19,0.33 0.19,0.865 0,0.67 -0.32,1.065 -0.32,0.39 -0.775,0.545 l 0.96,2.175 q 0.04,0.09 0.06,0.175 0.02,0.08 0.02,0.155 0,0.205 -0.135,0.325 -0.13,0.115 -0.375,0.115 -0.3,0 -0.43,-0.15 -0.13,-0.15 -0.24,-0.43 l -0.905,-2.115 h -1.32 v 2.03 q 0,0.665 -0.56,0.665 -0.55,0 -0.55,-0.665 z m 6.085,0.64 q -0.5,0 -0.5,-0.655 v -4.94 q 0,-0.325 0.195,-0.495 0.2,-0.17 0.52,-0.17 h 0.025 q 0.285,0 0.485,0.145 0.205,0.145 0.345,0.415 l 2.11,3.995 v -3.9 q 0,-0.655 0.505,-0.655 0.235,0 0.37,0.165 0.135,0.165 0.135,0.49 v 4.94 q 0,0.32 -0.17,0.495 -0.165,0.17 -0.485,0.17 h -0.01 q -0.29,0 -0.48,-0.145 -0.185,-0.145 -0.33,-0.415 l -2.225,-4.135 v 4.04 q 0,0.655 -0.49,0.655 z m 7.23999,-6.235 q 0.315,0 0.705,0.065 0.39,0.065 0.785,0.25 0.395,0.18 0.73,0.525 0.335,0.345 0.535,0.895 0.205,0.55 0.205,1.36 0,0.805 -0.205,1.355 -0.2,0.55 -0.535,0.895 -0.335,0.345 -0.73,0.53 -0.395,0.18 -0.785,0.25 -0.39,0.065 -0.705,0.065 h -1.25 q -0.665,0 -0.665,-0.67 v -4.855 q 0,-0.665 0.665,-0.665 z m -0.015,5.37 q 0.365,0 0.695,-0.125 0.335,-0.125 0.595,-0.395 0.265,-0.27 0.415,-0.705 0.15,-0.435 0.15,-1.05 0,-0.62 -0.15,-1.055 -0.15,-0.435 -0.415,-0.705 -0.26,-0.27 -0.595,-0.39 -0.33,-0.125 -0.695,-0.125 h -0.795 v 4.55 z m 7.745,0.82 q -0.125,0 -0.205,-0.06 -0.075,-0.065 -0.075,-0.17 0,-0.135 0.11,-0.32 l 3.555,-5.665 q 0.14,-0.235 0.245,-0.34 0.11,-0.11 0.285,-0.11 0.13,0 0.2,0.07 0.075,0.065 0.075,0.17 0,0.135 -0.09,0.28 l -3.57,5.69 q -0.14,0.235 -0.24,0.345 -0.095,0.11 -0.29,0.11 z m 3.415,-0.04 q -0.3,0 -0.565,-0.12 -0.265,-0.125 -0.43,-0.405 -0.165,-0.28 -0.165,-0.74 0,-0.46 0.165,-0.735 0.165,-0.275 0.43,-0.4 0.265,-0.125 0.565,-0.125 0.3,0 0.565,0.125 0.265,0.125 0.43,0.4 0.165,0.275 0.165,0.735 0,0.46 -0.165,0.74 -0.165,0.28 -0.43,0.405 -0.265,0.12 -0.565,0.12 z m 0,-0.55 q 0.215,0 0.365,-0.155 0.15,-0.155 0.15,-0.56 0,-0.4 -0.15,-0.55 -0.15,-0.155 -0.365,-0.155 -0.215,0 -0.37,0.155 -0.15,0.15 -0.15,0.55 0,0.405 0.15,0.56 0.155,0.155 0.37,0.155 z m -2.88,-3.45 q -0.3,0 -0.57,-0.12 -0.265,-0.125 -0.43,-0.405 -0.16,-0.28 -0.16,-0.74 0,-0.46 0.16,-0.735 0.165,-0.275 0.43,-0.4 0.27,-0.125 0.57,-0.125 0.3,0 0.565,0.125 0.265,0.125 0.43,0.4 0.165,0.275 0.165,0.735 0,0.46 -0.165,0.74 -0.165,0.28 -0.43,0.405 -0.265,0.12 -0.565,0.12 z m 0,-0.55 q 0.215,0 0.365,-0.155 0.15,-0.155 0.15,-0.56 0,-0.4 -0.15,-0.55 -0.15,-0.155 -0.365,-0.155 -0.215,0 -0.365,0.155 -0.15,0.15 -0.15,0.55 0,0.405 0.15,0.56 0.15,0.155 0.365,0.155 z m 11.00502,4.69 q -0.51,0 -1.01,-0.17 -0.5,-0.17 -0.91,-0.545 -0.41,-0.375 -0.655,-0.98 -0.245,-0.61 -0.245,-1.48 0,-0.87 0.245,-1.475 0.245,-0.61 0.655,-0.985 0.41,-0.375 0.91,-0.545 0.5,-0.17 1.01,-0.17 0.48,0 0.875,0.145 0.4,0.14 0.69,0.375 0.295,0.235 0.45,0.515 0.16,0.28 0.16,0.555 0,0.22 -0.14,0.35 -0.14,0.125 -0.33,0.125 -0.235,0 -0.335,-0.105 -0.095,-0.105 -0.16,-0.26 -0.055,-0.185 -0.195,-0.385 -0.14,-0.205 -0.385,-0.345 -0.245,-0.145 -0.625,-0.145 -0.425,0 -0.815,0.25 -0.385,0.245 -0.63,0.765 -0.245,0.515 -0.245,1.335 0,0.82 0.245,1.34 0.245,0.52 0.63,0.765 0.39,0.245 0.815,0.245 0.38,0 0.625,-0.14 0.245,-0.145 0.385,-0.345 0.14,-0.205 0.195,-0.39 0.065,-0.16 0.16,-0.265 0.1,-0.105 0.335,-0.105 0.19,0 0.33,0.135 0.14,0.13 0.14,0.345 0,0.275 -0.16,0.555 -0.16,0.28 -0.455,0.515 -0.29,0.235 -0.69,0.38 -0.395,0.14 -0.87,0.14 z m 5.50499,-0.075 h -0.14 q -0.335,0 -0.54,-0.145 -0.2,-0.15 -0.29,-0.44 l -1.625,-4.94 q -0.02,-0.065 -0.03,-0.13 -0.01,-0.065 -0.01,-0.11 0,-0.245 0.155,-0.37 0.16,-0.13 0.39,-0.13 0.275,0 0.395,0.15 0.12,0.145 0.195,0.445 l 1.43,4.71 1.435,-4.71 q 0.08,-0.3 0.2,-0.445 0.125,-0.15 0.4,-0.15 0.235,0 0.38,0.135 0.15,0.13 0.15,0.37 0,0.05 -0.01,0.11 -0.005,0.06 -0.025,0.125 l -1.63,4.94 q -0.09,0.29 -0.295,0.44 -0.205,0.145 -0.535,0.145 z"
       id="textRandomDensityCV--text"
       aria-label="RND % CV" /><path
       style="font-weight:500;font-size:10px;line-height:1.25;font-family:Sono;-inkscape-font-specification:'Sono Medium';letter-spacing:0px;word-spacing:0px;fill:#bf9b30"
       d="m 118.422,428.57499 h 2.17 q 0.285,0 0.45,0.11 0.165,0.105 0.165,0.3 0,0.195 -0.165,0.305 -0.165,0.105 -0.45,0.105 h -2.615 q -0.665,0 -0.665,-0.67 v -4.9 q 0,-0.67 0.555,-0.67 0.555,0 0.555,0.67 z m 7.85999,-4.965 q 0,0.415 -0.64,0.415 h -2.455 v 1.85 h 2.01 q 0.325,0 0.46,0.105 0.135,0.105 0.135,0.305 0,0.195 -0.135,0.305 -0.135,0.105 -0.46,0.105 h -2.01 v 1.88 h 2.455 q 0.64,0 0.64,0.41 0,0.41 -0.64,0.41 h -2.9 q -0.665,0 -0.665,-0.67 v -4.855 q 0,-0.665 0.665,-0.665 h 2.9 q 0.64,0 0.64,0.405 z m 1.56001,5.83 q -0.5,0 -0.5,-0.655 v -4.94 q 0,-0.325 0.195,-0.495 0.2,-0.17 0.52,-0.17 h 0.025 q 0.285,0 0.485,0.145 0.205,0.145 0.345,0.415 l 2.11,3.995 v -3.9 q 0,-0.655 0.505,-0.655 0.235,0 0.37,0.165 0.135,0.165 0.135,0.49 v 4.94 q 0,0.32 -0.17,0.495 -0.165,0.17 -0.485,0.17 h -0.01 q -0.29,0 -0.48,-0.145 -0.185,-0.145 -0.33,-0.415 l -2.225,-4.135 v 4.04 q 0,0.655 -0.49,0.655 z m 11.245,0.055 q -0.51,0 -1.01,-0.17 -0.5,-0.17 -0.91,-0.545 -0.41,-0.375 -0.655,-0.98 -0.245,-0.61 -0.245,-1.48 0,-0.87 0.245,-1.475 0.245,-0.61 0.655,-0.985 0.41,-0.375 0.91,-0.545 0.5,-0.17 1.01,-0.17 0.48,0 0.875,0.145 0.4,0.14 0.69,0.375 0.295,0.235 0.45,0.515 0.16,0.28 0.16,0.555 0,0.22 -0.14,0.35 -0.14,0.125 -0.33,0.125 -0.235,0 -0.335,-0.105 -0.095,-0.105 -0.16,-0.26 -0.055,-0.185 -0.195,-0.385 -0.14,-0.205 -0.385,-0.345 -0.245,-0.145 -0.625,-0.145 -0.425,0 -0.815,0.25 -0.385,0.245 -0.63,0.765 -0.245,0.515 -0.245,1.335 0,0.82 0.245,1.34 0.245,0.52 0.63,0.765 0.39,0.245 0.815,0.245 0.38,0 0.625,-0.14 0.245,-0.145 0.385,-0.345 0.14,-0.205 0.195,-0.39 0.065,-0.16 0.16,-0.265 0.1,-0.105 0.335,-0.105 0.19,0 0.33,0.135 0.14,0.13 0.14,0.345 0,0.275 -0.16,0.555 -0.16,0.28 -0.455,0.515 -0.29,0.235 -0.69,0.38 -0.395,0.14 -0.87,0.14 z m 5.50499,-0.075 h -0.14 q -0.335,0 -0.54,-0.145 -0.2,-0.15 -0.29,-0.44 l -1.625,-4.94 q -0.02,-0.065 -0.03,-0.13 -0.01,-0.065 -0.01,-0.11 0,-0.245 0.155,-0.37 0.16,-0.13 0.39,-0.13 0.275,0 0.395,0.15 0.12,0.145 0.195,0.445 l 1.43,4.71 1.435,-4.71 q 0.08,-0.3 0.2,-0.445 0.125,-0.15 0.4,-0.15 0.235,0 0.38,0.135 0.15,0.13 0.15,0.37 0,0.05 -0.01,0.11 -0.005,0.06 -0.025,0.125 l -1.63,4.94 q -0.09,0.29 -0.295,0.44 -0.205,0.145 -0.535,0.145 z"
       id="textLengthCV--text"
       aria-label="LEN CV" /><path
       style="font-weight:500;font-size:10px;line-height:1.25;font-family:Sono;-inkscape-font-specification:'Sono Medium';letter-spacing:0px;word-spacing:0px;fill:#bf9b30"
       d="m 70.632503,428.57499 h 2.17 q 0.285,0 0.45,0.11 0.165,0.105 0.165,0.3 0,0.195 -0.165,0.305 -0.165,0.105 -0.45,0.105 h -2.615 q -0.665,0 -0.665,-0.67 v -4.9 q 0,-0.67 0.555,-0.67 0.555,0 0.555,0.67 z m 7.859993,-4.965 q 0,0.415 -0.64,0.415 h -2.455 v 1.85 h 2.01 q 0.325,0 0.46,0.105 0.135,0.105 0.135,0.305 0,0.195 -0.135,0.305 -0.135,0.105 -0.46,0.105 h -2.01 v 1.88 h 2.455 q 0.64,0 0.64,0.41 0,0.41 -0.64,0.41 h -2.9 q -0.665,0 -0.665,-0.67 v -4.855 q 0,-0.665 0.665,-0.665 h 2.9 q 0.64,0 0.64,0.405 z m 1.560004,5.83 q -0.5,0 -0.5,-0.655 v -4.94 q 0,-0.325 0.195,-0.495 0.2,-0.17 0.52,-0.17 h 0.025 q 0.285,0 0.485,0.145 0.205,0.145 0.345,0.415 l 2.11,3.995 v -3.9 q 0,-0.655 0.505,-0.655 0.235,0 0.37,0.165 0.135,0.165 0.135,0.49 v 4.94 q 0,0.32 -0.17,0.495 -0.165,0.17 -0.485,0.17 h -0.01 q -0.29,0 -0.48,-0.145 -0.185,-0.145 -0.33,-0.415 l -2.225,-4.135 v 4.04 q 0,0.655 -0.49,0.655 z m 12.585002,-6.235 q 0.62,0 0.62,0.405 0,0.2 -0.17,0.31 -0.165,0.105 -0.42,0.105 h -1.35 v 4.775 q 0,0.665 -0.555,0.665 -0.555,0 -0.555,-0.665 v -4.775 h -1.29 q -0.305,0 -0.475,-0.105 -0.165,-0.11 -0.165,-0.31 0,-0.195 0.165,-0.3 0.17,-0.105 0.475,-0.105 z m 4.079995,6.295 q -0.53,0 -1.02,-0.175 -0.49,-0.18 -0.88,-0.56 -0.39,-0.38 -0.62,-0.985 -0.225,-0.605 -0.225,-1.46 0,-0.86 0.24,-1.46 0.24,-0.605 0.645,-0.985 0.41,-0.38 0.915,-0.555 0.505,-0.175 1.035,-0.175 0.57,0 0.995,0.16 0.425,0.16 0.73,0.455 0.145,0.125 0.21,0.255 0.065,0.13 0.065,0.255 0,0.195 -0.15,0.32 -0.145,0.125 -0.325,0.125 -0.135,0 -0.265,-0.07 -0.13,-0.07 -0.23,-0.18 -0.165,-0.19 -0.41,-0.335 -0.245,-0.15 -0.615,-0.15 -0.43,0 -0.825,0.24 -0.395,0.235 -0.645,0.75 -0.25,0.515 -0.25,1.35 0,0.855 0.245,1.37 0.245,0.515 0.63,0.745 0.385,0.23 0.81,0.23 0.4,0 0.69,-0.18 0.29,-0.185 0.45,-0.55 0.165,-0.365 0.175,-0.915 h -0.98 q -0.25,0 -0.395,-0.09 -0.14,-0.095 -0.14,-0.3 0,-0.21 0.135,-0.3 0.14,-0.095 0.39,-0.095 h 1.47 q 0.325,0 0.47,0.16 0.145,0.155 0.145,0.455 0,0.89 -0.325,1.48 -0.325,0.585 -0.885,0.88 -0.56,0.29 -1.26,0.29 z m 4.575003,-0.925 h 2.17 q 0.285,0 0.45,0.11 0.165,0.105 0.165,0.3 0,0.195 -0.165,0.305 -0.165,0.105 -0.45,0.105 h -2.615 q -0.665,0 -0.665,-0.67 v -4.9 q 0,-0.67 0.555,-0.67 0.555,0 0.555,0.67 z"
       id="textLengthTrig--text"
       aria-label="LEN TGL" /><path
       style="font-weight:500;font-size:10px;line-height:1.25;font-family:Sono;-inkscape-font-specification:'Sono Medium';letter-spacing:0px;word-spacing:0px;fill:#bf9b30"
       d="m 46.380002,424.02499 v 1.925 h 1.255 q 0.515,0 0.8,-0.255 0.29,-0.255 0.29,-0.735 0,-0.48 -0.3,-0.705 -0.295,-0.23 -0.825,-0.23 z m -1.11,4.775 v -4.93 q 0,-0.665 0.665,-0.665 h 1.845 q 0.345,0 0.705,0.07 0.36,0.065 0.665,0.25 0.31,0.185 0.5,0.52 0.19,0.33 0.19,0.865 0,0.67 -0.32,1.065 -0.32,0.39 -0.775,0.545 l 0.96,2.175 q 0.04,0.09 0.06,0.175 0.02,0.08 0.02,0.155 0,0.205 -0.135,0.325 -0.13,0.115 -0.375,0.115 -0.3,0 -0.43,-0.15 -0.13,-0.15 -0.24,-0.43 l -0.905,-2.115 h -1.32 v 2.03 q 0,0.665 -0.56,0.665 -0.55,0 -0.55,-0.665 z m 8.075,0.7 q -0.75,0 -1.31,-0.21 -0.555,-0.21 -0.89,-0.545 -0.315,-0.25 -0.315,-0.585 0,-0.165 0.12,-0.305 0.12,-0.145 0.345,-0.145 0.2,0 0.34,0.095 0.145,0.09 0.27,0.22 0.23,0.27 0.58,0.46 0.35,0.19 0.88,0.19 0.36,0 0.665,-0.11 0.31,-0.11 0.495,-0.315 0.19,-0.205 0.19,-0.49 0,-0.425 -0.395,-0.655 -0.39,-0.235 -1.155,-0.425 -1.13,-0.28 -1.655,-0.74 -0.52,-0.465 -0.52,-1.18 0,-0.505 0.32,-0.865 0.325,-0.365 0.87,-0.555 0.55,-0.195 1.22,-0.195 0.595,0 1.105,0.185 0.515,0.18 0.835,0.51 0.14,0.11 0.22,0.25 0.085,0.135 0.085,0.3 0,0.2 -0.13,0.32 -0.125,0.115 -0.32,0.115 -0.195,0 -0.34,-0.105 -0.145,-0.105 -0.245,-0.215 -0.17,-0.23 -0.49,-0.38 -0.32,-0.155 -0.765,-0.155 -0.335,0 -0.615,0.095 -0.28,0.095 -0.45,0.27 -0.165,0.17 -0.165,0.41 0,0.37 0.36,0.605 0.36,0.23 1.105,0.43 0.71,0.185 1.215,0.43 0.505,0.245 0.775,0.6 0.27,0.355 0.27,0.885 0,0.56 -0.33,0.965 -0.33,0.405 -0.9,0.625 -0.565,0.215 -1.275,0.215 z m 7.565007,-6.295 q 0.62,0 0.62,0.405 0,0.2 -0.17,0.31 -0.165,0.105 -0.42,0.105 h -1.35 v 4.775 q 0,0.665 -0.555,0.665 -0.555,0 -0.555,-0.665 v -4.775 h -1.29 q -0.305,0 -0.475,-0.105 -0.165,-0.11 -0.165,-0.31 0,-0.195 0.165,-0.3 0.17,-0.105 0.475,-0.105 z"
       id="textResetTrig--text"
       aria-label="RST" /><path
       style="font-weight:500;font-size:10px;line-height:1.25;font-family:Sono;-inkscape-font-specification:'Sono Medium';letter-spacing:0px;word-spacing:0px;fill:#bf9b30"
       d="m 15.272502,429.49499 q -0.51,0 -1.01,-0.17 -0.5,-0.17 -0.91,-0.545 -0.41,-0.375 -0.655,-0.98 -0.245,-0.61 -0.245,-1.48 0,-0.87 0.245,-1.475 0.245,-0.61 0.655,-0.985 0.41,-0.375 0.91,-0.545 0.5,-0.17 1.01,-0.17 0.48,0 0.875,0.145 0.4,0.14 0.69,0.375 0.295,0.235 0.45,0.515 0.16,0.28 0.16,0.555 0,0.22 -0.14,0.35 -0.14,0.125 -0.33,0.125 -0.235,0 -0.335,-0.105 -0.095,-0.105 -0.16,-0.26 -0.055,-0.185 -0.195,-0.385 -0.14,-0.205 -0.385,-0.345 -0.245,-0.145 -0.625,-0.145 -0.425,0 -0.815,0.25 -0.385,0.245 -0.63,0.765 -0.245,0.515 -0.245,1.335 0,0.82 0.245,1.34 0.245,0.52 0.63,0.765 0.39,0.245 0.815,0.245 0.38,0 0.625,-0.14 0.245,-0.145 0.385,-0.345 0.14,-0.205 0.195,-0.39 0.065,-0.16 0.16,-0.265 0.1,-0.105 0.335,-0.105 0.19,0 0.33,0.135 0.14,0.13 0.14,0.345 0,0.275 -0.16,0.555 -0.16,0.28 -0.455,0.515 -0.29,0.235 -0.69,0.38 -0.395,0.14 -0.87,0.14 z m 4.279993,-0.92 h 2.17 q 0.285,0 0.45,0.11 0.165,0.105 0.165,0.3 0,0.195 -0.165,0.305 -0.165,0.105 -0.45,0.105 h -2.615 q -0.665,0 -0.665,-0.67 v -4.9 q 0,-0.67 0.555,-0.67 0.555,0 0.555,0.67 z m 4.229994,0.915 q -0.55,0 -0.55,-0.655 v -5.025 q 0,-0.325 0.14,-0.49 0.145,-0.165 0.41,-0.165 0.56,0 0.56,0.655 v 2.095 l 2.03,-2.305 q 0.165,-0.215 0.32,-0.33 0.16,-0.115 0.395,-0.115 0.235,0 0.345,0.11 0.115,0.11 0.115,0.29 0,0.11 -0.04,0.2 -0.04,0.085 -0.115,0.18 l -1.765,1.935 q -0.155,0.18 -0.26,0.29 -0.105,0.11 -0.155,0.15 0.05,0.035 0.155,0.15 0.11,0.115 0.28,0.32 l 1.74,1.905 q 0.085,0.105 0.12,0.195 0.035,0.09 0.035,0.205 0,0.18 -0.135,0.295 -0.135,0.11 -0.365,0.11 -0.235,0 -0.375,-0.1 -0.14,-0.1 -0.3,-0.315 l -2.025,-2.34 v 2.1 q 0,0.655 -0.56,0.655 z"
       id="textClock--text"
       aria-label="CLK" /><path
       style="font-weight:500;font-size:10px;line-height:1.25;font-family:Sono;-inkscape-font-specification:'Sono Medium';letter-spacing:0px;word-spacing:0px;fill:#bf9b30"
       d="m 223.87501,385.44499 q -0.245,0 -0.395,-0.145 -0.15,-0.15 -0.15,-0.425 0,-0.09 0,-0.375 0,-0.29 0,-0.705 0,-0.415 0,-0.89 0,-0.48 0,-0.96 0,-0.48 0,-0.9 0,-0.42 0,-0.715 0,-0.3 0,-0.405 0,-0.265 0.1,-0.445 0.1,-0.185 0.27,-0.275 0.175,-0.095 0.38,-0.095 h 0.035 q 0.305,0 0.515,0.195 0.215,0.195 0.34,0.49 l 1.2,2.76 1.205,-2.76 q 0.13,-0.295 0.34,-0.49 0.215,-0.195 0.52,-0.195 h 0.03 q 0.205,0 0.375,0.095 0.17,0.095 0.27,0.275 0.1,0.18 0.1,0.445 0,0.105 0,0.405 0,0.295 0,0.715 0,0.42 0,0.9 0,0.48 0,0.96 0,0.475 0,0.89 0,0.415 0,0.705 0,0.285 0,0.375 0,0.275 -0.135,0.425 -0.135,0.145 -0.38,0.145 -0.56,0 -0.56,-0.645 v -3.585 l -1.16,2.64 q -0.125,0.29 -0.24,0.44 -0.11,0.15 -0.365,0.15 -0.255,0 -0.365,-0.15 -0.11,-0.15 -0.24,-0.44 l -1.17,-2.675 v 3.62 q 0,0.32 -0.125,0.485 -0.125,0.16 -0.395,0.16 z m 8.855,0.055 q -0.495,0 -0.975,-0.17 -0.48,-0.175 -0.875,-0.55 -0.39,-0.375 -0.625,-0.98 -0.235,-0.61 -0.235,-1.48 0,-0.87 0.235,-1.475 0.235,-0.61 0.625,-0.98 0.395,-0.375 0.875,-0.545 0.48,-0.175 0.975,-0.175 0.485,0 0.965,0.175 0.48,0.17 0.87,0.545 0.395,0.37 0.63,0.98 0.235,0.605 0.235,1.475 0,0.87 -0.235,1.48 -0.235,0.605 -0.63,0.98 -0.39,0.375 -0.87,0.55 -0.48,0.17 -0.965,0.17 z m 0,-0.825 q 0.425,0 0.78,-0.255 0.355,-0.26 0.57,-0.78 0.215,-0.525 0.215,-1.32 0,-0.79 -0.215,-1.31 -0.215,-0.525 -0.57,-0.78 -0.355,-0.26 -0.78,-0.26 -0.43,0 -0.79,0.26 -0.36,0.255 -0.575,0.78 -0.215,0.52 -0.215,1.31 0,0.795 0.215,1.32 0.215,0.52 0.575,0.78 0.36,0.255 0.79,0.255 z m 5.68,-5.47 q 0.315,0 0.705,0.065 0.39,0.065 0.785,0.25 0.395,0.18 0.73,0.525 0.335,0.345 0.535,0.895 0.205,0.55 0.205,1.36 0,0.805 -0.205,1.355 -0.2,0.55 -0.535,0.895 -0.335,0.345 -0.73,0.53 -0.395,0.18 -0.785,0.25 -0.39,0.065 -0.705,0.065 h -1.25 q -0.665,0 -0.665,-0.67 v -4.855 q 0,-0.665 0.665,-0.665 z m -0.015,5.37 q 0.365,0 0.695,-0.125 0.335,-0.125 0.595,-0.395 0.265,-0.27 0.415,-0.705 0.15,-0.435 0.15,-1.05 0,-0.62 -0.15,-1.055 -0.15,-0.435 -0.415,-0.705 -0.26,-0.27 -0.595,-0.39 -0.33,-0.125 -0.695,-0.125 h -0.795 v 4.55 z m 8.27499,-4.965 q 0,0.415 -0.64,0.415 h -2.455 v 1.85 h 2.01 q 0.325,0 0.46,0.105 0.135,0.105 0.135,0.305 0,0.195 -0.135,0.305 -0.135,0.105 -0.46,0.105 h -2.01 v 1.88 h 2.455 q 0.64,0 0.64,0.41 0,0.41 -0.64,0.41 h -2.9 q -0.665,0 -0.665,-0.67 v -4.855 q 0,-0.665 0.665,-0.665 h 2.9 q 0.64,0 0.64,0.405 z"
       id="textMode--text"
       aria-label="MODE" /><path
       style="font-weight:500;font-size:10px;line-height:1.25;font-family:Sono;-inkscape-font-specification:'Sono Medium';letter-spacing:0px;word-spacing:0px;fill:#bf9b30"
       d="m 184.195,380.02499 v 1.925 h 1.255 q 0.515,0 0.8,-0.255 0.29,-0.255 0.29,-0.735 0,-0.48 -0.3,-0.705 -0.295,-0.23 -0.825,-0.23 z m -1.11,4.775 v -4.93 q 0,-0.665 0.665,-0.665 h 1.845 q 0.345,0 0.705,0.07 0.36,0.065 0.665,0.25 0.31,0.185 0.5,0.52 0.19,0.33 0.19,0.865 0,0.67 -0.32,1.065 -0.32,0.39 -0.775,0.545 l 0.96,2.175 q 0.04,0.09 0.06,0.175 0.02,0.08 0.02,0.155 0,0.205 -0.135,0.325 -0.13,0.115 -0.375,0.115 -0.3,0 -0.43,-0.15 -0.13,-0.15 -0.24,-0.43 l -0.905,-2.115 h -1.32 v 2.03 q 0,0.665 -0.56,0.665 -0.55,0 -0.55,-0.665 z m 6.085,0.64 q -0.5,0 -0.5,-0.655 v -4.94 q 0,-0.325 0.195,-0.495 0.2,-0.17 0.52,-0.17 h 0.025 q 0.285,0 0.485,0.145 0.205,0.145 0.345,0.415 l 2.11,3.995 v -3.9 q 0,-0.655 0.505,-0.655 0.235,0 0.37,0.165 0.135,0.165 0.135,0.49 v 4.94 q 0,0.32 -0.17,0.495 -0.165,0.17 -0.485,0.17 h -0.01 q -0.29,0 -0.48,-0.145 -0.185,-0.145 -0.33,-0.415 l -2.225,-4.135 v 4.04 q 0,0.655 -0.49,0.655 z m 7.23999,-6.235 q 0.315,0 0.705,0.065 0.39,0.065 0.785,0.25 0.395,0.18 0.73,0.525 0.335,0.345 0.535,0.895 0.205,0.55 0.205,1.36 0,0.805 -0.205,1.355 -0.2,0.55 -0.535,0.895 -0.335,0.345 -0.73,0.53 -0.395,0.18 -0.785,0.25 -0.39,0.065 -0.705,0.065 h -1.25 q -0.665,0 -0.665,-0.67 v -4.855 q 0,-0.665 0.665,-0.665 z m -0.015,5.37 q 0.365,0 0.695,-0.125 0.335,-0.125 0.595,-0.395 0.265,-0.27 0.415,-0.705 0.15,-0.435 0.15,-1.05 0,-0.62 -0.15,-1.055 -0.15,-0.435 -0.415,-0.705 -0.26,-0.27 -0.595,-0.39 -0.33,-0.125 -0.695,-0.125 h -0.795 v 4.55 z m 7.745,0.82 q -0.125,0 -0.205,-0.06 -0.075,-0.065 -0.075,-0.17 0,-0.135 0.11,-0.32 l 3.555,-5.665 q 0.14,-0.235 0.245,-0.34 0.11,-0.11 0.285,-0.11 0.13,0 0.2,0.07 0.075,0.065 0.075,0.17 0,0.135 -0.09,0.28 l -3.57,5.69 q -0.14,0.235 -0.24,0.345 -0.095,0.11 -0.29,0.11 z m 3.415,-0.04 q -0.3,0 -0.565,-0.12 -0.265,-0.125 -0.43,-0.405 -0.165,-0.28 -0.165,-0.74 0,-0.46 0.165,-0.735 0.165,-0.275 0.43,-0.4 0.265,-0.125 0.565,-0.125 0.3,0 0.565,0.125 0.265,0.125 0.43,0.4 0.165,0.275 0.165,0.735 0,0.46 -0.165,0.74 -0.165,0.28 -0.43,0.405 -0.265,0.12 -0.565,0.12 z m 0,-0.55 q 0.215,0 0.365,-0.155 0.15,-0.155 0.15,-0.56 0,-0.4 -0.15,-0.55 -0.15,-0.155 -0.365,-0.155 -0.215,0 -0.37,0.155 -0.15,0.15 -0.15,0.55 0,0.405 0.15,0.56 0.155,0.155 0.37,0.155 z m -2.88,-3.45 q -0.3,0 -0.57,-0.12 -0.265,-0.125 -0.43,-0.405 -0.16,-0.28 -0.16,-0.74 0,-0.46 0.16,-0.735 0.165,-0.275 0.43,-0.4 0.27,-0.125 0.57,-0.125 0.3,0 0.565,0.125 0.265,0.125 0.43,0.4 0.165,0.275 0.165,0.735 0,0.46 -0.165,0.74 -0.165,0.28 -0.43,0.405 -0.265,0.12 -0.565,0.12 z m 0,-0.55 q 0.215,0 0.365,-0.155 0.15,-0.155 0.15,-0.56 0,-0.4 -0.15,-0.55 -0.15,-0.155 -0.365,-0.155 -0.215,0 -0.365,0.155 -0.15,0.15 -0.15,0.55 0,0.405 0.15,0.56 0.15,0.155 0.365,0.155 z"
       id="textRandomDensity--text"
       aria-label="RND %" /><path
       style="font-weight:500;font-size:10px;line-height:1.25;font-family:Sono;-inkscape-font-specification:'Sono Medium';letter-spacing:0px;word-spacing:0px;fill:#bf9b30"
       d="m 148.435,380.02499 v 1.925 h 1.255 q 0.515,0 0.8,-0.255 0.29,-0.255 0.29,-0.735 0,-0.48 -0.3,-0.705 -0.295,-0.23 -0.825,-0.23 z m -1.11,4.775 v -4.93 q 0,-0.665 0.665,-0.665 h 1.845 q 0.345,0 0.705,0.07 0.36,0.065 0.665,0.25 0.31,0.185 0.5,0.52 0.19,0.33 0.19,0.865 0,0.67 -0.32,1.065 -0.32,0.39 -0.775,0.545 l 0.96,2.175 q 0.04,0.09 0.06,0.175 0.02,0.08 0.02,0.155 0,0.205 -0.135,0.325 -0.13,0.115 -0.375,0.115 -0.3,0 -0.43,-0.15 -0.13,-0.15 -0.24,-0.43 l -0.905,-2.115 h -1.32 v 2.03 q 0,0.665 -0.56,0.665 -0.55,0 -0.55,-0.665 z m 5.765,0.69 q -0.22,0 -0.36,-0.125 -0.135,-0.125 -0.135,-0.36 0,-0.055 0.01,-0.12 0.01,-0.065 0.03,-0.135 l 1.71,-4.95 q 0.095,-0.285 0.285,-0.45 0.195,-0.17 0.46,-0.17 h 0.255 q 0.27,0 0.46,0.17 0.195,0.165 0.285,0.45 l 1.71,4.95 q 0.025,0.07 0.035,0.135 0.01,0.065 0.01,0.12 0,0.235 -0.14,0.36 -0.14,0.125 -0.365,0.125 -0.275,0 -0.405,-0.145 -0.13,-0.145 -0.215,-0.445 l -0.38,-1.105 h -2.245 l -0.38,1.105 q -0.08,0.3 -0.215,0.445 -0.13,0.145 -0.41,0.145 z m 1.235,-2.515 h 1.79 l -0.845,-2.55 q -0.015,-0.055 -0.03,-0.11 -0.015,-0.06 -0.025,-0.105 -0.005,0.045 -0.02,0.105 -0.01,0.055 -0.025,0.11 z m 4.75,2.465 q -0.5,0 -0.5,-0.655 v -4.94 q 0,-0.325 0.195,-0.495 0.2,-0.17 0.52,-0.17 h 0.025 q 0.285,0 0.485,0.145 0.205,0.145 0.345,0.415 l 2.11,3.995 v -3.9 q 0,-0.655 0.505,-0.655 0.235,0 0.37,0.165 0.135,0.165 0.135,0.49 v 4.94 q 0,0.32 -0.17,0.495 -0.165,0.17 -0.485,0.17 h -0.01 q -0.29,0 -0.48,-0.145 -0.185,-0.145 -0.33,-0.415 l -2.225,-4.135 v 4.04 q 0,0.655 -0.49,0.655 z m 7.23999,-6.235 q 0.315,0 0.705,0.065 0.39,0.065 0.785,0.25 0.395,0.18 0.73,0.525 0.335,0.345 0.535,0.895 0.205,0.55 0.205,1.36 0,0.805 -0.205,1.355 -0.2,0.55 -0.535,0.895 -0.335,0.345 -0.73,0.53 -0.395,0.18 -0.785,0.25 -0.39,0.065 -0.705,0.065 h -1.25 q -0.665,0 -0.665,-0.67 v -4.855 q 0,-0.665 0.665,-0.665 z m -0.015,5.37 q 0.365,0 0.695,-0.125 0.335,-0.125 0.595,-0.395 0.265,-0.27 0.415,-0.705 0.15,-0.435 0.15,-1.05 0,-0.62 -0.15,-1.055 -0.15,-0.435 -0.415,-0.705 -0.26,-0.27 -0.595,-0.39 -0.33,-0.125 -0.695,-0.125 h -0.795 v 4.55 z"
       id="textRandomize--text"
       aria-label="RAND" /><path
       style="font-weight:500;font-size:10px;line-height:1.25;font-family:Sono;-inkscape-font-specification:'Sono Medium';letter-spacing:0px;word-spacing:0px;fill:#bf9b30"
       d="m 92.682007,385.49999 q -0.75,0 -1.31,-0.21 -0.555,-0.21 -0.89,-0.545 -0.315,-0.25 -0.315,-0.585 0,-0.165 0.12,-0.305 0.12,-0.145 0.345,-0.145 0.2,0 0.34,0.095 0.145,0.09 0.27,0.22 0.23,0.27 0.58,0.46 0.35,0.19 0.88,0.19 0.36,0 0.665,-0.11 0.31,-0.11 0.495,-0.315 0.19,-0.205 0.19,-0.49 0,-0.425 -0.395,-0.655 -0.39,-0.235 -1.155,-0.425 -1.13,-0.28 -1.655,-0.74 -0.52,-0.465 -0.52,-1.18 0,-0.505 0.32,-0.865 0.325,-0.365 0.87,-0.555 0.55,-0.195 1.22,-0.195 0.595,0 1.105,0.185 0.515,0.18 0.835,0.51 0.14,0.11 0.22,0.25 0.085,0.135 0.085,0.3 0,0.2 -0.13,0.32 -0.125,0.115 -0.32,0.115 -0.195,0 -0.34,-0.105 -0.145,-0.105 -0.245,-0.215 -0.17,-0.23 -0.49,-0.38 -0.32,-0.155 -0.765,-0.155 -0.335,0 -0.615,0.095 -0.28,0.095 -0.45,0.27 -0.165,0.17 -0.165,0.41 0,0.37 0.36,0.605 0.36,0.23 1.105,0.43 0.71,0.185 1.215,0.43 0.505,0.245 0.775,0.6 0.27,0.355 0.27,0.885 0,0.56 -0.33,0.965 -0.33,0.405 -0.9,0.625 -0.565,0.215 -1.275,0.215 z m 7.785003,-5.89 q 0,0.415 -0.639996,0.415 h -2.455 v 1.85 h 2.01 q 0.325,0 0.46,0.105 0.135,0.105 0.135,0.305 0,0.195 -0.135,0.305 -0.135,0.105 -0.46,0.105 h -2.01 v 1.88 h 2.455 q 0.639996,0 0.639996,0.41 0,0.41 -0.639996,0.41 h -2.9 q -0.665,0 -0.665,-0.67 v -4.855 q 0,-0.665 0.665,-0.665 h 2.9 q 0.639996,0 0.639996,0.405 z m 5.51501,7.235 q -0.36,0 -0.755,-0.195 -0.395,-0.19 -0.695,-0.5 -0.295,-0.305 -0.365,-0.65 -0.49,0 -0.97,-0.17 -0.48,-0.175 -0.875,-0.55 -0.39,-0.375 -0.625,-0.98 -0.235,-0.61 -0.235,-1.48 0,-0.87 0.235,-1.475 0.235,-0.61 0.625,-0.98 0.395,-0.375 0.875,-0.545 0.48,-0.175 0.975,-0.175 0.485,0 0.965,0.175 0.48,0.17 0.87,0.545 0.395,0.37 0.63,0.98 0.235,0.605 0.235,1.475 0,0.9 -0.255,1.52 -0.255,0.615 -0.67,0.98 -0.415,0.365 -0.9,0.515 0.075,0.19 0.24,0.33 0.165,0.14 0.365,0.225 0.205,0.09 0.38,0.13 0.205,0.045 0.31,0.145 0.11,0.1 0.11,0.29 0,0.19 -0.135,0.29 -0.135,0.1 -0.335,0.1 z m -3.39,-4.525 q 0,0.795 0.215,1.32 0.215,0.52 0.575,0.78 0.36,0.255 0.79,0.255 0.425,0 0.78,-0.255 0.355,-0.26 0.57,-0.78 0.215,-0.525 0.215,-1.32 0,-0.79 -0.215,-1.31 -0.215,-0.525 -0.57,-0.78 -0.355,-0.26 -0.78,-0.26 -0.43,0 -0.79,0.26 -0.36,0.255 -0.575,0.78 -0.215,0.52 -0.215,1.31 z m 9.63,2.255 h 2.17 q 0.285,0 0.45,0.11 0.165,0.105 0.165,0.3 0,0.195 -0.165,0.305 -0.165,0.105 -0.45,0.105 h -2.615 q -0.665,0 -0.665,-0.67 v -4.9 q 0,-0.67 0.555,-0.67 0.555,0 0.555,0.67 z m 7.86,-4.965 q 0,0.415 -0.64,0.415 h -2.455 v 1.85 h 2.01 q 0.325,0 0.46,0.105 0.135,0.105 0.135,0.305 0,0.195 -0.135,0.305 -0.135,0.105 -0.46,0.105 h -2.01 v 1.88 h 2.455 q 0.64,0 0.64,0.41 0,0.41 -0.64,0.41 h -2.9 q -0.665,0 -0.665,-0.67 v -4.855 q 0,-0.665 0.665,-0.665 h 2.9 q 0.64,0 0.64,0.405 z m 1.56,5.83 q -0.5,0 -0.5,-0.655 v -4.94 q 0,-0.325 0.195,-0.495 0.2,-0.17 0.52,-0.17 h 0.025 q 0.285,0 0.485,0.145 0.205,0.145 0.345,0.415 l 2.11,3.995 v -3.9 q 0,-0.655 0.505,-0.655 0.235,0 0.37,0.165 0.135,0.165 0.135,0.49 v 4.94 q 0,0.32 -0.17,0.495 -0.165,0.17 -0.485,0.17 h -0.01 q -0.29,0 -0.48,-0.145 -0.185,-0.145 -0.33,-0.415 l -2.225,-4.135 v 4.04 q 0,0.655 -0.49,0.655 z"
       id="textLength--text"
       aria-label="SEQ LEN" /><path
       style="font-weight:500;font-size:10px;line-height:1.25;font-family:Sono;-inkscape-font-specification:'Sono Medium';letter-spacing:0px;word-spacing:0px;fill:#bf9b30"
       d="m 49.079999,380.02499 v 1.925 h 1.255 q 0.515,0 0.8,-0.255 0.29,-0.255 0.29,-0.735 0,-0.48 -0.3,-0.705 -0.295,-0.23 -0.825,-0.23 z m -1.11,4.775 v -4.93 q 0,-0.665 0.665,-0.665 h 1.845 q 0.345,0 0.705,0.07 0.36,0.065 0.665,0.25 0.31,0.185 0.5,0.52 0.19,0.33 0.19,0.865 0,0.67 -0.32,1.065 -0.32,0.39 -0.775,0.545 l 0.96,2.175 q 0.04,0.09 0.06,0.175 0.02,0.08 0.02,0.155 0,0.205 -0.135,0.325 -0.13,0.115 -0.375,0.115 -0.3,0 -0.43,-0.15 -0.13,-0.15 -0.24,-0.43 l -0.905,-2.115 h -1.32 v 2.03 q 0,0.665 -0.56,0.665 -0.55,0 -0.55,-0.665 z m 8.075,0.7 q -0.75,0 -1.31,-0.21 -0.555,-0.21 -0.89,-0.545 -0.315,-0.25 -0.315,-0.585 0,-0.165 0.12,-0.305 0.12,-0.145 0.345,-0.145 0.2,0 0.34,0.095 0.145,0.09 0.27,0.22 0.23,0.27 0.58,0.46 0.35,0.19 0.88,0.19 0.36,0 0.665,-0.11 0.31,-0.11 0.495,-0.315 0.19,-0.205 0.19,-0.49 0,-0.425 -0.395,-0.655 -0.39,-0.235 -1.155,-0.425 -1.13,-0.28 -1.655,-0.74 -0.52,-0.465 -0.52,-1.18 0,-0.505 0.32,-0.865 0.325,-0.365 0.87,-0.555 0.55,-0.195 1.22,-0.195 0.595,0 1.105,0.185 0.515,0.18 0.835,0.51 0.14,0.11 0.22,0.25 0.085,0.135 0.085,0.3 0,0.2 -0.13,0.32 -0.125,0.115 -0.32,0.115 -0.195,0 -0.34,-0.105 -0.145,-0.105 -0.245,-0.215 -0.17,-0.23 -0.49,-0.38 -0.32,-0.155 -0.765,-0.155 -0.335,0 -0.615,0.095 -0.28,0.095 -0.45,0.27 -0.165,0.17 -0.165,0.41 0,0.37 0.36,0.605 0.36,0.23 1.105,0.43 0.71,0.185 1.215,0.43 0.505,0.245 0.775,0.6 0.27,0.355 0.27,0.885 0,0.56 -0.33,0.965 -0.33,0.405 -0.9,0.625 -0.565,0.215 -1.275,0.215 z m 7.565006,-6.295 q 0.62,0 0.62,0.405 0,0.2 -0.17,0.31 -0.165,0.105 -0.42,0.105 h -1.35 v 4.775 q 0,0.665 -0.555,0.665 -0.555,0 -0.555,-0.665 v -4.775 h -1.29 q -0.305,0 -0.475,-0.105 -0.165,-0.11 -0.165,-0.31 0,-0.195 0.165,-0.3 0.17,-0.105 0.475,-0.105 z"
       id="textResetButton--text"
       aria-label="RST" /><path
       style="font-weight:500;font-size:10px;line-height:1.25;font-family:Sono;-inkscape-font-specification:'Sono Medium';letter-spacing:0px;word-spacing:0px;fill:#bf9b30"
       d="m 11.819998,385.49999 q -0.75,0 -1.31,-0.21 -0.5549996,-0.21 -0.8899996,-0.545 -0.315,-0.25 -0.315,-0.585 0,-0.165 0.12,-0.305 0.12,-0.145 0.345,-0.145 0.2,0 0.3399996,0.095 0.145,0.09 0.27,0.22 0.23,0.27 0.58,0.46 0.35,0.19 0.88,0.19 0.36,0 0.665,-0.11 0.31,-0.11 0.495,-0.315 0.19,-0.205 0.19,-0.49 0,-0.425 -0.395,-0.655 -0.39,-0.235 -1.155,-0.425 -1.13,-0.28 -1.6549996,-0.74 -0.52,-0.465 -0.52,-1.18 0,-0.505 0.32,-0.865 0.3249996,-0.365 0.8699996,-0.555 0.55,-0.195 1.22,-0.195 0.595,0 1.105,0.185 0.515,0.18 0.835,0.51 0.14,0.11 0.22,0.25 0.085,0.135 0.085,0.3 0,0.2 -0.13,0.32 -0.125,0.115 -0.32,0.115 -0.195,0 -0.34,-0.105 -0.145,-0.105 -0.245,-0.215 -0.17,-0.23 -0.49,-0.38 -0.32,-0.155 -0.765,-0.155 -0.335,0 -0.615,0.095 -0.28,0.095 -0.45,0.27 -0.165,0.17 -0.165,0.41 0,0.37 0.36,0.605 0.36,0.23 1.105,0.43 0.71,0.185 1.215,0.43 0.505,0.245 0.775,0.6 0.27,0.355 0.27,0.885 0,0.56 -0.33,0.965 -0.33,0.405 -0.9,0.625 -0.565,0.215 -1.275,0.215 z m 7.565007,-6.295 q 0.62,0 0.62,0.405 0,0.2 -0.17,0.31 -0.165,0.105 -0.42,0.105 h -1.35 v 4.775 q 0,0.665 -0.555,0.665 -0.555,0 -0.555,-0.665 v -4.775 h -1.29 q -0.305,0 -0.475,-0.105 -0.165,-0.11 -0.165,-0.31 0,-0.195 0.165,-0.3 0.17,-0.105 0.475,-0.105 z m 5.714995,0.405 q 0,0.415 -0.64,0.415 h -2.455 v 1.85 h 2.01 q 0.325,0 0.46,0.105 0.135,0.105 0.135,0.305 0,0.195 -0.135,0.305 -0.135,0.105 -0.46,0.105 h -2.01 v 1.88 h 2.455 q 0.64,0 0.64,0.41 0,0.41 -0.64,0.41 h -2.9 q -0.665,0 -0.665,-0.67 v -4.855 q 0,-0.665 0.665,-0.665 h 2.9 q 0.64,0 0.64,0.405 z m 2.275004,0.415 v 2.305 h 0.92 q 0.2,0 0.42,-0.035 0.225,-0.04 0.42,-0.155 0.195,-0.12 0.32,-0.355 0.125,-0.235 0.125,-0.635 0,-0.395 -0.125,-0.62 -0.125,-0.23 -0.32,-0.335 -0.195,-0.11 -0.42,-0.14 -0.22,-0.03 -0.42,-0.03 z m 1.085,3.125 h -1.085 v 1.575 q 0,0.67 -0.55,0.67 -0.555,0 -0.555,-0.67 v -4.855 q 0,-0.665 0.665,-0.665 h 1.525 q 0.225,0 0.515,0.035 0.295,0.03 0.595,0.135 0.3,0.105 0.555,0.32 0.255,0.21 0.41,0.565 0.16,0.35 0.16,0.89 0,0.535 -0.16,0.9 -0.155,0.36 -0.41,0.58 -0.255,0.22 -0.555,0.335 -0.3,0.11 -0.595,0.15 -0.29,0.035 -0.515,0.035 z"
       id="textStep--text"
       aria-label="STEP" /><path
       id="silkRandomDensityCVLine--silkscreen"
       style="display:inline;fill:#bf9b30;stroke-width:0"
       d="m 177.59953,446.49997 h 27 v 2 h -27 z" /><path
       id="silkLengthCVLine--silkscreen"
       style="display:inline;fill:#bf9b30;stroke-width:0"
       d="m 120.19952,446.49997 h 27 v 2 h -27 z" /><path
       id="silkLengthLine--silkscreen"
       style="display:inline;fill:#bf9b30;stroke-width:0"
       d="M 93.699997,402.49997 H 123.7 v 2 H 93.699997 Z" /><path
       style="font-weight:500;font-size:16px;line-height:1.25;font-family:Sono;-inkscape-font-specification:'Sono Medium';letter-spacing:0px;word-spacing:0px;baseline-shift:baseline;fill:#bf9b30;stroke-width:0.781836"
       d="m 176.35493,190.92821 q -0.352,0 -0.576,-0.2 -0.216,-0.2 -0.216,-0.576 0,-0.088 0.016,-0.192 0.016,-0.104 0.048,-0.216 l 2.736,-7.92 q 0.152,-0.456 0.456,-0.72 0.312,-0.272 0.736,-0.272 h 0.408 q 0.432,0 0.736,0.272 0.312,0.264 0.456,0.72 l 2.736,7.92 q 0.04,0.112 0.056,0.216 0.016,0.104 0.016,0.192 0,0.376 -0.224,0.576 -0.224,0.2 -0.584,0.2 -0.44,0 -0.648,-0.232 -0.208,-0.232 -0.344,-0.712 l -0.608,-1.768 h -3.592 l -0.608,1.768 q -0.128,0.48 -0.344,0.712 -0.208,0.232 -0.656,0.232 z m 1.976,-4.024 h 2.864 l -1.352,-4.08 q -0.024,-0.088 -0.048,-0.176 -0.024,-0.096 -0.04,-0.168 -0.008,0.072 -0.032,0.168 -0.016,0.088 -0.04,0.176 z m 10.91999,4.04 q -1.088,0 -1.984,-0.44 -0.896,-0.448 -1.432,-1.408 -0.528,-0.96 -0.528,-2.52 v -4.64 q 0,-1.064 0.888,-1.064 0.888,0 0.888,1.064 v 4.544 q 0,1.52 0.576,2.336 0.576,0.808 1.592,0.808 1.024,0 1.592,-0.808 0.568,-0.816 0.568,-2.336 v -4.544 q 0,-1.064 0.888,-1.064 0.888,0 0.888,1.064 v 4.64 q 0,1.56 -0.528,2.52 -0.528,0.96 -1.416,1.408 -0.888,0.44 -1.992,0.44 z m 12.336,-10.072 q 0.992,0 0.992,0.648 0,0.32 -0.272,0.496 -0.264,0.168 -0.672,0.168 h -2.16 v 7.64 q 0,1.064 -0.888,1.064 -0.888,0 -0.888,-1.064 v -7.64 h -2.064 q -0.488,0 -0.76,-0.168 -0.264,-0.176 -0.264,-0.496 0,-0.312 0.264,-0.48 0.272,-0.168 0.76,-0.168 z m 6.47199,10.072 q -0.792,0 -1.56,-0.272 -0.768,-0.28 -1.4,-0.88 -0.624,-0.6 -1,-1.568 -0.376,-0.976 -0.376,-2.368 0,-1.392 0.376,-2.36 0.376,-0.976 1,-1.568 0.632,-0.6 1.4,-0.872 0.768,-0.28 1.56,-0.28 0.776,0 1.544,0.28 0.768,0.272 1.392,0.872 0.632,0.592 1.008,1.568 0.376,0.968 0.376,2.36 0,1.392 -0.376,2.368 -0.376,0.968 -1.008,1.568 -0.624,0.6 -1.392,0.88 -0.768,0.272 -1.544,0.272 z m 0,-1.32 q 0.68,0 1.248,-0.408 0.568,-0.416 0.912,-1.248 0.344,-0.84 0.344,-2.112 0,-1.264 -0.344,-2.096 -0.344,-0.84 -0.912,-1.248 -0.568,-0.416 -1.248,-0.416 -0.688,0 -1.264,0.416 -0.576,0.408 -0.92,1.248 -0.344,0.832 -0.344,2.096 0,1.272 0.344,2.112 0.344,0.832 0.92,1.248 0.576,0.408 1.264,0.408 z m 6.79999,1.232 q -0.392,0 -0.632,-0.232 -0.24,-0.24 -0.24,-0.68 0,-0.144 0,-0.6 0,-0.464 0,-1.128 0,-0.664 0,-1.424 0,-0.768 0,-1.536 0,-0.768 0,-1.44 0,-0.672 0,-1.144 0,-0.48 0,-0.648 0,-0.424 0.16,-0.712 0.16,-0.296 0.432,-0.44 0.28,-0.152 0.608,-0.152 h 0.056 q 0.488,0 0.824,0.312 0.344,0.312 0.544,0.784 l 1.92,4.416 1.928,-4.416 q 0.208,-0.472 0.544,-0.784 0.344,-0.312 0.832,-0.312 h 0.048 q 0.328,0 0.6,0.152 0.272,0.152 0.432,0.44 0.16,0.288 0.16,0.712 0,0.168 0,0.648 0,0.472 0,1.144 0,0.672 0,1.44 0,0.768 0,1.536 0,0.76 0,1.424 0,0.664 0,1.128 0,0.456 0,0.6 0,0.44 -0.216,0.68 -0.216,0.232 -0.608,0.232 -0.896,0 -0.896,-1.032 v -5.736 l -1.856,4.224 q -0.2,0.464 -0.384,0.704 -0.176,0.24 -0.584,0.24 -0.408,0 -0.584,-0.24 -0.176,-0.24 -0.384,-0.704 l -1.872,-4.28 v 5.792 q 0,0.512 -0.2,0.776 -0.2,0.256 -0.632,0.256 z m 10.224,0.072 q -0.352,0 -0.576,-0.2 -0.216,-0.2 -0.216,-0.576 0,-0.088 0.016,-0.192 0.016,-0.104 0.048,-0.216 l 2.736,-7.92 q 0.152,-0.456 0.456,-0.72 0.312,-0.272 0.736,-0.272 h 0.408 q 0.432,0 0.736,0.272 0.312,0.264 0.456,0.72 l 2.736,7.92 q 0.04,0.112 0.056,0.216 0.016,0.104 0.016,0.192 0,0.376 -0.224,0.576 -0.224,0.2 -0.584,0.2 -0.44,0 -0.648,-0.232 -0.208,-0.232 -0.344,-0.712 l -0.608,-1.768 h -3.592 l -0.608,1.768 q -0.128,0.48 -0.344,0.712 -0.208,0.232 -0.656,0.232 z m 1.976,-4.024 h 2.864 l -1.352,-4.08 q -0.024,-0.088 -0.048,-0.176 -0.024,-0.096 -0.04,-0.168 -0.008,0.072 -0.032,0.168 -0.016,0.088 -0.04,0.176 z m 12.672,-6.032 q 0.992,0 0.992,0.648 0,0.32 -0.272,0.496 -0.264,0.168 -0.672,0.168 h -2.16 v 7.64 q 0,1.064 -0.888,1.064 -0.888,0 -0.888,-1.064 v -7.64 h -2.064 q -0.488,0 -0.76,-0.168 -0.264,-0.176 -0.264,-0.496 0,-0.312 0.264,-0.48 0.272,-0.168 0.76,-0.168 z m 1.848,10.056 q -0.352,0 -0.576,-0.2 -0.216,-0.2 -0.216,-0.576 0,-0.088 0.016,-0.192 0.016,-0.104 0.048,-0.216 l 2.736,-7.92 q 0.152,-0.456 0.456,-0.72 0.312,-0.272 0.736,-0.272 h 0.408 q 0.432,0 0.736,0.272 0.312,0.264 0.456,0.72 l 2.736,7.92 q 0.04,0.112 0.056,0.216 0.016,0.104 0.016,0.192 0,0.376 -0.224,0.576 -0.224,0.2 -0.584,0.2 -0.44,0 -0.648,-0.232 -0.208,-0.232 -0.344,-0.712 l -0.608,-1.768 h -3.592 l -0.608,1.768 q -0.128,0.48 -0.344,0.712 -0.208,0.232 -0.656,0.232 z m 1.976,-4.024 h 2.864 l -1.352,-4.08 q -0.024,-0.088 -0.048,-0.176 -0.024,-0.096 -0.04,-0.168 -0.008,0.072 -0.032,0.168 -0.016,0.088 -0.04,0.176 z"
       id="moduleName--moduleName"
       transform="scale(0.99924857,1.000752)"
       aria-label="AUTOMATA" /></g><g
     inkscape:groupmode="layer"
     id="layer2"
     inkscape:label="Widgets"><path
       id="widgetLogo--hidden"
       style="fill:#ffff00;stroke-width:10.8096;paint-order:stroke fill markers"
       d="m 115,349.99994 h 25 v 25 h -25 z" /><path
       id="widget_Board--hidden"
       style="display:inline;fill:#ffff00;stroke-width:4.35296;paint-order:stroke fill markers"
       d="m 27.5,35 h 200 v 170 h -200 z" /><path
       id="output_EOC--hidden"
       style="fill:#0000ff;stroke-width:0.57378;paint-order:stroke fill markers"
       d="m 247,325 a 12,12 0 0 1 -11.80837,11.99847 12,12 0 0 1 -12.18551,-11.61525 12,12 0 0 1 11.41918,-12.36945 12,12 0 0 1 12.55022,11.22019" /><path
       id="output_Trigger8--hidden"
       style="display:inline;fill:#0000ff;stroke-width:0.57378;paint-order:stroke fill markers"
       d="m 220.125,325 a 12,12 0 0 1 -11.80837,11.99847 12,12 0 0 1 -12.18551,-11.61525 12,12 0 0 1 11.41918,-12.36945 12,12 0 0 1 12.55022,11.22019" /><path
       id="output_Trigger7--hidden"
       style="display:inline;fill:#0000ff;stroke-width:0.57378;paint-order:stroke fill markers"
       d="m 193.25,325 a 12,12 0 0 1 -11.80837,11.99847 12,12 0 0 1 -12.18551,-11.61525 12,12 0 0 1 11.41918,-12.36945 12,12 0 0 1 12.55022,11.22019" /><path
       id="output_Trigger6--hidden"
       style="display:inline;fill:#0000ff;stroke-width:0.57378;paint-order:stroke fill markers"
       d="m 166.375,325 a 12,12 0 0 1 -11.80837,11.99847 12,12 0 0 1 -12.18551,-11.61525 12,12 0 0 1 11.41918,-12.36945 12,12 0 0 1 12.55022,11.22019" /><path
       id="output_Trigger5--hidden"
       style="display:inline;fill:#0000ff;stroke-width:0.57378;paint-order:stroke fill markers"
       d="m 139.5,325 a 12,12 0 0 1 -11.80837,11.99847 12,12 0 0 1 -12.18551,-11.61525 12,12 0 0 1 11.41918,-12.36945 12,12 0 0 1 12.55022,11.22019" /><path
       id="output_Trigger4--hidden"
       style="display:inline;fill:#0000ff;stroke-width:0.57378;paint-order:stroke fill markers"
       d="m 112.625,325 a 12,12 0 0 1 -11.80837,11.99847 12,12 0 0 1 -12.185509,-11.61525 12,12 0 0 1 11.419179,-12.36945 12,12 0 0 1 12.55022,11.22019" /><path
       id="output_Trigger3--hidden"
       style="fill:#0000ff;stroke-width:0.57378;paint-order:stroke fill markers"
       d="M 85.75,325 A 12,12 0 0 1 73.941633,336.99847 12,12 0 0 1 61.756121,325.38322 12,12 0 0 1 73.175297,313.01377 12,12 0 0 1 85.725524,324.23396" /><path
       id="output_Trigger2--hidden"
       style="fill:#0000ff;stroke-width:0.57378;paint-order:stroke fill markers"
       d="M 58.875,325 A 12,12 0 0 1 47.066633,336.99847 12,12 0 0 1 34.881121,325.38322 12,12 0 0 1 46.300297,313.01377 12,12 0 0 1 58.850524,324.23396" /><path
       id="output_Trigger1--hidden"
       style="fill:#0000ff;stroke-width:0.57378;paint-order:stroke fill markers"
       d="M 32,325 A 12,12 0 0 1 20.191633,336.99847 12,12 0 0 1 8.0061205,325.38322 12,12 0 0 1 19.425297,313.01377 12,12 0 0 1 31.975524,324.23396" /><path
       id="param_ModeSelect--hidden"
       style="fill:#ff0000;stroke-width:0.57378;paint-order:stroke fill markers"
       d="m 247,235 a 12,12 0 0 1 -11.80837,11.99847 12,12 0 0 1 -12.18551,-11.61525 12,12 0 0 1 11.41918,-12.36945 12,12 0 0 1 12.55022,11.22019" /><path
       id="input_LengthCV--hidden"
       style="fill:#00ff00;stroke-width:0.57378;paint-order:stroke fill markers"
       d="m 132.2,279 a 12,12 0 0 1 -11.80837,11.99847 12,12 0 0 1 -12.18551,-11.61525 12,12 0 0 1 11.41917,-12.36945 12,12 0 0 1 12.55023,11.22019" /><path
       id="param_LengthCVAtten--hidden"
       style="fill:#ff0000;stroke-width:0.430335;paint-order:stroke fill markers"
       d="m 156.19998,279 a 9,9 0 0 1 -8.85627,8.99885 9,9 0 0 1 -9.13914,-8.71144 9,9 0 0 1 8.56438,-9.27708 9,9 0 0 1 9.41267,8.41514" /><path
       id="param_Length--hidden"
       style="fill:#ff0000;stroke-width:0.57378;paint-order:stroke fill markers"
       d="M 105.7,235 A 12,12 0 0 1 93.89163,246.99847 12,12 0 0 1 81.706117,235.38322 12,12 0 0 1 93.125294,223.01377 12,12 0 0 1 105.67552,234.23396" /><path
       id="input_LengthEnable--hidden"
       style="fill:#00ff00;stroke-width:0.57378;paint-order:stroke fill markers"
       d="M 98.800003,279 A 12,12 0 0 1 86.991636,290.99847 12,12 0 0 1 74.806124,279.38322 12,12 0 0 1 86.2253,267.01377 12,12 0 0 1 98.775527,278.23396" /><path
       id="param_LengthButton--hidden"
       style="fill:#ff0000;stroke-width:0.502057;paint-order:stroke fill markers"
       d="m 132.7,235 a 10.5,10.5 0 0 1 -10.33232,10.49866 10.5,10.5 0 0 1 -10.66233,-10.16335 10.5,10.5 0 0 1 9.99178,-10.82326 10.5,10.5 0 0 1 10.98145,9.81766" /><path
       id="input_Randomize--hidden"
       style="fill:#00ff00;stroke-width:0.57378;paint-order:stroke fill markers"
       d="m 247,279 a 12,12 0 0 1 -11.80837,11.99847 12,12 0 0 1 -12.18551,-11.61525 12,12 0 0 1 11.41918,-12.36945 12,12 0 0 1 12.55022,11.22019" /><path
       id="param_RandomButton--hidden"
       style="fill:#ff0000;stroke-width:0.502057;paint-order:stroke fill markers"
       d="m 168.8,235 a 10.5,10.5 0 0 1 -10.33232,10.49866 10.5,10.5 0 0 1 -10.66232,-10.16335 10.5,10.5 0 0 1 9.99178,-10.82326 10.5,10.5 0 0 1 10.98145,9.81766" /><path
       id="param_RandomDensityCVAtten--hidden"
       style="fill:#ff0000;stroke-width:0.430335;paint-order:stroke fill markers"
       d="m 213.60001,279 a 9,9 0 0 1 -8.85628,8.99885 9,9 0 0 1 -9.13913,-8.71144 9,9 0 0 1 8.56438,-9.27708 9,9 0 0 1 9.41267,8.41514" /><path
       id="input_RandomDensity--hidden"
       style="fill:#00ff00;stroke-width:0.57378;paint-order:stroke fill markers"
       d="m 189.60001,279 a 12,12 0 0 1 -11.80837,11.99847 12,12 0 0 1 -12.18551,-11.61525 12,12 0 0 1 11.41917,-12.36945 12,12 0 0 1 12.55023,11.22019" /><path
       id="param_RandomDensity--hidden"
       style="fill:#ff0000;stroke-width:0.57378;paint-order:stroke fill markers"
       d="m 207.89999,235 a 12,12 0 0 1 -11.80836,11.99847 12,12 0 0 1 -12.18552,-11.61525 12,12 0 0 1 11.41918,-12.36945 12,12 0 0 1 12.55023,11.22019" /><path
       id="input_Reset--hidden"
       style="fill:#00ff00;stroke-width:0.57378;paint-order:stroke fill markers"
       d="M 65.400002,279 A 12,12 0 0 1 53.591634,290.99847 12,12 0 0 1 41.406122,279.38322 12,12 0 0 1 52.825299,267.01377 12,12 0 0 1 65.375526,278.23396" /><path
       id="param_ResetButton--hidden"
       style="fill:#ff0000;stroke-width:0.502057;paint-order:stroke fill markers"
       d="m 66.599998,235 a 10.5,10.5 0 0 1 -10.332321,10.49866 10.5,10.5 0 0 1 -10.662323,-10.16335 10.5,10.5 0 0 1 9.991779,-10.82326 10.5,10.5 0 0 1 10.981449,9.81766" /><path
       id="input_Clock--hidden"
       style="fill:#00ff00;stroke-width:0.57378;paint-order:stroke fill markers"
       d="M 32,279 A 12,12 0 0 1 20.191633,290.99847 12,12 0 0 1 8.0061205,279.38322 12,12 0 0 1 19.425297,267.01377 12,12 0 0 1 31.975524,278.23396" /><path
       id="param_StepButton--hidden"
       style="fill:#ff0000;stroke-width:0.502057;paint-order:stroke fill markers"
       d="M 30.5,235 A 10.5,10.5 0 0 1 20.167679,245.49866 10.5,10.5 0 0 1 9.5053555,235.33531 10.5,10.5 0 0 1 19.497135,224.51205 10.5,10.5 0 0 1 30.478584,234.32971" /></g></svg>
