<?xml version="1.0" encoding="UTF-8" standalone="no"?>
<!-- Created with Inkscape (http://www.inkscape.org/) -->

<svg
   width="210"
   height="379.99997"
   viewBox="0 0 210 379.99997"
   version="1.1"
   id="svg8"
   inkscape:version="1.4.2 (ebf0e94, 2025-05-08)"
   sodipodi:docname="Bernoulli.svg"
   xml:space="preserve"
   xmlns:inkscape="http://www.inkscape.org/namespaces/inkscape"
   xmlns:sodipodi="http://sodipodi.sourceforge.net/DTD/sodipodi-0.dtd"
   xmlns="http://www.w3.org/2000/svg"
   xmlns:svg="http://www.w3.org/2000/svg"
   xmlns:rdf="http://www.w3.org/1999/02/22-rdf-syntax-ns#"
   xmlns:cc="http://creativecommons.org/ns#"
   xmlns:dc="http://purl.org/dc/elements/1.1/"><defs
     id="defs2"><rect
       x="90"
       y="400"
       width="49.999996"
       height="50"
       id="rect1" /><linearGradient
       id="uuid-f0636bc7-c65b-4b70-b857-f875576c11d6"
       x1="37.5"
       y1="0"
       x2="37.5"
       y2="380"
       gradientUnits="userSpaceOnUse"><stop
         offset="0"
         stop-color="#ebebeb"
         id="stop2" /><stop
         offset="1"
         stop-color="#e1e1e1"
         id="stop4" /></linearGradient><rect
       x="90"
       y="400"
       width="49.999996"
       height="50"
       id="rect1-3" /><rect
       x="90"
       y="400"
       width="49.999996"
       height="50"
       id="rect1-3-6" /><rect
       x="90"
       y="400"
       width="64.788734"
       height="55.488926"
       id="rect1-3-6-5" /><rect
       x="90"
       y="400"
       width="64.788734"
       height="55.488926"
       id="rect5" /><rect
       x="90"
       y="400"
       width="64.788734"
       height="55.488926"
       id="rect6" /><rect
       x="90"
       y="400"
       width="64.788734"
       height="55.488926"
       id="rect6-0" /></defs><sodipodi:namedview
     id="base"
     pagecolor="#ffffff"
     bordercolor="#666666"
     borderopacity="1.0"
     inkscape:pageopacity="0.0"
     inkscape:pageshadow="2"
     inkscape:zoom="4.0000002"
     inkscape:cx="105.62499"
     inkscape:cy="310.24998"
     inkscape:document-units="px"
     inkscape:current-layer="layer1"
     showgrid="true"
     units="mm"
     inkscape:snap-bbox="true"
     inkscape:snap-page="true"
     inkscape:bbox-nodes="false"
     inkscape:snap-bbox-edge-midpoints="false"
     inkscape:window-width="1920"
     inkscape:window-height="1027"
     inkscape:window-x="-8"
     inkscape:window-y="22"
     inkscape:window-maximized="1"
     inkscape:snap-bbox-midpoints="true"
     inkscape:snap-nodes="false"
     inkscape:showpageshadow="2"
     inkscape:pagecheckerboard="0"
     inkscape:deskcolor="#d1d1d1"
     showguides="false"><inkscape:grid
       id="grid1"
       units="px"
       originx="2.7755576e-17"
       originy="0"
       spacingx="1"
       spacingy="1"
       empcolor="#3f3fff"
       empopacity="0.25098039"
       color="#3f3fff"
       opacity="0.1254902"
       empspacing="5"
       dotted="false"
       gridanglex="30"
       gridanglez="30"
       visible="true" /></sodipodi:namedview><metadata
     id="metadata5"><rdf:RDF><cc:Work
         rdf:about=""><dc:format>image/svg+xml</dc:format><dc:type
           rdf:resource="http://purl.org/dc/dcmitype/StillImage" /></cc:Work></rdf:RDF></metadata><g
     inkscape:label="Layer 1"
     inkscape:groupmode="layer"
     id="layer1"
     transform="translate(0,-168.49998)"
     style="display:inline"><path
       id="bg--background-fill"
       style="display:inline;opacity:1;vector-effect:none;fill:#1f1f1f;fill-rule:evenodd;stroke-width:2.93107"
       d="M 0,168.49998 H 210 V 548.49995 H 0 Z" /><path
       id="footer--hidden"
       style="display:inline;fill:#707070;stroke-width:2.83067;paint-order:stroke fill markers"
       d="m 0,513.49994 h 210 v 35 H 0 Z" /><path
       id="header--hidden"
       style="display:inline;fill:#707070;stroke-width:2.83067;paint-order:stroke fill markers"
       d="m 0,168.49998 h 210 v 35 H 0 Z" /><path
       id="outBlock--output-fill"
       style="display:inline;fill:#bf9b30;stroke-width:4.13475;paint-order:stroke fill markers"
       transform="translate(0)"
       d="m 152.21026,203.49998 h 50.57948 c 1.77849,0 3.21026,1.422 3.21026,3.18833 v 292.62335 c 0,1.76633 -1.43177,3.18832 -3.21026,3.18832 h -50.57948 c -1.77849,0 -3.21026,-1.42199 -3.21026,-3.18832 V 206.68831 c 0,-1.76633 1.43177,-3.18833 3.21026,-3.18833 z" /><path
       style="font-weight:500;font-size:8px;line-height:1.25;font-family:Sono;-inkscape-font-specification:'Sono Medium';letter-spacing:0px;word-spacing:0px;writing-mode:tb-rl;fill:#1f1f1f"
       d="m 18.644001,476.72002 q 0,-0.396 0.136,-0.78 0.14,-0.384 0.44,-0.7 0.3,-0.312 0.784,-0.5 0.488,-0.188 1.184,-0.188 0.696,0 1.18,0.188 0.488,0.188 0.784,0.5 0.3,0.316 0.436,0.7 0.14,0.384 0.14,0.78 0,0.388 -0.14,0.772 -0.136,0.384 -0.436,0.696 -0.296,0.316 -0.784,0.504 -0.484,0.188 -1.18,0.188 -0.696,0 -1.184,-0.188 -0.484,-0.188 -0.784,-0.504 -0.3,-0.312 -0.44,-0.696 -0.136,-0.384 -0.136,-0.772 z m 0.66,0 q 0,0.34 0.204,0.624 0.208,0.284 0.624,0.456 0.42,0.172 1.056,0.172 0.632,0 1.048,-0.172 0.42,-0.172 0.624,-0.456 0.208,-0.284 0.208,-0.624 0,-0.344 -0.208,-0.632 -0.204,-0.288 -0.624,-0.46 -0.416,-0.172 -1.048,-0.172 -0.636,0 -1.056,0.172 -0.416,0.172 -0.624,0.46 -0.204,0.288 -0.204,0.632 z m -0.66,5.004 q 0,-0.544 0.22,-0.992 0.224,-0.448 0.704,-0.716 0.48,-0.264 1.26,-0.264 h 2.32 q 0.532,0 0.532,0.444 0,0.444 -0.532,0.444 h -2.272 q -0.76,0 -1.168,0.288 -0.404,0.288 -0.404,0.796 0,0.512 0.404,0.796 0.408,0.284 1.168,0.284 h 2.272 q 0.532,0 0.532,0.444 0,0.444 -0.532,0.444 h -2.32 q -0.78,0 -1.26,-0.264 -0.48,-0.264 -0.704,-0.708 -0.22,-0.444 -0.22,-0.996 z m 5.036,6.16799 q 0,0.496 -0.324,0.496 -0.16,0 -0.248,-0.136 -0.084,-0.132 -0.084,-0.336 v -1.08 h -3.82 q -0.532,0 -0.532,-0.444 0,-0.444 0.532,-0.444 h 3.82 v -1.032 q 0,-0.244 0.084,-0.38 0.088,-0.132 0.248,-0.132 0.156,0 0.24,0.132 0.084,0.136 0.084,0.38 z m -2.352,6.39201 q 0,0.072 -0.048,0.248 -0.048,0.18 -0.18,0.376 -0.128,0.2 -0.368,0.34 -0.236,0.14 -0.616,0.14 -0.464,0 -0.772,-0.212 -0.308,-0.208 -0.464,-0.6 -0.152,-0.388 -0.152,-0.94 v -1.424 q 0,-0.532 0.536,-0.532 h 3.884 q 0.532,0 0.532,0.532 v 1.216 q 0,0.472 -0.1,0.88 -0.096,0.408 -0.356,0.656 -0.26,0.252 -0.756,0.252 -0.352,0 -0.576,-0.12 -0.224,-0.116 -0.348,-0.28 -0.12,-0.164 -0.168,-0.316 -0.048,-0.152 -0.048,-0.216 z m 1.696,-1.716 h -1.452 v 0.884 q 0,0.256 0.084,0.456 0.084,0.204 0.252,0.316 0.168,0.116 0.42,0.116 0.292,0 0.44,-0.136 0.148,-0.132 0.2,-0.36 0.056,-0.224 0.056,-0.5 z m -3.64,0.808 q 0,0.548 0.196,0.828 0.196,0.28 0.616,0.28 0.428,0 0.604,-0.292 0.176,-0.292 0.176,-0.704 v -0.92 h -1.592 z"
       id="textOutB--text-output"
       transform="translate(170.814,0.94796474)"
       aria-label="OUT B" /><path
       style="font-weight:500;font-size:8px;line-height:1.25;font-family:Sono;-inkscape-font-specification:'Sono Medium';letter-spacing:0px;word-spacing:0px;writing-mode:tb-rl;fill:#1f1f1f"
       d="m 25.458,475.77599 q 0,-0.396 0.136,-0.78 0.14,-0.384 0.44,-0.7 0.3,-0.312 0.784,-0.5 0.488,-0.188 1.184,-0.188 0.696,0 1.18,0.188 0.488,0.188 0.784,0.5 0.3,0.316 0.436,0.7 0.14,0.384 0.14,0.78 0,0.388 -0.14,0.772 -0.136,0.384 -0.436,0.696 -0.296,0.316 -0.784,0.504 -0.484,0.188 -1.18,0.188 -0.696,0 -1.184,-0.188 -0.484,-0.188 -0.784,-0.504 -0.3,-0.312 -0.44,-0.696 -0.136,-0.384 -0.136,-0.772 z m 0.66,0 q 0,0.34 0.204,0.624 0.208,0.284 0.624,0.456 0.42,0.172 1.056,0.172 0.632,0 1.048,-0.172 0.42,-0.172 0.624,-0.456 0.208,-0.284 0.208,-0.624 0,-0.344 -0.208,-0.632 -0.204,-0.288 -0.624,-0.46 -0.416,-0.172 -1.048,-0.172 -0.636,0 -1.056,0.172 -0.416,0.172 -0.624,0.46 -0.204,0.288 -0.204,0.632 z m -0.66,5.004 q 0,-0.544 0.22,-0.992 0.224,-0.448 0.704,-0.716 0.48,-0.264 1.26,-0.264 h 2.32 q 0.532,0 0.532,0.444 0,0.444 -0.532,0.444 H 27.69 q -0.76,0 -1.168,0.288 -0.404,0.288 -0.404,0.796 0,0.512 0.404,0.796 0.408,0.284 1.168,0.284 h 2.272 q 0.532,0 0.532,0.444 0,0.444 -0.532,0.444 h -2.32 q -0.78,0 -1.26,-0.264 -0.48,-0.264 -0.704,-0.708 -0.22,-0.444 -0.22,-0.996 z m 5.036,6.16799 q 0,0.496 -0.324,0.496 -0.16,0 -0.248,-0.136 -0.084,-0.132 -0.084,-0.336 v -1.08 h -3.82 q -0.532,0 -0.532,-0.444 0,-0.444 0.532,-0.444 h 3.82 v -1.032 q 0,-0.244 0.084,-0.38 0.088,-0.132 0.248,-0.132 0.156,0 0.24,0.132 0.084,0.136 0.084,0.38 z m -5.028,3.86401 q 0,-0.176 0.1,-0.288 0.1,-0.108 0.288,-0.108 0.044,0 0.096,0.008 0.052,0.008 0.108,0.024 l 3.96,1.368 q 0.228,0.076 0.36,0.228 0.136,0.156 0.136,0.368 v 0.204 q 0,0.216 -0.136,0.368 -0.132,0.156 -0.36,0.228 l -3.96,1.368 q -0.056,0.02 -0.108,0.028 -0.052,0.008 -0.096,0.008 -0.188,0 -0.288,-0.112 -0.1,-0.112 -0.1,-0.292 0,-0.22 0.116,-0.324 0.116,-0.104 0.356,-0.172 l 0.884,-0.304 v -1.796 l -0.884,-0.304 q -0.24,-0.064 -0.356,-0.172 -0.116,-0.104 -0.116,-0.328 z m 2.012,0.988 v 1.432 l 2.04,-0.676 q 0.044,-0.012 0.088,-0.024 0.048,-0.012 0.084,-0.02 -0.036,-0.004 -0.084,-0.016 -0.044,-0.008 -0.088,-0.02 z"
       id="textOutA--text-output"
       transform="translate(135,1.8919947)"
       aria-label="OUT A" /><path
       style="font-weight:500;font-size:8px;line-height:1.25;font-family:Sono;-inkscape-font-specification:'Sono Medium';letter-spacing:0px;word-spacing:0px;writing-mode:tb-rl;fill:#bf9b30"
       d="m 11.488,479.11599 q 0,-0.196 0.116,-0.316 0.12,-0.12 0.34,-0.12 0.072,0 0.3,0 0.232,0 0.564,0 0.332,0 0.712,0 0.384,0 0.768,0 0.384,0 0.72,0 0.336,0 0.572,0 0.24,0 0.324,0 0.212,0 0.356,0.08 0.148,0.08 0.22,0.216 0.076,0.14 0.076,0.304 v 0.028 q 0,0.244 -0.156,0.412 -0.156,0.172 -0.392,0.272 l -2.208,0.96 2.208,0.964 q 0.236,0.104 0.392,0.272 0.156,0.172 0.156,0.416 v 0.024 q 0,0.164 -0.076,0.3 -0.076,0.136 -0.22,0.216 -0.144,0.08 -0.356,0.08 -0.084,0 -0.324,0 -0.236,0 -0.572,0 -0.336,0 -0.72,0 -0.384,0 -0.768,0 -0.38,0 -0.712,0 -0.332,0 -0.564,0 -0.228,0 -0.3,0 -0.22,0 -0.34,-0.108 -0.116,-0.108 -0.116,-0.304 0,-0.448 0.516,-0.448 h 2.868 l -2.112,-0.928 q -0.232,-0.1 -0.352,-0.192 -0.12,-0.088 -0.12,-0.292 0,-0.204 0.12,-0.292 0.12,-0.088 0.352,-0.192 l 2.14,-0.936 h -2.896 q -0.256,0 -0.388,-0.1 -0.128,-0.1 -0.128,-0.316 z m -0.044,7.084 q 0,-0.396 0.136,-0.78 0.14,-0.384 0.44,-0.7 0.3,-0.312 0.784,-0.5 0.488,-0.188 1.184,-0.188 0.696,0 1.18,0.188 0.488,0.188 0.784,0.5 0.3,0.316 0.436,0.7 0.14,0.384 0.14,0.78 0,0.388 -0.14,0.772 -0.136,0.384 -0.436,0.696 -0.296,0.316 -0.784,0.504 -0.484,0.188 -1.18,0.188 -0.696,0 -1.184,-0.188 -0.484,-0.188 -0.784,-0.504 -0.3,-0.312 -0.44,-0.696 -0.136,-0.384 -0.136,-0.772 z m 0.66,0 q 0,0.34 0.204,0.624 0.208,0.284 0.624,0.456 0.42,0.172 1.056,0.172 0.632,0 1.048,-0.172 0.42,-0.172 0.624,-0.456 0.208,-0.284 0.208,-0.624 0,-0.344 -0.208,-0.632 -0.204,-0.288 -0.624,-0.46 -0.416,-0.172 -1.048,-0.172 -0.636,0 -1.056,0.172 -0.416,0.172 -0.624,0.46 -0.204,0.288 -0.204,0.632 z m 4.376,4.54399 q 0,0.252 -0.052,0.564 -0.052,0.312 -0.2,0.628 -0.144,0.316 -0.42,0.584 -0.276,0.268 -0.716,0.428 -0.44,0.164 -1.088,0.164 -0.644,0 -1.084,-0.164 -0.44,-0.16 -0.716,-0.428 -0.276,-0.268 -0.424,-0.584 -0.144,-0.316 -0.2,-0.628 -0.052,-0.312 -0.052,-0.564 v -1 q 0,-0.532 0.536,-0.532 h 3.884 q 0.532,0 0.532,0.532 z m -4.296,-0.012 q 0,0.292 0.1,0.556 0.1,0.268 0.316,0.476 0.216,0.212 0.564,0.332 0.348,0.12 0.84,0.12 0.496,0 0.844,-0.12 0.348,-0.12 0.564,-0.332 0.216,-0.208 0.312,-0.476 0.1,-0.264 0.1,-0.556 v -0.636 h -3.64 z m 3.972,6.62 q -0.332,0 -0.332,-0.512 v -1.964 h -1.48 v 1.608 q 0,0.26 -0.084,0.368 -0.084,0.108 -0.244,0.108 -0.156,0 -0.244,-0.108 -0.084,-0.108 -0.084,-0.368 v -1.608 h -1.504 v 1.964 q 0,0.512 -0.328,0.512 -0.328,0 -0.328,-0.512 v -2.32 q 0,-0.532 0.536,-0.532 h 3.884 q 0.532,0 0.532,0.532 v 2.32 q 0,0.512 -0.324,0.512 z"
       id="textMode--text"
       transform="translate(120,-3.1799953)"
       aria-label="MODE" /><path
       style="font-weight:500;font-size:8px;line-height:1.25;font-family:Sono;-inkscape-font-specification:'Sono Medium';letter-spacing:0px;word-spacing:0px;writing-mode:tb-rl;fill:#bf9b30"
       d="m 17.459993,470.86399 q 0,-0.408 0.136,-0.808 0.136,-0.4 0.436,-0.728 0.3,-0.328 0.784,-0.524 0.488,-0.196 1.184,-0.196 0.696,0 1.18,0.196 0.488,0.196 0.788,0.524 0.3,0.328 0.436,0.728 0.136,0.4 0.136,0.808 0,0.384 -0.116,0.7 -0.112,0.32 -0.3,0.552 -0.188,0.236 -0.412,0.36 -0.224,0.128 -0.444,0.128 -0.176,0 -0.28,-0.112 -0.1,-0.112 -0.1,-0.264 0,-0.188 0.084,-0.268 0.084,-0.076 0.208,-0.128 0.148,-0.044 0.308,-0.156 0.164,-0.112 0.276,-0.308 0.116,-0.196 0.116,-0.5 0,-0.34 -0.2,-0.652 -0.196,-0.308 -0.612,-0.504 -0.412,-0.196 -1.068,-0.196 -0.656,0 -1.072,0.196 -0.416,0.196 -0.612,0.504 -0.196,0.312 -0.196,0.652 0,0.304 0.112,0.5 0.116,0.196 0.276,0.308 0.164,0.112 0.312,0.156 0.128,0.052 0.212,0.128 0.084,0.08 0.084,0.268 0,0.152 -0.108,0.264 -0.104,0.112 -0.276,0.112 -0.22,0 -0.444,-0.128 -0.224,-0.128 -0.412,-0.364 -0.188,-0.232 -0.304,-0.552 -0.112,-0.316 -0.112,-0.696 z m 0.06,4.40399 v -0.112 q 0,-0.268 0.116,-0.432 0.12,-0.16 0.352,-0.232 l 3.952,-1.3 q 0.052,-0.016 0.104,-0.024 0.052,-0.008 0.088,-0.008 0.196,0 0.296,0.124 0.104,0.128 0.104,0.312 0,0.22 -0.12,0.316 -0.116,0.096 -0.356,0.156 l -3.768,1.144 3.768,1.148 q 0.24,0.064 0.356,0.16 0.12,0.1 0.12,0.32 0,0.188 -0.108,0.304 -0.104,0.12 -0.296,0.12 -0.04,0 -0.088,-0.008 -0.048,-0.004 -0.1,-0.02 l -3.952,-1.304 q -0.232,-0.072 -0.352,-0.236 -0.116,-0.164 -0.116,-0.428 z m -0.056,5.34401 q 0,-0.176 0.1,-0.288 0.1,-0.108 0.288,-0.108 0.044,0 0.096,0.008 0.052,0.008 0.108,0.024 l 3.96,1.368 q 0.228,0.076 0.36,0.228 0.136,0.156 0.136,0.368 v 0.204 q 0,0.216 -0.136,0.368 -0.132,0.156 -0.36,0.228 l -3.96,1.368 q -0.056,0.02 -0.108,0.028 -0.052,0.008 -0.096,0.008 -0.188,0 -0.288,-0.112 -0.1,-0.112 -0.1,-0.292 0,-0.22 0.116,-0.324 0.116,-0.104 0.356,-0.172 l 0.884,-0.304 v -1.796 l -0.884,-0.304 q -0.24,-0.064 -0.356,-0.172 -0.116,-0.104 -0.116,-0.328 z m 2.012,0.988 v 1.432 l 2.04,-0.676 q 0.044,-0.012 0.088,-0.024 0.048,-0.012 0.084,-0.02 -0.036,-0.004 -0.084,-0.016 -0.044,-0.008 -0.088,-0.02 z m 3.016,6.336 q 0,0.496 -0.324,0.496 -0.16,0 -0.248,-0.136 -0.084,-0.132 -0.084,-0.336 v -1.08 h -3.82 q -0.532,0 -0.532,-0.444 0,-0.444 0.532,-0.444 h 3.82 v -1.032 q 0,-0.244 0.084,-0.38 0.088,-0.132 0.248,-0.132 0.156,0 0.24,0.132 0.084,0.136 0.084,0.38 z m 0,4.396 q 0,0.496 -0.324,0.496 -0.16,0 -0.248,-0.136 -0.084,-0.132 -0.084,-0.336 v -1.08 h -3.82 q -0.532,0 -0.532,-0.444 0,-0.444 0.532,-0.444 h 3.82 v -1.032 q 0,-0.244 0.084,-0.38 0.088,-0.132 0.248,-0.132 0.156,0 0.24,0.132 0.084,0.136 0.084,0.38 z m -0.324,4.57199 q -0.332,0 -0.332,-0.512 v -1.964 h -1.48 v 1.608 q 0,0.26 -0.084,0.368 -0.084,0.108 -0.244,0.108 -0.156,0 -0.244,-0.108 -0.084,-0.108 -0.084,-0.368 v -1.608 h -1.504 v 1.964 q 0,0.512 -0.328,0.512 -0.328,0 -0.328,-0.512 v -2.32 q 0,-0.532 0.536,-0.532 h 3.884 q 0.532,0 0.532,0.532 v 2.32 q 0,0.512 -0.324,0.512 z m -4.664,1.24801 q 0,-0.4 0.524,-0.4 h 3.952 q 0.26,0 0.396,0.156 0.136,0.16 0.136,0.416 v 0.02 q 0,0.228 -0.116,0.388 -0.116,0.164 -0.332,0.276 l -3.196,1.688 h 3.12 q 0.524,0 0.524,0.404 0,0.188 -0.132,0.296 -0.132,0.108 -0.392,0.108 h -3.952 q -0.256,0 -0.396,-0.136 -0.136,-0.132 -0.136,-0.388 v -0.008 q 0,-0.232 0.116,-0.384 0.116,-0.148 0.332,-0.264 l 3.308,-1.78 h -3.232 q -0.524,0 -0.524,-0.392 z"
       id="textCVAtten--text"
       transform="translate(85,6.8919947)"
       aria-label="CV ATTEN" /><path
       style="font-weight:500;font-size:8px;line-height:1.25;font-family:Sono;-inkscape-font-specification:'Sono Medium';letter-spacing:0px;word-spacing:0px;writing-mode:tb-rl;fill:#bf9b30"
       d="m 17.838,469.63199 h -1.844 v 0.736 q 0,0.16 0.028,0.336 0.032,0.18 0.124,0.336 0.096,0.156 0.284,0.256 0.188,0.1 0.508,0.1 0.316,0 0.496,-0.1 0.184,-0.1 0.268,-0.256 0.088,-0.156 0.112,-0.336 0.024,-0.176 0.024,-0.336 z m -2.5,0.868 v -0.868 h -1.26 q -0.536,0 -0.536,-0.44 0,-0.444 0.536,-0.444 h 3.884 q 0.532,0 0.532,0.532 v 1.22 q 0,0.18 -0.028,0.412 -0.024,0.236 -0.108,0.476 -0.084,0.24 -0.256,0.444 -0.168,0.204 -0.452,0.328 -0.28,0.128 -0.712,0.128 -0.428,0 -0.72,-0.128 -0.288,-0.124 -0.464,-0.328 -0.176,-0.204 -0.268,-0.444 -0.088,-0.24 -0.12,-0.476 -0.028,-0.232 -0.028,-0.412 z m 2.5,3.548 h -1.54 v 1.004 q 0,0.412 0.204,0.64 0.204,0.232 0.588,0.232 0.384,0 0.564,-0.24 0.184,-0.236 0.184,-0.66 z m -3.82,-0.888 h 3.944 q 0.532,0 0.532,0.532 v 1.476 q 0,0.276 -0.056,0.564 -0.052,0.288 -0.2,0.532 -0.148,0.248 -0.416,0.4 -0.264,0.152 -0.692,0.152 -0.536,0 -0.852,-0.256 -0.312,-0.256 -0.436,-0.62 l -1.74,0.768 q -0.072,0.032 -0.14,0.048 -0.064,0.016 -0.124,0.016 -0.164,0 -0.26,-0.108 -0.092,-0.104 -0.092,-0.3 0,-0.24 0.12,-0.344 0.12,-0.104 0.344,-0.192 l 1.692,-0.724 v -1.056 h -1.624 q -0.532,0 -0.532,-0.448 0,-0.44 0.532,-0.44 z m -0.56,6.584 q 0,-0.396 0.136,-0.78 0.14,-0.384 0.44,-0.7 0.3,-0.312 0.784,-0.5 0.488,-0.188 1.184,-0.188 0.696,0 1.18,0.188 0.488,0.188 0.784,0.5 0.3,0.316 0.436,0.7 0.14,0.384 0.14,0.78 0,0.388 -0.14,0.772 -0.136,0.384 -0.436,0.696 -0.296,0.316 -0.784,0.504 -0.484,0.188 -1.18,0.188 -0.696,0 -1.184,-0.188 -0.484,-0.188 -0.784,-0.504 -0.3,-0.312 -0.44,-0.696 -0.136,-0.384 -0.136,-0.772 z m 0.66,0 q 0,0.34 0.204,0.624 0.208,0.284 0.624,0.456 0.42,0.172 1.056,0.172 0.632,0 1.048,-0.172 0.42,-0.172 0.624,-0.456 0.208,-0.284 0.208,-0.624 0,-0.344 -0.208,-0.632 -0.204,-0.288 -0.624,-0.46 -0.416,-0.172 -1.048,-0.172 -0.636,0 -1.056,0.172 -0.416,0.172 -0.624,0.46 -0.204,0.288 -0.204,0.632 z m 2.024,5.616 q 0,0.072 -0.048,0.248 -0.048,0.18 -0.18,0.376 -0.128,0.2 -0.368,0.34 -0.236,0.14 -0.616,0.14 -0.464,0 -0.772,-0.212 -0.308,-0.208 -0.464,-0.6 -0.152,-0.388 -0.152,-0.94 v -1.424 q 0,-0.532 0.536,-0.532 h 3.884 q 0.532,0 0.532,0.532 v 1.216 q 0,0.472 -0.1,0.88 -0.096,0.408 -0.356,0.656 -0.26,0.252 -0.756,0.252 -0.352,0 -0.576,-0.12 -0.224,-0.116 -0.348,-0.28 -0.12,-0.164 -0.168,-0.316 -0.048,-0.152 -0.048,-0.216 z m 1.696,-1.716 h -1.452 v 0.884 q 0,0.256 0.084,0.456 0.084,0.204 0.252,0.316 0.168,0.116 0.42,0.116 0.292,0 0.44,-0.136 0.148,-0.132 0.2,-0.36 0.056,-0.224 0.056,-0.5 z m -3.64,0.808 q 0,0.548 0.196,0.828 0.196,0.28 0.616,0.28 0.428,0 0.604,-0.292 0.176,-0.292 0.176,-0.704 v -0.92 h -1.592 z m -0.736,7.72401 q 0,-0.408 0.136,-0.808 0.136,-0.4 0.436,-0.728 0.3,-0.328 0.784,-0.524 0.488,-0.196 1.184,-0.196 0.696,0 1.18,0.196 0.488,0.196 0.788,0.524 0.3,0.328 0.436,0.728 0.136,0.4 0.136,0.808 0,0.384 -0.116,0.7 -0.112,0.32 -0.3,0.552 -0.188,0.236 -0.412,0.36 -0.224,0.128 -0.444,0.128 -0.176,0 -0.28,-0.112 -0.1,-0.112 -0.1,-0.264 0,-0.188 0.084,-0.268 0.084,-0.076 0.208,-0.128 0.148,-0.044 0.308,-0.156 0.164,-0.112 0.276,-0.308 0.116,-0.196 0.116,-0.5 0,-0.34 -0.2,-0.652 -0.196,-0.308 -0.612,-0.504 -0.412,-0.196 -1.068,-0.196 -0.656,0 -1.072,0.196 -0.416,0.196 -0.612,0.504 -0.196,0.312 -0.196,0.652 0,0.304 0.112,0.5 0.116,0.196 0.276,0.308 0.164,0.112 0.312,0.156 0.128,0.052 0.212,0.128 0.084,0.08 0.084,0.268 0,0.152 -0.108,0.264 -0.104,0.112 -0.276,0.112 -0.22,0 -0.444,-0.128 -0.224,-0.128 -0.412,-0.364 -0.188,-0.232 -0.304,-0.552 -0.112,-0.316 -0.112,-0.696 z m 0.06,4.404 v -0.112 q 0,-0.268 0.116,-0.432 0.12,-0.16 0.352,-0.232 l 3.952,-1.3 q 0.052,-0.016 0.104,-0.024 0.052,-0.008 0.088,-0.008 0.196,0 0.296,0.124 0.104,0.128 0.104,0.312 0,0.22 -0.12,0.316 -0.116,0.096 -0.356,0.156 l -3.768,1.144 3.768,1.148 q 0.24,0.064 0.356,0.16 0.12,0.1 0.12,0.32 0,0.188 -0.108,0.304 -0.104,0.12 -0.296,0.12 -0.04,0 -0.088,-0.008 -0.048,-0.004 -0.1,-0.02 l -3.952,-1.304 q -0.232,-0.072 -0.352,-0.236 -0.116,-0.164 -0.116,-0.428 z"
       id="textProbCV--text"
       transform="translate(60,6.7519947)"
       aria-label="PROB CV" /><path
       style="font-weight:500;font-size:8px;line-height:1.25;font-family:Sono;-inkscape-font-specification:'Sono Medium';letter-spacing:0px;word-spacing:0px;writing-mode:tb-rl;fill:#bf9b30"
       d="m 48.838002,476.68399 h -1.844 v 0.736 q 0,0.16 0.028,0.336 0.032,0.18 0.124,0.336 0.096,0.156 0.284,0.256 0.188,0.1 0.508,0.1 0.316,0 0.496,-0.1 0.184,-0.1 0.268,-0.256 0.088,-0.156 0.112,-0.336 0.024,-0.176 0.024,-0.336 z m -2.5,0.868 v -0.868 h -1.26 q -0.536,0 -0.536,-0.44 0,-0.444 0.536,-0.444 h 3.884 q 0.532,0 0.532,0.532 v 1.22 q 0,0.18 -0.028,0.412 -0.024,0.236 -0.108,0.476 -0.084,0.24 -0.256,0.444 -0.168,0.204 -0.452,0.328 -0.28,0.128 -0.712,0.128 -0.428,0 -0.72,-0.128 -0.288,-0.124 -0.464,-0.328 -0.176,-0.204 -0.268,-0.444 -0.088,-0.24 -0.12,-0.476 -0.028,-0.232 -0.028,-0.412 z m 2.5,3.548 h -1.54 v 1.004 q 0,0.412 0.204,0.64 0.204,0.232 0.588,0.232 0.384,0 0.564,-0.24 0.184,-0.236 0.184,-0.66 z m -3.82,-0.888 h 3.944 q 0.532,0 0.532,0.532 v 1.476 q 0,0.276 -0.056,0.564 -0.052,0.288 -0.2,0.532 -0.148,0.248 -0.416,0.4 -0.264,0.152 -0.692,0.152 -0.536,0 -0.852,-0.256 -0.312,-0.256 -0.436,-0.62 l -1.74,0.768 q -0.072,0.032 -0.14,0.048 -0.064,0.016 -0.124,0.016 -0.164,0 -0.26,-0.108 -0.092,-0.104 -0.092,-0.3 0,-0.24 0.12,-0.344 0.12,-0.104 0.344,-0.192 l 1.692,-0.724 v -1.056 h -1.624 q -0.532,0 -0.532,-0.448 0,-0.44 0.532,-0.44 z m -0.56,6.584 q 0,-0.396 0.136,-0.78 0.14,-0.384 0.44,-0.7 0.3,-0.312 0.784,-0.5 0.488,-0.188 1.184,-0.188 0.696,0 1.18,0.188 0.488,0.188 0.784,0.5 0.3,0.316 0.436,0.7 0.14,0.384 0.14,0.78 0,0.388 -0.14,0.772 -0.136,0.384 -0.436,0.696 -0.296,0.316 -0.784,0.504 -0.484,0.188 -1.18,0.188 -0.696,0 -1.184,-0.188 -0.484,-0.188 -0.784,-0.504 -0.3,-0.312 -0.44,-0.696 -0.136,-0.384 -0.136,-0.772 z m 0.66,0 q 0,0.34 0.204,0.624 0.208,0.284 0.624,0.456 0.42,0.172 1.056,0.172 0.632,0 1.048,-0.172 0.42,-0.172 0.624,-0.456 0.208,-0.284 0.208,-0.624 0,-0.344 -0.208,-0.632 -0.204,-0.288 -0.624,-0.46 -0.416,-0.172 -1.048,-0.172 -0.636,0 -1.056,0.172 -0.416,0.172 -0.624,0.46 -0.204,0.288 -0.204,0.632 z m 2.024,5.616 q 0,0.072 -0.048,0.248 -0.048,0.18 -0.18,0.376 -0.128,0.2 -0.368,0.34 -0.236,0.14 -0.616,0.14 -0.464,0 -0.772,-0.212 -0.308,-0.208 -0.464,-0.6 -0.152,-0.388 -0.152,-0.94 v -1.424 q 0,-0.532 0.536,-0.532 h 3.884 q 0.532,0 0.532,0.532 v 1.216 q 0,0.472 -0.1,0.88 -0.096,0.408 -0.356,0.656 -0.26,0.252 -0.756,0.252 -0.352,0 -0.576,-0.12 -0.224,-0.116 -0.348,-0.28 -0.12,-0.164 -0.168,-0.316 -0.048,-0.152 -0.048,-0.216 z m 1.696,-1.716 h -1.452 v 0.884 q 0,0.256 0.084,0.456 0.084,0.204 0.252,0.316 0.168,0.116 0.42,0.116 0.292,0 0.44,-0.136 0.148,-0.132 0.2,-0.36 0.056,-0.224 0.056,-0.5 z m -3.64,0.808 q 0,0.548 0.196,0.828 0.196,0.28 0.616,0.28 0.428,0 0.604,-0.292 0.176,-0.292 0.176,-0.704 v -0.92 h -1.592 z"
       id="textProb--text"
       transform="translate(0)"
       aria-label="PROB" /><path
       style="font-weight:500;font-size:8px;line-height:1.25;font-family:Sono;-inkscape-font-specification:'Sono Medium';letter-spacing:0px;word-spacing:0px;writing-mode:tb-rl;fill:#bf9b30"
       d="m 20.494,478.98799 q 0,0.496 -0.324,0.496 -0.16,0 -0.248,-0.136 -0.084,-0.132 -0.084,-0.336 v -1.08 h -3.82 q -0.532,0 -0.532,-0.444 0,-0.444 0.532,-0.444 h 3.82 v -1.032 q 0,-0.244 0.084,-0.38 0.088,-0.132 0.248,-0.132 0.156,0 0.24,0.132 0.084,0.136 0.084,0.38 z m -0.656,2.096 h -1.54 v 1.004 q 0,0.412 0.204,0.64 0.204,0.232 0.588,0.232 0.384,0 0.564,-0.24 0.184,-0.236 0.184,-0.66 z m -3.82,-0.888 h 3.944 q 0.532,0 0.532,0.532 v 1.476 q 0,0.276 -0.056,0.564 -0.052,0.288 -0.2,0.532 -0.148,0.248 -0.416,0.4 -0.264,0.152 -0.692,0.152 -0.536,0 -0.852,-0.256 -0.312,-0.256 -0.436,-0.62 l -1.74,0.768 q -0.072,0.032 -0.14,0.048 -0.064,0.016 -0.124,0.016 -0.164,0 -0.26,-0.108 -0.092,-0.104 -0.092,-0.3 0,-0.24 0.12,-0.344 0.12,-0.104 0.344,-0.192 l 1.692,-0.724 v -1.056 h -1.624 q -0.532,0 -0.532,-0.448 0,-0.44 0.532,-0.44 z m -0.476,4.92 q 0,-0.212 0.084,-0.328 0.088,-0.116 0.244,-0.116 0.16,0 0.244,0.116 0.084,0.116 0.084,0.328 v 0.66 h 3.64 v -0.66 q 0,-0.212 0.084,-0.328 0.088,-0.116 0.248,-0.116 0.156,0 0.24,0.116 0.084,0.116 0.084,0.328 v 2.152 q 0,0.216 -0.084,0.328 -0.084,0.116 -0.24,0.116 -0.16,0 -0.248,-0.116 -0.084,-0.112 -0.084,-0.328 v -0.64 h -3.64 v 0.64 q 0,0.216 -0.084,0.328 -0.084,0.116 -0.244,0.116 -0.156,0 -0.244,-0.116 -0.084,-0.112 -0.084,-0.328 z m -0.084,5.58799 q 0,-0.424 0.14,-0.816 0.144,-0.392 0.448,-0.704 0.304,-0.312 0.788,-0.496 0.484,-0.18 1.168,-0.18 0.688,0 1.168,0.192 0.484,0.192 0.788,0.516 0.304,0.328 0.444,0.732 0.14,0.404 0.14,0.828 0,0.456 -0.128,0.796 -0.128,0.34 -0.364,0.584 -0.1,0.116 -0.204,0.168 -0.104,0.052 -0.204,0.052 -0.156,0 -0.256,-0.12 -0.1,-0.116 -0.1,-0.26 0,-0.108 0.056,-0.212 0.056,-0.104 0.144,-0.184 0.152,-0.132 0.268,-0.328 0.12,-0.196 0.12,-0.492 0,-0.344 -0.192,-0.66 -0.188,-0.316 -0.6,-0.516 -0.412,-0.2 -1.08,-0.2 -0.684,0 -1.096,0.196 -0.412,0.196 -0.596,0.504 -0.184,0.308 -0.184,0.648 0,0.32 0.144,0.552 0.148,0.232 0.44,0.36 0.292,0.132 0.732,0.14 v -0.784 q 0,-0.2 0.072,-0.316 0.076,-0.112 0.24,-0.112 0.168,0 0.24,0.108 0.076,0.112 0.076,0.312 v 1.176 q 0,0.26 -0.128,0.376 -0.124,0.116 -0.364,0.116 -0.712,0 -1.184,-0.26 -0.468,-0.26 -0.704,-0.708 -0.232,-0.448 -0.232,-1.008 z m 0,4.90801 q 0,-0.424 0.14,-0.816 0.144,-0.392 0.448,-0.704 0.304,-0.312 0.788,-0.496 0.484,-0.18 1.168,-0.18 0.688,0 1.168,0.192 0.484,0.192 0.788,0.516 0.304,0.328 0.444,0.732 0.14,0.404 0.14,0.828 0,0.456 -0.128,0.796 -0.128,0.34 -0.364,0.584 -0.1,0.116 -0.204,0.168 -0.104,0.052 -0.204,0.052 -0.156,0 -0.256,-0.12 -0.1,-0.116 -0.1,-0.26 0,-0.108 0.056,-0.212 0.056,-0.104 0.144,-0.184 0.152,-0.132 0.268,-0.328 0.12,-0.196 0.12,-0.492 0,-0.344 -0.192,-0.66 -0.188,-0.316 -0.6,-0.516 -0.412,-0.2 -1.08,-0.2 -0.684,0 -1.096,0.196 -0.412,0.196 -0.596,0.504 -0.184,0.308 -0.184,0.648 0,0.32 0.144,0.552 0.148,0.232 0.44,0.36 0.292,0.132 0.732,0.14 v -0.784 q 0,-0.2 0.072,-0.316 0.076,-0.112 0.24,-0.112 0.168,0 0.24,0.108 0.076,0.112 0.076,0.312 v 1.176 q 0,0.26 -0.128,0.376 -0.124,0.116 -0.364,0.116 -0.712,0 -1.184,-0.26 -0.468,-0.26 -0.704,-0.708 -0.232,-0.448 -0.232,-1.008 z m 4.712,6.216 q -0.332,0 -0.332,-0.512 v -1.964 h -1.48 v 1.608 q 0,0.26 -0.084,0.368 -0.084,0.108 -0.244,0.108 -0.156,0 -0.244,-0.108 -0.084,-0.108 -0.084,-0.368 v -1.608 h -1.504 v 1.964 q 0,0.512 -0.328,0.512 -0.328,0 -0.328,-0.512 v -2.32 q 0,-0.532 0.536,-0.532 h 3.884 q 0.532,0 0.532,0.532 v 2.32 q 0,0.512 -0.324,0.512 z m -0.332,1.82401 h -1.54 v 1.004 q 0,0.412 0.204,0.64 0.204,0.232 0.588,0.232 0.384,0 0.564,-0.24 0.184,-0.236 0.184,-0.66 z m -3.82,-0.888 h 3.944 q 0.532,0 0.532,0.532 v 1.476 q 0,0.276 -0.056,0.564 -0.052,0.288 -0.2,0.532 -0.148,0.248 -0.416,0.4 -0.264,0.152 -0.692,0.152 -0.536,0 -0.852,-0.256 -0.312,-0.256 -0.436,-0.62 l -1.74,0.768 q -0.072,0.032 -0.14,0.048 -0.064,0.016 -0.124,0.016 -0.164,0 -0.26,-0.108 -0.092,-0.104 -0.092,-0.3 0,-0.24 0.12,-0.344 0.12,-0.104 0.344,-0.192 l 1.692,-0.724 v -1.056 h -1.624 q -0.532,0 -0.532,-0.448 0,-0.44 0.532,-0.44 z"
       id="textTrigger--text"
       transform="translate(0)"
       aria-label="TRIGGER" /><g
       inkscape:groupmode="layer"
       id="layer3"
       inkscape:label="Normals"
       transform="translate(0,168.49998)"
       style="display:inline"><path
         id="Normal7--silkscreen"
         style="display:inline;fill:#ffffff;stroke-width:0.264999;paint-order:stroke fill markers"
         transform="matrix(1.0183186,0,0,-1.007874,4.5284941,286.33334)"
         d="m 13.229166,9.260416 3.437038,5.953125 -6.8740763,0 z" /><path
         id="Normal6--silkscreen"
         style="display:inline;fill:#ffffff;stroke-width:0.264999;paint-order:stroke fill markers"
         transform="matrix(1.0183186,0,0,-1.007874,4.5284943,252.33334)"
         d="m 13.229166,9.260416 3.437038,5.953125 -6.8740763,0 z" /><path
         id="Normal5--silkscreen"
         style="display:inline;fill:#ffffff;stroke-width:0.264999;paint-order:stroke fill markers"
         transform="matrix(1.0183186,0,0,-1.007874,4.5284941,218.33334)"
         d="m 13.229166,9.260416 3.437038,5.953125 -6.8740763,0 z" /><path
         id="Normal4--silkscreen"
         style="display:inline;fill:#ffffff;stroke-width:0.264999;paint-order:stroke fill markers"
         transform="matrix(1.0183186,0,0,-1.007874,4.5284941,184.33334)"
         d="m 13.229166,9.260416 3.437038,5.953125 -6.8740763,0 z" /><path
         id="Normal3--silkscreen"
         style="display:inline;fill:#ffffff;stroke-width:0.264999;paint-order:stroke fill markers"
         transform="matrix(1.0183186,0,0,-1.007874,4.5284941,150.33334)"
         d="m 13.229166,9.260416 3.437038,5.953125 -6.8740763,0 z" /><path
         id="Normal2--silkscreen"
         style="display:inline;fill:#ffffff;stroke-width:0.264999;paint-order:stroke fill markers"
         transform="matrix(1.0183186,0,0,-1.007874,4.5284941,116.33334)"
         d="m 13.229166,9.260416 3.437038,5.953125 -6.8740763,0 z" /><path
         id="Normal1--silkscreen"
         style="display:inline;fill:#ffffff;stroke-width:0.264999;paint-order:stroke fill markers"
         transform="matrix(1.0183186,0,0,-1.007874,4.5284942,82.333333)"
         d="m 13.229166,9.260416 3.437038,5.953125 -6.8740763,0 z" /></g><path
       style="font-weight:500;font-size:16px;line-height:1.25;font-family:Sono;-inkscape-font-specification:'Sono Medium';letter-spacing:0px;word-spacing:0px;baseline-shift:baseline;fill:#bf9b30;stroke-width:0.781836"
       d="m 132.18543,185.57621 q 0.144,0 0.496,0.096 0.36,0.096 0.752,0.36 0.4,0.256 0.68,0.736 0.28,0.472 0.28,1.232 0,0.928 -0.424,1.544 -0.416,0.616 -1.2,0.928 -0.776,0.304 -1.88,0.304 h -2.848 q -1.064,0 -1.064,-1.072 v -7.768 q 0,-1.064 1.064,-1.064 h 2.432 q 0.944,0 1.76,0.2 0.816,0.192 1.312,0.712 0.504,0.52 0.504,1.512 0,0.704 -0.24,1.152 -0.232,0.448 -0.56,0.696 -0.328,0.24 -0.632,0.336 -0.304,0.096 -0.432,0.096 z m -3.432,-3.392 v 2.904 h 1.768 q 0.512,0 0.912,-0.168 0.408,-0.168 0.632,-0.504 0.232,-0.336 0.232,-0.84 0,-0.584 -0.272,-0.88 -0.264,-0.296 -0.72,-0.4 -0.448,-0.112 -1,-0.112 z m 1.616,7.28 q 1.096,0 1.656,-0.392 0.56,-0.392 0.56,-1.232 0,-0.856 -0.584,-1.208 -0.584,-0.352 -1.408,-0.352 h -1.84 v 3.184 z m 12.74401,-7.944 q 0,0.664 -1.024,0.664 h -3.928 v 2.96 h 3.216 q 0.52,0 0.736,0.168 0.216,0.168 0.216,0.488 0,0.312 -0.216,0.488 -0.216,0.168 -0.736,0.168 h -3.216 v 3.008 h 3.928 q 1.024,0 1.024,0.656 0,0.656 -1.024,0.656 h -4.64 q -1.064,0 -1.064,-1.072 v -7.768 q 0,-1.064 1.064,-1.064 h 4.64 q 1.024,0 1.024,0.648 z m 3.648,0.664 v 3.08 h 2.008 q 0.824,0 1.28,-0.408 0.464,-0.408 0.464,-1.176 0,-0.768 -0.48,-1.128 -0.472,-0.368 -1.32,-0.368 z m -1.776,7.64 v -7.888 q 0,-1.064 1.064,-1.064 h 2.952 q 0.552,0 1.128,0.112 0.576,0.104 1.064,0.4 0.496,0.296 0.8,0.832 0.304,0.528 0.304,1.384 0,1.072 -0.512,1.704 -0.512,0.624 -1.24,0.872 l 1.536,3.48 q 0.064,0.144 0.096,0.28 0.032,0.128 0.032,0.248 0,0.328 -0.216,0.52 -0.208,0.184 -0.6,0.184 -0.48,0 -0.688,-0.24 -0.208,-0.24 -0.384,-0.688 l -1.448,-3.384 h -2.112 v 3.248 q 0,1.064 -0.896,1.064 -0.88,0 -0.88,-1.064 z m 9.736,1.024 q -0.8,0 -0.8,-1.048 v -7.904 q 0,-0.52 0.312,-0.792 0.32,-0.272 0.832,-0.272 h 0.04 q 0.456,0 0.776,0.232 0.328,0.232 0.552,0.664 l 3.376,6.392 v -6.24 q 0,-1.048 0.808,-1.048 0.376,0 0.592,0.264 0.216,0.264 0.216,0.784 v 7.904 q 0,0.512 -0.272,0.792 -0.264,0.272 -0.776,0.272 h -0.016 q -0.464,0 -0.768,-0.232 -0.296,-0.232 -0.528,-0.664 l -3.56,-6.616 v 6.464 q 0,1.048 -0.784,1.048 z m 12.61599,0.096 q -0.792,0 -1.56,-0.272 -0.768,-0.28 -1.4,-0.88 -0.624,-0.6 -1,-1.568 -0.376,-0.976 -0.376,-2.368 0,-1.392 0.376,-2.36 0.376,-0.976 1,-1.568 0.632,-0.6 1.4,-0.872 0.768,-0.28 1.56,-0.28 0.776,0 1.544,0.28 0.768,0.272 1.392,0.872 0.632,0.592 1.008,1.568 0.376,0.968 0.376,2.36 0,1.392 -0.376,2.368 -0.376,0.968 -1.008,1.568 -0.624,0.6 -1.392,0.88 -0.768,0.272 -1.544,0.272 z m 0,-1.32 q 0.68,0 1.248,-0.408 0.568,-0.416 0.912,-1.248 0.344,-0.84 0.344,-2.112 0,-1.264 -0.344,-2.096 -0.344,-0.84 -0.912,-1.248 -0.568,-0.416 -1.248,-0.416 -0.688,0 -1.264,0.416 -0.576,0.408 -0.92,1.248 -0.344,0.832 -0.344,2.096 0,1.272 0.344,2.112 0.344,0.832 0.92,1.248 0.576,0.408 1.264,0.408 z m 10.008,1.32 q -1.088,0 -1.984,-0.44 -0.896,-0.448 -1.432,-1.408 -0.528,-0.96 -0.528,-2.52 v -4.64 q 0,-1.064 0.888,-1.064 0.888,0 0.888,1.064 v 4.544 q 0,1.52 0.576,2.336 0.576,0.808 1.592,0.808 1.024,0 1.592,-0.808 0.568,-0.816 0.568,-2.336 v -4.544 q 0,-1.064 0.888,-1.064 0.888,0 0.888,1.064 v 4.64 q 0,1.56 -0.528,2.52 -0.528,0.96 -1.416,1.408 -0.888,0.44 -1.992,0.44 z m 7.57599,-1.48 h 3.472 q 0.456,0 0.72,0.176 0.264,0.168 0.264,0.48 0,0.312 -0.264,0.488 -0.264,0.168 -0.72,0.168 h -4.184 q -1.064,0 -1.064,-1.072 v -7.84 q 0,-1.072 0.888,-1.072 0.888,0 0.888,1.072 z m 7.46399,0 h 3.472 q 0.456,0 0.72,0.176 0.264,0.168 0.264,0.48 0,0.312 -0.264,0.488 -0.264,0.168 -0.72,0.168 h -4.184 q -1.064,0 -1.064,-1.072 v -7.84 q 0,-1.072 0.888,-1.072 0.888,0 0.888,1.072 z m 6.57599,1.312 q -0.424,0 -0.656,-0.168 -0.232,-0.176 -0.232,-0.488 0,-0.32 0.232,-0.488 0.232,-0.168 0.656,-0.168 h 1.32 v -7.28 h -1.32 q -0.424,0 -0.656,-0.168 -0.232,-0.176 -0.232,-0.496 0,-0.312 0.232,-0.48 0.232,-0.168 0.656,-0.168 h 4.304 q 0.432,0 0.656,0.168 0.232,0.168 0.232,0.48 0,0.32 -0.232,0.496 -0.224,0.168 -0.656,0.168 h -1.28 v 7.28 h 1.28 q 0.432,0 0.656,0.168 0.232,0.168 0.232,0.488 0,0.312 -0.232,0.488 -0.224,0.168 -0.656,0.168 z"
       id="moduleName--moduleName"
       transform="scale(0.99924857,1.000752)"
       aria-label="BERNOULLI" /></g><g
     inkscape:groupmode="layer"
     id="layer2"
     inkscape:label="Widgets"><path
       id="widgetLogo--hidden"
       style="fill:#ffff00;stroke-width:10.8096;paint-order:stroke fill markers"
       d="m 92.5,349.99994 h 25 v 25 h -25 z" /><g
       inkscape:groupmode="layer"
       id="layer4"
       inkscape:label="Gate8"><path
         id="inputTrigger_8--hidden"
         style="fill:#00ff00;stroke-width:0.57378;paint-order:stroke fill markers"
         d="M 30,291 A 12,12 0 0 1 18.191633,302.99847 12,12 0 0 1 6.0061205,291.38322 12,12 0 0 1 17.425297,279.01377 12,12 0 0 1 29.975524,290.23396" /><path
         id="paramProbability_8--hidden"
         style="fill:#ff0000;stroke-width:0.783066;paint-order:stroke fill markers"
         d="M 59,291 A 12,12 0 0 1 47.191633,302.99847 12,12 0 0 1 35.006121,291.38322 12,12 0 0 1 46.425297,279.01377 12,12 0 0 1 58.975524,290.23396" /><path
         id="inputProbabilityCV_8--hidden"
         style="fill:#00ff00;stroke-width:0.391535;paint-order:stroke fill markers"
         d="M 88,291 A 12,12 0 0 1 76.191633,302.99847 12,12 0 0 1 64.006121,291.38322 12,12 0 0 1 75.425297,279.01377 12,12 0 0 1 87.975524,290.23396" /><path
         id="paramProbabilityCVScale_8--hidden"
         style="fill:#ff0000;stroke-width:0.783066;paint-order:stroke fill markers"
         d="m 117,291 a 12,12 0 0 1 -11.80837,11.99847 12,12 0 0 1 -12.185509,-11.61525 12,12 0 0 1 11.419179,-12.36945 12,12 0 0 1 12.55022,11.22019" /><path
         id="paramMode_8--hidden"
         style="fill:#ff0000;stroke-width:0.783066;paint-order:stroke fill markers"
         transform="scale(1,-1)"
         d="m 146,-291 a 12,12 0 0 1 -11.80837,11.99847 12,12 0 0 1 -12.18551,-11.61525 12,12 0 0 1 11.41918,-12.36945 12,12 0 0 1 12.55022,11.22019" /><path
         id="outputA_8--hidden"
         style="fill:#0000ff;stroke-width:0.78561;paint-order:stroke fill markers"
         d="m 175,291 a 12,12 0 0 1 -11.80837,11.99847 12,12 0 0 1 -12.18551,-11.61525 12,12 0 0 1 11.41918,-12.36945 12,12 0 0 1 12.55022,11.22019" /><path
         id="lightStateA_8--hidden"
         style="fill:#ff00ff;stroke-width:0.393721;paint-order:stroke fill markers"
         d="m 176.25,280 a 2.25,2.25 0 0 1 -2.21407,2.24971 2.25,2.25 0 0 1 -2.28478,-2.17786 2.25,2.25 0 0 1 2.14109,-2.31927 2.25,2.25 0 0 1 2.35317,2.10379" /><path
         id="outputB_8--hidden"
         style="fill:#0000ff;stroke-width:0.78561;paint-order:stroke fill markers"
         d="m 204,291 a 12,12 0 0 1 -11.80837,11.99847 12,12 0 0 1 -12.18551,-11.61525 12,12 0 0 1 11.41918,-12.36945 12,12 0 0 1 12.55022,11.22019" /><path
         id="lightStateB_8--hidden"
         style="fill:#ff00ff;stroke-width:0.393721;paint-order:stroke fill markers"
         d="m 205.25,280 a 2.25,2.25 0 0 1 -2.21407,2.24971 2.25,2.25 0 0 1 -2.28478,-2.17786 2.25,2.25 0 0 1 2.14109,-2.31927 2.25,2.25 0 0 1 2.35317,2.10379" /></g><g
       inkscape:groupmode="layer"
       id="layer5"
       inkscape:label="Gate7"><path
         id="inputTrigger_7--hidden"
         style="fill:#00ff00;stroke-width:0.57378;paint-order:stroke fill markers"
         d="M 30,257 A 12,12 0 0 1 18.191633,268.99847 12,12 0 0 1 6.0061205,257.38322 12,12 0 0 1 17.425297,245.01377 12,12 0 0 1 29.975524,256.23396" /><path
         id="paramProbability_7--hidden"
         style="fill:#ff0000;stroke-width:0.783066;paint-order:stroke fill markers"
         d="M 59,257 A 12,12 0 0 1 47.191633,268.99847 12,12 0 0 1 35.006121,257.38322 12,12 0 0 1 46.425297,245.01377 12,12 0 0 1 58.975524,256.23396" /><path
         id="inputProbabilityCV_7--hidden"
         style="fill:#00ff00;stroke-width:0.391535;paint-order:stroke fill markers"
         d="M 88,257 A 12,12 0 0 1 76.191633,268.99847 12,12 0 0 1 64.006121,257.38322 12,12 0 0 1 75.425297,245.01377 12,12 0 0 1 87.975524,256.23396" /><path
         id="paramProbabilityCVScale_7--hidden"
         style="fill:#ff0000;stroke-width:0.783066;paint-order:stroke fill markers"
         d="m 117,257 a 12,12 0 0 1 -11.80837,11.99847 12,12 0 0 1 -12.185509,-11.61525 12,12 0 0 1 11.419179,-12.36945 12,12 0 0 1 12.55022,11.22019" /><path
         id="paramMode_7--hidden"
         style="fill:#ff0000;stroke-width:0.783066;paint-order:stroke fill markers"
         transform="scale(1,-1)"
         d="m 146,-257 a 12,12 0 0 1 -11.80837,11.99847 12,12 0 0 1 -12.18551,-11.61525 12,12 0 0 1 11.41918,-12.36945 12,12 0 0 1 12.55022,11.22019" /><path
         id="outputA_7--hidden"
         style="fill:#0000ff;stroke-width:0.78561;paint-order:stroke fill markers"
         d="m 175,257 a 12,12 0 0 1 -11.80837,11.99847 12,12 0 0 1 -12.18551,-11.61525 12,12 0 0 1 11.41918,-12.36945 12,12 0 0 1 12.55022,11.22019" /><path
         id="lightStateA_7--hidden"
         style="fill:#ff00ff;stroke-width:0.393721;paint-order:stroke fill markers"
         d="m 176.25,246 a 2.25,2.25 0 0 1 -2.21407,2.24971 2.25,2.25 0 0 1 -2.28478,-2.17786 2.25,2.25 0 0 1 2.14109,-2.31927 2.25,2.25 0 0 1 2.35317,2.10379" /><path
         id="outputB_7--hidden"
         style="fill:#0000ff;stroke-width:0.78561;paint-order:stroke fill markers"
         d="m 204,257 a 12,12 0 0 1 -11.80837,11.99847 12,12 0 0 1 -12.18551,-11.61525 12,12 0 0 1 11.41918,-12.36945 12,12 0 0 1 12.55022,11.22019" /><path
         id="lightStateB_7--hidden"
         style="fill:#ff00ff;stroke-width:0.393721;paint-order:stroke fill markers"
         d="m 205.25,246 a 2.25,2.25 0 0 1 -2.21407,2.24971 2.25,2.25 0 0 1 -2.28478,-2.17786 2.25,2.25 0 0 1 2.14109,-2.31927 2.25,2.25 0 0 1 2.35317,2.10379" /></g><g
       inkscape:groupmode="layer"
       id="layer6"
       inkscape:label="Gate6"><path
         id="inputTrigger_6--hidden"
         style="fill:#00ff00;stroke-width:0.57378;paint-order:stroke fill markers"
         d="M 30,223 A 12,12 0 0 1 18.191633,234.99847 12,12 0 0 1 6.0061205,223.38322 12,12 0 0 1 17.425297,211.01377 12,12 0 0 1 29.975524,222.23396" /><path
         id="paramProbability_6--hidden"
         style="fill:#ff0000;stroke-width:0.783066;paint-order:stroke fill markers"
         d="M 59,223 A 12,12 0 0 1 47.191633,234.99847 12,12 0 0 1 35.006121,223.38322 12,12 0 0 1 46.425297,211.01377 12,12 0 0 1 58.975524,222.23396" /><path
         id="inputProbabilityCV_6--hidden"
         style="fill:#00ff00;stroke-width:0.391535;paint-order:stroke fill markers"
         d="M 88,223 A 12,12 0 0 1 76.191633,234.99847 12,12 0 0 1 64.006121,223.38322 12,12 0 0 1 75.425297,211.01377 12,12 0 0 1 87.975524,222.23396" /><path
         id="paramProbabilityCVScale_6--hidden"
         style="fill:#ff0000;stroke-width:0.783066;paint-order:stroke fill markers"
         d="m 117,223 a 12,12 0 0 1 -11.80837,11.99847 12,12 0 0 1 -12.185509,-11.61525 12,12 0 0 1 11.419179,-12.36945 12,12 0 0 1 12.55022,11.22019" /><path
         id="paramMode_6--hidden"
         style="fill:#ff0000;stroke-width:0.783066;paint-order:stroke fill markers"
         transform="scale(1,-1)"
         d="m 146,-223 a 12,12 0 0 1 -11.80837,11.99847 12,12 0 0 1 -12.18551,-11.61525 12,12 0 0 1 11.41918,-12.36945 12,12 0 0 1 12.55022,11.22019" /><path
         id="outputA_6--hidden"
         style="fill:#0000ff;stroke-width:0.78561;paint-order:stroke fill markers"
         d="m 175,223 a 12,12 0 0 1 -11.80837,11.99847 12,12 0 0 1 -12.18551,-11.61525 12,12 0 0 1 11.41918,-12.36945 12,12 0 0 1 12.55022,11.22019" /><path
         id="lightStateA_6--hidden"
         style="fill:#ff00ff;stroke-width:0.393721;paint-order:stroke fill markers"
         d="m 176.25,212 a 2.25,2.25 0 0 1 -2.21407,2.24971 2.25,2.25 0 0 1 -2.28478,-2.17786 2.25,2.25 0 0 1 2.14109,-2.31927 2.25,2.25 0 0 1 2.35317,2.10379" /><path
         id="outputB_6--hidden"
         style="fill:#0000ff;stroke-width:0.78561;paint-order:stroke fill markers"
         d="m 204,223 a 12,12 0 0 1 -11.80837,11.99847 12,12 0 0 1 -12.18551,-11.61525 12,12 0 0 1 11.41918,-12.36945 12,12 0 0 1 12.55022,11.22019" /><path
         id="lightStateB_6--hidden"
         style="fill:#ff00ff;stroke-width:0.393721;paint-order:stroke fill markers"
         d="m 205.25,212 a 2.25,2.25 0 0 1 -2.21407,2.24971 2.25,2.25 0 0 1 -2.28478,-2.17786 2.25,2.25 0 0 1 2.14109,-2.31927 2.25,2.25 0 0 1 2.35317,2.10379" /></g><g
       inkscape:groupmode="layer"
       id="layer7"
       inkscape:label="Gate5"><path
         id="inputTrigger_5--hidden"
         style="fill:#00ff00;stroke-width:0.57378;paint-order:stroke fill markers"
         d="M 30,189 A 12,12 0 0 1 18.191633,200.99847 12,12 0 0 1 6.0061205,189.38322 12,12 0 0 1 17.425297,177.01377 12,12 0 0 1 29.975524,188.23396" /><path
         id="paramProbability_5--hidden"
         style="fill:#ff0000;stroke-width:0.783066;paint-order:stroke fill markers"
         d="M 59,189 A 12,12 0 0 1 47.191633,200.99847 12,12 0 0 1 35.006121,189.38322 12,12 0 0 1 46.425297,177.01377 12,12 0 0 1 58.975524,188.23396" /><path
         id="inputProbabilityCV_5--hidden"
         style="fill:#00ff00;stroke-width:0.391535;paint-order:stroke fill markers"
         d="M 88,189 A 12,12 0 0 1 76.191633,200.99847 12,12 0 0 1 64.006121,189.38322 12,12 0 0 1 75.425297,177.01377 12,12 0 0 1 87.975524,188.23396" /><path
         id="paramProbabilityCVScale_5--hidden"
         style="fill:#ff0000;stroke-width:0.783066;paint-order:stroke fill markers"
         d="m 117,189 a 12,12 0 0 1 -11.80837,11.99847 12,12 0 0 1 -12.185509,-11.61525 12,12 0 0 1 11.419179,-12.36945 12,12 0 0 1 12.55022,11.22019" /><path
         id="paramMode_5--hidden"
         style="fill:#ff0000;stroke-width:0.783066;paint-order:stroke fill markers"
         transform="scale(1,-1)"
         d="m 146,-189 a 12,12 0 0 1 -11.80837,11.99847 12,12 0 0 1 -12.18551,-11.61525 12,12 0 0 1 11.41918,-12.36945 12,12 0 0 1 12.55022,11.22019" /><path
         id="outputA_5--hidden"
         style="fill:#0000ff;stroke-width:0.78561;paint-order:stroke fill markers"
         d="m 175,189 a 12,12 0 0 1 -11.80837,11.99847 12,12 0 0 1 -12.18551,-11.61525 12,12 0 0 1 11.41918,-12.36945 12,12 0 0 1 12.55022,11.22019" /><path
         id="lightStateA_5--hidden"
         style="fill:#ff00ff;stroke-width:0.393721;paint-order:stroke fill markers"
         d="m 176.25,178 a 2.25,2.25 0 0 1 -2.21407,2.24971 2.25,2.25 0 0 1 -2.28478,-2.17786 2.25,2.25 0 0 1 2.14109,-2.31927 2.25,2.25 0 0 1 2.35317,2.10379" /><path
         id="outputB_5--hidden"
         style="fill:#0000ff;stroke-width:0.78561;paint-order:stroke fill markers"
         d="m 204,189 a 12,12 0 0 1 -11.80837,11.99847 12,12 0 0 1 -12.18551,-11.61525 12,12 0 0 1 11.41918,-12.36945 12,12 0 0 1 12.55022,11.22019" /><path
         id="lightStateB_5--hidden"
         style="fill:#ff00ff;stroke-width:0.393721;paint-order:stroke fill markers"
         d="m 205.25,178 a 2.25,2.25 0 0 1 -2.21407,2.24971 2.25,2.25 0 0 1 -2.28478,-2.17786 2.25,2.25 0 0 1 2.14109,-2.31927 2.25,2.25 0 0 1 2.35317,2.10379" /></g><g
       inkscape:groupmode="layer"
       id="layer8"
       inkscape:label="Gate4"><path
         id="inputTrigger_4--hidden"
         style="fill:#00ff00;stroke-width:0.57378;paint-order:stroke fill markers"
         d="M 30,155 A 12,12 0 0 1 18.191633,166.99847 12,12 0 0 1 6.0061205,155.38322 12,12 0 0 1 17.425297,143.01377 12,12 0 0 1 29.975524,154.23396" /><path
         id="paramProbability_4--hidden"
         style="fill:#ff0000;stroke-width:0.783066;paint-order:stroke fill markers"
         d="M 59,155 A 12,12 0 0 1 47.191633,166.99847 12,12 0 0 1 35.006121,155.38322 12,12 0 0 1 46.425297,143.01377 12,12 0 0 1 58.975524,154.23396" /><path
         id="inputProbabilityCV_4--hidden"
         style="fill:#00ff00;stroke-width:0.391535;paint-order:stroke fill markers"
         d="M 88,155 A 12,12 0 0 1 76.191633,166.99847 12,12 0 0 1 64.006121,155.38322 12,12 0 0 1 75.425297,143.01377 12,12 0 0 1 87.975524,154.23396" /><path
         id="paramProbabilityCVScale_4--hidden"
         style="fill:#ff0000;stroke-width:0.783066;paint-order:stroke fill markers"
         d="m 117,155 a 12,12 0 0 1 -11.80837,11.99847 12,12 0 0 1 -12.185509,-11.61525 12,12 0 0 1 11.419179,-12.36945 12,12 0 0 1 12.55022,11.22019" /><path
         id="paramMode_4--hidden"
         style="fill:#ff0000;stroke-width:0.783066;paint-order:stroke fill markers"
         transform="scale(1,-1)"
         d="m 146,-155 a 12,12 0 0 1 -11.80837,11.99847 12,12 0 0 1 -12.18551,-11.61525 12,12 0 0 1 11.41918,-12.36945 12,12 0 0 1 12.55022,11.22019" /><path
         id="outputA_4--hidden"
         style="fill:#0000ff;stroke-width:0.78561;paint-order:stroke fill markers"
         d="m 175,155 a 12,12 0 0 1 -11.80837,11.99847 12,12 0 0 1 -12.18551,-11.61525 12,12 0 0 1 11.41918,-12.36945 12,12 0 0 1 12.55022,11.22019" /><path
         id="lightStateA_4--hidden"
         style="fill:#ff00ff;stroke-width:0.393721;paint-order:stroke fill markers"
         d="m 176.25,144 a 2.25,2.25 0 0 1 -2.21407,2.24971 2.25,2.25 0 0 1 -2.28478,-2.17786 2.25,2.25 0 0 1 2.14109,-2.31927 2.25,2.25 0 0 1 2.35317,2.10379" /><path
         id="outputB_4--hidden"
         style="fill:#0000ff;stroke-width:0.78561;paint-order:stroke fill markers"
         d="m 204,155 a 12,12 0 0 1 -11.80837,11.99847 12,12 0 0 1 -12.18551,-11.61525 12,12 0 0 1 11.41918,-12.36945 12,12 0 0 1 12.55022,11.22019" /><path
         id="lightStateB_4--hidden"
         style="fill:#ff00ff;stroke-width:0.393721;paint-order:stroke fill markers"
         d="m 205.25,144 a 2.25,2.25 0 0 1 -2.21407,2.24971 2.25,2.25 0 0 1 -2.28478,-2.17786 2.25,2.25 0 0 1 2.14109,-2.31927 2.25,2.25 0 0 1 2.35317,2.10379" /></g><g
       inkscape:groupmode="layer"
       id="layer9"
       inkscape:label="Gate3"><path
         id="inputTrigger_3--hidden"
         style="fill:#00ff00;stroke-width:0.57378;paint-order:stroke fill markers"
         d="M 30,121 A 12,12 0 0 1 18.191633,132.99847 12,12 0 0 1 6.0061205,121.38322 12,12 0 0 1 17.425297,109.01377 12,12 0 0 1 29.975524,120.23396" /><path
         id="paramProbability_3--hidden"
         style="fill:#ff0000;stroke-width:0.783066;paint-order:stroke fill markers"
         d="M 59,121 A 12,12 0 0 1 47.191633,132.99847 12,12 0 0 1 35.006121,121.38322 12,12 0 0 1 46.425297,109.01377 12,12 0 0 1 58.975524,120.23396" /><path
         id="inputProbabilityCV_3--hidden"
         style="fill:#00ff00;stroke-width:0.391535;paint-order:stroke fill markers"
         d="M 88,121 A 12,12 0 0 1 76.191633,132.99847 12,12 0 0 1 64.006121,121.38322 12,12 0 0 1 75.425297,109.01377 12,12 0 0 1 87.975524,120.23396" /><path
         id="paramProbabilityCVScale_3--hidden"
         style="fill:#ff0000;stroke-width:0.783066;paint-order:stroke fill markers"
         d="m 117,121 a 12,12 0 0 1 -11.80837,11.99847 12,12 0 0 1 -12.185509,-11.61525 12,12 0 0 1 11.419179,-12.36945 12,12 0 0 1 12.55022,11.22019" /><path
         id="paramMode_3--hidden"
         style="fill:#ff0000;stroke-width:0.783066;paint-order:stroke fill markers"
         transform="scale(1,-1)"
         d="m 146,-121 a 12,12 0 0 1 -11.80837,11.99847 12,12 0 0 1 -12.18551,-11.61525 12,12 0 0 1 11.41918,-12.36945 12,12 0 0 1 12.55022,11.22019" /><path
         id="outputA_3--hidden"
         style="fill:#0000ff;stroke-width:0.78561;paint-order:stroke fill markers"
         d="m 175,121 a 12,12 0 0 1 -11.80837,11.99847 12,12 0 0 1 -12.18551,-11.61525 12,12 0 0 1 11.41918,-12.36945 12,12 0 0 1 12.55022,11.22019" /><path
         id="lightStateA_3--hidden"
         style="fill:#ff00ff;stroke-width:0.396858;paint-order:stroke fill markers"
         d="m 176.25,110 a 2.25,2.25 0 0 1 -2.21407,2.24971 2.25,2.25 0 0 1 -2.28478,-2.17786 2.25,2.25 0 0 1 2.14109,-2.31927 2.25,2.25 0 0 1 2.35317,2.10379" /><path
         id="outputB_3--hidden"
         style="fill:#0000ff;stroke-width:0.78561;paint-order:stroke fill markers"
         d="m 204,121 a 12,12 0 0 1 -11.80837,11.99847 12,12 0 0 1 -12.18551,-11.61525 12,12 0 0 1 11.41918,-12.36945 12,12 0 0 1 12.55022,11.22019" /><path
         id="lightStateB_3--hidden"
         style="fill:#ff00ff;stroke-width:0.393721;paint-order:stroke fill markers"
         d="m 205.25,110 a 2.25,2.25 0 0 1 -2.21407,2.24971 2.25,2.25 0 0 1 -2.28478,-2.17786 2.25,2.25 0 0 1 2.14109,-2.31927 2.25,2.25 0 0 1 2.35317,2.10379" /></g><g
       inkscape:groupmode="layer"
       id="layer10"
       inkscape:label="Gate2"><path
         id="inputTrigger_2--hidden"
         style="fill:#00ff00;stroke-width:0.57378;paint-order:stroke fill markers"
         d="M 30,87 A 12,12 0 0 1 18.191633,98.99847 12,12 0 0 1 6.0061205,87.383217 12,12 0 0 1 17.425297,75.01377 12,12 0 0 1 29.975524,86.233958" /><path
         id="paramProbability_2--hidden"
         style="fill:#ff0000;stroke-width:0.783066;paint-order:stroke fill markers"
         d="M 59,87 A 12,12 0 0 1 47.191633,98.99847 12,12 0 0 1 35.006121,87.383217 12,12 0 0 1 46.425297,75.01377 12,12 0 0 1 58.975524,86.233958" /><path
         id="inputProbabilityCV_2--hidden"
         style="fill:#00ff00;stroke-width:0.391535;paint-order:stroke fill markers"
         d="M 88,87 A 12,12 0 0 1 76.191633,98.99847 12,12 0 0 1 64.006121,87.383217 12,12 0 0 1 75.425297,75.01377 12,12 0 0 1 87.975524,86.233958" /><path
         id="paramProbabilityCVScale_2--hidden"
         style="fill:#ff0000;stroke-width:0.783066;paint-order:stroke fill markers"
         d="M 117,87 A 12,12 0 0 1 105.19163,98.99847 12,12 0 0 1 93.006121,87.383217 12,12 0 0 1 104.4253,75.01377 12,12 0 0 1 116.97552,86.233958" /><path
         id="paramMode_2--hidden"
         style="fill:#ff0000;stroke-width:0.783066;paint-order:stroke fill markers"
         transform="scale(1,-1)"
         d="m 146,-87 a 12,12 0 0 1 -11.80837,11.99847 12,12 0 0 1 -12.18551,-11.615253 12,12 0 0 1 11.41918,-12.369447 12,12 0 0 1 12.55022,11.220188" /><path
         id="outputA_2--hidden"
         style="fill:#0000ff;stroke-width:0.78561;paint-order:stroke fill markers"
         d="M 175,87 A 12,12 0 0 1 163.19163,98.99847 12,12 0 0 1 151.00612,87.383217 12,12 0 0 1 162.4253,75.01377 12,12 0 0 1 174.97552,86.233958" /><path
         id="lightStateA_2--hidden"
         style="fill:#ff00ff;stroke-width:0.393721;paint-order:stroke fill markers"
         d="m 176.25,76 a 2.25,2.25 0 0 1 -2.21407,2.249713 2.25,2.25 0 0 1 -2.28478,-2.17786 2.25,2.25 0 0 1 2.14109,-2.319271 2.25,2.25 0 0 1 2.35317,2.103785" /><path
         id="outputB_2--hidden"
         style="fill:#0000ff;stroke-width:0.78561;paint-order:stroke fill markers"
         d="M 204,87 A 12,12 0 0 1 192.19163,98.99847 12,12 0 0 1 180.00612,87.383217 12,12 0 0 1 191.4253,75.01377 12,12 0 0 1 203.97552,86.233958" /><path
         id="lightStateB_2--hidden"
         style="fill:#ff00ff;stroke-width:0.393721;paint-order:stroke fill markers"
         d="m 205.25,76 a 2.25,2.25 0 0 1 -2.21407,2.249713 2.25,2.25 0 0 1 -2.28478,-2.17786 2.25,2.25 0 0 1 2.14109,-2.319271 2.25,2.25 0 0 1 2.35317,2.103785" /></g><g
       inkscape:groupmode="layer"
       id="layer11"
       inkscape:label="Gate1"><path
         id="inputTrigger_1--hidden"
         style="fill:#00ff00;stroke-width:0.57378;paint-order:stroke fill markers"
         d="M 30,52.999996 A 12,12 0 0 1 18.191633,64.998466 12,12 0 0 1 6.0061205,53.383213 12,12 0 0 1 17.425297,41.013766 12,12 0 0 1 29.975524,52.233954" /><path
         id="paramProbability_1--hidden"
         style="fill:#ff0000;stroke-width:0.783066;paint-order:stroke fill markers"
         d="M 59,52.999996 A 12,12 0 0 1 47.191633,64.998466 12,12 0 0 1 35.006121,53.383213 12,12 0 0 1 46.425297,41.013766 12,12 0 0 1 58.975524,52.233954" /><path
         id="inputProbabilityCV_1--hidden"
         style="fill:#00ff00;stroke-width:0.391535;paint-order:stroke fill markers"
         d="M 88,52.999996 A 12,12 0 0 1 76.191633,64.998466 12,12 0 0 1 64.006121,53.383213 12,12 0 0 1 75.425297,41.013766 12,12 0 0 1 87.975524,52.233954" /><path
         id="paramProbabilityCVScale_1--hidden"
         style="fill:#ff0000;stroke-width:0.783066;paint-order:stroke fill markers"
         inkscape:label="paramProbabilityCVScale_1--hidden"
         d="M 117,52.999996 A 12,12 0 0 1 105.19163,64.998466 12,12 0 0 1 93.006121,53.383213 12,12 0 0 1 104.4253,41.013766 12,12 0 0 1 116.97552,52.233954" /><path
         id="paramMode_1--hidden"
         style="fill:#ff0000;stroke-width:0.783066;paint-order:stroke fill markers"
         transform="scale(1,-1)"
         d="m 146,-52.999996 a 12,12 0 0 1 -11.80837,11.99847 12,12 0 0 1 -12.18551,-11.615254 12,12 0 0 1 11.41918,-12.369446 12,12 0 0 1 12.55022,11.220187" /><path
         id="outputA_1--hidden"
         style="fill:#0000ff;stroke-width:0.78561;paint-order:stroke fill markers"
         d="M 175,52.999996 A 12,12 0 0 1 163.19163,64.998466 12,12 0 0 1 151.00612,53.383213 12,12 0 0 1 162.4253,41.013766 12,12 0 0 1 174.97552,52.233954" /><path
         id="outputB_1--hidden"
         style="fill:#0000ff;stroke-width:0.78561;paint-order:stroke fill markers"
         d="M 204,52.999996 A 12,12 0 0 1 192.19163,64.998466 12,12 0 0 1 180.00612,53.383213 12,12 0 0 1 191.4253,41.013766 12,12 0 0 1 203.97552,52.233954" /><path
         id="lightStateA_1--hidden"
         style="fill:#ff00ff;stroke-width:0.393721;paint-order:stroke fill markers"
         d="m 176.25,42 a 2.25,2.25 0 0 1 -2.21407,2.249713 2.25,2.25 0 0 1 -2.28478,-2.17786 2.25,2.25 0 0 1 2.14109,-2.319271 2.25,2.25 0 0 1 2.35317,2.103785" /><path
         id="lightStateB_1--hidden"
         style="fill:#ff00ff;stroke-width:0.393721;paint-order:stroke fill markers"
         d="m 205.25,42 a 2.25,2.25 0 0 1 -2.21407,2.249713 2.25,2.25 0 0 1 -2.28478,-2.17786 2.25,2.25 0 0 1 2.14109,-2.319271 2.25,2.25 0 0 1 2.35317,2.103785" /></g></g></svg>
