<?xml version="1.0" encoding="UTF-8" standalone="no"?>
<!-- Created with Inkscape (http://www.inkscape.org/) -->

<svg
   width="71.120003mm"
   height="128.5mm"
   viewBox="0 0 71.12001 128.50002"
   version="1.1"
   id="svg8"
   inkscape:version="1.4 (86a8ad7, 2024-10-11)"
   sodipodi:docname="Bernoulli.svg"
   xml:space="preserve"
   xmlns:inkscape="http://www.inkscape.org/namespaces/inkscape"
   xmlns:sodipodi="http://sodipodi.sourceforge.net/DTD/sodipodi-0.dtd"
   xmlns="http://www.w3.org/2000/svg"
   xmlns:svg="http://www.w3.org/2000/svg"
   xmlns:rdf="http://www.w3.org/1999/02/22-rdf-syntax-ns#"
   xmlns:cc="http://creativecommons.org/ns#"
   xmlns:dc="http://purl.org/dc/elements/1.1/"><defs
     id="defs2"><rect
       x="90"
       y="400"
       width="49.999996"
       height="50"
       id="rect1" /><linearGradient
       id="uuid-f0636bc7-c65b-4b70-b857-f875576c11d6"
       x1="37.5"
       y1="0"
       x2="37.5"
       y2="380"
       gradientUnits="userSpaceOnUse"><stop
         offset="0"
         stop-color="#ebebeb"
         id="stop2" /><stop
         offset="1"
         stop-color="#e1e1e1"
         id="stop4" /></linearGradient><rect
       x="90"
       y="400"
       width="49.999996"
       height="50"
       id="rect1-3" /><rect
       x="90"
       y="400"
       width="49.999996"
       height="50"
       id="rect1-3-6" /><rect
       x="90"
       y="400"
       width="64.788734"
       height="55.488926"
       id="rect1-3-6-5" /><rect
       x="90"
       y="400"
       width="64.788734"
       height="55.488926"
       id="rect5" /><rect
       x="90"
       y="400"
       width="64.788734"
       height="55.488926"
       id="rect6" /><rect
       x="90"
       y="400"
       width="64.788734"
       height="55.488926"
       id="rect6-0" /></defs><sodipodi:namedview
     id="base"
     pagecolor="#ffffff"
     bordercolor="#666666"
     borderopacity="1.0"
     inkscape:pageopacity="0.0"
     inkscape:pageshadow="2"
     inkscape:zoom="2.0000001"
     inkscape:cx="28.249999"
     inkscape:cy="379.49998"
     inkscape:document-units="mm"
     inkscape:current-layer="layer1"
     showgrid="true"
     units="mm"
     inkscape:snap-bbox="true"
     inkscape:snap-page="true"
     inkscape:bbox-nodes="false"
     inkscape:snap-bbox-edge-midpoints="false"
     inkscape:window-width="1920"
     inkscape:window-height="1027"
     inkscape:window-x="-8"
     inkscape:window-y="22"
     inkscape:window-maximized="1"
     inkscape:snap-bbox-midpoints="true"
     inkscape:snap-nodes="false"
     inkscape:showpageshadow="2"
     inkscape:pagecheckerboard="0"
     inkscape:deskcolor="#d1d1d1"
     showguides="true"><inkscape:grid
       id="grid1"
       units="px"
       originx="0"
       originy="0"
       spacingx="0.26458336"
       spacingy="0.26458338"
       empcolor="#3f3fff"
       empopacity="0.25098039"
       color="#3f3fff"
       opacity="0.1254902"
       empspacing="5"
       dotted="false"
       gridanglex="30"
       gridanglez="30"
       visible="true" /></sodipodi:namedview><metadata
     id="metadata5"><rdf:RDF><cc:Work
         rdf:about=""><dc:format>image/svg+xml</dc:format><dc:type
           rdf:resource="http://purl.org/dc/dcmitype/StillImage" /></cc:Work></rdf:RDF></metadata><g
     inkscape:label="Layer 1"
     inkscape:groupmode="layer"
     id="layer1"
     transform="translate(0,-168.49998)"
     style="display:inline"><path
       id="bg--background-fill"
       style="display:inline;opacity:1;vector-effect:none;fill:#1f1f1f;fill-rule:evenodd;stroke-width:0.99191"
       d="m 0,168.49998 h 71.120003 v 128.5 H 0 Z" /><path
       id="footer--hidden"
       style="display:inline;fill:#707070;stroke-width:0.960782;paint-order:stroke fill markers"
       d="m 0,285.09399 h 71.120003 v 11.906 H 0 Z" /><path
       id="header--hidden"
       style="display:inline;fill:#707070;stroke-width:0.960782;paint-order:stroke fill markers"
       d="m 0,168.49998 h 71.120003 v 11.906 H 0 Z" /><path
       style="font-size:4.93889px;line-height:1.25;font-family:nunito;-inkscape-font-specification:nunito;letter-spacing:0px;word-spacing:0px;fill:#ffffff;stroke-width:0.264583"
       d="m 42.139735,176.20981 h 1.106909 q 0.301446,0 0.545014,-0.0796 0.24598,-0.0796 0.397909,-0.21222 0.151929,-0.13505 0.23151,-0.29904 0.08199,-0.16639 0.08199,-0.34726 0,-0.37138 -0.212218,-0.59325 -0.209807,-0.22186 -0.581188,-0.27492 v -0.01 q 0.318327,-0.0579 0.482313,-0.2701 0.163987,-0.21222 0.163987,-0.53295 0,-0.85852 -1.239546,-0.85852 h -0.976684 q -0.151929,0 -0.258038,0.0941 -0.103698,0.0941 -0.103698,0.24839 v 2.73472 q 0,0.20016 0.09646,0.30144 0.09887,0.0989 0.265273,0.0989 z m 0.32315,-0.50884 v -1.03215 h 0.465432 q 0.180868,0 0.303858,0.012 0.12299,0.01 0.236333,0.041 0.115755,0.0314 0.180868,0.0892 0.06752,0.0555 0.106109,0.14952 0.03858,0.094 0.03858,0.2291 0,0.16157 -0.04582,0.26527 -0.04341,0.10128 -0.142282,0.15675 -0.09887,0.0531 -0.219453,0.0724 -0.120578,0.0169 -0.311092,0.0169 z m 0,-1.50723 v -0.95498 h 0.598068 q 0.125402,0 0.212218,0.01 0.08682,0.007 0.171222,0.0338 0.0844,0.0265 0.135047,0.0747 0.05064,0.0458 0.07958,0.12541 0.03135,0.0796 0.03135,0.19292 0,0.28939 -0.159163,0.40514 -0.159164,0.11335 -0.532956,0.11335 z m 3.007224,2.01607 h 1.786972 q 0.115755,0 0.183279,-0.0796 0.06994,-0.082 0.06994,-0.19052 0,-0.10852 -0.06994,-0.19051 -0.06752,-0.082 -0.183279,-0.082 h -1.439706 v -0.96704 h 1.290188 q 0.118167,0 0.188103,-0.0796 0.07235,-0.0796 0.07235,-0.18811 0,-0.10852 -0.06994,-0.1881 -0.06994,-0.0796 -0.190514,-0.0796 h -1.290188 v -0.88746 h 1.38424 q 0.118166,0 0.188102,-0.082 0.06994,-0.082 0.06994,-0.19051 0,-0.10853 -0.06994,-0.19052 -0.06994,-0.082 -0.188102,-0.082 H 45.48699 q -0.171221,0 -0.265272,0.11575 -0.09164,0.11335 -0.09164,0.2918 v 2.68167 q 0,0.15192 0.09887,0.27009 0.09887,0.11817 0.241157,0.11817 z m 3.033752,-0.002 q 0.142282,0 0.243568,-0.0941 0.103697,-0.0941 0.103697,-0.26287 v -1.13102 h 0.631831 0.0096 q 0.16881,0 0.277331,0.0314 0.110932,0.0314 0.178456,0.10611 0.06752,0.0724 0.09887,0.17363 0.03135,0.10129 0.04823,0.26286 l 0.06029,0.55707 q 0.01688,0.17605 0.120579,0.26769 0.103697,0.0892 0.248391,0.0892 0.139871,0 0.231511,-0.0916 0.09405,-0.0916 0.09405,-0.25563 0,-0.041 -0.0024,-0.0627 l -0.06752,-0.56913 q -0.03858,-0.34244 -0.204983,-0.54019 -0.163986,-0.20016 -0.499194,-0.26527 v -0.01 q 0.393085,-0.0627 0.588422,-0.27492 0.195337,-0.21463 0.195337,-0.52331 0,-0.88504 -1.270896,-0.88504 h -1.063501 q -0.151929,0 -0.260449,0.10128 -0.106109,0.0989 -0.106109,0.25322 v 2.76606 q 0,0.1664 0.101285,0.26287 0.101286,0.0941 0.243569,0.0941 z m 0.344854,-2.0016 v -0.95498 h 0.588422 0.05064 q 0.08682,0 0.142283,0.002 0.05547,0.002 0.135048,0.012 0.07958,0.007 0.127813,0.0265 0.05064,0.0169 0.10852,0.0506 0.05788,0.0338 0.08923,0.082 0.03376,0.0482 0.05547,0.12299 0.0217,0.0723 0.0217,0.1664 0,0.0989 -0.02653,0.17604 -0.02653,0.0772 -0.06752,0.12781 -0.041,0.0507 -0.110932,0.0868 -0.06752,0.0362 -0.132636,0.0555 -0.0627,0.0193 -0.156752,0.0314 -0.09164,0.01 -0.161575,0.0121 -0.06752,0.002 -0.16881,0.002 z m 3.024106,2.00401 q 0.125401,0 0.219452,-0.0844 0.09405,-0.0844 0.09405,-0.21945 v -2.13665 l 1.574754,2.18006 q 0.07958,0.11334 0.20016,0.1881 0.120578,0.0724 0.224276,0.0724 0.163986,0 0.265272,-0.13023 0.101286,-0.13263 0.101286,-0.34003 v -2.70336 q 0,-0.13746 -0.09405,-0.22187 -0.09164,-0.0844 -0.21463,-0.0844 -0.125401,0 -0.219452,0.0868 -0.09164,0.0844 -0.09164,0.21946 v 2.13664 l -1.586811,-2.19693 q -0.07476,-0.11335 -0.192926,-0.17846 -0.115755,-0.0651 -0.224275,-0.0651 -0.154341,0 -0.26045,0.11334 -0.103697,0.11093 -0.103697,0.30386 v 2.75642 q 0,0.13746 0.09164,0.22187 0.09405,0.082 0.217041,0.082 z m 5.018471,-0.48232 q -0.487136,0 -0.725881,-0.32797 -0.236334,-0.33038 -0.236334,-0.94533 0,-0.61013 0.238745,-0.94051 0.238745,-0.3328 0.72347,-0.3328 0.487137,0 0.723471,0.33038 0.238745,0.33039 0.238745,0.94293 0,0.61495 -0.238745,0.94533 -0.238745,0.32797 -0.723471,0.32797 z m 0,0.54502 q 0.812699,0 1.251604,-0.48473 0.438905,-0.48472 0.438905,-1.33359 0,-0.84887 -0.438905,-1.3336 -0.438905,-0.48714 -1.251604,-0.48714 -0.807875,0 -1.249191,0.48714 -0.441317,0.48473 -0.441317,1.3336 0,0.84887 0.441317,1.33359 0.441316,0.48473 1.249191,0.48473 z m 3.766868,0 q 0.303857,0 0.561895,-0.0796 0.260449,-0.0796 0.458198,-0.23151 0.197748,-0.15434 0.308681,-0.39791 0.113343,-0.24357 0.113343,-0.55466 v -1.93167 q 0,-0.16157 -0.103697,-0.26045 -0.101286,-0.0989 -0.241157,-0.0989 -0.142282,0 -0.24598,0.0989 -0.101286,0.0989 -0.101286,0.26045 v 1.91479 q 0,0.1881 -0.06511,0.3352 -0.0627,0.1447 -0.171221,0.2291 -0.108521,0.0844 -0.238745,0.12782 -0.130225,0.0434 -0.274919,0.0434 -0.144694,0 -0.274919,-0.0434 -0.127813,-0.0434 -0.233922,-0.12782 -0.106109,-0.0844 -0.171221,-0.2291 -0.0627,-0.1471 -0.0627,-0.3352 v -1.91479 q 0,-0.16157 -0.103697,-0.26045 -0.101286,-0.0989 -0.243568,-0.0989 -0.142283,0 -0.243569,0.0989 -0.101286,0.0989 -0.101286,0.26045 v 1.93167 q 0,0.31109 0.110932,0.55707 0.110933,0.24357 0.308681,0.39791 0.197749,0.15193 0.453375,0.23151 0.258037,0.0772 0.561895,0.0772 z m 2.587613,-0.0627 h 1.702566 q 0.118167,0 0.188103,-0.082 0.07235,-0.082 0.07235,-0.19052 0,-0.11093 -0.07235,-0.19292 -0.06994,-0.0844 -0.188103,-0.0844 h -1.360124 l -0.0024,-2.56591 q 0,-0.16157 -0.101286,-0.26045 -0.101286,-0.0989 -0.241157,-0.0989 -0.142282,0 -0.24598,0.0989 -0.103697,0.0989 -0.103697,0.26045 v 2.69372 q 0,0.17364 0.09887,0.29904 0.09887,0.12299 0.253215,0.12299 z m 2.751598,0 h 1.702567 q 0.118167,0 0.188102,-0.082 0.07235,-0.082 0.07235,-0.19052 0,-0.11093 -0.07235,-0.19292 -0.06994,-0.0844 -0.188102,-0.0844 h -1.360124 l -0.0024,-2.56591 q 0,-0.16157 -0.101286,-0.26045 -0.101285,-0.0989 -0.241156,-0.0989 -0.142283,0 -0.24598,0.0989 -0.103698,0.0989 -0.103698,0.26045 v 2.69372 q 0,0.17364 0.09888,0.29904 0.09887,0.12299 0.253214,0.12299 z m 2.773303,-0.002 q 0.142282,0 0.245979,-0.0989 0.103698,-0.0989 0.103698,-0.26045 v -2.76124 q 0,-0.16158 -0.103698,-0.26045 -0.103697,-0.0989 -0.243568,-0.0989 -0.139871,0 -0.243568,0.0989 -0.101286,0.0989 -0.101286,0.26045 v 2.76124 q 0,0.16158 0.101286,0.26045 0.101286,0.0989 0.241157,0.0989 z"
       id="moduleName--moduleName"
       aria-label="BERNOULLI" /><path
       id="outBlockB--output-fill"
       style="display:inline;fill:#838383;stroke-width:0.95691;paint-order:stroke fill markers"
       d="m 60.338619,181.72914 h 8.295923 c 0.291702,0 0.526538,0.46435 0.526538,1.04115 v 95.5563 c 0,0.5768 -0.234836,1.04115 -0.526538,1.04115 h -8.295923 c -0.291703,0 -0.526539,-0.46435 -0.526539,-1.04115 v -95.5563 c 0,-0.5768 0.234836,-1.04115 0.526539,-1.04115 z" /><path
       id="outBlockA--output-fill"
       style="display:inline;fill:#838383;stroke-width:0.95691;paint-order:stroke fill markers"
       d="m 49.666702,181.72914 h 8.295923 c 0.291702,0 0.526538,0.46435 0.526538,1.04115 v 95.5563 c 0,0.5768 -0.234836,1.04115 -0.526538,1.04115 h -8.295923 c -0.291703,0 -0.526539,-0.46435 -0.526539,-1.04115 v -95.5563 c 0,-0.5768 0.234836,-1.04115 0.526539,-1.04115 z" /><path
       style="font-size:9.33333px;line-height:1.25;font-family:Nunito;-inkscape-font-specification:Nunito;letter-spacing:0px;word-spacing:0px;white-space:pre;fill:#ffffff"
       d="m 92.743489,408.49672 q 0.26888,0 0.460286,-0.18685 0.195963,-0.1914 0.195963,-0.49674 v -4.85807 h 1.48112 q 0.227864,0 0.364583,-0.15495 0.136719,-0.15495 0.136719,-0.36458 0,-0.20508 -0.141276,-0.36003 -0.136719,-0.1595 -0.360026,-0.1595 H 90.60612 q -0.227865,0 -0.369141,0.1595 -0.136719,0.15495 -0.136719,0.36458 0,0.20964 0.136719,0.36459 0.136719,0.15039 0.369141,0.15039 h 1.485676 v 4.85807 q 0,0.30534 0.191406,0.49674 0.195964,0.18685 0.460287,0.18685 z m 4.156248,-0.009 q 0.26888,0 0.460286,-0.17774 0.195964,-0.17773 0.195964,-0.49674 v -2.13737 h 1.19401 0.01823 q 0.31901,0 0.524089,0.0592 0.209635,0.0592 0.337239,0.20053 0.127604,0.13671 0.186849,0.32812 0.05925,0.19141 0.09115,0.49675 l 0.113931,1.05273 q 0.0319,0.33268 0.22787,0.50586 0.19596,0.16862 0.4694,0.16862 0.26432,0 0.4375,-0.17318 0.17773,-0.17318 0.17773,-0.48307 0,-0.0775 -0.005,-0.11849 l -0.1276,-1.07552 q -0.0729,-0.64714 -0.38737,-1.02083 -0.3099,-0.37826 -0.94336,-0.50131 v -0.0182 q 0.74284,-0.11849 1.11198,-0.51953 0.36914,-0.4056 0.36914,-0.98893 0,-1.67252 -2.401692,-1.67252 h -2.009765 q -0.287109,0 -0.492188,0.1914 -0.20052,0.18685 -0.20052,0.47852 v 5.22721 q 0,0.31445 0.191406,0.49674 0.191406,0.17774 0.460286,0.17774 z m 0.651693,-3.78255 v -1.80469 h 1.111978 0.0957 q 0.164062,0 0.26888,0.005 0.104817,0.005 0.255208,0.0228 0.15039,0.0137 0.241536,0.0501 0.0957,0.0319 0.205078,0.0957 0.109375,0.0638 0.16862,0.15495 0.0638,0.0911 0.104816,0.23242 0.041,0.13672 0.041,0.31445 0,0.18685 -0.05013,0.33268 -0.05013,0.14584 -0.127604,0.24154 -0.07747,0.0957 -0.209635,0.16406 -0.127604,0.0684 -0.250651,0.10482 -0.11849,0.0365 -0.296224,0.0592 -0.173177,0.0182 -0.305339,0.0228 -0.127604,0.005 -0.31901,0.005 z m 5.85612,3.78255 q 0.26888,0 0.46484,-0.18685 0.19596,-0.18685 0.19596,-0.49219 v -5.2181 q 0,-0.30533 -0.19596,-0.49218 -0.19596,-0.18685 -0.46028,-0.18685 -0.26433,0 -0.46029,0.18685 -0.19141,0.18685 -0.19141,0.49218 v 5.2181 q 0,0.30534 0.19141,0.49219 0.1914,0.18685 0.45573,0.18685 z m 5.29557,0.12305 q 0.68815,0 1.9095,-0.26889 0.3418,-0.082 0.48308,-0.27343 0.14583,-0.19141 0.14583,-0.60612 v -1.91406 q 0,-0.61524 -0.49675,-0.61524 h -1.76367 q -0.20052,0 -0.31445,0.14584 -0.10937,0.14127 -0.10937,0.32356 0,0.19597 0.11848,0.33268 0.11849,0.13217 0.32357,0.13217 h 0.95248 v 1.55403 q -0.60157,0.14128 -1.1849,0.14128 -2.00976,0 -2.00976,-2.39258 0,-0.55143 0.11393,-0.97982 0.11393,-0.42838 0.35547,-0.74739 0.24153,-0.32357 0.64257,-0.49219 0.40105,-0.17318 0.94336,-0.17318 0.64258,0 1.5905,0.29167 0.0684,0.0365 0.15495,0.0365 0.20052,0 0.32812,-0.15951 0.1276,-0.16406 0.1276,-0.36914 0,-0.1276 -0.0729,-0.24609 -0.0729,-0.12305 -0.21419,-0.19596 -0.83855,-0.40105 -1.9642,-0.40105 -0.83398,0 -1.49023,0.26888 -0.65625,0.26888 -1.06641,0.74284 -0.41015,0.47396 -0.61979,1.08919 -0.20963,0.61524 -0.20963,1.33985 0,1.10742 0.41471,1.88672 0.41471,0.77929 1.15755,1.16666 0.74284,0.38282 1.75456,0.38282 z m 6.83138,0 q 0.68815,0 1.9095,-0.26889 0.3418,-0.082 0.48307,-0.27343 0.14584,-0.19141 0.14584,-0.60612 v -1.91406 q 0,-0.61524 -0.49675,-0.61524 h -1.76367 q -0.20052,0 -0.31445,0.14584 -0.10938,0.14127 -0.10938,0.32356 0,0.19597 0.11849,0.33268 0.11849,0.13217 0.32357,0.13217 h 0.95247 v 1.55403 q -0.60156,0.14128 -1.18489,0.14128 -2.00977,0 -2.00977,-2.39258 0,-0.55143 0.11394,-0.97982 0.11393,-0.42838 0.35546,-0.74739 0.24154,-0.32357 0.64258,-0.49219 0.40104,-0.17318 0.94336,-0.17318 0.64258,0 1.59049,0.29167 0.0684,0.0365 0.15495,0.0365 0.20052,0 0.32813,-0.15951 0.1276,-0.16406 0.1276,-0.36914 0,-0.1276 -0.0729,-0.24609 -0.0729,-0.12305 -0.2142,-0.19596 -0.83854,-0.40105 -1.96419,-0.40105 -0.83398,0 -1.49023,0.26888 -0.65625,0.26888 -1.06641,0.74284 -0.41016,0.47396 -0.61979,1.08919 -0.20964,0.61524 -0.20964,1.33985 0,1.10742 0.41472,1.88672 0.41471,0.77929 1.15755,1.16666 0.74284,0.38282 1.75456,0.38282 z m 4.42057,-0.11849 h 3.37695 q 0.21875,0 0.34635,-0.1504 0.13217,-0.15494 0.13217,-0.36002 0,-0.20508 -0.13217,-0.36003 -0.1276,-0.15494 -0.34635,-0.15494 h -2.7207 v -1.82748 h 2.43815 q 0.22331,0 0.35547,-0.15039 0.13672,-0.15039 0.13672,-0.35547 0,-0.20508 -0.13217,-0.35547 -0.13216,-0.15039 -0.36002,-0.15039 h -2.43815 v -1.67708 h 2.61588 q 0.22331,0 0.35547,-0.15495 0.13216,-0.15495 0.13216,-0.36002 0,-0.20508 -0.13216,-0.36003 -0.13216,-0.15495 -0.35547,-0.15495 h -3.24023 q -0.32357,0 -0.5013,0.21875 -0.17318,0.2142 -0.17318,0.55144 v 5.0677 q 0,0.28711 0.18685,0.51042 0.18685,0.22331 0.45573,0.22331 z m 5.73307,-0.005 q 0.26888,0 0.46028,-0.17774 0.19597,-0.17773 0.19597,-0.49674 v -2.13737 h 1.19401 0.0182 q 0.31901,0 0.52409,0.0592 0.20963,0.0592 0.33723,0.20053 0.12761,0.13671 0.18685,0.32812 0.0592,0.19141 0.0911,0.49675 l 0.11393,1.05273 q 0.0319,0.33268 0.22787,0.50586 0.19596,0.16862 0.4694,0.16862 0.26432,0 0.4375,-0.17318 0.17773,-0.17318 0.17773,-0.48307 0,-0.0775 -0.005,-0.11849 l -0.1276,-1.07552 q -0.0729,-0.64714 -0.38737,-1.02083 -0.3099,-0.37826 -0.94336,-0.50131 v -0.0182 q 0.74284,-0.11849 1.11198,-0.51953 0.36914,-0.4056 0.36914,-0.98893 0,-1.67252 -2.40169,-1.67252 h -2.00977 q -0.28711,0 -0.49218,0.1914 -0.20052,0.18685 -0.20052,0.47852 v 5.22721 q 0,0.31445 0.1914,0.49674 0.19141,0.17774 0.46029,0.17774 z m 0.65169,-3.78255 v -1.80469 h 1.11198 0.0957 q 0.16406,0 0.26888,0.005 0.10482,0.005 0.25521,0.0228 0.15039,0.0137 0.24154,0.0501 0.0957,0.0319 0.20508,0.0957 0.10937,0.0638 0.16861,0.15495 0.0638,0.0911 0.10482,0.23242 0.041,0.13672 0.041,0.31445 0,0.18685 -0.0501,0.33268 -0.0501,0.14584 -0.12761,0.24154 -0.0775,0.0957 -0.20963,0.16406 -0.12761,0.0684 -0.25065,0.10482 -0.11849,0.0365 -0.29623,0.0592 -0.17317,0.0182 -0.30533,0.0228 -0.12761,0.005 -0.31902,0.005 z"
       id="textTrig--text"
       transform="matrix(0,0.26458333,-0.26458333,0,113.84263,246.75748)"
       aria-label="TRIGGER" /><path
       style="font-size:9.33333px;line-height:1.25;font-family:Nunito;-inkscape-font-specification:Nunito;letter-spacing:0px;word-spacing:0px;white-space:pre;fill:#ffffff"
       d="m 91.421875,408.49672 q 0.26888,0 0.460286,-0.18685 0.195963,-0.18685 0.195963,-0.49218 v -1.93685 h 1.271484 q 2.492838,0 2.492838,-1.98698 0,-0.54232 -0.16862,-0.92969 -0.16862,-0.39192 -0.496744,-0.61523 -0.323568,-0.22787 -0.751953,-0.32813 -0.423828,-0.10481 -0.988932,-0.10481 h -1.959635 q -0.337239,0 -0.524088,0.22786 -0.186849,0.22786 -0.186849,0.57422 v 5.09961 q 0,0.30533 0.195963,0.49218 0.195964,0.18685 0.460287,0.18685 z m 0.656249,-3.5638 v -2.01888 h 1.216797 q 0.31901,0 0.528645,0.0365 0.214193,0.0365 0.38737,0.13672 0.177734,0.10026 0.259766,0.30078 0.08203,0.20052 0.08203,0.50586 0,0.31445 -0.08203,0.51953 -0.08203,0.20508 -0.259766,0.31901 -0.173177,0.10938 -0.396484,0.15495 -0.21875,0.0456 -0.551432,0.0456 z m 5.345702,3.55469 q 0.26888,0 0.460286,-0.17774 0.195963,-0.17773 0.195963,-0.49674 v -2.13737 h 1.19401 0.01823 q 0.31901,0 0.524088,0.0592 0.209637,0.0592 0.337237,0.20053 0.12761,0.13671 0.18685,0.32812 0.0592,0.19141 0.0911,0.49675 l 0.11393,1.05273 q 0.0319,0.33268 0.22786,0.50586 0.19597,0.16862 0.4694,0.16862 0.26433,0 0.4375,-0.17318 0.17774,-0.17318 0.17774,-0.48307 0,-0.0775 -0.005,-0.11849 l -0.1276,-1.07552 q -0.0729,-0.64714 -0.38737,-1.02083 -0.3099,-0.37826 -0.94336,-0.50131 v -0.0182 q 0.74284,-0.11849 1.11198,-0.51953 0.36914,-0.4056 0.36914,-0.98893 0,-1.67252 -2.401694,-1.67252 h -2.009765 q -0.287109,0 -0.492187,0.1914 -0.200521,0.18685 -0.200521,0.47852 v 5.22721 q 0,0.31445 0.191406,0.49674 0.191406,0.17774 0.460287,0.17774 z m 0.651692,-3.78255 v -1.80469 h 1.111979 0.0957 q 0.164062,0 0.26888,0.005 0.104818,0.005 0.255208,0.0228 0.150391,0.0137 0.241532,0.0501 0.0957,0.0319 0.20508,0.0957 0.10938,0.0638 0.16862,0.15495 0.0638,0.0911 0.10482,0.23242 0.041,0.13672 0.041,0.31445 0,0.18685 -0.0501,0.33268 -0.0501,0.14584 -0.12761,0.24154 -0.0775,0.0957 -0.20963,0.16406 -0.12761,0.0684 -0.250655,0.10482 -0.118489,0.0365 -0.296224,0.0592 -0.173177,0.0182 -0.305338,0.0228 -0.127604,0.005 -0.31901,0.005 z m 8.052732,2.87565 q -0.92057,0 -1.37174,-0.61979 -0.44662,-0.62435 -0.44662,-1.78646 0,-1.153 0.45117,-1.77734 0.45117,-0.62891 1.36719,-0.62891 0.92057,0 1.36719,0.62435 0.45117,0.62435 0.45117,1.7819 0,1.16211 -0.45117,1.78646 -0.45118,0.61979 -1.36719,0.61979 z m 0,1.02995 q 1.53581,0 2.36523,-0.91602 0.82943,-0.91602 0.82943,-2.52018 0,-1.60417 -0.82943,-2.52018 -0.82942,-0.92058 -2.36523,-0.92058 -1.52669,0 -2.36068,0.92058 -0.83398,0.91601 -0.83398,2.52018 0,1.60416 0.83398,2.52018 0.83399,0.91602 2.36068,0.91602 z m 5.11784,-0.11849 h 2.09179 q 0.56966,0 1.02995,-0.1504 0.46484,-0.15039 0.75195,-0.40104 0.28711,-0.2552 0.4375,-0.5651 0.15495,-0.31445 0.15495,-0.65625 0,-0.70182 -0.40104,-1.12109 -0.39649,-0.41927 -1.09831,-0.51953 v -0.0182 q 0.60156,-0.10938 0.91146,-0.51042 0.3099,-0.40104 0.3099,-1.00716 0,-1.6224 -2.34245,-1.6224 h -1.8457 q -0.28711,0 -0.48763,0.17774 -0.19597,0.17773 -0.19597,0.4694 v 5.16797 q 0,0.37825 0.18229,0.56966 0.18685,0.18685 0.50131,0.18685 z m 0.61067,-0.96159 v -1.95052 h 0.87956 q 0.3418,0 0.57422,0.0228 0.23242,0.0182 0.44661,0.0775 0.21875,0.0592 0.3418,0.16862 0.1276,0.10481 0.20052,0.28255 0.0729,0.17773 0.0729,0.43294 0,0.30534 -0.0866,0.5013 -0.082,0.19141 -0.26888,0.29623 -0.18685,0.10026 -0.41472,0.13672 -0.22786,0.0319 -0.58789,0.0319 z m 0,-2.84831 v -1.80469 h 1.13021 q 0.23698,0 0.40104,0.0182 0.16406,0.0137 0.32357,0.0638 0.1595,0.0501 0.25521,0.14127 0.0957,0.0866 0.15039,0.23698 0.0592,0.15039 0.0592,0.36458 0,0.54688 -0.30078,0.76563 -0.30078,0.21419 -1.00716,0.21419 z"
       id="textProb--text"
       transform="matrix(0,0.26458333,-0.26458333,0,123.13489,246.75748)"
       aria-label="PROB" /><path
       style="font-size:9.33333px;line-height:1.25;font-family:Nunito;-inkscape-font-specification:Nunito;letter-spacing:0px;word-spacing:0px;white-space:pre;fill:#ffffff"
       d="m 91.421875,408.49672 q 0.26888,0 0.460286,-0.18685 0.195963,-0.18685 0.195963,-0.49218 v -1.93685 h 1.271484 q 2.492838,0 2.492838,-1.98698 0,-0.54232 -0.16862,-0.92969 -0.16862,-0.39192 -0.496744,-0.61523 -0.323568,-0.22787 -0.751953,-0.32813 -0.423828,-0.10481 -0.988932,-0.10481 h -1.959635 q -0.337239,0 -0.524088,0.22786 -0.186849,0.22786 -0.186849,0.57422 v 5.09961 q 0,0.30533 0.195963,0.49218 0.195964,0.18685 0.460287,0.18685 z m 0.656249,-3.5638 v -2.01888 h 1.216797 q 0.31901,0 0.528645,0.0365 0.214193,0.0365 0.38737,0.13672 0.177734,0.10026 0.259766,0.30078 0.08203,0.20052 0.08203,0.50586 0,0.31445 -0.08203,0.51953 -0.08203,0.20508 -0.259766,0.31901 -0.173177,0.10938 -0.396484,0.15495 -0.21875,0.0456 -0.551432,0.0456 z m 5.345702,3.55469 q 0.26888,0 0.460286,-0.17774 0.195963,-0.17773 0.195963,-0.49674 v -2.13737 h 1.19401 0.01823 q 0.31901,0 0.524088,0.0592 0.209637,0.0592 0.337237,0.20053 0.12761,0.13671 0.18685,0.32812 0.0592,0.19141 0.0911,0.49675 l 0.11393,1.05273 q 0.0319,0.33268 0.22786,0.50586 0.19597,0.16862 0.4694,0.16862 0.26433,0 0.4375,-0.17318 0.17774,-0.17318 0.17774,-0.48307 0,-0.0775 -0.005,-0.11849 l -0.1276,-1.07552 q -0.0729,-0.64714 -0.38737,-1.02083 -0.3099,-0.37826 -0.94336,-0.50131 v -0.0182 q 0.74284,-0.11849 1.11198,-0.51953 0.36914,-0.4056 0.36914,-0.98893 0,-1.67252 -2.401694,-1.67252 h -2.009765 q -0.287109,0 -0.492187,0.1914 -0.200521,0.18685 -0.200521,0.47852 v 5.22721 q 0,0.31445 0.191406,0.49674 0.191406,0.17774 0.460287,0.17774 z m 0.651692,-3.78255 v -1.80469 h 1.111979 0.0957 q 0.164062,0 0.26888,0.005 0.104818,0.005 0.255208,0.0228 0.150391,0.0137 0.241532,0.0501 0.0957,0.0319 0.20508,0.0957 0.10938,0.0638 0.16862,0.15495 0.0638,0.0911 0.10482,0.23242 0.041,0.13672 0.041,0.31445 0,0.18685 -0.0501,0.33268 -0.0501,0.14584 -0.12761,0.24154 -0.0775,0.0957 -0.20963,0.16406 -0.12761,0.0684 -0.250655,0.10482 -0.118489,0.0365 -0.296224,0.0592 -0.173177,0.0182 -0.305338,0.0228 -0.127604,0.005 -0.31901,0.005 z m 8.052732,2.87565 q -0.92057,0 -1.37174,-0.61979 -0.44662,-0.62435 -0.44662,-1.78646 0,-1.153 0.45117,-1.77734 0.45117,-0.62891 1.36719,-0.62891 0.92057,0 1.36719,0.62435 0.45117,0.62435 0.45117,1.7819 0,1.16211 -0.45117,1.78646 -0.45118,0.61979 -1.36719,0.61979 z m 0,1.02995 q 1.53581,0 2.36523,-0.91602 0.82943,-0.91602 0.82943,-2.52018 0,-1.60417 -0.82943,-2.52018 -0.82942,-0.92058 -2.36523,-0.92058 -1.52669,0 -2.36068,0.92058 -0.83398,0.91601 -0.83398,2.52018 0,1.60416 0.83398,2.52018 0.83399,0.91602 2.36068,0.91602 z m 5.11784,-0.11849 h 2.09179 q 0.56966,0 1.02995,-0.1504 0.46484,-0.15039 0.75195,-0.40104 0.28711,-0.2552 0.4375,-0.5651 0.15495,-0.31445 0.15495,-0.65625 0,-0.70182 -0.40104,-1.12109 -0.39649,-0.41927 -1.09831,-0.51953 v -0.0182 q 0.60156,-0.10938 0.91146,-0.51042 0.3099,-0.40104 0.3099,-1.00716 0,-1.6224 -2.34245,-1.6224 h -1.8457 q -0.28711,0 -0.48763,0.17774 -0.19597,0.17773 -0.19597,0.4694 v 5.16797 q 0,0.37825 0.18229,0.56966 0.18685,0.18685 0.50131,0.18685 z m 0.61067,-0.96159 v -1.95052 h 0.87956 q 0.3418,0 0.57422,0.0228 0.23242,0.0182 0.44661,0.0775 0.21875,0.0592 0.3418,0.16862 0.1276,0.10481 0.20052,0.28255 0.0729,0.17773 0.0729,0.43294 0,0.30534 -0.0866,0.5013 -0.082,0.19141 -0.26888,0.29623 -0.18685,0.10026 -0.41472,0.13672 -0.22786,0.0319 -0.58789,0.0319 z m 0,-2.84831 v -1.80469 h 1.13021 q 0.23698,0 0.40104,0.0182 0.16406,0.0137 0.32357,0.0638 0.1595,0.0501 0.25521,0.14127 0.0957,0.0866 0.15039,0.23698 0.0592,0.15039 0.0592,0.36458 0,0.54688 -0.30078,0.76563 -0.30078,0.21419 -1.00716,0.21419 z m 10.5,3.92839 q 1.14844,0 1.94596,-0.53321 0.25521,-0.17773 0.25521,-0.46028 0,-0.20052 -0.13216,-0.35547 -0.1276,-0.15495 -0.31445,-0.15495 -0.0957,0 -0.19141,0.0501 -0.72917,0.39648 -1.35807,0.39648 -0.94792,0 -1.45378,-0.61523 -0.5013,-0.61979 -0.5013,-1.75911 0,-1.19857 0.5013,-1.79102 0.5013,-0.59245 1.42643,-0.59245 0.17774,0 0.3418,0.0228 0.16406,0.0228 0.3099,0.0684 0.14583,0.041 0.23698,0.0775 0.0957,0.0319 0.2233,0.0911 0.13216,0.0592 0.16862,0.0729 0.0957,0.0365 0.17318,0.0365 0.20508,0 0.35547,-0.16406 0.15039,-0.16406 0.15039,-0.3737 0,-0.30078 -0.31445,-0.47396 -0.83855,-0.41927 -1.70899,-0.41927 -0.69271,0 -1.28971,0.2461 -0.59245,0.24153 -1.02539,0.68359 -0.43294,0.44206 -0.67904,1.09831 -0.24609,0.65625 -0.24609,1.44922 0,1.01627 0.4056,1.79557 0.41015,0.77474 1.11653,1.18945 0.71094,0.41472 1.60417,0.41472 z m 5.75586,-0.0684 q 0.44205,0 0.68815,-0.23698 0.25065,-0.24154 0.45573,-0.88412 l 1.66341,-4.71224 q 0.041,-0.12304 0.041,-0.23242 0,-0.26432 -0.1914,-0.42838 -0.18685,-0.16862 -0.4375,-0.16862 -0.20964,0 -0.38282,0.1276 -0.16862,0.12761 -0.24609,0.37826 l -1.59049,4.75781 -1.5905,-4.75781 q -0.0775,-0.25065 -0.25065,-0.37826 -0.16862,-0.1276 -0.37825,-0.1276 -0.25065,0 -0.44206,0.16862 -0.18685,0.16406 -0.18685,0.42838 0,0.10938 0.041,0.23242 l 1.66341,4.71224 q 0.20507,0.64258 0.45117,0.88412 0.25065,0.23698 0.69271,0.23698 z"
       id="textProbCV--text"
       transform="matrix(0,0.26458333,-0.26458333,0,132.42789,246.75748)"
       aria-label="PROB CV" /><path
       d="m 93.618488,408.54199 q 1.148437,0 1.945963,-0.5332 0.255208,-0.17773 0.255208,-0.46029 0,-0.20052 -0.132161,-0.35547 -0.127604,-0.15494 -0.314453,-0.15494 -0.0957,0 -0.191406,0.0501 -0.729167,0.39648 -1.358073,0.39648 -0.947916,0 -1.453775,-0.61523 -0.501302,-0.61979 -0.501302,-1.75912 0,-1.19856 0.501302,-1.79101 0.501302,-0.59245 1.426432,-0.59245 0.177734,0 0.341796,0.0228 0.164063,0.0228 0.309896,0.0684 0.145833,0.041 0.236979,0.0775 0.0957,0.0319 0.223307,0.0911 0.132162,0.0592 0.16862,0.0729 0.0957,0.0365 0.173177,0.0365 0.205078,0 0.355469,-0.16406 0.15039,-0.16406 0.15039,-0.3737 0,-0.30078 -0.314453,-0.47396 -0.838541,-0.41927 -1.708983,-0.41927 -0.692708,0 -1.289713,0.2461 -0.592448,0.24153 -1.025391,0.68359 -0.432942,0.44206 -0.679036,1.09831 -0.246094,0.65625 -0.246094,1.44921 0,1.01628 0.405599,1.79558 0.410156,0.77474 1.116536,1.18945 0.710937,0.41471 1.604166,0.41471 z m 5.755858,-0.0684 q 0.442057,0 0.688154,-0.23698 0.25065,-0.24153 0.45573,-0.88411 l 1.66341,-4.71224 q 0.041,-0.12305 0.041,-0.23242 0,-0.26432 -0.1914,-0.42839 -0.18685,-0.16862 -0.4375,-0.16862 -0.20964,0 -0.38282,0.12761 -0.16862,0.1276 -0.24609,0.37825 l -1.590494,4.75782 -1.590495,-4.75782 q -0.07747,-0.25065 -0.250651,-0.37825 -0.168619,-0.12761 -0.378255,-0.12761 -0.250651,0 -0.442057,0.16862 -0.186849,0.16407 -0.186849,0.42839 0,0.10937 0.04102,0.23242 l 1.663411,4.71224 q 0.205078,0.64258 0.451172,0.88411 0.250651,0.23698 0.692708,0.23698 z m 10.226554,-2.4427 h -2.2513 l 1.12565,-3.00326 z m 0.73829,1.9733 q 0.0775,0.22331 0.23697,0.33724 0.15951,0.10938 0.35547,0.10938 0.2461,0 0.4375,-0.16407 0.19141,-0.16406 0.19141,-0.41471 0,-0.11393 -0.0456,-0.23242 l -2.00065,-5.00846 q -0.19141,-0.50586 -0.44206,-0.67904 -0.2461,-0.17318 -0.59701,-0.17318 -0.35091,0 -0.60156,0.17318 -0.24609,0.17318 -0.4375,0.67904 l -2.00065,5.00846 q -0.0456,0.11849 -0.0456,0.23242 0,0.25065 0.1914,0.41471 0.19141,0.16407 0.4375,0.16407 0.19597,0 0.35547,-0.10938 0.15951,-0.11393 0.23698,-0.33724 l 0.41016,-1.09375 h 2.90755 z m 4.21549,0.42383 q 0.26888,0 0.46029,-0.18685 0.19596,-0.1914 0.19596,-0.49674 v -4.85807 h 1.48112 q 0.22786,0 0.36458,-0.15495 0.13672,-0.15495 0.13672,-0.36459 0,-0.20507 -0.14127,-0.36002 -0.13672,-0.15951 -0.36003,-0.15951 h -4.27474 q -0.22786,0 -0.36914,0.15951 -0.13672,0.15495 -0.13672,0.36458 0,0.20964 0.13672,0.36458 0.13672,0.1504 0.36914,0.1504 h 1.48568 v 4.85807 q 0,0.30534 0.1914,0.49674 0.19597,0.18685 0.46029,0.18685 z m 5.48242,0 q 0.26888,0 0.46028,-0.18685 0.19597,-0.1914 0.19597,-0.49674 v -4.85807 h 1.48112 q 0.22786,0 0.36458,-0.15495 0.13672,-0.15495 0.13672,-0.36459 0,-0.20507 -0.14128,-0.36002 -0.13672,-0.15951 -0.36002,-0.15951 h -4.27474 q -0.22787,0 -0.36914,0.15951 -0.13672,0.15495 -0.13672,0.36458 0,0.20964 0.13672,0.36458 0.13672,0.1504 0.36914,0.1504 h 1.48568 v 4.85807 q 0,0.30534 0.1914,0.49674 0.19597,0.18685 0.46029,0.18685 z m 4.14713,-0.005 h 3.37696 q 0.21875,0 0.34635,-0.15039 0.13216,-0.15495 0.13216,-0.36002 0,-0.20508 -0.13216,-0.36003 -0.1276,-0.15495 -0.34635,-0.15495 h -2.72071 v -1.82747 h 2.43815 q 0.22331,0 0.35547,-0.15039 0.13672,-0.15039 0.13672,-0.35547 0,-0.20508 -0.13216,-0.35547 -0.13216,-0.15039 -0.36003,-0.15039 h -2.43815 v -1.67708 h 2.61589 q 0.22331,0 0.35547,-0.15495 0.13216,-0.15495 0.13216,-0.36003 0,-0.20507 -0.13216,-0.36002 -0.13216,-0.15495 -0.35547,-0.15495 h -3.24023 q -0.32357,0 -0.50131,0.21875 -0.17317,0.21419 -0.17317,0.55143 v 5.06771 q 0,0.28711 0.18685,0.51042 0.18684,0.2233 0.45572,0.2233 z m 5.64649,0 q 0.23698,0 0.41471,-0.1595 0.17773,-0.15951 0.17773,-0.41472 v -4.03775 l 2.97592,4.11979 q 0.15039,0.21419 0.37825,0.35546 0.22787,0.13672 0.42383,0.13672 0.30989,0 0.5013,-0.24609 0.19141,-0.25065 0.19141,-0.64258 v -5.10872 q 0,-0.25977 -0.17774,-0.41927 -0.17317,-0.15951 -0.4056,-0.15951 -0.23698,0 -0.41471,0.16407 -0.17318,0.1595 -0.17318,0.41471 v 4.03776 l -2.99869,-4.15169 q -0.14128,-0.2142 -0.36459,-0.33724 -0.21875,-0.12305 -0.42383,-0.12305 -0.29166,0 -0.49218,0.21419 -0.19597,0.20964 -0.19597,0.57422 v 5.20898 q 0,0.25977 0.17318,0.41928 0.17774,0.15494 0.41016,0.15494 z"
       id="textCVAtten--text"
       style="font-size:9.33333px;line-height:1.25;font-family:Nunito;-inkscape-font-specification:Nunito;letter-spacing:0px;word-spacing:0px;white-space:pre;fill:#ffffff"
       transform="matrix(0,0.26458333,-0.26458333,0,141.72089,246.75748)"
       aria-label="CV ATTEN" /><path
       d="m 94.38867,408.17741 v -1.5905 l -1.585937,-3.7871 q -0.15039,-0.38737 -0.437499,-0.57878 -0.28711,-0.19596 -0.619792,-0.19596 -0.396484,0 -0.688151,0.24153 -0.291666,0.24154 -0.291666,0.6198 l 0.0046,4.99479 q 0,0.22786 0.173177,0.35546 0.177734,0.12305 0.419271,0.12305 0.241536,0 0.414713,-0.12305 0.173177,-0.1276 0.173177,-0.35546 v -4.42058 l 1.690755,4.08789 q 0.236979,0.62891 0.747395,0.62891 z m 0.0046,0 q 0.505859,0 0.751953,-0.62891 l 1.686197,-4.08789 v 4.42058 q 0,0.22786 0.173177,0.35546 0.177734,0.12305 0.419271,0.12305 0.241536,0 0.414713,-0.12305 0.177734,-0.1276 0.177734,-0.35546 v -4.99479 q 0,-0.37826 -0.291666,-0.6198 -0.291667,-0.24153 -0.683594,-0.24153 -0.332682,0 -0.619791,0.19596 -0.28711,0.19141 -0.4375,0.57878 l -1.590494,3.7871 z m 8.121092,-0.66537 q -0.92057,0 -1.37175,-0.61979 -0.44661,-0.62435 -0.44661,-1.78645 0,-1.153 0.45117,-1.77735 0.45117,-0.6289 1.36719,-0.6289 0.92057,0 1.36719,0.62435 0.45117,0.62434 0.45117,1.7819 0,1.1621 -0.45117,1.78645 -0.45118,0.61979 -1.36719,0.61979 z m 0,1.02995 q 1.53581,0 2.36523,-0.91601 0.82943,-0.91602 0.82943,-2.52018 0,-1.60417 -0.82943,-2.52019 -0.82942,-0.92057 -2.36523,-0.92057 -1.52669,0 -2.36068,0.92057 -0.833982,0.91602 -0.833982,2.52019 0,1.60416 0.833982,2.52018 0.83399,0.91601 2.36068,0.91601 z m 5.08593,-0.11849 h 1.6224 q 1.66797,0 2.57487,-0.83854 0.9069,-0.83854 0.9069,-2.41536 0,-1.61784 -0.9069,-2.4655 -0.9069,-0.85221 -2.67969,-0.85221 h -1.44922 q -0.33268,0 -0.52864,0.20508 -0.19141,0.20508 -0.19141,0.5651 v 5.03581 q 0,0.31445 0.18229,0.54232 0.1823,0.2233 0.4694,0.2233 z m 0.6517,-1.00716 v -4.55273 h 0.92057 q 0.76107,0 1.23047,0.21875 0.4694,0.21419 0.70638,0.72005 0.23698,0.5013 0.23698,1.33984 0,1.2168 -0.46485,1.74545 -0.46028,0.52864 -1.61328,0.52864 z m 6.34375,1.00716 h 3.37695 q 0.21875,0 0.34635,-0.15039 0.13216,-0.15495 0.13216,-0.36002 0,-0.20508 -0.13216,-0.36003 -0.1276,-0.15495 -0.34635,-0.15495 h -2.72071 v -1.82747 h 2.43816 q 0.2233,0 0.35546,-0.15039 0.13672,-0.15039 0.13672,-0.35547 0,-0.20508 -0.13216,-0.35547 -0.13216,-0.15039 -0.36002,-0.15039 h -2.43816 v -1.67708 h 2.61589 q 0.22331,0 0.35547,-0.15495 0.13216,-0.15495 0.13216,-0.36003 0,-0.20507 -0.13216,-0.36002 -0.13216,-0.15495 -0.35547,-0.15495 h -3.24023 q -0.32357,0 -0.50131,0.21875 -0.17317,0.21419 -0.17317,0.55143 v 5.06771 q 0,0.28711 0.18685,0.51042 0.18684,0.2233 0.45573,0.2233 z"
       id="textMode--text"
       style="font-size:9.33333px;line-height:1.25;font-family:Nunito;-inkscape-font-specification:Nunito;letter-spacing:0px;word-spacing:0px;white-space:pre;fill:#ffffff"
       transform="matrix(0,0.26458333,-0.26458333,0,151.00064,246.75748)"
       aria-label="MODE" /><path
       d="m 93.668619,407.51204 q -0.920573,0 -1.371745,-0.61979 -0.446614,-0.62435 -0.446614,-1.78645 0,-1.153 0.451172,-1.77735 0.451171,-0.6289 1.367187,-0.6289 0.920572,0 1.367187,0.62435 0.451171,0.62434 0.451171,1.7819 0,1.1621 -0.451171,1.78645 -0.451172,0.61979 -1.367187,0.61979 z m 0,1.02995 q 1.535806,0 2.365233,-0.91601 0.829427,-0.91602 0.829427,-2.52018 0,-1.60417 -0.829427,-2.52019 -0.829427,-0.92057 -2.365233,-0.92057 -1.526693,0 -2.360677,0.92057 -0.833984,0.91602 -0.833984,2.52019 0,1.60416 0.833984,2.52018 0.833984,0.91601 2.360677,0.91601 z m 7.118491,0 q 0.57421,0 1.06184,-0.15039 0.49219,-0.15039 0.86589,-0.4375 0.3737,-0.29166 0.58333,-0.75195 0.21419,-0.46029 0.21419,-1.04818 v -3.65039 q 0,-0.30534 -0.19596,-0.49218 -0.1914,-0.18685 -0.45573,-0.18685 -0.26888,0 -0.46484,0.18685 -0.19141,0.18684 -0.19141,0.49218 v 3.61849 q 0,0.35547 -0.12304,0.63346 -0.11849,0.27344 -0.32357,0.43295 -0.20508,0.1595 -0.45117,0.24153 -0.2461,0.082 -0.51953,0.082 -0.27344,0 -0.51954,-0.082 -0.24153,-0.082 -0.442053,-0.24153 -0.20052,-0.15951 -0.323567,-0.43295 -0.11849,-0.27799 -0.11849,-0.63346 v -3.61849 q 0,-0.30534 -0.195963,-0.49218 -0.191407,-0.18685 -0.460287,-0.18685 -0.26888,0 -0.460286,0.18685 -0.191406,0.18684 -0.191406,0.49218 v 3.65039 q 0,0.58789 0.209635,1.05274 0.209636,0.46028 0.583333,0.75195 0.373698,0.28711 0.856771,0.4375 0.487633,0.14583 1.061853,0.14583 z m 6.20247,-0.11393 q 0.26888,0 0.46028,-0.18685 0.19597,-0.1914 0.19597,-0.49674 v -4.85807 h 1.48112 q 0.22786,0 0.36458,-0.15495 0.13672,-0.15495 0.13672,-0.36459 0,-0.20507 -0.14128,-0.36002 -0.13672,-0.15951 -0.36002,-0.15951 h -4.27474 q -0.22787,0 -0.36914,0.15951 -0.13672,0.15495 -0.13672,0.36458 0,0.20964 0.13672,0.36458 0.13672,0.1504 0.36914,0.1504 h 1.48567 v 4.85807 q 0,0.30534 0.19141,0.49674 0.19596,0.18685 0.46029,0.18685 z m 9.82551,-2.39713 h -2.2513 l 1.12565,-3.00326 z m 0.73828,1.9733 q 0.0775,0.22331 0.23698,0.33724 0.15951,0.10938 0.35547,0.10938 0.2461,0 0.4375,-0.16407 0.19141,-0.16406 0.19141,-0.41471 0,-0.11393 -0.0456,-0.23242 l -2.00065,-5.00846 q -0.19141,-0.50586 -0.44206,-0.67904 -0.2461,-0.17318 -0.59701,-0.17318 -0.35091,0 -0.60156,0.17318 -0.24609,0.17318 -0.4375,0.67904 l -2.00065,5.00846 q -0.0456,0.11849 -0.0456,0.23242 0,0.25065 0.1914,0.41471 0.19141,0.16407 0.4375,0.16407 0.19597,0 0.35547,-0.10938 0.15951,-0.11393 0.23698,-0.33724 l 0.41016,-1.09375 h 2.90755 z"
       id="textOutA--text-output"
       style="font-size:9.33333px;line-height:1.25;font-family:Nunito;-inkscape-font-specification:Nunito;letter-spacing:0px;word-spacing:0px;white-space:pre;fill:#ffffff"
       transform="matrix(0,0.26458333,-0.26458333,0,160.98495,246.75748)"
       aria-label="OUT A" /><path
       d="m 93.668619,407.51204 q -0.920573,0 -1.371745,-0.61979 -0.446614,-0.62435 -0.446614,-1.78645 0,-1.153 0.451172,-1.77735 0.451171,-0.6289 1.367187,-0.6289 0.920572,0 1.367187,0.62435 0.451171,0.62434 0.451171,1.7819 0,1.1621 -0.451171,1.78645 -0.451172,0.61979 -1.367187,0.61979 z m 0,1.02995 q 1.535806,0 2.365233,-0.91601 0.829427,-0.91602 0.829427,-2.52018 0,-1.60417 -0.829427,-2.52019 -0.829427,-0.92057 -2.365233,-0.92057 -1.526693,0 -2.360677,0.92057 -0.833984,0.91602 -0.833984,2.52019 0,1.60416 0.833984,2.52018 0.833984,0.91601 2.360677,0.91601 z m 7.118491,0 q 0.57421,0 1.06184,-0.15039 0.49219,-0.15039 0.86589,-0.4375 0.3737,-0.29166 0.58333,-0.75195 0.21419,-0.46029 0.21419,-1.04818 v -3.65039 q 0,-0.30534 -0.19596,-0.49218 -0.1914,-0.18685 -0.45573,-0.18685 -0.26888,0 -0.46484,0.18685 -0.19141,0.18684 -0.19141,0.49218 v 3.61849 q 0,0.35547 -0.12304,0.63346 -0.11849,0.27344 -0.32357,0.43295 -0.20508,0.1595 -0.45117,0.24153 -0.2461,0.082 -0.51953,0.082 -0.27344,0 -0.51954,-0.082 -0.24153,-0.082 -0.442053,-0.24153 -0.20052,-0.15951 -0.323567,-0.43295 -0.11849,-0.27799 -0.11849,-0.63346 v -3.61849 q 0,-0.30534 -0.195963,-0.49218 -0.191407,-0.18685 -0.460287,-0.18685 -0.26888,0 -0.460286,0.18685 -0.191406,0.18684 -0.191406,0.49218 v 3.65039 q 0,0.58789 0.209635,1.05274 0.209636,0.46028 0.583333,0.75195 0.373698,0.28711 0.856771,0.4375 0.487633,0.14583 1.061853,0.14583 z m 6.20247,-0.11393 q 0.26888,0 0.46028,-0.18685 0.19597,-0.1914 0.19597,-0.49674 v -4.85807 h 1.48112 q 0.22786,0 0.36458,-0.15495 0.13672,-0.15495 0.13672,-0.36459 0,-0.20507 -0.14128,-0.36002 -0.13672,-0.15951 -0.36002,-0.15951 h -4.27474 q -0.22787,0 -0.36914,0.15951 -0.13672,0.15495 -0.13672,0.36458 0,0.20964 0.13672,0.36458 0.13672,0.1504 0.36914,0.1504 h 1.48567 v 4.85807 q 0,0.30534 0.19141,0.49674 0.19596,0.18685 0.46029,0.18685 z m 6.79492,-0.005 h 2.09179 q 0.56966,0 1.02995,-0.15039 0.46484,-0.15039 0.75195,-0.40104 0.28711,-0.25521 0.4375,-0.5651 0.15495,-0.31446 0.15495,-0.65625 0,-0.70183 -0.40104,-1.1211 -0.39649,-0.41927 -1.09831,-0.51953 v -0.0182 q 0.60156,-0.10937 0.91146,-0.51041 0.3099,-0.40104 0.3099,-1.00716 0,-1.6224 -2.34245,-1.6224 h -1.8457 q -0.28711,0 -0.48763,0.17773 -0.19597,0.17774 -0.19597,0.46941 v 5.16796 q 0,0.37826 0.18229,0.56966 0.18685,0.18685 0.50131,0.18685 z m 0.61067,-0.96159 v -1.95052 h 0.87956 q 0.3418,0 0.57422,0.0228 0.23242,0.0182 0.44661,0.0775 0.21875,0.0593 0.3418,0.16862 0.1276,0.10482 0.20052,0.28256 0.0729,0.17773 0.0729,0.43294 0,0.30534 -0.0866,0.5013 -0.082,0.19141 -0.26888,0.29622 -0.18685,0.10027 -0.41472,0.13672 -0.22786,0.0319 -0.58789,0.0319 z m 0,-2.8483 v -1.80469 h 1.13021 q 0.23698,0 0.40104,0.0182 0.16406,0.0137 0.32357,0.0638 0.1595,0.0501 0.25521,0.14128 0.0957,0.0866 0.15039,0.23698 0.0592,0.15039 0.0592,0.36458 0,0.54688 -0.30078,0.76563 -0.30078,0.21419 -1.00716,0.21419 z"
       id="textOutB--text-output"
       style="font-size:9.33333px;line-height:1.25;font-family:Nunito;-inkscape-font-specification:Nunito;letter-spacing:0px;word-spacing:0px;white-space:pre;fill:#ffffff"
       transform="matrix(0,0.26458333,-0.26458333,0,171.65689,246.75748)"
       aria-label="OUT B" /><g
       inkscape:groupmode="layer"
       id="layer3"
       inkscape:label="Normals"
       transform="translate(0,168.49998)"
       style="display:inline"><path
         id="Normal7--silkscreen"
         style="display:inline;fill:#ffffff;stroke-width:0.264999;paint-order:stroke fill markers"
         transform="matrix(0.33595799,0,0,-0.33595799,2.2148897,94.548623)"
         d="m 13.229166,9.260416 3.437038,5.953125 -6.8740763,0 z" /><path
         id="Normal6--silkscreen"
         style="display:inline;fill:#ffffff;stroke-width:0.264999;paint-order:stroke fill markers"
         transform="matrix(0.33595799,0,0,-0.33595799,2.2145559,83.489611)"
         d="m 13.229166,9.260416 3.437038,5.953125 -6.8740763,0 z" /><path
         id="Normal5--silkscreen"
         style="display:inline;fill:#ffffff;stroke-width:0.264999;paint-order:stroke fill markers"
         transform="matrix(0.33595799,0,0,-0.33595799,2.2148892,72.430612)"
         d="m 13.229166,9.260416 3.437038,5.953125 -6.8740763,0 z" /><path
         id="Normal4--silkscreen"
         style="display:inline;fill:#ffffff;stroke-width:0.264999;paint-order:stroke fill markers"
         transform="matrix(0.33595799,0,0,-0.33595799,2.2148892,61.371611)"
         d="m 13.229166,9.260416 3.437038,5.953125 -6.8740763,0 z" /><path
         id="Normal3--silkscreen"
         style="display:inline;fill:#ffffff;stroke-width:0.264999;paint-order:stroke fill markers"
         transform="matrix(0.33595799,0,0,-0.33595799,2.2148892,50.312613)"
         d="m 13.229166,9.260416 3.437038,5.953125 -6.8740763,0 z" /><path
         id="Normal2--silkscreen"
         style="display:inline;fill:#ffffff;stroke-width:0.264999;paint-order:stroke fill markers"
         transform="matrix(0.33595799,0,0,-0.33595799,2.2148892,39.253611)"
         d="m 13.229166,9.260416 3.437038,5.953125 -6.8740763,0 z" /><path
         id="Normal1--silkscreen"
         style="display:inline;fill:#ffffff;stroke-width:0.264999;paint-order:stroke fill markers"
         transform="matrix(0.33595799,0,0,-0.33595799,2.2145558,28.192611)"
         d="m 13.229166,9.260416 3.437038,5.953125 -6.8740763,0 z" /></g></g><g
     inkscape:groupmode="layer"
     id="layer2"
     inkscape:label="Widgets"><path
       id="widgetLogo--hidden"
       style="fill:#ffff00;stroke-width:3.76997;paint-order:stroke fill markers"
       d="m 31.200502,118.18752 h 8.719 v 8.719 h -8.719 z" /><g
       inkscape:groupmode="layer"
       id="layer4"
       inkscape:label="Gate8"><path
         id="inputTrigger_8--hidden"
         style="fill:#00ff00;stroke-width:0.194174;paint-order:stroke fill markers"
         d="m 10.672,95.966858 a 4.013,4.013 0 0 1 -3.9489149,4.012488 4.013,4.013 0 0 1 -4.0750384,-3.884334 4.013,4.013 0 0 1 3.818763,-4.136549 4.013,4.013 0 0 1 4.1970053,3.752218" /><path
         id="paramProbability_8--hidden"
         style="fill:#ff0000;stroke-width:0.264999;paint-order:stroke fill markers"
         d="m 19.95125,95.966858 a 4,4 0 0 1 -3.936122,3.99949 4,4 0 0 1 -4.061838,-3.871751 4,4 0 0 1 3.806392,-4.123149 4,4 0 0 1 4.183409,3.740062" /><path
         id="inputProbabilityCV_8--hidden"
         style="fill:#00ff00;stroke-width:0.1325;paint-order:stroke fill markers"
         d="m 29.257249,95.966858 a 4.013,4.013 0 0 1 -3.948914,4.012488 4.013,4.013 0 0 1 -4.075039,-3.884334 4.013,4.013 0 0 1 3.818763,-4.136549 4.013,4.013 0 0 1 4.197005,3.752218" /><path
         id="paramProbabilityCVScale_8--hidden"
         style="fill:#ff0000;stroke-width:0.264999;paint-order:stroke fill markers"
         d="m 38.537251,95.966858 a 4,4 0 0 1 -3.936123,3.99949 4,4 0 0 1 -4.061837,-3.871751 4,4 0 0 1 3.806392,-4.123149 4,4 0 0 1 4.183409,3.740062" /><path
         id="paramMode_8--hidden"
         style="fill:#ff0000;stroke-width:0.264999;paint-order:stroke fill markers"
         transform="scale(1,-1)"
         d="m 47.817001,-95.966858 a 4,4 0 0 1 -3.936122,3.99949 4,4 0 0 1 -4.061837,-3.871751 4,4 0 0 1 3.806392,-4.123149 4,4 0 0 1 4.183409,3.740063" /><path
         id="outputA_8--hidden"
         style="fill:#0000ff;stroke-width:0.26586;paint-order:stroke fill markers"
         d="m 57.827327,95.966858 a 4.013,4.013 0 0 1 -3.948915,4.012488 4.013,4.013 0 0 1 -4.075038,-3.884334 4.013,4.013 0 0 1 3.818763,-4.136549 4.013,4.013 0 0 1 4.197005,3.752218" /><path
         id="lightStateA_8--hidden"
         style="fill:#ff00ff;stroke-width:0.13324;paint-order:stroke fill markers"
         d="m 58.271,92.277008 a 0.75,0.75 0 0 1 -0.738023,0.749904 0.75,0.75 0 0 1 -0.761595,-0.725953 0.75,0.75 0 0 1 0.713699,-0.77309 0.75,0.75 0 0 1 0.784389,0.701261" /><path
         id="outputB_8--hidden"
         style="fill:#0000ff;stroke-width:0.26586;paint-order:stroke fill markers"
         d="m 68.499252,95.966858 a 4.013,4.013 0 0 1 -3.948915,4.012488 4.013,4.013 0 0 1 -4.075038,-3.884334 4.013,4.013 0 0 1 3.818763,-4.136549 4.013,4.013 0 0 1 4.197005,3.752218" /><path
         id="lightStateB_8--hidden"
         style="fill:#ff00ff;stroke-width:0.13324;paint-order:stroke fill markers"
         d="m 68.942924,92.277008 a 0.75,0.75 0 0 1 -0.738022,0.749904 0.75,0.75 0 0 1 -0.761595,-0.725953 0.75,0.75 0 0 1 0.713699,-0.77309 0.75,0.75 0 0 1 0.784389,0.701261" /></g><g
       inkscape:groupmode="layer"
       id="layer5"
       inkscape:label="Gate7"><path
         id="inputTrigger_7--hidden"
         style="fill:#00ff00;stroke-width:0.194174;paint-order:stroke fill markers"
         d="M 10.672334,84.907425 A 4.0130005,4.013 0 0 1 6.7234189,88.919913 4.0130005,4.013 0 0 1 2.64838,85.035579 4.0130005,4.013 0 0 1 6.4671435,80.89903 4.0130005,4.013 0 0 1 10.664149,84.651248" /><path
         id="paramProbability_7--hidden"
         style="fill:#ff0000;stroke-width:0.264999;paint-order:stroke fill markers"
         d="m 19.951584,84.907425 a 4.0000005,4 0 0 1 -3.936123,3.99949 4.0000005,4 0 0 1 -4.061837,-3.871751 4.0000005,4 0 0 1 3.806392,-4.123149 4.0000005,4 0 0 1 4.18341,3.740062" /><path
         id="inputProbabilityCV_7--hidden"
         style="fill:#00ff00;stroke-width:0.1325;paint-order:stroke fill markers"
         d="M 29.257586,84.907425 A 4.0130005,4.013 0 0 1 25.30867,88.919913 4.0130005,4.013 0 0 1 21.233631,85.035579 4.0130005,4.013 0 0 1 25.052395,80.89903 4.0130005,4.013 0 0 1 29.2494,84.651248" /><path
         id="paramProbabilityCVScale_7--hidden"
         style="fill:#ff0000;stroke-width:0.264999;paint-order:stroke fill markers"
         d="m 38.537587,84.907425 a 4.0000005,4 0 0 1 -3.936123,3.99949 4.0000005,4 0 0 1 -4.061838,-3.871751 4.0000005,4 0 0 1 3.806393,-4.123149 4.0000005,4 0 0 1 4.183409,3.740062" /><path
         id="paramMode_7--hidden"
         style="fill:#ff0000;stroke-width:0.264999;paint-order:stroke fill markers"
         transform="scale(1,-1)"
         d="m 47.817338,-84.907425 a 4.0000005,4 0 0 1 -3.936123,3.99949 4.0000005,4 0 0 1 -4.061838,-3.871751 4.0000005,4 0 0 1 3.806392,-4.123149 4.0000005,4 0 0 1 4.18341,3.740063" /><path
         id="outputA_7--hidden"
         style="fill:#0000ff;stroke-width:0.26586;paint-order:stroke fill markers"
         d="m 57.827663,84.907425 a 4.0130005,4.013 0 0 1 -3.948915,4.012488 4.0130005,4.013 0 0 1 -4.075039,-3.884334 4.0130005,4.013 0 0 1 3.818764,-4.136549 4.0130005,4.013 0 0 1 4.197005,3.752218" /><path
         id="lightStateA_7--hidden"
         style="fill:#ff00ff;stroke-width:0.13324;paint-order:stroke fill markers"
         d="m 58.271336,81.217575 a 0.75000012,0.75 0 0 1 -0.738023,0.749904 0.75000012,0.75 0 0 1 -0.761595,-0.725953 0.75000012,0.75 0 0 1 0.713699,-0.77309 0.75000012,0.75 0 0 1 0.784389,0.701261" /><path
         id="outputB_7--hidden"
         style="fill:#0000ff;stroke-width:0.26586;paint-order:stroke fill markers"
         d="m 68.499588,84.907425 a 4.0130005,4.013 0 0 1 -3.948915,4.012488 4.0130005,4.013 0 0 1 -4.075039,-3.884334 4.0130005,4.013 0 0 1 3.818763,-4.136549 4.0130005,4.013 0 0 1 4.197006,3.752218" /><path
         id="lightStateB_7--hidden"
         style="fill:#ff00ff;stroke-width:0.13324;paint-order:stroke fill markers"
         d="m 68.94326,81.217575 a 0.75000012,0.75 0 0 1 -0.738023,0.749904 0.75000012,0.75 0 0 1 -0.761594,-0.725953 0.75000012,0.75 0 0 1 0.713698,-0.77309 0.75000012,0.75 0 0 1 0.78439,0.701261" /></g><g
       inkscape:groupmode="layer"
       id="layer6"
       inkscape:label="Gate6"><path
         id="inputTrigger_6--hidden"
         style="fill:#00ff00;stroke-width:0.194174;paint-order:stroke fill markers"
         d="m 10.672,73.848419 a 4.013,4.013 0 0 1 -3.9489149,4.012488 4.013,4.013 0 0 1 -4.0750384,-3.884334 4.013,4.013 0 0 1 3.818763,-4.136549 4.013,4.013 0 0 1 4.1970053,3.752218" /><path
         id="paramProbability_6--hidden"
         style="fill:#ff0000;stroke-width:0.264999;paint-order:stroke fill markers"
         d="m 19.951251,73.848419 a 4,4 0 0 1 -3.936122,3.99949 4,4 0 0 1 -4.061838,-3.871751 4,4 0 0 1 3.806392,-4.123149 4,4 0 0 1 4.183409,3.740063" /><path
         id="inputProbabilityCV_6--hidden"
         style="fill:#00ff00;stroke-width:0.1325;paint-order:stroke fill markers"
         d="m 29.257249,73.848419 a 4.013,4.013 0 0 1 -3.948914,4.012488 4.013,4.013 0 0 1 -4.075039,-3.884334 4.013,4.013 0 0 1 3.818763,-4.136549 4.013,4.013 0 0 1 4.197005,3.752218" /><path
         id="paramProbabilityCVScale_6--hidden"
         style="fill:#ff0000;stroke-width:0.264999;paint-order:stroke fill markers"
         d="m 38.537254,73.848419 a 4,4 0 0 1 -3.936122,3.99949 4,4 0 0 1 -4.061837,-3.871751 4,4 0 0 1 3.806392,-4.123149 4,4 0 0 1 4.183409,3.740063" /><path
         id="paramMode_6--hidden"
         style="fill:#ff0000;stroke-width:0.264999;paint-order:stroke fill markers"
         transform="scale(1,-1)"
         d="m 47.816998,-73.848419 a 4,4 0 0 1 -3.936123,3.99949 4,4 0 0 1 -4.061837,-3.871751 4,4 0 0 1 3.806392,-4.123149 4,4 0 0 1 4.183409,3.740062" /><path
         id="outputA_6--hidden"
         style="fill:#0000ff;stroke-width:0.26586;paint-order:stroke fill markers"
         d="m 57.827331,73.848419 a 4.013,4.013 0 0 1 -3.948915,4.012488 4.013,4.013 0 0 1 -4.075038,-3.884334 4.013,4.013 0 0 1 3.818763,-4.136549 4.013,4.013 0 0 1 4.197005,3.752218" /><path
         id="lightStateA_6--hidden"
         style="fill:#ff00ff;stroke-width:0.13324;paint-order:stroke fill markers"
         d="m 58.271004,70.158569 a 0.75,0.75 0 0 1 -0.738023,0.749905 0.75,0.75 0 0 1 -0.761595,-0.725954 0.75,0.75 0 0 1 0.713699,-0.77309 0.75,0.75 0 0 1 0.784389,0.701262" /><path
         id="outputB_6--hidden"
         style="fill:#0000ff;stroke-width:0.26586;paint-order:stroke fill markers"
         d="m 68.499244,73.848419 a 4.013,4.013 0 0 1 -3.948915,4.012488 4.013,4.013 0 0 1 -4.075038,-3.884334 4.013,4.013 0 0 1 3.818763,-4.136549 4.013,4.013 0 0 1 4.197005,3.752218" /><path
         id="lightStateB_6--hidden"
         style="fill:#ff00ff;stroke-width:0.13324;paint-order:stroke fill markers"
         d="m 68.942917,70.158569 a 0.75,0.75 0 0 1 -0.738023,0.749905 0.75,0.75 0 0 1 -0.761595,-0.725954 0.75,0.75 0 0 1 0.713699,-0.77309 0.75,0.75 0 0 1 0.784389,0.701262" /></g><g
       inkscape:groupmode="layer"
       id="layer7"
       inkscape:label="Gate5"><path
         id="inputTrigger_5--hidden"
         style="fill:#00ff00;stroke-width:0.194174;paint-order:stroke fill markers"
         d="M 10.672333,62.789421 A 4.013,4.013 0 0 1 6.7234184,66.801909 4.013,4.013 0 0 1 2.64838,62.917575 a 4.013,4.013 0 0 1 3.818763,-4.136549 4.013,4.013 0 0 1 4.197005,3.752218" /><path
         id="paramProbability_5--hidden"
         style="fill:#ff0000;stroke-width:0.264999;paint-order:stroke fill markers"
         d="m 19.951584,62.789421 a 4,4 0 0 1 -3.936123,3.99949 4,4 0 0 1 -4.061837,-3.871751 4,4 0 0 1 3.806392,-4.123149 4,4 0 0 1 4.183409,3.740063" /><path
         id="inputProbabilityCV_5--hidden"
         style="fill:#00ff00;stroke-width:0.1325;paint-order:stroke fill markers"
         d="m 29.257583,62.789421 a 4.013,4.013 0 0 1 -3.948915,4.012488 4.013,4.013 0 0 1 -4.075038,-3.884334 4.013,4.013 0 0 1 3.818763,-4.136549 4.013,4.013 0 0 1 4.197005,3.752218" /><path
         id="paramProbabilityCVScale_5--hidden"
         style="fill:#ff0000;stroke-width:0.264999;paint-order:stroke fill markers"
         d="m 38.537586,62.789421 a 4,4 0 0 1 -3.936122,3.99949 4,4 0 0 1 -4.061838,-3.871751 4,4 0 0 1 3.806393,-4.123149 4,4 0 0 1 4.183409,3.740063" /><path
         id="paramMode_5--hidden"
         style="fill:#ff0000;stroke-width:0.264999;paint-order:stroke fill markers"
         transform="scale(1,-1)"
         d="m 47.817329,-62.789421 a 4,4 0 0 1 -3.936122,3.99949 4,4 0 0 1 -4.061837,-3.871751 4,4 0 0 1 3.806392,-4.123149 4,4 0 0 1 4.183409,3.740062" /><path
         id="outputA_5--hidden"
         style="fill:#0000ff;stroke-width:0.26586;paint-order:stroke fill markers"
         d="m 57.827663,62.789421 a 4.013,4.013 0 0 1 -3.948915,4.012488 4.013,4.013 0 0 1 -4.075038,-3.884334 4.013,4.013 0 0 1 3.818763,-4.136549 4.013,4.013 0 0 1 4.197005,3.752218" /><path
         id="lightStateA_5--hidden"
         style="fill:#ff00ff;stroke-width:0.13324;paint-order:stroke fill markers"
         d="m 58.271336,59.099571 a 0.75,0.75 0 0 1 -0.738023,0.749905 0.75,0.75 0 0 1 -0.761595,-0.725954 0.75,0.75 0 0 1 0.713699,-0.77309 0.75,0.75 0 0 1 0.784389,0.701262" /><path
         id="outputB_5--hidden"
         style="fill:#0000ff;stroke-width:0.26586;paint-order:stroke fill markers"
         d="m 68.49958,62.789421 a 4.013,4.013 0 0 1 -3.948915,4.012488 4.013,4.013 0 0 1 -4.075038,-3.884334 4.013,4.013 0 0 1 3.818763,-4.136549 4.013,4.013 0 0 1 4.197005,3.752218" /><path
         id="lightStateB_5--hidden"
         style="fill:#ff00ff;stroke-width:0.13324;paint-order:stroke fill markers"
         d="m 68.943253,59.099571 a 0.75,0.75 0 0 1 -0.738023,0.749905 0.75,0.75 0 0 1 -0.761595,-0.725954 0.75,0.75 0 0 1 0.713699,-0.77309 0.75,0.75 0 0 1 0.784389,0.701262" /></g><g
       inkscape:groupmode="layer"
       id="layer8"
       inkscape:label="Gate4"><path
         id="inputTrigger_4--hidden"
         style="fill:#00ff00;stroke-width:0.194174;paint-order:stroke fill markers"
         d="M 10.672333,51.730423 A 4.013,4.013 0 0 1 6.7234184,55.742911 4.013,4.013 0 0 1 2.64838,51.858577 a 4.013,4.013 0 0 1 3.818763,-4.136549 4.013,4.013 0 0 1 4.197005,3.752218" /><path
         id="paramProbability_4--hidden"
         style="fill:#ff0000;stroke-width:0.264999;paint-order:stroke fill markers"
         d="m 19.951584,51.730423 a 4,4 0 0 1 -3.936123,3.99949 4,4 0 0 1 -4.061837,-3.871751 4,4 0 0 1 3.806392,-4.123149 4,4 0 0 1 4.183409,3.740062" /><path
         id="inputProbabilityCV_4--hidden"
         style="fill:#00ff00;stroke-width:0.1325;paint-order:stroke fill markers"
         d="m 29.257583,51.730423 a 4.013,4.013 0 0 1 -3.948915,4.012488 4.013,4.013 0 0 1 -4.075038,-3.884334 4.013,4.013 0 0 1 3.818763,-4.136549 4.013,4.013 0 0 1 4.197005,3.752218" /><path
         id="paramProbabilityCVScale_4--hidden"
         style="fill:#ff0000;stroke-width:0.264999;paint-order:stroke fill markers"
         d="m 38.537586,51.730423 a 4,4 0 0 1 -3.936122,3.99949 4,4 0 0 1 -4.061838,-3.871751 4,4 0 0 1 3.806393,-4.123149 4,4 0 0 1 4.183409,3.740062" /><path
         id="paramMode_4--hidden"
         style="fill:#ff0000;stroke-width:0.264999;paint-order:stroke fill markers"
         transform="scale(1,-1)"
         d="m 47.817329,-51.730423 a 4,4 0 0 1 -3.936122,3.99949 4,4 0 0 1 -4.061837,-3.871751 4,4 0 0 1 3.806392,-4.123149 4,4 0 0 1 4.183409,3.740063" /><path
         id="outputA_4--hidden"
         style="fill:#0000ff;stroke-width:0.26586;paint-order:stroke fill markers"
         d="m 57.827663,51.730423 a 4.013,4.013 0 0 1 -3.948915,4.012488 4.013,4.013 0 0 1 -4.075038,-3.884334 4.013,4.013 0 0 1 3.818763,-4.136549 4.013,4.013 0 0 1 4.197005,3.752218" /><path
         id="lightStateA_4--hidden"
         style="fill:#ff00ff;stroke-width:0.13324;paint-order:stroke fill markers"
         d="m 58.271336,48.040573 a 0.75,0.75 0 0 1 -0.738023,0.749904 0.75,0.75 0 0 1 -0.761595,-0.725953 0.75,0.75 0 0 1 0.713699,-0.77309 0.75,0.75 0 0 1 0.784389,0.701261" /><path
         id="outputB_4--hidden"
         style="fill:#0000ff;stroke-width:0.26586;paint-order:stroke fill markers"
         d="m 68.49958,51.730423 a 4.013,4.013 0 0 1 -3.948915,4.012488 4.013,4.013 0 0 1 -4.075038,-3.884334 4.013,4.013 0 0 1 3.818763,-4.136549 4.013,4.013 0 0 1 4.197005,3.752218" /><path
         id="lightStateB_4--hidden"
         style="fill:#ff00ff;stroke-width:0.13324;paint-order:stroke fill markers"
         d="m 68.943253,48.040573 a 0.75,0.75 0 0 1 -0.738023,0.749904 0.75,0.75 0 0 1 -0.761595,-0.725953 0.75,0.75 0 0 1 0.713699,-0.77309 0.75,0.75 0 0 1 0.784389,0.701261" /></g><g
       inkscape:groupmode="layer"
       id="layer9"
       inkscape:label="Gate3"><path
         id="inputTrigger_3--hidden"
         style="fill:#00ff00;stroke-width:0.194174;paint-order:stroke fill markers"
         d="M 10.672333,40.671421 A 4.013,4.013 0 0 1 6.7234184,44.683909 4.013,4.013 0 0 1 2.64838,40.799575 a 4.013,4.013 0 0 1 3.818763,-4.136549 4.013,4.013 0 0 1 4.197005,3.752218" /><path
         id="paramProbability_3--hidden"
         style="fill:#ff0000;stroke-width:0.264999;paint-order:stroke fill markers"
         d="m 19.951584,40.671421 a 4,4 0 0 1 -3.936123,3.99949 4,4 0 0 1 -4.061837,-3.871751 4,4 0 0 1 3.806392,-4.123149 4,4 0 0 1 4.183409,3.740063" /><path
         id="inputProbabilityCV_3--hidden"
         style="fill:#00ff00;stroke-width:0.1325;paint-order:stroke fill markers"
         d="m 29.257583,40.671421 a 4.013,4.013 0 0 1 -3.948915,4.012488 4.013,4.013 0 0 1 -4.075038,-3.884334 4.013,4.013 0 0 1 3.818763,-4.136549 4.013,4.013 0 0 1 4.197005,3.752218" /><path
         id="paramProbabilityCVScale_3--hidden"
         style="fill:#ff0000;stroke-width:0.264999;paint-order:stroke fill markers"
         d="m 38.537586,40.671421 a 4,4 0 0 1 -3.936122,3.99949 4,4 0 0 1 -4.061838,-3.871751 4,4 0 0 1 3.806393,-4.123149 4,4 0 0 1 4.183409,3.740063" /><path
         id="paramMode_3--hidden"
         style="fill:#ff0000;stroke-width:0.264999;paint-order:stroke fill markers"
         transform="scale(1,-1)"
         d="m 47.817329,-40.671421 a 4,4 0 0 1 -3.936122,3.99949 4,4 0 0 1 -4.061837,-3.871751 4,4 0 0 1 3.806392,-4.123149 4,4 0 0 1 4.183409,3.740062" /><path
         id="outputA_3--hidden"
         style="fill:#0000ff;stroke-width:0.26586;paint-order:stroke fill markers"
         d="m 57.827663,40.671421 a 4.013,4.013 0 0 1 -3.948915,4.012488 4.013,4.013 0 0 1 -4.075038,-3.884334 4.013,4.013 0 0 1 3.818763,-4.136549 4.013,4.013 0 0 1 4.197005,3.752218" /><path
         id="lightStateA_3--hidden"
         style="fill:#ff00ff;stroke-width:0.13324;paint-order:stroke fill markers"
         d="m 58.271336,36.981571 a 0.75,0.75 0 0 1 -0.738023,0.749905 0.75,0.75 0 0 1 -0.761595,-0.725954 0.75,0.75 0 0 1 0.713699,-0.77309 0.75,0.75 0 0 1 0.784389,0.701262" /><path
         id="outputB_3--hidden"
         style="fill:#0000ff;stroke-width:0.26586;paint-order:stroke fill markers"
         d="m 68.49958,40.671421 a 4.013,4.013 0 0 1 -3.948915,4.012488 4.013,4.013 0 0 1 -4.075038,-3.884334 4.013,4.013 0 0 1 3.818763,-4.136549 4.013,4.013 0 0 1 4.197005,3.752218" /><path
         id="lightStateB_3--hidden"
         style="fill:#ff00ff;stroke-width:0.13324;paint-order:stroke fill markers"
         d="m 68.943253,36.981571 a 0.75,0.75 0 0 1 -0.738023,0.749905 0.75,0.75 0 0 1 -0.761595,-0.725954 0.75,0.75 0 0 1 0.713699,-0.77309 0.75,0.75 0 0 1 0.784389,0.701262" /></g><g
       inkscape:groupmode="layer"
       id="layer10"
       inkscape:label="Gate2"><path
         id="inputTrigger_2--hidden"
         style="fill:#00ff00;stroke-width:0.194174;paint-order:stroke fill markers"
         d="M 10.672333,29.612417 A 4.013,4.013 0 0 1 6.7234184,33.624905 4.013,4.013 0 0 1 2.64838,29.740571 4.013,4.013 0 0 1 6.467143,25.604022 4.013,4.013 0 0 1 10.664148,29.35624" /><path
         id="paramProbability_2--hidden"
         style="fill:#ff0000;stroke-width:0.264999;paint-order:stroke fill markers"
         d="m 19.951584,29.612417 a 4,4 0 0 1 -3.936123,3.99949 4,4 0 0 1 -4.061837,-3.871751 4,4 0 0 1 3.806392,-4.123149 4,4 0 0 1 4.183409,3.740063" /><path
         id="inputProbabilityCV_2--hidden"
         style="fill:#00ff00;stroke-width:0.1325;paint-order:stroke fill markers"
         d="m 29.257583,29.612417 a 4.013,4.013 0 0 1 -3.948915,4.012488 4.013,4.013 0 0 1 -4.075038,-3.884334 4.013,4.013 0 0 1 3.818763,-4.136549 4.013,4.013 0 0 1 4.197005,3.752218" /><path
         id="paramProbabilityCVScale_2--hidden"
         style="fill:#ff0000;stroke-width:0.264999;paint-order:stroke fill markers"
         d="m 38.537586,29.612417 a 4,4 0 0 1 -3.936122,3.99949 4,4 0 0 1 -4.061838,-3.871751 4,4 0 0 1 3.806393,-4.123149 4,4 0 0 1 4.183409,3.740063" /><path
         id="paramMode_2--hidden"
         style="fill:#ff0000;stroke-width:0.264999;paint-order:stroke fill markers"
         transform="scale(1,-1)"
         d="m 47.817329,-29.612417 a 4,4 0 0 1 -3.936122,3.99949 4,4 0 0 1 -4.061837,-3.871751 4,4 0 0 1 3.806392,-4.123149 4,4 0 0 1 4.183409,3.740062" /><path
         id="outputA_2--hidden"
         style="fill:#0000ff;stroke-width:0.26586;paint-order:stroke fill markers"
         d="m 57.827663,29.612417 a 4.013,4.013 0 0 1 -3.948915,4.012488 4.013,4.013 0 0 1 -4.075038,-3.884334 4.013,4.013 0 0 1 3.818763,-4.136549 4.013,4.013 0 0 1 4.197005,3.752218" /><path
         id="lightStateA_2--hidden"
         style="fill:#ff00ff;stroke-width:0.13324;paint-order:stroke fill markers"
         d="m 58.271336,25.922571 a 0.75,0.75 0 0 1 -0.738023,0.749905 0.75,0.75 0 0 1 -0.761595,-0.725954 0.75,0.75 0 0 1 0.713699,-0.77309 0.75,0.75 0 0 1 0.784389,0.701262" /><path
         id="outputB_2--hidden"
         style="fill:#0000ff;stroke-width:0.26586;paint-order:stroke fill markers"
         d="m 68.49958,29.612417 a 4.013,4.013 0 0 1 -3.948915,4.012488 4.013,4.013 0 0 1 -4.075038,-3.884334 4.013,4.013 0 0 1 3.818763,-4.136549 4.013,4.013 0 0 1 4.197005,3.752218" /><path
         id="lightStateB_2--hidden"
         style="fill:#ff00ff;stroke-width:0.13324;paint-order:stroke fill markers"
         d="m 68.943253,25.922571 a 0.75,0.75 0 0 1 -0.738023,0.749905 0.75,0.75 0 0 1 -0.761595,-0.725954 0.75,0.75 0 0 1 0.713699,-0.77309 0.75,0.75 0 0 1 0.784389,0.701262" /></g><g
       inkscape:groupmode="layer"
       id="layer11"
       inkscape:label="Gate1"><path
         id="inputTrigger_1--hidden"
         style="fill:#00ff00;stroke-width:0.194174;paint-order:stroke fill markers"
         d="m 10.672,18.550838 a 4.013,4.013 0 0 1 -3.9489149,4.012489 4.013,4.013 0 0 1 -4.0750384,-3.884334 4.013,4.013 0 0 1 3.818763,-4.13655 4.013,4.013 0 0 1 4.1970053,3.752218" /><path
         id="paramProbability_1--hidden"
         style="fill:#ff0000;stroke-width:0.264999;paint-order:stroke fill markers"
         d="m 19.95125,18.550838 a 4,4 0 0 1 -3.936122,3.99949 4,4 0 0 1 -4.061838,-3.871751 4,4 0 0 1 3.806392,-4.123149 4,4 0 0 1 4.183409,3.740063" /><path
         id="inputProbabilityCV_1--hidden"
         style="fill:#00ff00;stroke-width:0.1325;paint-order:stroke fill markers"
         d="m 29.257249,18.550838 a 4.013,4.013 0 0 1 -3.948914,4.012489 4.013,4.013 0 0 1 -4.075039,-3.884334 4.013,4.013 0 0 1 3.818763,-4.13655 4.013,4.013 0 0 1 4.197005,3.752218" /><path
         id="paramProbabilityCVScale_1--hidden"
         style="fill:#ff0000;stroke-width:0.264999;paint-order:stroke fill markers"
         inkscape:label="paramProbabilityCVScale_1--hidden"
         d="m 38.537251,18.550838 a 4,4 0 0 1 -3.936123,3.99949 4,4 0 0 1 -4.061837,-3.871751 4,4 0 0 1 3.806392,-4.123149 4,4 0 0 1 4.183409,3.740063" /><path
         id="paramMode_1--hidden"
         style="fill:#ff0000;stroke-width:0.264999;paint-order:stroke fill markers"
         transform="scale(1,-1)"
         d="m 47.817001,-18.550838 a 4,4 0 0 1 -3.936122,3.999489 4,4 0 0 1 -4.061837,-3.871751 4,4 0 0 1 3.806392,-4.123149 4,4 0 0 1 4.183409,3.740063" /><path
         id="outputA_1--hidden"
         style="fill:#0000ff;stroke-width:0.26586;paint-order:stroke fill markers"
         d="m 57.827327,18.550838 a 4.013,4.013 0 0 1 -3.948915,4.012489 4.013,4.013 0 0 1 -4.075038,-3.884334 4.013,4.013 0 0 1 3.818763,-4.13655 4.013,4.013 0 0 1 4.197005,3.752218" /><path
         id="outputB_1--hidden"
         style="fill:#0000ff;stroke-width:0.26586;paint-order:stroke fill markers"
         d="m 68.499244,18.550838 a 4.013,4.013 0 0 1 -3.948915,4.012489 4.013,4.013 0 0 1 -4.075038,-3.884334 4.013,4.013 0 0 1 3.818763,-4.13655 4.013,4.013 0 0 1 4.197005,3.752218" /><path
         id="lightStateA_1--hidden"
         style="fill:#ff00ff;stroke-width:0.13324;paint-order:stroke fill markers"
         d="m 58.270576,14.8615 a 0.75,0.75 0 0 1 -0.738022,0.749904 0.75,0.75 0 0 1 -0.761595,-0.725953 0.75,0.75 0 0 1 0.713699,-0.773091 0.75,0.75 0 0 1 0.784389,0.701262" /><path
         id="lightStateB_1--hidden"
         style="fill:#ff00ff;stroke-width:0.13324;paint-order:stroke fill markers"
         d="m 68.942917,14.860991 a 0.75,0.75 0 0 1 -0.738023,0.749904 0.75,0.75 0 0 1 -0.761595,-0.725953 0.75,0.75 0 0 1 0.713699,-0.773091 0.75,0.75 0 0 1 0.784389,0.701262" /></g></g></svg>
