<?xml version="1.0" encoding="UTF-8" standalone="no"?>
<!-- Created with Inkscape (http://www.inkscape.org/) -->

<svg
   width="30.48mm"
   height="128.5mm"
   viewBox="0 0 30.480002 128.50002"
   version="1.1"
   id="svg8"
   inkscape:version="1.4 (86a8ad7, 2024-10-11)"
   sodipodi:docname="Branch.svg"
   xml:space="preserve"
   xmlns:inkscape="http://www.inkscape.org/namespaces/inkscape"
   xmlns:sodipodi="http://sodipodi.sourceforge.net/DTD/sodipodi-0.dtd"
   xmlns="http://www.w3.org/2000/svg"
   xmlns:svg="http://www.w3.org/2000/svg"
   xmlns:rdf="http://www.w3.org/1999/02/22-rdf-syntax-ns#"
   xmlns:cc="http://creativecommons.org/ns#"
   xmlns:dc="http://purl.org/dc/elements/1.1/"><defs
     id="defs2"><linearGradient
       id="uuid-f0636bc7-c65b-4b70-b857-f875576c11d6"
       x1="37.5"
       y1="0"
       x2="37.5"
       y2="380"
       gradientUnits="userSpaceOnUse"><stop
         offset="0"
         stop-color="#ebebeb"
         id="stop2" /><stop
         offset="1"
         stop-color="#e1e1e1"
         id="stop4" /></linearGradient></defs><sodipodi:namedview
     id="base"
     pagecolor="#ffffff"
     bordercolor="#666666"
     borderopacity="1.0"
     inkscape:pageopacity="0.0"
     inkscape:pageshadow="2"
     inkscape:zoom="2.0000001"
     inkscape:cx="-12.25"
     inkscape:cy="260.49999"
     inkscape:document-units="mm"
     inkscape:current-layer="svg8"
     showgrid="true"
     units="mm"
     inkscape:snap-bbox="true"
     inkscape:snap-page="true"
     inkscape:bbox-nodes="false"
     inkscape:snap-bbox-edge-midpoints="false"
     inkscape:window-width="1920"
     inkscape:window-height="1027"
     inkscape:window-x="-8"
     inkscape:window-y="22"
     inkscape:window-maximized="1"
     inkscape:snap-bbox-midpoints="true"
     inkscape:snap-nodes="false"
     inkscape:showpageshadow="2"
     inkscape:pagecheckerboard="0"
     inkscape:deskcolor="#d1d1d1"
     showguides="false"><inkscape:grid
       id="grid1"
       units="px"
       originx="0"
       originy="0"
       spacingx="0.26458336"
       spacingy="0.26458338"
       empcolor="#3f3fff"
       empopacity="0.25098039"
       color="#3f3fff"
       opacity="0.1254902"
       empspacing="5"
       dotted="false"
       gridanglex="30"
       gridanglez="30"
       visible="true" /></sodipodi:namedview><metadata
     id="metadata5"><rdf:RDF><cc:Work
         rdf:about=""><dc:format>image/svg+xml</dc:format><dc:type
           rdf:resource="http://purl.org/dc/dcmitype/StillImage" /></cc:Work></rdf:RDF></metadata><g
     inkscape:label="Layer 1"
     inkscape:groupmode="layer"
     id="layer1"
     transform="translate(0,-168.49998)"
     style="display:inline"><path
       id="bg--background-fill"
       style="display:inline;opacity:1;vector-effect:none;fill:#1f1f1f;fill-rule:evenodd;stroke-width:0.649358"
       d="m 0,168.49997 h 30.48 v 128.5 H 0 Z" /><path
       id="footer--hidden"
       style="display:inline;fill:#707070;stroke-width:0.298333;paint-order:stroke fill markers"
       d="m 0,285.09372 h 30.48 v 11.90625 H 0 Z" /><path
       id="header--hidden"
       style="display:inline;fill:#707070;stroke-width:0.298333;paint-order:stroke fill markers"
       d="m 0,168.49998 h 30.48 v 11.90625 H 0 Z" /><path
       style="font-size:4.93889px;line-height:1.25;font-family:Nunito;-inkscape-font-specification:Nunito;text-align:center;letter-spacing:0px;word-spacing:0px;text-anchor:middle;fill:#ffffff;stroke-width:0.265"
       d="m 8.5847353,176.20993 h 1.1069094 q 0.3014459,0 0.5450143,-0.0796 0.24598,-0.0796 0.397909,-0.21222 0.151928,-0.13505 0.23151,-0.29903 0.08199,-0.1664 0.08199,-0.34727 0,-0.37138 -0.212218,-0.59324 -0.209806,-0.22187 -0.581187,-0.27492 v -0.01 q 0.318327,-0.0579 0.482313,-0.2701 0.163987,-0.21221 0.163987,-0.53295 0,-0.85852 -1.2395459,-0.85852 H 8.5847353 q -0.1519288,0 -0.2580377,0.0941 -0.1036974,0.094 -0.1036974,0.24839 v 2.73472 q 0,0.20016 0.096463,0.30145 0.098874,0.0989 0.2652724,0.0989 z m 0.32315,-0.50884 v -1.03215 h 0.4654325 q 0.1808676,0 0.3038575,0.0121 0.1229899,0.01 0.2363336,0.041 0.1157551,0.0314 0.1808671,0.0892 0.06752,0.0555 0.106109,0.14952 0.03858,0.0941 0.03858,0.2291 0,0.16157 -0.04582,0.26527 -0.04341,0.10129 -0.142283,0.15675 -0.098874,0.0531 -0.2194524,0.0724 -0.1205784,0.0169 -0.3110922,0.0169 z m 0,-1.50723 v -0.95498 H 9.505954 q 0.1254015,0 0.2122179,0.01 0.086816,0.007 0.1712213,0.0338 0.084405,0.0265 0.1350478,0.0748 0.05064,0.0458 0.07958,0.1254 0.03135,0.0796 0.03135,0.19292 0,0.28939 -0.1591633,0.40515 -0.1591635,0.11334 -0.5329564,0.11334 z m 3.0120477,2.01366 q 0.142282,0 0.243568,-0.094 0.103698,-0.0941 0.103698,-0.26286 v -1.13103 h 0.63183 0.0096 q 0.168809,0 0.27733,0.0314 0.110932,0.0313 0.178456,0.10611 0.06752,0.0724 0.09887,0.17363 0.03135,0.10129 0.04823,0.26286 l 0.06029,0.55708 q 0.01688,0.17604 0.120578,0.26768 0.103697,0.0892 0.248391,0.0892 0.139871,0 0.231511,-0.0916 0.09405,-0.0916 0.09405,-0.25563 0,-0.041 -0.0024,-0.0627 l -0.06752,-0.56913 q -0.03858,-0.34244 -0.204984,-0.54019 -0.163986,-0.20016 -0.499194,-0.26527 v -0.01 q 0.393085,-0.0627 0.588422,-0.27492 0.195337,-0.21463 0.195337,-0.52331 0,-0.88504 -1.270896,-0.88504 h -1.063501 q -0.151929,0 -0.260449,0.10128 -0.106109,0.0989 -0.106109,0.25322 v 2.76607 q 0,0.1664 0.101286,0.26286 0.101286,0.094 0.243568,0.094 z m 0.344854,-2.0016 v -0.95498 h 0.588423 0.05064 q 0.08682,0 0.142283,0.002 0.05547,0.002 0.135048,0.0121 0.07958,0.007 0.127813,0.0265 0.05064,0.0169 0.10852,0.0506 0.05788,0.0338 0.08923,0.082 0.03376,0.0482 0.05547,0.12299 0.0217,0.0724 0.0217,0.1664 0,0.0989 -0.02653,0.17604 -0.02653,0.0772 -0.06752,0.12782 -0.041,0.0506 -0.110932,0.0868 -0.06752,0.0362 -0.132636,0.0555 -0.0627,0.0193 -0.156752,0.0314 -0.09164,0.01 -0.161575,0.0121 -0.06752,0.002 -0.16881,0.002 z m 4.690499,0.73794 h -1.191315 l 0.595658,-1.58923 z m 0.390674,1.04421 q 0.041,0.11816 0.125401,0.17845 0.0844,0.0579 0.188102,0.0579 0.130225,0 0.231511,-0.0868 0.101286,-0.0868 0.101286,-0.21945 0,-0.0603 -0.02412,-0.12299 l -1.058678,-2.65031 q -0.101286,-0.26769 -0.233922,-0.35933 -0.130225,-0.0916 -0.315915,-0.0916 -0.185691,0 -0.318327,0.0916 -0.130225,0.0916 -0.231511,0.35933 l -1.058678,2.65031 q -0.02412,0.0627 -0.02412,0.12299 0,0.13264 0.101286,0.21945 0.101286,0.0868 0.231511,0.0868 0.103697,0 0.188102,-0.0579 0.0844,-0.0603 0.125401,-0.17845 l 0.217042,-0.57878 h 1.53858 z m 1.483114,0.22186 q 0.125401,0 0.219452,-0.0844 0.09405,-0.0844 0.09405,-0.21946 v -2.13665 l 1.574753,2.18006 q 0.07958,0.11334 0.20016,0.1881 0.120579,0.0724 0.224276,0.0724 0.163986,0 0.265272,-0.13022 0.101286,-0.13264 0.101286,-0.34004 v -2.70336 q 0,-0.13746 -0.09405,-0.22187 -0.09164,-0.0844 -0.214629,-0.0844 -0.125402,0 -0.219453,0.0868 -0.09164,0.0844 -0.09164,0.21945 v 2.13665 l -1.586811,-2.19694 q -0.07476,-0.11335 -0.192925,-0.17846 -0.115756,-0.0651 -0.224276,-0.0651 -0.15434,0 -0.260449,0.11334 -0.103698,0.11094 -0.103698,0.30386 v 2.75642 q 0,0.13746 0.09164,0.22187 0.09405,0.082 0.217041,0.082 z m 4.991944,0.0627 q 0.607715,0 1.02974,-0.28215 0.135047,-0.094 0.135047,-0.24357 0,-0.10611 -0.06993,-0.1881 -0.06752,-0.082 -0.166398,-0.082 -0.05064,0 -0.101286,0.0265 -0.385851,0.20981 -0.718647,0.20981 -0.501606,0 -0.76929,-0.32556 -0.265273,-0.32798 -0.265273,-0.93087 0,-0.63424 0.265273,-0.94775 0.265272,-0.3135 0.75482,-0.3135 0.09405,0 0.180868,0.0121 0.08682,0.0121 0.163987,0.0362 0.07717,0.0217 0.125401,0.041 0.05064,0.0169 0.118167,0.0482 0.06993,0.0314 0.08923,0.0386 0.05064,0.0193 0.09164,0.0193 0.108521,0 0.188103,-0.0868 0.07958,-0.0868 0.07958,-0.19775 0,-0.15916 -0.166398,-0.2508 -0.443728,-0.22186 -0.904337,-0.22186 -0.366559,0 -0.682474,0.13022 -0.313504,0.12781 -0.542603,0.36174 -0.229099,0.23392 -0.359323,0.58118 -0.130225,0.34727 -0.130225,0.76688 0,0.53778 0.21463,0.95016 0.217041,0.40997 0.590834,0.62942 0.376204,0.21945 0.848871,0.21945 z m 2.124591,-0.0651 q 0.142282,0 0.243568,-0.0989 0.103697,-0.0989 0.103697,-0.26044 v -1.15756 h 1.495172 v 1.15756 q 0,0.16157 0.103697,0.26044 0.103698,0.0989 0.243569,0.0989 0.142282,0 0.243568,-0.0989 0.101286,-0.0989 0.101286,-0.26044 v -2.75401 q 0,-0.16158 -0.101286,-0.26045 -0.101286,-0.0989 -0.241157,-0.0989 -0.142282,0 -0.24598,0.0989 -0.103697,0.0989 -0.103697,0.26045 v 1.03215 h -1.495172 v -1.03215 q 0,-0.16158 -0.103697,-0.26045 -0.101286,-0.0989 -0.241157,-0.0989 -0.142282,0 -0.24598,0.0989 -0.101286,0.0989 -0.101286,0.26045 v 2.75401 q 0,0.16157 0.101286,0.26044 0.103698,0.0989 0.243569,0.0989 z"
       id="moduleName--moduleName"
       aria-label="BRANCH" /><path
       id="outBlock--output-fill"
       style="fill:#e6e6e6;stroke-width:0.457642"
       d="m 17.204,192.97697 h 7.925999 c 0.732942,0 1.323,0.59006 1.323,1.323 v 89.47075 c 0,0.73294 -0.590058,1.323 -1.323,1.323 H 17.204 c -0.732942,0 -1.323,-0.59006 -1.323,-1.323 v -89.47075 c 0,-0.73294 0.590058,-1.323 1.323,-1.323 z" /><path
       style="font-size:2.82222px;line-height:1.25;font-family:Nunito;-inkscape-font-specification:Nunito;letter-spacing:0px;word-spacing:0px;fill:#ffffff;stroke-width:0.264583"
       d="m 20.59475,182.41541 h 0.632519 q 0.172255,0 0.311436,-0.0455 0.14056,-0.0455 0.227377,-0.12127 0.08682,-0.0772 0.132291,-0.17087 0.04685,-0.0951 0.04685,-0.19844 0,-0.21222 -0.121267,-0.339 -0.119889,-0.12678 -0.332107,-0.15709 v -0.006 q 0.181901,-0.0331 0.275608,-0.15434 0.09371,-0.12126 0.09371,-0.30454 0,-0.49058 -0.708311,-0.49058 H 20.59475 q -0.08682,0 -0.14745,0.0537 -0.05926,0.0537 -0.05926,0.14194 v 1.56269 q 0,0.11438 0.05512,0.17226 0.0565,0.0565 0.151584,0.0565 z m 0.184657,-0.29077 v -0.5898 h 0.265961 q 0.103353,0 0.173633,0.007 0.07028,0.006 0.135047,0.0234 0.06615,0.0179 0.103353,0.051 0.03858,0.0317 0.06063,0.0854 0.02205,0.0537 0.02205,0.13092 0,0.0923 -0.02618,0.15158 -0.02481,0.0579 -0.0813,0.0896 -0.0565,0.0303 -0.125402,0.0413 -0.0689,0.01 -0.177767,0.01 z m 0,-0.86127 v -0.54571 h 0.341753 q 0.07166,0 0.121267,0.006 0.04961,0.004 0.09784,0.0193 0.04823,0.0152 0.07717,0.0427 0.02894,0.0262 0.04547,0.0717 0.01791,0.0455 0.01791,0.11024 0,0.16536 -0.09095,0.23151 -0.09095,0.0648 -0.304546,0.0648 z"
       id="outRight--text"
       aria-label="B" /><path
       style="font-size:2.82222px;line-height:1.25;font-family:Nunito;-inkscape-font-specification:Nunito;letter-spacing:0px;word-spacing:0px;fill:#ffffff;stroke-width:0.264583"
       d="M 9.5963746,181.69194 H 8.9156242 l 0.3403752,-0.90813 z m 0.223242,0.59669 q 0.023427,0.0675 0.071658,0.10197 0.048231,0.0331 0.1074869,0.0331 0.074414,0 0.1322916,-0.0496 0.05788,-0.0496 0.05788,-0.1254 0,-0.0344 -0.01378,-0.0703 l -0.6049581,-1.51446 q -0.057878,-0.15296 -0.1336696,-0.20533 -0.074414,-0.0524 -0.1805229,-0.0524 -0.1061088,0 -0.1819009,0.0524 -0.074414,0.0524 -0.1322916,0.20533 l -0.6049583,1.51446 q -0.01378,0.0358 -0.01378,0.0703 0,0.0758 0.057878,0.1254 0.057878,0.0496 0.1322916,0.0496 0.059256,0 0.1074869,-0.0331 0.048231,-0.0344 0.071658,-0.10197 l 0.1240234,-0.33073 h 0.8791877 z"
       id="outLeft--text"
       aria-label="A" /></g><g
     id="Widgets"
     style="display:inline"
     inkscape:label="Widgets"
     transform="matrix(1,0,0,1.0000544,0,-0.00689912)"><path
       id="param_DestinationSource8--hidden"
       style="display:inline;vector-effect:none;fill:#ff0000;fill-rule:evenodd"
       d="m 13.313,111.30837 a 4,4 0 0 1 -4.0000003,4 4,4 0 0 1 -4,-4 4,4 0 0 1 4,-4 4,4 0 0 1 4.0000003,4 z" /><path
       id="param_DestinationSource7--hidden"
       style="display:inline;vector-effect:none;fill:#ff0000;fill-rule:evenodd"
       d="m 13.313,99.663979 a 4,4 0 0 1 -4.0000003,4.000001 4,4 0 0 1 -4,-4.000001 4,4 0 0 1 4,-4 4,4 0 0 1 4.0000003,4 z" /><path
       id="param_DestinationSource6--hidden"
       style="display:inline;vector-effect:none;fill:#ff0000;fill-rule:evenodd"
       d="m 13.313,88.014618 a 4,4 0 0 1 -4.0000003,4 4,4 0 0 1 -4,-4 4,4 0 0 1 4,-4 4,4 0 0 1 4.0000003,4 z" /><path
       id="param_DestinationSource5--hidden"
       style="display:inline;vector-effect:none;fill:#ff0000;fill-rule:evenodd"
       d="m 13.313,76.365257 a 4,4 0 0 1 -4.0000003,4 4,4 0 0 1 -4,-4 4,4 0 0 1 4,-4 4,4 0 0 1 4.0000003,4 z" /><path
       id="param_DestinationSource4--hidden"
       style="display:inline;vector-effect:none;fill:#ff0000;fill-rule:evenodd"
       d="m 13.313,64.715881 a 4,4 0 0 1 -4.0000003,4 4,4 0 0 1 -4,-4 4,4 0 0 1 4,-4 4,4 0 0 1 4.0000003,4 z" /><path
       id="param_DestinationSource3--hidden"
       style="display:inline;vector-effect:none;fill:#ff0000;fill-rule:evenodd"
       d="m 13.313,53.066521 a 4,4 0 0 1 -4.0000003,4 4,4 0 0 1 -4,-4 4,4 0 0 1 4,-4 4,4 0 0 1 4.0000003,4 z" /><path
       id="param_DestinationSource2--hidden"
       style="display:inline;vector-effect:none;fill:#ff0000;fill-rule:evenodd"
       d="m 13.313,41.417149 a 4,4 0 0 1 -4.0000003,4 4,4 0 0 1 -4,-4 4,4 0 0 1 4,-4 4,4 0 0 1 4.0000003,4 z" /><path
       id="param_DestinationSource1--hidden"
       style="display:inline;vector-effect:none;fill:#ff0000;fill-rule:evenodd"
       d="m 13.313,29.768497 a 4,4 0 0 1 -4.0000003,4 4,4 0 0 1 -4,-4 4,4 0 0 1 4,-4 4,4 0 0 1 4.0000003,4 z" /><path
       id="output_Destination8--hidden"
       style="display:inline;vector-effect:none;fill:#00ff00;fill-rule:evenodd"
       d="m 25.166636,111.30837 a 4,4 0 0 1 -4,4 4,4 0 0 1 -4,-4 4,4 0 0 1 4,-4 4,4 0 0 1 4,4 z" /><path
       id="output_Destination7--hidden"
       style="display:inline;vector-effect:none;fill:#00ff00;fill-rule:evenodd"
       d="m 25.166636,99.663979 a 4,4 0 0 1 -4,4.000001 4,4 0 0 1 -4,-4.000001 4,4 0 0 1 4,-4 4,4 0 0 1 4,4 z" /><path
       id="output_Destination6--hidden"
       style="display:inline;vector-effect:none;fill:#00ff00;fill-rule:evenodd"
       d="m 25.166636,88.014618 a 4,4 0 0 1 -4,4 4,4 0 0 1 -4,-4 4,4 0 0 1 4,-4 4,4 0 0 1 4,4 z" /><path
       id="output_Destination5--hidden"
       style="display:inline;vector-effect:none;fill:#00ff00;fill-rule:evenodd"
       d="m 25.166636,76.36525 a 4,4 0 0 1 -4,4 4,4 0 0 1 -4,-4 4,4 0 0 1 4,-4 4,4 0 0 1 4,4 z" /><path
       id="output_Destination4--hidden"
       style="display:inline;vector-effect:none;fill:#00ff00;fill-rule:evenodd"
       d="m 25.166636,64.715881 a 4,4 0 0 1 -4,4 4,4 0 0 1 -4,-4 4,4 0 0 1 4,-4 4,4 0 0 1 4,4 z" /><path
       id="output_Destination3--hidden"
       style="display:inline;vector-effect:none;fill:#00ff00;fill-rule:evenodd"
       d="m 25.166636,53.066517 a 4,4 0 0 1 -4,4 4,4 0 0 1 -4,-4 4,4 0 0 1 4,-4 4,4 0 0 1 4,4 z" /><path
       id="output_Destination2--hidden"
       style="display:inline;vector-effect:none;fill:#00ff00;fill-rule:evenodd"
       d="m 25.166636,41.417149 a 4,4 0 0 1 -4,4 4,4 0 0 1 -4,-4 4,4 0 0 1 4,-4 4,4 0 0 1 4,4 z" /><path
       id="output_Destination1--hidden"
       style="display:inline;vector-effect:none;fill:#00ff00;fill-rule:evenodd"
       d="m 25.166636,29.768497 a 4,4 0 0 1 -4,4 4,4 0 0 1 -4,-4 4,4 0 0 1 4,-4 4,4 0 0 1 4,4 z" /><path
       id="input_B--hidden"
       style="display:inline;vector-effect:none;fill:#0000ff;fill-rule:evenodd"
       d="m 25.166636,18.892359 a 4,4 0 0 1 -4,4 4,4 0 0 1 -4,-4 4,4 0 0 1 4,-4 4,4 0 0 1 4,4 z" /><path
       id="input_A--hidden"
       style="display:inline;vector-effect:none;fill:#0000ff;fill-rule:evenodd"
       d="m 13.256,18.884249 a 4,4 0 0 1 -4.0000004,4 4,4 0 0 1 -4,-4 4,4 0 0 1 4,-4 4,4 0 0 1 4.0000004,4 z" /><path
       id="widgetLogo--hidden"
       style="fill:#ffff00;stroke-width:3.76997;paint-order:stroke fill markers"
       d="m 10.8805,118.193 h 8.719 v 8.719 h -8.719 z" /></g></svg>
