<?xml version="1.0" encoding="UTF-8" standalone="no"?>
<!-- Created with Inkscape (http://www.inkscape.org/) -->

<svg
   width="90"
   height="380"
   viewBox="0 0 90.000002 380.00001"
   version="1.1"
   id="svg8"
   inkscape:version="1.4.2 (ebf0e94, 2025-05-08)"
   sodipodi:docname="Branch.svg"
   xml:space="preserve"
   xmlns:inkscape="http://www.inkscape.org/namespaces/inkscape"
   xmlns:sodipodi="http://sodipodi.sourceforge.net/DTD/sodipodi-0.dtd"
   xmlns="http://www.w3.org/2000/svg"
   xmlns:svg="http://www.w3.org/2000/svg"
   xmlns:rdf="http://www.w3.org/1999/02/22-rdf-syntax-ns#"
   xmlns:cc="http://creativecommons.org/ns#"
   xmlns:dc="http://purl.org/dc/elements/1.1/"><defs
     id="defs2"><linearGradient
       id="uuid-f0636bc7-c65b-4b70-b857-f875576c11d6"
       x1="37.5"
       y1="0"
       x2="37.5"
       y2="380"
       gradientUnits="userSpaceOnUse"><stop
         offset="0"
         stop-color="#ebebeb"
         id="stop2" /><stop
         offset="1"
         stop-color="#e1e1e1"
         id="stop4" /></linearGradient></defs><sodipodi:namedview
     id="base"
     pagecolor="#ffffff"
     bordercolor="#666666"
     borderopacity="1.0"
     inkscape:pageopacity="0.0"
     inkscape:pageshadow="2"
     inkscape:zoom="2.0000001"
     inkscape:cx="-36.749998"
     inkscape:cy="208.99999"
     inkscape:document-units="px"
     inkscape:current-layer="layer1"
     showgrid="true"
     units="mm"
     inkscape:snap-bbox="true"
     inkscape:snap-page="true"
     inkscape:bbox-nodes="false"
     inkscape:snap-bbox-edge-midpoints="false"
     inkscape:window-width="1920"
     inkscape:window-height="1027"
     inkscape:window-x="-8"
     inkscape:window-y="22"
     inkscape:window-maximized="1"
     inkscape:snap-bbox-midpoints="true"
     inkscape:snap-nodes="false"
     inkscape:showpageshadow="2"
     inkscape:pagecheckerboard="0"
     inkscape:deskcolor="#d1d1d1"
     showguides="false"><inkscape:grid
       id="grid1"
       units="px"
       originx="1.3322677e-15"
       originy="0"
       spacingx="1"
       spacingy="1"
       empcolor="#3f3fff"
       empopacity="0.25098039"
       color="#3f3fff"
       opacity="0.1254902"
       empspacing="5"
       dotted="false"
       gridanglex="30"
       gridanglez="30"
       visible="true" /></sodipodi:namedview><metadata
     id="metadata5"><rdf:RDF><cc:Work
         rdf:about=""><dc:format>image/svg+xml</dc:format><dc:type
           rdf:resource="http://purl.org/dc/dcmitype/StillImage" /></cc:Work></rdf:RDF></metadata><g
     inkscape:label="Layer 1"
     inkscape:groupmode="layer"
     id="layer1"
     transform="translate(0,-168.49997)"
     style="display:inline"><path
       id="bg--background-fill"
       style="display:inline;opacity:1;vector-effect:none;fill:#1f1f1f;fill-rule:evenodd;stroke-width:1.91884"
       d="m 0,168.49997 h 90 v 380 H 0 Z" /><path
       id="footer--hidden"
       style="display:inline;fill:#707070;stroke-width:0.878945;paint-order:stroke fill markers"
       d="m 0,513.5 h 90 v 35 H 0 Z" /><path
       id="header--hidden"
       style="display:inline;fill:#707070;stroke-width:0.878945;paint-order:stroke fill markers"
       d="m 0,168.49997 h 90 v 35 H 0 Z" /><path
       id="outBlock--output-fill"
       style="fill:#bf9b30;stroke-width:1.44582"
       d="M 49.964648,243.5 H 78.035352 C 80.231767,243.5 82,245.26823 82,247.46465 v 262.0707 C 82,511.73177 80.231767,513.5 78.035352,513.5 H 49.964648 C 47.768233,513.5 46,511.73177 46,509.53535 V 247.46465 C 46,245.26823 47.768233,243.5 49.964648,243.5 Z" /><path
       style="font-weight:500;font-size:10px;line-height:1.25;font-family:Sono;-inkscape-font-specification:'Sono Medium';text-align:center;letter-spacing:0px;word-spacing:0px;text-anchor:middle;fill:#bf9b30"
       d="m 64.937496,206.24997 q 0.09,0 0.31,0.06 0.225,0.06 0.47,0.225 0.25,0.16 0.425,0.46 0.175,0.295 0.175,0.77 0,0.58 -0.265,0.965 -0.26,0.385 -0.75,0.58 -0.485,0.19 -1.175,0.19 h -1.78 q -0.665,0 -0.665,-0.67 v -4.855 q 0,-0.665 0.665,-0.665 h 1.52 q 0.59,0 1.1,0.125 0.51,0.12 0.82,0.445 0.315,0.325 0.315,0.945 0,0.44 -0.15,0.72 -0.145,0.28 -0.35,0.435 -0.205,0.15 -0.395,0.21 -0.19,0.06 -0.27,0.06 z m -2.145,-2.12 v 1.815 h 1.105 q 0.32,0 0.57,-0.105 0.255,-0.105 0.395,-0.315 0.145,-0.21 0.145,-0.525 0,-0.365 -0.17,-0.55 -0.165,-0.185 -0.45,-0.25 -0.28,-0.07 -0.625,-0.07 z m 1.01,4.55 q 0.685,0 1.035,-0.245 0.35,-0.245 0.35,-0.77 0,-0.535 -0.365,-0.755 -0.365,-0.22 -0.88,-0.22 h -1.15 v 1.99 z"
       id="inB--text"
       aria-label="B" /><path
       style="font-weight:500;font-size:10px;line-height:1.25;font-family:Sono;-inkscape-font-specification:'Sono Medium';letter-spacing:0px;word-spacing:0px;fill:#bf9b30"
       d="m 23.869993,209.59497 q -0.22,0 -0.36,-0.125 -0.135,-0.125 -0.135,-0.36 0,-0.055 0.01,-0.12 0.01,-0.065 0.03,-0.135 l 1.71,-4.95 q 0.095,-0.285 0.285,-0.45 0.195,-0.17 0.46,-0.17 h 0.255 q 0.27,0 0.46,0.17 0.195,0.165 0.285,0.45 l 1.71,4.95 q 0.025,0.07 0.035,0.135 0.01,0.065 0.01,0.12 0,0.235 -0.14,0.36 -0.14,0.125 -0.365,0.125 -0.275,0 -0.405,-0.145 -0.13,-0.145 -0.215,-0.445 l -0.38,-1.105 h -2.245 l -0.38,1.105 q -0.08,0.3 -0.215,0.445 -0.13,0.145 -0.41,0.145 z m 1.235,-2.515 h 1.79 l -0.845,-2.55 q -0.015,-0.055 -0.03,-0.11 -0.015,-0.06 -0.025,-0.105 -0.005,0.045 -0.02,0.105 -0.01,0.055 -0.025,0.11 z"
       id="inA--text"
       aria-label="A" /><path
       style="font-weight:500;font-size:16px;line-height:1.25;font-family:Sono;-inkscape-font-specification:'Sono Medium';letter-spacing:0px;word-spacing:0px;fill:#bf9b30;stroke-width:0.781836"
       d="m 35.551153,185.58021 q 0.144,0 0.496,0.096 0.36,0.096 0.752,0.36 0.4,0.256 0.68,0.736 0.28,0.472 0.28,1.232 0,0.928 -0.424,1.544 -0.416,0.616 -1.2,0.928 -0.776,0.304 -1.88,0.304 h -2.848 q -1.064,0 -1.064,-1.072 v -7.768 q 0,-1.064 1.064,-1.064 h 2.432 q 0.944,0 1.76,0.2 0.816,0.192 1.312,0.712 0.504,0.52 0.504,1.512 0,0.704 -0.24,1.152 -0.232,0.448 -0.56,0.696 -0.328,0.24 -0.632,0.336 -0.304,0.096 -0.432,0.096 z m -3.432,-3.392 v 2.904 h 1.768 q 0.512,0 0.912,-0.168 0.408,-0.168 0.632,-0.504 0.232,-0.336 0.232,-0.84 0,-0.584 -0.272,-0.88 -0.264,-0.296 -0.72,-0.4 -0.448,-0.112 -1,-0.112 z m 1.616,7.28 q 1.096,0 1.656,-0.392 0.56,-0.392 0.56,-1.232 0,-0.856 -0.584,-1.208 -0.584,-0.352 -1.408,-0.352 h -1.84 v 3.184 z m 7.792012,-7.28 v 3.08 h 2.008 q 0.824,0 1.28,-0.408 0.464,-0.408 0.464,-1.176 0,-0.768 -0.48,-1.128 -0.472,-0.368 -1.32,-0.368 z m -1.776,7.64 v -7.888 q 0,-1.064 1.064,-1.064 h 2.952 q 0.552,0 1.128,0.112 0.576,0.104 1.064,0.4 0.496,0.296 0.8,0.832 0.304,0.528 0.304,1.384 0,1.072 -0.512,1.704 -0.512,0.624 -1.24,0.872 l 1.536,3.48 q 0.064,0.144 0.096,0.28 0.032,0.128 0.032,0.248 0,0.328 -0.216,0.52 -0.208,0.184 -0.6,0.184 -0.48,0 -0.688,-0.24 -0.208,-0.24 -0.384,-0.688 l -1.448,-3.384 h -2.112 v 3.248 q 0,1.064 -0.896,1.064 -0.88,0 -0.88,-1.064 z m 9.223999,1.104 q -0.352,0 -0.576,-0.2 -0.216,-0.2 -0.216,-0.576 0,-0.088 0.016,-0.192 0.016,-0.104 0.048,-0.216 l 2.736,-7.92 q 0.152,-0.456 0.456,-0.72 0.312,-0.272 0.736,-0.272 h 0.408 q 0.432,0 0.736,0.272 0.312,0.264 0.456,0.72 l 2.736,7.92 q 0.04,0.112 0.056,0.216 0.016,0.104 0.016,0.192 0,0.376 -0.224,0.576 -0.224,0.2 -0.584,0.2 -0.44,0 -0.648,-0.232 -0.208,-0.232 -0.344,-0.712 l -0.608,-1.768 h -3.592 l -0.608,1.768 q -0.128,0.48 -0.344,0.712 -0.208,0.232 -0.656,0.232 z m 1.976,-4.024 h 2.864 l -1.352,-4.08 q -0.024,-0.088 -0.048,-0.176 -0.024,-0.096 -0.04,-0.168 -0.008,0.072 -0.032,0.168 -0.016,0.088 -0.04,0.176 z m 7.599996,3.944 q -0.8,0 -0.8,-1.048 v -7.904 q 0,-0.52 0.312,-0.792 0.32,-0.272 0.832,-0.272 h 0.04 q 0.456,0 0.776,0.232 0.328,0.232 0.552,0.664 l 3.376,6.392 v -6.24 q 0,-1.048 0.808,-1.048 0.376,0 0.592,0.264 0.216,0.264 0.216,0.784 v 7.904 q 0,0.512 -0.272,0.792 -0.264,0.272 -0.776,0.272 h -0.016 q -0.464,0 -0.768,-0.232 -0.296,-0.232 -0.528,-0.664 l -3.56,-6.616 v 6.464 q 0,1.048 -0.784,1.048 z m 12.79199,0.088 q -0.816,0 -1.616,-0.272 -0.8,-0.272 -1.456,-0.872 -0.656,-0.6 -1.048,-1.568 -0.392,-0.976 -0.392,-2.368 0,-1.392 0.392,-2.36 0.392,-0.976 1.048,-1.576 0.656,-0.6 1.456,-0.872 0.8,-0.272 1.616,-0.272 0.768,0 1.4,0.232 0.64,0.224 1.104,0.6 0.472,0.376 0.72,0.824 0.256,0.448 0.256,0.888 0,0.352 -0.224,0.56 -0.224,0.2 -0.528,0.2 -0.376,0 -0.536,-0.168 -0.152,-0.168 -0.256,-0.416 -0.088,-0.296 -0.312,-0.616 -0.224,-0.328 -0.616,-0.552 -0.392,-0.232 -1,-0.232 -0.68,0 -1.304,0.4 -0.616,0.392 -1.008,1.224 -0.392,0.824 -0.392,2.136 0,1.312 0.392,2.144 0.392,0.832 1.008,1.224 0.624,0.392 1.304,0.392 0.608,0 1,-0.224 0.392,-0.232 0.616,-0.552 0.224,-0.328 0.312,-0.624 0.104,-0.256 0.256,-0.424 0.16,-0.168 0.536,-0.168 0.304,0 0.528,0.216 0.224,0.208 0.224,0.552 0,0.44 -0.256,0.888 -0.256,0.448 -0.728,0.824 -0.464,0.376 -1.104,0.608 -0.632,0.224 -1.392,0.224 z m 10.943989,-9.072 q 0,-1.072 0.888,-1.072 0.888,0 0.888,1.072 v 7.96 q 0,1.064 -0.888,1.064 -0.888,0 -0.888,-1.064 v -3.472 h -3.944 v 3.472 q 0,1.064 -0.888,1.064 -0.88,0 -0.88,-1.064 v -7.96 q 0,-0.528 0.224,-0.8 0.232,-0.272 0.656,-0.272 0.888,0 0.888,1.072 v 3.184 h 3.944 z"
       id="moduleName--moduleName"
       transform="scale(0.99924857,1.000752)"
       aria-label="BRANCH" /></g><g
     id="Widgets"
     style="display:inline"
     inkscape:label="Widgets"
     transform="matrix(2.9527559,0,0,2.9573593,0,-0.02037096)"><path
       id="param_DestinationSource8--hidden"
       style="display:inline;vector-effect:none;fill:#ff0000;fill-rule:evenodd"
       d="m 12.869333,111.25481 a 4.0640001,4.0576739 0 0 1 -4.0639999,4.05767 4.0640001,4.0576739 0 0 1 -4.0640001,-4.05767 4.0640001,4.0576739 0 0 1 4.0640001,-4.05768 4.0640001,4.0576739 0 0 1 4.0639999,4.05768 z" /><path
       id="param_DestinationSource7--hidden"
       style="display:inline;vector-effect:none;fill:#ff0000;fill-rule:evenodd"
       d="M 12.869333,99.758072 A 4.0640001,4.0576739 0 0 1 8.8053331,103.81575 4.0640001,4.0576739 0 0 1 4.741333,99.758072 4.0640001,4.0576739 0 0 1 8.8053331,95.700398 4.0640001,4.0576739 0 0 1 12.869333,99.758072 Z" /><path
       id="param_DestinationSource6--hidden"
       style="display:inline;vector-effect:none;fill:#ff0000;fill-rule:evenodd"
       d="M 12.869333,88.261322 A 4.0640001,4.0576739 0 0 1 8.8053331,92.318996 4.0640001,4.0576739 0 0 1 4.741333,88.261322 4.0640001,4.0576739 0 0 1 8.8053331,84.203648 4.0640001,4.0576739 0 0 1 12.869333,88.261322 Z" /><path
       id="param_DestinationSource5--hidden"
       style="display:inline;vector-effect:none;fill:#ff0000;fill-rule:evenodd"
       d="M 12.869333,76.764587 A 4.0640001,4.0576739 0 0 1 8.8053331,80.822261 4.0640001,4.0576739 0 0 1 4.741333,76.764587 4.0640001,4.0576739 0 0 1 8.8053331,72.706913 4.0640001,4.0576739 0 0 1 12.869333,76.764587 Z" /><path
       id="param_DestinationSource4--hidden"
       style="display:inline;vector-effect:none;fill:#ff0000;fill-rule:evenodd"
       d="M 12.869333,65.267853 A 4.0640001,4.0576739 0 0 1 8.8053331,69.325527 4.0640001,4.0576739 0 0 1 4.741333,65.267853 4.0640001,4.0576739 0 0 1 8.8053331,61.210179 4.0640001,4.0576739 0 0 1 12.869333,65.267853 Z" /><path
       id="param_DestinationSource3--hidden"
       style="display:inline;vector-effect:none;fill:#ff0000;fill-rule:evenodd"
       d="M 12.869333,53.771118 A 4.0640001,4.0576739 0 0 1 8.8053331,57.828792 4.0640001,4.0576739 0 0 1 4.741333,53.771118 4.0640001,4.0576739 0 0 1 8.8053331,49.713444 4.0640001,4.0576739 0 0 1 12.869333,53.771118 Z" /><path
       id="param_DestinationSource2--hidden"
       style="display:inline;vector-effect:none;fill:#ff0000;fill-rule:evenodd"
       d="M 12.869333,42.274384 A 4.0640001,4.0576739 0 0 1 8.8053331,46.332057 4.0640001,4.0576739 0 0 1 4.741333,42.274384 4.0640001,4.0576739 0 0 1 8.8053331,38.21671 4.0640001,4.0576739 0 0 1 12.869333,42.274384 Z" /><path
       id="param_DestinationSource1--hidden"
       style="display:inline;vector-effect:none;fill:#ff0000;fill-rule:evenodd;stroke-width:1.01521"
       d="M 12.869333,30.777594 A 4.0640001,4.0576739 0 0 1 8.8053331,34.835268 4.0640001,4.0576739 0 0 1 4.741333,30.777594 4.0640001,4.0576739 0 0 1 8.8053331,26.71992 4.0640001,4.0576739 0 0 1 12.869333,30.777594 Z" /><path
       id="output_Destination8--hidden"
       style="display:inline;vector-effect:none;fill:#0000ff;fill-rule:evenodd"
       d="m 25.738667,111.25481 a 4.0640001,4.0576739 0 0 1 -4.064,4.05767 4.0640001,4.0576739 0 0 1 -4.064,-4.05767 4.0640001,4.0576739 0 0 1 4.064,-4.05768 4.0640001,4.0576739 0 0 1 4.064,4.05768 z" /><path
       id="output_Destination7--hidden"
       style="display:inline;vector-effect:none;fill:#0000ff;fill-rule:evenodd"
       d="m 25.738667,99.758072 a 4.0640001,4.0576739 0 0 1 -4.064,4.057678 4.0640001,4.0576739 0 0 1 -4.064,-4.057678 4.0640001,4.0576739 0 0 1 4.064,-4.057674 4.0640001,4.0576739 0 0 1 4.064,4.057674 z" /><path
       id="output_Destination6--hidden"
       style="display:inline;vector-effect:none;fill:#0000ff;fill-rule:evenodd"
       d="m 25.738667,88.261322 a 4.0640001,4.0576739 0 0 1 -4.064,4.057674 4.0640001,4.0576739 0 0 1 -4.064,-4.057674 4.0640001,4.0576739 0 0 1 4.064,-4.057674 4.0640001,4.0576739 0 0 1 4.064,4.057674 z" /><path
       id="output_Destination5--hidden"
       style="display:inline;vector-effect:none;fill:#0000ff;fill-rule:evenodd"
       d="m 25.738667,76.764587 a 4.0640001,4.0576739 0 0 1 -4.064,4.057674 4.0640001,4.0576739 0 0 1 -4.064,-4.057674 4.0640001,4.0576739 0 0 1 4.064,-4.057674 4.0640001,4.0576739 0 0 1 4.064,4.057674 z" /><path
       id="output_Destination4--hidden"
       style="display:inline;vector-effect:none;fill:#0000ff;fill-rule:evenodd"
       d="m 25.738667,65.267853 a 4.0640001,4.0576739 0 0 1 -4.064,4.057674 4.0640001,4.0576739 0 0 1 -4.064,-4.057674 4.0640001,4.0576739 0 0 1 4.064,-4.057674 4.0640001,4.0576739 0 0 1 4.064,4.057674 z" /><path
       id="output_Destination3--hidden"
       style="display:inline;vector-effect:none;fill:#0000ff;fill-rule:evenodd"
       d="m 25.738667,53.771118 a 4.0640001,4.0576739 0 0 1 -4.064,4.057674 4.0640001,4.0576739 0 0 1 -4.064,-4.057674 4.0640001,4.0576739 0 0 1 4.064,-4.057674 4.0640001,4.0576739 0 0 1 4.064,4.057674 z" /><path
       id="output_Destination2--hidden"
       style="display:inline;vector-effect:none;fill:#0000ff;fill-rule:evenodd"
       d="m 25.738667,42.274384 a 4.0640001,4.0576739 0 0 1 -4.064,4.057673 4.0640001,4.0576739 0 0 1 -4.064,-4.057673 4.0640001,4.0576739 0 0 1 4.064,-4.057674 4.0640001,4.0576739 0 0 1 4.064,4.057674 z" /><path
       id="output_Destination1--hidden"
       style="display:inline;vector-effect:none;fill:#0000ff;fill-rule:evenodd"
       d="m 25.738667,30.777594 a 4.0640001,4.0576739 0 0 1 -4.064,4.057674 4.0640001,4.0576739 0 0 1 -4.064,-4.057674 4.0640001,4.0576739 0 0 1 4.064,-4.057674 4.0640001,4.0576739 0 0 1 4.064,4.057674 z" /><path
       id="input_B--hidden"
       style="display:inline;vector-effect:none;fill:#00ff00;fill-rule:evenodd"
       d="m 25.738667,19.28084 a 4.0640001,4.0576739 0 0 1 -4.064,4.057674 4.0640001,4.0576739 0 0 1 -4.064,-4.057674 4.0640001,4.0576739 0 0 1 4.064,-4.057674 4.0640001,4.0576739 0 0 1 4.064,4.057674 z" /><path
       id="input_A--hidden"
       style="display:inline;vector-effect:none;fill:#00ff00;fill-rule:evenodd;stroke-width:1.01521"
       d="M 12.869333,19.28084 A 4.0640001,4.0576739 0 0 1 8.8053331,23.338514 4.0640001,4.0576739 0 0 1 4.741333,19.28084 4.0640001,4.0576739 0 0 1 8.8053331,15.223166 4.0640001,4.0576739 0 0 1 12.869333,19.28084 Z" /><path
       id="widgetLogo--hidden"
       style="fill:#ffff00;stroke-width:3.65802;paint-order:stroke fill markers"
       d="m 11.006667,118.35572 h 8.466666 v 8.45349 h -8.466666 z" /></g></svg>
