<?xml version="1.0" encoding="UTF-8" standalone="no"?>
<!-- Created with Inkscape (http://www.inkscape.org/) -->

<svg
   width="55.880001mm"
   height="128.5mm"
   viewBox="0 0 55.880006 128.50002"
   version="1.1"
   id="svg8"
   inkscape:version="1.3.2 (091e20e, 2023-11-25, custom)"
   sodipodi:docname="CableColorModule.svg"
   xml:space="preserve"
   xmlns:inkscape="http://www.inkscape.org/namespaces/inkscape"
   xmlns:sodipodi="http://sodipodi.sourceforge.net/DTD/sodipodi-0.dtd"
   xmlns="http://www.w3.org/2000/svg"
   xmlns:svg="http://www.w3.org/2000/svg"
   xmlns:rdf="http://www.w3.org/1999/02/22-rdf-syntax-ns#"
   xmlns:cc="http://creativecommons.org/ns#"
   xmlns:dc="http://purl.org/dc/elements/1.1/"><defs
     id="defs2"><linearGradient
       id="uuid-f0636bc7-c65b-4b70-b857-f875576c11d6"
       x1="37.5"
       y1="0"
       x2="37.5"
       y2="380"
       gradientUnits="userSpaceOnUse"><stop
         offset="0"
         stop-color="#ebebeb"
         id="stop2" /><stop
         offset="1"
         stop-color="#e1e1e1"
         id="stop4" /></linearGradient></defs><sodipodi:namedview
     id="base"
     pagecolor="#ffffff"
     bordercolor="#666666"
     borderopacity="1.0"
     inkscape:pageopacity="0.0"
     inkscape:pageshadow="2"
     inkscape:zoom="1"
     inkscape:cx="-69.499999"
     inkscape:cy="251.5"
     inkscape:document-units="mm"
     inkscape:current-layer="layer1"
     showgrid="true"
     units="mm"
     inkscape:snap-bbox="true"
     inkscape:snap-page="true"
     inkscape:bbox-nodes="false"
     inkscape:snap-bbox-edge-midpoints="false"
     inkscape:window-width="1920"
     inkscape:window-height="1027"
     inkscape:window-x="-8"
     inkscape:window-y="22"
     inkscape:window-maximized="1"
     inkscape:snap-bbox-midpoints="true"
     inkscape:snap-nodes="false"
     inkscape:showpageshadow="2"
     inkscape:pagecheckerboard="0"
     inkscape:deskcolor="#d1d1d1"><inkscape:grid
       id="grid1"
       units="px"
       originx="0"
       originy="0"
       spacingx="0.26458336"
       spacingy="0.26458338"
       empcolor="#3f3fff"
       empopacity="0.25098039"
       color="#3f3fff"
       opacity="0.1254902"
       empspacing="5"
       dotted="false"
       gridanglex="30"
       gridanglez="30"
       visible="true" /></sodipodi:namedview><metadata
     id="metadata5"><rdf:RDF><cc:Work
         rdf:about=""><dc:format>image/svg+xml</dc:format><dc:type
           rdf:resource="http://purl.org/dc/dcmitype/StillImage" /></cc:Work></rdf:RDF></metadata><g
     inkscape:label="Layer 1"
     inkscape:groupmode="layer"
     id="layer1"
     transform="translate(0,-168.49998)"
     style="display:inline"><path
       id="bg--background-fill"
       style="display:inline;opacity:1;vector-effect:none;fill:#1f1f1f;fill-rule:evenodd;stroke-width:0.879234"
       d="m 0,168.49998 h 55.880001 v 128.5 H 0 Z" /><path
       style="font-size:4.93889px;line-height:1.25;font-family:nunito;-inkscape-font-specification:nunito;letter-spacing:0px;word-spacing:0px;fill:#ffffff;stroke-width:0.264583"
       d="m 18.540919,7.7726512 q 0.607715,0 1.02974,-0.2821534 0.135047,-0.094051 0.135047,-0.2435683 0,-0.106109 -0.06994,-0.1881022 -0.06752,-0.081993 -0.166398,-0.081993 -0.05064,0 -0.101286,0.026527 -0.385851,0.2098064 -0.718647,0.2098064 -0.501606,0 -0.76929,-0.3255616 -0.265273,-0.3279732 -0.265273,-0.930865 0,-0.6342423 0.265273,-0.947746 0.265272,-0.3135038 0.75482,-0.3135038 0.09405,0 0.180868,0.012058 0.08682,0.012058 0.163987,0.036174 0.07717,0.021704 0.125401,0.040997 0.05064,0.016881 0.118167,0.048231 0.06993,0.03135 0.08923,0.038585 0.05064,0.019293 0.09164,0.019293 0.108521,0 0.188103,-0.086816 0.07958,-0.086816 0.07958,-0.1977486 0,-0.1591634 -0.166398,-0.250803 -0.443728,-0.2218642 -0.904337,-0.2218642 -0.366559,0 -0.682474,0.1302247 -0.313504,0.127813 -0.542603,0.3617351 -0.229099,0.233922 -0.359323,0.5811877 -0.130225,0.3472657 -0.130225,0.7668784 0,0.5377796 0.21463,0.9501576 0.217041,0.4099664 0.590834,0.6294191 0.376204,0.2194526 0.848871,0.2194526 z m 2.124591,-0.065112 q 0.142283,0 0.243569,-0.098874 0.103697,-0.098874 0.103697,-0.2604493 V 6.190663 h 1.495172 v 1.1575523 q 0,0.1615751 0.103697,0.2604493 0.103698,0.098874 0.243568,0.098874 0.142283,0 0.243569,-0.098874 0.101286,-0.098874 0.101286,-0.2604493 V 4.5942054 q 0,-0.161575 -0.101286,-0.2604493 -0.101286,-0.098874 -0.241157,-0.098874 -0.142282,0 -0.24598,0.098874 -0.103697,0.098874 -0.103697,0.2604493 V 5.6263562 H 21.012776 V 4.5942054 q 0,-0.161575 -0.103697,-0.2604493 -0.101286,-0.098874 -0.241157,-0.098874 -0.142283,0 -0.24598,0.098874 -0.101286,0.098874 -0.101286,0.2604493 v 2.7540099 q 0,0.1615751 0.101286,0.2604493 0.103697,0.098874 0.243568,0.098874 z m 3.69211,0 q 0.142282,0 0.243568,-0.094051 0.103697,-0.094051 0.103697,-0.2628609 V 6.2196018 h 0.631831 0.0096 q 0.16881,0 0.27733,0.03135 0.110933,0.03135 0.178456,0.106109 0.06752,0.072347 0.09887,0.1736328 0.03135,0.1012858 0.04823,0.2628608 l 0.06029,0.5570721 q 0.01688,0.1760444 0.120579,0.267684 0.103697,0.089228 0.248391,0.089228 0.139871,0 0.231511,-0.09164 0.09405,-0.091639 0.09405,-0.2556261 0,-0.040997 -0.0024,-0.062701 L 26.634139,6.7284425 Q 26.595554,6.386 26.429156,6.1882514 26.265169,5.9880913 25.929962,5.922979 v -0.00965 q 0.393085,-0.062701 0.588422,-0.2749187 0.195337,-0.2146295 0.195337,-0.5233101 0,-0.8850453 -1.270896,-0.8850453 h -1.063501 q -0.151929,0 -0.26045,0.1012859 -0.106109,0.098874 -0.106109,0.2532145 v 2.7660678 q 0,0.1663982 0.101286,0.2628609 0.101286,0.094051 0.243569,0.094051 z M 24.702474,5.705938 V 4.7509573 h 0.588422 0.05064 q 0.08682,0 0.142283,0.00241 0.05547,0.00241 0.135047,0.012058 0.07958,0.00723 0.127813,0.026527 0.05064,0.016881 0.108521,0.050643 0.05788,0.033762 0.08923,0.081993 0.03376,0.048231 0.05547,0.12299 0.0217,0.072347 0.0217,0.1663981 0,0.098874 -0.02653,0.1760444 -0.02653,0.07717 -0.06752,0.1278131 -0.041,0.050643 -0.110932,0.086816 -0.06752,0.036174 -0.132636,0.055466 -0.0627,0.019292 -0.156752,0.03135 -0.09164,0.00965 -0.161575,0.012058 -0.06752,0.00241 -0.16881,0.00241 z m 4.26124,1.521699 q -0.487137,0 -0.725882,-0.3279732 -0.236334,-0.3303847 -0.236334,-0.9453344 0,-0.6101265 0.238745,-0.9405113 0.238746,-0.3327963 0.723471,-0.3327963 0.487136,0 0.72347,0.3303848 0.238745,0.3303847 0.238745,0.9429228 0,0.6149497 -0.238745,0.9453344 -0.238745,0.3279732 -0.72347,0.3279732 z m 0,0.5450142 q 0.812698,0 1.251603,-0.484725 0.438905,-0.4847251 0.438905,-1.3335968 0,-0.8488717 -0.438905,-1.3335968 -0.438905,-0.4871366 -1.251603,-0.4871366 -0.807876,0 -1.249192,0.4871366 -0.441317,0.4847251 -0.441317,1.3335968 0,0.8488717 0.441317,1.3335968 0.441316,0.484725 1.249192,0.484725 z M 33.227365,7.5797258 V 6.7380888 L 32.388139,4.7340763 Q 32.308558,4.5290931 32.156629,4.4278073 32.0047,4.3241099 31.828656,4.3241099 q -0.209807,0 -0.364147,0.127813 -0.15434,0.1278131 -0.15434,0.3279732 l 0.0024,2.6430778 q 0,0.1205784 0.09164,0.1881023 0.09405,0.065112 0.221864,0.065112 0.127813,0 0.219453,-0.065112 0.09164,-0.067524 0.09164,-0.1881023 V 5.0837536 l 0.894692,2.1631759 q 0.125401,0.3327963 0.395497,0.3327963 z m 0.0024,0 q 0.267684,0 0.397909,-0.3327963 l 0.89228,-2.1631759 v 2.3392203 q 0,0.1205784 0.09164,0.1881023 0.09405,0.065112 0.221864,0.065112 0.127813,0 0.219452,-0.065112 0.09405,-0.067524 0.09405,-0.1881023 V 4.7798961 q 0,-0.2001601 -0.15434,-0.3279732 -0.15434,-0.127813 -0.361735,-0.127813 -0.176044,0 -0.327973,0.1036974 -0.151929,0.1012858 -0.231511,0.306269 l -0.841637,2.0040125 z m 4.726673,-1.1358482 h -1.191314 l 0.595657,-1.5892229 z m 0.390674,1.0442086 q 0.041,0.1181669 0.125402,0.178456 0.0844,0.057878 0.188102,0.057878 0.130224,0 0.23151,-0.086817 0.101286,-0.086816 0.101286,-0.2194526 0,-0.060289 -0.02412,-0.1229899 L 37.910629,4.6448483 q -0.101286,-0.267684 -0.233922,-0.3593235 -0.130224,-0.09164 -0.315915,-0.09164 -0.185691,0 -0.318327,0.09164 -0.130225,0.091639 -0.23151,0.3593235 l -1.058678,2.6503126 q -0.02412,0.062701 -0.02412,0.1229899 0,0.1326362 0.101286,0.2194526 0.101286,0.086817 0.23151,0.086817 0.103698,0 0.188102,-0.057878 0.0844,-0.060289 0.125402,-0.178456 l 0.217041,-0.5787761 h 1.53858 z"
       id="moduleName--moduleName"
       transform="translate(0,168.49998)"
       aria-label="CHROMA" /></g><g
     inkscape:groupmode="layer"
     id="layer2"
     inkscape:label="Widgets"><path
       id="widgetLogo--hidden"
       style="fill:#ffff00;stroke-width:3.76997;paint-order:stroke fill markers"
       d="m 23.580502,118.193 h 8.718999 v 8.719 h -8.718999 z" /><path
       id="widgetColorDisplay--hidden"
       style="fill:#ffff00;stroke-width:0.828047;paint-order:stroke fill markers"
       d="M 4,13.496 H 51.880001 V 116.603 H 4 Z" /></g></svg>
