<?xml version="1.0" encoding="UTF-8" standalone="no"?>
<!-- Created with Inkscape (http://www.inkscape.org/) -->

<svg
   width="55.880001mm"
   height="128.5mm"
   viewBox="0 0 55.880006 128.50002"
   version="1.1"
   id="svg8"
   inkscape:version="1.4 (86a8ad7, 2024-10-11)"
   sodipodi:docname="Chroma.svg"
   xml:space="preserve"
   xmlns:inkscape="http://www.inkscape.org/namespaces/inkscape"
   xmlns:sodipodi="http://sodipodi.sourceforge.net/DTD/sodipodi-0.dtd"
   xmlns="http://www.w3.org/2000/svg"
   xmlns:svg="http://www.w3.org/2000/svg"
   xmlns:rdf="http://www.w3.org/1999/02/22-rdf-syntax-ns#"
   xmlns:cc="http://creativecommons.org/ns#"
   xmlns:dc="http://purl.org/dc/elements/1.1/"><defs
     id="defs2"><linearGradient
       id="uuid-f0636bc7-c65b-4b70-b857-f875576c11d6"
       x1="37.5"
       y1="0"
       x2="37.5"
       y2="380"
       gradientUnits="userSpaceOnUse"><stop
         offset="0"
         stop-color="#ebebeb"
         id="stop2" /><stop
         offset="1"
         stop-color="#e1e1e1"
         id="stop4" /></linearGradient></defs><sodipodi:namedview
     id="base"
     pagecolor="#ffffff"
     bordercolor="#666666"
     borderopacity="1.0"
     inkscape:pageopacity="0.0"
     inkscape:pageshadow="2"
     inkscape:zoom="1"
     inkscape:cx="-69.5"
     inkscape:cy="251"
     inkscape:document-units="mm"
     inkscape:current-layer="layer1"
     showgrid="true"
     units="mm"
     inkscape:snap-bbox="true"
     inkscape:snap-page="true"
     inkscape:bbox-nodes="false"
     inkscape:snap-bbox-edge-midpoints="false"
     inkscape:window-width="1920"
     inkscape:window-height="1027"
     inkscape:window-x="-8"
     inkscape:window-y="22"
     inkscape:window-maximized="1"
     inkscape:snap-bbox-midpoints="true"
     inkscape:snap-nodes="false"
     inkscape:showpageshadow="2"
     inkscape:pagecheckerboard="0"
     inkscape:deskcolor="#d1d1d1"><inkscape:grid
       id="grid1"
       units="px"
       originx="0"
       originy="0"
       spacingx="0.26458336"
       spacingy="0.26458338"
       empcolor="#3f3fff"
       empopacity="0.25098039"
       color="#3f3fff"
       opacity="0.1254902"
       empspacing="5"
       dotted="false"
       gridanglex="30"
       gridanglez="30"
       visible="true" /></sodipodi:namedview><metadata
     id="metadata5"><rdf:RDF><cc:Work
         rdf:about=""><dc:format>image/svg+xml</dc:format><dc:type
           rdf:resource="http://purl.org/dc/dcmitype/StillImage" /></cc:Work></rdf:RDF></metadata><g
     inkscape:label="Layer 1"
     inkscape:groupmode="layer"
     id="layer1"
     transform="translate(0,-168.49998)"
     style="display:inline"><path
       id="bg--background-fill"
       style="display:inline;opacity:1;vector-effect:none;fill:#1f1f1f;fill-rule:evenodd;stroke-width:0.879234"
       d="m 0,168.49998 h 55.880001 v 128.5 H 0 Z" /><path
       id="footer--hidden"
       style="display:inline;fill:#707070;stroke-width:0.851642;paint-order:stroke fill markers"
       d="m 0,285.09399 h 55.880001 v 11.906 H 0 Z" /><path
       id="header--hidden"
       style="display:inline;fill:#707070;stroke-width:0.851642;paint-order:stroke fill markers"
       d="m 0,168.49998 h 55.880001 v 11.906 H 0 Z" /><path
       style="font-size:4.93889px;line-height:1.25;font-family:nunito;-inkscape-font-specification:nunito;letter-spacing:0px;word-spacing:0px;fill:#ffffff;stroke-width:0.264583"
       d="m 33.427335,176.27263 q 0.607715,0 1.029739,-0.28215 0.135048,-0.094 0.135048,-0.24357 0,-0.10611 -0.06994,-0.1881 -0.06752,-0.082 -0.166398,-0.082 -0.05064,0 -0.101286,0.0265 -0.38585,0.20981 -0.718647,0.20981 -0.501606,0 -0.76929,-0.32556 -0.265272,-0.32798 -0.265272,-0.93087 0,-0.63424 0.265272,-0.94775 0.265273,-0.3135 0.754821,-0.3135 0.09405,0 0.180868,0.0121 0.08682,0.0121 0.163986,0.0362 0.07717,0.0217 0.125402,0.041 0.05064,0.0169 0.118166,0.0482 0.06994,0.0314 0.08923,0.0386 0.05064,0.0193 0.09164,0.0193 0.10852,0 0.188102,-0.0868 0.07958,-0.0868 0.07958,-0.19775 0,-0.15916 -0.166398,-0.2508 -0.443729,-0.22186 -0.904338,-0.22186 -0.366558,0 -0.682474,0.13022 -0.313503,0.12781 -0.542602,0.36174 -0.229099,0.23392 -0.359324,0.58118 -0.130224,0.34727 -0.130224,0.76688 0,0.53778 0.214629,0.95016 0.217041,0.40997 0.590834,0.62942 0.376205,0.21945 0.848872,0.21945 z m 2.124591,-0.0651 q 0.142282,0 0.243568,-0.0989 0.103697,-0.0989 0.103697,-0.26044 v -1.15756 h 1.495172 v 1.15756 q 0,0.16157 0.103698,0.26044 0.103697,0.0989 0.243568,0.0989 0.142282,0 0.243568,-0.0989 0.101286,-0.0989 0.101286,-0.26044 v -2.75401 q 0,-0.16158 -0.101286,-0.26045 -0.101286,-0.0989 -0.241157,-0.0989 -0.142282,0 -0.245979,0.0989 -0.103698,0.0989 -0.103698,0.26045 v 1.03215 h -1.495172 v -1.03215 q 0,-0.16158 -0.103697,-0.26045 -0.101286,-0.0989 -0.241157,-0.0989 -0.142282,0 -0.24598,0.0989 -0.101285,0.0989 -0.101285,0.26045 v 2.75401 q 0,0.16157 0.101285,0.26044 0.103698,0.0989 0.243569,0.0989 z m 3.692109,0 q 0.142283,0 0.243568,-0.094 0.103698,-0.0941 0.103698,-0.26286 v -1.13103 h 0.63183 0.0096 q 0.168809,0 0.27733,0.0314 0.110932,0.0313 0.178456,0.10611 0.06752,0.0724 0.09887,0.17363 0.03135,0.10129 0.04823,0.26286 l 0.06029,0.55708 q 0.01688,0.17604 0.120578,0.26768 0.103697,0.0892 0.248392,0.0892 0.13987,0 0.23151,-0.0916 0.09405,-0.0916 0.09405,-0.25563 0,-0.041 -0.0024,-0.0627 l -0.06752,-0.56913 q -0.03859,-0.34244 -0.204984,-0.54019 -0.163986,-0.20016 -0.499194,-0.26527 v -0.01 q 0.393085,-0.0627 0.588422,-0.27492 0.195337,-0.21463 0.195337,-0.52331 0,-0.88504 -1.270896,-0.88504 h -1.063501 q -0.151929,0 -0.260449,0.10128 -0.106109,0.0989 -0.106109,0.25322 v 2.76607 q 0,0.1664 0.101286,0.26286 0.101286,0.094 0.243568,0.094 z m 0.344854,-2.0016 v -0.95498 h 0.588423 0.05064 q 0.08682,0 0.142282,0.002 0.05547,0.002 0.135048,0.0121 0.07958,0.007 0.127813,0.0265 0.05064,0.0169 0.10852,0.0506 0.05788,0.0338 0.08923,0.082 0.03376,0.0482 0.05547,0.12299 0.02171,0.0724 0.02171,0.1664 0,0.0989 -0.02653,0.17604 -0.02653,0.0772 -0.06752,0.12782 -0.041,0.0506 -0.110932,0.0868 -0.06752,0.0362 -0.132636,0.0555 -0.0627,0.0193 -0.156752,0.0314 -0.09164,0.01 -0.161575,0.0121 -0.06752,0.002 -0.168809,0.002 z m 4.26124,1.5217 q -0.487137,0 -0.725882,-0.32798 -0.236333,-0.33038 -0.236333,-0.94533 0,-0.61013 0.238745,-0.94051 0.238745,-0.3328 0.72347,-0.3328 0.487137,0 0.72347,0.33039 0.238745,0.33038 0.238745,0.94292 0,0.61495 -0.238745,0.94533 -0.238745,0.32798 -0.72347,0.32798 z m 0,0.54501 q 0.812698,0 1.251603,-0.48472 0.438906,-0.48473 0.438906,-1.3336 0,-0.84887 -0.438906,-1.3336 -0.438905,-0.48713 -1.251603,-0.48713 -0.807875,0 -1.249192,0.48713 -0.441317,0.48473 -0.441317,1.3336 0,0.84887 0.441317,1.3336 0.441317,0.48472 1.249192,0.48472 z m 4.263651,-0.19292 v -0.84164 l -0.839225,-2.00401 q -0.07958,-0.20499 -0.231511,-0.30627 -0.151928,-0.1037 -0.327973,-0.1037 -0.209806,0 -0.364146,0.12781 -0.154341,0.12782 -0.154341,0.32798 l 0.0024,2.64307 q 0,0.12058 0.09164,0.18811 0.09405,0.0651 0.221865,0.0651 0.127813,0 0.219452,-0.0651 0.09164,-0.0675 0.09164,-0.18811 v -2.33922 l 0.894691,2.16318 q 0.125402,0.3328 0.395497,0.3328 z m 0.0024,0 q 0.267684,0 0.397909,-0.3328 l 0.892279,-2.16318 v 2.33922 q 0,0.12058 0.09164,0.18811 0.09405,0.0651 0.221864,0.0651 0.127813,0 0.219453,-0.0651 0.09405,-0.0675 0.09405,-0.18811 v -2.64307 q 0,-0.20016 -0.15434,-0.32798 -0.154341,-0.12781 -0.361735,-0.12781 -0.176045,0 -0.327974,0.1037 -0.151928,0.10128 -0.23151,0.30627 l -0.841637,2.00401 z m 4.726673,-1.13585 H 51.65155 l 0.595657,-1.58923 z m 0.390673,1.04421 q 0.041,0.11816 0.125402,0.17845 0.08441,0.0579 0.188102,0.0579 0.130225,0 0.231511,-0.0868 0.101286,-0.0868 0.101286,-0.21945 0,-0.0603 -0.02412,-0.12299 l -1.058678,-2.65031 q -0.101286,-0.26769 -0.233922,-0.35933 -0.130225,-0.0916 -0.315916,-0.0916 -0.18569,0 -0.318326,0.0916 -0.130225,0.0916 -0.231511,0.35933 l -1.058678,2.65031 q -0.02412,0.0627 -0.02412,0.12299 0,0.13264 0.101286,0.21945 0.101286,0.0868 0.231511,0.0868 0.103697,0 0.188102,-0.0579 0.08441,-0.0603 0.125401,-0.17845 l 0.217041,-0.57878 h 1.53858 z"
       id="moduleName--moduleName"
       aria-label="CHROMA" /></g><g
     inkscape:groupmode="layer"
     id="layer2"
     inkscape:label="Widgets"><path
       id="widgetLogo--hidden"
       style="fill:#ffff00;stroke-width:3.76997;paint-order:stroke fill markers"
       d="m 23.580502,118.193 h 8.718999 v 8.719 h -8.718999 z" /><path
       id="widgetColorDisplay--hidden"
       style="fill:#ffff00;stroke-width:0.828047;paint-order:stroke fill markers"
       d="M 4,13.496 H 51.880001 V 116.603 H 4 Z" /></g></svg>
