<?xml version="1.0" encoding="UTF-8" standalone="no"?>
<!-- Created with Inkscape (http://www.inkscape.org/) -->

<svg
   width="135"
   height="380.00003"
   viewBox="0 0 135 380.00004"
   version="1.1"
   id="svg8"
   inkscape:version="1.4.2 (ebf0e94, 2025-05-08)"
   sodipodi:docname="Conductor.svg"
   xml:space="preserve"
   xmlns:inkscape="http://www.inkscape.org/namespaces/inkscape"
   xmlns:sodipodi="http://sodipodi.sourceforge.net/DTD/sodipodi-0.dtd"
   xmlns="http://www.w3.org/2000/svg"
   xmlns:svg="http://www.w3.org/2000/svg"
   xmlns:rdf="http://www.w3.org/1999/02/22-rdf-syntax-ns#"
   xmlns:cc="http://creativecommons.org/ns#"
   xmlns:dc="http://purl.org/dc/elements/1.1/"><defs
     id="defs2"><linearGradient
       id="uuid-f0636bc7-c65b-4b70-b857-f875576c11d6"
       x1="37.5"
       y1="0"
       x2="37.5"
       y2="380"
       gradientUnits="userSpaceOnUse"><stop
         offset="0"
         stop-color="#ebebeb"
         id="stop2" /><stop
         offset="1"
         stop-color="#e1e1e1"
         id="stop4" /></linearGradient></defs><sodipodi:namedview
     id="base"
     pagecolor="#ffffff"
     bordercolor="#666666"
     borderopacity="1.0"
     inkscape:pageopacity="0.0"
     inkscape:pageshadow="2"
     inkscape:zoom="2.1894735"
     inkscape:cx="44.759619"
     inkscape:cy="205.07213"
     inkscape:document-units="px"
     inkscape:current-layer="svg8"
     showgrid="true"
     units="mm"
     inkscape:snap-bbox="true"
     inkscape:snap-page="true"
     inkscape:bbox-nodes="false"
     inkscape:snap-bbox-edge-midpoints="false"
     inkscape:window-width="1920"
     inkscape:window-height="1027"
     inkscape:window-x="-8"
     inkscape:window-y="22"
     inkscape:window-maximized="1"
     inkscape:snap-bbox-midpoints="true"
     inkscape:snap-nodes="false"
     inkscape:showpageshadow="2"
     inkscape:pagecheckerboard="0"
     inkscape:deskcolor="#d1d1d1"><inkscape:grid
       id="grid1"
       units="px"
       originx="7.5355286e-16"
       originy="0"
       spacingx="1"
       spacingy="1"
       empcolor="#3f3fff"
       empopacity="0.25098039"
       color="#3f3fff"
       opacity="0.1254902"
       empspacing="5"
       dotted="false"
       gridanglex="30"
       gridanglez="30"
       visible="true" /></sodipodi:namedview><metadata
     id="metadata5"><rdf:RDF><cc:Work
         rdf:about=""><dc:format>image/svg+xml</dc:format><dc:type
           rdf:resource="http://purl.org/dc/dcmitype/StillImage" /></cc:Work></rdf:RDF></metadata><g
     inkscape:label="Layer 1"
     inkscape:groupmode="layer"
     id="layer1"
     transform="translate(0,-168.49997)"
     style="display:inline"><path
       id="bg--background-fill"
       style="display:inline;opacity:1;vector-effect:none;fill:#1f1f1f;fill-rule:evenodd;stroke-width:2.35008"
       d="m 0,168.49997 h 135 v 380 H 0 Z" /><path
       id="silkResetPtnLine--silkscreen"
       style="display:inline;fill:#bf9b30;stroke-width:0"
       d="M 81.000496,345.50006 H 111.0005 v 2 H 81.000496 Z" /><path
       id="silkManualSet--silkscreen"
       style="display:inline;fill:#bf9b30;stroke-width:0"
       d="m 24.000006,437.50015 h 30 v 2 h -30 z" /><path
       id="silkResetLine--silkscreen"
       style="display:inline;fill:#bf9b30;stroke-width:0"
       d="m 24,391.50021 h 30 v 2 H 24 Z" /><path
       id="silkAdvanceLine--silkscreen"
       style="display:inline;fill:#bf9b30;stroke-width:0"
       d="m 24,345.50006 h 30 v 2 H 24 Z" /><path
       id="header--hidden"
       style="display:inline;fill:#707070;stroke-width:1.07649;paint-order:stroke fill markers"
       d="m 0,168.50002 h 135 v 35 H 0 Z" /><path
       id="footer--hidden"
       style="display:inline;fill:#707070;stroke-width:1.07649;paint-order:stroke fill markers"
       d="m 0,513.5 h 135 v 35 H 0 Z" /><path
       id="outBlock--output-fill"
       style="display:inline;fill:#bf9b30;stroke-width:1.05402"
       d="m 10,471.5 h 115 c 2.216,0 4,1.784 4,4 v 34 c 0,2.216 -1.784,4 -4,4 H 10 c -2.216,0 -4,-1.784 -4,-4 v -34 c 0,-2.216 1.784,-4 4,-4 z" /><path
       style="font-weight:500;font-size:10px;line-height:1.25;font-family:Sono;-inkscape-font-specification:'Sono Medium';letter-spacing:0px;word-spacing:0px"
       d="m 96.782992,476.13003 v 2.305 h 0.92 q 0.2,0 0.42,-0.035 0.225,-0.04 0.42,-0.155 0.195,-0.12 0.32,-0.355 0.125,-0.235 0.125,-0.635 0,-0.395 -0.125,-0.62 -0.125,-0.23 -0.32,-0.335 -0.195,-0.11 -0.42,-0.14 -0.22,-0.03 -0.42,-0.03 z m 1.085,3.125 h -1.085 v 1.575 q 0,0.67 -0.55,0.67 -0.555,0 -0.555,-0.67 v -4.855 q 0,-0.665 0.665,-0.665 h 1.525 q 0.225,0 0.515,0.035 0.295,0.03 0.595,0.135 0.3,0.105 0.555,0.32 0.255,0.21 0.41,0.565 0.159998,0.35 0.159998,0.89 0,0.535 -0.159998,0.9 -0.155,0.36 -0.41,0.58 -0.255,0.22 -0.555,0.335 -0.3,0.11 -0.595,0.15 -0.29,0.035 -0.515,0.035 z m 7.309998,-3.945 q 0.62,0 0.62,0.405 0,0.2 -0.17,0.31 -0.165,0.105 -0.42,0.105 h -1.35 v 4.775 q 0,0.665 -0.555,0.665 -0.555,0 -0.555,-0.665 v -4.775 h -1.29 q -0.305,0 -0.475,-0.105 -0.165,-0.11 -0.165,-0.31 0,-0.195 0.165,-0.3 0.17,-0.105 0.475,-0.105 z m 1.9,6.235 q -0.5,0 -0.5,-0.655 v -4.94 q 0,-0.325 0.195,-0.495 0.2,-0.17 0.52,-0.17 h 0.025 q 0.285,0 0.485,0.145 0.205,0.145 0.345,0.415 l 2.11,3.995 v -3.9 q 0,-0.655 0.505,-0.655 0.235,0 0.37,0.165 0.135,0.165 0.135,0.49 v 4.94 q 0,0.32 -0.17,0.495 -0.165,0.17 -0.485,0.17 h -0.01 q -0.29,0 -0.48,-0.145 -0.185,-0.145 -0.33,-0.415 l -2.225,-4.135 v 4.04 q 0,0.655 -0.49,0.655 z m 11.245,0.055 q -0.51,0 -1.01,-0.17 -0.5,-0.17 -0.91,-0.545 -0.41,-0.375 -0.655,-0.98 -0.245,-0.61 -0.245,-1.48 0,-0.87 0.245,-1.475 0.245,-0.61 0.655,-0.985 0.41,-0.375 0.91,-0.545 0.5,-0.17 1.01,-0.17 0.48,0 0.875,0.145 0.4,0.14 0.69,0.375 0.295,0.235 0.45,0.515 0.16,0.28 0.16,0.555 0,0.22 -0.14,0.35 -0.14,0.125 -0.33,0.125 -0.235,0 -0.335,-0.105 -0.095,-0.105 -0.16,-0.26 -0.055,-0.185 -0.195,-0.385 -0.14,-0.205 -0.385,-0.345 -0.245,-0.145 -0.625,-0.145 -0.425,0 -0.815,0.25 -0.385,0.245 -0.63,0.765 -0.245,0.515 -0.245,1.335 0,0.82 0.245,1.34 0.245,0.52 0.63,0.765 0.39,0.245 0.815,0.245 0.38,0 0.625,-0.14 0.245,-0.145 0.385,-0.345 0.14,-0.205 0.195,-0.39 0.065,-0.16 0.16,-0.265 0.1,-0.105 0.335,-0.105 0.19,0 0.33,0.135 0.14,0.13 0.14,0.345 0,0.275 -0.16,0.555 -0.16,0.28 -0.455,0.515 -0.29,0.235 -0.69,0.38 -0.395,0.14 -0.87,0.14 z m 5.50499,-0.075 h -0.14 q -0.335,0 -0.54,-0.145 -0.2,-0.15 -0.29,-0.44 l -1.625,-4.94 q -0.02,-0.065 -0.03,-0.13 -0.01,-0.065 -0.01,-0.11 0,-0.245 0.155,-0.37 0.16,-0.13 0.39,-0.13 0.275,0 0.395,0.15 0.12,0.145 0.195,0.445 l 1.43,4.71 1.435,-4.71 q 0.08,-0.3 0.2,-0.445 0.125,-0.15 0.4,-0.15 0.235,0 0.38,0.135 0.15,0.13 0.15,0.37 0,0.05 -0.01,0.11 -0.005,0.06 -0.025,0.125 l -1.63,4.94 q -0.09,0.29 -0.295,0.44 -0.205,0.145 -0.535,0.145 z"
       id="outPtnCV--text-output"
       aria-label="PTN CV" /><path
       style="font-weight:500;font-size:10px;line-height:1.25;font-family:Sono;-inkscape-font-specification:'Sono Medium';letter-spacing:0px;word-spacing:0px"
       d="m 55.104997,476.13003 v 1.925 h 1.255 q 0.515,0 0.8,-0.255 0.29,-0.255 0.29,-0.735 0,-0.48 -0.3,-0.705 -0.295,-0.23 -0.825,-0.23 z m -1.11,4.775 v -4.93 q 0,-0.665 0.665,-0.665 h 1.845 q 0.345,0 0.705,0.07 0.36,0.065 0.665,0.25 0.31,0.185 0.5,0.52 0.19,0.33 0.19,0.865 0,0.67 -0.32,1.065 -0.32,0.39 -0.775,0.545 l 0.96,2.175 q 0.04,0.09 0.06,0.175 0.02,0.08 0.02,0.155 0,0.205 -0.135,0.325 -0.13,0.115 -0.375,0.115 -0.3,0 -0.43,-0.15 -0.13,-0.15 -0.24,-0.43 l -0.905,-2.115 h -1.32 v 2.03 q 0,0.665 -0.56,0.665 -0.55,0 -0.55,-0.665 z m 9.899999,-5.19 q 0,0.415 -0.64,0.415 h -2.455 v 1.85 h 2.01 q 0.325,0 0.46,0.105 0.135,0.105 0.135,0.305 0,0.195 -0.135,0.305 -0.135,0.105 -0.46,0.105 h -2.01 v 1.88 h 2.455 q 0.64,0 0.64,0.41 0,0.41 -0.64,0.41 h -2.9 q -0.665,0 -0.665,-0.67 v -4.855 q 0,-0.665 0.665,-0.665 h 2.9 q 0.64,0 0.64,0.405 z m 3.550004,5.89 q -0.75,0 -1.31,-0.21 -0.555,-0.21 -0.89,-0.545 -0.315,-0.25 -0.315,-0.585 0,-0.165 0.12,-0.305 0.12,-0.145 0.345,-0.145 0.2,0 0.34,0.095 0.145,0.09 0.27,0.22 0.23,0.27 0.58,0.46 0.35,0.19 0.88,0.19 0.36,0 0.665,-0.11 0.31,-0.11 0.495,-0.315 0.19,-0.205 0.19,-0.49 0,-0.425 -0.395,-0.655 -0.39,-0.235 -1.155,-0.425 -1.13,-0.28 -1.655,-0.74 -0.52,-0.465 -0.52,-1.18 0,-0.505 0.32,-0.865 0.325,-0.365 0.87,-0.555 0.55,-0.195 1.22,-0.195 0.595,0 1.105,0.185 0.515,0.18 0.835,0.51 0.14,0.11 0.22,0.25 0.085,0.135 0.085,0.3 0,0.2 -0.13,0.32 -0.125,0.115 -0.32,0.115 -0.195,0 -0.34,-0.105 -0.145,-0.105 -0.245,-0.215 -0.17,-0.23 -0.49,-0.38 -0.32,-0.155 -0.765,-0.155 -0.335,0 -0.615,0.095 -0.28,0.095 -0.45,0.27 -0.165,0.17 -0.165,0.41 0,0.37 0.36,0.605 0.36,0.23 1.105,0.43 0.71,0.185 1.215,0.43 0.505,0.245 0.775,0.6 0.27,0.355 0.27,0.885 0,0.56 -0.33,0.965 -0.33,0.405 -0.9,0.625 -0.565,0.215 -1.275,0.215 z m 7.785007,-5.89 q 0,0.415 -0.64,0.415 h -2.455 v 1.85 h 2.01 q 0.325,0 0.46,0.105 0.135,0.105 0.135,0.305 0,0.195 -0.135,0.305 -0.135,0.105 -0.46,0.105 h -2.01 v 1.88 h 2.455 q 0.64,0 0.64,0.41 0,0.41 -0.64,0.41 h -2.9 q -0.665,0 -0.665,-0.67 v -4.855 q 0,-0.665 0.665,-0.665 h 2.9 q 0.64,0 0.64,0.405 z m 5.155004,-0.405 q 0.62,0 0.62,0.405 0,0.2 -0.17,0.31 -0.165,0.105 -0.42,0.105 h -1.35 v 4.775 q 0,0.665 -0.555,0.665 -0.555,0 -0.555,-0.665 v -4.775 h -1.29 q -0.305,0 -0.475,-0.105 -0.165,-0.11 -0.165,-0.31 0,-0.195 0.165,-0.3 0.17,-0.105 0.475,-0.105 z"
       id="outReset--text-output"
       aria-label="RESET" /><path
       style="font-weight:500;font-size:10px;line-height:1.25;font-family:Sono;-inkscape-font-specification:'Sono Medium';letter-spacing:0px;word-spacing:0px"
       d="m 13.152508,481.60003 q -0.51,0 -1.01,-0.17 -0.5,-0.17 -0.91,-0.545 -0.41,-0.375 -0.655,-0.98 -0.245,-0.61 -0.245,-1.48 0,-0.87 0.245,-1.475 0.245,-0.61 0.655,-0.985 0.41,-0.375 0.91,-0.545 0.5,-0.17 1.01,-0.17 0.48,0 0.875,0.145 0.4,0.14 0.69,0.375 0.295,0.235 0.45,0.515 0.16,0.28 0.16,0.555 0,0.22 -0.14,0.35 -0.14,0.125 -0.33,0.125 -0.235,0 -0.335,-0.105 -0.095,-0.105 -0.16,-0.26 -0.055,-0.185 -0.195,-0.385 -0.14,-0.205 -0.385,-0.345 -0.245,-0.145 -0.625,-0.145 -0.425,0 -0.815,0.25 -0.385,0.245 -0.63,0.765 -0.245,0.515 -0.245,1.335 0,0.82 0.245,1.34 0.245,0.52 0.63,0.765 0.39,0.245 0.815,0.245 0.38,0 0.625,-0.14 0.245,-0.145 0.385,-0.345 0.14,-0.205 0.195,-0.39 0.065,-0.16 0.16,-0.265 0.1,-0.105 0.335,-0.105 0.19,0 0.33,0.135 0.14,0.13 0.14,0.345 0,0.275 -0.16,0.555 -0.16,0.28 -0.455,0.515 -0.29,0.235 -0.69,0.38 -0.395,0.14 -0.87,0.14 z m 4.279993,-0.92 h 2.17 q 0.285,0 0.45,0.11 0.165,0.105 0.165,0.3 0,0.195 -0.165,0.305 -0.165,0.105 -0.45,0.105 h -2.615 q -0.665,0 -0.665,-0.67 v -4.9 q 0,-0.67 0.555,-0.67 0.555,0 0.555,0.67 z m 6.189994,0.925 q -0.495,0 -0.975,-0.17 -0.48,-0.175 -0.875,-0.55 -0.39,-0.375 -0.625,-0.98 -0.235,-0.61 -0.235,-1.48 0,-0.87 0.235,-1.475 0.235,-0.61 0.625,-0.98 0.395,-0.375 0.875,-0.545 0.48,-0.175 0.975,-0.175 0.485,0 0.965,0.175 0.48,0.17 0.87,0.545 0.395,0.37 0.63,0.98 0.235,0.605 0.235,1.475 0,0.87 -0.235,1.48 -0.235,0.605 -0.63,0.98 -0.39,0.375 -0.87,0.55 -0.48,0.17 -0.965,0.17 z m 0,-0.825 q 0.425,0 0.78,-0.255 0.355,-0.26 0.57,-0.78 0.215,-0.525 0.215,-1.32 0,-0.79 -0.215,-1.31 -0.215,-0.525 -0.57,-0.78 -0.355,-0.26 -0.78,-0.26 -0.43,0 -0.79,0.26 -0.36,0.255 -0.575,0.78 -0.215,0.52 -0.215,1.31 0,0.795 0.215,1.32 0.215,0.52 0.575,0.78 0.36,0.255 0.79,0.255 z m 6.434997,0.82 q -0.51,0 -1.01,-0.17 -0.5,-0.17 -0.91,-0.545 -0.41,-0.375 -0.655,-0.98 -0.245,-0.61 -0.245,-1.48 0,-0.87 0.245,-1.475 0.245,-0.61 0.655,-0.985 0.41,-0.375 0.91,-0.545 0.5,-0.17 1.01,-0.17 0.48,0 0.875,0.145 0.4,0.14 0.69,0.375 0.295,0.235 0.45,0.515 0.16,0.28 0.16,0.555 0,0.22 -0.14,0.35 -0.14,0.125 -0.33,0.125 -0.235,0 -0.335,-0.105 -0.095,-0.105 -0.16,-0.26 -0.055,-0.185 -0.195,-0.385 -0.14,-0.205 -0.385,-0.345 -0.245,-0.145 -0.625,-0.145 -0.425,0 -0.815,0.25 -0.385,0.245 -0.63,0.765 -0.245,0.515 -0.245,1.335 0,0.82 0.245,1.34 0.245,0.52 0.63,0.765 0.39,0.245 0.815,0.245 0.38,0 0.625,-0.14 0.245,-0.145 0.385,-0.345 0.14,-0.205 0.195,-0.39 0.065,-0.16 0.16,-0.265 0.1,-0.105 0.335,-0.105 0.19,0 0.33,0.135 0.14,0.13 0.14,0.345 0,0.275 -0.16,0.555 -0.16,0.28 -0.455,0.515 -0.29,0.235 -0.69,0.38 -0.395,0.14 -0.87,0.14 z m 3.844993,-0.005 q -0.55,0 -0.55,-0.655 v -5.025 q 0,-0.325 0.14,-0.49 0.145,-0.165 0.41,-0.165 0.56,0 0.56,0.655 v 2.095 l 2.03,-2.305 q 0.165,-0.215 0.32,-0.33 0.16,-0.115 0.395,-0.115 0.235,0 0.345,0.11 0.115,0.11 0.115,0.29 0,0.11 -0.04,0.2 -0.04,0.085 -0.115,0.18 l -1.765,1.935 q -0.155,0.18 -0.26,0.29 -0.105,0.11 -0.155,0.15 0.05,0.035 0.155,0.15 0.11,0.115 0.28,0.32 l 1.74,1.905 q 0.085,0.105 0.12,0.195 0.035,0.09 0.035,0.205 0,0.18 -0.135,0.295 -0.135,0.11 -0.365,0.11 -0.235,0 -0.375,-0.1 -0.14,-0.1 -0.3,-0.315 l -2.025,-2.34 v 2.1 q 0,0.655 -0.56,0.655 z"
       id="outClock--text-output"
       aria-label="CLOCK" /><path
       style="font-weight:500;font-size:10px;line-height:1.25;font-family:Sono;-inkscape-font-specification:'Sono Medium';letter-spacing:0px;word-spacing:0px;fill:#bf9b30"
       d="m 13.110011,369.13021 v 1.925 h 1.255 q 0.515,0 0.8,-0.255 0.29,-0.255 0.29,-0.735 0,-0.48 -0.3,-0.705 -0.295,-0.23 -0.825,-0.23 z m -1.11,4.775 v -4.93 q 0,-0.665 0.665,-0.665 h 1.845 q 0.345,0 0.705,0.07 0.36,0.065 0.665,0.25 0.31,0.185 0.5,0.52 0.19,0.33 0.19,0.865 0,0.67 -0.32,1.065 -0.32,0.39 -0.775,0.545 l 0.96,2.175 q 0.04,0.09 0.06,0.175 0.02,0.08 0.02,0.155 0,0.205 -0.135,0.325 -0.13,0.115 -0.375,0.115 -0.3,0 -0.43,-0.15 -0.13,-0.15 -0.24,-0.43 l -0.905,-2.115 h -1.32 v 2.03 q 0,0.665 -0.56,0.665 -0.55,0 -0.55,-0.665 z m 9.9,-5.19 q 0,0.415 -0.64,0.415 h -2.455 v 1.85 h 2.01 q 0.325,0 0.46,0.105 0.135,0.105 0.135,0.305 0,0.195 -0.135,0.305 -0.135,0.105 -0.46,0.105 h -2.01 v 1.88 h 2.455 q 0.64,0 0.64,0.41 0,0.41 -0.64,0.41 h -2.9 q -0.665,0 -0.665,-0.67 v -4.855 q 0,-0.665 0.665,-0.665 h 2.9 q 0.64,0 0.64,0.405 z m 3.550004,5.89 q -0.75,0 -1.31,-0.21 -0.555,-0.21 -0.89,-0.545 -0.315,-0.25 -0.315,-0.585 0,-0.165 0.12,-0.305 0.12,-0.145 0.345,-0.145 0.2,0 0.34,0.095 0.145,0.09 0.27,0.22 0.23,0.27 0.58,0.46 0.35,0.19 0.88,0.19 0.36,0 0.665,-0.11 0.31,-0.11 0.495,-0.315 0.19,-0.205 0.19,-0.49 0,-0.425 -0.395,-0.655 -0.39,-0.235 -1.155,-0.425 -1.13,-0.28 -1.655,-0.74 -0.52,-0.465 -0.52,-1.18 0,-0.505 0.32,-0.865 0.325,-0.365 0.87,-0.555 0.55,-0.195 1.22,-0.195 0.595,0 1.105,0.185 0.515,0.18 0.835,0.51 0.14,0.11 0.22,0.25 0.085,0.135 0.085,0.3 0,0.2 -0.13,0.32 -0.125,0.115 -0.32,0.115 -0.195,0 -0.34,-0.105 -0.145,-0.105 -0.245,-0.215 -0.17,-0.23 -0.49,-0.38 -0.32,-0.155 -0.765,-0.155 -0.335,0 -0.615,0.095 -0.28,0.095 -0.45,0.27 -0.165,0.17 -0.165,0.41 0,0.37 0.36,0.605 0.36,0.23 1.105,0.43 0.71,0.185 1.215,0.43 0.505,0.245 0.775,0.6 0.27,0.355 0.27,0.885 0,0.56 -0.33,0.965 -0.33,0.405 -0.9,0.625 -0.565,0.215 -1.275,0.215 z m 7.785006,-5.89 q 0,0.415 -0.64,0.415 h -2.455 v 1.85 h 2.01 q 0.325,0 0.46,0.105 0.135,0.105 0.135,0.305 0,0.195 -0.135,0.305 -0.135,0.105 -0.46,0.105 h -2.01 v 1.88 h 2.455 q 0.64,0 0.64,0.41 0,0.41 -0.64,0.41 h -2.9 q -0.665,0 -0.665,-0.67 v -4.855 q 0,-0.665 0.665,-0.665 h 2.9 q 0.64,0 0.64,0.405 z m 5.155004,-0.405 q 0.62,0 0.62,0.405 0,0.2 -0.17,0.31 -0.165,0.105 -0.42,0.105 h -1.35 v 4.775 q 0,0.665 -0.555,0.665 -0.555,0 -0.555,-0.665 v -4.775 h -1.29 q -0.305,0 -0.475,-0.105 -0.165,-0.11 -0.165,-0.31 0,-0.195 0.165,-0.3 0.17,-0.105 0.475,-0.105 z"
       id="inReset--text"
       aria-label="RESET" /><path
       style="font-weight:500;font-size:10px;line-height:1.25;font-family:Sono;-inkscape-font-specification:'Sono Medium';letter-spacing:0px;word-spacing:0px;fill:#bf9b30"
       d="m 14.515013,420.60497 q -0.75,0 -1.31,-0.21 -0.555,-0.21 -0.89,-0.545 -0.315,-0.25 -0.315,-0.585 0,-0.165 0.12,-0.305 0.12,-0.145 0.345,-0.145 0.2,0 0.34,0.095 0.145,0.09 0.27,0.22 0.23,0.27 0.58,0.46 0.35,0.19 0.88,0.19 0.36,0 0.665,-0.11 0.31,-0.11 0.495,-0.315 0.19,-0.205 0.19,-0.49 0,-0.425 -0.395,-0.655 -0.39,-0.235 -1.155,-0.425 -1.13,-0.28 -1.655,-0.74 -0.52,-0.465 -0.52,-1.18 0,-0.505 0.32,-0.865 0.325,-0.365 0.87,-0.555 0.55,-0.195 1.22,-0.195 0.595,0 1.105,0.185 0.515,0.18 0.835,0.51 0.14,0.11 0.22,0.25 0.085,0.135 0.085,0.3 0,0.2 -0.13,0.32 -0.125,0.115 -0.32,0.115 -0.195,0 -0.34,-0.105 -0.145,-0.105 -0.245,-0.215 -0.17,-0.23 -0.49,-0.38 -0.32,-0.155 -0.765,-0.155 -0.335,0 -0.615,0.095 -0.28,0.095 -0.45,0.27 -0.165,0.17 -0.165,0.41 0,0.37 0.36,0.605 0.36,0.23 1.105,0.43 0.71,0.185 1.215,0.43 0.505,0.245 0.775,0.6 0.27,0.355 0.27,0.885 0,0.56 -0.33,0.965 -0.33,0.405 -0.9,0.625 -0.565,0.215 -1.275,0.215 z m 7.785007,-5.89 q 0,0.415 -0.64,0.415 h -2.455 v 1.85 h 2.01 q 0.325,0 0.46,0.105 0.135,0.105 0.135,0.305 0,0.195 -0.135,0.305 -0.135,0.105 -0.46,0.105 h -2.01 v 1.88 h 2.455 q 0.64,0 0.64,0.41 0,0.41 -0.64,0.41 h -2.9 q -0.665,0 -0.665,-0.67 v -4.855 q 0,-0.665 0.665,-0.665 h 2.9 q 0.64,0 0.64,0.405 z m 5.155004,-0.405 q 0.62,0 0.62,0.405 0,0.2 -0.17,0.31 -0.165,0.105 -0.42,0.105 h -1.35 v 4.775 q 0,0.665 -0.555,0.665 -0.555,0 -0.555,-0.665 v -4.775 h -1.29 q -0.305,0 -0.475,-0.105 -0.165,-0.11 -0.165,-0.31 0,-0.195 0.165,-0.3 0.17,-0.105 0.475,-0.105 z m 5.865003,0.82 v 2.305 h 0.92 q 0.2,0 0.42,-0.035 0.225,-0.04 0.42,-0.155 0.195,-0.12 0.32,-0.355 0.125,-0.235 0.125,-0.635 0,-0.395 -0.125,-0.62 -0.125,-0.23 -0.32,-0.335 -0.195,-0.11 -0.42,-0.14 -0.22,-0.03 -0.42,-0.03 z m 1.085,3.125 h -1.085 v 1.575 q 0,0.67 -0.55,0.67 -0.555,0 -0.555,-0.67 v -4.855 q 0,-0.665 0.665,-0.665 h 1.525 q 0.225,0 0.515,0.035 0.295,0.03 0.595,0.135 0.3,0.105 0.555,0.32 0.255,0.21 0.41,0.565 0.16,0.35 0.16,0.89 0,0.535 -0.16,0.9 -0.155,0.36 -0.41,0.58 -0.255,0.22 -0.555,0.335 -0.3,0.11 -0.595,0.15 -0.29,0.035 -0.515,0.035 z m 7.310003,-3.945 q 0.62,0 0.62,0.405 0,0.2 -0.17,0.31 -0.165,0.105 -0.42,0.105 h -1.35 v 4.775 q 0,0.665 -0.555,0.665 -0.555,0 -0.555,-0.665 v -4.775 h -1.29 q -0.305,0 -0.475,-0.105 -0.165,-0.11 -0.165,-0.31 0,-0.195 0.165,-0.3 0.17,-0.105 0.475,-0.105 z m 1.899995,6.235 q -0.5,0 -0.5,-0.655 v -4.94 q 0,-0.325 0.195,-0.495 0.2,-0.17 0.52,-0.17 h 0.025 q 0.285,0 0.485,0.145 0.205,0.145 0.345,0.415 l 2.11,3.995 v -3.9 q 0,-0.655 0.505,-0.655 0.235,0 0.37,0.165 0.135,0.165 0.135,0.49 v 4.94 q 0,0.32 -0.17,0.495 -0.165,0.17 -0.485,0.17 h -0.01 q -0.29,0 -0.48,-0.145 -0.185,-0.145 -0.33,-0.415 l -2.225,-4.135 v 4.04 q 0,0.655 -0.49,0.655 z"
       id="paramManualSet--text"
       aria-label="SET PTN" /><path
       style="font-weight:500;font-size:10px;line-height:1.25;font-family:Sono;-inkscape-font-specification:'Sono Medium';letter-spacing:0px;word-spacing:0px;fill:#bf9b30"
       d="m 77.370465,323.13006 v 1.925 h 1.255 q 0.515,0 0.8,-0.255 0.29,-0.255 0.29,-0.735 0,-0.48 -0.3,-0.705 -0.295,-0.23 -0.825,-0.23 z m -1.11,4.775 v -4.93 q 0,-0.665 0.665,-0.665 h 1.845 q 0.345,0 0.705,0.07 0.36,0.065 0.665,0.25 0.31,0.185 0.5,0.52 0.19,0.33 0.19,0.865 0,0.67 -0.32,1.065 -0.32,0.39 -0.775,0.545 l 0.96,2.175 q 0.04,0.09 0.06,0.175 0.02,0.08 0.02,0.155 0,0.205 -0.135,0.325 -0.13,0.115 -0.375,0.115 -0.3,0 -0.43,-0.15 -0.13,-0.15 -0.24,-0.43 l -0.905,-2.115 h -1.32 v 2.03 q 0,0.665 -0.56,0.665 -0.55,0 -0.55,-0.665 z m 9.9,-5.19 q 0,0.415 -0.64,0.415 h -2.455 v 1.85 h 2.01 q 0.325,0 0.46,0.105 0.135,0.105 0.135,0.305 0,0.195 -0.135,0.305 -0.135,0.105 -0.46,0.105 h -2.01 v 1.88 h 2.455 q 0.64,0 0.64,0.41 0,0.41 -0.64,0.41 h -2.9 q -0.665,0 -0.665,-0.67 v -4.855 q 0,-0.665 0.665,-0.665 h 2.9 q 0.64,0 0.64,0.405 z m 3.550004,5.89 q -0.75,0 -1.31,-0.21 -0.555,-0.21 -0.89,-0.545 -0.315,-0.25 -0.315,-0.585 0,-0.165 0.12,-0.305 0.12,-0.145 0.345,-0.145 0.2,0 0.34,0.095 0.145,0.09 0.27,0.22 0.23,0.27 0.58,0.46 0.35,0.19 0.88,0.19 0.36,0 0.665,-0.11 0.31,-0.11 0.495,-0.315 0.19,-0.205 0.19,-0.49 0,-0.425 -0.395,-0.655 -0.39,-0.235 -1.155,-0.425 -1.13,-0.28 -1.655,-0.74 -0.52,-0.465 -0.52,-1.18 0,-0.505 0.32,-0.865 0.325,-0.365 0.87,-0.555 0.55,-0.195 1.22,-0.195 0.595,0 1.105,0.185 0.515,0.18 0.835,0.51 0.14,0.11 0.22,0.25 0.085,0.135 0.085,0.3 0,0.2 -0.13,0.32 -0.125,0.115 -0.32,0.115 -0.195,0 -0.34,-0.105 -0.145,-0.105 -0.245,-0.215 -0.17,-0.23 -0.49,-0.38 -0.32,-0.155 -0.765,-0.155 -0.335,0 -0.615,0.095 -0.28,0.095 -0.45,0.27 -0.165,0.17 -0.165,0.41 0,0.37 0.36,0.605 0.36,0.23 1.105,0.43 0.71,0.185 1.215,0.43 0.505,0.245 0.775,0.6 0.27,0.355 0.27,0.885 0,0.56 -0.33,0.965 -0.33,0.405 -0.9,0.625 -0.565,0.215 -1.275,0.215 z m 7.785007,-5.89 q 0,0.415 -0.64,0.415 h -2.455 v 1.85 h 2.01 q 0.325,0 0.46,0.105 0.135,0.105 0.135,0.305 0,0.195 -0.135,0.305 -0.135,0.105 -0.46,0.105 h -2.01 v 1.88 h 2.455 q 0.64,0 0.64,0.41 0,0.41 -0.64,0.41 h -2.9 q -0.665,0 -0.665,-0.67 v -4.855 q 0,-0.665 0.665,-0.665 h 2.9 q 0.64,0 0.64,0.405 z m 5.155004,-0.405 q 0.62,0 0.62,0.405 0,0.2 -0.17,0.31 -0.165,0.105 -0.42,0.105 h -1.35 v 4.775 q 0,0.665 -0.555,0.665 -0.555,0 -0.555,-0.665 v -4.775 h -1.290001 q -0.305,0 -0.475,-0.105 -0.165,-0.11 -0.165,-0.31 0,-0.195 0.165,-0.3 0.17,-0.105 0.475,-0.105 z m 5.865,0.82 v 2.305 h 0.92 q 0.2,0 0.42,-0.035 0.225,-0.04 0.42,-0.155 0.195,-0.12 0.32,-0.355 0.125,-0.235 0.125,-0.635 0,-0.395 -0.125,-0.62 -0.125,-0.23 -0.32,-0.335 -0.195,-0.11 -0.42,-0.14 -0.22,-0.03 -0.42,-0.03 z m 1.085,3.125 h -1.085 v 1.575 q 0,0.67 -0.55,0.67 -0.555,0 -0.555,-0.67 v -4.855 q 0,-0.665 0.665,-0.665 h 1.525 q 0.225,0 0.515,0.035 0.295,0.03 0.595,0.135 0.3,0.105 0.555,0.32 0.255,0.21 0.41,0.565 0.16,0.35 0.16,0.89 0,0.535 -0.16,0.9 -0.155,0.36 -0.41,0.58 -0.255,0.22 -0.555,0.335 -0.3,0.11 -0.595,0.15 -0.29,0.035 -0.515,0.035 z m 7.31001,-3.945 q 0.62,0 0.62,0.405 0,0.2 -0.17,0.31 -0.165,0.105 -0.42,0.105 h -1.35 v 4.775 q 0,0.665 -0.555,0.665 -0.555,0 -0.555,-0.665 v -4.775 h -1.29 q -0.305,0 -0.475,-0.105 -0.165,-0.11 -0.165,-0.31 0,-0.195 0.165,-0.3 0.17,-0.105 0.475,-0.105 z m 1.89999,6.235 q -0.5,0 -0.5,-0.655 v -4.94 q 0,-0.325 0.195,-0.495 0.2,-0.17 0.52,-0.17 h 0.025 q 0.285,0 0.485,0.145 0.205,0.145 0.345,0.415 l 2.11,3.995 v -3.9 q 0,-0.655 0.505,-0.655 0.235,0 0.37,0.165 0.135,0.165 0.135,0.49 v 4.94 q 0,0.32 -0.17,0.495 -0.165,0.17 -0.485,0.17 h -0.01 q -0.29,0 -0.48,-0.145 -0.185,-0.145 -0.33,-0.415 l -2.225,-4.135 v 4.04 q 0,0.655 -0.49,0.655 z"
       id="paramResetPtn--text"
       aria-label="RESET PTN" /><path
       style="font-weight:500;font-size:10px;line-height:1.25;font-family:Sono;-inkscape-font-specification:'Sono Medium';letter-spacing:0px;word-spacing:0px;fill:#bf9b30"
       d="m 75.330515,277.13009 v 2.305 h 0.92 q 0.2,0 0.42,-0.035 0.225,-0.04 0.42,-0.155 0.195,-0.12 0.32,-0.355 0.125,-0.235 0.125,-0.635 0,-0.395 -0.125,-0.62 -0.125,-0.23 -0.32,-0.335 -0.195,-0.11 -0.42,-0.14 -0.22,-0.03 -0.42,-0.03 z m 1.085,3.125 h -1.085 v 1.575 q 0,0.67 -0.55,0.67 -0.555,0 -0.555,-0.67 v -4.855 q 0,-0.665 0.665,-0.665 h 1.525 q 0.225,0 0.515,0.035 0.295,0.03 0.595,0.135 0.3,0.105 0.555,0.32 0.255,0.21 0.41,0.565 0.16,0.35 0.16,0.89 0,0.535 -0.16,0.9 -0.155,0.36 -0.41,0.58 -0.255,0.22 -0.555,0.335 -0.3,0.11 -0.595,0.15 -0.29,0.035 -0.515,0.035 z m 7.310003,-3.945 q 0.62,0 0.62,0.405 0,0.2 -0.17,0.31 -0.165,0.105 -0.42,0.105 h -1.35 v 4.775 q 0,0.665 -0.555,0.665 -0.555,0 -0.555,-0.665 v -4.775 h -1.29 q -0.305,0 -0.475,-0.105 -0.165,-0.11 -0.165,-0.31 0,-0.195 0.165,-0.3 0.17,-0.105 0.475,-0.105 z m 1.899995,6.235 q -0.5,0 -0.5,-0.655 v -4.94 q 0,-0.325 0.195,-0.495 0.2,-0.17 0.52,-0.17 h 0.025 q 0.285,0 0.485,0.145 0.205,0.145 0.345,0.415 l 2.11,3.995 v -3.9 q 0,-0.655 0.505,-0.655 0.235,0 0.37,0.165 0.135,0.165 0.135,0.49 v 4.94 q 0,0.32 -0.17,0.495 -0.165,0.17 -0.485,0.17 h -0.01 q -0.29,0 -0.48,-0.145 -0.185,-0.145 -0.33,-0.415 l -2.225,-4.135 v 4.04 q 0,0.655 -0.49,0.655 z m 11.245002,0.055 q -0.51,0 -1.01,-0.17 -0.5,-0.17 -0.91,-0.545 -0.41,-0.375 -0.655,-0.98 -0.245,-0.61 -0.245,-1.48 0,-0.87 0.245,-1.475 0.245,-0.61 0.655,-0.985 0.41,-0.375 0.91,-0.545 0.5,-0.17 1.01,-0.17 0.48,0 0.875,0.145 0.4,0.14 0.69,0.375 0.295,0.235 0.45,0.515 0.16,0.28 0.16,0.555 0,0.22 -0.14,0.35 -0.14,0.125 -0.33,0.125 -0.235,0 -0.335,-0.105 -0.095,-0.105 -0.16,-0.26 -0.055,-0.185 -0.195,-0.385 -0.14,-0.205 -0.385,-0.345 -0.245,-0.145 -0.625,-0.145 -0.425,0 -0.815,0.25 -0.385,0.245 -0.63,0.765 -0.245,0.515 -0.245,1.335 0,0.82 0.245,1.34 0.245,0.52 0.63,0.765 0.39,0.245 0.815,0.245 0.38,0 0.625,-0.14 0.245,-0.145 0.385,-0.345 0.14,-0.205 0.195,-0.39 0.065,-0.16 0.16,-0.265 0.1,-0.105 0.335,-0.105 0.19,0 0.33,0.135 0.14,0.13 0.14,0.345 0,0.275 -0.16,0.555 -0.16,0.28 -0.455,0.515 -0.29,0.235 -0.69,0.38 -0.395,0.14 -0.87,0.14 z m 5.804995,0.005 q -0.495,0 -0.975,-0.17 -0.48,-0.175 -0.875,-0.55 -0.39,-0.375 -0.625,-0.98 -0.235002,-0.61 -0.235002,-1.48 0,-0.87 0.235002,-1.475 0.235,-0.61 0.625,-0.98 0.395,-0.375 0.875,-0.545 0.48,-0.175 0.975,-0.175 0.485,0 0.965,0.175 0.48,0.17 0.87,0.545 0.395,0.37 0.63,0.98 0.235,0.605 0.235,1.475 0,0.87 -0.235,1.48 -0.235,0.605 -0.63,0.98 -0.39,0.375 -0.87,0.55 -0.48,0.17 -0.965,0.17 z m 0,-0.825 q 0.425,0 0.78,-0.255 0.355,-0.26 0.57,-0.78 0.215,-0.525 0.215,-1.32 0,-0.79 -0.215,-1.31 -0.215,-0.525 -0.57,-0.78 -0.355,-0.26 -0.78,-0.26 -0.43,0 -0.79,0.26 -0.36,0.255 -0.575,0.78 -0.215,0.52 -0.215,1.31 0,0.795 0.215,1.32 0.215,0.52 0.575,0.78 0.36,0.255 0.79,0.255 z m 6.255,0.825 q -0.68,0 -1.24,-0.275 -0.56,-0.28 -0.895,-0.88 -0.33,-0.6 -0.33,-1.575 v -2.9 q 0,-0.665 0.555,-0.665 0.555,0 0.555,0.665 v 2.84 q 0,0.95 0.36,1.46 0.36,0.505 0.995,0.505 0.64,0 0.995,-0.505 0.355,-0.51 0.355,-1.46 v -2.84 q 0,-0.665 0.555,-0.665 0.555,0 0.555,0.665 v 2.9 q 0,0.975 -0.33,1.575 -0.33,0.6 -0.885,0.88 -0.555,0.275 -1.245,0.275 z m 4.11499,-0.06 q -0.5,0 -0.5,-0.655 v -4.94 q 0,-0.325 0.195,-0.495 0.2,-0.17 0.52,-0.17 h 0.025 q 0.285,0 0.485,0.145 0.205,0.145 0.345,0.415 l 2.11,3.995 v -3.9 q 0,-0.655 0.505,-0.655 0.235,0 0.37,0.165 0.135,0.165 0.135,0.49 v 4.94 q 0,0.32 -0.17,0.495 -0.165,0.17 -0.485,0.17 h -0.01 q -0.29,0 -0.48,-0.145 -0.185,-0.145 -0.33,-0.415 l -2.225,-4.135 v 4.04 q 0,0.655 -0.49,0.655 z m 9.33499,-6.235 q 0.62,0 0.62,0.405 0,0.2 -0.17,0.31 -0.165,0.105 -0.42,0.105 h -1.35 v 4.775 q 0,0.665 -0.555,0.665 -0.555,0 -0.555,-0.665 v -4.775 h -1.29 q -0.305,0 -0.475,-0.105 -0.165,-0.11 -0.165,-0.31 0,-0.195 0.165,-0.3 0.17,-0.105 0.475,-0.105 z"
       id="paramPtnCount--text"
       aria-label="PTN COUNT" /><path
       style="font-weight:500;font-size:10px;line-height:1.25;font-family:Sono;-inkscape-font-specification:'Sono Medium';letter-spacing:0px;word-spacing:0px;fill:#bf9b30"
       d="m 12.495007,328.59506 q -0.22,0 -0.36,-0.125 -0.135,-0.125 -0.135,-0.36 0,-0.055 0.01,-0.12 0.01,-0.065 0.03,-0.135 l 1.71,-4.95 q 0.095,-0.285 0.285,-0.45 0.195,-0.17 0.46,-0.17 h 0.255 q 0.27,0 0.46,0.17 0.195,0.165 0.285,0.45 l 1.71,4.95 q 0.025,0.07 0.035,0.135 0.01,0.065 0.01,0.12 0,0.235 -0.14,0.36 -0.14,0.125 -0.365,0.125 -0.275,0 -0.405,-0.145 -0.13,-0.145 -0.215,-0.445 l -0.38,-1.105 h -2.245 l -0.38,1.105 q -0.08,0.3 -0.215,0.445 -0.13,0.145 -0.41,0.145 z m 1.235,-2.515 h 1.79 l -0.845,-2.55 q -0.015,-0.055 -0.03,-0.11 -0.015,-0.06 -0.025,-0.105 -0.005,0.045 -0.02,0.105 -0.01,0.055 -0.025,0.11 z m 6.249997,-3.77 q 0.315,0 0.705,0.065 0.39,0.065 0.785,0.25 0.395,0.18 0.73,0.525 0.335,0.345 0.535,0.895 0.205,0.55 0.205,1.36 0,0.805 -0.205,1.355 -0.2,0.55 -0.535,0.895 -0.335,0.345 -0.73,0.53 -0.395,0.18 -0.785,0.25 -0.39,0.065 -0.705,0.065 h -1.25 q -0.665,0 -0.665,-0.67 v -4.855 q 0,-0.665 0.665,-0.665 z m -0.015,5.37 q 0.365,0 0.695,-0.125 0.335,-0.125 0.595,-0.395 0.265,-0.27 0.415,-0.705 0.15,-0.435 0.15,-1.05 0,-0.62 -0.15,-1.055 -0.15,-0.435 -0.415,-0.705 -0.26,-0.27 -0.595,-0.39 -0.33,-0.125 -0.695,-0.125 h -0.795 v 4.55 z m 6.304996,0.845 h -0.14 q -0.335,0 -0.54,-0.145 -0.2,-0.15 -0.29,-0.44 l -1.625,-4.94 q -0.02,-0.065 -0.03,-0.13 -0.01,-0.065 -0.01,-0.11 0,-0.245 0.155,-0.37 0.16,-0.13 0.39,-0.13 0.275,0 0.395,0.15 0.12,0.145 0.195,0.445 l 1.43,4.71 1.435,-4.71 q 0.08,-0.3 0.2,-0.445 0.125,-0.15 0.4,-0.15 0.235,0 0.38,0.135 0.15,0.13 0.15,0.37 0,0.05 -0.01,0.11 -0.005,0.06 -0.025,0.125 l -1.63,4.94 q -0.09,0.29 -0.295,0.44 -0.205,0.145 -0.535,0.145 z m 3.254998,0.07 q -0.22,0 -0.36,-0.125 -0.135,-0.125 -0.135,-0.36 0,-0.055 0.01,-0.12 0.01,-0.065 0.03,-0.135 l 1.71,-4.95 q 0.095,-0.285 0.285,-0.45 0.195,-0.17 0.46,-0.17 h 0.255 q 0.27,0 0.46,0.17 0.195,0.165 0.285,0.45 l 1.71,4.95 q 0.025,0.07 0.035,0.135 0.01,0.065 0.01,0.12 0,0.235 -0.14,0.36 -0.14,0.125 -0.365,0.125 -0.275,0 -0.405,-0.145 -0.13,-0.145 -0.215,-0.445 l -0.38,-1.105 h -2.245 l -0.38,1.105 q -0.08,0.3 -0.215,0.445 -0.13,0.145 -0.41,0.145 z m 1.235,-2.515 h 1.79 l -0.845,-2.55 q -0.015,-0.055 -0.03,-0.11 -0.015,-0.06 -0.025,-0.105 -0.005,0.045 -0.02,0.105 -0.01,0.055 -0.025,0.11 z m 4.749997,2.465 q -0.5,0 -0.5,-0.655 v -4.94 q 0,-0.325 0.195,-0.495 0.2,-0.17 0.52,-0.17 h 0.025 q 0.285,0 0.485,0.145 0.205,0.145 0.345,0.415 l 2.11,3.995 v -3.9 q 0,-0.655 0.505,-0.655 0.235,0 0.37,0.165 0.135,0.165 0.135,0.49 v 4.94 q 0,0.32 -0.17,0.495 -0.165,0.17 -0.485,0.17 h -0.01 q -0.29,0 -0.48,-0.145 -0.185,-0.145 -0.33,-0.415 l -2.225,-4.135 v 4.04 q 0,0.655 -0.49,0.655 z m 7.994994,0.055 q -0.51,0 -1.01,-0.17 -0.5,-0.17 -0.91,-0.545 -0.41,-0.375 -0.655,-0.98 -0.245,-0.61 -0.245,-1.48 0,-0.87 0.245,-1.475 0.245,-0.61 0.655,-0.985 0.41,-0.375 0.91,-0.545 0.5,-0.17 1.01,-0.17 0.48,0 0.875,0.145 0.4,0.14 0.69,0.375 0.295,0.235 0.45,0.515 0.16,0.28 0.16,0.555 0,0.22 -0.14,0.35 -0.14,0.125 -0.33,0.125 -0.235,0 -0.335,-0.105 -0.095,-0.105 -0.16,-0.26 -0.055,-0.185 -0.195,-0.385 -0.14,-0.205 -0.385,-0.345 -0.245,-0.145 -0.625,-0.145 -0.425,0 -0.815,0.25 -0.385,0.245 -0.63,0.765 -0.245,0.515 -0.245,1.335 0,0.82 0.245,1.34 0.245,0.52 0.63,0.765 0.39,0.245 0.815,0.245 0.38,0 0.625,-0.14 0.245,-0.145 0.385,-0.345 0.14,-0.205 0.195,-0.39 0.065,-0.16 0.16,-0.265 0.1,-0.105 0.335,-0.105 0.19,0 0.33,0.135 0.14,0.13 0.14,0.345 0,0.275 -0.16,0.555 -0.16,0.28 -0.455,0.515 -0.29,0.235 -0.69,0.38 -0.395,0.14 -0.87,0.14 z m 7.474993,-5.885 q 0,0.415 -0.64,0.415 h -2.455 v 1.85 h 2.01 q 0.325,0 0.46,0.105 0.135,0.105 0.135,0.305 0,0.195 -0.135,0.305 -0.135,0.105 -0.46,0.105 h -2.01 v 1.88 h 2.455 q 0.64,0 0.64,0.41 0,0.41 -0.64,0.41 h -2.9 q -0.665,0 -0.665,-0.67 v -4.855 q 0,-0.665 0.665,-0.665 h 2.9 q 0.64,0 0.64,0.405 z"
       id="inAdvance--text"
       aria-label="ADVANCE" /><path
       style="font-weight:500;font-size:10px;line-height:1.25;font-family:Sono;-inkscape-font-specification:'Sono Medium';letter-spacing:0px;word-spacing:0px;fill:#bf9b30"
       d="m 14.82001,282.60009 q -0.51,0 -1.01,-0.17 -0.5,-0.17 -0.91,-0.545 -0.41,-0.375 -0.655,-0.98 -0.245,-0.61 -0.245,-1.48 0,-0.87 0.245,-1.475 0.245,-0.61 0.655,-0.985 0.41,-0.375 0.91,-0.545 0.5,-0.17 1.01,-0.17 0.48,0 0.875,0.145 0.4,0.14 0.69,0.375 0.295,0.235 0.45,0.515 0.16,0.28 0.16,0.555 0,0.22 -0.14,0.35 -0.14,0.125 -0.33,0.125 -0.235,0 -0.335,-0.105 -0.095,-0.105 -0.16,-0.26 -0.055,-0.185 -0.195,-0.385 -0.14,-0.205 -0.385,-0.345 -0.245,-0.145 -0.625,-0.145 -0.425,0 -0.815,0.25 -0.385,0.245 -0.63,0.765 -0.245,0.515 -0.245,1.335 0,0.82 0.245,1.34 0.245,0.52 0.63,0.765 0.39,0.245 0.815,0.245 0.38,0 0.625,-0.14 0.245,-0.145 0.385,-0.345 0.14,-0.205 0.195,-0.39 0.065,-0.16 0.16,-0.265 0.1,-0.105 0.335,-0.105 0.19,0 0.33,0.135 0.14,0.13 0.14,0.345 0,0.275 -0.16,0.555 -0.16,0.28 -0.455,0.515 -0.29,0.235 -0.69,0.38 -0.395,0.14 -0.87,0.14 z m 4.279994,-0.92 h 2.17 q 0.285,0 0.45,0.11 0.165,0.105 0.165,0.3 0,0.195 -0.165,0.305 -0.165,0.105 -0.45,0.105 h -2.615 q -0.665,0 -0.665,-0.67 v -4.9 q 0,-0.67 0.555,-0.67 0.555,0 0.555,0.67 z m 6.189993,0.925 q -0.495,0 -0.975,-0.17 -0.48,-0.175 -0.875,-0.55 -0.39,-0.375 -0.625,-0.98 -0.235,-0.61 -0.235,-1.48 0,-0.87 0.235,-1.475 0.235,-0.61 0.625,-0.98 0.395,-0.375 0.875,-0.545 0.48,-0.175 0.975,-0.175 0.485,0 0.965,0.175 0.48,0.17 0.87,0.545 0.395,0.37 0.63,0.98 0.235,0.605 0.235,1.475 0,0.87 -0.235,1.48 -0.235,0.605 -0.63,0.98 -0.39,0.375 -0.87,0.55 -0.48,0.17 -0.965,0.17 z m 0,-0.825 q 0.425,0 0.78,-0.255 0.355,-0.26 0.57,-0.78 0.215,-0.525 0.215,-1.32 0,-0.79 -0.215,-1.31 -0.215,-0.525 -0.57,-0.78 -0.355,-0.26 -0.78,-0.26 -0.43,0 -0.79,0.26 -0.36,0.255 -0.575,0.78 -0.215,0.52 -0.215,1.31 0,0.795 0.215,1.32 0.215,0.52 0.575,0.78 0.36,0.255 0.79,0.255 z m 6.434997,0.82 q -0.51,0 -1.01,-0.17 -0.5,-0.17 -0.91,-0.545 -0.41,-0.375 -0.655,-0.98 -0.245,-0.61 -0.245,-1.48 0,-0.87 0.245,-1.475 0.245,-0.61 0.655,-0.985 0.41,-0.375 0.91,-0.545 0.5,-0.17 1.01,-0.17 0.48,0 0.875,0.145 0.4,0.14 0.69,0.375 0.295,0.235 0.45,0.515 0.16,0.28 0.16,0.555 0,0.22 -0.14,0.35 -0.14,0.125 -0.33,0.125 -0.235,0 -0.335,-0.105 -0.095,-0.105 -0.16,-0.26 -0.055,-0.185 -0.195,-0.385 -0.14,-0.205 -0.385,-0.345 -0.245,-0.145 -0.625,-0.145 -0.425,0 -0.815,0.25 -0.385,0.245 -0.63,0.765 -0.245,0.515 -0.245,1.335 0,0.82 0.245,1.34 0.245,0.52 0.63,0.765 0.39,0.245 0.815,0.245 0.38,0 0.625,-0.14 0.245,-0.145 0.385,-0.345 0.14,-0.205 0.195,-0.39 0.065,-0.16 0.16,-0.265 0.1,-0.105 0.335,-0.105 0.19,0 0.33,0.135 0.14,0.13 0.14,0.345 0,0.275 -0.16,0.555 -0.16,0.28 -0.455,0.515 -0.29,0.235 -0.69,0.38 -0.395,0.14 -0.87,0.14 z m 3.844993,-0.005 q -0.55,0 -0.55,-0.655 v -5.025 q 0,-0.325 0.14,-0.49 0.145,-0.165 0.41,-0.165 0.56,0 0.56,0.655 v 2.095 l 2.03,-2.305 q 0.165,-0.215 0.32,-0.33 0.16,-0.115 0.395,-0.115 0.235,0 0.345,0.11 0.115,0.11 0.115,0.29 0,0.11 -0.04,0.2 -0.04,0.085 -0.115,0.18 l -1.765,1.935 q -0.155,0.18 -0.26,0.29 -0.105,0.11 -0.155,0.15 0.05,0.035 0.155,0.15 0.11,0.115 0.28,0.32 l 1.74,1.905 q 0.085,0.105 0.12,0.195 0.035,0.09 0.035,0.205 0,0.18 -0.135,0.295 -0.135,0.11 -0.365,0.11 -0.235,0 -0.375,-0.1 -0.14,-0.1 -0.3,-0.315 l -2.025,-2.34 v 2.1 q 0,0.655 -0.56,0.655 z"
       id="inClock--text"
       aria-label="CLOCK" /><path
       style="font-weight:500;font-size:10px;line-height:1.25;font-family:Sono;-inkscape-font-specification:'Sono Medium';letter-spacing:0px;word-spacing:0px;fill:#bf9b30"
       d="m 83.445489,420.59997 q -0.51,0 -1.01,-0.17 -0.5,-0.17 -0.91,-0.545 -0.41,-0.375 -0.655,-0.98 -0.245,-0.61 -0.245,-1.48 0,-0.87 0.245,-1.475 0.245,-0.61 0.655,-0.985 0.41,-0.375 0.91,-0.545 0.5,-0.17 1.01,-0.17 0.48,0 0.875,0.145 0.4,0.14 0.69,0.375 0.295,0.235 0.45,0.515 0.16,0.28 0.16,0.555 0,0.22 -0.14,0.35 -0.14,0.125 -0.33,0.125 -0.235,0 -0.335,-0.105 -0.095,-0.105 -0.16,-0.26 -0.055,-0.185 -0.195,-0.385 -0.14,-0.205 -0.385,-0.345 -0.245,-0.145 -0.625,-0.145 -0.425,0 -0.815,0.25 -0.385,0.245 -0.63,0.765 -0.245,0.515 -0.245,1.335 0,0.82 0.245,1.34 0.245,0.52 0.63,0.765 0.39,0.245 0.815,0.245 0.38,0 0.625,-0.14 0.245,-0.145 0.385,-0.345 0.14,-0.205 0.195,-0.39 0.065,-0.16 0.16,-0.265 0.1,-0.105 0.335,-0.105 0.19,0 0.33,0.135 0.14,0.13 0.14,0.345 0,0.275 -0.16,0.555 -0.16,0.28 -0.455,0.515 -0.29,0.235 -0.69,0.38 -0.395,0.14 -0.87,0.14 z m 5.504993,-0.075 h -0.14 q -0.335,0 -0.54,-0.145 -0.2,-0.15 -0.29,-0.44 l -1.625,-4.94 q -0.02,-0.065 -0.03,-0.13 -0.01,-0.065 -0.01,-0.11 0,-0.245 0.155,-0.37 0.16,-0.13 0.39,-0.13 0.275,0 0.395,0.15 0.12,0.145 0.195,0.445 l 1.43,4.71 1.435,-4.71 q 0.08,-0.3 0.2,-0.445 0.125,-0.15 0.4,-0.15 0.235,0 0.38,0.135 0.15,0.13 0.15,0.37 0,0.05 -0.01,0.11 -0.005,0.06 -0.025,0.125 l -1.63,4.94 q -0.09,0.29 -0.295,0.44 -0.205,0.145 -0.535,0.145 z m 7.720006,-5.395 v 1.925 h 1.255 q 0.515,0 0.8,-0.255 0.29,-0.255 0.29,-0.735 0,-0.48 -0.3,-0.705 -0.295,-0.23 -0.825,-0.23 z m -1.11,4.775 v -4.93 q 0,-0.665 0.665,-0.665 h 1.845 q 0.345,0 0.705,0.07 0.36,0.065 0.665,0.25 0.31,0.185 0.5,0.52 0.190002,0.33 0.190002,0.865 0,0.67 -0.320002,1.065 -0.32,0.39 -0.775,0.545 l 0.96,2.175 q 0.04,0.09 0.06,0.175 0.02,0.08 0.02,0.155 0,0.205 -0.135002,0.325 -0.13,0.115 -0.375,0.115 -0.3,0 -0.43,-0.15 -0.13,-0.15 -0.24,-0.43 l -0.905,-2.115 h -1.32 v 2.03 q 0,0.665 -0.56,0.665 -0.55,0 -0.55,-0.665 z m 5.765002,0.69 q -0.22,0 -0.36,-0.125 -0.135,-0.125 -0.135,-0.36 0,-0.055 0.01,-0.12 0.01,-0.065 0.03,-0.135 l 1.71,-4.95 q 0.095,-0.285 0.285,-0.45 0.195,-0.17 0.46,-0.17 h 0.255 q 0.27,0 0.46,0.17 0.195,0.165 0.285,0.45 l 1.71,4.95 q 0.025,0.07 0.035,0.135 0.01,0.065 0.01,0.12 0,0.235 -0.14,0.36 -0.14,0.125 -0.365,0.125 -0.275,0 -0.405,-0.145 -0.13,-0.145 -0.215,-0.445 l -0.38,-1.105 h -2.245 l -0.38,1.105 q -0.08,0.3 -0.215,0.445 -0.13,0.145 -0.41,0.145 z m 1.235,-2.515 h 1.79 l -0.845,-2.55 q -0.015,-0.055 -0.03,-0.11 -0.015,-0.06 -0.025,-0.105 -0.005,0.045 -0.02,0.105 -0.01,0.055 -0.025,0.11 z m 4.74999,2.465 q -0.5,0 -0.5,-0.655 v -4.94 q 0,-0.325 0.195,-0.495 0.2,-0.17 0.52,-0.17 h 0.025 q 0.285,0 0.485,0.145 0.205,0.145 0.345,0.415 l 2.11,3.995 v -3.9 q 0,-0.655 0.505,-0.655 0.235,0 0.37,0.165 0.135,0.165 0.135,0.49 v 4.94 q 0,0.32 -0.17,0.495 -0.165,0.17 -0.485,0.17 h -0.01 q -0.29,0 -0.48,-0.145 -0.185,-0.145 -0.33,-0.415 l -2.225,-4.135 v 4.04 q 0,0.655 -0.49,0.655 z m 7.92,0.06 q -0.53,0 -1.02,-0.175 -0.49,-0.18 -0.88,-0.56 -0.39,-0.38 -0.62,-0.985 -0.225,-0.605 -0.225,-1.46 0,-0.86 0.24,-1.46 0.24,-0.605 0.645,-0.985 0.41,-0.38 0.915,-0.555 0.505,-0.175 1.035,-0.175 0.57,0 0.995,0.16 0.425,0.16 0.73,0.455 0.145,0.125 0.21,0.255 0.065,0.13 0.065,0.255 0,0.195 -0.15,0.32 -0.145,0.125 -0.325,0.125 -0.135,0 -0.265,-0.07 -0.13,-0.07 -0.23,-0.18 -0.165,-0.19 -0.41,-0.335 -0.245,-0.15 -0.615,-0.15 -0.43,0 -0.825,0.24 -0.395,0.235 -0.645,0.75 -0.25,0.515 -0.25,1.35 0,0.855 0.245,1.37 0.245,0.515 0.63,0.745 0.385,0.23 0.81,0.23 0.4,0 0.69,-0.18 0.29,-0.185 0.45,-0.55 0.165,-0.365 0.175,-0.915 h -0.98 q -0.25,0 -0.395,-0.09 -0.14,-0.095 -0.14,-0.3 0,-0.21 0.135,-0.3 0.14,-0.095 0.39,-0.095 h 1.47 q 0.325,0 0.47,0.16 0.145,0.155 0.145,0.455 0,0.89 -0.325,1.48 -0.325,0.585 -0.885,0.88 -0.56,0.29 -1.26,0.29 z m 7.77,-5.89 q 0,0.415 -0.64,0.415 h -2.455 v 1.85 h 2.01 q 0.325,0 0.46,0.105 0.135,0.105 0.135,0.305 0,0.195 -0.135,0.305 -0.135,0.105 -0.46,0.105 h -2.01 v 1.88 h 2.455 q 0.64,0 0.64,0.41 0,0.41 -0.64,0.41 h -2.9 q -0.665,0 -0.665,-0.67 v -4.855 q 0,-0.665 0.665,-0.665 h 2.9 q 0.64,0 0.64,0.405 z"
       id="paramSeqCVMax--text"
       aria-label="CV RANGE" /><path
       style="font-weight:500;font-size:10px;line-height:1.25;font-family:Sono;-inkscape-font-specification:'Sono Medium';letter-spacing:0px;word-spacing:0px;fill:#bf9b30"
       d="m 87.515497,369.12997 v 2.305 h 0.92 q 0.2,0 0.42,-0.035 0.225,-0.04 0.42,-0.155 0.195,-0.12 0.32,-0.355 0.125,-0.235 0.125,-0.635 0,-0.395 -0.125,-0.62 -0.125,-0.23 -0.32,-0.335 -0.195,-0.11 -0.42,-0.14 -0.22,-0.03 -0.42,-0.03 z m 1.085,3.125 h -1.085 v 1.575 q 0,0.67 -0.55,0.67 -0.555,0 -0.555,-0.67 v -4.855 q 0,-0.665 0.665,-0.665 h 1.525 q 0.225,0 0.515,0.035 0.295,0.03 0.595,0.135 0.3,0.105 0.555,0.32 0.255,0.21 0.41,0.565 0.16,0.35 0.16,0.89 0,0.535 -0.16,0.9 -0.155,0.36 -0.41,0.58 -0.255,0.22 -0.555,0.335 -0.3,0.11 -0.595,0.15 -0.29,0.035 -0.515,0.035 z m 7.310004,-3.945 q 0.62,0 0.62,0.405 0,0.2 -0.17,0.31 -0.165,0.105 -0.42,0.105 h -1.35 v 4.775 q 0,0.665 -0.555,0.665 -0.555,0 -0.555,-0.665 v -4.775 h -1.29 q -0.305,0 -0.475,-0.105 -0.165,-0.11 -0.165,-0.31 0,-0.195 0.165,-0.3 0.17,-0.105 0.475,-0.105 z m 1.899995,6.235 q -0.5,0 -0.5,-0.655 v -4.94 q 0,-0.325 0.195,-0.495 0.2,-0.17 0.52,-0.17 h 0.025 q 0.285,0 0.485,0.145 0.205,0.145 0.345,0.415 l 2.110004,3.995 v -3.9 q 0,-0.655 0.505,-0.655 0.235,0 0.37,0.165 0.135,0.165 0.135,0.49 v 4.94 q 0,0.32 -0.17,0.495 -0.165,0.17 -0.485,0.17 h -0.01 q -0.29,0 -0.48,-0.145 -0.185,-0.145 -0.33,-0.415 l -2.225004,-4.135 v 4.04 q 0,0.655 -0.49,0.655 z m 9.060004,0.005 q -0.245,0 -0.395,-0.145 -0.15,-0.15 -0.15,-0.425 0,-0.09 0,-0.375 0,-0.29 0,-0.705 0,-0.415 0,-0.89 0,-0.48 0,-0.96 0,-0.48 0,-0.9 0,-0.42 0,-0.715 0,-0.3 0,-0.405 0,-0.265 0.1,-0.445 0.1,-0.185 0.27,-0.275 0.175,-0.095 0.38,-0.095 h 0.035 q 0.305,0 0.515,0.195 0.215,0.195 0.34,0.49 l 1.2,2.76 1.205,-2.76 q 0.13,-0.295 0.34,-0.49 0.215,-0.195 0.52,-0.195 h 0.03 q 0.205,0 0.375,0.095 0.17,0.095 0.27,0.275 0.1,0.18 0.1,0.445 0,0.105 0,0.405 0,0.295 0,0.715 0,0.42 0,0.9 0,0.48 0,0.96 0,0.475 0,0.89 0,0.415 0,0.705 0,0.285 0,0.375 0,0.275 -0.135,0.425 -0.135,0.145 -0.38,0.145 -0.56,0 -0.56,-0.645 v -3.585 l -1.16,2.64 q -0.125,0.29 -0.24,0.44 -0.11,0.15 -0.365,0.15 -0.255,0 -0.365,-0.15 -0.11,-0.15 -0.24,-0.44 l -1.17,-2.675 v 3.62 q 0,0.32 -0.125,0.485 -0.125,0.16 -0.395,0.16 z m 6.38999,0.045 q -0.22,0 -0.36,-0.125 -0.135,-0.125 -0.135,-0.36 0,-0.055 0.01,-0.12 0.01,-0.065 0.03,-0.135 l 1.71,-4.95 q 0.095,-0.285 0.285,-0.45 0.195,-0.17 0.46,-0.17 h 0.255 q 0.27,0 0.46,0.17 0.195,0.165 0.285,0.45 l 1.71,4.95 q 0.025,0.07 0.035,0.135 0.01,0.065 0.01,0.12 0,0.235 -0.14,0.36 -0.14,0.125 -0.365,0.125 -0.275,0 -0.405,-0.145 -0.13,-0.145 -0.215,-0.445 l -0.38,-1.105 h -2.245 l -0.38,1.105 q -0.08,0.3 -0.215,0.445 -0.13,0.145 -0.41,0.145 z m 1.235,-2.515 h 1.79 l -0.845,-2.55 q -0.015,-0.055 -0.03,-0.11 -0.015,-0.06 -0.025,-0.105 -0.005,0.045 -0.02,0.105 -0.01,0.055 -0.025,0.11 z m 4.575,2.515 q -0.235,0 -0.37,-0.12 -0.13,-0.125 -0.13,-0.305 0,-0.09 0.03,-0.18 0.035,-0.09 0.115,-0.205 l 1.48,-2.31 -1.56,-2.465 q -0.06,-0.09 -0.08,-0.17 -0.02,-0.08 -0.02,-0.16 0,-0.205 0.15,-0.315 0.155,-0.115 0.365,-0.115 0.155,0 0.255,0.05 0.1,0.05 0.185,0.165 0.09,0.11 0.2,0.3 l 1.08,1.845 1.07,-1.845 q 0.16,-0.29 0.3,-0.4 0.14,-0.11 0.37,-0.11 0.21,0 0.35,0.105 0.14,0.1 0.14,0.32 0,0.165 -0.11,0.33 l -1.55,2.425 1.47,2.35 q 0.085,0.125 0.115,0.22 0.035,0.095 0.035,0.18 0,0.185 -0.145,0.3 -0.14,0.11 -0.37,0.11 -0.23,0 -0.355,-0.12 -0.125,-0.125 -0.265,-0.365 l -1.065,-1.8 -1.07,1.8 q -0.14,0.24 -0.265,0.365 -0.125,0.12 -0.355,0.12 z"
       id="paramSeqPtnMax--text"
       aria-label="PTN MAX" /><path
       style="font-weight:500;font-size:16px;line-height:1.25;font-family:Sono;-inkscape-font-specification:'Sono Medium';letter-spacing:0px;word-spacing:0px;fill:#bf9b30;stroke-width:0.781836"
       d="m 49.456782,190.93625 q -0.816,0 -1.616,-0.272 -0.8,-0.272 -1.456,-0.872 -0.656,-0.6 -1.048,-1.568 -0.392,-0.976 -0.392,-2.368 0,-1.392 0.392,-2.36 0.392,-0.976 1.048,-1.576 0.656,-0.6 1.456,-0.872 0.8,-0.272 1.616,-0.272 0.768,0 1.4,0.232 0.64,0.224 1.104,0.6 0.472,0.376 0.72,0.824 0.256,0.448 0.256,0.888 0,0.352 -0.224,0.56 -0.224,0.2 -0.528,0.2 -0.376,0 -0.536,-0.168 -0.152,-0.168 -0.256,-0.416 -0.088,-0.296 -0.312,-0.616 -0.224,-0.328 -0.616,-0.552 -0.392,-0.232 -1,-0.232 -0.68,0 -1.304,0.4 -0.616,0.392 -1.008,1.224 -0.392,0.824 -0.392,2.136 0,1.312 0.392,2.144 0.392,0.832 1.008,1.224 0.624,0.392 1.304,0.392 0.608,0 1,-0.224 0.392,-0.232 0.616,-0.552 0.224,-0.328 0.312,-0.624 0.104,-0.256 0.256,-0.424 0.16,-0.168 0.536,-0.168 0.304,0 0.528,0.216 0.224,0.208 0.224,0.552 0,0.44 -0.256,0.888 -0.256,0.448 -0.728,0.824 -0.464,0.376 -1.104,0.608 -0.632,0.224 -1.392,0.224 z m 9.287989,0.008 q -0.792,0 -1.56,-0.272 -0.768,-0.28 -1.4,-0.88 -0.624,-0.6 -1,-1.568 -0.376,-0.976 -0.376,-2.368 0,-1.392 0.376,-2.36 0.376,-0.976 1,-1.568 0.632,-0.6 1.4,-0.872 0.768,-0.28 1.56,-0.28 0.776,0 1.544,0.28 0.768,0.272 1.392,0.872 0.632,0.592 1.008,1.568 0.376,0.968 0.376,2.36 0,1.392 -0.376,2.368 -0.376,0.968 -1.008,1.568 -0.624,0.6 -1.392,0.88 -0.768,0.272 -1.544,0.272 z m 0,-1.32 q 0.68,0 1.248,-0.408 0.568,-0.416 0.912,-1.248 0.344,-0.84 0.344,-2.112 0,-1.264 -0.344,-2.096 -0.344,-0.84 -0.912,-1.248 -0.568,-0.416 -1.248,-0.416 -0.688,0 -1.264,0.416 -0.576,0.408 -0.92,1.248 -0.344,0.832 -0.344,2.096 0,1.272 0.344,2.112 0.344,0.832 0.92,1.248 0.576,0.408 1.264,0.408 z m 6.687996,1.224 q -0.8,0 -0.8,-1.048 v -7.904 q 0,-0.52 0.312,-0.792 0.32,-0.272 0.832,-0.272 h 0.04 q 0.456,0 0.776,0.232 0.328,0.232 0.552,0.664 l 3.376,6.392 v -6.24 q 0,-1.048 0.808,-1.048 0.376,0 0.592,0.264 0.216,0.264 0.216,0.784 v 7.904 q 0,0.512 -0.272,0.792 -0.264,0.272 -0.776,0.272 h -0.016 q -0.464,0 -0.768,-0.232 -0.296,-0.232 -0.528,-0.664 l -3.56,-6.616 v 6.464 q 0,1.048 -0.784,1.048 z m 11.58399,-9.976 q 0.504,0 1.128,0.104 0.624,0.104 1.256,0.4 0.632,0.288 1.168,0.84 0.536,0.552 0.856,1.432 0.328,0.88 0.328,2.176 0,1.288 -0.328,2.168 -0.32,0.88 -0.856,1.432 -0.536,0.552 -1.168,0.848 -0.632,0.288 -1.256,0.4 -0.624,0.104 -1.128,0.104 h -2 q -1.064,0 -1.064,-1.072 v -7.768 q 0,-1.064 1.064,-1.064 z m -0.024,8.592 q 0.584,0 1.112,-0.2 0.536,-0.2 0.952,-0.632 0.424,-0.432 0.664,-1.128 0.24,-0.696 0.24,-1.68 0,-0.992 -0.24,-1.688 -0.24,-0.696 -0.664,-1.128 -0.416,-0.432 -0.952,-0.624 -0.528,-0.2 -1.112,-0.2 h -1.272 v 7.28 z m 10.455993,1.48 q -1.088,0 -1.984,-0.44 -0.896,-0.448 -1.432,-1.408 -0.528,-0.96 -0.528,-2.52 v -4.64 q 0,-1.064 0.888,-1.064 0.888,0 0.888,1.064 v 4.544 q 0,1.52 0.576,2.336 0.576,0.808 1.592,0.808 1.024,0 1.592,-0.808 0.568,-0.816 0.568,-2.336 v -4.544 q 0,-1.064 0.888,-1.064 0.888,0 0.888,1.064 v 4.64 q 0,1.56 -0.528,2.52 -0.528,0.96 -1.416,1.408 -0.888,0.44 -1.992,0.44 z m 10.191992,-0.008 q -0.816,0 -1.616,-0.272 -0.8,-0.272 -1.456,-0.872 -0.656,-0.6 -1.048,-1.568 -0.392,-0.976 -0.392,-2.368 0,-1.392 0.392,-2.36 0.392,-0.976 1.048,-1.576 0.656,-0.6 1.456,-0.872 0.8,-0.272 1.616,-0.272 0.768,0 1.4,0.232 0.64,0.224 1.103998,0.6 0.472,0.376 0.72,0.824 0.256,0.448 0.256,0.888 0,0.352 -0.224,0.56 -0.224,0.2 -0.528,0.2 -0.375998,0 -0.535998,-0.168 -0.152,-0.168 -0.256,-0.416 -0.088,-0.296 -0.312,-0.616 -0.224,-0.328 -0.616,-0.552 -0.392,-0.232 -1,-0.232 -0.68,0 -1.304,0.4 -0.616,0.392 -1.008,1.224 -0.392,0.824 -0.392,2.136 0,1.312 0.392,2.144 0.392,0.832 1.008,1.224 0.624,0.392 1.304,0.392 0.608,0 1,-0.224 0.392,-0.232 0.616,-0.552 0.224,-0.328 0.312,-0.624 0.104,-0.256 0.256,-0.424 0.16,-0.168 0.535998,-0.168 0.304,0 0.528,0.216 0.224,0.208 0.224,0.552 0,0.44 -0.256,0.888 -0.256,0.448 -0.728,0.824 -0.463998,0.376 -1.103998,0.608 -0.632,0.224 -1.392,0.224 z m 11.607988,-10.064 q 0.992,0 0.992,0.648 0,0.32 -0.272,0.496 -0.264,0.168 -0.672,0.168 h -2.16 v 7.64 q 0,1.064 -0.888,1.064 -0.888,0 -0.888,-1.064 v -7.64 h -2.064 q -0.488,0 -0.76,-0.168 -0.264,-0.176 -0.264,-0.496 0,-0.312 0.264,-0.48 0.272,-0.168 0.76,-0.168 z m 6.47199,10.072 q -0.792,0 -1.56,-0.272 -0.768,-0.28 -1.4,-0.88 -0.624,-0.6 -1,-1.568 -0.376,-0.976 -0.376,-2.368 0,-1.392 0.376,-2.36 0.376,-0.976 1,-1.568 0.632,-0.6 1.4,-0.872 0.768,-0.28 1.56,-0.28 0.776,0 1.544,0.28 0.768,0.272 1.392,0.872 0.632,0.592 1.008,1.568 0.376,0.968 0.376,2.36 0,1.392 -0.376,2.368 -0.376,0.968 -1.008,1.568 -0.624,0.6 -1.392,0.88 -0.768,0.272 -1.544,0.272 z m 0,-1.32 q 0.68,0 1.248,-0.408 0.568,-0.416 0.912,-1.248 0.344,-0.84 0.344,-2.112 0,-1.264 -0.344,-2.096 -0.344,-0.84 -0.912,-1.248 -0.568,-0.416 -1.248,-0.416 -0.688,0 -1.264,0.416 -0.576,0.408 -0.92,1.248 -0.344,0.832 -0.344,2.096 0,1.272 0.344,2.112 0.344,0.832 0.92,1.248 0.576,0.408 1.264,0.408 z m 7.84,-7.44 v 3.08 h 2.008 q 0.824,0 1.28,-0.408 0.464,-0.408 0.464,-1.176 0,-0.768 -0.48,-1.128 -0.472,-0.368 -1.32,-0.368 z m -1.776,7.64 v -7.888 q 0,-1.064 1.064,-1.064 h 2.952 q 0.552,0 1.128,0.112 0.576,0.104 1.064,0.4 0.496,0.296 0.8,0.832 0.304,0.528 0.304,1.384 0,1.072 -0.512,1.704 -0.512,0.624 -1.24,0.872 l 1.536,3.48 q 0.064,0.144 0.096,0.28 0.032,0.128 0.032,0.248 0,0.328 -0.216,0.52 -0.208,0.184 -0.6,0.184 -0.48,0 -0.688,-0.24 -0.208,-0.24 -0.384,-0.688 l -1.448,-3.384 h -2.112 v 3.248 q 0,1.064 -0.896,1.064 -0.88,0 -0.88,-1.064 z"
       id="moduleName--moduleName"
       transform="scale(0.99924857,1.000752)"
       aria-label="CONDUCTOR" /></g><g
     id="Widgets"
     style="display:inline"
     inkscape:label="Widgets"
     transform="matrix(2.9527559,0,0,2.9573593,0,-0.02037044)"><path
       id="output_PatternCV--hidden"
       style="display:inline;vector-effect:none;fill:#0000ff;fill-rule:evenodd;stroke-width:1.01521"
       d="m 41.656167,111.25481 a 4.0640001,4.0576739 0 0 1 -4.064,4.05767 4.0640001,4.0576739 0 0 1 -4.064,-4.05767 4.0640001,4.0576739 0 0 1 4.064,-4.05768 4.0640001,4.0576739 0 0 1 4.064,4.05768 z" /><path
       id="output_Reset--hidden"
       style="display:inline;vector-effect:none;fill:#0000ff;fill-rule:evenodd;stroke-width:1.01521"
       d="m 26.924001,111.25481 a 4.0640001,4.0576739 0 0 1 -4.064,4.05767 4.0640001,4.0576739 0 0 1 -4.064001,-4.05767 4.0640001,4.0576739 0 0 1 4.064001,-4.05768 4.0640001,4.0576739 0 0 1 4.064,4.05768 z" /><path
       id="output_Clock--hidden"
       style="display:inline;vector-effect:none;fill:#0000ff;fill-rule:evenodd;stroke-width:1.01521"
       d="m 12.192,111.25481 a 4.0640001,4.0576739 0 0 1 -4.0639997,4.05767 4.0640001,4.0576739 0 0 1 -4.0640002,-4.05767 4.0640001,4.0576739 0 0 1 4.0640002,-4.05768 4.0640001,4.0576739 0 0 1 4.0639997,4.05768 z" /><path
       id="param_ManualSetButton--hidden"
       style="display:inline;fill:#ff0000;stroke-width:0.169898;paint-order:stroke fill markers"
       d="m 21.336003,91.304626 a 3.556,3.5504649 0 0 1 -3.499213,3.550013 3.556,3.5504649 0 0 1 -3.610974,-3.436629 3.556,3.5504649 0 0 1 3.383883,-3.659774 3.556,3.5504649 0 0 1 3.719051,3.31974" /><path
       id="param_ManualSet--hidden"
       style="display:inline;vector-effect:none;fill:#ff0000;fill-rule:evenodd;stroke-width:1.01521"
       d="M 12.192002,91.304626 A 4.0640001,4.0576739 0 0 1 8.1280022,95.3623 4.0640001,4.0576739 0 0 1 4.064002,91.304626 4.0640001,4.0576739 0 0 1 8.1280022,87.246953 4.0640001,4.0576739 0 0 1 12.192002,91.304626 Z" /><path
       id="param_ResetButton--hidden"
       style="display:inline;fill:#ff0000;stroke-width:0.169898;paint-order:stroke fill markers"
       d="m 21.336003,75.750229 a 3.556,3.5504649 0 0 1 -3.499213,3.550012 3.556,3.5504649 0 0 1 -3.610974,-3.436629 3.556,3.5504649 0 0 1 3.383883,-3.659774 3.556,3.5504649 0 0 1 3.719051,3.31974" /><path
       id="input_Reset--hidden"
       style="display:inline;vector-effect:none;fill:#00ff00;fill-rule:evenodd;stroke-width:1.01521"
       d="M 12.192002,75.750229 A 4.0640001,4.0576739 0 0 1 8.1280022,79.807903 4.0640001,4.0576739 0 0 1 4.064002,75.750229 4.0640001,4.0576739 0 0 1 8.1280022,71.692555 4.0640001,4.0576739 0 0 1 12.192002,75.750229 Z" /><path
       id="param_AdvanceButton--hidden"
       style="display:inline;fill:#ff0000;stroke-width:0.169898;paint-order:stroke fill markers"
       d="m 21.336003,60.195763 a 3.556,3.5504649 0 0 1 -3.499213,3.550012 3.556,3.5504649 0 0 1 -3.610974,-3.436629 3.556,3.5504649 0 0 1 3.383883,-3.659774 3.556,3.5504649 0 0 1 3.719051,3.31974" /><path
       id="input_Advance--hidden"
       style="display:inline;vector-effect:none;fill:#00ff00;fill-rule:evenodd;stroke-width:1.01521"
       d="M 12.192001,60.195763 A 4.0640001,4.0576739 0 0 1 8.1280012,64.253437 4.0640001,4.0576739 0 0 1 4.0640011,60.195763 4.0640001,4.0576739 0 0 1 8.1280012,56.138089 4.0640001,4.0576739 0 0 1 12.192001,60.195763 Z" /><path
       id="input_Clock--hidden"
       style="display:inline;vector-effect:none;fill:#00ff00;fill-rule:evenodd;stroke-width:1.01521"
       d="M 12.192002,44.64135 A 4.0640001,4.0576739 0 0 1 8.1280022,48.699024 4.0640001,4.0576739 0 0 1 4.064002,44.64135 4.0640001,4.0576739 0 0 1 8.1280022,40.583676 4.0640001,4.0576739 0 0 1 12.192002,44.64135 Z" /><path
       id="param_SeqCVMax--hidden"
       style="display:inline;fill:#ff0000;stroke-width:0.194169;paint-order:stroke fill markers"
       d="m 41.656167,91.30452 a 4.0640001,4.0576739 0 0 1 -3.9991,4.057156 4.0640001,4.0576739 0 0 1 -4.126827,-3.927576 4.0640001,4.0576739 0 0 1 3.867294,-4.182598 4.0640001,4.0576739 0 0 1 4.250344,3.793988" /><path
       id="param_SeqPtnMax--hidden"
       style="display:inline;fill:#ff0000;stroke-width:0.194169;paint-order:stroke fill markers"
       d="m 41.656167,75.750099 a 4.0640001,4.0576739 0 0 1 -3.9991,4.057157 4.0640001,4.0576739 0 0 1 -4.126827,-3.927576 4.0640001,4.0576739 0 0 1 3.867294,-4.182599 4.0640001,4.0576739 0 0 1 4.250344,3.793989" /><path
       id="param_ResetPtnButton--hidden"
       style="display:inline;fill:#ff0000;stroke-width:0.169898;paint-order:stroke fill markers"
       d="m 31.496165,60.195759 a 3.556,3.5504649 0 0 1 -3.499213,3.550012 3.556,3.5504649 0 0 1 -3.610974,-3.436629 3.556,3.5504649 0 0 1 3.383883,-3.659774 3.556,3.5504649 0 0 1 3.719051,3.31974" /><path
       id="param_ResetPtn--hidden"
       style="display:inline;fill:#ff0000;stroke-width:0.194169;paint-order:stroke fill markers"
       d="m 41.656167,60.195759 a 4.0640001,4.0576739 0 0 1 -3.9991,4.057156 4.0640001,4.0576739 0 0 1 -4.126827,-3.927575 4.0640001,4.0576739 0 0 1 3.867294,-4.182599 4.0640001,4.0576739 0 0 1 4.250344,3.793989" /><path
       id="param_PtnCount--hidden"
       style="display:inline;fill:#ff0000;stroke-width:0.194169;paint-order:stroke fill markers"
       d="m 41.656167,44.641354 a 4.0640001,4.0576739 0 0 1 -3.9991,4.057156 4.0640001,4.0576739 0 0 1 -4.126827,-3.927576 4.0640001,4.0576739 0 0 1 3.867294,-4.182598 4.0640001,4.0576739 0 0 1 4.250344,3.793988" /><path
       id="widget_Display--hidden"
       style="display:inline;fill:#ffff00;stroke-width:11.6138;paint-order:stroke fill markers"
       d="M 5.0799994,11.841771 H 40.640001 V 32.130139 H 5.0799994 Z" /><path
       id="widgetLogo--hidden"
       style="fill:#ffff00;stroke-width:3.65802;paint-order:stroke fill markers"
       d="m 18.626667,118.35572 h 8.466666 v 8.45349 h -8.466666 z" /></g></svg>
