<?xml version="1.0" encoding="UTF-8" standalone="no"?>
<!-- Created with Inkscape (http://www.inkscape.org/) -->

<svg
   width="600"
   height="380.00003"
   viewBox="0 0 600 380.00004"
   version="1.1"
   id="svg8"
   inkscape:version="1.4.2 (ebf0e94, 2025-05-08)"
   sodipodi:docname="ConductorGrid.svg"
   xml:space="preserve"
   xmlns:inkscape="http://www.inkscape.org/namespaces/inkscape"
   xmlns:sodipodi="http://sodipodi.sourceforge.net/DTD/sodipodi-0.dtd"
   xmlns="http://www.w3.org/2000/svg"
   xmlns:svg="http://www.w3.org/2000/svg"
   xmlns:rdf="http://www.w3.org/1999/02/22-rdf-syntax-ns#"
   xmlns:cc="http://creativecommons.org/ns#"
   xmlns:dc="http://purl.org/dc/elements/1.1/"><defs
     id="defs2"><linearGradient
       id="uuid-f0636bc7-c65b-4b70-b857-f875576c11d6"
       x1="37.5"
       y1="0"
       x2="37.5"
       y2="380"
       gradientUnits="userSpaceOnUse"><stop
         offset="0"
         stop-color="#ebebeb"
         id="stop2" /><stop
         offset="1"
         stop-color="#e1e1e1"
         id="stop4" /></linearGradient></defs><sodipodi:namedview
     id="base"
     pagecolor="#ffffff"
     bordercolor="#666666"
     borderopacity="1.0"
     inkscape:pageopacity="0.0"
     inkscape:pageshadow="2"
     inkscape:zoom="1.3419356"
     inkscape:cx="147.92066"
     inkscape:cy="122.95672"
     inkscape:document-units="px"
     inkscape:current-layer="layer1"
     showgrid="true"
     units="mm"
     inkscape:snap-bbox="true"
     inkscape:snap-page="true"
     inkscape:bbox-nodes="false"
     inkscape:snap-bbox-edge-midpoints="false"
     inkscape:window-width="1920"
     inkscape:window-height="1027"
     inkscape:window-x="-8"
     inkscape:window-y="22"
     inkscape:window-maximized="1"
     inkscape:snap-bbox-midpoints="true"
     inkscape:snap-nodes="false"
     inkscape:showpageshadow="2"
     inkscape:pagecheckerboard="0"
     inkscape:deskcolor="#d1d1d1"
     showguides="false"><inkscape:grid
       id="grid1"
       units="px"
       originx="7.5355286e-16"
       originy="0"
       spacingx="1"
       spacingy="1"
       empcolor="#3f3fff"
       empopacity="0.25098039"
       color="#3f3fff"
       opacity="0.1254902"
       empspacing="5"
       dotted="false"
       gridanglex="30"
       gridanglez="30"
       visible="true" /></sodipodi:namedview><metadata
     id="metadata5"><rdf:RDF><cc:Work
         rdf:about=""><dc:format>image/svg+xml</dc:format><dc:type
           rdf:resource="http://purl.org/dc/dcmitype/StillImage" /></cc:Work></rdf:RDF></metadata><g
     inkscape:label="Layer 1"
     inkscape:groupmode="layer"
     id="layer1"
     transform="translate(0,-168.49997)"
     style="display:inline"><path
       id="bg--background-fill"
       style="display:inline;opacity:1;vector-effect:none;fill:#1f1f1f;fill-rule:evenodd;stroke-width:4.95439"
       d="m 0,168.49997 h 600 v 380 H 0 Z" /><path
       style="font-weight:500;font-size:18px;line-height:1.25;font-family:Sono;-inkscape-font-specification:'Sono Medium';letter-spacing:0px;word-spacing:0px;fill:#bf9b30"
       d="m 43.022002,402.10988 q -0.648,0 -1.359,-0.351 -0.711,-0.342 -1.251,-0.9 -0.531,-0.549 -0.657,-1.17 -0.882,0 -1.746,-0.306 -0.864,-0.315 -1.575,-0.99 -0.702,-0.675 -1.125,-1.764 -0.423,-1.098 -0.423,-2.664 0,-1.566 0.423,-2.655 0.423,-1.098 1.125,-1.764 0.711,-0.675 1.575,-0.981 0.864,-0.315 1.755,-0.315 0.873,0 1.737,0.315 0.864,0.306 1.566,0.981 0.711,0.666 1.134,1.764 0.423,1.089 0.423,2.655 0,1.62 -0.459,2.736 -0.459,1.107 -1.206,1.764 -0.747,0.657 -1.62,0.927 0.135,0.342 0.432,0.594 0.297,0.252 0.657,0.405 0.369,0.162 0.684,0.234 0.369,0.081 0.558,0.261 0.198,0.18 0.198,0.522 0,0.342 -0.243,0.522 -0.243,0.18 -0.603,0.18 z m -6.102,-8.145 q 0,1.431 0.387,2.376 0.387,0.936 1.035,1.404 0.648,0.459 1.422,0.459 0.765,0 1.404,-0.459 0.639,-0.468 1.026,-1.404 0.387,-0.945 0.387,-2.376 0,-1.422 -0.387,-2.358 -0.387,-0.945 -1.026,-1.404 -0.639,-0.468 -1.404,-0.468 -0.774,0 -1.422,0.468 -0.648,0.459 -1.035,1.404 -0.387,0.936 -0.387,2.358 z m 14.102995,5.724 q -1.224,0 -2.232,-0.495 -1.008,-0.504 -1.611,-1.584 -0.594,-1.08 -0.594,-2.835 v -5.22 q 0,-1.197 0.999,-1.197 0.999,0 0.999,1.197 v 5.112 q 0,1.71 0.648,2.628 0.648,0.909 1.791,0.909 1.152,0 1.791,-0.909 0.639,-0.918 0.639,-2.628 v -5.112 q 0,-1.197 0.999,-1.197 0.999,0 0.999,1.197 v 5.22 q 0,1.755 -0.594,2.835 -0.594,1.08 -1.593,1.584 -0.999,0.495 -2.241,0.495 z m 14.273991,-10.602 q 0,0.747 -1.152,0.747 h -4.419 v 3.33 h 3.618 q 0.585,0 0.828,0.189 0.243,0.189 0.243,0.549 0,0.351 -0.243,0.549 -0.243,0.189 -0.828,0.189 h -3.618 v 3.384 h 4.419 q 1.152,0 1.152,0.738 0,0.738 -1.152,0.738 h -5.22 q -1.197,0 -1.197,-1.206 v -8.739 q 0,-1.197 1.197,-1.197 h 5.22 q 1.152,0 1.152,0.729 z m 6.543007,10.602 q -1.224,0 -2.232,-0.495 -1.008,-0.504 -1.611,-1.584 -0.594,-1.08 -0.594,-2.835 v -5.22 q 0,-1.197 0.999,-1.197 0.999,0 0.999,1.197 v 5.112 q 0,1.71 0.648,2.628 0.648,0.909 1.791,0.909 1.152,0 1.791,-0.909 0.639,-0.918 0.639,-2.628 v -5.112 q 0,-1.197 0.999,-1.197 0.999,0 0.999,1.197 v 5.22 q 0,1.755 -0.594,2.835 -0.594,1.08 -1.593,1.584 -0.999,0.495 -2.241,0.495 z m 14.27399,-10.602 q 0,0.747 -1.152,0.747 h -4.419 v 3.33 h 3.618 q 0.585,0 0.828,0.189 0.243,0.189 0.243,0.549 0,0.351 -0.243,0.549 -0.243,0.189 -0.828,0.189 h -3.618 v 3.384 h 4.419 q 1.152,0 1.152,0.738 0,0.738 -1.152,0.738 h -5.22 q -1.197,0 -1.197,-1.206 v -8.739 q 0,-1.197 1.197,-1.197 h 5.22 q 1.152,0 1.152,0.729 z"
       id="textQueue--text"
       aria-label="QUEUE" /><path
       style="font-weight:500;font-size:40px;line-height:1.25;font-family:Sono;-inkscape-font-specification:'Sono Medium';letter-spacing:0px;word-spacing:0px;fill:#bf9b30"
       d="m 79.019984,312.99996 q 0,-1.72 2.66,-1.72 h 9.64 q 2.66,0 2.66,1.72 0,1.7 -2.66,1.7 h -9.64 q -2.66,0 -2.66,-1.7 z m 7.5,7.5 q -1.72,0 -1.72,-2.68 v -9.62 q 0,-2.68 1.72,-2.68 1.72,0 1.72,2.68 v 9.62 q 0,2.68 -1.72,2.68 z"
       id="textPageUp--text"
       aria-label="+" /><path
       style="font-weight:500;font-size:40px;line-height:1.25;font-family:Sono;-inkscape-font-specification:'Sono Medium';letter-spacing:0px;word-spacing:0px;fill:#bf9b30"
       d="m 27.019991,312.99996 q 0,-0.82 0.58,-1.26 0.58,-0.46 1.88,-0.46 h 7.44 q 1.32,0 1.9,0.46 0.58,0.44 0.58,1.26 0,0.82 -0.58,1.26 -0.58,0.44 -1.9,0.44 h -7.44 q -1.3,0 -1.88,-0.44 -0.58,-0.44 -0.58,-1.26 z"
       id="textPageDown--text"
       aria-label="-" /><path
       style="font-weight:500;font-size:18px;line-height:1.25;font-family:Sono;-inkscape-font-specification:'Sono Medium';letter-spacing:0px;word-spacing:0px;fill:#bf9b30"
       d="m 43.480999,218.83397 v 4.149 h 1.656 q 0.36,0 0.756,-0.063 0.405,-0.072 0.756,-0.279 0.351,-0.216 0.576,-0.639 0.225,-0.423 0.225,-1.143 0,-0.711 -0.225,-1.116 -0.225,-0.414 -0.576,-0.603 -0.351,-0.198 -0.756,-0.252 -0.396,-0.054 -0.756,-0.054 z m 1.953,5.625 h -1.953 v 2.835 q 0,1.206 -0.99,1.206 -0.999,0 -0.999,-1.206 v -8.739 q 0,-1.197 1.197,-1.197 h 2.745 q 0.405,0 0.927,0.063 0.531,0.054 1.071,0.243 0.54,0.189 0.999,0.576 0.459,0.378 0.738,1.017 0.288,0.63 0.288,1.602 0,0.963 -0.288,1.62 -0.279,0.648 -0.738,1.044 -0.459,0.396 -0.999,0.603 -0.54,0.198 -1.071,0.27 -0.522,0.063 -0.927,0.063 z m 5.390989,4.212 q -0.396,0 -0.648,-0.225 -0.243,-0.225 -0.243,-0.648 0,-0.099 0.018,-0.216 0.018,-0.117 0.054,-0.243 l 3.078,-8.91 q 0.171,-0.513 0.513,-0.81 0.351,-0.306 0.828,-0.306 h 0.459 q 0.486,0 0.828,0.306 0.351,0.297 0.513,0.81 l 3.078,8.91 q 0.045,0.126 0.063,0.243 0.018,0.117 0.018,0.216 0,0.423 -0.252,0.648 -0.252,0.225 -0.657,0.225 -0.495,0 -0.729,-0.261 -0.234,-0.261 -0.387,-0.801 l -0.684,-1.989 h -4.041 l -0.684,1.989 q -0.144,0.54 -0.387,0.801 -0.234,0.261 -0.738,0.261 z m 2.223,-4.527 h 3.222 l -1.521,-4.59 q -0.027,-0.099 -0.054,-0.198 -0.027,-0.108 -0.045,-0.189 -0.009,0.081 -0.036,0.189 -0.018,0.099 -0.045,0.198 z m 12.473995,4.545 q -0.954,0 -1.836,-0.315 -0.882,-0.324 -1.584,-1.008 -0.702,-0.684 -1.116,-1.773 -0.405,-1.089 -0.405,-2.628 0,-1.548 0.432,-2.628 0.432,-1.089 1.161,-1.773 0.738,-0.684 1.647,-0.999 0.909,-0.315 1.863,-0.315 1.026,0 1.791,0.288 0.765,0.288 1.314,0.819 0.261,0.225 0.378,0.459 0.117,0.234 0.117,0.459 0,0.351 -0.27,0.576 -0.261,0.225 -0.585,0.225 -0.243,0 -0.477,-0.126 -0.234,-0.126 -0.414,-0.324 -0.297,-0.342 -0.738,-0.603 -0.441,-0.27 -1.107,-0.27 -0.774,0 -1.485,0.432 -0.711,0.423 -1.161,1.35 -0.45,0.927 -0.45,2.43 0,1.539 0.441,2.466 0.441,0.927 1.134,1.341 0.693,0.414 1.458,0.414 0.72,0 1.242,-0.324 0.522,-0.333 0.81,-0.99 0.297,-0.657 0.315,-1.647 h -1.764 q -0.45,0 -0.711,-0.162 -0.252,-0.171 -0.252,-0.54 0,-0.378 0.243,-0.54 0.252,-0.171 0.702,-0.171 h 2.646 q 0.585,0 0.846,0.288 0.261,0.279 0.261,0.819 0,1.602 -0.585,2.664 -0.585,1.053 -1.593,1.584 -1.008,0.522 -2.268,0.522 z m 13.986011,-10.602 q 0,0.747 -1.152,0.747 h -4.419 v 3.33 h 3.618 q 0.585,0 0.828,0.189 0.243,0.189 0.243,0.549 0,0.351 -0.243,0.549 -0.243,0.189 -0.828,0.189 h -3.618 v 3.384 h 4.419 q 1.152,0 1.152,0.738 0,0.738 -1.152,0.738 h -5.22 q -1.197,0 -1.197,-1.206 v -8.739 q 0,-1.197 1.197,-1.197 h 5.22 q 1.152,0 1.152,0.729 z"
       id="textPage--text"
       aria-label="PAGE" /><path
       id="header--hidden"
       style="display:inline;fill:#707070;stroke-width:2.26944;paint-order:stroke fill markers"
       d="m 0,168.50002 h 600 v 35 H 0 Z" /><path
       id="footer--hidden"
       style="display:inline;fill:#707070;stroke-width:2.26944;paint-order:stroke fill markers"
       d="m 0,513.5 h 600 v 35 H 0 Z" /><path
       style="font-weight:500;font-size:28px;line-height:1.25;font-family:Sono;-inkscape-font-specification:'Sono Medium';letter-spacing:0px;word-spacing:0px;fill:#bf9b30;stroke-width:0.781836"
       d="m 376.48197,194.74326 q -1.428,0 -2.828,-0.476 -1.4,-0.476 -2.548,-1.526 -1.148,-1.05 -1.834,-2.744 -0.686,-1.708 -0.686,-4.144 0,-2.436 0.686,-4.13 0.686,-1.708 1.834,-2.758 1.148,-1.05 2.548,-1.526 1.4,-0.476 2.828,-0.476 1.344,0 2.45,0.406 1.12,0.392 1.932,1.05 0.826,0.658 1.26,1.442 0.448,0.784 0.448,1.554 0,0.616 -0.392,0.98 -0.392,0.35 -0.924,0.35 -0.658,0 -0.938,-0.294 -0.266,-0.294 -0.448,-0.728 -0.154,-0.518 -0.546,-1.078 -0.392,-0.574 -1.078,-0.966 -0.686,-0.406 -1.75,-0.406 -1.19,0 -2.282,0.7 -1.078,0.686 -1.764,2.142 -0.686,1.442 -0.686,3.738 0,2.296 0.686,3.752 0.686,1.456 1.764,2.142 1.092,0.686 2.282,0.686 1.064,0 1.75,-0.392 0.686,-0.406 1.078,-0.966 0.392,-0.574 0.546,-1.092 0.182,-0.448 0.448,-0.742 0.28,-0.294 0.938,-0.294 0.532,0 0.924,0.378 0.392,0.364 0.392,0.966 0,0.77 -0.448,1.554 -0.448,0.784 -1.274,1.442 -0.812,0.658 -1.932,1.064 -1.106,0.392 -2.436,0.392 z m 16.25398,0.014 q -1.386,0 -2.73,-0.476 -1.344,-0.49 -2.45,-1.54 -1.092,-1.05 -1.75,-2.744 -0.658,-1.708 -0.658,-4.144 0,-2.436 0.658,-4.13 0.658,-1.708 1.75,-2.744 1.106,-1.05 2.45,-1.526 1.344,-0.49 2.73,-0.49 1.358,0 2.702,0.49 1.344,0.476 2.436,1.526 1.106,1.036 1.764,2.744 0.658,1.694 0.658,4.13 0,2.436 -0.658,4.144 -0.658,1.694 -1.764,2.744 -1.092,1.05 -2.436,1.54 -1.344,0.476 -2.702,0.476 z m 0,-2.31 q 1.19,0 2.184,-0.714 0.994,-0.728 1.596,-2.184 0.602,-1.47 0.602,-3.696 0,-2.212 -0.602,-3.668 -0.602,-1.47 -1.596,-2.184 -0.994,-0.728 -2.184,-0.728 -1.204,0 -2.212,0.728 -1.008,0.714 -1.61,2.184 -0.602,1.456 -0.602,3.668 0,2.226 0.602,3.696 0.602,1.456 1.61,2.184 1.008,0.714 2.212,0.714 z m 11.704,2.142 q -1.4,0 -1.4,-1.834 v -13.832 q 0,-0.91 0.546,-1.386 0.56,-0.476 1.456,-0.476 h 0.07 q 0.798,0 1.358,0.406 0.574,0.406 0.966,1.162 l 5.908,11.186 v -10.92 q 0,-1.834 1.414,-1.834 0.658,0 1.036,0.462 0.378,0.462 0.378,1.372 v 13.832 q 0,0.896 -0.476,1.386 -0.462,0.476 -1.358,0.476 h -0.028 q -0.812,0 -1.344,-0.406 -0.518,-0.406 -0.924,-1.162 l -6.23,-11.578 v 11.312 q 0,1.834 -1.372,1.834 z m 20.27198,-17.458 q 0.882,0 1.974,0.182 1.092,0.182 2.198,0.7 1.106,0.504 2.044,1.47 0.938,0.966 1.498,2.506 0.574,1.54 0.574,3.808 0,2.254 -0.574,3.794 -0.56,1.54 -1.498,2.506 -0.938,0.966 -2.044,1.484 -1.106,0.504 -2.198,0.7 -1.092,0.182 -1.974,0.182 h -3.5 q -1.862,0 -1.862,-1.876 v -13.594 q 0,-1.862 1.862,-1.862 z m -0.042,15.036 q 1.022,0 1.946,-0.35 0.938,-0.35 1.666,-1.106 0.742,-0.756 1.162,-1.974 0.42,-1.218 0.42,-2.94 0,-1.736 -0.42,-2.954 -0.42,-1.218 -1.162,-1.974 -0.728,-0.756 -1.666,-1.092 -0.924,-0.35 -1.946,-0.35 h -2.226 v 12.74 z m 18.29799,2.59 q -1.904,0 -3.472,-0.77 -1.568,-0.784 -2.506,-2.464 -0.924,-1.68 -0.924,-4.41 v -8.12 q 0,-1.862 1.554,-1.862 1.554,0 1.554,1.862 v 7.952 q 0,2.66 1.008,4.088 1.008,1.414 2.786,1.414 1.792,0 2.786,-1.414 0.994,-1.428 0.994,-4.088 v -7.952 q 0,-1.862 1.554,-1.862 1.554,0 1.554,1.862 v 8.12 q 0,2.73 -0.924,4.41 -0.924,1.68 -2.478,2.464 -1.554,0.77 -3.486,0.77 z m 17.83598,-0.014 q -1.428,0 -2.828,-0.476 -1.4,-0.476 -2.548,-1.526 -1.148,-1.05 -1.834,-2.744 -0.686,-1.708 -0.686,-4.144 0,-2.436 0.686,-4.13 0.686,-1.708 1.834,-2.758 1.148,-1.05 2.548,-1.526 1.4,-0.476 2.828,-0.476 1.344,0 2.45,0.406 1.12,0.392 1.932,1.05 0.826,0.658 1.26,1.442 0.448,0.784 0.448,1.554 0,0.616 -0.392,0.98 -0.392,0.35 -0.924,0.35 -0.658,0 -0.938,-0.294 -0.266,-0.294 -0.448,-0.728 -0.154,-0.518 -0.546,-1.078 -0.392,-0.574 -1.078,-0.966 -0.686,-0.406 -1.75,-0.406 -1.19,0 -2.282,0.7 -1.078,0.686 -1.764,2.142 -0.686,1.442 -0.686,3.738 0,2.296 0.686,3.752 0.686,1.456 1.764,2.142 1.092,0.686 2.282,0.686 1.064,0 1.75,-0.392 0.686,-0.406 1.078,-0.966 0.392,-0.574 0.546,-1.092 0.182,-0.448 0.448,-0.742 0.28,-0.294 0.938,-0.294 0.532,0 0.924,0.378 0.392,0.364 0.392,0.966 0,0.77 -0.448,1.554 -0.448,0.784 -1.274,1.442 -0.812,0.658 -1.932,1.064 -1.106,0.392 -2.436,0.392 z m 20.31398,-17.612 q 1.736,0 1.736,1.134 0,0.56 -0.476,0.868 -0.462,0.294 -1.176,0.294 h -3.78 v 13.37 q 0,1.862 -1.554,1.862 -1.554,0 -1.554,-1.862 v -13.37 h -3.612 q -0.854,0 -1.33,-0.294 -0.462,-0.308 -0.462,-0.868 0,-0.546 0.462,-0.84 0.476,-0.294 1.33,-0.294 z m 11.32599,17.626 q -1.386,0 -2.73,-0.476 -1.344,-0.49 -2.45,-1.54 -1.092,-1.05 -1.75,-2.744 -0.658,-1.708 -0.658,-4.144 0,-2.436 0.658,-4.13 0.658,-1.708 1.75,-2.744 1.106,-1.05 2.45,-1.526 1.344,-0.49 2.73,-0.49 1.358,0 2.702,0.49 1.344,0.476 2.436,1.526 1.106,1.036 1.764,2.744 0.658,1.694 0.658,4.13 0,2.436 -0.658,4.144 -0.658,1.694 -1.764,2.744 -1.092,1.05 -2.436,1.54 -1.344,0.476 -2.702,0.476 z m 0,-2.31 q 1.19,0 2.184,-0.714 0.994,-0.728 1.596,-2.184 0.602,-1.47 0.602,-3.696 0,-2.212 -0.602,-3.668 -0.602,-1.47 -1.596,-2.184 -0.994,-0.728 -2.184,-0.728 -1.204,0 -2.212,0.728 -1.008,0.714 -1.61,2.184 -0.602,1.456 -0.602,3.668 0,2.226 0.602,3.696 0.602,1.456 1.61,2.184 1.008,0.714 2.212,0.714 z m 13.71999,-13.02 v 5.39 h 3.514 q 1.442,0 2.24,-0.714 0.812,-0.714 0.812,-2.058 0,-1.344 -0.84,-1.974 -0.826,-0.644 -2.31,-0.644 z m -3.108,13.37 v -13.804 q 0,-1.862 1.862,-1.862 h 5.166 q 0.966,0 1.974,0.196 1.008,0.182 1.862,0.7 0.868,0.518 1.4,1.456 0.532,0.924 0.532,2.422 0,1.876 -0.896,2.982 -0.896,1.092 -2.17,1.526 l 2.688,6.09 q 0.112,0.252 0.168,0.49 0.056,0.224 0.056,0.434 0,0.574 -0.378,0.91 -0.364,0.322 -1.05,0.322 -0.84,0 -1.204,-0.42 -0.364,-0.42 -0.672,-1.204 l -2.534,-5.922 h -3.696 v 5.684 q 0,1.862 -1.568,1.862 -1.54,0 -1.54,-1.862 z m 32.24202,1.96 q -1.484,0 -2.856,-0.49 -1.372,-0.504 -2.464,-1.568 -1.092,-1.064 -1.736,-2.758 -0.63,-1.694 -0.63,-4.088 0,-2.408 0.672,-4.088 0.672,-1.694 1.806,-2.758 1.148,-1.064 2.562,-1.554 1.414,-0.49 2.898,-0.49 1.596,0 2.786,0.448 1.19,0.448 2.044,1.274 0.406,0.35 0.588,0.714 0.182,0.364 0.182,0.714 0,0.546 -0.42,0.896 -0.406,0.35 -0.91,0.35 -0.378,0 -0.742,-0.196 -0.364,-0.196 -0.644,-0.504 -0.462,-0.532 -1.148,-0.938 -0.686,-0.42 -1.722,-0.42 -1.204,0 -2.31,0.672 -1.106,0.658 -1.806,2.1 -0.7,1.442 -0.7,3.78 0,2.394 0.686,3.836 0.686,1.442 1.764,2.086 1.078,0.644 2.268,0.644 1.12,0 1.932,-0.504 0.812,-0.518 1.26,-1.54 0.462,-1.022 0.49,-2.562 h -2.744 q -0.7,0 -1.106,-0.252 -0.392,-0.266 -0.392,-0.84 0,-0.588 0.378,-0.84 0.392,-0.266 1.092,-0.266 h 4.116 q 0.91,0 1.316,0.448 0.406,0.434 0.406,1.274 0,2.492 -0.91,4.144 -0.91,1.638 -2.478,2.464 -1.568,0.812 -3.528,0.812 z m 13.09001,-15.33 v 5.39 h 3.514 q 1.442,0 2.24,-0.714 0.812,-0.714 0.812,-2.058 0,-1.344 -0.84,-1.974 -0.826,-0.644 -2.31,-0.644 z m -3.108,13.37 v -13.804 q 0,-1.862 1.862,-1.862 h 5.166 q 0.966,0 1.974,0.196 1.008,0.182 1.862,0.7 0.868,0.518 1.4,1.456 0.532,0.924 0.532,2.422 0,1.876 -0.896,2.982 -0.896,1.092 -2.17,1.526 l 2.688,6.09 q 0.112,0.252 0.168,0.49 0.056,0.224 0.056,0.434 0,0.574 -0.378,0.91 -0.364,0.322 -1.05,0.322 -0.84,0 -1.204,-0.42 -0.364,-0.42 -0.672,-1.204 l -2.534,-5.922 h -3.696 v 5.684 q 0,1.862 -1.568,1.862 -1.54,0 -1.54,-1.862 z m 17.22002,1.666 q -0.742,0 -1.148,-0.294 -0.406,-0.308 -0.406,-0.854 0,-0.56 0.406,-0.854 0.406,-0.294 1.148,-0.294 h 2.31 v -12.74 h -2.31 q -0.742,0 -1.148,-0.294 -0.406,-0.308 -0.406,-0.868 0,-0.546 0.406,-0.84 0.406,-0.294 1.148,-0.294 h 7.532 q 0.756,0 1.148,0.294 0.406,0.294 0.406,0.84 0,0.56 -0.406,0.868 -0.392,0.294 -1.148,0.294 h -2.24 v 12.74 h 2.24 q 0.756,0 1.148,0.294 0.406,0.294 0.406,0.854 0,0.546 -0.406,0.854 -0.392,0.294 -1.148,0.294 z m 17.65398,-17.332 q 0.882,0 1.974,0.182 1.092,0.182 2.198,0.7 1.106,0.504 2.044,1.47 0.938,0.966 1.498,2.506 0.574,1.54 0.574,3.808 0,2.254 -0.574,3.794 -0.56,1.54 -1.498,2.506 -0.938,0.966 -2.044,1.484 -1.106,0.504 -2.198,0.7 -1.092,0.182 -1.974,0.182 h -3.5 q -1.862,0 -1.862,-1.876 v -13.594 q 0,-1.862 1.862,-1.862 z m -0.042,15.036 q 1.022,0 1.946,-0.35 0.938,-0.35 1.666,-1.106 0.742,-0.756 1.162,-1.974 0.42,-1.218 0.42,-2.94 0,-1.736 -0.42,-2.954 -0.42,-1.218 -1.162,-1.974 -0.728,-0.756 -1.666,-1.092 -0.924,-0.35 -1.946,-0.35 h -2.226 v 12.74 z"
       id="moduleName--moduleName"
       transform="scale(0.99924857,1.000752)"
       aria-label="CONDUCTOR GRID" /></g><g
     id="Widgets"
     style="display:inline"
     inkscape:label="Widgets"
     transform="matrix(2.9527559,0,0,2.9573593,0,-0.02037044)"><path
       id="widget_QueueDisplay--hidden"
       style="display:inline;fill:#ffff00;stroke-width:11.6138;paint-order:stroke fill markers"
       d="M 2.7093329,81.498474 H 38.269334 V 101.78684 H 2.7093329 Z" /><path
       id="param_PageUp--hidden"
       style="display:inline;fill:#ff0000;stroke-width:0.580192"
       d="m 21.674665,54.109158 h 15.24 v 15.216277 h -15.24 z" /><path
       id="param_PageDown--hidden"
       style="display:inline;fill:#ff0000;stroke-width:0.580192"
       d="M 4.0640001,54.109158 H 19.304 V 69.325435 H 4.0640001 Z" /><path
       id="widget_PageDisplay--hidden"
       style="display:inline;fill:#ffff00;stroke-width:34.3194;paint-order:stroke fill markers"
       transform="matrix(0.33866667,0,0,0.3381395,0,-56.969608)"
       d="m 8,238.49997 h 105 v 60 H 8 Z" /><path
       id="param_Pad8--hidden"
       style="display:inline;fill:#ff0000;stroke-width:1.28932"
       d="m 164.59207,71.016182 h 33.86667 v 33.813948 h -33.86667 z" /><path
       id="param_Pad7--hidden"
       style="display:inline;fill:#ff0000;stroke-width:1.28932"
       d="m 123.95196,71.016182 h 33.86666 v 33.813948 h -33.86666 z" /><path
       id="param_Pad6--hidden"
       style="display:inline;fill:#ff0000;stroke-width:1.28932"
       d="M 83.311943,71.016182 H 117.17861 V 104.83013 H 83.311943 Z" /><path
       id="param_Pad5--hidden"
       style="display:inline;fill:#ff0000;stroke-width:1.28932"
       d="M 42.672001,71.016182 H 76.538666 V 104.83013 H 42.672001 Z" /><path
       id="param_Pad4--hidden"
       style="display:inline;fill:#ff0000;stroke-width:1.28932"
       d="m 164.59207,23.676659 h 33.86667 v 33.813949 h -33.86667 z" /><path
       id="param_Pad3--hidden"
       style="display:inline;fill:#ff0000;stroke-width:1.28932"
       d="m 123.95196,23.676657 h 33.86666 v 33.813949 h -33.86666 z" /><path
       id="param_Pad2--hidden"
       style="display:inline;fill:#ff0000;stroke-width:1.28932"
       d="M 83.311943,23.676657 H 117.17861 V 57.490606 H 83.311943 Z" /><path
       id="param_Pad1--hidden"
       style="display:inline;fill:#ff0000;stroke-width:1.28932"
       d="M 42.672001,23.676655 H 76.538666 V 57.490604 H 42.672001 Z" /><path
       id="widgetLogo--hidden"
       style="fill:#ffff00;stroke-width:3.65802;paint-order:stroke fill markers"
       d="m 97.366669,118.35572 h 8.466661 v 8.45349 h -8.466661 z" /></g></svg>
