<?xml version="1.0" encoding="UTF-8" standalone="no"?>
<!-- Created with Inkscape (http://www.inkscape.org/) -->

<svg
   width="600"
   height="380.00003"
   viewBox="0 0 600 380.00004"
   version="1.1"
   id="svg8"
   inkscape:version="1.4.2 (ebf0e94, 2025-05-08)"
   sodipodi:docname="ConductorGrid.svg"
   xml:space="preserve"
   xmlns:inkscape="http://www.inkscape.org/namespaces/inkscape"
   xmlns:sodipodi="http://sodipodi.sourceforge.net/DTD/sodipodi-0.dtd"
   xmlns="http://www.w3.org/2000/svg"
   xmlns:svg="http://www.w3.org/2000/svg"
   xmlns:rdf="http://www.w3.org/1999/02/22-rdf-syntax-ns#"
   xmlns:cc="http://creativecommons.org/ns#"
   xmlns:dc="http://purl.org/dc/elements/1.1/"><defs
     id="defs2"><linearGradient
       id="uuid-f0636bc7-c65b-4b70-b857-f875576c11d6"
       x1="37.5"
       y1="0"
       x2="37.5"
       y2="380"
       gradientUnits="userSpaceOnUse"><stop
         offset="0"
         stop-color="#ebebeb"
         id="stop2" /><stop
         offset="1"
         stop-color="#e1e1e1"
         id="stop4" /></linearGradient></defs><sodipodi:namedview
     id="base"
     pagecolor="#ffffff"
     bordercolor="#666666"
     borderopacity="1.0"
     inkscape:pageopacity="0.0"
     inkscape:pageshadow="2"
     inkscape:zoom="1.3419356"
     inkscape:cx="333.47353"
     inkscape:cy="247.40382"
     inkscape:document-units="px"
     inkscape:current-layer="layer1"
     showgrid="true"
     units="mm"
     inkscape:snap-bbox="true"
     inkscape:snap-page="true"
     inkscape:bbox-nodes="false"
     inkscape:snap-bbox-edge-midpoints="false"
     inkscape:window-width="1920"
     inkscape:window-height="1027"
     inkscape:window-x="-8"
     inkscape:window-y="22"
     inkscape:window-maximized="1"
     inkscape:snap-bbox-midpoints="true"
     inkscape:snap-nodes="false"
     inkscape:showpageshadow="2"
     inkscape:pagecheckerboard="0"
     inkscape:deskcolor="#d1d1d1"
     showguides="false"><inkscape:grid
       id="grid1"
       units="px"
       originx="7.5355286e-16"
       originy="0"
       spacingx="1"
       spacingy="1"
       empcolor="#3f3fff"
       empopacity="0.25098039"
       color="#3f3fff"
       opacity="0.1254902"
       empspacing="5"
       dotted="false"
       gridanglex="30"
       gridanglez="30"
       visible="true" /></sodipodi:namedview><metadata
     id="metadata5"><rdf:RDF><cc:Work
         rdf:about=""><dc:format>image/svg+xml</dc:format><dc:type
           rdf:resource="http://purl.org/dc/dcmitype/StillImage" /></cc:Work></rdf:RDF></metadata><g
     inkscape:label="Layer 1"
     inkscape:groupmode="layer"
     id="layer1"
     transform="translate(0,-168.49997)"
     style="display:inline"><path
       id="bg--background-fill"
       style="display:inline;opacity:1;vector-effect:none;fill:#1f1f1f;fill-rule:evenodd;stroke-width:4.95439"
       d="m 0,168.49997 h 600 v 380 H 0 Z" /><path
       style="font-weight:500;font-size:18px;line-height:1.25;font-family:Sono;-inkscape-font-specification:'Sono Medium';letter-spacing:0px;word-spacing:0px;fill:#bf9b30"
       d="m 43.022002,402.10988 q -0.648,0 -1.359,-0.351 -0.711,-0.342 -1.251,-0.9 -0.531,-0.549 -0.657,-1.17 -0.882,0 -1.746,-0.306 -0.864,-0.315 -1.575,-0.99 -0.702,-0.675 -1.125,-1.764 -0.423,-1.098 -0.423,-2.664 0,-1.566 0.423,-2.655 0.423,-1.098 1.125,-1.764 0.711,-0.675 1.575,-0.981 0.864,-0.315 1.755,-0.315 0.873,0 1.737,0.315 0.864,0.306 1.566,0.981 0.711,0.666 1.134,1.764 0.423,1.089 0.423,2.655 0,1.62 -0.459,2.736 -0.459,1.107 -1.206,1.764 -0.747,0.657 -1.62,0.927 0.135,0.342 0.432,0.594 0.297,0.252 0.657,0.405 0.369,0.162 0.684,0.234 0.369,0.081 0.558,0.261 0.198,0.18 0.198,0.522 0,0.342 -0.243,0.522 -0.243,0.18 -0.603,0.18 z m -6.102,-8.145 q 0,1.431 0.387,2.376 0.387,0.936 1.035,1.404 0.648,0.459 1.422,0.459 0.765,0 1.404,-0.459 0.639,-0.468 1.026,-1.404 0.387,-0.945 0.387,-2.376 0,-1.422 -0.387,-2.358 -0.387,-0.945 -1.026,-1.404 -0.639,-0.468 -1.404,-0.468 -0.774,0 -1.422,0.468 -0.648,0.459 -1.035,1.404 -0.387,0.936 -0.387,2.358 z m 14.102995,5.724 q -1.224,0 -2.232,-0.495 -1.008,-0.504 -1.611,-1.584 -0.594,-1.08 -0.594,-2.835 v -5.22 q 0,-1.197 0.999,-1.197 0.999,0 0.999,1.197 v 5.112 q 0,1.71 0.648,2.628 0.648,0.909 1.791,0.909 1.152,0 1.791,-0.909 0.639,-0.918 0.639,-2.628 v -5.112 q 0,-1.197 0.999,-1.197 0.999,0 0.999,1.197 v 5.22 q 0,1.755 -0.594,2.835 -0.594,1.08 -1.593,1.584 -0.999,0.495 -2.241,0.495 z m 14.273991,-10.602 q 0,0.747 -1.152,0.747 h -4.419 v 3.33 h 3.618 q 0.585,0 0.828,0.189 0.243,0.189 0.243,0.549 0,0.351 -0.243,0.549 -0.243,0.189 -0.828,0.189 h -3.618 v 3.384 h 4.419 q 1.152,0 1.152,0.738 0,0.738 -1.152,0.738 h -5.22 q -1.197,0 -1.197,-1.206 v -8.739 q 0,-1.197 1.197,-1.197 h 5.22 q 1.152,0 1.152,0.729 z m 6.543007,10.602 q -1.224,0 -2.232,-0.495 -1.008,-0.504 -1.611,-1.584 -0.594,-1.08 -0.594,-2.835 v -5.22 q 0,-1.197 0.999,-1.197 0.999,0 0.999,1.197 v 5.112 q 0,1.71 0.648,2.628 0.648,0.909 1.791,0.909 1.152,0 1.791,-0.909 0.639,-0.918 0.639,-2.628 v -5.112 q 0,-1.197 0.999,-1.197 0.999,0 0.999,1.197 v 5.22 q 0,1.755 -0.594,2.835 -0.594,1.08 -1.593,1.584 -0.999,0.495 -2.241,0.495 z m 14.27399,-10.602 q 0,0.747 -1.152,0.747 h -4.419 v 3.33 h 3.618 q 0.585,0 0.828,0.189 0.243,0.189 0.243,0.549 0,0.351 -0.243,0.549 -0.243,0.189 -0.828,0.189 h -3.618 v 3.384 h 4.419 q 1.152,0 1.152,0.738 0,0.738 -1.152,0.738 h -5.22 q -1.197,0 -1.197,-1.206 v -8.739 q 0,-1.197 1.197,-1.197 h 5.22 q 1.152,0 1.152,0.729 z"
       id="textQueue--text"
       aria-label="QUEUE" /><path
       style="font-weight:500;font-size:40px;line-height:1.25;font-family:Sono;-inkscape-font-specification:'Sono Medium';letter-spacing:0px;word-spacing:0px;fill:#bf9b30"
       d="m 79.019984,312.99996 q 0,-1.72 2.66,-1.72 h 9.64 q 2.66,0 2.66,1.72 0,1.7 -2.66,1.7 h -9.64 q -2.66,0 -2.66,-1.7 z m 7.5,7.5 q -1.72,0 -1.72,-2.68 v -9.62 q 0,-2.68 1.72,-2.68 1.72,0 1.72,2.68 v 9.62 q 0,2.68 -1.72,2.68 z"
       id="textPageUp--text"
       aria-label="+" /><path
       style="font-weight:500;font-size:40px;line-height:1.25;font-family:Sono;-inkscape-font-specification:'Sono Medium';letter-spacing:0px;word-spacing:0px;fill:#bf9b30"
       d="m 27.019991,312.99996 q 0,-0.82 0.58,-1.26 0.58,-0.46 1.88,-0.46 h 7.44 q 1.32,0 1.9,0.46 0.58,0.44 0.58,1.26 0,0.82 -0.58,1.26 -0.58,0.44 -1.9,0.44 h -7.44 q -1.3,0 -1.88,-0.44 -0.58,-0.44 -0.58,-1.26 z"
       id="textPageDown--text"
       aria-label="-" /><path
       style="font-weight:500;font-size:18px;line-height:1.25;font-family:Sono;-inkscape-font-specification:'Sono Medium';letter-spacing:0px;word-spacing:0px;fill:#bf9b30"
       d="m 43.480999,218.83397 v 4.149 h 1.656 q 0.36,0 0.756,-0.063 0.405,-0.072 0.756,-0.279 0.351,-0.216 0.576,-0.639 0.225,-0.423 0.225,-1.143 0,-0.711 -0.225,-1.116 -0.225,-0.414 -0.576,-0.603 -0.351,-0.198 -0.756,-0.252 -0.396,-0.054 -0.756,-0.054 z m 1.953,5.625 h -1.953 v 2.835 q 0,1.206 -0.99,1.206 -0.999,0 -0.999,-1.206 v -8.739 q 0,-1.197 1.197,-1.197 h 2.745 q 0.405,0 0.927,0.063 0.531,0.054 1.071,0.243 0.54,0.189 0.999,0.576 0.459,0.378 0.738,1.017 0.288,0.63 0.288,1.602 0,0.963 -0.288,1.62 -0.279,0.648 -0.738,1.044 -0.459,0.396 -0.999,0.603 -0.54,0.198 -1.071,0.27 -0.522,0.063 -0.927,0.063 z m 5.390989,4.212 q -0.396,0 -0.648,-0.225 -0.243,-0.225 -0.243,-0.648 0,-0.099 0.018,-0.216 0.018,-0.117 0.054,-0.243 l 3.078,-8.91 q 0.171,-0.513 0.513,-0.81 0.351,-0.306 0.828,-0.306 h 0.459 q 0.486,0 0.828,0.306 0.351,0.297 0.513,0.81 l 3.078,8.91 q 0.045,0.126 0.063,0.243 0.018,0.117 0.018,0.216 0,0.423 -0.252,0.648 -0.252,0.225 -0.657,0.225 -0.495,0 -0.729,-0.261 -0.234,-0.261 -0.387,-0.801 l -0.684,-1.989 h -4.041 l -0.684,1.989 q -0.144,0.54 -0.387,0.801 -0.234,0.261 -0.738,0.261 z m 2.223,-4.527 h 3.222 l -1.521,-4.59 q -0.027,-0.099 -0.054,-0.198 -0.027,-0.108 -0.045,-0.189 -0.009,0.081 -0.036,0.189 -0.018,0.099 -0.045,0.198 z m 12.473995,4.545 q -0.954,0 -1.836,-0.315 -0.882,-0.324 -1.584,-1.008 -0.702,-0.684 -1.116,-1.773 -0.405,-1.089 -0.405,-2.628 0,-1.548 0.432,-2.628 0.432,-1.089 1.161,-1.773 0.738,-0.684 1.647,-0.999 0.909,-0.315 1.863,-0.315 1.026,0 1.791,0.288 0.765,0.288 1.314,0.819 0.261,0.225 0.378,0.459 0.117,0.234 0.117,0.459 0,0.351 -0.27,0.576 -0.261,0.225 -0.585,0.225 -0.243,0 -0.477,-0.126 -0.234,-0.126 -0.414,-0.324 -0.297,-0.342 -0.738,-0.603 -0.441,-0.27 -1.107,-0.27 -0.774,0 -1.485,0.432 -0.711,0.423 -1.161,1.35 -0.45,0.927 -0.45,2.43 0,1.539 0.441,2.466 0.441,0.927 1.134,1.341 0.693,0.414 1.458,0.414 0.72,0 1.242,-0.324 0.522,-0.333 0.81,-0.99 0.297,-0.657 0.315,-1.647 h -1.764 q -0.45,0 -0.711,-0.162 -0.252,-0.171 -0.252,-0.54 0,-0.378 0.243,-0.54 0.252,-0.171 0.702,-0.171 h 2.646 q 0.585,0 0.846,0.288 0.261,0.279 0.261,0.819 0,1.602 -0.585,2.664 -0.585,1.053 -1.593,1.584 -1.008,0.522 -2.268,0.522 z m 13.986011,-10.602 q 0,0.747 -1.152,0.747 h -4.419 v 3.33 h 3.618 q 0.585,0 0.828,0.189 0.243,0.189 0.243,0.549 0,0.351 -0.243,0.549 -0.243,0.189 -0.828,0.189 h -3.618 v 3.384 h 4.419 q 1.152,0 1.152,0.738 0,0.738 -1.152,0.738 h -5.22 q -1.197,0 -1.197,-1.206 v -8.739 q 0,-1.197 1.197,-1.197 h 5.22 q 1.152,0 1.152,0.729 z"
       id="textPage--text"
       aria-label="PAGE" /><path
       id="header--hidden"
       style="display:inline;fill:#707070;stroke-width:2.5733;paint-order:stroke fill markers"
       d="m 0,168.49997 h 600 v 45 H 0 Z" /><path
       id="footer--hidden"
       style="display:inline;fill:#707070;stroke-width:2.26944;paint-order:stroke fill markers"
       d="m 0,513.5 h 600 v 35 H 0 Z" /><path
       style="font-weight:500;font-size:24px;line-height:1.25;font-family:Sono;-inkscape-font-specification:'Sono Medium';letter-spacing:0px;word-spacing:0px;fill:#bf9b30;stroke-width:0.781836"
       d="m 406.76259,198.47045 q -1.224,0 -2.424,-0.408 -1.2,-0.408 -2.184,-1.308 -0.984,-0.9 -1.572,-2.352 -0.588,-1.464 -0.588,-3.552 0,-2.088 0.588,-3.54 0.588,-1.464 1.572,-2.364 0.984,-0.9 2.184,-1.308 1.2,-0.408 2.424,-0.408 1.152,0 2.1,0.348 0.96,0.336 1.656,0.9 0.708,0.564 1.08,1.236 0.384,0.672 0.384,1.332 0,0.528 -0.336,0.84 -0.336,0.3 -0.792,0.3 -0.564,0 -0.804,-0.252 -0.228,-0.252 -0.384,-0.624 -0.132,-0.444 -0.468,-0.924 -0.336,-0.492 -0.924,-0.828 -0.588,-0.348 -1.5,-0.348 -1.02,0 -1.956,0.6 -0.924,0.588 -1.512,1.836 -0.588,1.236 -0.588,3.204 0,1.968 0.588,3.216 0.588,1.248 1.512,1.836 0.936,0.588 1.956,0.588 0.912,0 1.5,-0.336 0.588,-0.348 0.924,-0.828 0.336,-0.492 0.468,-0.936 0.156,-0.384 0.384,-0.636 0.24,-0.252 0.804,-0.252 0.456,0 0.792,0.324 0.336,0.312 0.336,0.828 0,0.66 -0.384,1.332 -0.384,0.672 -1.092,1.236 -0.696,0.564 -1.656,0.912 -0.948,0.336 -2.088,0.336 z m 13.93199,0.012 q -1.188,0 -2.34,-0.408 -1.152,-0.42 -2.1,-1.32 -0.936,-0.9 -1.5,-2.352 -0.564,-1.464 -0.564,-3.552 0,-2.088 0.564,-3.54 0.564,-1.464 1.5,-2.352 0.948,-0.9 2.1,-1.308 1.152,-0.42 2.34,-0.42 1.164,0 2.316,0.42 1.152,0.408 2.088,1.308 0.948,0.888 1.512,2.352 0.564,1.452 0.564,3.54 0,2.088 -0.564,3.552 -0.564,1.452 -1.512,2.352 -0.936,0.9 -2.088,1.32 -1.152,0.408 -2.316,0.408 z m 0,-1.98 q 1.02,0 1.872,-0.612 0.852,-0.624 1.368,-1.872 0.516,-1.26 0.516,-3.168 0,-1.896 -0.516,-3.144 -0.516,-1.26 -1.368,-1.872 -0.852,-0.624 -1.872,-0.624 -1.032,0 -1.896,0.624 -0.864,0.612 -1.38,1.872 -0.516,1.248 -0.516,3.144 0,1.908 0.516,3.168 0.516,1.248 1.38,1.872 0.864,0.612 1.896,0.612 z m 10.03199,1.836 q -1.2,0 -1.2,-1.572 v -11.856 q 0,-0.78 0.468,-1.188 0.48,-0.408 1.248,-0.408 h 0.06 q 0.684,0 1.164,0.348 0.492,0.348 0.828,0.996 l 5.064,9.588 v -9.36 q 0,-1.572 1.212,-1.572 0.564,0 0.888,0.396 0.324,0.396 0.324,1.176 v 11.856 q 0,0.768 -0.408,1.188 -0.396,0.408 -1.164,0.408 h -0.024 q -0.696,0 -1.152,-0.348 -0.444,-0.348 -0.792,-0.996 l -5.34,-9.924 v 9.696 q 0,1.572 -1.176,1.572 z m 17.37599,-14.964 q 0.756,0 1.692,0.156 0.936,0.156 1.884,0.6 0.948,0.432 1.752,1.26 0.804,0.828 1.284,2.148 0.492,1.32 0.492,3.264 0,1.932 -0.492,3.252 -0.48,1.32 -1.284,2.148 -0.804,0.828 -1.752,1.272 -0.948,0.432 -1.884,0.6 -0.936,0.156 -1.692,0.156 h -3 q -1.596,0 -1.596,-1.608 v -11.652 q 0,-1.596 1.596,-1.596 z m -0.036,12.888 q 0.876,0 1.668,-0.3 0.804,-0.3 1.428,-0.948 0.636,-0.648 0.996,-1.692 0.36,-1.044 0.36,-2.52 0,-1.488 -0.36,-2.532 -0.36,-1.044 -0.996,-1.692 -0.624,-0.648 -1.428,-0.936 -0.792,-0.3 -1.668,-0.3 h -1.908 v 10.92 z m 15.68399,2.22 q -1.632,0 -2.976,-0.66 -1.344,-0.672 -2.148,-2.112 -0.792,-1.44 -0.792,-3.78 v -6.96 q 0,-1.596 1.332,-1.596 1.332,0 1.332,1.596 v 6.816 q 0,2.28 0.864,3.504 0.864,1.212 2.388,1.212 1.536,0 2.388,-1.212 0.852,-1.224 0.852,-3.504 v -6.816 q 0,-1.596 1.332,-1.596 1.332,0 1.332,1.596 v 6.96 q 0,2.34 -0.792,3.78 -0.792,1.44 -2.124,2.112 -1.332,0.66 -2.988,0.66 z m 15.28798,-0.012 q -1.224,0 -2.424,-0.408 -1.2,-0.408 -2.184,-1.308 -0.984,-0.9 -1.572,-2.352 -0.588,-1.464 -0.588,-3.552 0,-2.088 0.588,-3.54 0.588,-1.464 1.572,-2.364 0.984,-0.9 2.184,-1.308 1.2,-0.408 2.424,-0.408 1.152,0 2.1,0.348 0.96,0.336 1.656,0.9 0.708,0.564 1.08,1.236 0.384,0.672 0.384,1.332 0,0.528 -0.336,0.84 -0.336,0.3 -0.792,0.3 -0.564,0 -0.804,-0.252 -0.228,-0.252 -0.384,-0.624 -0.132,-0.444 -0.468,-0.924 -0.336,-0.492 -0.924,-0.828 -0.588,-0.348 -1.5,-0.348 -1.02,0 -1.956,0.6 -0.924,0.588 -1.512,1.836 -0.588,1.236 -0.588,3.204 0,1.968 0.588,3.216 0.588,1.248 1.512,1.836 0.936,0.588 1.956,0.588 0.912,0 1.5,-0.336 0.588,-0.348 0.924,-0.828 0.336,-0.492 0.468,-0.936 0.156,-0.384 0.384,-0.636 0.24,-0.252 0.804,-0.252 0.456,0 0.792,0.324 0.336,0.312 0.336,0.828 0,0.66 -0.384,1.332 -0.384,0.672 -1.092,1.236 -0.696,0.564 -1.656,0.912 -0.948,0.336 -2.088,0.336 z m 17.41199,-15.096 q 1.488,0 1.488,0.972 0,0.48 -0.408,0.744 -0.396,0.252 -1.008,0.252 h -3.24 v 11.46 q 0,1.596 -1.332,1.596 -1.332,0 -1.332,-1.596 v -11.46 h -3.096 q -0.732,0 -1.14,-0.252 -0.396,-0.264 -0.396,-0.744 0,-0.468 0.396,-0.72 0.408,-0.252 1.14,-0.252 z m 9.70799,15.108 q -1.188,0 -2.34,-0.408 -1.152,-0.42 -2.1,-1.32 -0.936,-0.9 -1.5,-2.352 -0.564,-1.464 -0.564,-3.552 0,-2.088 0.564,-3.54 0.564,-1.464 1.5,-2.352 0.948,-0.9 2.1,-1.308 1.152,-0.42 2.34,-0.42 1.164,0 2.316,0.42 1.152,0.408 2.088,1.308 0.948,0.888 1.512,2.352 0.564,1.452 0.564,3.54 0,2.088 -0.564,3.552 -0.564,1.452 -1.512,2.352 -0.936,0.9 -2.088,1.32 -1.152,0.408 -2.316,0.408 z m 0,-1.98 q 1.02,0 1.872,-0.612 0.852,-0.624 1.368,-1.872 0.516,-1.26 0.516,-3.168 0,-1.896 -0.516,-3.144 -0.516,-1.26 -1.368,-1.872 -0.852,-0.624 -1.872,-0.624 -1.032,0 -1.896,0.624 -0.864,0.612 -1.38,1.872 -0.516,1.248 -0.516,3.144 0,1.908 0.516,3.168 0.516,1.248 1.38,1.872 0.864,0.612 1.896,0.612 z m 11.75999,-11.16 v 4.62 h 3.012 q 1.236,0 1.92,-0.612 0.696,-0.612 0.696,-1.764 0,-1.152 -0.72,-1.692 -0.708,-0.552 -1.98,-0.552 z m -2.664,11.46 v -11.832 q 0,-1.596 1.596,-1.596 h 4.428 q 0.828,0 1.692,0.168 0.864,0.156 1.596,0.6 0.744,0.444 1.2,1.248 0.456,0.792 0.456,2.076 0,1.608 -0.768,2.556 -0.768,0.936 -1.86,1.308 l 2.304,5.22 q 0.096,0.216 0.144,0.42 0.048,0.192 0.048,0.372 0,0.492 -0.324,0.78 -0.312,0.276 -0.9,0.276 -0.72,0 -1.032,-0.36 -0.312,-0.36 -0.576,-1.032 l -2.172,-5.076 h -3.168 v 4.872 q 0,1.596 -1.344,1.596 -1.32,0 -1.32,-1.596 z m 27.63602,1.68 q -1.272,0 -2.448,-0.42 -1.176,-0.432 -2.112,-1.344 -0.936,-0.912 -1.488,-2.364 -0.54,-1.452 -0.54,-3.504 0,-2.064 0.576,-3.504 0.576,-1.452 1.548,-2.364 0.984,-0.912 2.196,-1.332 1.212,-0.42 2.484,-0.42 1.368,0 2.388,0.384 1.02,0.384 1.752,1.092 0.348,0.3 0.504,0.612 0.156,0.312 0.156,0.612 0,0.468 -0.36,0.768 -0.348,0.3 -0.78,0.3 -0.324,0 -0.636,-0.168 -0.312,-0.168 -0.552,-0.432 -0.396,-0.456 -0.984,-0.804 -0.588,-0.36 -1.476,-0.36 -1.032,0 -1.98,0.576 -0.948,0.564 -1.548,1.8 -0.6,1.236 -0.6,3.24 0,2.052 0.588,3.288 0.588,1.236 1.512,1.788 0.924,0.552 1.944,0.552 0.96,0 1.656,-0.432 0.696,-0.444 1.08,-1.32 0.396,-0.876 0.42,-2.196 h -2.352 q -0.6,0 -0.948,-0.216 -0.336,-0.228 -0.336,-0.72 0,-0.504 0.324,-0.72 0.336,-0.228 0.936,-0.228 h 3.528 q 0.78,0 1.128,0.384 0.348,0.372 0.348,1.092 0,2.136 -0.78,3.552 -0.78,1.404 -2.124,2.112 -1.344,0.696 -3.024,0.696 z m 11.22001,-13.14 v 4.62 h 3.012 q 1.236,0 1.92,-0.612 0.696,-0.612 0.696,-1.764 0,-1.152 -0.72,-1.692 -0.708,-0.552 -1.98,-0.552 z m -2.664,11.46 v -11.832 q 0,-1.596 1.596,-1.596 h 4.428 q 0.828,0 1.692,0.168 0.864,0.156 1.596,0.6 0.744,0.444 1.2,1.248 0.456,0.792 0.456,2.076 0,1.608 -0.768,2.556 -0.768,0.936 -1.86,1.308 l 2.304,5.22 q 0.096,0.216 0.144,0.42 0.048,0.192 0.048,0.372 0,0.492 -0.324,0.78 -0.312,0.276 -0.9,0.276 -0.72,0 -1.032,-0.36 -0.312,-0.36 -0.576,-1.032 l -2.172,-5.076 h -3.168 v 4.872 q 0,1.596 -1.344,1.596 -1.32,0 -1.32,-1.596 z m 14.76,1.428 q -0.636,0 -0.984,-0.252 -0.348,-0.264 -0.348,-0.732 0,-0.48 0.348,-0.732 0.348,-0.252 0.984,-0.252 h 1.98 v -10.92 h -1.98 q -0.636,0 -0.984,-0.252 -0.348,-0.264 -0.348,-0.744 0,-0.468 0.348,-0.72 0.348,-0.252 0.984,-0.252 h 6.456 q 0.648,0 0.984,0.252 0.348,0.252 0.348,0.72 0,0.48 -0.348,0.744 -0.336,0.252 -0.984,0.252 h -1.92 v 10.92 h 1.92 q 0.648,0 0.984,0.252 0.348,0.252 0.348,0.732 0,0.468 -0.348,0.732 -0.336,0.252 -0.984,0.252 z m 15.13199,-14.856 q 0.756,0 1.692,0.156 0.936,0.156 1.884,0.6 0.948,0.432 1.752,1.26 0.804,0.828 1.284,2.148 0.492,1.32 0.492,3.264 0,1.932 -0.492,3.252 -0.48,1.32 -1.284,2.148 -0.804,0.828 -1.752,1.272 -0.948,0.432 -1.884,0.6 -0.936,0.156 -1.692,0.156 h -3 q -1.596,0 -1.596,-1.608 v -11.652 q 0,-1.596 1.596,-1.596 z m -0.036,12.888 q 0.876,0 1.668,-0.3 0.804,-0.3 1.428,-0.948 0.636,-0.648 0.996,-1.692 0.36,-1.044 0.36,-2.52 0,-1.488 -0.36,-2.532 -0.36,-1.044 -0.996,-1.692 -0.624,-0.648 -1.428,-0.936 -0.792,-0.3 -1.668,-0.3 h -1.908 v 10.92 z"
       id="moduleName--moduleName"
       transform="scale(0.99924857,1.000752)"
       aria-label="CONDUCTOR GRID" /></g><g
     id="Widgets"
     style="display:inline"
     inkscape:label="Widgets"
     transform="matrix(2.9527559,0,0,2.9573593,0,-0.02037044)"><path
       id="widget_QueueDisplay--hidden"
       style="display:inline;fill:#ffff00;stroke-width:11.6138;paint-order:stroke fill markers"
       d="M 2.7093329,81.498474 H 38.269334 V 101.78684 H 2.7093329 Z" /><path
       id="param_PageUp--hidden"
       style="display:inline;fill:#ff0000;stroke-width:0.580192"
       d="m 21.674665,54.109158 h 15.24 v 15.216277 h -15.24 z" /><path
       id="param_PageDown--hidden"
       style="display:inline;fill:#ff0000;stroke-width:0.580192"
       d="M 4.0640001,54.109158 H 19.304 V 69.325435 H 4.0640001 Z" /><path
       id="widget_PageDisplay--hidden"
       style="display:inline;fill:#ffff00;stroke-width:34.3194;paint-order:stroke fill markers"
       transform="matrix(0.33866667,0,0,0.3381395,0,-56.969608)"
       d="m 8,238.49997 h 105 v 60 H 8 Z" /><path
       id="param_Pad8--hidden"
       style="display:inline;fill:#ff0000;stroke-width:1.28932"
       d="m 164.59207,71.016182 h 33.86667 v 33.813948 h -33.86667 z" /><path
       id="param_Pad7--hidden"
       style="display:inline;fill:#ff0000;stroke-width:1.28932"
       d="m 123.95196,71.016182 h 33.86666 v 33.813948 h -33.86666 z" /><path
       id="param_Pad6--hidden"
       style="display:inline;fill:#ff0000;stroke-width:1.28932"
       d="M 83.311943,71.016182 H 117.17861 V 104.83013 H 83.311943 Z" /><path
       id="param_Pad5--hidden"
       style="display:inline;fill:#ff0000;stroke-width:1.28932"
       d="M 42.672001,71.016182 H 76.538666 V 104.83013 H 42.672001 Z" /><path
       id="param_Pad4--hidden"
       style="display:inline;fill:#ff0000;stroke-width:1.28932"
       d="m 164.59207,23.676659 h 33.86667 v 33.813949 h -33.86667 z" /><path
       id="param_Pad3--hidden"
       style="display:inline;fill:#ff0000;stroke-width:1.28932"
       d="m 123.95196,23.676657 h 33.86666 v 33.813949 h -33.86666 z" /><path
       id="param_Pad2--hidden"
       style="display:inline;fill:#ff0000;stroke-width:1.28932"
       d="M 83.311943,23.676657 H 117.17861 V 57.490606 H 83.311943 Z" /><path
       id="param_Pad1--hidden"
       style="display:inline;fill:#ff0000;stroke-width:1.28932"
       d="M 42.672001,23.676655 H 76.538666 V 57.490604 H 42.672001 Z" /><path
       id="widgetLogo--hidden"
       style="fill:#ffff00;stroke-width:3.65802;paint-order:stroke fill markers"
       d="m 97.366669,118.35571 h 8.466661 v 8.45349 h -8.466661 z" /></g></svg>
