<?xml version="1.0" encoding="UTF-8" standalone="no"?>
<!-- Created with Inkscape (http://www.inkscape.org/) -->

<svg
   width="90"
   height="380"
   viewBox="0 0 90.000002 380.00001"
   version="1.1"
   id="svg8"
   inkscape:version="1.4.2 (ebf0e94, 2025-05-08)"
   sodipodi:docname="Junction.svg"
   xml:space="preserve"
   xmlns:inkscape="http://www.inkscape.org/namespaces/inkscape"
   xmlns:sodipodi="http://sodipodi.sourceforge.net/DTD/sodipodi-0.dtd"
   xmlns="http://www.w3.org/2000/svg"
   xmlns:svg="http://www.w3.org/2000/svg"
   xmlns:rdf="http://www.w3.org/1999/02/22-rdf-syntax-ns#"
   xmlns:cc="http://creativecommons.org/ns#"
   xmlns:dc="http://purl.org/dc/elements/1.1/"><defs
     id="defs2"><linearGradient
       id="uuid-f0636bc7-c65b-4b70-b857-f875576c11d6"
       x1="37.5"
       y1="0"
       x2="37.5"
       y2="380"
       gradientUnits="userSpaceOnUse"><stop
         offset="0"
         stop-color="#ebebeb"
         id="stop2" /><stop
         offset="1"
         stop-color="#e1e1e1"
         id="stop4" /></linearGradient></defs><sodipodi:namedview
     id="base"
     pagecolor="#ffffff"
     bordercolor="#666666"
     borderopacity="1.0"
     inkscape:pageopacity="0.0"
     inkscape:pageshadow="2"
     inkscape:zoom="16"
     inkscape:cx="42.218749"
     inkscape:cy="304.99999"
     inkscape:document-units="px"
     inkscape:current-layer="layer1"
     showgrid="true"
     units="mm"
     inkscape:snap-bbox="true"
     inkscape:snap-page="true"
     inkscape:bbox-nodes="false"
     inkscape:snap-bbox-edge-midpoints="false"
     inkscape:window-width="1920"
     inkscape:window-height="1027"
     inkscape:window-x="-8"
     inkscape:window-y="22"
     inkscape:window-maximized="1"
     inkscape:snap-bbox-midpoints="true"
     inkscape:snap-nodes="false"
     inkscape:showpageshadow="2"
     inkscape:pagecheckerboard="0"
     inkscape:deskcolor="#d1d1d1"><inkscape:grid
       id="grid1"
       units="px"
       originx="1.3322677e-15"
       originy="0"
       spacingx="1"
       spacingy="1"
       empcolor="#3f3fff"
       empopacity="0.25098039"
       color="#3f3fff"
       opacity="0.1254902"
       empspacing="5"
       dotted="false"
       gridanglex="30"
       gridanglez="30"
       visible="true" /></sodipodi:namedview><metadata
     id="metadata5"><rdf:RDF><cc:Work
         rdf:about=""><dc:format>image/svg+xml</dc:format><dc:type
           rdf:resource="http://purl.org/dc/dcmitype/StillImage" /></cc:Work></rdf:RDF></metadata><g
     inkscape:label="Layer 1"
     inkscape:groupmode="layer"
     id="layer1"
     transform="translate(0,-168.49997)"
     style="display:inline"><path
       id="bg--background-fill"
       style="display:inline;opacity:1;vector-effect:none;fill:#1f1f1f;fill-rule:evenodd;stroke-width:1.91884"
       d="m 0,168.49997 h 90 v 380 H 0 Z" /><path
       id="footer--hidden"
       style="display:inline;fill:#707070;stroke-width:0.878945;paint-order:stroke fill markers"
       d="m 0,513.5 h 90 v 35 H 0 Z" /><path
       id="header--hidden"
       style="display:inline;fill:#707070;stroke-width:0.878945;paint-order:stroke fill markers"
       d="m 0,168.50002 h 90 v 35 H 0 Z" /><path
       id="outBlock--output-fill"
       style="display:inline;fill:#bf9b30;stroke-width:0.817548"
       d="m 12,471.5 h 66 c 2.216,0 4,1.784 4,4 v 34 c 0,2.216 -1.784,4 -4,4 H 12 c -2.216,0 -4,-1.784 -4,-4 v -34 c 0,-2.216 1.784,-4 4,-4 z" /><path
       style="font-weight:500;font-size:10px;line-height:1.25;font-family:Sono;-inkscape-font-specification:'Sono Medium';text-align:center;letter-spacing:0px;word-spacing:0px;text-anchor:middle;fill:#1f1f1f"
       d="m 64.937493,478.25003 q 0.09,0 0.31,0.06 0.225,0.06 0.47,0.225 0.25,0.16 0.425,0.46 0.175,0.295 0.175,0.77 0,0.58 -0.265,0.965 -0.26,0.385 -0.75,0.58 -0.485,0.19 -1.175,0.19 h -1.78 q -0.665,0 -0.665,-0.67 v -4.855 q 0,-0.665 0.665,-0.665 h 1.52 q 0.59,0 1.1,0.125 0.51,0.12 0.82,0.445 0.315,0.325 0.315,0.945 0,0.44 -0.15,0.72 -0.145,0.28 -0.35,0.435 -0.205,0.15 -0.395,0.21 -0.19,0.06 -0.27,0.06 z m -2.145,-2.12 v 1.815 h 1.105 q 0.32,0 0.57,-0.105 0.255,-0.105 0.395,-0.315 0.145,-0.21 0.145,-0.525 0,-0.365 -0.17,-0.55 -0.165,-0.185 -0.45,-0.25 -0.28,-0.07 -0.625,-0.07 z m 1.01,4.55 q 0.685,0 1.035,-0.245 0.35,-0.245 0.35,-0.77 0,-0.535 -0.365,-0.755 -0.365,-0.22 -0.88,-0.22 h -1.15 v 1.99 z"
       id="outB--text-output"
       aria-label="B" /><path
       style="font-weight:500;font-size:10px;line-height:1.25;font-family:Sono;-inkscape-font-specification:'Sono Medium';letter-spacing:0px;word-spacing:0px;fill:#1f1f1f"
       d="m 23.869993,481.59503 q -0.22,0 -0.36,-0.125 -0.135,-0.125 -0.135,-0.36 0,-0.055 0.01,-0.12 0.01,-0.065 0.03,-0.135 l 1.71,-4.95 q 0.095,-0.285 0.285,-0.45 0.195,-0.17 0.46,-0.17 h 0.255 q 0.27,0 0.46,0.17 0.195,0.165 0.285,0.45 l 1.71,4.95 q 0.025,0.07 0.035,0.135 0.01,0.065 0.01,0.12 0,0.235 -0.14,0.36 -0.14,0.125 -0.365,0.125 -0.275,0 -0.405,-0.145 -0.13,-0.145 -0.215,-0.445 l -0.38,-1.105 h -2.245 l -0.38,1.105 q -0.08,0.3 -0.215,0.445 -0.13,0.145 -0.41,0.145 z m 1.235,-2.515 h 1.79 l -0.845,-2.55 q -0.015,-0.055 -0.03,-0.11 -0.015,-0.06 -0.025,-0.105 -0.005,0.045 -0.02,0.105 -0.01,0.055 -0.025,0.11 z"
       id="outA--text-output"
       aria-label="A" /><path
       style="font-weight:500;font-size:16px;line-height:1.25;font-family:Sono;-inkscape-font-specification:'Sono Medium';letter-spacing:0px;word-spacing:0px;fill:#bf9b30;stroke-width:0.781836"
       d="m 16.151184,190.94425 q -0.832,0 -1.592,-0.32 -0.752,-0.328 -1.224,-1.064 -0.472,-0.744 -0.472,-1.976 0,-0.424 0.224,-0.688 0.224,-0.272 0.592,-0.272 0.44,0 0.648,0.256 0.216,0.248 0.32,0.736 0.04,0.752 0.248,1.192 0.208,0.44 0.536,0.632 0.336,0.184 0.752,0.184 0.448,0 0.792,-0.264 0.344,-0.272 0.544,-0.92 0.2,-0.648 0.2,-1.776 v -4.728 q 0,-1.064 0.88,-1.064 0.888,0 0.888,1.064 v 4.84 q 0,1.616 -0.464,2.528 -0.456,0.904 -1.216,1.272 -0.752,0.368 -1.656,0.368 z m 9.272008,0 q -1.088,0 -1.984,-0.44 -0.896,-0.448 -1.432,-1.408 -0.528,-0.96 -0.528,-2.52 v -4.64 q 0,-1.064 0.888,-1.064 0.888,0 0.888,1.064 v 4.544 q 0,1.52 0.576,2.336 0.576,0.808 1.592,0.808 1.024,0 1.592,-0.808 0.568,-0.816 0.568,-2.336 v -4.544 q 0,-1.064 0.888,-1.064 0.888,0 0.888,1.064 v 4.64 q 0,1.56 -0.528,2.52 -0.528,0.96 -1.416,1.408 -0.888,0.44 -1.992,0.44 z m 6.583992,-0.096 q -0.8,0 -0.8,-1.048 v -7.904 q 0,-0.52 0.312,-0.792 0.32,-0.272 0.832,-0.272 h 0.04 q 0.456,0 0.776,0.232 0.328,0.232 0.552,0.664 l 3.376,6.392 v -6.24 q 0,-1.048 0.808,-1.048 0.376,0 0.592,0.264 0.216,0.264 0.216,0.784 v 7.904 q 0,0.512 -0.272,0.792 -0.264,0.272 -0.776,0.272 h -0.016 q -0.464,0 -0.768,-0.232 -0.296,-0.232 -0.528,-0.664 l -3.56,-6.616 v 6.464 q 0,1.048 -0.784,1.048 z m 12.79199,0.088 q -0.816,0 -1.616,-0.272 -0.8,-0.272 -1.456,-0.872 -0.656,-0.6 -1.048,-1.568 -0.392,-0.976 -0.392,-2.368 0,-1.392 0.392,-2.36 0.392,-0.976 1.048,-1.576 0.656,-0.6 1.456,-0.872 0.8,-0.272 1.616,-0.272 0.768,0 1.4,0.232 0.64,0.224 1.104,0.6 0.472,0.376 0.72,0.824 0.256,0.448 0.256,0.888 0,0.352 -0.224,0.56 -0.224,0.2 -0.528,0.2 -0.376,0 -0.536,-0.168 -0.152,-0.168 -0.256,-0.416 -0.088,-0.296 -0.312,-0.616 -0.224,-0.328 -0.616,-0.552 -0.392,-0.232 -1,-0.232 -0.68,0 -1.304,0.4 -0.616,0.392 -1.008,1.224 -0.392,0.824 -0.392,2.136 0,1.312 0.392,2.144 0.392,0.832 1.008,1.224 0.624,0.392 1.304,0.392 0.608,0 1,-0.224 0.392,-0.232 0.616,-0.552 0.224,-0.328 0.312,-0.624 0.104,-0.256 0.256,-0.424 0.16,-0.168 0.536,-0.168 0.304,0 0.528,0.216 0.224,0.208 0.224,0.552 0,0.44 -0.256,0.888 -0.256,0.448 -0.728,0.824 -0.464,0.376 -1.104,0.608 -0.632,0.224 -1.392,0.224 z m 11.607989,-10.064 q 0.992,0 0.992,0.648 0,0.32 -0.272,0.496 -0.264,0.168 -0.672,0.168 h -2.16 v 7.64 q 0,1.064 -0.888,1.064 -0.888,0 -0.888,-1.064 v -7.64 h -2.064 q -0.488,0 -0.76,-0.168 -0.264,-0.176 -0.264,-0.496 0,-0.312 0.264,-0.48 0.272,-0.168 0.76,-0.168 z m 3.143993,9.904 q -0.424,0 -0.656,-0.168 -0.232,-0.176 -0.232,-0.488 0,-0.32 0.232,-0.488 0.232,-0.168 0.656,-0.168 h 1.32 v -7.28 h -1.32 q -0.424,0 -0.656,-0.168 -0.232,-0.176 -0.232,-0.496 0,-0.312 0.232,-0.48 0.232,-0.168 0.656,-0.168 h 4.304 q 0.432,0 0.656,0.168 0.232,0.168 0.232,0.48 0,0.32 -0.232,0.496 -0.224,0.168 -0.656,0.168 h -1.28 v 7.28 h 1.28 q 0.432,0 0.656,0.168 0.232,0.168 0.232,0.488 0,0.312 -0.232,0.488 -0.224,0.168 -0.656,0.168 z m 11.119992,0.168 q -0.792,0 -1.56,-0.272 -0.768,-0.28 -1.4,-0.88 -0.624,-0.6 -1,-1.568 -0.376,-0.976 -0.376,-2.368 0,-1.392 0.376,-2.36 0.376,-0.976 1,-1.568 0.632,-0.6 1.4,-0.872 0.768,-0.28 1.56,-0.28 0.776,0 1.544,0.28 0.768,0.272 1.392,0.872 0.632,0.592 1.008,1.568 0.376,0.968 0.376,2.36 0,1.392 -0.376,2.368 -0.376,0.968 -1.008,1.568 -0.624,0.6 -1.392,0.88 -0.768,0.272 -1.544,0.272 z m 0,-1.32 q 0.68,0 1.248,-0.408 0.568,-0.416 0.912,-1.248 0.344,-0.84 0.344,-2.112 0,-1.264 -0.344,-2.096 -0.344,-0.84 -0.912,-1.248 -0.568,-0.416 -1.248,-0.416 -0.688,0 -1.264,0.416 -0.576,0.408 -0.92,1.248 -0.344,0.832 -0.344,2.096 0,1.272 0.344,2.112 0.344,0.832 0.92,1.248 0.576,0.408 1.264,0.408 z m 6.687995,1.224 q -0.8,0 -0.8,-1.048 v -7.904 q 0,-0.52 0.312,-0.792 0.32,-0.272 0.832,-0.272 h 0.04 q 0.456,0 0.776,0.232 0.328,0.232 0.552,0.664 l 3.376,6.392 v -6.24 q 0,-1.048 0.808,-1.048 0.376,0 0.592,0.264 0.216,0.264 0.216,0.784 v 7.904 q 0,0.512 -0.272,0.792 -0.264,0.272 -0.776,0.272 h -0.016 q -0.464,0 -0.768,-0.232 -0.296,-0.232 -0.528,-0.664 l -3.56,-6.616 v 6.464 q 0,1.048 -0.784,1.048 z"
       id="moduleName--moduleName"
       transform="scale(0.99924857,1.000752)"
       aria-label="JUNCTION" /></g><g
     id="Widgets"
     style="display:inline"
     inkscape:label="Widgets"
     transform="matrix(2.9527559,0,0,2.9573593,0,-0.02037096)"><path
       id="param_SignalDest8--hidden"
       style="display:inline;vector-effect:none;fill:#ff0000;fill-rule:evenodd;stroke-width:1.01521"
       d="M 12.869339,97.052963 A 4.0640063,4.0576525 0 0 1 8.8053331,101.11062 4.0640063,4.0576525 0 0 1 4.7413268,97.052963 4.0640063,4.0576525 0 0 1 8.8053331,92.995311 4.0640063,4.0576525 0 0 1 12.869339,97.052963 Z" /><path
       id="param_SignalDest7--hidden"
       style="display:inline;vector-effect:none;fill:#ff0000;fill-rule:evenodd;stroke-width:1.01521"
       d="M 12.869339,85.555908 A 4.0640063,4.0576525 0 0 1 8.8053331,89.613561 4.0640063,4.0576525 0 0 1 4.7413268,85.555908 4.0640063,4.0576525 0 0 1 8.8053331,81.498256 4.0640063,4.0576525 0 0 1 12.869339,85.555908 Z" /><path
       id="param_SignalDest6--hidden"
       style="display:inline;vector-effect:none;fill:#ff0000;fill-rule:evenodd;stroke-width:1.01521"
       d="M 12.869339,74.059219 A 4.0640063,4.0576525 0 0 1 8.8053331,78.116872 4.0640063,4.0576525 0 0 1 4.7413268,74.059219 4.0640063,4.0576525 0 0 1 8.8053331,70.001567 4.0640063,4.0576525 0 0 1 12.869339,74.059219 Z" /><path
       id="param_SignalDest5--hidden"
       style="display:inline;vector-effect:none;fill:#ff0000;fill-rule:evenodd;stroke-width:1.01521"
       d="M 12.869339,62.562531 A 4.0640063,4.0576525 0 0 1 8.8053331,66.620183 4.0640063,4.0576525 0 0 1 4.7413268,62.562531 4.0640063,4.0576525 0 0 1 8.8053331,58.504878 4.0640063,4.0576525 0 0 1 12.869339,62.562531 Z" /><path
       id="param_SignalDest4--hidden"
       style="display:inline;vector-effect:none;fill:#ff0000;fill-rule:evenodd;stroke-width:1.01521"
       d="M 12.869339,51.065838 A 4.0640063,4.0576525 0 0 1 8.8053331,55.12349 4.0640063,4.0576525 0 0 1 4.7413268,51.065838 4.0640063,4.0576525 0 0 1 8.8053331,47.008185 4.0640063,4.0576525 0 0 1 12.869339,51.065838 Z" /><path
       id="param_SignalDest3--hidden"
       style="display:inline;vector-effect:none;fill:#ff0000;fill-rule:evenodd;stroke-width:1.01521"
       d="M 12.869339,39.569145 A 4.0640063,4.0576525 0 0 1 8.8053331,43.626798 4.0640063,4.0576525 0 0 1 4.7413268,39.569145 4.0640063,4.0576525 0 0 1 8.8053331,35.511493 4.0640063,4.0576525 0 0 1 12.869339,39.569145 Z" /><path
       id="param_SignalDest2--hidden"
       style="display:inline;vector-effect:none;fill:#ff0000;fill-rule:evenodd;stroke-width:1.01521"
       d="M 12.869339,28.07246 A 4.0640063,4.0576525 0 0 1 8.8053331,32.130113 4.0640063,4.0576525 0 0 1 4.7413268,28.07246 4.0640063,4.0576525 0 0 1 8.8053331,24.014808 4.0640063,4.0576525 0 0 1 12.869339,28.07246 Z" /><path
       id="param_SignalDest1--hidden"
       style="display:inline;vector-effect:none;fill:#ff0000;fill-rule:evenodd;stroke-width:1.01521"
       d="M 12.869339,16.575739 A 4.0640063,4.0576525 0 0 1 8.8053331,20.633391 4.0640063,4.0576525 0 0 1 4.7413268,16.575739 4.0640063,4.0576525 0 0 1 8.8053331,12.518086 4.0640063,4.0576525 0 0 1 12.869339,16.575739 Z" /><path
       id="input_Signal8--hidden"
       style="display:inline;vector-effect:none;fill:#00ff00;fill-rule:evenodd;stroke-width:1.01521"
       d="m 25.738672,97.052963 a 4.0640063,4.0576525 0 0 1 -4.064007,4.057657 4.0640063,4.0576525 0 0 1 -4.064006,-4.057657 4.0640063,4.0576525 0 0 1 4.064006,-4.057652 4.0640063,4.0576525 0 0 1 4.064007,4.057652 z" /><path
       id="input_Signal7--hidden"
       style="display:inline;vector-effect:none;fill:#00ff00;fill-rule:evenodd;stroke-width:1.01521"
       d="m 25.738672,85.555908 a 4.0640063,4.0576525 0 0 1 -4.064007,4.057653 4.0640063,4.0576525 0 0 1 -4.064006,-4.057653 4.0640063,4.0576525 0 0 1 4.064006,-4.057652 4.0640063,4.0576525 0 0 1 4.064007,4.057652 z" /><path
       id="input_Signal6--hidden"
       style="display:inline;vector-effect:none;fill:#00ff00;fill-rule:evenodd;stroke-width:1.01521"
       d="m 25.738672,74.059219 a 4.0640063,4.0576525 0 0 1 -4.064007,4.057653 4.0640063,4.0576525 0 0 1 -4.064006,-4.057653 4.0640063,4.0576525 0 0 1 4.064006,-4.057652 4.0640063,4.0576525 0 0 1 4.064007,4.057652 z" /><path
       id="input_Signal5--hidden"
       style="display:inline;vector-effect:none;fill:#00ff00;fill-rule:evenodd;stroke-width:1.01521"
       d="m 25.738672,62.562531 a 4.0640063,4.0576525 0 0 1 -4.064007,4.057652 4.0640063,4.0576525 0 0 1 -4.064006,-4.057652 4.0640063,4.0576525 0 0 1 4.064006,-4.057653 4.0640063,4.0576525 0 0 1 4.064007,4.057653 z" /><path
       id="input_Signal4--hidden"
       style="display:inline;vector-effect:none;fill:#00ff00;fill-rule:evenodd;stroke-width:1.01521"
       d="m 25.738672,51.065838 a 4.0640063,4.0576525 0 0 1 -4.064007,4.057652 4.0640063,4.0576525 0 0 1 -4.064006,-4.057652 4.0640063,4.0576525 0 0 1 4.064006,-4.057653 4.0640063,4.0576525 0 0 1 4.064007,4.057653 z" /><path
       id="input_Signal3--hidden"
       style="display:inline;vector-effect:none;fill:#00ff00;fill-rule:evenodd;stroke-width:1.01521"
       d="m 25.738672,39.569145 a 4.0640063,4.0576525 0 0 1 -4.064007,4.057653 4.0640063,4.0576525 0 0 1 -4.064006,-4.057653 4.0640063,4.0576525 0 0 1 4.064006,-4.057652 4.0640063,4.0576525 0 0 1 4.064007,4.057652 z" /><path
       id="input_Signal2--hidden"
       style="display:inline;vector-effect:none;fill:#00ff00;fill-rule:evenodd;stroke-width:1.01521"
       d="m 25.738672,28.07246 a 4.0640063,4.0576525 0 0 1 -4.064007,4.057653 4.0640063,4.0576525 0 0 1 -4.064006,-4.057653 4.0640063,4.0576525 0 0 1 4.064006,-4.057652 4.0640063,4.0576525 0 0 1 4.064007,4.057652 z" /><path
       id="input_Signal1--hidden"
       style="display:inline;vector-effect:none;fill:#00ff00;fill-rule:evenodd;stroke-width:1.01521"
       d="m 25.738672,16.575739 a 4.0640063,4.0576739 0 0 1 -4.064007,4.057674 4.0640063,4.0576739 0 0 1 -4.064006,-4.057674 4.0640063,4.0576739 0 0 1 4.064006,-4.057674 4.0640063,4.0576739 0 0 1 4.064007,4.057674 z" /><path
       id="output_B--hidden"
       style="display:inline;vector-effect:none;fill:#0000ff;fill-rule:evenodd;stroke-width:1.01521"
       d="m 25.738666,111.25481 a 4.0640001,4.0576739 0 0 1 -4.064001,4.05767 4.0640001,4.0576739 0 0 1 -4.064,-4.05767 4.0640001,4.0576739 0 0 1 4.064,-4.05768 4.0640001,4.0576739 0 0 1 4.064001,4.05768 z" /><path
       id="output_A--hidden"
       style="display:inline;vector-effect:none;fill:#0000ff;fill-rule:evenodd;stroke-width:1.01521"
       d="m 12.869333,111.25481 a 4.0640001,4.0576739 0 0 1 -4.0639999,4.05767 4.0640001,4.0576739 0 0 1 -4.0640001,-4.05767 4.0640001,4.0576739 0 0 1 4.0640001,-4.05768 4.0640001,4.0576739 0 0 1 4.0639999,4.05768 z" /><path
       id="widgetLogo--hidden"
       style="fill:#ffff00;stroke-width:3.65802;paint-order:stroke fill markers"
       d="m 11.006667,118.35572 h 8.466666 v 8.45349 h -8.466666 z" /></g></svg>
