<?xml version="1.0" encoding="UTF-8" standalone="no"?>
<!-- Created with Inkscape (http://www.inkscape.org/) -->

<svg
   width="30.48mm"
   height="128.5mm"
   viewBox="0 0 30.480002 128.50002"
   version="1.1"
   id="svg8"
   inkscape:version="1.4 (86a8ad7, 2024-10-11)"
   sodipodi:docname="Junction.svg"
   xml:space="preserve"
   xmlns:inkscape="http://www.inkscape.org/namespaces/inkscape"
   xmlns:sodipodi="http://sodipodi.sourceforge.net/DTD/sodipodi-0.dtd"
   xmlns="http://www.w3.org/2000/svg"
   xmlns:svg="http://www.w3.org/2000/svg"
   xmlns:rdf="http://www.w3.org/1999/02/22-rdf-syntax-ns#"
   xmlns:cc="http://creativecommons.org/ns#"
   xmlns:dc="http://purl.org/dc/elements/1.1/"><defs
     id="defs2"><linearGradient
       id="uuid-f0636bc7-c65b-4b70-b857-f875576c11d6"
       x1="37.5"
       y1="0"
       x2="37.5"
       y2="380"
       gradientUnits="userSpaceOnUse"><stop
         offset="0"
         stop-color="#ebebeb"
         id="stop2" /><stop
         offset="1"
         stop-color="#e1e1e1"
         id="stop4" /></linearGradient></defs><sodipodi:namedview
     id="base"
     pagecolor="#ffffff"
     bordercolor="#666666"
     borderopacity="1.0"
     inkscape:pageopacity="0.0"
     inkscape:pageshadow="2"
     inkscape:zoom="1.4142136"
     inkscape:cx="5.3033007"
     inkscape:cy="239.70919"
     inkscape:document-units="mm"
     inkscape:current-layer="layer1"
     showgrid="true"
     units="mm"
     inkscape:snap-bbox="true"
     inkscape:snap-page="true"
     inkscape:bbox-nodes="false"
     inkscape:snap-bbox-edge-midpoints="false"
     inkscape:window-width="1920"
     inkscape:window-height="1027"
     inkscape:window-x="-8"
     inkscape:window-y="22"
     inkscape:window-maximized="1"
     inkscape:snap-bbox-midpoints="true"
     inkscape:snap-nodes="false"
     inkscape:showpageshadow="2"
     inkscape:pagecheckerboard="0"
     inkscape:deskcolor="#d1d1d1"><inkscape:grid
       id="grid1"
       units="px"
       originx="0"
       originy="0"
       spacingx="0.26458336"
       spacingy="0.26458338"
       empcolor="#3f3fff"
       empopacity="0.25098039"
       color="#3f3fff"
       opacity="0.1254902"
       empspacing="5"
       dotted="false"
       gridanglex="30"
       gridanglez="30"
       visible="true" /></sodipodi:namedview><metadata
     id="metadata5"><rdf:RDF><cc:Work
         rdf:about=""><dc:format>image/svg+xml</dc:format><dc:type
           rdf:resource="http://purl.org/dc/dcmitype/StillImage" /></cc:Work></rdf:RDF></metadata><g
     inkscape:label="Layer 1"
     inkscape:groupmode="layer"
     id="layer1"
     transform="translate(0,-168.49998)"
     style="display:inline"><path
       id="bg--background-fill"
       style="display:inline;opacity:1;vector-effect:none;fill:#1f1f1f;fill-rule:evenodd;stroke-width:0.649358"
       d="m 0,168.49997 h 30.48 v 128.5 H 0 Z" /><path
       id="footer--hidden"
       style="display:inline;fill:#e15b5b;stroke-width:0.298333;paint-order:stroke fill markers"
       d="m 0,285.09372 h 30.48 v 11.90625 H 0 Z" /><path
       id="header--hidden"
       style="display:inline;fill:#e15b5b;stroke-width:0.298333;paint-order:stroke fill markers"
       d="m 0,168.49998 h 30.48 v 11.90625 H 0 Z" /><path
       style="font-size:4.93889px;line-height:1.25;font-family:Nunito;-inkscape-font-specification:Nunito;text-align:center;letter-spacing:0px;word-spacing:0px;text-anchor:middle;fill:#ffffff;stroke-width:0.265"
       d="m 4.9330992,176.27987 q 0.2532145,0 0.4581978,-0.0699 0.2073948,-0.0675 0.3617351,-0.20498 0.1567519,-0.13987 0.2435683,-0.36656 0.086816,-0.22669 0.086816,-0.52572 v -2.03054 q 0,-0.16158 -0.1036974,-0.26045 -0.1012858,-0.0989 -0.2411567,-0.0989 -0.1422825,0 -0.2459799,0.0989 -0.1012858,0.0989 -0.1012858,0.26045 v 1.97748 q 0,0.34245 -0.1205784,0.48232 -0.1205784,0.13987 -0.3882623,0.13987 -0.2025717,0 -0.5016061,-0.14228 -0.062701,-0.041 -0.1254015,-0.041 -0.1109321,0 -0.1856906,0.0965 -0.074759,0.0941 -0.074759,0.21704 0,0.17846 0.1519287,0.26528 0.1736329,0.10611 0.3424426,0.15434 0.1712213,0.0482 0.4437284,0.0482 z m 3.3279629,-0.0145 q 0.3038575,0 0.5618952,-0.0796 0.2604493,-0.0796 0.4581978,-0.23151 0.1977485,-0.15434 0.3086806,-0.39791 0.1133437,-0.24357 0.1133437,-0.55466 v -1.93167 q 0,-0.16157 -0.1036974,-0.26045 -0.1012859,-0.0989 -0.2411568,-0.0989 -0.1422824,0 -0.2459798,0.0989 -0.1012859,0.0989 -0.1012859,0.26045 v 1.91479 q 0,0.1881 -0.065112,0.3352 -0.062701,0.1447 -0.1712213,0.2291 -0.1085205,0.0844 -0.2387451,0.12782 -0.1302247,0.0434 -0.2749187,0.0434 -0.1446941,0 -0.2749187,-0.0434 -0.1278131,-0.0434 -0.233922,-0.12782 -0.106109,-0.0844 -0.1712213,-0.2291 -0.062701,-0.1471 -0.062701,-0.3352 v -1.91479 q 0,-0.16157 -0.1036974,-0.26045 -0.1012858,-0.0989 -0.2435683,-0.0989 -0.1422824,0 -0.2435683,0.0989 -0.1012858,0.0989 -0.1012858,0.26045 v 1.93167 q 0,0.31109 0.1109321,0.55707 0.1109321,0.24357 0.3086806,0.39791 0.1977485,0.15193 0.4533747,0.23151 0.2580377,0.0772 0.5618952,0.0772 z m 2.5345569,-0.0627 q 0.125402,0 0.219453,-0.0844 0.09405,-0.0844 0.09405,-0.21945 v -2.13665 l 1.574754,2.18006 q 0.07958,0.11334 0.20016,0.1881 0.120578,0.0724 0.224275,0.0724 0.163987,0 0.265273,-0.13023 0.101286,-0.13263 0.101286,-0.34003 v -2.70336 q 0,-0.13746 -0.09405,-0.22187 -0.09164,-0.0844 -0.214629,-0.0844 -0.125402,0 -0.219453,0.0868 -0.09164,0.0844 -0.09164,0.21946 v 2.13664 l -1.586812,-2.19693 q -0.07476,-0.11335 -0.192925,-0.17846 -0.115755,-0.0651 -0.224276,-0.0651 -0.15434,0 -0.260449,0.11334 -0.103697,0.11093 -0.103697,0.30386 v 2.75642 q 0,0.13746 0.09164,0.22186 0.09405,0.082 0.217041,0.082 z m 4.991945,0.0627 q 0.607715,0 1.029739,-0.28215 0.135048,-0.0941 0.135048,-0.24357 0,-0.10611 -0.06994,-0.18811 -0.06752,-0.082 -0.166398,-0.082 -0.05064,0 -0.101286,0.0265 -0.38585,0.2098 -0.718647,0.2098 -0.501606,0 -0.76929,-0.32556 -0.265272,-0.32797 -0.265272,-0.93086 0,-0.63424 0.265272,-0.94775 0.265273,-0.3135 0.754821,-0.3135 0.09405,0 0.180867,0.0121 0.08682,0.012 0.163987,0.0362 0.07717,0.0217 0.125402,0.041 0.05064,0.0169 0.118166,0.0482 0.06994,0.0313 0.08923,0.0386 0.05064,0.0193 0.09164,0.0193 0.10852,0 0.188102,-0.0868 0.07958,-0.0868 0.07958,-0.19775 0,-0.15916 -0.166398,-0.2508 -0.443729,-0.22187 -0.904338,-0.22187 -0.366558,0 -0.682474,0.13023 -0.313503,0.12781 -0.542602,0.36173 -0.229099,0.23393 -0.359324,0.58119 -0.130224,0.34727 -0.130224,0.76688 0,0.53778 0.214629,0.95016 0.217041,0.40996 0.590834,0.62942 0.376205,0.21945 0.848872,0.21945 z m 2.826357,-0.0603 q 0.142283,0 0.243568,-0.0989 0.103698,-0.10129 0.103698,-0.26287 v -2.57073 h 0.783759 q 0.120579,0 0.192926,-0.082 0.07235,-0.082 0.07235,-0.19293 0,-0.10852 -0.07476,-0.19051 -0.07235,-0.0844 -0.190514,-0.0844 h -2.26205 q -0.120578,0 -0.195337,0.0844 -0.07235,0.082 -0.07235,0.19293 0,0.11093 0.07235,0.19292 0.07235,0.0796 0.195337,0.0796 h 0.786171 v 2.57073 q 0,0.16158 0.101286,0.26287 0.103697,0.0989 0.243568,0.0989 z m 2.228289,-0.005 q 0.142283,0 0.24598,-0.0989 0.103697,-0.0989 0.103697,-0.26045 v -2.76124 q 0,-0.16158 -0.103697,-0.26045 -0.103697,-0.0989 -0.243568,-0.0989 -0.139871,0 -0.243569,0.0989 -0.101285,0.0989 -0.101285,0.26045 v 2.76124 q 0,0.16158 0.101285,0.26045 0.101286,0.0989 0.241157,0.0989 z m 2.722659,-0.47991 q -0.487136,0 -0.725882,-0.32797 -0.236333,-0.33038 -0.236333,-0.94533 0,-0.61013 0.238745,-0.94051 0.238745,-0.3328 0.72347,-0.3328 0.487137,0 0.72347,0.33038 0.238746,0.33039 0.238746,0.94293 0,0.61495 -0.238746,0.94533 -0.238745,0.32797 -0.72347,0.32797 z m 0,0.54502 q 0.812698,0 1.251604,-0.48473 0.438905,-0.48472 0.438905,-1.33359 0,-0.84888 -0.438905,-1.3336 -0.438906,-0.48714 -1.251604,-0.48714 -0.807875,0 -1.249192,0.48714 -0.441316,0.48472 -0.441316,1.3336 0,0.84887 0.441316,1.33359 0.441317,0.48473 1.249192,0.48473 z m 2.64549,-0.0627 q 0.125401,0 0.219452,-0.0844 0.09405,-0.0844 0.09405,-0.21945 v -2.13665 l 1.574753,2.18006 q 0.07958,0.11334 0.20016,0.1881 0.120579,0.0724 0.224276,0.0724 0.163987,0 0.265272,-0.13023 0.101286,-0.13263 0.101286,-0.34003 v -2.70336 q 0,-0.13746 -0.09405,-0.22187 -0.09164,-0.0844 -0.214629,-0.0844 -0.125402,0 -0.219453,0.0868 -0.09164,0.0844 -0.09164,0.21946 v 2.13664 l -1.586811,-2.19693 q -0.07476,-0.11335 -0.192925,-0.17846 -0.115756,-0.0651 -0.224276,-0.0651 -0.15434,0 -0.260449,0.11334 -0.103698,0.11093 -0.103698,0.30386 v 2.75642 q 0,0.13746 0.09164,0.22186 0.09405,0.082 0.217041,0.082 z"
       id="moduleName--moduleName"
       aria-label="JUNCTION" /><path
       id="outBlock--output-fill"
       style="display:inline;fill:#e6e6e6;stroke-width:0.264583"
       d="M 3.9687505,271.87299 H 26.458332 c 0.586317,0 1.058333,0.59001 1.058333,1.3229 v 10.58335 c 0,0.73289 -0.472016,1.3229 -1.058333,1.3229 H 3.9687505 c -0.586317,0 -1.0583339,-0.59001 -1.0583339,-1.3229 v -10.58335 c 0,-0.73289 0.4720169,-1.3229 1.0583339,-1.3229 z" /><path
       style="font-size:2.82222px;line-height:1.25;font-family:Nunito;-inkscape-font-specification:Nunito;letter-spacing:0px;word-spacing:0px;fill:#ffffff;stroke-width:0.264583"
       d="m 20.59475,274.84491 h 0.632519 q 0.172255,0 0.311436,-0.0455 0.14056,-0.0455 0.227377,-0.12126 0.08682,-0.0772 0.132291,-0.17088 0.04685,-0.0951 0.04685,-0.19844 0,-0.21221 -0.121267,-0.33899 -0.119889,-0.12678 -0.332107,-0.1571 v -0.006 q 0.181901,-0.0331 0.275608,-0.15434 0.09371,-0.12127 0.09371,-0.30455 0,-0.49058 -0.708311,-0.49058 H 20.59475 q -0.08682,0 -0.14745,0.0537 -0.05926,0.0537 -0.05926,0.14194 v 1.5627 q 0,0.11437 0.05512,0.17225 0.0565,0.0565 0.151584,0.0565 z m 0.184657,-0.29077 v -0.5898 h 0.265961 q 0.103353,0 0.173633,0.007 0.07028,0.006 0.135047,0.0234 0.06615,0.0179 0.103353,0.051 0.03858,0.0317 0.06063,0.0854 0.02205,0.0537 0.02205,0.13091 0,0.0923 -0.02618,0.15158 -0.02481,0.0579 -0.0813,0.0896 -0.0565,0.0303 -0.125402,0.0413 -0.0689,0.01 -0.177767,0.01 z m 0,-0.86127 v -0.5457 h 0.341753 q 0.07166,0 0.121267,0.006 0.04961,0.004 0.09784,0.0193 0.04823,0.0152 0.07717,0.0427 0.02894,0.0262 0.04547,0.0717 0.01791,0.0455 0.01791,0.11024 0,0.16537 -0.09095,0.23151 -0.09095,0.0648 -0.304546,0.0648 z"
       id="outRight--text-output"
       aria-label="B" /><path
       style="font-size:2.82222px;line-height:1.25;font-family:Nunito;-inkscape-font-specification:Nunito;letter-spacing:0px;word-spacing:0px;fill:#ffffff;stroke-width:0.264583"
       d="M 9.5963746,274.12144 H 8.9156242 l 0.3403752,-0.90813 z m 0.223242,0.59669 q 0.023427,0.0675 0.071658,0.10197 0.048231,0.0331 0.1074869,0.0331 0.074414,0 0.1322916,-0.0496 0.05788,-0.0496 0.05788,-0.1254 0,-0.0345 -0.01378,-0.0703 l -0.6049581,-1.51447 q -0.057878,-0.15296 -0.1336696,-0.20532 -0.074414,-0.0524 -0.1805229,-0.0524 -0.1061088,0 -0.1819009,0.0524 -0.074414,0.0524 -0.1322916,0.20532 l -0.6049583,1.51447 q -0.01378,0.0358 -0.01378,0.0703 0,0.0758 0.057878,0.1254 0.057878,0.0496 0.1322916,0.0496 0.059256,0 0.1074869,-0.0331 0.048231,-0.0345 0.071658,-0.10197 l 0.1240234,-0.33073 h 0.8791877 z"
       id="outLeft--text-output"
       aria-label="A" /></g><g
     id="Widgets"
     style="display:inline"
     inkscape:label="Widgets"
     transform="matrix(1,0,0,1.0000544,0,-0.00689912)"><path
       id="param_SignalDest8--hidden"
       style="display:inline;vector-effect:none;fill:#ff0000;fill-rule:evenodd"
       d="m 13.313,97.785118 a 4,4 0 0 1 -4.0000003,4.000002 4,4 0 0 1 -4,-4.000002 4,4 0 0 1 4,-4 4,4 0 0 1 4.0000003,4 z" /><path
       id="param_SignalDest7--hidden"
       style="display:inline;vector-effect:none;fill:#ff0000;fill-rule:evenodd"
       d="m 13.313,86.466835 a 4,4 0 0 1 -4.0000003,4 4,4 0 0 1 -4,-4 4,4 0 0 1 4,-4 4,4 0 0 1 4.0000003,4 z" /><path
       id="param_SignalDest6--hidden"
       style="display:inline;vector-effect:none;fill:#ff0000;fill-rule:evenodd"
       d="m 13.313,75.146454 a 4,4 0 0 1 -4.0000003,4 4,4 0 0 1 -4,-4 4,4 0 0 1 4,-4 4,4 0 0 1 4.0000003,4 z" /><path
       id="param_SignalDest5--hidden"
       style="display:inline;vector-effect:none;fill:#ff0000;fill-rule:evenodd"
       d="m 13.313,63.826069 a 4,4 0 0 1 -4.0000003,4 4,4 0 0 1 -4,-4 4,4 0 0 1 4,-4 4,4 0 0 1 4.0000003,4 z" /><path
       id="param_SignalDest4--hidden"
       style="display:inline;vector-effect:none;fill:#ff0000;fill-rule:evenodd"
       d="m 13.313,52.505688 a 4,4 0 0 1 -4.0000003,4 4,4 0 0 1 -4,-4 4,4 0 0 1 4,-4 4,4 0 0 1 4.0000003,4 z" /><path
       id="param_SignalDest3--hidden"
       style="display:inline;vector-effect:none;fill:#ff0000;fill-rule:evenodd"
       d="m 13.313,41.185303 a 4,4 0 0 1 -4.0000003,4 4,4 0 0 1 -4,-4 4,4 0 0 1 4,-4 4,4 0 0 1 4.0000003,4 z" /><path
       id="param_SignalDest2--hidden"
       style="display:inline;vector-effect:none;fill:#ff0000;fill-rule:evenodd"
       d="m 13.313,29.864914 a 4,4 0 0 1 -4.0000003,4 4,4 0 0 1 -4,-4 4,4 0 0 1 4,-4 4,4 0 0 1 4.0000003,4 z" /><path
       id="param_SignalDest1--hidden"
       style="display:inline;vector-effect:none;fill:#ff0000;fill-rule:evenodd"
       d="m 13.313,18.544107 a 4,4 0 0 1 -4.0000003,4 4,4 0 0 1 -4,-4 4,4 0 0 1 4,-4 4,4 0 0 1 4.0000003,4 z" /><path
       id="input_Signal8--hidden"
       style="display:inline;vector-effect:none;fill:#00ff00;fill-rule:evenodd"
       d="m 25.166636,97.785118 a 4,4 0 0 1 -4,4.000002 4,4 0 0 1 -4,-4.000002 4,4 0 0 1 4,-4 4,4 0 0 1 4,4 z" /><path
       id="input_Signal7--hidden"
       style="display:inline;vector-effect:none;fill:#00ff00;fill-rule:evenodd"
       d="m 25.166636,86.466835 a 4,4 0 0 1 -4,4 4,4 0 0 1 -4,-4 4,4 0 0 1 4,-4 4,4 0 0 1 4,4 z" /><path
       id="input_Signal6--hidden"
       style="display:inline;vector-effect:none;fill:#00ff00;fill-rule:evenodd"
       d="m 25.166636,75.146454 a 4,4 0 0 1 -4,4 4,4 0 0 1 -4,-4 4,4 0 0 1 4,-4 4,4 0 0 1 4,4 z" /><path
       id="input_Signal5--hidden"
       style="display:inline;vector-effect:none;fill:#00ff00;fill-rule:evenodd"
       d="m 25.166636,63.826065 a 4,4 0 0 1 -4,4 4,4 0 0 1 -4,-4 4,4 0 0 1 4,-4 4,4 0 0 1 4,4 z" /><path
       id="input_Signal4--hidden"
       style="display:inline;vector-effect:none;fill:#00ff00;fill-rule:evenodd"
       d="m 25.166636,52.505684 a 4,4 0 0 1 -4,4 4,4 0 0 1 -4,-4 4,4 0 0 1 4,-4 4,4 0 0 1 4,4 z" /><path
       id="input_Signal3--hidden"
       style="display:inline;vector-effect:none;fill:#00ff00;fill-rule:evenodd"
       d="m 25.166636,41.185299 a 4,4 0 0 1 -4,4 4,4 0 0 1 -4,-4 4,4 0 0 1 4,-4 4,4 0 0 1 4,4 z" /><path
       id="input_Signal2--hidden"
       style="display:inline;vector-effect:none;fill:#00ff00;fill-rule:evenodd"
       d="m 25.166636,29.864914 a 4,4 0 0 1 -4,4 4,4 0 0 1 -4,-4 4,4 0 0 1 4,-4 4,4 0 0 1 4,4 z" /><path
       id="input_Signal1--hidden"
       style="display:inline;vector-effect:none;fill:#00ff00;fill-rule:evenodd"
       d="m 25.166636,18.544107 a 4,4 0 0 1 -4,4 4,4 0 0 1 -4,-4 4,4 0 0 1 4,-4 4,4 0 0 1 4,4 z" /><path
       id="output_B--hidden"
       style="display:inline;vector-effect:none;fill:#0000ff;fill-rule:evenodd"
       d="m 25.166636,111.31683 a 4,4 0 0 1 -4,4 4,4 0 0 1 -4,-4 4,4 0 0 1 4,-4 4,4 0 0 1 4,4 z" /><path
       id="output_A--hidden"
       style="display:inline;vector-effect:none;fill:#0000ff;fill-rule:evenodd"
       d="m 13.256,111.30872 a 4,4 0 0 1 -4.0000004,4 4,4 0 0 1 -4,-4 4,4 0 0 1 4,-4 4,4 0 0 1 4.0000004,4 z" /><path
       id="widgetLogo--hidden"
       style="fill:#ffff00;stroke-width:3.76997;paint-order:stroke fill markers"
       d="m 10.8805,118.193 h 8.719 v 8.719 h -8.719 z" /></g></svg>
