<?xml version="1.0" encoding="UTF-8" standalone="no"?>
<!-- Created with Inkscape (http://www.inkscape.org/) -->

<svg
   width="105"
   height="379.99997"
   viewBox="0 0 105 379.99997"
   version="1.1"
   id="svg8"
   inkscape:version="1.4.2 (ebf0e94, 2025-05-08)"
   sodipodi:docname="Median.svg"
   xml:space="preserve"
   xmlns:inkscape="http://www.inkscape.org/namespaces/inkscape"
   xmlns:sodipodi="http://sodipodi.sourceforge.net/DTD/sodipodi-0.dtd"
   xmlns="http://www.w3.org/2000/svg"
   xmlns:svg="http://www.w3.org/2000/svg"
   xmlns:rdf="http://www.w3.org/1999/02/22-rdf-syntax-ns#"
   xmlns:cc="http://creativecommons.org/ns#"
   xmlns:dc="http://purl.org/dc/elements/1.1/"><defs
     id="defs2"><linearGradient
       id="uuid-f0636bc7-c65b-4b70-b857-f875576c11d6"
       x1="37.5"
       y1="0"
       x2="37.5"
       y2="380"
       gradientUnits="userSpaceOnUse"><stop
         offset="0"
         stop-color="#ebebeb"
         id="stop2" /><stop
         offset="1"
         stop-color="#e1e1e1"
         id="stop4" /></linearGradient></defs><sodipodi:namedview
     id="base"
     pagecolor="#ffffff"
     bordercolor="#666666"
     borderopacity="1.0"
     inkscape:pageopacity="0.0"
     inkscape:pageshadow="2"
     inkscape:zoom="4.0000001"
     inkscape:cx="48.874999"
     inkscape:cy="249.99999"
     inkscape:document-units="px"
     inkscape:current-layer="layer1"
     showgrid="true"
     units="mm"
     inkscape:snap-bbox="true"
     inkscape:snap-page="true"
     inkscape:bbox-nodes="false"
     inkscape:snap-bbox-edge-midpoints="false"
     inkscape:window-width="1920"
     inkscape:window-height="1027"
     inkscape:window-x="-8"
     inkscape:window-y="22"
     inkscape:window-maximized="1"
     inkscape:snap-bbox-midpoints="true"
     inkscape:snap-nodes="false"
     inkscape:showpageshadow="2"
     inkscape:pagecheckerboard="0"
     inkscape:deskcolor="#d1d1d1"
     showguides="true"><inkscape:grid
       id="grid1"
       units="px"
       originx="0"
       originy="0"
       spacingx="1"
       spacingy="1"
       empcolor="#3f3fff"
       empopacity="0.25098039"
       color="#3f3fff"
       opacity="0.1254902"
       empspacing="5"
       dotted="false"
       gridanglex="30"
       gridanglez="30"
       visible="true" /></sodipodi:namedview><metadata
     id="metadata5"><rdf:RDF><cc:Work
         rdf:about=""><dc:format>image/svg+xml</dc:format><dc:type
           rdf:resource="http://purl.org/dc/dcmitype/StillImage" /></cc:Work></rdf:RDF></metadata><g
     inkscape:label="Layer 1"
     inkscape:groupmode="layer"
     id="layer1"
     transform="translate(0,-168.49998)"
     style="display:inline"><path
       id="bg--background-fill"
       style="display:inline;opacity:1;vector-effect:none;fill:#1f1f1f;fill-rule:evenodd;stroke-width:2.07258"
       d="M 0,168.49998 H 105 V 548.49995 H 0 Z" /><path
       id="header--hidden"
       style="display:inline;fill:#707070;stroke-width:0.949365;paint-order:stroke fill markers"
       d="m 0,168.49998 h 105 v 35 H 0 Z" /><path
       id="footer--hidden"
       style="display:inline;fill:#707070;stroke-width:0.949365;paint-order:stroke fill markers"
       d="m 0,513.49994 h 105 v 35 H 0 Z" /><path
       id="outBlock--output-fill"
       style="display:inline;fill:#bf9b30;stroke-width:1.01853"
       d="m 63,379.49994 h 28 c 2.216,0 4,1.784 4,4 v 126 c 0,2.216 -1.784,4 -4,4 H 63 c -2.216,0 -4,-1.784 -4,-4 v -126 c 0,-2.216 1.784,-4 4,-4 z" /><path
       style="font-weight:500;font-size:10px;line-height:1.25;font-family:Sono;-inkscape-font-specification:'Sono Medium';letter-spacing:0px;word-spacing:0px;fill:#bf9b30"
       d="m 19.164997,479.75497 q -0.265,0 -0.41,-0.105 -0.145,-0.11 -0.145,-0.305 0,-0.2 0.145,-0.305 0.145,-0.105 0.41,-0.105 h 0.825 v -4.55 h -0.825 q -0.265,0 -0.41,-0.105 -0.145,-0.11 -0.145,-0.31 0,-0.195 0.145,-0.3 0.145,-0.105 0.41,-0.105 h 2.69 q 0.27,0 0.41,0.105 0.145,0.105 0.145,0.3 0,0.2 -0.145,0.31 -0.14,0.105 -0.41,0.105 h -0.8 v 4.55 h 0.8 q 0.27,0 0.41,0.105 0.145,0.105 0.145,0.305 0,0.195 -0.145,0.305 -0.14,0.105 -0.41,0.105 z m 4.804995,0.045 q -0.5,0 -0.5,-0.655 v -4.94 q 0,-0.325 0.195,-0.495 0.2,-0.17 0.52,-0.17 h 0.025 q 0.285,0 0.485,0.145 0.205,0.145 0.345,0.415 l 2.11,3.995 v -3.9 q 0,-0.655 0.505,-0.655 0.235,0 0.37,0.165 0.135,0.165 0.135,0.49 v 4.94 q 0,0.32 -0.17,0.495 -0.165,0.17 -0.485,0.17 h -0.01 q -0.29,0 -0.48,-0.145 -0.185,-0.145 -0.33,-0.415 l -2.225,-4.135 v 4.04 q 0,0.655 -0.49,0.655 z m 11.245002,0.055 q -0.51,0 -1.01,-0.17 -0.5,-0.17 -0.91,-0.545 -0.41,-0.375 -0.655,-0.98 -0.245,-0.61 -0.245,-1.48 0,-0.87 0.245,-1.475 0.245,-0.61 0.655,-0.985 0.41,-0.375 0.91,-0.545 0.5,-0.17 1.01,-0.17 0.48,0 0.875,0.145 0.4,0.14 0.69,0.375 0.295,0.235 0.45,0.515 0.16,0.28 0.16,0.555 0,0.22 -0.14,0.35 -0.14,0.125 -0.33,0.125 -0.235,0 -0.335,-0.105 -0.095,-0.105 -0.16,-0.26 -0.055,-0.185 -0.195,-0.385 -0.14,-0.205 -0.385,-0.345 -0.245,-0.145 -0.625,-0.145 -0.425,0 -0.815,0.25 -0.385,0.245 -0.63,0.765 -0.245,0.515 -0.245,1.335 0,0.82 0.245,1.34 0.245,0.52 0.63,0.765 0.39,0.245 0.815,0.245 0.38,0 0.625,-0.14 0.245,-0.145 0.385,-0.345 0.14,-0.205 0.195,-0.39 0.065,-0.16 0.16,-0.265 0.1,-0.105 0.335,-0.105 0.19,0 0.33,0.135 0.14,0.13 0.14,0.345 0,0.275 -0.16,0.555 -0.16,0.28 -0.455,0.515 -0.29,0.235 -0.69,0.38 -0.395,0.14 -0.87,0.14 z"
       id="textInC--text"
       aria-label="IN C" /><path
       style="font-weight:500;font-size:10px;line-height:1.25;font-family:Sono;-inkscape-font-specification:'Sono Medium';letter-spacing:0px;word-spacing:0px;fill:#bf9b30"
       d="m 19.269996,435.80997 q -0.265,0 -0.41,-0.105 -0.145,-0.11 -0.145,-0.305 0,-0.2 0.145,-0.305 0.145,-0.105 0.41,-0.105 h 0.825 v -4.55 h -0.825 q -0.265,0 -0.41,-0.105 -0.145,-0.11 -0.145,-0.31 0,-0.195 0.145,-0.3 0.145,-0.105 0.41,-0.105 h 2.69 q 0.27,0 0.41,0.105 0.145,0.105 0.145,0.3 0,0.2 -0.145,0.31 -0.14,0.105 -0.41,0.105 h -0.8 v 4.55 h 0.8 q 0.27,0 0.41,0.105 0.145,0.105 0.145,0.305 0,0.195 -0.145,0.305 -0.14,0.105 -0.41,0.105 z m 4.804996,0.045 q -0.5,0 -0.5,-0.655 v -4.94 q 0,-0.325 0.195,-0.495 0.2,-0.17 0.52,-0.17 h 0.025 q 0.285,0 0.485,0.145 0.205,0.145 0.345,0.415 l 2.11,3.995 v -3.9 q 0,-0.655 0.505,-0.655 0.235,0 0.37,0.165 0.135,0.165 0.135,0.49 v 4.94 q 0,0.32 -0.17,0.495 -0.165,0.17 -0.485,0.17 h -0.01 q -0.29,0 -0.48,-0.145 -0.185,-0.145 -0.33,-0.415 l -2.225,-4.135 v 4.04 q 0,0.655 -0.49,0.655 z m 11.830001,-3.295 q 0.09,0 0.31,0.06 0.225,0.06 0.47,0.225 0.25,0.16 0.425,0.46 0.175,0.295 0.175,0.77 0,0.58 -0.265,0.965 -0.26,0.385 -0.75,0.58 -0.485,0.19 -1.175,0.19 h -1.78 q -0.665,0 -0.665,-0.67 v -4.855 q 0,-0.665 0.665,-0.665 h 1.52 q 0.59,0 1.1,0.125 0.51,0.12 0.82,0.445 0.315,0.325 0.315,0.945 0,0.44 -0.15,0.72 -0.145,0.28 -0.35,0.435 -0.205,0.15 -0.395,0.21 -0.19,0.06 -0.27,0.06 z m -2.145,-2.12 v 1.815 h 1.105 q 0.32,0 0.57,-0.105 0.255,-0.105 0.395,-0.315 0.145,-0.21 0.145,-0.525 0,-0.365 -0.17,-0.55 -0.165,-0.185 -0.45,-0.25 -0.28,-0.07 -0.625,-0.07 z m 1.01,4.55 q 0.685,0 1.035,-0.245 0.35,-0.245 0.35,-0.77 0,-0.535 -0.365,-0.755 -0.365,-0.22 -0.88,-0.22 h -1.15 v 1.99 z"
       id="textInB--text"
       aria-label="IN B" /><path
       style="font-weight:500;font-size:10px;line-height:1.25;font-family:Sono;-inkscape-font-specification:'Sono Medium';letter-spacing:0px;word-spacing:0px;fill:#bf9b30"
       d="m 19.162008,391.75998 q -0.265,0 -0.41,-0.105 -0.145,-0.11 -0.145,-0.305 0,-0.2 0.145,-0.305 0.145,-0.105 0.41,-0.105 h 0.825 v -4.55 h -0.825 q -0.265,0 -0.41,-0.105 -0.145,-0.11 -0.145,-0.31 0,-0.195 0.145,-0.3 0.145,-0.105 0.41,-0.105 h 2.69 q 0.27,0 0.41,0.105 0.145,0.105 0.145,0.3 0,0.2 -0.145,0.31 -0.14,0.105 -0.41,0.105 h -0.8 v 4.55 h 0.8 q 0.27,0 0.41,0.105 0.145,0.105 0.145,0.305 0,0.195 -0.145,0.305 -0.14,0.105 -0.41,0.105 z m 4.804995,0.045 q -0.5,0 -0.5,-0.655 v -4.94 q 0,-0.325 0.195,-0.495 0.2,-0.17 0.52,-0.17 h 0.025 q 0.285,0 0.485,0.145 0.205,0.145 0.345,0.415 l 2.11,3.995 v -3.9 q 0,-0.655 0.505,-0.655 0.235,0 0.37,0.165 0.135,0.165 0.135,0.49 v 4.94 q 0,0.32 -0.17,0.495 -0.165,0.17 -0.485,0.17 h -0.01 q -0.29,0 -0.48,-0.145 -0.185,-0.145 -0.33,-0.415 l -2.225,-4.135 v 4.04 q 0,0.655 -0.49,0.655 z m 8.670002,0.05 q -0.22,0 -0.36,-0.125 -0.135,-0.125 -0.135,-0.36 0,-0.055 0.01,-0.12 0.01,-0.065 0.03,-0.135 l 1.71,-4.95 q 0.095,-0.285 0.285,-0.45 0.195,-0.17 0.46,-0.17 h 0.255 q 0.27,0 0.46,0.17 0.195,0.165 0.285,0.45 l 1.71,4.95 q 0.025,0.07 0.035,0.135 0.01,0.065 0.01,0.12 0,0.235 -0.14,0.36 -0.14,0.125 -0.365,0.125 -0.275,0 -0.405,-0.145 -0.13,-0.145 -0.215,-0.445 l -0.38,-1.105 h -2.245 l -0.38,1.105 q -0.08,0.3 -0.215,0.445 -0.13,0.145 -0.41,0.145 z m 1.235,-2.515 h 1.79 l -0.845,-2.55 q -0.015,-0.055 -0.03,-0.11 -0.015,-0.06 -0.025,-0.105 -0.005,0.045 -0.02,0.105 -0.01,0.055 -0.025,0.11 z"
       id="textInA--text"
       aria-label="IN A" /><path
       style="font-weight:500;font-size:10px;line-height:1.25;font-family:Sono;-inkscape-font-specification:'Sono Medium';letter-spacing:0px;word-spacing:0px;fill:#1f1f1f"
       d="m 69.387503,479.85499 q -0.245,0 -0.395,-0.145 -0.15,-0.15 -0.15,-0.425 0,-0.09 0,-0.375 0,-0.29 0,-0.705 0,-0.415 0,-0.89 0,-0.48 0,-0.96 0,-0.48 0,-0.9 0,-0.42 0,-0.715 0,-0.3 0,-0.405 0,-0.265 0.1,-0.445 0.1,-0.185 0.27,-0.275 0.175,-0.095 0.38,-0.095 h 0.035 q 0.305,0 0.515,0.195 0.215,0.195 0.34,0.49 l 1.2,2.76 1.205,-2.76 q 0.13,-0.295 0.34,-0.49 0.215,-0.195 0.52,-0.195 h 0.03 q 0.205,0 0.375,0.095 0.17,0.095 0.27,0.275 0.1,0.18 0.1,0.445 0,0.105 0,0.405 0,0.295 0,0.715 0,0.42 0,0.9 0,0.48 0,0.96 0,0.475 0,0.89 0,0.415 0,0.705 0,0.285 0,0.375 0,0.275 -0.135,0.425 -0.135,0.145 -0.38,0.145 -0.56,0 -0.56,-0.645 v -3.585 l -1.16,2.64 q -0.125,0.29 -0.24,0.44 -0.11,0.15 -0.365,0.15 -0.255,0 -0.365,-0.15 -0.11,-0.15 -0.24,-0.44 l -1.17,-2.675 v 3.62 q 0,0.32 -0.125,0.485 -0.125,0.16 -0.395,0.16 z m 6.774995,-0.05 q -0.265,0 -0.41,-0.105 -0.145,-0.11 -0.145,-0.305 0,-0.2 0.145,-0.305 0.145,-0.105 0.41,-0.105 h 0.825 v -4.55 h -0.825 q -0.265,0 -0.41,-0.105 -0.145,-0.11 -0.145,-0.31 0,-0.195 0.145,-0.3 0.145,-0.105 0.41,-0.105 h 2.69 q 0.27,0 0.41,0.105 0.145,0.105 0.145,0.3 0,0.2 -0.145,0.31 -0.14,0.105 -0.41,0.105 h -0.8 v 4.55 h 0.8 q 0.27,0 0.41,0.105 0.145,0.105 0.145,0.305 0,0.195 -0.145,0.305 -0.14,0.105 -0.41,0.105 z m 4.804995,0.045 q -0.5,0 -0.5,-0.655 v -4.94 q 0,-0.325 0.195,-0.495 0.2,-0.17 0.52,-0.17 h 0.025 q 0.285,0 0.485,0.145 0.205,0.145 0.345,0.415 l 2.11,3.995 v -3.9 q 0,-0.655 0.505,-0.655 0.235,0 0.37,0.165 0.135,0.165 0.135,0.49 v 4.94 q 0,0.32 -0.17,0.495 -0.165,0.17 -0.485,0.17 h -0.01 q -0.29,0 -0.48,-0.145 -0.185,-0.145 -0.33,-0.415 l -2.225,-4.135 v 4.04 q 0,0.655 -0.49,0.655 z"
       id="textMin--text-output"
       aria-label="MIN" /><path
       style="font-weight:500;font-size:10px;line-height:1.25;font-family:Sono;-inkscape-font-specification:'Sono Medium';letter-spacing:0px;word-spacing:0px;fill:#1f1f1f"
       d="m 69.252516,435.85499 q -0.245,0 -0.395,-0.145 -0.15,-0.15 -0.15,-0.425 0,-0.09 0,-0.375 0,-0.29 0,-0.705 0,-0.415 0,-0.89 0,-0.48 0,-0.96 0,-0.48 0,-0.9 0,-0.42 0,-0.715 0,-0.3 0,-0.405 0,-0.265 0.1,-0.445 0.1,-0.185 0.27,-0.275 0.175,-0.095 0.38,-0.095 h 0.035 q 0.305,0 0.515,0.195 0.215,0.195 0.34,0.49 l 1.2,2.76 1.205,-2.76 q 0.13,-0.295 0.34,-0.49 0.215,-0.195 0.52,-0.195 h 0.03 q 0.205,0 0.375,0.095 0.17,0.095 0.27,0.275 0.1,0.18 0.1,0.445 0,0.105 0,0.405 0,0.295 0,0.715 0,0.42 0,0.9 0,0.48 0,0.96 0,0.475 0,0.89 0,0.415 0,0.705 0,0.285 0,0.375 0,0.275 -0.135,0.425 -0.135,0.145 -0.38,0.145 -0.56,0 -0.56,-0.645 v -3.585 l -1.16,2.64 q -0.125,0.29 -0.24,0.44 -0.11,0.15 -0.365,0.15 -0.255,0 -0.365,-0.15 -0.11,-0.15 -0.24,-0.44 l -1.17,-2.675 v 3.62 q 0,0.32 -0.125,0.485 -0.125,0.16 -0.395,0.16 z m 6.774995,-0.05 q -0.265,0 -0.41,-0.105 -0.145,-0.11 -0.145,-0.305 0,-0.2 0.145,-0.305 0.145,-0.105 0.41,-0.105 h 0.825 v -4.55 h -0.825 q -0.265,0 -0.41,-0.105 -0.145,-0.11 -0.145,-0.31 0,-0.195 0.145,-0.3 0.145,-0.105 0.41,-0.105 h 2.69 q 0.27,0 0.41,0.105 0.145,0.105 0.145,0.3 0,0.2 -0.145,0.31 -0.14,0.105 -0.41,0.105 h -0.8 v 4.55 h 0.8 q 0.27,0 0.41,0.105 0.145,0.105 0.145,0.305 0,0.195 -0.145,0.305 -0.14,0.105 -0.41,0.105 z m 6.304996,-6.19 q 0.315,0 0.705,0.065 0.39,0.065 0.785,0.25 0.395,0.18 0.73,0.525 0.335,0.345 0.535,0.895 0.205,0.55 0.205,1.36 0,0.805 -0.205,1.355 -0.2,0.55 -0.535,0.895 -0.335,0.345 -0.73,0.53 -0.395,0.18 -0.785,0.25 -0.39,0.065 -0.705,0.065 h -1.25 q -0.665,0 -0.665,-0.67 v -4.855 q 0,-0.665 0.665,-0.665 z m -0.015,5.37 q 0.365,0 0.695,-0.125 0.335,-0.125 0.595,-0.395 0.265,-0.27 0.415,-0.705 0.15,-0.435 0.15,-1.05 0,-0.62 -0.15,-1.055 -0.15,-0.435 -0.415,-0.705 -0.26,-0.27 -0.595,-0.39 -0.33,-0.125 -0.695,-0.125 h -0.795 v 4.55 z"
       id="textMid--text-output"
       aria-label="MID" /><path
       style="font-weight:500;font-size:10px;line-height:1.25;font-family:Sono;-inkscape-font-specification:'Sono Medium';letter-spacing:0px;word-spacing:0px;fill:#1f1f1f"
       d="m 69.207511,391.80998 q -0.245,0 -0.395,-0.145 -0.15,-0.15 -0.15,-0.425 0,-0.09 0,-0.375 0,-0.29 0,-0.705 0,-0.415 0,-0.89 0,-0.48 0,-0.96 0,-0.48 0,-0.9 0,-0.42 0,-0.715 0,-0.3 0,-0.405 0,-0.265 0.1,-0.445 0.1,-0.185 0.27,-0.275 0.175,-0.095 0.38,-0.095 h 0.035 q 0.305,0 0.515,0.195 0.215,0.195 0.34,0.49 l 1.2,2.76 1.205,-2.76 q 0.13,-0.295 0.34,-0.49 0.215,-0.195 0.52,-0.195 h 0.03 q 0.205,0 0.375,0.095 0.17,0.095 0.27,0.275 0.1,0.18 0.1,0.445 0,0.105 0,0.405 0,0.295 0,0.715 0,0.42 0,0.9 0,0.48 0,0.96 0,0.475 0,0.89 0,0.415 0,0.705 0,0.285 0,0.375 0,0.275 -0.135,0.425 -0.135,0.145 -0.38,0.145 -0.56,0 -0.56,-0.645 v -3.585 l -1.16,2.64 q -0.125,0.29 -0.24,0.44 -0.11,0.15 -0.365,0.15 -0.255,0 -0.365,-0.15 -0.11,-0.15 -0.24,-0.44 l -1.17,-2.675 v 3.62 q 0,0.32 -0.125,0.485 -0.125,0.16 -0.395,0.16 z m 6.389995,0.045 q -0.22,0 -0.36,-0.125 -0.135,-0.125 -0.135,-0.36 0,-0.055 0.01,-0.12 0.01,-0.065 0.03,-0.135 l 1.71,-4.95 q 0.095,-0.285 0.285,-0.45 0.195,-0.17 0.46,-0.17 h 0.255 q 0.27,0 0.46,0.17 0.195,0.165 0.285,0.45 l 1.71,4.95 q 0.025,0.07 0.035,0.135 0.01,0.065 0.01,0.12 0,0.235 -0.14,0.36 -0.14,0.125 -0.365,0.125 -0.275,0 -0.405,-0.145 -0.13,-0.145 -0.215,-0.445 l -0.38,-1.105 h -2.245 l -0.38,1.105 q -0.08,0.3 -0.215,0.445 -0.13,0.145 -0.41,0.145 z m 1.235,-2.515 h 1.79 l -0.845,-2.55 q -0.015,-0.055 -0.03,-0.11 -0.015,-0.06 -0.025,-0.105 -0.005,0.045 -0.02,0.105 -0.01,0.055 -0.025,0.11 z m 4.574997,2.515 q -0.235,0 -0.37,-0.12 -0.13,-0.125 -0.13,-0.305 0,-0.09 0.03,-0.18 0.035,-0.09 0.115,-0.205 l 1.48,-2.31 -1.56,-2.465 q -0.06,-0.09 -0.08,-0.17 -0.02,-0.08 -0.02,-0.16 0,-0.205 0.15,-0.315 0.155,-0.115 0.365,-0.115 0.155,0 0.255,0.05 0.1,0.05 0.185,0.165 0.09,0.11 0.2,0.3 l 1.08,1.845 1.07,-1.845 q 0.16,-0.29 0.3,-0.4 0.14,-0.11 0.37,-0.11 0.21,0 0.35,0.105 0.14,0.1 0.14,0.32 0,0.165 -0.11,0.33 l -1.55,2.425 1.47,2.35 q 0.085,0.125 0.115,0.22 0.035,0.095 0.035,0.18 0,0.185 -0.145,0.3 -0.14,0.11 -0.37,0.11 -0.23,0 -0.355,-0.12 -0.125,-0.125 -0.265,-0.365 l -1.065,-1.8 -1.07,1.8 q -0.14,0.24 -0.265,0.365 -0.125,0.12 -0.355,0.12 z"
       id="textMax--text-output"
       aria-label="MAX" /><path
       style="font-weight:500;font-size:10px;line-height:1.25;font-family:Sono;-inkscape-font-specification:'Sono Medium';letter-spacing:0px;word-spacing:0px;fill:#bf9b30"
       d="m 58.824995,297.85497 q -0.495,0 -0.975,-0.17 -0.48,-0.175 -0.875,-0.55 -0.39,-0.375 -0.625,-0.98 -0.235,-0.61 -0.235,-1.48 0,-0.87 0.235,-1.475 0.235,-0.61 0.625,-0.98 0.395,-0.375 0.875,-0.545 0.48,-0.175 0.975,-0.175 0.485,0 0.965,0.175 0.48,0.17 0.87,0.545 0.395,0.37 0.63,0.98 0.235,0.605 0.235,1.475 0,0.87 -0.235,1.48 -0.235,0.605 -0.63,0.98 -0.39,0.375 -0.87,0.55 -0.48,0.17 -0.965,0.17 z m 0,-0.825 q 0.425,0 0.78,-0.255 0.355,-0.26 0.57,-0.78 0.215,-0.525 0.215,-1.32 0,-0.79 -0.215,-1.31 -0.215,-0.525 -0.57,-0.78 -0.355,-0.26 -0.78,-0.26 -0.43,0 -0.79,0.26 -0.36,0.255 -0.575,0.78 -0.215,0.52 -0.215,1.31 0,0.795 0.215,1.32 0.215,0.52 0.575,0.78 0.36,0.255 0.79,0.255 z m 7.859997,-5.065 q 0,0.2 -0.165,0.31 -0.165,0.105 -0.455,0.105 h -2.34 v 2.295 h 1.935 q 0.575,0 0.575,0.415 0,0.405 -0.575,0.405 h -1.935 v 1.66 q 0,0.665 -0.555,0.665 -0.555,0 -0.555,-0.665 v -4.93 q 0,-0.665 0.665,-0.665 h 2.785 q 0.29,0 0.455,0.105 0.165,0.1 0.165,0.3 z m 5.184994,0 q 0,0.2 -0.165,0.31 -0.165,0.105 -0.455,0.105 h -2.34 v 2.295 h 1.935 q 0.575,0 0.575,0.415 0,0.405 -0.575,0.405 h -1.935 v 1.66 q 0,0.665 -0.555,0.665 -0.555,0 -0.555,-0.665 v -4.93 q 0,-0.665 0.665,-0.665 h 2.785 q 0.29,0 0.455,0.105 0.165,0.1 0.165,0.3 z m 3.494993,5.89 q -0.75,0 -1.31,-0.21 -0.555,-0.21 -0.89,-0.545 -0.315,-0.25 -0.315,-0.585 0,-0.165 0.12,-0.305 0.12,-0.145 0.345,-0.145 0.2,0 0.34,0.095 0.145,0.09 0.27,0.22 0.23,0.27 0.58,0.46 0.35,0.19 0.88,0.19 0.36,0 0.665,-0.11 0.31,-0.11 0.495,-0.315 0.19,-0.205 0.19,-0.49 0,-0.425 -0.395,-0.655 -0.39,-0.235 -1.155,-0.425 -1.13,-0.28 -1.655,-0.74 -0.52,-0.465 -0.52,-1.18 0,-0.505 0.32,-0.865 0.325,-0.365 0.87,-0.555 0.55,-0.195 1.22,-0.195 0.595,0 1.105,0.185 0.515,0.18 0.835,0.51 0.14,0.11 0.22,0.25 0.085,0.135 0.085,0.3 0,0.2 -0.13,0.32 -0.125,0.115 -0.32,0.115 -0.195,0 -0.34,-0.105 -0.145,-0.105 -0.245,-0.215 -0.17,-0.23 -0.49,-0.38 -0.32,-0.155 -0.765,-0.155 -0.335,0 -0.615,0.095 -0.28,0.095 -0.45,0.27 -0.165,0.17 -0.165,0.41 0,0.37 0.36,0.605 0.36,0.23 1.105,0.43 0.71,0.185 1.215,0.43 0.505,0.245 0.775,0.6 0.27,0.355 0.27,0.885 0,0.56 -0.33,0.965 -0.33,0.405 -0.9,0.625 -0.565,0.215 -1.275,0.215 z m 7.785007,-5.89 q 0,0.415 -0.64,0.415 h -2.455 v 1.85 h 2.01 q 0.325,0 0.46,0.105 0.135,0.105 0.135,0.305 0,0.195 -0.135,0.305 -0.135,0.105 -0.46,0.105 h -2.01 v 1.88 h 2.455 q 0.64,0 0.64,0.41 0,0.41 -0.64,0.41 h -2.9 q -0.665,0 -0.665,-0.67 v -4.855 q 0,-0.665 0.665,-0.665 h 2.9 q 0.64,0 0.64,0.405 z m 5.155004,-0.405 q 0.62,0 0.62,0.405 0,0.2 -0.17,0.31 -0.165,0.105 -0.42,0.105 h -1.35 v 4.775 q 0,0.665 -0.555,0.665 -0.555,0 -0.555,-0.665 v -4.775 h -1.29 q -0.305,0 -0.475,-0.105 -0.165,-0.11 -0.165,-0.31 0,-0.195 0.165,-0.3 0.17,-0.105 0.475,-0.105 z m 7.405003,6.29 q -0.51,0 -1.01,-0.17 -0.5,-0.17 -0.91,-0.545 -0.41,-0.375 -0.655,-0.98 -0.245,-0.61 -0.245,-1.48 0,-0.87 0.245,-1.475 0.245,-0.61 0.655,-0.985 0.41,-0.375 0.91,-0.545 0.5,-0.17 1.01,-0.17 0.48,0 0.875,0.145 0.4,0.14 0.69,0.375 0.295,0.235 0.45,0.515 0.16,0.28 0.16,0.555 0,0.22 -0.14,0.35 -0.14,0.125 -0.33,0.125 -0.235,0 -0.335,-0.105 -0.095,-0.105 -0.16,-0.26 -0.055,-0.185 -0.195,-0.385 -0.14,-0.205 -0.385,-0.345 -0.245,-0.145 -0.625,-0.145 -0.425,0 -0.815,0.25 -0.385,0.245 -0.63,0.765 -0.245,0.515 -0.245,1.335 0,0.82 0.245,1.34 0.245,0.52 0.63,0.765 0.39,0.245 0.815,0.245 0.38,0 0.625,-0.14 0.245,-0.145 0.385,-0.345 0.14,-0.205 0.195,-0.39 0.065,-0.16 0.16,-0.265 0.1,-0.105 0.335,-0.105 0.19,0 0.33,0.135 0.14,0.13 0.14,0.345 0,0.275 -0.16,0.555 -0.16,0.28 -0.455,0.515 -0.29,0.235 -0.69,0.38 -0.395,0.14 -0.87,0.14 z"
       id="textOffsetC--text"
       aria-label="OFFSET C" /><path
       style="font-weight:500;font-size:10px;line-height:1.25;font-family:Sono;-inkscape-font-specification:'Sono Medium';letter-spacing:0px;word-spacing:0px;fill:#bf9b30"
       d="m 12.622495,297.85497 q -0.75,0 -1.31,-0.21 -0.555,-0.21 -0.89,-0.545 -0.315,-0.25 -0.315,-0.585 0,-0.165 0.12,-0.305 0.12,-0.145 0.345,-0.145 0.2,0 0.34,0.095 0.145,0.09 0.27,0.22 0.23,0.27 0.58,0.46 0.35,0.19 0.88,0.19 0.36,0 0.665,-0.11 0.31,-0.11 0.495,-0.315 0.19,-0.205 0.19,-0.49 0,-0.425 -0.395,-0.655 -0.39,-0.235 -1.155,-0.425 -1.13,-0.28 -1.655,-0.74 -0.52,-0.465 -0.52,-1.18 0,-0.505 0.32,-0.865 0.325,-0.365 0.87,-0.555 0.55,-0.195 1.22,-0.195 0.595,0 1.105,0.185 0.515,0.18 0.835,0.51 0.14,0.11 0.22,0.25 0.085,0.135 0.085,0.3 0,0.2 -0.13,0.32 -0.125,0.115 -0.32,0.115 -0.195,0 -0.34,-0.105 -0.145,-0.105 -0.245,-0.215 -0.17,-0.23 -0.49,-0.38 -0.32,-0.155 -0.765,-0.155 -0.335,0 -0.615,0.095 -0.28,0.095 -0.45,0.27 -0.165,0.17 -0.165,0.41 0,0.37 0.36,0.605 0.36,0.23 1.105,0.43 0.71,0.185 1.215,0.43 0.505,0.245 0.775,0.6 0.27,0.355 0.27,0.885 0,0.56 -0.33,0.965 -0.33,0.405 -0.9,0.625 -0.565,0.215 -1.275,0.215 z m 6.225007,-0.005 q -0.51,0 -1.01,-0.17 -0.5,-0.17 -0.91,-0.545 -0.41,-0.375 -0.655,-0.98 -0.245,-0.61 -0.245,-1.48 0,-0.87 0.245,-1.475 0.245,-0.61 0.655,-0.985 0.41,-0.375 0.91,-0.545 0.5,-0.17 1.01,-0.17 0.48,0 0.875,0.145 0.4,0.14 0.69,0.375 0.295,0.235 0.45,0.515 0.16,0.28 0.16,0.555 0,0.22 -0.14,0.35 -0.14,0.125 -0.33,0.125 -0.235,0 -0.335,-0.105 -0.095,-0.105 -0.16,-0.26 -0.055,-0.185 -0.195,-0.385 -0.14,-0.205 -0.385,-0.345 -0.245,-0.145 -0.625,-0.145 -0.425,0 -0.815,0.25 -0.385,0.245 -0.63,0.765 -0.245,0.515 -0.245,1.335 0,0.82 0.245,1.34 0.245,0.52 0.63,0.765 0.39,0.245 0.815,0.245 0.38,0 0.625,-0.14 0.245,-0.145 0.385,-0.345 0.14,-0.205 0.195,-0.39 0.065,-0.16 0.16,-0.265 0.1,-0.105 0.335,-0.105 0.19,0 0.33,0.135 0.14,0.13 0.14,0.345 0,0.275 -0.16,0.555 -0.16,0.28 -0.455,0.515 -0.29,0.235 -0.69,0.38 -0.395,0.14 -0.87,0.14 z m 3.339993,-0.005 q -0.22,0 -0.36,-0.125 -0.135,-0.125 -0.135,-0.36 0,-0.055 0.01,-0.12 0.01,-0.065 0.03,-0.135 l 1.71,-4.95 q 0.095,-0.285 0.285,-0.45 0.195,-0.17 0.46,-0.17 h 0.255 q 0.27,0 0.46,0.17 0.195,0.165 0.285,0.45 l 1.71,4.95 q 0.025,0.07 0.035,0.135 0.01,0.065 0.01,0.12 0,0.235 -0.14,0.36 -0.14,0.125 -0.365,0.125 -0.275,0 -0.405,-0.145 -0.13,-0.145 -0.215,-0.445 l -0.38,-1.105 h -2.245 l -0.38,1.105 q -0.08,0.3 -0.215,0.445 -0.13,0.145 -0.41,0.145 z m 1.235,-2.515 h 1.79 l -0.845,-2.55 q -0.015,-0.055 -0.03,-0.11 -0.015,-0.06 -0.025,-0.105 -0.005,0.045 -0.02,0.105 -0.01,0.055 -0.025,0.11 z m 5.369997,1.6 h 2.17 q 0.285,0 0.45,0.11 0.165,0.105 0.165,0.3 0,0.195 -0.165,0.305 -0.165,0.105 -0.45,0.105 h -2.615 q -0.665,0 -0.665,-0.67 v -4.9 q 0,-0.67 0.555,-0.67 0.555,0 0.555,0.67 z m 7.859994,-4.965 q 0,0.415 -0.64,0.415 h -2.455 v 1.85 h 2.01 q 0.325,0 0.46,0.105 0.135,0.105 0.135,0.305 0,0.195 -0.135,0.305 -0.135,0.105 -0.46,0.105 h -2.01 v 1.88 h 2.455 q 0.64,0 0.64,0.41 0,0.41 -0.64,0.41 h -2.9 q -0.665,0 -0.665,-0.67 v -4.855 q 0,-0.665 0.665,-0.665 h 2.9 q 0.64,0 0.64,0.405 z m 7.065011,5.885 q -0.51,0 -1.01,-0.17 -0.5,-0.17 -0.91,-0.545 -0.41,-0.375 -0.655,-0.98 -0.245,-0.61 -0.245,-1.48 0,-0.87 0.245,-1.475 0.245,-0.61 0.655,-0.985 0.41,-0.375 0.91,-0.545 0.5,-0.17 1.01,-0.17 0.48,0 0.875,0.145 0.4,0.14 0.69,0.375 0.295,0.235 0.45,0.515 0.16,0.28 0.16,0.555 0,0.22 -0.14,0.35 -0.14,0.125 -0.33,0.125 -0.235,0 -0.335,-0.105 -0.095,-0.105 -0.16,-0.26 -0.055,-0.185 -0.195,-0.385 -0.14,-0.205 -0.385,-0.345 -0.245,-0.145 -0.625,-0.145 -0.425,0 -0.815,0.25 -0.385,0.245 -0.63,0.765 -0.245,0.515 -0.245,1.335 0,0.82 0.245,1.34 0.245,0.52 0.63,0.765 0.39,0.245 0.815,0.245 0.38,0 0.625,-0.14 0.245,-0.145 0.385,-0.345 0.14,-0.205 0.195,-0.39 0.065,-0.16 0.16,-0.265 0.1,-0.105 0.335,-0.105 0.19,0 0.33,0.135 0.14,0.13 0.14,0.345 0,0.275 -0.16,0.555 -0.16,0.28 -0.455,0.515 -0.29,0.235 -0.69,0.38 -0.395,0.14 -0.87,0.14 z"
       id="textScaleC--text"
       aria-label="SCALE C" /><path
       style="font-weight:500;font-size:10px;line-height:1.25;font-family:Sono;-inkscape-font-specification:'Sono Medium';letter-spacing:0px;word-spacing:0px;fill:#bf9b30"
       d="m 58.929995,253.85498 q -0.495,0 -0.975,-0.17 -0.48,-0.175 -0.875,-0.55 -0.39,-0.375 -0.625,-0.98 -0.235,-0.61 -0.235,-1.48 0,-0.87 0.235,-1.475 0.235,-0.61 0.625,-0.98 0.395,-0.375 0.875,-0.545 0.48,-0.175 0.975,-0.175 0.485,0 0.965,0.175 0.48,0.17 0.87,0.545 0.395,0.37 0.63,0.98 0.235,0.605 0.235,1.475 0,0.87 -0.235,1.48 -0.235,0.605 -0.63,0.98 -0.39,0.375 -0.87,0.55 -0.48,0.17 -0.965,0.17 z m 0,-0.825 q 0.425,0 0.78,-0.255 0.355,-0.26 0.57,-0.78 0.215,-0.525 0.215,-1.32 0,-0.79 -0.215,-1.31 -0.215,-0.525 -0.57,-0.78 -0.355,-0.26 -0.78,-0.26 -0.43,0 -0.79,0.26 -0.36,0.255 -0.575,0.78 -0.215,0.52 -0.215,1.31 0,0.795 0.215,1.32 0.215,0.52 0.575,0.78 0.36,0.255 0.79,0.255 z m 7.859996,-5.065 q 0,0.2 -0.165,0.31 -0.165,0.105 -0.455,0.105 h -2.34 v 2.295 h 1.935 q 0.575,0 0.575,0.415 0,0.405 -0.575,0.405 h -1.935 v 1.66 q 0,0.665 -0.555,0.665 -0.555,0 -0.555,-0.665 v -4.93 q 0,-0.665 0.665,-0.665 h 2.785 q 0.29,0 0.455,0.105 0.165,0.1 0.165,0.3 z m 5.184994,0 q 0,0.2 -0.165,0.31 -0.165,0.105 -0.455,0.105 h -2.34 v 2.295 h 1.935 q 0.575,0 0.575,0.415 0,0.405 -0.575,0.405 h -1.935 v 1.66 q 0,0.665 -0.555,0.665 -0.555,0 -0.555,-0.665 v -4.93 q 0,-0.665 0.665,-0.665 h 2.785 q 0.29,0 0.455,0.105 0.165,0.1 0.165,0.3 z m 3.494994,5.89 q -0.75,0 -1.31,-0.21 -0.555,-0.21 -0.89,-0.545 -0.315,-0.25 -0.315,-0.585 0,-0.165 0.12,-0.305 0.12,-0.145 0.345,-0.145 0.2,0 0.34,0.095 0.145,0.09 0.27,0.22 0.23,0.27 0.58,0.46 0.35,0.19 0.88,0.19 0.36,0 0.665,-0.11 0.31,-0.11 0.495,-0.315 0.19,-0.205 0.19,-0.49 0,-0.425 -0.395,-0.655 -0.39,-0.235 -1.155,-0.425 -1.13,-0.28 -1.655,-0.74 -0.52,-0.465 -0.52,-1.18 0,-0.505 0.32,-0.865 0.325,-0.365 0.87,-0.555 0.55,-0.195 1.22,-0.195 0.595,0 1.105,0.185 0.515,0.18 0.835,0.51 0.14,0.11 0.22,0.25 0.085,0.135 0.085,0.3 0,0.2 -0.13,0.32 -0.125,0.115 -0.32,0.115 -0.195,0 -0.34,-0.105 -0.145,-0.105 -0.245,-0.215 -0.17,-0.23 -0.49,-0.38 -0.32,-0.155 -0.765,-0.155 -0.335,0 -0.615,0.095 -0.28,0.095 -0.45,0.27 -0.165,0.17 -0.165,0.41 0,0.37 0.36,0.605 0.36,0.23 1.105,0.43 0.71,0.185 1.215,0.43 0.505,0.245 0.775,0.6 0.27,0.355 0.27,0.885 0,0.56 -0.33,0.965 -0.33,0.405 -0.9,0.625 -0.565,0.215 -1.275,0.215 z m 7.785007,-5.89 q 0,0.415 -0.64,0.415 h -2.455 v 1.85 h 2.01 q 0.325,0 0.46,0.105 0.135,0.105 0.135,0.305 0,0.195 -0.135,0.305 -0.135,0.105 -0.46,0.105 h -2.01 v 1.88 h 2.455 q 0.64,0 0.64,0.41 0,0.41 -0.64,0.41 h -2.9 q -0.665,0 -0.665,-0.67 v -4.855 q 0,-0.665 0.665,-0.665 h 2.9 q 0.64,0 0.64,0.405 z m 5.155003,-0.405 q 0.62,0 0.62,0.405 0,0.2 -0.17,0.31 -0.165,0.105 -0.42,0.105 h -1.35 v 4.775 q 0,0.665 -0.555,0.665 -0.555,0 -0.555,-0.665 v -4.775 h -1.29 q -0.305,0 -0.475,-0.105 -0.165,-0.11 -0.165,-0.31 0,-0.195 0.165,-0.3 0.17,-0.105 0.475,-0.105 z m 7.990003,2.94 q 0.09,0 0.31,0.06 0.225,0.06 0.47,0.225 0.25,0.16 0.425,0.46 0.175,0.295 0.175,0.77 0,0.58 -0.265,0.965 -0.26,0.385 -0.75,0.58 -0.485,0.19 -1.175,0.19 h -1.78 q -0.665,0 -0.665,-0.67 v -4.855 q 0,-0.665 0.665,-0.665 h 1.52 q 0.59,0 1.1,0.125 0.51,0.12 0.82,0.445 0.315,0.325 0.315,0.945 0,0.44 -0.15,0.72 -0.145,0.28 -0.35,0.435 -0.205,0.15 -0.395,0.21 -0.19,0.06 -0.27,0.06 z m -2.145,-2.12 v 1.815 h 1.105 q 0.32,0 0.57,-0.105 0.255,-0.105 0.395,-0.315 0.145,-0.21 0.145,-0.525 0,-0.365 -0.17,-0.55 -0.165,-0.185 -0.45,-0.25 -0.28,-0.07 -0.625,-0.07 z m 1.01,4.55 q 0.685,0 1.035,-0.245 0.35,-0.245 0.35,-0.77 0,-0.535 -0.365,-0.755 -0.365,-0.22 -0.88,-0.22 h -1.15 v 1.99 z"
       id="textOffsetB--text"
       aria-label="OFFSET B" /><path
       style="font-weight:500;font-size:10px;line-height:1.25;font-family:Sono;-inkscape-font-specification:'Sono Medium';letter-spacing:0px;word-spacing:0px;fill:#bf9b30"
       d="m 12.727495,253.85498 q -0.75,0 -1.31,-0.21 -0.555,-0.21 -0.89,-0.545 -0.315,-0.25 -0.315,-0.585 0,-0.165 0.12,-0.305 0.12,-0.145 0.345,-0.145 0.2,0 0.34,0.095 0.145,0.09 0.27,0.22 0.23,0.27 0.58,0.46 0.35,0.19 0.88,0.19 0.36,0 0.665,-0.11 0.31,-0.11 0.495,-0.315 0.19,-0.205 0.19,-0.49 0,-0.425 -0.395,-0.655 -0.39,-0.235 -1.155,-0.425 -1.13,-0.28 -1.655,-0.74 -0.52,-0.465 -0.52,-1.18 0,-0.505 0.32,-0.865 0.325,-0.365 0.87,-0.555 0.55,-0.195 1.22,-0.195 0.595,0 1.105,0.185 0.515,0.18 0.835,0.51 0.14,0.11 0.22,0.25 0.085,0.135 0.085,0.3 0,0.2 -0.13,0.32 -0.125,0.115 -0.32,0.115 -0.195,0 -0.34,-0.105 -0.145,-0.105 -0.245,-0.215 -0.17,-0.23 -0.49,-0.38 -0.32,-0.155 -0.765,-0.155 -0.335,0 -0.615,0.095 -0.28,0.095 -0.45,0.27 -0.165,0.17 -0.165,0.41 0,0.37 0.36,0.605 0.36,0.23 1.105,0.43 0.71,0.185 1.215,0.43 0.505,0.245 0.775,0.6 0.27,0.355 0.27,0.885 0,0.56 -0.33,0.965 -0.33,0.405 -0.9,0.625 -0.565,0.215 -1.275,0.215 z m 6.225007,-0.005 q -0.51,0 -1.01,-0.17 -0.5,-0.17 -0.91,-0.545 -0.41,-0.375 -0.655,-0.98 -0.245,-0.61 -0.245,-1.48 0,-0.87 0.245,-1.475 0.245,-0.61 0.655,-0.985 0.41,-0.375 0.91,-0.545 0.5,-0.17 1.01,-0.17 0.48,0 0.875,0.145 0.4,0.14 0.69,0.375 0.295,0.235 0.45,0.515 0.16,0.28 0.16,0.555 0,0.22 -0.14,0.35 -0.14,0.125 -0.33,0.125 -0.235,0 -0.335,-0.105 -0.095,-0.105 -0.16,-0.26 -0.055,-0.185 -0.195,-0.385 -0.14,-0.205 -0.385,-0.345 -0.245,-0.145 -0.625,-0.145 -0.425,0 -0.815,0.25 -0.385,0.245 -0.63,0.765 -0.245,0.515 -0.245,1.335 0,0.82 0.245,1.34 0.245,0.52 0.63,0.765 0.39,0.245 0.815,0.245 0.38,0 0.625,-0.14 0.245,-0.145 0.385,-0.345 0.14,-0.205 0.195,-0.39 0.065,-0.16 0.16,-0.265 0.1,-0.105 0.335,-0.105 0.19,0 0.33,0.135 0.14,0.13 0.14,0.345 0,0.275 -0.16,0.555 -0.16,0.28 -0.455,0.515 -0.29,0.235 -0.69,0.38 -0.395,0.14 -0.87,0.14 z m 3.339993,-0.005 q -0.22,0 -0.36,-0.125 -0.135,-0.125 -0.135,-0.36 0,-0.055 0.01,-0.12 0.01,-0.065 0.03,-0.135 l 1.71,-4.95 q 0.095,-0.285 0.285,-0.45 0.195,-0.17 0.46,-0.17 h 0.255 q 0.27,0 0.46,0.17 0.195,0.165 0.285,0.45 l 1.71,4.95 q 0.025,0.07 0.035,0.135 0.01,0.065 0.01,0.12 0,0.235 -0.14,0.36 -0.14,0.125 -0.365,0.125 -0.275,0 -0.405,-0.145 -0.13,-0.145 -0.215,-0.445 l -0.38,-1.105 h -2.245 l -0.38,1.105 q -0.08,0.3 -0.215,0.445 -0.13,0.145 -0.41,0.145 z m 1.235,-2.515 h 1.79 l -0.845,-2.55 q -0.015,-0.055 -0.03,-0.11 -0.015,-0.06 -0.025,-0.105 -0.005,0.045 -0.02,0.105 -0.01,0.055 -0.025,0.11 z m 5.369997,1.6 h 2.17 q 0.285,0 0.45,0.11 0.165,0.105 0.165,0.3 0,0.195 -0.165,0.305 -0.165,0.105 -0.45,0.105 h -2.615 q -0.665,0 -0.665,-0.67 v -4.9 q 0,-0.67 0.555,-0.67 0.555,0 0.555,0.67 z m 7.859993,-4.965 q 0,0.415 -0.64,0.415 h -2.455 v 1.85 h 2.01 q 0.325,0 0.46,0.105 0.135,0.105 0.135,0.305 0,0.195 -0.135,0.305 -0.135,0.105 -0.46,0.105 h -2.01 v 1.88 h 2.455 q 0.64,0 0.64,0.41 0,0.41 -0.64,0.41 h -2.9 q -0.665,0 -0.665,-0.67 v -4.855 q 0,-0.665 0.665,-0.665 h 2.9 q 0.64,0 0.64,0.405 z m 7.650012,2.535 q 0.09,0 0.31,0.06 0.225,0.06 0.47,0.225 0.25,0.16 0.425,0.46 0.175,0.295 0.175,0.77 0,0.58 -0.265,0.965 -0.26,0.385 -0.75,0.58 -0.485,0.19 -1.175,0.19 h -1.78 q -0.665,0 -0.665,-0.67 v -4.855 q 0,-0.665 0.665,-0.665 h 1.52 q 0.59,0 1.1,0.125 0.51,0.12 0.82,0.445 0.315,0.325 0.315,0.945 0,0.44 -0.15,0.72 -0.145,0.28 -0.35,0.435 -0.205,0.15 -0.395,0.21 -0.19,0.06 -0.27,0.06 z m -2.145,-2.12 v 1.815 h 1.105 q 0.32,0 0.57,-0.105 0.255,-0.105 0.395,-0.315 0.145,-0.21 0.145,-0.525 0,-0.365 -0.17,-0.55 -0.165,-0.185 -0.45,-0.25 -0.28,-0.07 -0.625,-0.07 z m 1.01,4.55 q 0.685,0 1.035,-0.245 0.35,-0.245 0.35,-0.77 0,-0.535 -0.365,-0.755 -0.365,-0.22 -0.88,-0.22 h -1.15 v 1.99 z"
       id="textScaleB--text"
       aria-label="SCALE B" /><path
       style="font-weight:500;font-size:10px;line-height:1.25;font-family:Sono;-inkscape-font-specification:'Sono Medium';letter-spacing:0px;word-spacing:0px;fill:#bf9b30"
       d="m 58.822496,209.85498 q -0.495,0 -0.975,-0.17 -0.48,-0.175 -0.875,-0.55 -0.39,-0.375 -0.625,-0.98 -0.235,-0.61 -0.235,-1.48 0,-0.87 0.235,-1.475 0.235,-0.61 0.625,-0.98 0.395,-0.375 0.875,-0.545 0.48,-0.175 0.975,-0.175 0.485,0 0.965,0.175 0.48,0.17 0.87,0.545 0.395,0.37 0.63,0.98 0.235,0.605 0.235,1.475 0,0.87 -0.235,1.48 -0.235,0.605 -0.63,0.98 -0.39,0.375 -0.87,0.55 -0.48,0.17 -0.965,0.17 z m 0,-0.825 q 0.425,0 0.78,-0.255 0.355,-0.26 0.57,-0.78 0.215,-0.525 0.215,-1.32 0,-0.79 -0.215,-1.31 -0.215,-0.525 -0.57,-0.78 -0.355,-0.26 -0.78,-0.26 -0.43,0 -0.79,0.26 -0.36,0.255 -0.575,0.78 -0.215,0.52 -0.215,1.31 0,0.795 0.215,1.32 0.215,0.52 0.575,0.78 0.36,0.255 0.79,0.255 z m 7.859997,-5.065 q 0,0.2 -0.165,0.31 -0.165,0.105 -0.455,0.105 h -2.34 v 2.295 h 1.935 q 0.575,0 0.575,0.415 0,0.405 -0.575,0.405 h -1.935 v 1.66 q 0,0.665 -0.555,0.665 -0.555,0 -0.555,-0.665 v -4.93 q 0,-0.665 0.665,-0.665 h 2.785 q 0.29,0 0.455,0.105 0.165,0.1 0.165,0.3 z m 5.184994,0 q 0,0.2 -0.165,0.31 -0.165,0.105 -0.455,0.105 h -2.34 v 2.295 h 1.935 q 0.575,0 0.575,0.415 0,0.405 -0.575,0.405 h -1.935 v 1.66 q 0,0.665 -0.555,0.665 -0.555,0 -0.555,-0.665 v -4.93 q 0,-0.665 0.665,-0.665 h 2.785 q 0.29,0 0.455,0.105 0.165,0.1 0.165,0.3 z m 3.494994,5.89 q -0.75,0 -1.31,-0.21 -0.555,-0.21 -0.89,-0.545 -0.315,-0.25 -0.315,-0.585 0,-0.165 0.12,-0.305 0.12,-0.145 0.345,-0.145 0.2,0 0.34,0.095 0.145,0.09 0.27,0.22 0.23,0.27 0.58,0.46 0.35,0.19 0.88,0.19 0.36,0 0.665,-0.11 0.31,-0.11 0.495,-0.315 0.19,-0.205 0.19,-0.49 0,-0.425 -0.395,-0.655 -0.39,-0.235 -1.155,-0.425 -1.13,-0.28 -1.655,-0.74 -0.52,-0.465 -0.52,-1.18 0,-0.505 0.32,-0.865 0.325,-0.365 0.87,-0.555 0.55,-0.195 1.22,-0.195 0.595,0 1.105,0.185 0.515,0.18 0.835,0.51 0.14,0.11 0.22,0.25 0.085,0.135 0.085,0.3 0,0.2 -0.13,0.32 -0.125,0.115 -0.32,0.115 -0.195,0 -0.34,-0.105 -0.145,-0.105 -0.245,-0.215 -0.17,-0.23 -0.49,-0.38 -0.32,-0.155 -0.765,-0.155 -0.335,0 -0.615,0.095 -0.28,0.095 -0.45,0.27 -0.165,0.17 -0.165,0.41 0,0.37 0.36,0.605 0.36,0.23 1.105,0.43 0.71,0.185 1.215,0.43 0.505,0.245 0.775,0.6 0.27,0.355 0.27,0.885 0,0.56 -0.33,0.965 -0.33,0.405 -0.9,0.625 -0.565,0.215 -1.275,0.215 z m 7.785006,-5.89 q 0,0.415 -0.64,0.415 h -2.455 v 1.85 h 2.01 q 0.325,0 0.46,0.105 0.135,0.105 0.135,0.305 0,0.195 -0.135,0.305 -0.135,0.105 -0.46,0.105 h -2.01 v 1.88 h 2.455 q 0.64,0 0.64,0.41 0,0.41 -0.64,0.41 h -2.9 q -0.665,0 -0.665,-0.67 v -4.855 q 0,-0.665 0.665,-0.665 h 2.9 q 0.64,0 0.64,0.405 z m 5.155004,-0.405 q 0.62,0 0.62,0.405 0,0.2 -0.17,0.31 -0.165,0.105 -0.42,0.105 h -1.35 v 4.775 q 0,0.665 -0.555,0.665 -0.555,0 -0.555,-0.665 v -4.775 h -1.29 q -0.305,0 -0.475,-0.105 -0.165,-0.11 -0.165,-0.31 0,-0.195 0.165,-0.3 0.17,-0.105 0.475,-0.105 z m 4.830003,6.285 q -0.22,0 -0.36,-0.125 -0.135,-0.125 -0.135,-0.36 0,-0.055 0.01,-0.12 0.01,-0.065 0.03,-0.135 l 1.71,-4.95 q 0.095,-0.285 0.285,-0.45 0.195,-0.17 0.46,-0.17 h 0.255 q 0.27,0 0.46,0.17 0.195,0.165 0.285,0.45 l 1.71,4.95 q 0.025,0.07 0.035,0.135 0.01,0.065 0.01,0.12 0,0.235 -0.14,0.36 -0.14,0.125 -0.365,0.125 -0.275,0 -0.405,-0.145 -0.13,-0.145 -0.215,-0.445 l -0.38,-1.105 h -2.245 l -0.38,1.105 q -0.08,0.3 -0.215,0.445 -0.13,0.145 -0.41,0.145 z m 1.235,-2.515 h 1.79 l -0.845,-2.55 q -0.015,-0.055 -0.03,-0.11 -0.015,-0.06 -0.025,-0.105 -0.005,0.045 -0.02,0.105 -0.01,0.055 -0.025,0.11 z"
       id="textOffsetA--text"
       aria-label="OFFSET A" /><path
       style="font-weight:500;font-size:10px;line-height:1.25;font-family:Sono;-inkscape-font-specification:'Sono Medium';letter-spacing:0px;word-spacing:0px;fill:#bf9b30"
       d="m 12.619997,209.85498 q -0.75,0 -1.31,-0.21 -0.555,-0.21 -0.89,-0.545 -0.315,-0.25 -0.315,-0.585 0,-0.165 0.12,-0.305 0.12,-0.145 0.345,-0.145 0.2,0 0.34,0.095 0.145,0.09 0.27,0.22 0.23,0.27 0.58,0.46 0.35,0.19 0.88,0.19 0.36,0 0.665,-0.11 0.31,-0.11 0.495,-0.315 0.19,-0.205 0.19,-0.49 0,-0.425 -0.395,-0.655 -0.39,-0.235 -1.155,-0.425 -1.13,-0.28 -1.655,-0.74 -0.52,-0.465 -0.52,-1.18 0,-0.505 0.32,-0.865 0.325,-0.365 0.87,-0.555 0.55,-0.195 1.22,-0.195 0.595,0 1.105,0.185 0.515,0.18 0.835,0.51 0.14,0.11 0.22,0.25 0.085,0.135 0.085,0.3 0,0.2 -0.13,0.32 -0.125,0.115 -0.32,0.115 -0.195,0 -0.34,-0.105 -0.145,-0.105 -0.245,-0.215 -0.17,-0.23 -0.49,-0.38 -0.32,-0.155 -0.765,-0.155 -0.335,0 -0.615,0.095 -0.28,0.095 -0.45,0.27 -0.165,0.17 -0.165,0.41 0,0.37 0.36,0.605 0.36,0.23 1.105,0.43 0.71,0.185 1.215,0.43 0.505,0.245 0.775,0.6 0.27,0.355 0.27,0.885 0,0.56 -0.33,0.965 -0.33,0.405 -0.9,0.625 -0.565,0.215 -1.275,0.215 z m 6.225006,-0.005 q -0.51,0 -1.01,-0.17 -0.5,-0.17 -0.91,-0.545 -0.41,-0.375 -0.655,-0.98 -0.245,-0.61 -0.245,-1.48 0,-0.87 0.245,-1.475 0.245,-0.61 0.655,-0.985 0.41,-0.375 0.91,-0.545 0.5,-0.17 1.01,-0.17 0.48,0 0.875,0.145 0.4,0.14 0.69,0.375 0.295,0.235 0.45,0.515 0.16,0.28 0.16,0.555 0,0.22 -0.14,0.35 -0.14,0.125 -0.33,0.125 -0.235,0 -0.335,-0.105 -0.095,-0.105 -0.16,-0.26 -0.055,-0.185 -0.195,-0.385 -0.14,-0.205 -0.385,-0.345 -0.245,-0.145 -0.625,-0.145 -0.425,0 -0.815,0.25 -0.385,0.245 -0.63,0.765 -0.245,0.515 -0.245,1.335 0,0.82 0.245,1.34 0.245,0.52 0.63,0.765 0.39,0.245 0.815,0.245 0.38,0 0.625,-0.14 0.245,-0.145 0.385,-0.345 0.14,-0.205 0.195,-0.39 0.065,-0.16 0.16,-0.265 0.1,-0.105 0.335,-0.105 0.19,0 0.33,0.135 0.14,0.13 0.14,0.345 0,0.275 -0.16,0.555 -0.16,0.28 -0.455,0.515 -0.29,0.235 -0.69,0.38 -0.395,0.14 -0.87,0.14 z m 3.339994,-0.005 q -0.22,0 -0.36,-0.125 -0.135,-0.125 -0.135,-0.36 0,-0.055 0.01,-0.12 0.01,-0.065 0.03,-0.135 l 1.71,-4.95 q 0.095,-0.285 0.285,-0.45 0.195,-0.17 0.46,-0.17 h 0.255 q 0.27,0 0.46,0.17 0.195,0.165 0.285,0.45 l 1.71,4.95 q 0.025,0.07 0.035,0.135 0.01,0.065 0.01,0.12 0,0.235 -0.14,0.36 -0.14,0.125 -0.365,0.125 -0.275,0 -0.405,-0.145 -0.13,-0.145 -0.215,-0.445 l -0.38,-1.105 h -2.245 l -0.38,1.105 q -0.08,0.3 -0.215,0.445 -0.13,0.145 -0.41,0.145 z m 1.235,-2.515 h 1.79 l -0.845,-2.55 q -0.015,-0.055 -0.03,-0.11 -0.015,-0.06 -0.025,-0.105 -0.005,0.045 -0.02,0.105 -0.01,0.055 -0.025,0.11 z m 5.369997,1.6 h 2.17 q 0.285,0 0.45,0.11 0.165,0.105 0.165,0.3 0,0.195 -0.165,0.305 -0.165,0.105 -0.45,0.105 h -2.615 q -0.665,0 -0.665,-0.67 v -4.9 q 0,-0.67 0.555,-0.67 0.555,0 0.555,0.67 z m 7.859993,-4.965 q 0,0.415 -0.64,0.415 h -2.455 v 1.85 h 2.01 q 0.325,0 0.46,0.105 0.135,0.105 0.135,0.305 0,0.195 -0.135,0.305 -0.135,0.105 -0.46,0.105 h -2.01 v 1.88 h 2.455 q 0.64,0 0.64,0.41 0,0.41 -0.64,0.41 h -2.9 q -0.665,0 -0.665,-0.67 v -4.855 q 0,-0.665 0.665,-0.665 h 2.9 q 0.64,0 0.64,0.405 z m 4.490012,5.88 q -0.22,0 -0.36,-0.125 -0.135,-0.125 -0.135,-0.36 0,-0.055 0.01,-0.12 0.01,-0.065 0.03,-0.135 l 1.71,-4.95 q 0.095,-0.285 0.285,-0.45 0.195,-0.17 0.46,-0.17 h 0.255 q 0.27,0 0.46,0.17 0.195,0.165 0.285,0.45 l 1.71,4.95 q 0.025,0.07 0.035,0.135 0.01,0.065 0.01,0.12 0,0.235 -0.14,0.36 -0.14,0.125 -0.365,0.125 -0.275,0 -0.405,-0.145 -0.13,-0.145 -0.215,-0.445 l -0.38,-1.105 h -2.245 l -0.38,1.105 q -0.08,0.3 -0.215,0.445 -0.13,0.145 -0.41,0.145 z m 1.235,-2.515 h 1.79 l -0.845,-2.55 q -0.015,-0.055 -0.03,-0.11 -0.015,-0.06 -0.025,-0.105 -0.005,0.045 -0.02,0.105 -0.01,0.055 -0.025,0.11 z"
       id="textScaleA--text"
       aria-label="SCALE A" /><path
       style="font-weight:500;font-size:16px;line-height:1.25;font-family:Sono;-inkscape-font-specification:'Sono Medium';letter-spacing:0px;word-spacing:0px;fill:#bf9b30;stroke-width:0.781836"
       d="m 46.666436,190.89223 q -0.392,0 -0.632,-0.232 -0.24,-0.24 -0.24,-0.68 0,-0.144 0,-0.6 0,-0.464 0,-1.128 0,-0.664 0,-1.424 0,-0.768 0,-1.536 0,-0.768 0,-1.44 0,-0.672 0,-1.144 0,-0.48 0,-0.648 0,-0.424 0.16,-0.712 0.16,-0.296 0.432,-0.44 0.28,-0.152 0.608,-0.152 h 0.056 q 0.488,0 0.824,0.312 0.344,0.312 0.544,0.784 l 1.92,4.416 1.928,-4.416 q 0.208,-0.472 0.544,-0.784 0.344,-0.312 0.832,-0.312 h 0.048 q 0.328,0 0.6,0.152 0.272,0.152 0.432,0.44 0.16,0.288 0.16,0.712 0,0.168 0,0.648 0,0.472 0,1.144 0,0.672 0,1.44 0,0.768 0,1.536 0,0.76 0,1.424 0,0.664 0,1.128 0,0.456 0,0.6 0,0.44 -0.216,0.68 -0.216,0.232 -0.608,0.232 -0.896,0 -0.896,-1.032 v -5.736 l -1.856,4.224 q -0.2,0.464 -0.384,0.704 -0.176,0.24 -0.584,0.24 -0.408,0 -0.584,-0.24 -0.176,-0.24 -0.384,-0.704 l -1.872,-4.28 v 5.792 q 0,0.512 -0.2,0.776 -0.2,0.256 -0.632,0.256 z m 16.839992,-9.336 q 0,0.664 -1.024,0.664 h -3.928 v 2.96 h 3.216 q 0.52,0 0.736,0.168 0.216,0.168 0.216,0.488 0,0.312 -0.216,0.488 -0.216,0.168 -0.736,0.168 h -3.216 v 3.008 h 3.928 q 1.024,0 1.024,0.656 0,0.656 -1.024,0.656 h -4.64 q -1.064,0 -1.064,-1.072 v -7.768 q 0,-1.064 1.064,-1.064 h 4.64 q 1.024,0 1.024,0.648 z m 4.896006,-0.648 q 0.504,0 1.128,0.104 0.624,0.104 1.256,0.4 0.632,0.288 1.168,0.84 0.536,0.552 0.856,1.432 0.328,0.88 0.328,2.176 0,1.288 -0.328,2.168 -0.32,0.88 -0.856,1.432 -0.536,0.552 -1.168,0.848 -0.632,0.288 -1.256,0.4 -0.624,0.104 -1.128,0.104 h -2 q -1.064,0 -1.064,-1.072 v -7.768 q 0,-1.064 1.064,-1.064 z m -0.024,8.592 q 0.584,0 1.112,-0.2 0.536,-0.2 0.952,-0.632 0.424,-0.432 0.664,-1.128 0.24,-0.696 0.24,-1.68 0,-0.992 -0.24,-1.688 -0.24,-0.696 -0.664,-1.128 -0.416,-0.432 -0.952,-0.624 -0.528,-0.2 -1.112,-0.2 h -1.272 v 7.28 z m 7.239994,1.312 q -0.424,0 -0.656,-0.168 -0.232,-0.176 -0.232,-0.488 0,-0.32 0.232,-0.488 0.232,-0.168 0.656,-0.168 h 1.32 v -7.28 h -1.32 q -0.424,0 -0.656,-0.168 -0.232,-0.176 -0.232,-0.496 0,-0.312 0.232,-0.48 0.232,-0.168 0.656,-0.168 h 4.304 q 0.432,0 0.656,0.168 0.232,0.168 0.232,0.48 0,0.32 -0.232,0.496 -0.224,0.168 -0.656,0.168 h -1.28 v 7.28 h 1.28 q 0.432,0 0.656,0.168 0.232,0.168 0.232,0.488 0,0.312 -0.232,0.488 -0.224,0.168 -0.656,0.168 z m 7.175992,0.152 q -0.352,0 -0.576,-0.2 -0.216,-0.2 -0.216,-0.576 0,-0.088 0.016,-0.192 0.016,-0.104 0.048,-0.216 l 2.736,-7.92 q 0.152,-0.456 0.456,-0.72 0.312,-0.272 0.736,-0.272 h 0.408 q 0.432,0 0.736,0.272 0.312,0.264 0.456,0.72 l 2.736,7.92 q 0.04,0.112 0.056,0.216 0.016,0.104 0.016,0.192 0,0.376 -0.224,0.576 -0.224,0.2 -0.584,0.2 -0.44,0 -0.648,-0.232 -0.208,-0.232 -0.344,-0.712 l -0.608,-1.768 h -3.592 l -0.608,1.768 q -0.128,0.48 -0.344,0.712 -0.208,0.232 -0.656,0.232 z m 1.976,-4.024 h 2.864 l -1.352,-4.08 q -0.024,-0.088 -0.048,-0.176 -0.024,-0.096 -0.04,-0.168 -0.008,0.072 -0.032,0.168 -0.016,0.088 -0.04,0.176 z m 7.599995,3.944 q -0.8,0 -0.8,-1.048 v -7.904 q 0,-0.52 0.312,-0.792 0.32,-0.272 0.832,-0.272 h 0.04 q 0.456,0 0.776,0.232 0.328,0.232 0.552,0.664 l 3.376,6.392 v -6.24 q 0,-1.048 0.808,-1.048 0.376,0 0.592,0.264 0.216,0.264 0.216,0.784 v 7.904 q 0,0.512 -0.272,0.792 -0.264,0.272 -0.776,0.272 h -0.016 q -0.464,0 -0.768,-0.232 -0.296,-0.232 -0.528,-0.664 l -3.56,-6.616 v 6.464 q 0,1.048 -0.784,1.048 z"
       id="moduleName--moduleName"
       transform="scale(0.99924857,1.000752)"
       aria-label="MEDIAN" /></g><g
     id="Widgets"
     style="display:inline"
     inkscape:label="Widgets"
     transform="matrix(2.9527559,0,0,2.957359,0,-0.02041608)"><path
       id="param_Offs3--hidden"
       style="display:inline;vector-effect:none;fill:#ff0000;fill-rule:evenodd;stroke-width:1.01521"
       d="m 30.141334,49.713421 a 4.0640001,4.0576744 0 0 1 -4.064001,4.057674 4.0640001,4.0576744 0 0 1 -4.064,-4.057674 4.0640001,4.0576744 0 0 1 4.064,-4.057675 4.0640001,4.0576744 0 0 1 4.064001,4.057675 z" /><path
       id="param_Scale3--hidden"
       style="display:inline;vector-effect:none;fill:#ff0000;fill-rule:evenodd;stroke-width:1.01522"
       d="m 13.546667,49.713421 a 4.0640001,4.0576744 0 0 1 -4.064,4.057674 4.0640001,4.0576744 0 0 1 -4.0640002,-4.057674 4.0640001,4.0576744 0 0 1 4.0640002,-4.057675 4.0640001,4.0576744 0 0 1 4.064,4.057675 z" /><path
       id="input_3--hidden"
       style="display:inline;vector-effect:none;fill:#00ff00;fill-rule:evenodd;stroke-width:1.0152"
       d="m 13.546667,111.25481 a 4.0640001,4.0576744 0 0 1 -4.064,4.05767 4.0640001,4.0576744 0 0 1 -4.0640002,-4.05767 4.0640001,4.0576744 0 0 1 4.0640002,-4.05768 4.0640001,4.0576744 0 0 1 4.064,4.05768 z" /><path
       id="param_Offs2--hidden"
       style="display:inline;vector-effect:none;fill:#ff0000;fill-rule:evenodd;stroke-width:1.01521"
       d="m 30.141334,34.835281 a 4.0640001,4.0576744 0 0 1 -4.064001,4.057675 4.0640001,4.0576744 0 0 1 -4.064,-4.057675 4.0640001,4.0576744 0 0 1 4.064,-4.057674 4.0640001,4.0576744 0 0 1 4.064001,4.057674 z" /><path
       id="param_Scale2--hidden"
       style="display:inline;vector-effect:none;fill:#ff0000;fill-rule:evenodd;stroke-width:1.01522"
       d="m 13.546667,34.835281 a 4.0640001,4.0576744 0 0 1 -4.064,4.057675 4.0640001,4.0576744 0 0 1 -4.0640002,-4.057675 4.0640001,4.0576744 0 0 1 4.0640002,-4.057674 4.0640001,4.0576744 0 0 1 4.064,4.057674 z" /><path
       id="input_2--hidden"
       style="display:inline;vector-effect:none;fill:#00ff00;fill-rule:evenodd;stroke-width:1.0152"
       d="m 13.546667,96.376686 a 4.0640001,4.0576744 0 0 1 -4.064,4.057674 4.0640001,4.0576744 0 0 1 -4.0640002,-4.057674 4.0640001,4.0576744 0 0 1 4.0640002,-4.057674 4.0640001,4.0576744 0 0 1 4.064,4.057674 z" /><path
       id="param_Offs1--hidden"
       style="display:inline;vector-effect:none;fill:#ff0000;fill-rule:evenodd;stroke-width:1.01521"
       d="m 30.141334,19.957136 a 4.0640001,4.0576744 0 0 1 -4.064001,4.057675 4.0640001,4.0576744 0 0 1 -4.064,-4.057675 4.0640001,4.0576744 0 0 1 4.064,-4.057674 4.0640001,4.0576744 0 0 1 4.064001,4.057674 z" /><path
       id="param_Scale1--hidden"
       style="display:inline;vector-effect:none;fill:#ff0000;fill-rule:evenodd;stroke-width:1.01521"
       d="m 13.546667,19.957136 a 4.0640001,4.0576744 0 0 1 -4.064,4.057675 4.0640001,4.0576744 0 0 1 -4.0640002,-4.057675 4.0640001,4.0576744 0 0 1 4.0640002,-4.057674 4.0640001,4.0576744 0 0 1 4.064,4.057674 z" /><path
       id="input_1--hidden"
       style="display:inline;opacity:1;vector-effect:none;fill:#00ff00;fill-rule:evenodd;stroke-width:1.0152"
       inkscape:label="input_1--hidden"
       d="m 13.546667,81.498535 a 4.0640001,4.0576744 0 0 1 -4.064,4.057675 4.0640001,4.0576744 0 0 1 -4.0640002,-4.057675 4.0640001,4.0576744 0 0 1 4.0640002,-4.057674 4.0640001,4.0576744 0 0 1 4.064,4.057674 z" /><path
       id="output_Max--hidden"
       style="display:inline;opacity:1;vector-effect:none;fill:#0000ff;fill-rule:evenodd;stroke-width:1.01521"
       d="m 30.141334,81.498535 a 4.0640001,4.0576744 0 0 1 -4.064001,4.057675 4.0640001,4.0576744 0 0 1 -4.064,-4.057675 4.0640001,4.0576744 0 0 1 4.064,-4.057674 4.0640001,4.0576744 0 0 1 4.064001,4.057674 z" /><path
       id="output_Mid--hidden"
       style="display:inline;opacity:1;vector-effect:none;fill:#0000ff;fill-rule:evenodd;stroke-width:1.01521"
       d="m 30.141334,96.376686 a 4.0640001,4.0576744 0 0 1 -4.064001,4.057674 4.0640001,4.0576744 0 0 1 -4.064,-4.057674 4.0640001,4.0576744 0 0 1 4.064,-4.057674 4.0640001,4.0576744 0 0 1 4.064001,4.057674 z" /><path
       id="output_Min--hidden"
       style="display:inline;opacity:1;vector-effect:none;fill:#0000ff;fill-rule:evenodd;stroke-width:1.01521"
       d="m 30.141334,111.25481 a 4.0640001,4.0576744 0 0 1 -4.064001,4.05767 4.0640001,4.0576744 0 0 1 -4.064,-4.05767 4.0640001,4.0576744 0 0 1 4.064,-4.05768 4.0640001,4.0576744 0 0 1 4.064001,4.05768 z" /><path
       id="light_MinOut--hidden"
       style="display:inline;vector-effect:none;fill:#0000ff;fill-rule:evenodd;stroke-width:0.380725"
       d="m 30.564668,107.53529 a 0.76200002,0.76081395 0 0 1 -0.762,0.76082 0.76200002,0.76081395 0 0 1 -0.762,-0.76082 0.76200002,0.76081395 0 0 1 0.762,-0.76081 0.76200002,0.76081395 0 0 1 0.762,0.76081 z" /><path
       id="light_MidOut--hidden"
       style="display:inline;vector-effect:none;fill:#0000ff;fill-rule:evenodd;stroke-width:0.380725"
       d="m 30.56467,92.657166 a 0.76200002,0.76081395 0 0 1 -0.762,0.760813 0.76200002,0.76081395 0 0 1 -0.762,-0.760813 0.76200002,0.76081395 0 0 1 0.762,-0.760814 0.76200002,0.76081395 0 0 1 0.762,0.760814 z" /><path
       id="light_MaxOut--hidden"
       style="display:inline;vector-effect:none;fill:#0000ff;fill-rule:evenodd;stroke-width:0.380725"
       d="m 30.564668,77.778999 a 0.76200002,0.76081395 0 0 1 -0.762,0.760814 0.76200002,0.76081395 0 0 1 -0.762,-0.760814 0.76200002,0.76081395 0 0 1 0.762,-0.760814 0.76200002,0.76081395 0 0 1 0.762,0.760814 z" /><path
       id="widgetLogo--hidden"
       style="fill:#ffff00;stroke-width:3.65802;paint-order:stroke fill markers"
       d="m 13.546667,118.35573 h 8.466666 v 8.45349 h -8.466666 z" /></g></svg>
