<?xml version="1.0" encoding="UTF-8" standalone="no"?>
<!-- Created with Inkscape (http://www.inkscape.org/) -->

<svg
   width="35.560001mm"
   height="128.5mm"
   viewBox="0 0 35.560004 128.50002"
   version="1.1"
   id="svg8"
   inkscape:version="1.3.2 (091e20e, 2023-11-25, custom)"
   sodipodi:docname="Median.svg"
   xml:space="preserve"
   xmlns:inkscape="http://www.inkscape.org/namespaces/inkscape"
   xmlns:sodipodi="http://sodipodi.sourceforge.net/DTD/sodipodi-0.dtd"
   xmlns="http://www.w3.org/2000/svg"
   xmlns:svg="http://www.w3.org/2000/svg"
   xmlns:rdf="http://www.w3.org/1999/02/22-rdf-syntax-ns#"
   xmlns:cc="http://creativecommons.org/ns#"
   xmlns:dc="http://purl.org/dc/elements/1.1/"><defs
     id="defs2"><linearGradient
       id="uuid-f0636bc7-c65b-4b70-b857-f875576c11d6"
       x1="37.5"
       y1="0"
       x2="37.5"
       y2="380"
       gradientUnits="userSpaceOnUse"><stop
         offset="0"
         stop-color="#ebebeb"
         id="stop2" /><stop
         offset="1"
         stop-color="#e1e1e1"
         id="stop4" /></linearGradient></defs><sodipodi:namedview
     id="base"
     pagecolor="#ffffff"
     bordercolor="#666666"
     borderopacity="1.0"
     inkscape:pageopacity="0.0"
     inkscape:pageshadow="2"
     inkscape:zoom="2.8284271"
     inkscape:cx="-35.355339"
     inkscape:cy="90.686445"
     inkscape:document-units="mm"
     inkscape:current-layer="layer1"
     showgrid="true"
     units="mm"
     inkscape:snap-bbox="true"
     inkscape:snap-page="true"
     inkscape:bbox-nodes="false"
     inkscape:snap-bbox-edge-midpoints="false"
     inkscape:window-width="1920"
     inkscape:window-height="1027"
     inkscape:window-x="-8"
     inkscape:window-y="22"
     inkscape:window-maximized="1"
     inkscape:snap-bbox-midpoints="true"
     inkscape:snap-nodes="false"
     inkscape:showpageshadow="2"
     inkscape:pagecheckerboard="0"
     inkscape:deskcolor="#d1d1d1"
     showguides="false"><inkscape:grid
       id="grid1"
       units="px"
       originx="0"
       originy="0"
       spacingx="0.26458336"
       spacingy="0.26458338"
       empcolor="#3f3fff"
       empopacity="0.25098039"
       color="#3f3fff"
       opacity="0.1254902"
       empspacing="5"
       dotted="false"
       gridanglex="30"
       gridanglez="30"
       visible="true" /></sodipodi:namedview><metadata
     id="metadata5"><rdf:RDF><cc:Work
         rdf:about=""><dc:format>image/svg+xml</dc:format><dc:type
           rdf:resource="http://purl.org/dc/dcmitype/StillImage" /></cc:Work></rdf:RDF></metadata><g
     inkscape:label="Layer 1"
     inkscape:groupmode="layer"
     id="layer1"
     transform="translate(0,-168.49998)"
     style="display:inline"><path
       id="bg--background-fill"
       style="display:inline;opacity:1;vector-effect:none;fill:#1f1f1f;fill-rule:evenodd;stroke-width:0.701387"
       d="m 0,168.49998 h 35.560001 v 128.5 H 0 Z" /><path
       id="header--hidden"
       style="display:inline;fill:#e15b5b;stroke-width:0.322235;paint-order:stroke fill markers"
       d="m 0,168.49998 h 35.560001 v 11.90625 H 0 Z" /><path
       id="footer--hidden"
       style="display:inline;fill:#e15b5b;stroke-width:0.322235;paint-order:stroke fill markers"
       d="M 0,285.09375 H 35.560001 V 297 H 0 Z" /><path
       id="outBlock--output-fill"
       style="display:inline;fill:#bf9b30;stroke-width:0.33488"
       d="M 3.9100001,245.86697 H 15.201 c 0.554,0 1,0.446 1,1 v 37.235 c 0,0.554 -0.446,1 -1,1 H 3.9100001 c -0.554,0 -1,-0.446 -1,-1 v -37.235 c 0,-0.554 0.446,-1 1,-1 z" /><path
       style="font-size:4.93889px;line-height:1.25;font-family:Nunito;-inkscape-font-specification:Nunito;text-align:center;letter-spacing:0px;word-spacing:0px;text-anchor:middle;fill:#ffffff;stroke-width:0.265"
       d="m 9.9496424,176.07368 v -0.84164 L 9.110417,173.22803 q -0.079582,-0.20498 -0.2315105,-0.30627 -0.1519287,-0.1037 -0.3279731,-0.1037 -0.2098064,0 -0.3641467,0.12782 -0.1543403,0.12781 -0.1543403,0.32797 l 0.00241,2.64308 q 0,0.12058 0.09164,0.1881 0.094051,0.0651 0.2218642,0.0651 0.1278131,0 0.2194526,-0.0651 0.09164,-0.0675 0.09164,-0.1881 v -2.33922 l 0.8946915,2.16317 q 0.1254015,0.3328 0.395497,0.3328 z m 0.00241,0 q 0.267684,0 0.397909,-0.3328 l 0.89228,-2.16317 v 2.33922 q 0,0.12058 0.09164,0.1881 0.09405,0.0651 0.221864,0.0651 0.127813,0 0.219453,-0.0651 0.09405,-0.0675 0.09405,-0.1881 v -2.64308 q 0,-0.20016 -0.15434,-0.32797 -0.154341,-0.12782 -0.361735,-0.12782 -0.176045,0 -0.327974,0.1037 -0.151928,0.10129 -0.23151,0.30627 l -0.841637,2.00401 z m 3.101276,0.13022 h 1.786971 q 0.115755,0 0.183279,-0.0796 0.06994,-0.082 0.06994,-0.19051 0,-0.10852 -0.06994,-0.19052 -0.06752,-0.082 -0.183279,-0.082 h -1.439706 v -0.96704 h 1.290189 q 0.118167,0 0.188102,-0.0796 0.07235,-0.0796 0.07235,-0.1881 0,-0.10852 -0.06994,-0.1881 -0.06994,-0.0796 -0.190514,-0.0796 h -1.290189 v -0.88745 h 1.38424 q 0.118167,0 0.188102,-0.082 0.06994,-0.082 0.06994,-0.19051 0,-0.10852 -0.06994,-0.19051 -0.06993,-0.082 -0.188102,-0.082 h -1.714624 q -0.171222,0 -0.265273,0.11576 -0.09164,0.11334 -0.09164,0.2918 v 2.68166 q 0,0.15193 0.09887,0.2701 0.09887,0.11816 0.241157,0.11816 z m 3.033751,0 h 0.858518 q 0.882634,0 1.362536,-0.44373 0.479902,-0.44372 0.479902,-1.27813 0,-0.8561 -0.479902,-1.30465 -0.479902,-0.45097 -1.418002,-0.45097 h -0.766878 q -0.176045,0 -0.279742,0.10852 -0.101286,0.10852 -0.101286,0.29904 v 2.66478 q 0,0.1664 0.09646,0.28698 0.09646,0.11816 0.248391,0.11816 z m 0.344854,-0.53295 v -2.40916 h 0.487137 q 0.402732,0 0.651123,0.11576 0.248392,0.11334 0.373793,0.38102 0.125402,0.26528 0.125402,0.709 0,0.64389 -0.24598,0.92363 -0.243569,0.27975 -0.853695,0.27975 z m 3.390664,0.53054 q 0.142283,0 0.24598,-0.0989 0.103697,-0.0989 0.103697,-0.26045 v -2.76125 q 0,-0.16157 -0.103697,-0.26045 -0.103697,-0.0989 -0.243568,-0.0989 -0.139871,0 -0.243569,0.0989 -0.101285,0.0989 -0.101285,0.26045 v 2.76125 q 0,0.16157 0.101285,0.26045 0.101286,0.0989 0.241157,0.0989 z m 3.151919,-1.26366 h -1.191314 l 0.595657,-1.58922 z m 0.390674,1.04421 q 0.041,0.11817 0.125402,0.17845 0.0844,0.0579 0.188102,0.0579 0.130225,0 0.23151,-0.0868 0.101286,-0.0868 0.101286,-0.21946 0,-0.0603 -0.02412,-0.12299 l -1.058678,-2.65031 q -0.101286,-0.26768 -0.233923,-0.35932 -0.130224,-0.0916 -0.315915,-0.0916 -0.185691,0 -0.318327,0.0916 -0.130224,0.0916 -0.23151,0.35932 l -1.058678,2.65031 q -0.02412,0.0627 -0.02412,0.12299 0,0.13264 0.101286,0.21946 0.101286,0.0868 0.23151,0.0868 0.103698,0 0.188103,-0.0579 0.0844,-0.0603 0.125401,-0.17845 l 0.217041,-0.57878 h 1.53858 z m 1.483113,0.22186 q 0.125402,0 0.219453,-0.0844 0.09405,-0.0844 0.09405,-0.21945 v -2.13665 l 1.574754,2.18005 q 0.07958,0.11335 0.20016,0.18811 0.120578,0.0723 0.224276,0.0723 0.163986,0 0.265272,-0.13022 0.101286,-0.13264 0.101286,-0.34003 v -2.70337 q 0,-0.13746 -0.09405,-0.22186 -0.09164,-0.0844 -0.21463,-0.0844 -0.125401,0 -0.219452,0.0868 -0.09164,0.0844 -0.09164,0.21945 v 2.13665 l -1.586811,-2.19694 q -0.07476,-0.11334 -0.192926,-0.17845 -0.115755,-0.0651 -0.224275,-0.0651 -0.154341,0 -0.26045,0.11335 -0.103697,0.11093 -0.103697,0.30385 v 2.75643 q 0,0.13746 0.09164,0.22186 0.09405,0.082 0.217041,0.082 z"
       id="moduleName--moduleName"
       aria-label="MEDIAN" /><path
       style="font-size:2.82222px;line-height:1.25;font-family:Nunito;-inkscape-font-specification:Nunito;letter-spacing:0px;word-spacing:0px;fill:#1f1f1f;stroke-width:0.264583"
       d="m 7.5349412,249.21848 v -0.48094 l -0.4795569,-1.14515 q -0.045475,-0.11713 -0.1322916,-0.17501 -0.086816,-0.0593 -0.187413,-0.0593 -0.1198892,0 -0.2080836,0.073 -0.088194,0.073 -0.088194,0.18742 l 0.00138,1.51033 q 0,0.0689 0.052365,0.10748 0.053743,0.0372 0.1267794,0.0372 0.073036,0 0.1254014,-0.0372 0.052365,-0.0386 0.052365,-0.10748 v -1.3367 l 0.5112517,1.2361 q 0.071658,0.19017 0.2259981,0.19017 z m 0.00138,0 q 0.1529621,0 0.2273761,-0.19017 l 0.5098738,-1.2361 v 1.3367 q 0,0.0689 0.052365,0.10748 0.053743,0.0372 0.1267794,0.0372 0.073036,0 0.1254014,-0.0372 0.053743,-0.0386 0.053743,-0.10748 v -1.51033 q 0,-0.11438 -0.088194,-0.18742 -0.088194,-0.073 -0.2067055,-0.073 -0.1005967,0 -0.1874131,0.0593 -0.086816,0.0579 -0.1322916,0.17501 l -0.4809349,1.14515 z m 2.7009527,-0.64906 H 9.5565217 l 0.3403752,-0.90812 z m 0.223242,0.59669 q 0.02343,0.0675 0.07166,0.10198 0.04823,0.0331 0.107487,0.0331 0.07441,0 0.132292,-0.0496 0.05788,-0.0496 0.05788,-0.1254 0,-0.0344 -0.01378,-0.0703 l -0.604959,-1.51446 q -0.05788,-0.15296 -0.133669,-0.20533 -0.07441,-0.0524 -0.1805231,-0.0524 -0.1061088,0 -0.1819009,0.0524 -0.074414,0.0524 -0.1322915,0.20533 l -0.6049584,1.51446 q -0.01378,0.0358 -0.01378,0.0703 0,0.0758 0.057878,0.1254 0.057878,0.0496 0.1322916,0.0496 0.059256,0 0.1074869,-0.0331 0.048231,-0.0344 0.071658,-0.10198 l 0.1240234,-0.33073 h 0.8791879 z m 1.849326,0.0565 q 0.06339,0.0882 0.157096,0.0882 0.07441,0 0.132292,-0.0524 0.05788,-0.0537 0.05788,-0.12816 0,-0.0592 -0.04134,-0.11437 l -0.551215,-0.72761 0.570508,-0.73036 q 0.03721,-0.0496 0.03721,-0.10335 0,-0.0648 -0.04685,-0.11162 -0.04685,-0.0482 -0.111621,-0.0482 -0.09371,0 -0.166742,0.1006 l -0.486447,0.62425 -0.482313,-0.63528 q -0.06477,-0.0896 -0.155718,-0.0896 -0.07441,0 -0.130914,0.0565 -0.0565,0.0551 -0.0565,0.13091 0,0.0606 0.03858,0.11438 l 0.534678,0.70418 -0.569129,0.70417 q -0.04961,0.0675 -0.04961,0.13229 0,0.0689 0.04823,0.11576 0.04961,0.0455 0.117133,0.0455 0.09371,0 0.158474,-0.0882 l 0.49885,-0.64079 z"
       id="textMax--text-ouput"
       aria-label="MAX" /><path
       style="font-size:2.82222px;line-height:1.25;font-family:Nunito;-inkscape-font-specification:Nunito;letter-spacing:0px;word-spacing:0px;fill:#1f1f1f;stroke-width:0.264583"
       d="M 7.997962,261.85393 V 261.373 l -0.4795569,-1.14515 q -0.045475,-0.11714 -0.1322916,-0.17501 -0.086816,-0.0593 -0.187413,-0.0593 -0.1198892,0 -0.2080836,0.073 -0.088194,0.073 -0.088194,0.18741 l 0.00138,1.51033 q 0,0.0689 0.052365,0.10749 0.053743,0.0372 0.1267794,0.0372 0.073036,0 0.1254014,-0.0372 0.052365,-0.0386 0.052365,-0.10749 v -1.3367 l 0.5112518,1.2361 q 0.071658,0.19017 0.225998,0.19017 z m 0.00138,0 q 0.1529621,0 0.2273761,-0.19017 l 0.5098738,-1.2361 v 1.3367 q 0,0.0689 0.052365,0.10749 0.053743,0.0372 0.1267794,0.0372 0.073036,0 0.1254014,-0.0372 0.053743,-0.0386 0.053743,-0.10749 v -1.51033 q 0,-0.11438 -0.088194,-0.18741 -0.088194,-0.073 -0.2067055,-0.073 -0.1005967,0 -0.1874131,0.0593 -0.086816,0.0579 -0.1322916,0.17501 L 7.9993401,261.373 Z m 1.7914483,0.073 q 0.081304,0 0.1405598,-0.0565 0.059256,-0.0565 0.059256,-0.14883 v -1.57785 q 0,-0.0923 -0.059256,-0.14883 -0.059256,-0.0565 -0.1391818,-0.0565 -0.079926,0 -0.1391817,0.0565 -0.057878,0.0565 -0.057878,0.14883 v 1.57785 q 0,0.0923 0.057878,0.14883 0.057878,0.0565 0.1378037,0.0565 z m 0.8750536,0.001 h 0.490581 q 0.504362,0 0.778591,-0.25355 0.27423,-0.25356 0.27423,-0.73036 0,-0.48921 -0.27423,-0.74552 -0.274229,-0.25769 -0.810286,-0.25769 h -0.438215 q -0.100597,0 -0.159853,0.062 -0.05788,0.062 -0.05788,0.17087 v 1.52273 q 0,0.0951 0.05512,0.16399 0.05512,0.0675 0.141938,0.0675 z m 0.197059,-0.30454 v -1.37666 h 0.278364 q 0.230132,0 0.37207,0.0661 0.141938,0.0648 0.213596,0.21773 0.07166,0.15158 0.07166,0.40514 0,0.36793 -0.14056,0.52779 -0.139182,0.15985 -0.487825,0.15985 z"
       id="textMid--text-output"
       aria-label="MID" /><path
       style="font-size:2.82222px;line-height:1.25;font-family:Nunito;-inkscape-font-specification:Nunito;letter-spacing:0px;word-spacing:0px;fill:#1f1f1f;stroke-width:0.264583"
       d="m 8.0172544,274.49037 v -0.48093 l -0.4795569,-1.14515 q -0.045475,-0.11713 -0.1322916,-0.17501 -0.086816,-0.0593 -0.1874131,-0.0593 -0.1198892,0 -0.2080836,0.073 -0.088194,0.073 -0.088194,0.18741 l 0.00138,1.51033 q 0,0.0689 0.052365,0.10749 0.053744,0.0372 0.1267794,0.0372 0.073036,0 0.1254014,-0.0372 0.052365,-0.0386 0.052365,-0.10749 v -1.33669 l 0.5112518,1.2361 q 0.071658,0.19016 0.2259981,0.19016 z m 0.00138,0 q 0.1529622,0 0.2273762,-0.19016 l 0.5098737,-1.2361 v 1.33669 q 0,0.0689 0.052365,0.10749 0.053743,0.0372 0.1267794,0.0372 0.073036,0 0.1254014,-0.0372 0.053743,-0.0386 0.053743,-0.10749 v -1.51033 q 0,-0.11437 -0.088194,-0.18741 -0.088194,-0.073 -0.2067056,-0.073 -0.1005967,0 -0.187413,0.0593 -0.086816,0.0579 -0.1322916,0.17501 l -0.480935,1.14515 z m 1.7914483,0.073 q 0.081304,0 0.1405598,-0.0565 0.059255,-0.0565 0.059255,-0.14883 v -1.57785 q 0,-0.0923 -0.059255,-0.14883 -0.059256,-0.0565 -0.1391817,-0.0565 -0.079926,0 -0.1391818,0.0565 -0.057878,0.0565 -0.057878,0.14883 v 1.57785 q 0,0.0923 0.057878,0.14883 0.057878,0.0565 0.1378037,0.0565 z m 0.8488713,0.001 q 0.07166,0 0.125401,-0.0482 0.05374,-0.0482 0.05374,-0.1254 v -1.22094 l 0.899858,1.24574 q 0.04547,0.0648 0.114377,0.10749 0.0689,0.0413 0.128157,0.0413 0.09371,0 0.151584,-0.0744 0.05788,-0.0758 0.05788,-0.1943 v -1.54478 q 0,-0.0786 -0.05374,-0.12678 -0.05237,-0.0482 -0.122646,-0.0482 -0.07166,0 -0.125401,0.0496 -0.05237,0.0482 -0.05237,0.1254 v 1.22094 l -0.906748,-1.25539 q -0.04272,-0.0648 -0.110243,-0.10197 -0.06615,-0.0372 -0.128157,-0.0372 -0.0882,0 -0.148828,0.0648 -0.05926,0.0634 -0.05926,0.17363 v 1.5751 q 0,0.0785 0.05236,0.12678 0.05374,0.0469 0.124024,0.0469 z"
       id="textMin--text-output"
       aria-label="MIN" /><path
       style="font-size:2.82222px;line-height:1.25;font-family:Nunito;-inkscape-font-specification:Nunito;letter-spacing:0px;word-spacing:0px;fill:#bf9b30;stroke-width:0.264583"
       d="m 14.164032,197.26402 q 0.361045,0 0.574641,-0.16123 0.214974,-0.1626 0.214974,-0.44097 0,-0.11989 -0.03583,-0.21084 -0.03583,-0.0923 -0.111621,-0.15985 -0.07441,-0.0675 -0.169499,-0.11438 -0.09371,-0.0469 -0.23151,-0.0909 -0.0069,-0.003 -0.201193,-0.0593 -0.194304,-0.0565 -0.201194,-0.0593 -0.103352,-0.0344 -0.15434,-0.0882 -0.04961,-0.0551 -0.04961,-0.14194 0,-0.0675 0.03307,-0.11576 0.03307,-0.0482 0.09233,-0.0744 0.05926,-0.0262 0.128158,-0.0372 0.07028,-0.0124 0.155718,-0.0124 0.257693,0 0.479557,0.12678 0.03583,0.0193 0.06615,0.0193 0.05788,0 0.09922,-0.0496 0.04134,-0.051 0.04134,-0.113 0,-0.0606 -0.04272,-0.0992 -0.09922,-0.0854 -0.285253,-0.14056 -0.186036,-0.0565 -0.383095,-0.0565 -0.337619,0 -0.551215,0.15434 -0.212217,0.15434 -0.212217,0.41754 0,0.20395 0.103352,0.32384 0.104731,0.11851 0.340376,0.19982 l 0.454752,0.15158 q 0.128157,0.0413 0.188791,0.1006 0.06063,0.0593 0.06063,0.16398 0,0.12678 -0.113,0.19155 -0.111621,0.0648 -0.292143,0.0648 -0.282498,0 -0.540191,-0.15434 -0.02343,-0.0138 -0.04823,-0.0138 -0.05926,0 -0.108865,0.0661 -0.04823,0.0648 -0.04823,0.13229 0,0.051 0.03169,0.0744 0.265962,0.2067 0.715202,0.2067 z m 2.006422,0 q 0.347265,0 0.588422,-0.16123 0.07717,-0.0537 0.07717,-0.13918 0,-0.0606 -0.03996,-0.10748 -0.03859,-0.0469 -0.09509,-0.0469 -0.02894,0 -0.05788,0.0152 -0.220486,0.11989 -0.410656,0.11989 -0.286631,0 -0.439593,-0.18604 -0.151584,-0.18741 -0.151584,-0.53192 0,-0.36242 0.151584,-0.54157 0.151584,-0.17914 0.431325,-0.17914 0.05374,0 0.103353,0.007 0.04961,0.007 0.09371,0.0207 0.0441,0.0124 0.07166,0.0234 0.02894,0.01 0.06752,0.0276 0.03996,0.0179 0.05099,0.022 0.02894,0.011 0.05236,0.011 0.06201,0 0.107487,-0.0496 0.04547,-0.0496 0.04547,-0.113 0,-0.0909 -0.09508,-0.14331 -0.253559,-0.12678 -0.516764,-0.12678 -0.209462,0 -0.389985,0.0744 -0.179145,0.073 -0.310058,0.20671 -0.130914,0.13367 -0.205328,0.3321 -0.07441,0.19844 -0.07441,0.43822 0,0.3073 0.122646,0.54295 0.124023,0.23426 0.337619,0.35966 0.214973,0.1254 0.485069,0.1254 z m 2.140092,-0.75929 h -0.680751 l 0.340375,-0.90813 z m 0.223242,0.59669 q 0.02343,0.0675 0.07166,0.10197 0.04823,0.0331 0.107487,0.0331 0.07441,0 0.132292,-0.0496 0.05788,-0.0496 0.05788,-0.1254 0,-0.0345 -0.01378,-0.0703 l -0.604958,-1.51446 q -0.05788,-0.15296 -0.13367,-0.20533 -0.07441,-0.0524 -0.180523,-0.0524 -0.106109,0 -0.181901,0.0524 -0.07441,0.0524 -0.132291,0.20533 l -0.604958,1.51446 q -0.01378,0.0358 -0.01378,0.0703 0,0.0758 0.05788,0.1254 0.05788,0.0496 0.132291,0.0496 0.05926,0 0.107487,-0.0331 0.04823,-0.0345 0.07166,-0.10197 l 0.124023,-0.33073 h 0.879188 z m 0.877809,0.12678 h 0.972894 q 0.06752,0 0.107487,-0.0469 0.04134,-0.0469 0.04134,-0.10886 0,-0.0634 -0.04134,-0.11025 -0.03996,-0.0482 -0.107487,-0.0482 h -0.777213 l -0.0014,-1.46623 q 0,-0.0923 -0.05788,-0.14883 -0.05788,-0.0565 -0.137804,-0.0565 -0.0813,0 -0.14056,0.0565 -0.05926,0.0565 -0.05926,0.14883 v 1.53927 q 0,0.0992 0.0565,0.17088 0.0565,0.0703 0.144694,0.0703 z m 1.56545,0 h 1.021126 q 0.06615,0 0.104731,-0.0455 0.03996,-0.0468 0.03996,-0.10886 0,-0.062 -0.03996,-0.10887 -0.03858,-0.0469 -0.104731,-0.0469 h -0.822688 v -0.5526 h 0.737249 q 0.06752,0 0.107487,-0.0455 0.04134,-0.0455 0.04134,-0.10749 0,-0.062 -0.03996,-0.10749 -0.03996,-0.0455 -0.108865,-0.0455 h -0.737249 v -0.50712 h 0.790993 q 0.06752,0 0.107487,-0.0469 0.03996,-0.0469 0.03996,-0.10887 0,-0.062 -0.03996,-0.10886 -0.03996,-0.0469 -0.107487,-0.0469 h -0.979784 q -0.09784,0 -0.151585,0.0661 -0.05236,0.0648 -0.05236,0.16674 v 1.53238 q 0,0.0868 0.0565,0.15434 0.0565,0.0675 0.137803,0.0675 z"
       id="textScale--text"
       aria-label="SCALE" /><path
       style="font-size:2.82222px;line-height:1.25;font-family:Nunito;-inkscape-font-specification:Nunito;letter-spacing:0px;word-spacing:0px;fill:#bf9b30;stroke-width:0.264583"
       d="m 13.503262,211.7958 q -0.278364,0 -0.414789,-0.18741 -0.135048,-0.18879 -0.135048,-0.54019 0,-0.34864 0.136426,-0.53743 0.136425,-0.19017 0.413411,-0.19017 0.278363,0 0.413411,0.18879 0.136426,0.18879 0.136426,0.53881 0,0.3514 -0.136426,0.54019 -0.136426,0.18741 -0.413411,0.18741 z m 0,0.31144 q 0.464398,0 0.715201,-0.27699 0.250803,-0.27698 0.250803,-0.76205 0,-0.48507 -0.250803,-0.76205 -0.250803,-0.27837 -0.715201,-0.27837 -0.461643,0 -0.713823,0.27837 -0.252181,0.27698 -0.252181,0.76205 0,0.48507 0.252181,0.76205 0.25218,0.27699 0.713823,0.27699 z m 1.535133,-0.0358 q 0.0813,0 0.14056,-0.0565 0.05926,-0.0565 0.05926,-0.14883 v -0.66283 h 0.704177 q 0.06752,0 0.106108,-0.0441 0.03859,-0.0455 0.03859,-0.10886 0,-0.062 -0.03996,-0.10749 -0.03859,-0.0455 -0.10473,-0.0455 h -0.704177 v -0.5016 h 0.74414 q 0.06615,0 0.10473,-0.0469 0.03996,-0.0469 0.03996,-0.10886 0,-0.062 -0.03996,-0.10887 -0.03859,-0.0469 -0.10473,-0.0469 h -0.931553 q -0.08682,0 -0.14745,0.0565 -0.06063,0.0551 -0.06063,0.14745 v 1.57785 q 0,0.0923 0.0565,0.14883 0.05788,0.0565 0.139182,0.0565 z m 1.616438,0 q 0.0813,0 0.140559,-0.0565 0.05926,-0.0565 0.05926,-0.14883 v -0.66283 h 0.704177 q 0.06752,0 0.106109,-0.0441 0.03859,-0.0455 0.03859,-0.10886 0,-0.062 -0.03996,-0.10749 -0.03859,-0.0455 -0.104731,-0.0455 h -0.704177 v -0.5016 h 0.74414 q 0.06615,0 0.104731,-0.0469 0.03996,-0.0469 0.03996,-0.10886 0,-0.062 -0.03996,-0.10887 -0.03859,-0.0469 -0.104731,-0.0469 h -0.931553 q -0.08682,0 -0.14745,0.0565 -0.06063,0.0551 -0.06063,0.14745 v 1.57785 q 0,0.0923 0.0565,0.14883 0.05788,0.0565 0.139182,0.0565 z m 2.097373,0.0358 q 0.361045,0 0.574641,-0.16123 0.214974,-0.16261 0.214974,-0.44097 0,-0.11989 -0.03583,-0.21084 -0.03583,-0.0923 -0.111621,-0.15985 -0.07441,-0.0675 -0.169499,-0.11438 -0.09371,-0.0469 -0.23151,-0.0909 -0.0069,-0.003 -0.201193,-0.0593 -0.194304,-0.0565 -0.201194,-0.0593 -0.103353,-0.0344 -0.15434,-0.0882 -0.04961,-0.0551 -0.04961,-0.14194 0,-0.0675 0.03307,-0.11575 0.03307,-0.0482 0.09233,-0.0744 0.05926,-0.0262 0.128158,-0.0372 0.07028,-0.0124 0.155718,-0.0124 0.257693,0 0.479557,0.12678 0.03583,0.0193 0.06614,0.0193 0.05788,0 0.09922,-0.0496 0.04134,-0.051 0.04134,-0.113 0,-0.0606 -0.04272,-0.0992 -0.09922,-0.0854 -0.285254,-0.14056 -0.186035,-0.0565 -0.383094,-0.0565 -0.337619,0 -0.551215,0.15434 -0.212218,0.15434 -0.212218,0.41755 0,0.20395 0.103353,0.32384 0.104731,0.11851 0.340375,0.19981 l 0.454753,0.15159 q 0.128157,0.0413 0.188791,0.10059 0.06063,0.0593 0.06063,0.16399 0,0.12678 -0.112999,0.19155 -0.111621,0.0648 -0.292144,0.0648 -0.282497,0 -0.54019,-0.15434 -0.02343,-0.0138 -0.04823,-0.0138 -0.05926,0 -0.108865,0.0661 -0.04823,0.0648 -0.04823,0.13229 0,0.051 0.03169,0.0744 0.265961,0.20671 0.715202,0.20671 z m 1.338073,-0.0358 h 1.021126 q 0.06615,0 0.104731,-0.0455 0.03996,-0.0469 0.03996,-0.10887 0,-0.062 -0.03996,-0.10886 -0.03858,-0.0469 -0.104731,-0.0469 h -0.822688 v -0.55259 h 0.73725 q 0.06752,0 0.107487,-0.0455 0.04134,-0.0455 0.04134,-0.10748 0,-0.062 -0.03996,-0.10749 -0.03996,-0.0455 -0.108865,-0.0455 h -0.73725 v -0.50712 h 0.790993 q 0.06752,0 0.107487,-0.0469 0.03996,-0.0469 0.03996,-0.10886 0,-0.062 -0.03996,-0.10887 -0.03996,-0.0469 -0.107487,-0.0469 h -0.979784 q -0.09784,0 -0.151584,0.0661 -0.05237,0.0648 -0.05237,0.16674 v 1.53238 q 0,0.0868 0.0565,0.15434 0.0565,0.0675 0.137803,0.0675 z m 2.13458,0.001 q 0.0813,0 0.139182,-0.0565 0.05926,-0.0579 0.05926,-0.15021 v -1.46898 h 0.447862 q 0.0689,0 0.110243,-0.0469 0.04134,-0.0469 0.04134,-0.11024 0,-0.062 -0.04272,-0.10887 -0.04134,-0.0482 -0.108865,-0.0482 H 21.57856 q -0.0689,0 -0.111621,0.0482 -0.04134,0.0469 -0.04134,0.11025 0,0.0634 0.04134,0.11024 0.04134,0.0455 0.111621,0.0455 h 0.44924 v 1.46898 q 0,0.0923 0.05788,0.15021 0.05926,0.0565 0.139182,0.0565 z"
       id="textScale--text-2"
       aria-label="OFFSET" /><path
       style="font-size:2.82222px;line-height:1.25;font-family:Nunito;-inkscape-font-specification:Nunito;letter-spacing:0px;word-spacing:0px;fill:#bf9b30;stroke-width:0.264583"
       d="m 15.285754,182.44848 q 0.0813,0 0.140559,-0.0565 0.05926,-0.0565 0.05926,-0.14883 v -1.57785 q 0,-0.0923 -0.05926,-0.14883 -0.05926,-0.0565 -0.139181,-0.0565 -0.07993,0 -0.139182,0.0565 -0.05788,0.0565 -0.05788,0.14883 v 1.57785 q 0,0.0923 0.05788,0.14883 0.05788,0.0565 0.137804,0.0565 z m 0.848871,0.001 q 0.07166,0 0.125401,-0.0482 0.05374,-0.0482 0.05374,-0.1254 v -1.22094 l 0.899859,1.24574 q 0.04547,0.0648 0.114377,0.10749 0.0689,0.0413 0.128157,0.0413 0.09371,0 0.151584,-0.0744 0.05788,-0.0758 0.05788,-0.19431 v -1.54478 q 0,-0.0786 -0.05374,-0.12678 -0.05236,-0.0482 -0.122645,-0.0482 -0.07166,0 -0.125401,0.0496 -0.05237,0.0482 -0.05237,0.1254 v 1.22094 l -0.906748,-1.25539 q -0.04272,-0.0648 -0.110243,-0.10197 -0.06615,-0.0372 -0.128158,-0.0372 -0.08819,0 -0.148828,0.0648 -0.05926,0.0634 -0.05926,0.17363 v 1.5751 q 0,0.0786 0.05237,0.12678 0.05374,0.0469 0.124024,0.0469 z m 2.984828,0 h 0.632519 q 0.172255,0 0.311436,-0.0455 0.14056,-0.0455 0.227377,-0.12126 0.08682,-0.0772 0.132291,-0.17088 0.04685,-0.0951 0.04685,-0.19844 0,-0.21221 -0.121267,-0.33899 -0.119889,-0.12678 -0.332107,-0.1571 v -0.006 q 0.181901,-0.0331 0.275608,-0.15434 0.09371,-0.12127 0.09371,-0.30455 0,-0.49058 -0.708311,-0.49058 h -0.558105 q -0.08682,0 -0.14745,0.0537 -0.05926,0.0538 -0.05926,0.14194 v 1.5627 q 0,0.11437 0.05512,0.17225 0.0565,0.0565 0.151584,0.0565 z m 0.184657,-0.29077 v -0.5898 h 0.265961 q 0.103353,0 0.173633,0.007 0.07028,0.006 0.135048,0.0234 0.06615,0.0179 0.103352,0.051 0.03859,0.0317 0.06063,0.0854 0.02205,0.0537 0.02205,0.13091 0,0.0923 -0.02618,0.15158 -0.02481,0.0579 -0.0813,0.0896 -0.0565,0.0303 -0.125402,0.0413 -0.0689,0.01 -0.177767,0.01 z m 0,-0.86127 v -0.5457 h 0.341753 q 0.07166,0 0.121267,0.006 0.04961,0.004 0.09784,0.0193 0.04823,0.0152 0.07717,0.0427 0.02894,0.0262 0.04547,0.0717 0.01792,0.0455 0.01792,0.11024 0,0.16537 -0.09095,0.23151 -0.09095,0.0648 -0.304546,0.0648 z"
       id="textInB--text"
       aria-label="IN B" /><path
       style="font-size:2.82222px;line-height:1.25;font-family:Nunito;-inkscape-font-specification:Nunito;letter-spacing:0px;word-spacing:0px;fill:#bf9b30;stroke-width:0.264583"
       d="m 26.421386,182.44848 q 0.0813,0 0.14056,-0.0565 0.05926,-0.0565 0.05926,-0.14883 v -1.57785 q 0,-0.0923 -0.05926,-0.14883 -0.05926,-0.0565 -0.139182,-0.0565 -0.07993,0 -0.139182,0.0565 -0.05788,0.0565 -0.05788,0.14883 v 1.57785 q 0,0.0923 0.05788,0.14883 0.05788,0.0565 0.137804,0.0565 z m 0.848871,0.001 q 0.07166,0 0.125402,-0.0482 0.05374,-0.0482 0.05374,-0.1254 v -1.22094 l 0.899858,1.24574 q 0.04547,0.0648 0.114377,0.10749 0.0689,0.0413 0.128158,0.0413 0.09371,0 0.151584,-0.0744 0.05788,-0.0758 0.05788,-0.19431 v -1.54478 q 0,-0.0786 -0.05374,-0.12678 -0.05237,-0.0482 -0.122645,-0.0482 -0.07166,0 -0.125402,0.0496 -0.05237,0.0482 -0.05237,0.1254 v 1.22094 l -0.906749,-1.25539 q -0.04272,-0.0648 -0.110243,-0.10197 -0.06615,-0.0372 -0.128157,-0.0372 -0.08819,0 -0.148828,0.0648 -0.05926,0.0634 -0.05926,0.17363 v 1.5751 q 0,0.0786 0.05237,0.12678 0.05374,0.0469 0.124023,0.0469 z m 3.640774,0.0358 q 0.347266,0 0.588422,-0.16123 0.07717,-0.0537 0.07717,-0.13918 0,-0.0606 -0.03996,-0.10749 -0.03859,-0.0469 -0.09508,-0.0469 -0.02894,0 -0.05788,0.0152 -0.220486,0.11989 -0.410655,0.11989 -0.286632,0 -0.439594,-0.18603 -0.151584,-0.18741 -0.151584,-0.53192 0,-0.36243 0.151584,-0.54157 0.151584,-0.17915 0.431326,-0.17915 0.05374,0 0.103352,0.007 0.04961,0.007 0.09371,0.0207 0.0441,0.0124 0.07166,0.0234 0.02894,0.01 0.06752,0.0276 0.03996,0.0179 0.05099,0.0221 0.02894,0.011 0.05237,0.011 0.06201,0 0.107486,-0.0496 0.04548,-0.0496 0.04548,-0.11299 0,-0.091 -0.09509,-0.14332 -0.253559,-0.12678 -0.516764,-0.12678 -0.209461,0 -0.389984,0.0744 -0.179145,0.073 -0.310059,0.20671 -0.130913,0.13367 -0.205327,0.33211 -0.07441,0.19843 -0.07441,0.43821 0,0.30731 0.122645,0.54295 0.124023,0.23427 0.337619,0.35967 0.214974,0.1254 0.485069,0.1254 z"
       id="textInC--text"
       aria-label="IN C" /><path
       style="font-size:2.82222px;line-height:1.25;font-family:Nunito;-inkscape-font-specification:Nunito;letter-spacing:0px;word-spacing:0px;fill:#bf9b30;stroke-width:0.264583"
       d="m 4.0853491,182.44848 q 0.081304,0 0.1405597,-0.0565 0.059256,-0.0565 0.059256,-0.14883 v -1.57785 q 0,-0.0923 -0.059256,-0.14883 -0.059256,-0.0565 -0.1391817,-0.0565 -0.079926,0 -0.1391818,0.0565 -0.057878,0.0565 -0.057878,0.14883 v 1.57785 q 0,0.0923 0.057878,0.14883 0.057878,0.0565 0.1378038,0.0565 z m 0.8488709,0.001 q 0.071658,0 0.1254013,-0.0482 0.053744,-0.0482 0.053744,-0.1254 v -1.22094 l 0.8998583,1.24574 q 0.045475,0.0648 0.114377,0.10749 0.068902,0.0413 0.1281575,0.0413 0.093706,0 0.1515841,-0.0744 0.057878,-0.0758 0.057878,-0.19431 v -1.54478 q 0,-0.0786 -0.053743,-0.12678 -0.052365,-0.0482 -0.1226453,-0.0482 -0.071658,0 -0.1254014,0.0496 -0.052365,0.0482 -0.052365,0.1254 v 1.22094 l -0.9067485,-1.25539 q -0.042719,-0.0648 -0.1102429,-0.10197 -0.066146,-0.0372 -0.1281575,-0.0372 -0.088194,0 -0.148828,0.0648 -0.059256,0.0634 -0.059256,0.17363 v 1.5751 q 0,0.0786 0.052365,0.12678 0.053743,0.0469 0.1240234,0.0469 z m 3.9012231,-0.72347 H 8.1546927 l 0.3403752,-0.90813 z m 0.223242,0.59669 q 0.023427,0.0675 0.071658,0.10197 0.048231,0.0331 0.1074869,0.0331 0.074414,0 0.1322916,-0.0496 0.057878,-0.0496 0.057878,-0.1254 0,-0.0344 -0.01378,-0.0703 l -0.6049583,-1.51447 q -0.057878,-0.15296 -0.1336696,-0.20532 -0.074414,-0.0524 -0.1805229,-0.0524 -0.1061088,0 -0.1819009,0.0524 -0.074414,0.0524 -0.1322916,0.20532 l -0.6049583,1.51447 q -0.01378,0.0358 -0.01378,0.0703 0,0.0758 0.057878,0.1254 0.057878,0.0496 0.1322916,0.0496 0.059256,0 0.1074869,-0.0331 0.048231,-0.0344 0.071658,-0.10197 l 0.1240234,-0.33073 h 0.8791877 z"
       id="textInA--text"
       aria-label="IN A" /></g><g
     id="Widgets"
     style="display:inline"
     inkscape:label="Widgets"
     transform="matrix(1,0,0,1.0000544,0,-0.00689912)"><path
       id="param_Offs3--hidden"
       style="display:inline;vector-effect:none;fill:#ff0000;fill-rule:evenodd"
       d="m 32.914165,49.728355 a 4,4 0 0 1 -4,4 4,4 0 0 1 -4,-4 4,4 0 0 1 4,-4 4,4 0 0 1 4,4 z" /><path
       id="param_Scale3--hidden"
       style="display:inline;vector-effect:none;fill:#ff0000;fill-rule:evenodd;stroke-width:1.00006"
       d="m 32.914165,34.886372 a 4,4.0004349 0 0 1 -4,4.000434 4,4.0004349 0 0 1 -4,-4.000434 4,4.0004349 0 0 1 4,-4.000435 4,4.0004349 0 0 1 4,4.000435 z" /><path
       id="input_3--hidden"
       style="display:inline;vector-effect:none;fill:#00ff00;fill-rule:evenodd;stroke-width:1.00322"
       d="m 32.914165,20.031616 a 4.013,4.0127816 0 0 1 -4.013,4.012782 4.013,4.0127816 0 0 1 -4.013,-4.012782 4.013,4.0127816 0 0 1 4.013,-4.012781 4.013,4.0127816 0 0 1 4.013,4.012781 z" /><path
       id="param_Offs2--hidden"
       style="display:inline;vector-effect:none;fill:#ff0000;fill-rule:evenodd"
       d="m 21.780001,49.728355 a 4,4 0 0 1 -4,4 4,4 0 0 1 -4,-4 4,4 0 0 1 4,-4 4,4 0 0 1 4,4 z" /><path
       id="param_Scale2--hidden"
       style="display:inline;vector-effect:none;fill:#ff0000;fill-rule:evenodd;stroke-width:1.00006"
       d="m 21.780001,34.886372 a 4,4.0004349 0 0 1 -4,4.000434 4,4.0004349 0 0 1 -4,-4.000434 4,4.0004349 0 0 1 4,-4.000435 4,4.0004349 0 0 1 4,4.000435 z" /><path
       id="input_2--hidden"
       style="display:inline;vector-effect:none;fill:#00ff00;fill-rule:evenodd;stroke-width:1.00322"
       d="m 21.793001,20.031616 a 4.013,4.0127816 0 0 1 -4.013,4.012782 4.013,4.0127816 0 0 1 -4.013,-4.012782 4.013,4.0127816 0 0 1 4.013,-4.012781 4.013,4.0127816 0 0 1 4.013,4.012781 z" /><path
       id="param_Offs1--hidden"
       style="display:inline;vector-effect:none;fill:#ff0000;fill-rule:evenodd"
       d="m 10.658834,49.728355 a 4,4 0 0 1 -4.0000005,4 4,4 0 0 1 -4,-4 4,4 0 0 1 4,-4 4,4 0 0 1 4.0000005,4 z" /><path
       id="param_Scale1--hidden"
       style="display:inline;vector-effect:none;fill:#ff0000;fill-rule:evenodd;stroke-width:1.00003"
       d="m 10.658834,34.886372 a 4,4.0002174 0 0 1 -4.0000005,4.000217 4,4.0002174 0 0 1 -4,-4.000217 4,4.0002174 0 0 1 4,-4.000218 4,4.0002174 0 0 1 4.0000005,4.000218 z" /><path
       id="input_1--hidden"
       style="display:inline;opacity:1;vector-effect:none;fill:#00ff00;fill-rule:evenodd;stroke-width:1.00322"
       inkscape:label="input_1--hidden"
       d="m 10.671834,20.031616 a 4.013,4.0127816 0 0 1 -4.0130005,4.012782 4.013,4.0127816 0 0 1 -4.013,-4.012782 4.013,4.0127816 0 0 1 4.013,-4.012781 4.013,4.0127816 0 0 1 4.0130005,4.012781 z" /><path
       id="output_Max--hidden"
       style="display:inline;opacity:1;vector-effect:none;fill:#0000ff;fill-rule:evenodd"
       d="m 13.555832,85.852997 a 4,4 0 0 1 -4.0000001,4 4,4 0 0 1 -4,-4 4,4 0 0 1 4,-4 4,4 0 0 1 4.0000001,4 z" /><path
       id="output_Mid--hidden"
       style="display:inline;opacity:1;vector-effect:none;fill:#0000ff;fill-rule:evenodd;stroke-width:1.00003"
       d="m 13.555832,98.488533 a 4,4.0002174 0 0 1 -4.0000001,4.000217 4,4.0002174 0 0 1 -4,-4.000217 4,4.0002174 0 0 1 4,-4.000217 4,4.0002174 0 0 1 4.0000001,4.000217 z" /><path
       id="output_Min--hidden"
       style="display:inline;opacity:1;vector-effect:none;fill:#0000ff;fill-rule:evenodd"
       d="m 13.555832,111.12424 a 4,4 0 0 1 -4.0000001,4 4,4 0 0 1 -4,-4 4,4 0 0 1 4,-4 4,4 0 0 1 4.0000001,4 z" /><path
       id="light_MinOut--hidden"
       style="display:inline;vector-effect:none;fill:#0000ff;fill-rule:evenodd;stroke-width:1.00003"
       d="m 27.880503,111.12424 a 2,1.9998912 0 0 1 -2,1.99989 2,1.9998912 0 0 1 -2,-1.99989 2,1.9998912 0 0 1 2,-1.99989 2,1.9998912 0 0 1 2,1.99989 z" /><path
       id="light_MidOut--hidden"
       style="display:inline;vector-effect:none;fill:#0000ff;fill-rule:evenodd;stroke-width:1.00003"
       d="m 27.880503,98.488533 a 2,1.9998912 0 0 1 -2,1.999887 2,1.9998912 0 0 1 -2,-1.999887 2,1.9998912 0 0 1 2,-1.999891 2,1.9998912 0 0 1 2,1.999891 z" /><path
       id="light_MaxOut--hidden"
       style="display:inline;vector-effect:none;fill:#0000ff;fill-rule:evenodd;stroke-width:1.00003"
       d="m 27.880503,85.852997 a 2,1.9998912 0 0 1 -2,1.999891 2,1.9998912 0 0 1 -2,-1.999891 2,1.9998912 0 0 1 2,-1.999891 2,1.9998912 0 0 1 2,1.999891 z" /><path
       id="widgetLogo--hidden"
       style="fill:#ffff00;stroke-width:3.76997;paint-order:stroke fill markers"
       d="m 13.420501,118.18763 h 8.719 v 8.719 h -8.719 z" /></g></svg>
