<?xml version="1.0" encoding="UTF-8" standalone="no"?>
<!-- Created with Inkscape (http://www.inkscape.org/) -->

<svg
   width="90"
   height="380"
   viewBox="0 0 90.000003 380.00001"
   version="1.1"
   id="svg8"
   inkscape:version="1.4.2 (ebf0e94, 2025-05-08)"
   sodipodi:docname="Meta.svg"
   xml:space="preserve"
   xmlns:inkscape="http://www.inkscape.org/namespaces/inkscape"
   xmlns:sodipodi="http://sodipodi.sourceforge.net/DTD/sodipodi-0.dtd"
   xmlns="http://www.w3.org/2000/svg"
   xmlns:svg="http://www.w3.org/2000/svg"
   xmlns:rdf="http://www.w3.org/1999/02/22-rdf-syntax-ns#"
   xmlns:cc="http://creativecommons.org/ns#"
   xmlns:dc="http://purl.org/dc/elements/1.1/"><defs
     id="defs2"><linearGradient
       id="uuid-f0636bc7-c65b-4b70-b857-f875576c11d6"
       x1="37.5"
       y1="0"
       x2="37.5"
       y2="380"
       gradientUnits="userSpaceOnUse"><stop
         offset="0"
         stop-color="#ebebeb"
         id="stop2" /><stop
         offset="1"
         stop-color="#e1e1e1"
         id="stop4" /></linearGradient></defs><sodipodi:namedview
     id="base"
     pagecolor="#ffffff"
     bordercolor="#666666"
     borderopacity="1.0"
     inkscape:pageopacity="0.0"
     inkscape:pageshadow="2"
     inkscape:zoom="1.8152902"
     inkscape:cx="-187.57331"
     inkscape:cy="274.3363"
     inkscape:document-units="px"
     inkscape:current-layer="layer1"
     showgrid="true"
     units="mm"
     inkscape:snap-bbox="true"
     inkscape:snap-page="true"
     inkscape:bbox-nodes="false"
     inkscape:snap-bbox-edge-midpoints="false"
     inkscape:window-width="1920"
     inkscape:window-height="1027"
     inkscape:window-x="-8"
     inkscape:window-y="22"
     inkscape:window-maximized="1"
     inkscape:snap-bbox-midpoints="true"
     inkscape:snap-nodes="false"
     inkscape:showpageshadow="2"
     inkscape:pagecheckerboard="0"
     inkscape:deskcolor="#d1d1d1"
     showguides="false"><inkscape:grid
       id="grid1"
       units="px"
       originx="0"
       originy="0"
       spacingx="1"
       spacingy="1"
       empcolor="#3f3fff"
       empopacity="0.25098039"
       color="#3f3fff"
       opacity="0.1254902"
       empspacing="5"
       dotted="false"
       gridanglex="30"
       gridanglez="30"
       visible="true"
       snapvisiblegridlinesonly="true" /></sodipodi:namedview><metadata
     id="metadata5"><rdf:RDF><cc:Work
         rdf:about=""><dc:format>image/svg+xml</dc:format><dc:type
           rdf:resource="http://purl.org/dc/dcmitype/StillImage" /></cc:Work></rdf:RDF></metadata><g
     inkscape:label="Layer 1"
     inkscape:groupmode="layer"
     id="layer1"
     transform="translate(0,-168.49997)"
     style="display:inline"><path
       id="bg--background-fill"
       style="display:inline;opacity:1;vector-effect:none;fill:#1f1f1f;fill-rule:evenodd;stroke-width:1.91884"
       d="m 0,168.49997 h 90 v 380 H 0 Z" /><path
       id="footer--hidden"
       style="display:inline;fill:#707070;stroke-width:0.878945;paint-order:stroke fill markers"
       d="m 0,513.5 h 90 v 35 H 0 Z" /><path
       id="header--hidden"
       style="display:inline;fill:#707070;stroke-width:0.878945;paint-order:stroke fill markers"
       d="m 0,168.49997 h 90 v 35 H 0 Z" /><path
       id="outBlock--output-fill"
       style="display:inline;fill:#bf9b30;stroke-width:0.817549"
       d="m 11.999999,471.49997 h 66 c 2.216,0 4,1.784 4,4 v 34 c 0,2.216 -1.784,4 -4,4 h -66 c -2.2160004,0 -4.0000004,-1.784 -4.0000004,-4 v -34 c 0,-2.216 1.784,-4 4.0000004,-4 z" /><path
       style="font-weight:500;font-size:10px;line-height:1.25;font-family:Sono;-inkscape-font-specification:'Sono Medium';text-align:center;letter-spacing:0px;word-spacing:0px;text-anchor:middle;fill:#1f1f1f"
       d="m 51.482507,476.13 v 1.925 h 1.255 q 0.515,0 0.8,-0.255 0.29,-0.255 0.29,-0.735 0,-0.48 -0.3,-0.705 -0.295,-0.23 -0.825,-0.23 z m -1.11,4.775 v -4.93 q 0,-0.665 0.665,-0.665 h 1.845 q 0.345,0 0.705,0.07 0.36,0.065 0.665,0.25 0.31,0.185 0.5,0.52 0.19,0.33 0.19,0.865 0,0.67 -0.32,1.065 -0.32,0.39 -0.775,0.545 l 0.96,2.175 q 0.04,0.09 0.06,0.175 0.02,0.08 0.02,0.155 0,0.205 -0.135,0.325 -0.13,0.115 -0.375,0.115 -0.3,0 -0.43,-0.15 -0.13,-0.15 -0.24,-0.43 l -0.905,-2.115 h -1.32 v 2.03 q 0,0.665 -0.56,0.665 -0.55,0 -0.55,-0.665 z m 6.15,0.595 q -0.265,0 -0.41,-0.105 -0.145,-0.11 -0.145,-0.305 0,-0.2 0.145,-0.305 0.145,-0.105 0.41,-0.105 h 0.825 v -4.55 h -0.825 q -0.265,0 -0.41,-0.105 -0.145,-0.11 -0.145,-0.31 0,-0.195 0.145,-0.3 0.145,-0.105 0.41,-0.105 h 2.69 q 0.27,0 0.41,0.105 0.145,0.105 0.145,0.3 0,0.2 -0.145,0.31 -0.14,0.105 -0.41,0.105 h -0.8 v 4.55 h 0.8 q 0.27,0 0.41,0.105 0.145,0.105 0.145,0.305 0,0.195 -0.145,0.305 -0.14,0.105 -0.41,0.105 z m 6.984995,0.105 q -0.53,0 -1.02,-0.175 -0.49,-0.18 -0.88,-0.56 -0.39,-0.38 -0.62,-0.985 -0.225,-0.605 -0.225,-1.46 0,-0.86 0.24,-1.46 0.24,-0.605 0.645,-0.985 0.41,-0.38 0.915,-0.555 0.505,-0.175 1.035,-0.175 0.57,0 0.995,0.16 0.425,0.16 0.73,0.455 0.145,0.125 0.21,0.255 0.065,0.13 0.065,0.255 0,0.195 -0.15,0.32 -0.145,0.125 -0.325,0.125 -0.135,0 -0.265,-0.07 -0.13,-0.07 -0.23,-0.18 -0.165,-0.19 -0.41,-0.335 -0.245,-0.15 -0.615,-0.15 -0.43,0 -0.825,0.24 -0.395,0.235 -0.645,0.75 -0.25,0.515 -0.25,1.35 0,0.855 0.245,1.37 0.245,0.515 0.63,0.745 0.385,0.23 0.81,0.23 0.4,0 0.69,-0.18 0.29,-0.185 0.45,-0.55 0.165,-0.365 0.175,-0.915 h -0.98 q -0.25,0 -0.395,-0.09 -0.14,-0.095 -0.14,-0.3 0,-0.21 0.135,-0.3 0.14,-0.095 0.39,-0.095 h 1.47 q 0.325,0 0.47,0.16 0.145,0.155 0.145,0.455 0,0.89 -0.325,1.48 -0.325,0.585 -0.885,0.88 -0.56,0.29 -1.26,0.29 z m 7.135006,-5.675 q 0,-0.67 0.555,-0.67 0.555,0 0.555,0.67 v 4.975 q 0,0.665 -0.555,0.665 -0.555,0 -0.555,-0.665 v -2.17 h -2.465 v 2.17 q 0,0.665 -0.555,0.665 -0.55,0 -0.55,-0.665 v -4.975 q 0,-0.33 0.14,-0.5 0.145,-0.17 0.41,-0.17 0.555,0 0.555,0.67 v 1.99 h 2.465 z m 6.364993,-0.62 q 0.62,0 0.62,0.405 0,0.2 -0.17,0.31 -0.165,0.105 -0.42,0.105 h -1.35 v 4.775 q 0,0.665 -0.555,0.665 -0.555,0 -0.555,-0.665 v -4.775 h -1.29 q -0.305,0 -0.475,-0.105 -0.165,-0.11 -0.165,-0.31 0,-0.195 0.165,-0.3 0.17,-0.105 0.475,-0.105 z"
       id="outRight--text-output"
       aria-label="RIGHT" /><path
       style="font-weight:500;font-size:10px;line-height:1.25;font-family:Sono;-inkscape-font-specification:'Sono Medium';letter-spacing:0px;word-spacing:0px;fill:#1f1f1f"
       d="m 17.145007,480.68 h 2.17 q 0.285,0 0.45,0.11 0.165,0.105 0.165,0.3 0,0.195 -0.165,0.305 -0.165,0.105 -0.45,0.105 h -2.615 q -0.665,0 -0.665,-0.67 v -4.9 q 0,-0.67 0.555,-0.67 0.555,0 0.555,0.67 z M 25.005,475.715 q 0,0.415 -0.64,0.415 H 21.91 v 1.85 h 2.01 q 0.325,0 0.46,0.105 0.135,0.105 0.135,0.305 0,0.195 -0.135,0.305 -0.135,0.105 -0.46,0.105 h -2.01 v 1.88 h 2.455 q 0.64,0 0.64,0.41 0,0.41 -0.64,0.41 h -2.9 q -0.665,0 -0.665,-0.67 v -4.855 q 0,-0.665 0.665,-0.665 h 2.9 q 0.64,0 0.64,0.405 z m 5.240004,0 q 0,0.2 -0.165,0.31 -0.165,0.105 -0.455,0.105 h -2.34 v 2.295 h 1.935 q 0.575,0 0.575,0.415 0,0.405 -0.575,0.405 h -1.935 v 1.66 q 0,0.665 -0.555,0.665 -0.555,0 -0.555,-0.665 v -4.93 q 0,-0.665 0.665,-0.665 h 2.785 q 0.29,0 0.455,0.105 0.165,0.1 0.165,0.3 z m 5.099994,-0.405 q 0.62,0 0.62,0.405 0,0.2 -0.17,0.31 -0.165,0.105 -0.42,0.105 h -1.35 v 4.775 q 0,0.665 -0.555,0.665 -0.555,0 -0.555,-0.665 v -4.775 h -1.29 q -0.305,0 -0.475,-0.105 -0.165,-0.11 -0.165,-0.31 0,-0.195 0.165,-0.3 0.17,-0.105 0.475,-0.105 z"
       id="outLeft--text-output"
       aria-label="LEFT" /><path
       style="font-weight:500;font-size:10px;line-height:1.25;font-family:Sono;-inkscape-font-specification:'Sono Medium';letter-spacing:0px;word-spacing:0px;fill:#bf9b30"
       d="m 51.482507,434.12997 v 1.925 h 1.255 q 0.515,0 0.8,-0.255 0.29,-0.255 0.29,-0.735 0,-0.48 -0.3,-0.705 -0.295,-0.23 -0.825,-0.23 z m -1.11,4.775 v -4.93 q 0,-0.665 0.665,-0.665 h 1.845 q 0.345,0 0.705,0.07 0.36,0.065 0.665,0.25 0.31,0.185 0.5,0.52 0.19,0.33 0.19,0.865 0,0.67 -0.32,1.065 -0.32,0.39 -0.775,0.545 l 0.96,2.175 q 0.04,0.09 0.06,0.175 0.02,0.08 0.02,0.155 0,0.205 -0.135,0.325 -0.13,0.115 -0.375,0.115 -0.3,0 -0.43,-0.15 -0.13,-0.15 -0.24,-0.43 l -0.905,-2.115 h -1.32 v 2.03 q 0,0.665 -0.56,0.665 -0.55,0 -0.55,-0.665 z m 6.15,0.595 q -0.265,0 -0.41,-0.105 -0.145,-0.11 -0.145,-0.305 0,-0.2 0.145,-0.305 0.145,-0.105 0.41,-0.105 h 0.825 v -4.55 h -0.825 q -0.265,0 -0.41,-0.105 -0.145,-0.11 -0.145,-0.31 0,-0.195 0.145,-0.3 0.145,-0.105 0.41,-0.105 h 2.69 q 0.27,0 0.41,0.105 0.145,0.105 0.145,0.3 0,0.2 -0.145,0.31 -0.14,0.105 -0.41,0.105 h -0.8 v 4.55 h 0.8 q 0.27,0 0.41,0.105 0.145,0.105 0.145,0.305 0,0.195 -0.145,0.305 -0.14,0.105 -0.41,0.105 z m 6.984995,0.105 q -0.53,0 -1.02,-0.175 -0.49,-0.18 -0.88,-0.56 -0.39,-0.38 -0.62,-0.985 -0.225,-0.605 -0.225,-1.46 0,-0.86 0.24,-1.46 0.24,-0.605 0.645,-0.985 0.41,-0.38 0.915,-0.555 0.505,-0.175 1.035,-0.175 0.57,0 0.995,0.16 0.425,0.16 0.73,0.455 0.145,0.125 0.21,0.255 0.065,0.13 0.065,0.255 0,0.195 -0.15,0.32 -0.145,0.125 -0.325,0.125 -0.135,0 -0.265,-0.07 -0.13,-0.07 -0.23,-0.18 -0.165,-0.19 -0.41,-0.335 -0.245,-0.15 -0.615,-0.15 -0.43,0 -0.825,0.24 -0.395,0.235 -0.645,0.75 -0.25,0.515 -0.25,1.35 0,0.855 0.245,1.37 0.245,0.515 0.63,0.745 0.385,0.23 0.81,0.23 0.4,0 0.69,-0.18 0.29,-0.185 0.45,-0.55 0.165,-0.365 0.175,-0.915 h -0.98 q -0.25,0 -0.395,-0.09 -0.14,-0.095 -0.14,-0.3 0,-0.21 0.135,-0.3 0.14,-0.095 0.39,-0.095 h 1.47 q 0.325,0 0.47,0.16 0.145,0.155 0.145,0.455 0,0.89 -0.325,1.48 -0.325,0.585 -0.885,0.88 -0.56,0.29 -1.26,0.29 z m 7.135006,-5.675 q 0,-0.67 0.555,-0.67 0.555,0 0.555,0.67 v 4.975 q 0,0.665 -0.555,0.665 -0.555,0 -0.555,-0.665 v -2.17 h -2.465 v 2.17 q 0,0.665 -0.555,0.665 -0.55,0 -0.55,-0.665 v -4.975 q 0,-0.33 0.14,-0.5 0.145,-0.17 0.41,-0.17 0.555,0 0.555,0.67 v 1.99 h 2.465 z m 6.364993,-0.62 q 0.62,0 0.62,0.405 0,0.2 -0.17,0.31 -0.165,0.105 -0.42,0.105 h -1.35 v 4.775 q 0,0.665 -0.555,0.665 -0.555,0 -0.555,-0.665 v -4.775 h -1.29 q -0.305,0 -0.475,-0.105 -0.165,-0.11 -0.165,-0.31 0,-0.195 0.165,-0.3 0.17,-0.105 0.475,-0.105 z"
       id="inRight--text"
       aria-label="RIGHT" /><path
       style="font-weight:500;font-size:10px;line-height:1.25;font-family:Sono;-inkscape-font-specification:'Sono Medium';letter-spacing:0px;word-spacing:0px;fill:#bf9b30"
       d="m 17.145007,438.67997 h 2.17 q 0.285,0 0.45,0.11 0.165,0.105 0.165,0.3 0,0.195 -0.165,0.305 -0.165,0.105 -0.45,0.105 h -2.615 q -0.665,0 -0.665,-0.67 v -4.9 q 0,-0.67 0.555,-0.67 0.555,0 0.555,0.67 z m 7.859993,-4.965 q 0,0.415 -0.64,0.415 H 21.91 v 1.85 h 2.01 q 0.325,0 0.46,0.105 0.135,0.105 0.135,0.305 0,0.195 -0.135,0.305 -0.135,0.105 -0.46,0.105 h -2.01 v 1.88 h 2.455 q 0.64,0 0.64,0.41 0,0.41 -0.64,0.41 h -2.9 q -0.665,0 -0.665,-0.67 v -4.855 q 0,-0.665 0.665,-0.665 h 2.9 q 0.64,0 0.64,0.405 z m 5.240004,0 q 0,0.2 -0.165,0.31 -0.165,0.105 -0.455,0.105 h -2.34 v 2.295 h 1.935 q 0.575,0 0.575,0.415 0,0.405 -0.575,0.405 h -1.935 v 1.66 q 0,0.665 -0.555,0.665 -0.555,0 -0.555,-0.665 v -4.93 q 0,-0.665 0.665,-0.665 h 2.785 q 0.29,0 0.455,0.105 0.165,0.1 0.165,0.3 z m 5.099994,-0.405 q 0.62,0 0.62,0.405 0,0.2 -0.17,0.31 -0.165,0.105 -0.42,0.105 h -1.35 v 4.775 q 0,0.665 -0.555,0.665 -0.555,0 -0.555,-0.665 v -4.775 h -1.29 q -0.305,0 -0.475,-0.105 -0.165,-0.11 -0.165,-0.31 0,-0.195 0.165,-0.3 0.17,-0.105 0.475,-0.105 z"
       id="inLeft--text"
       aria-label="LEFT" /><path
       style="font-weight:500;font-size:16px;line-height:1.25;font-family:Sono;-inkscape-font-specification:'Sono Medium';letter-spacing:0px;word-spacing:0px;fill:#bf9b30;stroke-width:0.781836"
       d="m 49.519147,190.89221 q -0.392,0 -0.632,-0.232 -0.24,-0.24 -0.24,-0.68 0,-0.144 0,-0.6 0,-0.464 0,-1.128 0,-0.664 0,-1.424 0,-0.768 0,-1.536 0,-0.768 0,-1.44 0,-0.672 0,-1.144 0,-0.48 0,-0.648 0,-0.424 0.16,-0.712 0.16,-0.296 0.432,-0.44 0.28,-0.152 0.608,-0.152 h 0.056 q 0.488,0 0.824,0.312 0.344,0.312 0.544,0.784 l 1.92,4.416 1.928,-4.416 q 0.208,-0.472 0.544,-0.784 0.344,-0.312 0.832,-0.312 h 0.048 q 0.328,0 0.6,0.152 0.272,0.152 0.432,0.44 0.16,0.288 0.16,0.712 0,0.168 0,0.648 0,0.472 0,1.144 0,0.672 0,1.44 0,0.768 0,1.536 0,0.76 0,1.424 0,0.664 0,1.128 0,0.456 0,0.6 0,0.44 -0.216,0.68 -0.216,0.232 -0.608,0.232 -0.896,0 -0.896,-1.032 v -5.736 l -1.856,4.224 q -0.2,0.464 -0.384,0.704 -0.176,0.24 -0.584,0.24 -0.408,0 -0.584,-0.24 -0.176,-0.24 -0.384,-0.704 l -1.872,-4.28 v 5.792 q 0,0.512 -0.2,0.776 -0.2,0.256 -0.632,0.256 z m 16.839992,-9.336 q 0,0.664 -1.024,0.664 h -3.928 v 2.96 h 3.216 q 0.52,0 0.736,0.168 0.216,0.168 0.216,0.488 0,0.312 -0.216,0.488 -0.216,0.168 -0.736,0.168 h -3.216 v 3.008 h 3.928 q 1.024,0 1.024,0.656 0,0.656 -1.024,0.656 h -4.64 q -1.064,0 -1.064,-1.072 v -7.768 q 0,-1.064 1.064,-1.064 h 4.64 q 1.024,0 1.024,0.648 z m 8.248006,-0.648 q 0.992,0 0.992,0.648 0,0.32 -0.272,0.496 -0.264,0.168 -0.672,0.168 h -2.16 v 7.64 q 0,1.064 -0.888,1.064 -0.888,0 -0.888,-1.064 v -7.64 h -2.064 q -0.488,0 -0.76,-0.168 -0.264,-0.176 -0.264,-0.496 0,-0.312 0.264,-0.48 0.272,-0.168 0.76,-0.168 z m 1.848,10.056 q -0.352,0 -0.576,-0.2 -0.216,-0.2 -0.216,-0.576 0,-0.088 0.016,-0.192 0.016,-0.104 0.048,-0.216 l 2.736,-7.92 q 0.152,-0.456 0.456,-0.72 0.312,-0.272 0.736,-0.272 h 0.408 q 0.432,0 0.736,0.272 0.312,0.264 0.456,0.72 l 2.736,7.92 q 0.04,0.112 0.056,0.216 0.016,0.104 0.016,0.192 0,0.376 -0.224,0.576 -0.224,0.2 -0.584,0.2 -0.44,0 -0.648,-0.232 -0.208,-0.232 -0.344,-0.712 l -0.608,-1.768 h -3.592 l -0.608,1.768 q -0.128,0.48 -0.344,0.712 -0.208,0.232 -0.656,0.232 z m 1.976,-4.024 h 2.864 l -1.352,-4.08 q -0.024,-0.088 -0.048,-0.176 -0.024,-0.096 -0.04,-0.168 -0.008,0.072 -0.032,0.168 -0.016,0.088 -0.04,0.176 z"
       id="moduleName--moduleName"
       transform="scale(0.99924857,1.000752)"
       aria-label="META" /></g><g
     id="Widgets"
     style="display:inline"
     inkscape:label="Widgets"
     transform="matrix(2.9527559,0,0,2.9571984,0,0.08964954)"><path
       id="input_2--hidden"
       style="display:inline;vector-effect:none;fill:#00ff00;fill-rule:evenodd;stroke-width:1.01524"
       d="m 25.738667,97.021004 a 4.0640001,4.0578947 0 0 1 -4.064,4.057896 4.0640001,4.0578947 0 0 1 -4.064,-4.057896 4.0640001,4.0578947 0 0 1 4.064,-4.057895 4.0640001,4.0578947 0 0 1 4.064,4.057895 z" /><path
       id="input_1--hidden"
       style="display:inline;vector-effect:none;fill:#00ff00;fill-rule:evenodd;stroke-width:1.01524"
       d="M 12.869333,97.021004 A 4.0640001,4.0578947 0 0 1 8.8053331,101.0789 4.0640001,4.0578947 0 0 1 4.741333,97.021004 4.0640001,4.0578947 0 0 1 8.8053331,92.963109 4.0640001,4.0578947 0 0 1 12.869333,97.021004 Z" /><path
       id="output_2--hidden"
       style="display:inline;vector-effect:none;fill:#0000ff;fill-rule:evenodd;stroke-width:1.01524"
       d="m 25.738666,111.22365 a 4.0640001,4.0578947 0 0 1 -4.064001,4.05789 4.0640001,4.0578947 0 0 1 -4.064,-4.05789 4.0640001,4.0578947 0 0 1 4.064,-4.0579 4.0640001,4.0578947 0 0 1 4.064001,4.0579 z" /><path
       id="output_1--hidden"
       style="display:inline;vector-effect:none;fill:#0000ff;fill-rule:evenodd;stroke-width:1.01524"
       d="m 12.869333,111.22365 a 4.0640001,4.0578947 0 0 1 -4.0639999,4.05789 4.0640001,4.0578947 0 0 1 -4.0640001,-4.05789 4.0640001,4.0578947 0 0 1 4.0640001,-4.0579 4.0640001,4.0578947 0 0 1 4.0639999,4.0579 z" /><path
       id="widgetLogo--hidden"
       style="display:inline;fill:#ffff00;stroke-width:0.290457"
       d="M 2.5400002,13.496 H 27.94 V 88.228895 H 2.5400002 Z" /></g></svg>
