<?xml version="1.0" encoding="UTF-8" standalone="no"?>
<!-- Created with Inkscape (http://www.inkscape.org/) -->

<svg
   width="30.48mm"
   height="128.5mm"
   viewBox="0 0 30.480002 128.50002"
   version="1.1"
   id="svg8"
   inkscape:version="1.3.2 (091e20e, 2023-11-25, custom)"
   sodipodi:docname="Meta.svg"
   xml:space="preserve"
   xmlns:inkscape="http://www.inkscape.org/namespaces/inkscape"
   xmlns:sodipodi="http://sodipodi.sourceforge.net/DTD/sodipodi-0.dtd"
   xmlns="http://www.w3.org/2000/svg"
   xmlns:svg="http://www.w3.org/2000/svg"
   xmlns:rdf="http://www.w3.org/1999/02/22-rdf-syntax-ns#"
   xmlns:cc="http://creativecommons.org/ns#"
   xmlns:dc="http://purl.org/dc/elements/1.1/"><defs
     id="defs2"><linearGradient
       id="uuid-f0636bc7-c65b-4b70-b857-f875576c11d6"
       x1="37.5"
       y1="0"
       x2="37.5"
       y2="380"
       gradientUnits="userSpaceOnUse"><stop
         offset="0"
         stop-color="#ebebeb"
         id="stop2" /><stop
         offset="1"
         stop-color="#e1e1e1"
         id="stop4" /></linearGradient></defs><sodipodi:namedview
     id="base"
     pagecolor="#ffffff"
     bordercolor="#666666"
     borderopacity="1.0"
     inkscape:pageopacity="0.0"
     inkscape:pageshadow="2"
     inkscape:zoom="1.283604"
     inkscape:cx="-49.859614"
     inkscape:cy="189.70025"
     inkscape:document-units="mm"
     inkscape:current-layer="layer1"
     showgrid="true"
     units="mm"
     inkscape:snap-bbox="true"
     inkscape:snap-page="true"
     inkscape:bbox-nodes="false"
     inkscape:snap-bbox-edge-midpoints="false"
     inkscape:window-width="1920"
     inkscape:window-height="1027"
     inkscape:window-x="-8"
     inkscape:window-y="22"
     inkscape:window-maximized="1"
     inkscape:snap-bbox-midpoints="true"
     inkscape:snap-nodes="false"
     inkscape:showpageshadow="2"
     inkscape:pagecheckerboard="0"
     inkscape:deskcolor="#d1d1d1"><inkscape:grid
       id="grid1"
       units="px"
       originx="0"
       originy="0"
       spacingx="0.26458336"
       spacingy="0.26458338"
       empcolor="#3f3fff"
       empopacity="0.25098039"
       color="#3f3fff"
       opacity="0.1254902"
       empspacing="5"
       dotted="false"
       gridanglex="30"
       gridanglez="30"
       visible="true" /></sodipodi:namedview><metadata
     id="metadata5"><rdf:RDF><cc:Work
         rdf:about=""><dc:format>image/svg+xml</dc:format><dc:type
           rdf:resource="http://purl.org/dc/dcmitype/StillImage" /></cc:Work></rdf:RDF></metadata><g
     inkscape:label="Layer 1"
     inkscape:groupmode="layer"
     id="layer1"
     transform="translate(0,-168.49998)"
     style="display:inline"><path
       id="bg--background-fill"
       style="display:inline;opacity:1;vector-effect:none;fill:#1f1f1f;fill-rule:evenodd;stroke-width:0.649358"
       d="m 0,168.49997 h 30.48 v 128.5 H 0 Z" /><path
       id="outBlock--output-fill"
       style="display:inline;fill:#e6e6e6;stroke-width:0.264583"
       d="M 3.9687505,271.86993 H 26.458332 c 0.586317,0 1.058333,0.59002 1.058333,1.32291 v 10.58334 c 0,0.73289 -0.472016,1.32291 -1.058333,1.32291 H 3.9687505 c -0.586317,0 -1.0583339,-0.59002 -1.0583339,-1.32291 v -10.58334 c 0,-0.73289 0.4720169,-1.32291 1.0583339,-1.32291 z" /><path
       style="font-size:2.82222px;line-height:1.25;font-family:Nunito;-inkscape-font-specification:Nunito;letter-spacing:0px;word-spacing:0px;fill:#ffffff;stroke-width:0.264583"
       d="m 17.211677,261.30224 q 0.0813,0 0.139182,-0.0537 0.05926,-0.0537 0.05926,-0.15021 v -0.6463 h 0.361045 0.0055 q 0.09646,0 0.158474,0.0179 0.06339,0.0179 0.101975,0.0606 0.03859,0.0413 0.0565,0.0992 0.01792,0.0579 0.02756,0.15021 l 0.03445,0.31832 q 0.0096,0.1006 0.0689,0.15296 0.05926,0.051 0.141937,0.051 0.07993,0 0.132292,-0.0524 0.05374,-0.0524 0.05374,-0.14608 0,-0.0234 -0.0014,-0.0358 l -0.03859,-0.32522 q -0.02205,-0.19568 -0.117133,-0.30868 -0.09371,-0.11438 -0.285253,-0.15159 v -0.006 q 0.22462,-0.0358 0.336241,-0.15709 0.111621,-0.12265 0.111621,-0.29904 0,-0.50574 -0.726226,-0.50574 H 17.22408 q -0.08682,0 -0.148828,0.0579 -0.06063,0.0565 -0.06063,0.14469 v 1.58061 q 0,0.0951 0.05788,0.15021 0.05788,0.0537 0.139181,0.0537 z m 0.19706,-1.14377 v -0.5457 h 0.336241 0.02894 q 0.04961,0 0.08131,0.001 0.03169,0.001 0.07717,0.007 0.04547,0.004 0.07304,0.0152 0.02894,0.01 0.06201,0.0289 0.03307,0.0193 0.05099,0.0469 0.01929,0.0276 0.03169,0.0703 0.0124,0.0413 0.0124,0.0951 0,0.0565 -0.01516,0.1006 -0.01516,0.0441 -0.03859,0.073 -0.02343,0.0289 -0.06339,0.0496 -0.03859,0.0207 -0.07579,0.0317 -0.03583,0.011 -0.08957,0.0179 -0.05236,0.006 -0.09233,0.007 -0.03859,0.001 -0.09646,0.001 z m 1.770777,1.14377 q 0.08131,0 0.14056,-0.0565 0.05926,-0.0565 0.05926,-0.14883 v -1.57785 q 0,-0.0923 -0.05926,-0.14883 -0.05926,-0.0565 -0.139182,-0.0565 -0.07993,0 -0.139181,0.0565 -0.05788,0.0565 -0.05788,0.14883 v 1.57785 q 0,0.0923 0.05788,0.14883 0.05788,0.0565 0.137803,0.0565 z m 1.60128,0.0372 q 0.208083,0 0.577397,-0.0813 0.103353,-0.0248 0.146072,-0.0827 0.0441,-0.0579 0.0441,-0.18328 v -0.57877 q 0,-0.18604 -0.150206,-0.18604 h -0.5333 q -0.06063,0 -0.09509,0.0441 -0.03307,0.0427 -0.03307,0.0978 0,0.0593 0.03583,0.1006 0.03583,0.04 0.09784,0.04 h 0.28801 v 0.46991 q -0.181901,0.0427 -0.35829,0.0427 -0.607714,0 -0.607714,-0.72347 0,-0.16674 0.03445,-0.29628 0.03445,-0.12953 0.107487,-0.226 0.07304,-0.0978 0.194303,-0.14882 0.121267,-0.0524 0.285254,-0.0524 0.194303,0 0.480934,0.0882 0.02067,0.011 0.04685,0.011 0.06063,0 0.09922,-0.0482 0.03859,-0.0496 0.03859,-0.11162 0,-0.0386 -0.02205,-0.0744 -0.02205,-0.0372 -0.06477,-0.0593 -0.253559,-0.12127 -0.593934,-0.12127 -0.252181,0 -0.450618,0.0813 -0.198437,0.0813 -0.322461,0.22462 -0.124023,0.14332 -0.187413,0.32936 -0.06339,0.18603 -0.06339,0.40514 0,0.33486 0.125401,0.57051 0.125401,0.23564 0.350021,0.35277 0.22462,0.11576 0.530545,0.11576 z m 1.339452,-0.0372 q 0.0813,0 0.139181,-0.0565 0.05926,-0.0565 0.05926,-0.14883 v -0.66145 h 0.854383 v 0.66145 q 0,0.0923 0.05926,0.14883 0.05926,0.0565 0.139181,0.0565 0.08131,0 0.139182,-0.0565 0.05788,-0.0565 0.05788,-0.14883 v -1.57371 q 0,-0.0923 -0.05788,-0.14883 -0.05788,-0.0565 -0.137804,-0.0565 -0.0813,0 -0.140559,0.0565 -0.05926,0.0565 -0.05926,0.14883 v 0.5898 h -0.854383 v -0.5898 q 0,-0.0923 -0.05926,-0.14883 -0.05788,-0.0565 -0.137803,-0.0565 -0.0813,0 -0.14056,0.0565 -0.05788,0.0565 -0.05788,0.14883 v 1.57371 q 0,0.0923 0.05788,0.14883 0.05926,0.0565 0.139182,0.0565 z m 2.422589,0.003 q 0.0813,0 0.139181,-0.0565 0.05926,-0.0579 0.05926,-0.15021 v -1.46899 h 0.447862 q 0.0689,0 0.110243,-0.0469 0.04134,-0.0469 0.04134,-0.11024 0,-0.062 -0.04272,-0.10887 -0.04134,-0.0482 -0.108865,-0.0482 h -1.292599 q -0.0689,0 -0.111621,0.0482 -0.04134,0.0469 -0.04134,0.11025 0,0.0634 0.04134,0.11024 0.04134,0.0455 0.111621,0.0455 h 0.44924 v 1.46899 q 0,0.0923 0.05788,0.15021 0.05926,0.0565 0.139182,0.0565 z"
       id="inRight--text"
       aria-label="RIGHT" /><path
       style="font-size:2.82222px;line-height:1.25;font-family:Nunito;-inkscape-font-specification:Nunito;letter-spacing:0px;word-spacing:0px;fill:#ffffff;stroke-width:0.264583"
       d="m 6.3104555,261.3035 h 0.9728942 q 0.067524,0 0.1074869,-0.0469 0.041341,-0.0469 0.041341,-0.10886 0,-0.0634 -0.041341,-0.11024 -0.039963,-0.0482 -0.1074869,-0.0482 H 6.5061368 l -0.00138,-1.46623 q 0,-0.0923 -0.057878,-0.14882 -0.057878,-0.0565 -0.1378037,-0.0565 -0.081304,0 -0.1405598,0.0565 -0.059256,0.0565 -0.059256,0.14882 v 1.53927 q 0,0.0992 0.0565,0.17088 0.0565,0.0703 0.1446939,0.0703 z m 1.5654502,0 h 1.0211255 q 0.066146,0 0.1047308,-0.0455 0.039963,-0.0469 0.039963,-0.10886 0,-0.062 -0.039963,-0.10887 -0.038585,-0.0469 -0.1047308,-0.0469 H 8.074343 v -0.55259 h 0.7372499 q 0.067524,0 0.1074869,-0.0455 0.041341,-0.0455 0.041341,-0.10749 0,-0.062 -0.039963,-0.10748 -0.039963,-0.0455 -0.1088649,-0.0455 H 8.074343 v -0.50712 h 0.7909934 q 0.067524,0 0.1074868,-0.0469 0.039963,-0.0468 0.039963,-0.10886 0,-0.062 -0.039963,-0.10887 -0.039963,-0.0469 -0.1074868,-0.0469 H 7.8855519 q -0.097841,0 -0.1515841,0.0661 -0.052365,0.0648 -0.052365,0.16675 v 1.53237 q 0,0.0868 0.0565,0.15434 0.0565,0.0675 0.1378037,0.0675 z m 1.7308146,0 q 0.081304,0 0.1405597,-0.0565 0.059256,-0.0565 0.059256,-0.14883 v -0.66284 h 0.7041774 q 0.06752,0 0.106108,-0.0441 0.03859,-0.0455 0.03859,-0.10887 0,-0.062 -0.03996,-0.10749 -0.03859,-0.0455 -0.10473,-0.0455 H 9.8065356 v -0.50161 h 0.7441404 q 0.06615,0 0.104731,-0.0469 0.03996,-0.0468 0.03996,-0.10886 0,-0.062 -0.03996,-0.10887 -0.03859,-0.0469 -0.104731,-0.0469 H 9.6191226 q -0.086816,0 -0.14745,0.0565 -0.060634,0.0551 -0.060634,0.14745 v 1.57785 q 0,0.0923 0.056499,0.14883 0.057878,0.0565 0.1391818,0.0565 z m 2.0202027,0.001 q 0.0813,0 0.139182,-0.0565 0.05926,-0.0579 0.05926,-0.15021 v -1.46899 h 0.447862 q 0.0689,0 0.110243,-0.0469 0.04134,-0.0469 0.04134,-0.11024 0,-0.062 -0.04272,-0.10887 -0.04134,-0.0482 -0.108865,-0.0482 h -1.292598 q -0.0689,0 -0.111621,0.0482 -0.04134,0.0469 -0.04134,0.11024 0,0.0634 0.04134,0.11025 0.04134,0.0455 0.111621,0.0455 h 0.44924 v 1.46899 q 0,0.0923 0.05788,0.15021 0.05926,0.0565 0.139182,0.0565 z"
       id="inLeft--text"
       aria-label="LEFT" /><path
       style="font-size:2.82222px;line-height:1.25;font-family:Nunito;-inkscape-font-specification:Nunito;letter-spacing:0px;word-spacing:0px;fill:#ffffff;stroke-width:0.264583"
       d="m 17.211677,274.84323 q 0.0813,0 0.139182,-0.0537 0.05926,-0.0537 0.05926,-0.1502 v -0.6463 h 0.361045 0.0055 q 0.09646,0 0.158474,0.0179 0.06339,0.0179 0.101975,0.0606 0.03859,0.0413 0.0565,0.0992 0.01792,0.0579 0.02756,0.15021 l 0.03445,0.31833 q 0.0096,0.10059 0.0689,0.15296 0.05926,0.051 0.141937,0.051 0.07993,0 0.132292,-0.0524 0.05374,-0.0524 0.05374,-0.14607 0,-0.0234 -0.0014,-0.0358 l -0.03859,-0.32522 q -0.02205,-0.19568 -0.117133,-0.30868 -0.09371,-0.11437 -0.285253,-0.15158 v -0.006 q 0.22462,-0.0358 0.336241,-0.1571 0.111621,-0.12264 0.111621,-0.29903 0,-0.50574 -0.726226,-0.50574 H 17.22408 q -0.08682,0 -0.148828,0.0579 -0.06063,0.0565 -0.06063,0.1447 v 1.58061 q 0,0.0951 0.05788,0.1502 0.05788,0.0537 0.139181,0.0537 z m 0.19706,-1.14377 v -0.54571 h 0.336241 0.02894 q 0.04961,0 0.08131,0.001 0.03169,0.001 0.07717,0.007 0.04547,0.004 0.07304,0.0152 0.02894,0.01 0.06201,0.0289 0.03307,0.0193 0.05099,0.0469 0.01929,0.0276 0.03169,0.0703 0.0124,0.0413 0.0124,0.0951 0,0.0565 -0.01516,0.10059 -0.01516,0.0441 -0.03859,0.073 -0.02343,0.0289 -0.06339,0.0496 -0.03859,0.0207 -0.07579,0.0317 -0.03583,0.011 -0.08957,0.0179 -0.05236,0.006 -0.09233,0.007 -0.03859,0.001 -0.09646,0.001 z m 1.770777,1.14377 q 0.08131,0 0.14056,-0.0565 0.05926,-0.0565 0.05926,-0.14883 v -1.57785 q 0,-0.0923 -0.05926,-0.14883 -0.05926,-0.0565 -0.139182,-0.0565 -0.07993,0 -0.139181,0.0565 -0.05788,0.0565 -0.05788,0.14883 v 1.57785 q 0,0.0923 0.05788,0.14883 0.05788,0.0565 0.137803,0.0565 z m 1.60128,0.0372 q 0.208083,0 0.577397,-0.0813 0.103353,-0.0248 0.146072,-0.0827 0.0441,-0.0579 0.0441,-0.18328 v -0.57878 q 0,-0.18603 -0.150206,-0.18603 h -0.5333 q -0.06063,0 -0.09509,0.0441 -0.03307,0.0427 -0.03307,0.0978 0,0.0593 0.03583,0.10059 0.03583,0.04 0.09784,0.04 h 0.28801 v 0.46991 q -0.181901,0.0427 -0.35829,0.0427 -0.607714,0 -0.607714,-0.72346 0,-0.16675 0.03445,-0.29628 0.03445,-0.12954 0.107487,-0.226 0.07304,-0.0978 0.194303,-0.14883 0.121267,-0.0524 0.285254,-0.0524 0.194303,0 0.480934,0.0882 0.02067,0.011 0.04685,0.011 0.06063,0 0.09922,-0.0482 0.03859,-0.0496 0.03859,-0.11162 0,-0.0386 -0.02205,-0.0744 -0.02205,-0.0372 -0.06477,-0.0593 -0.253559,-0.12126 -0.593934,-0.12126 -0.252181,0 -0.450618,0.0813 -0.198437,0.0813 -0.322461,0.22462 -0.124023,0.14332 -0.187413,0.32935 -0.06339,0.18604 -0.06339,0.40514 0,0.33487 0.125401,0.57051 0.125401,0.23565 0.350021,0.35278 0.22462,0.11575 0.530545,0.11575 z m 1.339452,-0.0372 q 0.0813,0 0.139181,-0.0565 0.05926,-0.0565 0.05926,-0.14883 v -0.66146 h 0.854383 v 0.66146 q 0,0.0923 0.05926,0.14883 0.05926,0.0565 0.139181,0.0565 0.08131,0 0.139182,-0.0565 0.05788,-0.0565 0.05788,-0.14883 v -1.57372 q 0,-0.0923 -0.05788,-0.14883 -0.05788,-0.0565 -0.137804,-0.0565 -0.0813,0 -0.140559,0.0565 -0.05926,0.0565 -0.05926,0.14883 v 0.5898 h -0.854383 v -0.5898 q 0,-0.0923 -0.05926,-0.14883 -0.05788,-0.0565 -0.137803,-0.0565 -0.0813,0 -0.14056,0.0565 -0.05788,0.0565 -0.05788,0.14883 v 1.57372 q 0,0.0923 0.05788,0.14883 0.05926,0.0565 0.139182,0.0565 z m 2.422589,0.003 q 0.0813,0 0.139181,-0.0565 0.05926,-0.0579 0.05926,-0.1502 v -1.46899 h 0.447862 q 0.0689,0 0.110243,-0.0469 0.04134,-0.0469 0.04134,-0.11025 0,-0.062 -0.04272,-0.10886 -0.04134,-0.0482 -0.108865,-0.0482 h -1.292599 q -0.0689,0 -0.111621,0.0482 -0.04134,0.0469 -0.04134,0.11024 0,0.0634 0.04134,0.11024 0.04134,0.0455 0.111621,0.0455 h 0.44924 v 1.46899 q 0,0.0923 0.05788,0.1502 0.05926,0.0565 0.139182,0.0565 z"
       id="outRight--text-output"
       aria-label="RIGHT" /><path
       style="font-size:2.82222px;line-height:1.25;font-family:Nunito;-inkscape-font-specification:Nunito;letter-spacing:0px;word-spacing:0px;fill:#ffffff;stroke-width:0.264583"
       d="m 6.310456,274.84448 h 0.9728942 q 0.067524,0 0.1074869,-0.0468 0.041341,-0.0469 0.041341,-0.10887 0,-0.0634 -0.041341,-0.11024 -0.039963,-0.0482 -0.1074869,-0.0482 h -0.777213 l -0.00138,-1.46623 q 0,-0.0923 -0.057878,-0.14883 -0.057878,-0.0565 -0.1378037,-0.0565 -0.081304,0 -0.1405598,0.0565 -0.059256,0.0565 -0.059256,0.14883 v 1.53927 q 0,0.0992 0.0565,0.17087 0.0565,0.0703 0.1446939,0.0703 z m 1.5654502,0 h 1.0211255 q 0.066146,0 0.1047308,-0.0455 0.039963,-0.0469 0.039963,-0.10887 0,-0.062 -0.039963,-0.10886 -0.038585,-0.0469 -0.1047308,-0.0469 H 8.0743435 v -0.55259 h 0.7372499 q 0.067524,0 0.1074869,-0.0455 0.041341,-0.0455 0.041341,-0.10749 0,-0.062 -0.039963,-0.10749 -0.039963,-0.0455 -0.1088649,-0.0455 H 8.0743435 v -0.50712 h 0.7909933 q 0.067524,0 0.1074869,-0.0469 0.039963,-0.0469 0.039963,-0.10887 0,-0.062 -0.039963,-0.10886 -0.039963,-0.0469 -0.1074869,-0.0469 H 7.8855524 q -0.097841,0 -0.1515841,0.0661 -0.052365,0.0648 -0.052365,0.16674 v 1.53238 q 0,0.0868 0.0565,0.15434 0.0565,0.0675 0.1378038,0.0675 z m 1.7308145,0 q 0.081304,0 0.1405598,-0.0565 0.059256,-0.0565 0.059256,-0.14883 v -0.66283 h 0.7041769 q 0.06752,0 0.106109,-0.0441 0.03858,-0.0455 0.03858,-0.10886 0,-0.062 -0.03996,-0.10749 -0.03858,-0.0455 -0.104731,-0.0455 H 9.8065361 v -0.5016 h 0.7441399 q 0.06615,0 0.104731,-0.0469 0.03996,-0.0469 0.03996,-0.10887 0,-0.062 -0.03996,-0.10886 -0.03858,-0.0469 -0.104731,-0.0469 H 9.6191231 q -0.086816,0 -0.14745,0.0565 -0.060634,0.0551 -0.060634,0.14745 v 1.57785 q 0,0.0923 0.0565,0.14883 0.057878,0.0565 0.1391817,0.0565 z m 2.0202033,0.001 q 0.0813,0 0.139181,-0.0565 0.05926,-0.0579 0.05926,-0.15021 v -1.46898 h 0.447862 q 0.0689,0 0.110243,-0.0469 0.04134,-0.0469 0.04134,-0.11024 0,-0.062 -0.04272,-0.10886 -0.04134,-0.0482 -0.108865,-0.0482 h -1.292599 q -0.0689,0 -0.111621,0.0482 -0.04134,0.0469 -0.04134,0.11024 0,0.0634 0.04134,0.11024 0.04134,0.0455 0.111621,0.0455 h 0.44924 v 1.46898 q 0,0.0923 0.05788,0.15021 0.05925,0.0565 0.139182,0.0565 z"
       id="outLeft--text-output"
       aria-label="LEFT" /><path
       style="font-size:4.93889px;line-height:1.25;font-family:Nunito;-inkscape-font-specification:Nunito;letter-spacing:0px;word-spacing:0px;fill:#ffffff;stroke-width:0.264583"
       d="m 17.196398,176.07368 v -0.84164 l -0.839225,-2.00401 q -0.07958,-0.20498 -0.231511,-0.30627 -0.151929,-0.1037 -0.327973,-0.1037 -0.209806,0 -0.364147,0.12782 -0.15434,0.12781 -0.15434,0.32797 l 0.0024,2.64308 q 0,0.12058 0.09164,0.1881 0.09405,0.0651 0.221864,0.0651 0.127813,0 0.219453,-0.0651 0.09164,-0.0675 0.09164,-0.1881 v -2.33922 l 0.894691,2.16317 q 0.125402,0.3328 0.395497,0.3328 z m 0.0024,0 q 0.267684,0 0.397908,-0.3328 l 0.89228,-2.16317 v 2.33922 q 0,0.12058 0.09164,0.1881 0.09405,0.0651 0.221864,0.0651 0.127813,0 0.219453,-0.0651 0.09405,-0.0675 0.09405,-0.1881 v -2.64308 q 0,-0.20016 -0.154341,-0.32797 -0.15434,-0.12782 -0.361735,-0.12782 -0.176044,0 -0.327973,0.1037 -0.151929,0.10129 -0.23151,0.30627 l -0.841637,2.00401 z m 3.101275,0.13022 h 1.786972 q 0.115755,0 0.183279,-0.0796 0.06994,-0.082 0.06994,-0.19051 0,-0.10852 -0.06994,-0.19052 -0.06752,-0.082 -0.183279,-0.082 h -1.439706 v -0.96704 h 1.290189 q 0.118167,0 0.188102,-0.0796 0.07235,-0.0796 0.07235,-0.1881 0,-0.10852 -0.06994,-0.1881 -0.06994,-0.0796 -0.190514,-0.0796 h -1.290189 v -0.88745 h 1.38424 q 0.118167,0 0.188102,-0.082 0.06994,-0.082 0.06994,-0.19051 0,-0.10852 -0.06994,-0.19051 -0.06994,-0.082 -0.188102,-0.082 h -1.714625 q -0.171221,0 -0.265272,0.11576 -0.09164,0.11334 -0.09164,0.2918 v 2.68166 q 0,0.15193 0.09887,0.2701 0.09887,0.11816 0.241156,0.11816 z m 3.735518,0.002 q 0.142282,0 0.243568,-0.0989 0.103698,-0.10129 0.103698,-0.26286 v -2.57073 h 0.783759 q 0.120578,0 0.192925,-0.082 0.07235,-0.082 0.07235,-0.19293 0,-0.10852 -0.07476,-0.19051 -0.07235,-0.0844 -0.190514,-0.0844 h -2.26205 q -0.120578,0 -0.195337,0.0844 -0.07235,0.082 -0.07235,0.19292 0,0.11093 0.07235,0.19293 0.07235,0.0796 0.195337,0.0796 h 0.786171 v 2.57073 q 0,0.16157 0.101286,0.26286 0.103697,0.0989 0.243568,0.0989 z m 3.819924,-1.26848 h -1.191315 l 0.595657,-1.58922 z m 0.390673,1.04421 q 0.041,0.11817 0.125402,0.17845 0.08441,0.0579 0.188102,0.0579 0.130225,0 0.231511,-0.0868 0.101285,-0.0868 0.101285,-0.21946 0,-0.0603 -0.02411,-0.12299 l -1.058678,-2.65031 q -0.101286,-0.26768 -0.233922,-0.35932 -0.130225,-0.0916 -0.315916,-0.0916 -0.18569,0 -0.318327,0.0916 -0.130224,0.0916 -0.23151,0.35932 l -1.058678,2.65031 q -0.02412,0.0627 -0.02412,0.12299 0,0.13264 0.101286,0.21946 0.101286,0.0868 0.231511,0.0868 0.103697,0 0.188102,-0.0579 0.08441,-0.0603 0.125401,-0.17845 l 0.217041,-0.57878 h 1.53858 z"
       id="moduleName--moduleName"
       aria-label="META" /></g><g
     id="Widgets"
     style="display:inline"
     inkscape:label="Widgets"><path
       id="input_2--hidden"
       style="display:inline;vector-effect:none;fill:#00ff00;fill-rule:evenodd"
       d="m 25.177668,97.783127 a 4,4 0 0 1 -4,4.000003 4,4 0 0 1 -4,-4.000003 4,4 0 0 1 4,-4 4,4 0 0 1 4,4 z" /><path
       id="input_1--hidden"
       style="display:inline;vector-effect:none;fill:#00ff00;fill-rule:evenodd"
       d="m 13.267035,97.775002 a 4,4 0 0 1 -4.0000005,3.999998 4,4 0 0 1 -4,-3.999998 4,4 0 0 1 4,-4 4,4 0 0 1 4.0000005,4 z" /><path
       id="output_2--hidden"
       style="display:inline;vector-effect:none;fill:#0000ff;fill-rule:evenodd"
       d="m 25.166203,111.316 a 4,4 0 0 1 -4,4 4,4 0 0 1 -4,-4 4,4 0 0 1 4,-4 4,4 0 0 1 4,4 z" /><path
       id="output_1--hidden"
       style="display:inline;vector-effect:none;fill:#0000ff;fill-rule:evenodd"
       d="m 13.255567,111.308 a 4,4 0 0 1 -4.0000004,4 4,4 0 0 1 -4,-4 4,4 0 0 1 4,-4 4,4 0 0 1 4.0000004,4 z" /><path
       id="widgetLogo--hidden"
       style="display:inline;fill:#ffff00;stroke-width:0.258437"
       d="M 5.2916665,13.496 H 25.135417 V 89.226004 H 5.2916665 Z" /></g></svg>
