<?xml version="1.0" encoding="UTF-8" standalone="no"?>
<!-- Created with Inkscape (http://www.inkscape.org/) -->

<svg
   width="45"
   height="380.00003"
   viewBox="0 0 45.000002 380.00004"
   version="1.1"
   id="svg8"
   inkscape:version="1.4.2 (ebf0e94, 2025-05-08)"
   sodipodi:docname="ResetHelper.svg"
   xml:space="preserve"
   xmlns:inkscape="http://www.inkscape.org/namespaces/inkscape"
   xmlns:sodipodi="http://sodipodi.sourceforge.net/DTD/sodipodi-0.dtd"
   xmlns="http://www.w3.org/2000/svg"
   xmlns:svg="http://www.w3.org/2000/svg"
   xmlns:rdf="http://www.w3.org/1999/02/22-rdf-syntax-ns#"
   xmlns:cc="http://creativecommons.org/ns#"
   xmlns:dc="http://purl.org/dc/elements/1.1/"><defs
     id="defs2"><linearGradient
       id="uuid-f0636bc7-c65b-4b70-b857-f875576c11d6"
       x1="37.5"
       y1="0"
       x2="37.5"
       y2="380"
       gradientUnits="userSpaceOnUse"><stop
         offset="0"
         stop-color="#ebebeb"
         id="stop2" /><stop
         offset="1"
         stop-color="#e1e1e1"
         id="stop4" /></linearGradient></defs><sodipodi:namedview
     id="base"
     pagecolor="#ffffff"
     bordercolor="#666666"
     borderopacity="1.0"
     inkscape:pageopacity="0.0"
     inkscape:pageshadow="2"
     inkscape:zoom="2.8284271"
     inkscape:cx="30.935922"
     inkscape:cy="217.43534"
     inkscape:document-units="px"
     inkscape:current-layer="Widgets"
     showgrid="true"
     units="mm"
     inkscape:snap-bbox="true"
     inkscape:snap-page="true"
     inkscape:bbox-nodes="false"
     inkscape:snap-bbox-edge-midpoints="false"
     inkscape:window-width="1920"
     inkscape:window-height="1027"
     inkscape:window-x="-8"
     inkscape:window-y="22"
     inkscape:window-maximized="1"
     inkscape:snap-bbox-midpoints="true"
     inkscape:snap-nodes="false"
     inkscape:showpageshadow="2"
     inkscape:pagecheckerboard="0"
     inkscape:deskcolor="#d1d1d1"><inkscape:grid
       id="grid1"
       units="px"
       originx="7.5355286e-16"
       originy="0"
       spacingx="1"
       spacingy="1"
       empcolor="#3f3fff"
       empopacity="0.25098039"
       color="#3f3fff"
       opacity="0.1254902"
       empspacing="5"
       dotted="false"
       gridanglex="30"
       gridanglez="30"
       visible="true" /></sodipodi:namedview><metadata
     id="metadata5"><rdf:RDF><cc:Work
         rdf:about=""><dc:format>image/svg+xml</dc:format><dc:type
           rdf:resource="http://purl.org/dc/dcmitype/StillImage" /></cc:Work></rdf:RDF></metadata><g
     inkscape:label="Layer 1"
     inkscape:groupmode="layer"
     id="layer1"
     transform="translate(0,-168.49997)"
     style="display:inline"><path
       id="bg--background-fill"
       style="display:inline;opacity:1;vector-effect:none;fill:#1f1f1f;fill-rule:evenodd;stroke-width:1.35682"
       d="m 0,168.49997 h 45 v 380 H 0 Z" /><path
       id="header--hidden"
       style="display:inline;fill:#707070;stroke-width:0.727836;paint-order:stroke fill markers"
       d="m 0,168.50002 h 45 v 48 H 0 Z" /><path
       id="footer--hidden"
       style="display:inline;fill:#707070;stroke-width:0.664417;paint-order:stroke fill markers"
       d="m 0,508.5 h 45 v 40 H 0 Z" /><path
       id="outBlock--output-fill"
       style="display:inline;fill:#bf9b30;stroke-width:0.570227"
       d="m 8.5,466.5 h 28 c 2.216,0 4,1.784 4,4 v 34 c 0,2.216 -1.784,4 -4,4 h -28 c -2.216,0 -4,-1.784 -4,-4 v -34 c 0,-2.216 1.784,-4 4,-4 z" /><path
       style="font-weight:500;font-size:10px;line-height:1.25;font-family:Sono;-inkscape-font-specification:'Sono Medium';letter-spacing:0px;word-spacing:0px"
       d="m 16.562506,476.60503 q -0.495,0 -0.975,-0.17 -0.48,-0.175 -0.875,-0.55 -0.39,-0.375 -0.625,-0.98 -0.235,-0.61 -0.235,-1.48 0,-0.87 0.235,-1.475 0.235,-0.61 0.625,-0.98 0.395,-0.375 0.875,-0.545 0.48,-0.175 0.975,-0.175 0.485,0 0.965,0.175 0.48,0.17 0.87,0.545 0.395,0.37 0.63,0.98 0.235,0.605 0.235,1.475 0,0.87 -0.235,1.48 -0.235,0.605 -0.63,0.98 -0.39,0.375 -0.87,0.55 -0.48,0.17 -0.965,0.17 z m 0,-0.825 q 0.425,0 0.78,-0.255 0.355,-0.26 0.57,-0.78 0.215,-0.525 0.215,-1.32 0,-0.79 -0.215,-1.31 -0.215,-0.525 -0.57,-0.78 -0.355,-0.26 -0.78,-0.26 -0.43,0 -0.79,0.26 -0.36,0.255 -0.575,0.78 -0.215,0.52 -0.215,1.31 0,0.795 0.215,1.32 0.215,0.52 0.575,0.78 0.36,0.255 0.79,0.255 z m 6.254997,0.825 q -0.68,0 -1.24,-0.275 -0.56,-0.28 -0.895,-0.88 -0.33,-0.6 -0.33,-1.575 v -2.9 q 0,-0.665 0.555,-0.665 0.555,0 0.555,0.665 v 2.84 q 0,0.95 0.36,1.46 0.36,0.505 0.995,0.505 0.64,0 0.995,-0.505 0.355,-0.51 0.355,-1.46 v -2.84 q 0,-0.665 0.555,-0.665 0.555,0 0.555,0.665 v 2.9 q 0,0.975 -0.33,1.575 -0.33,0.6 -0.885,0.88 -0.555,0.275 -1.245,0.275 z m 7.709994,-6.295 q 0.62,0 0.62,0.405 0,0.2 -0.17,0.31 -0.165,0.105 -0.42,0.105 h -1.35 v 4.775 q 0,0.665 -0.555,0.665 -0.555,0 -0.555,-0.665 v -4.775 h -1.29 q -0.305,0 -0.475,-0.105 -0.165,-0.11 -0.165,-0.31 0,-0.195 0.165,-0.3 0.17,-0.105 0.475,-0.105 z"
       id="out--text-output"
       aria-label="OUT" /><path
       style="font-weight:500;font-size:10px;line-height:1.25;font-family:Sono;-inkscape-font-specification:'Sono Medium';letter-spacing:0px;word-spacing:0px;fill:#bf9b30"
       d="m 6.1800147,270.48996 q -0.31,0 -0.515,-0.165 -0.205,-0.165 -0.26,-0.5 -0.015,-0.1 -0.07,-0.405 -0.05,-0.305 -0.13,-0.745 -0.08,-0.44 -0.17,-0.94 -0.09,-0.505 -0.18,-1.005 -0.085,-0.505 -0.16,-0.93 -0.07,-0.43 -0.115,-0.715 -0.045,-0.29 -0.045,-0.365 0,-0.28 0.145,-0.42 0.15,-0.145 0.395,-0.145 0.275,0 0.375,0.16 0.1,0.16 0.15,0.485 l 0.635,4.165 0.91,-3.755 q 0.075,-0.305 0.19,-0.47 0.115,-0.17 0.415,-0.17 0.3,0 0.415,0.165 0.115,0.165 0.19,0.475 l 0.91,3.735 0.625,-4.145 q 0.05,-0.325 0.1650003,-0.485 0.12,-0.16 0.395,-0.16 0.245,0 0.375,0.145 0.135,0.14 0.135,0.42 0,0.06 -0.045,0.34 -0.04,0.28 -0.115,0.71 -0.07,0.425 -0.16,0.93 -0.09,0.505 -0.18,1.015 -0.09,0.505 -0.17,0.95 -0.075,0.445 -0.13,0.755 -0.055,0.305 -0.07,0.405 -0.05,0.335 -0.2550003,0.5 -0.2,0.165 -0.51,0.165 h -0.03 q -0.305,0 -0.505,-0.19 -0.195,-0.19 -0.28,-0.55 l -0.76,-3.34 -0.755,3.34 q -0.08,0.36 -0.28,0.55 -0.2,0.19 -0.505,0.19 z m 5.9700043,-0.095 q -0.265,0 -0.41,-0.105 -0.145,-0.11 -0.145,-0.305 0,-0.2 0.145,-0.305 0.145,-0.105 0.41,-0.105 h 0.825 v -4.55 h -0.825 q -0.265,0 -0.41,-0.105 -0.145,-0.11 -0.145,-0.31 0,-0.195 0.145,-0.3 0.145,-0.105 0.41,-0.105 h 2.69 q 0.27,0 0.41,0.105 0.145,0.105 0.145,0.3 0,0.2 -0.145,0.31 -0.14,0.105 -0.41,0.105 h -0.8 v 4.55 h 0.8 q 0.27,0 0.41,0.105 0.145,0.105 0.145,0.305 0,0.195 -0.145,0.305 -0.14,0.105 -0.41,0.105 z m 4.804995,0.045 q -0.5,0 -0.5,-0.655 v -4.94 q 0,-0.325 0.195,-0.495 0.2,-0.17 0.52,-0.17 h 0.025 q 0.285,0 0.485,0.145 0.205,0.145 0.345,0.415 l 2.11,3.995 v -3.9 q 0,-0.655 0.505,-0.655 0.235,0 0.37,0.165 0.135,0.165 0.135,0.49 v 4.94 q 0,0.32 -0.17,0.495 -0.165,0.17 -0.485,0.17 h -0.01 q -0.29,0 -0.48,-0.145 -0.185,-0.145 -0.33,-0.415 l -2.225,-4.135 v 4.04 q 0,0.655 -0.49,0.655 z m 7.239994,-6.235 q 0.315,0 0.705,0.065 0.39,0.065 0.785,0.25 0.395,0.18 0.73,0.525 0.335,0.345 0.535,0.895 0.205,0.55 0.205,1.36 0,0.805 -0.205,1.355 -0.2,0.55 -0.535,0.895 -0.335,0.345 -0.73,0.53 -0.395,0.18 -0.785,0.25 -0.39,0.065 -0.705,0.065 h -1.25 q -0.665,0 -0.665,-0.67 v -4.855 q 0,-0.665 0.665,-0.665 z m -0.015,5.37 q 0.365,0 0.695,-0.125 0.335,-0.125 0.595,-0.395 0.265,-0.27 0.415,-0.705 0.15,-0.435 0.15,-1.05 0,-0.62 -0.15,-1.055 -0.15,-0.435 -0.415,-0.705 -0.26,-0.27 -0.595,-0.39 -0.33,-0.125 -0.695,-0.125 h -0.795 v 4.55 z m 6.604996,0.925 q -0.495,0 -0.975,-0.17 -0.48,-0.175 -0.875,-0.55 -0.39,-0.375 -0.625,-0.98 -0.235,-0.61 -0.235,-1.48 0,-0.87 0.235,-1.475 0.235,-0.61 0.625,-0.98 0.395,-0.375 0.875,-0.545 0.48,-0.175 0.975,-0.175 0.485,0 0.965,0.175 0.48,0.17 0.87,0.545 0.395,0.37 0.63,0.98 0.235,0.605 0.235,1.475 0,0.87 -0.235,1.48 -0.235,0.605 -0.63,0.98 -0.39,0.375 -0.87,0.55 -0.48,0.17 -0.965,0.17 z m 0,-0.825 q 0.425,0 0.78,-0.255 0.355,-0.26 0.57,-0.78 0.215,-0.525 0.215,-1.32 0,-0.79 -0.215,-1.31 -0.215,-0.525 -0.57,-0.78 -0.355,-0.26 -0.78,-0.26 -0.43,0 -0.79,0.26 -0.36,0.255 -0.575,0.78 -0.215,0.52 -0.215,1.31 0,0.795 0.215,1.32 0.215,0.52 0.575,0.78 0.36,0.255 0.79,0.255 z m 4.899997,0.815 q -0.31,0 -0.515,-0.165 -0.205,-0.165 -0.26,-0.5 -0.015,-0.1 -0.07,-0.405 -0.05,-0.305 -0.13,-0.745 -0.08,-0.44 -0.17,-0.94 -0.09,-0.505 -0.18,-1.005 -0.085,-0.505 -0.16,-0.93 -0.07,-0.43 -0.115,-0.715 -0.045,-0.29 -0.045,-0.365 0,-0.28 0.145,-0.42 0.15,-0.145 0.395,-0.145 0.275,0 0.375,0.16 0.1,0.16 0.15,0.485 l 0.635,4.165 0.91,-3.755 q 0.075,-0.305 0.19,-0.47 0.115,-0.17 0.415,-0.17 0.3,0 0.415,0.165 0.115,0.165 0.19,0.475 l 0.91,3.735 0.625,-4.145 q 0.05,-0.325 0.165,-0.485 0.12,-0.16 0.395,-0.16 0.245,0 0.375,0.145 0.135,0.14 0.135,0.42 0,0.06 -0.045,0.34 -0.04,0.28 -0.115,0.71 -0.07,0.425 -0.16,0.93 -0.09,0.505 -0.18,1.015 -0.09,0.505 -0.17,0.95 -0.075,0.445 -0.13,0.755 -0.055,0.305 -0.07,0.405 -0.05,0.335 -0.255,0.5 -0.2,0.165 -0.51,0.165 h -0.03 q -0.305,0 -0.505,-0.19 -0.195,-0.19 -0.28,-0.55 l -0.76,-3.34 -0.755,3.34 q -0.08,0.36 -0.28,0.55 -0.2,0.19 -0.505,0.19 z"
       id="paramWindowLen--text"
       aria-label="WINDOW" /><path
       style="font-weight:500;font-size:10px;line-height:1.25;font-family:Sono;-inkscape-font-specification:'Sono Medium';letter-spacing:0px;word-spacing:0px;fill:#bf9b30"
       d="m 9.0749942,220.20502 q 0.62,0 0.62,0.405 0,0.2 -0.17,0.31 -0.165,0.105 -0.42,0.105 h -1.35 v 4.775 q 0,0.665 -0.555,0.665 -0.555,0 -0.555,-0.665 v -4.775 h -1.29 q -0.305,0 -0.475,-0.105 -0.165,-0.11 -0.165,-0.31 0,-0.195 0.165,-0.3 0.17,-0.105 0.475,-0.105 z m 2.6199948,0.82 v 1.925 h 1.255 q 0.515,0 0.8,-0.255 0.29,-0.255 0.29,-0.735 0,-0.48 -0.3,-0.705 -0.295,-0.23 -0.825,-0.23 z m -1.11,4.775 v -4.93 q 0,-0.665 0.665,-0.665 h 1.845 q 0.345,0 0.705,0.07 0.36,0.065 0.665,0.25 0.31,0.185 0.5,0.52 0.19,0.33 0.19,0.865 0,0.67 -0.32,1.065 -0.32,0.39 -0.775,0.545 l 0.96,2.175 q 0.04,0.09 0.06,0.175 0.02,0.08 0.02,0.155 0,0.205 -0.135,0.325 -0.13,0.115 -0.375,0.115 -0.3,0 -0.43,-0.15 -0.13,-0.15 -0.24,-0.43 l -0.905,-2.115 h -1.32 v 2.03 q 0,0.665 -0.56,0.665 -0.55,0 -0.55,-0.665 z m 8.265,0.7 q -0.53,0 -1.02,-0.175 -0.49,-0.18 -0.88,-0.56 -0.39,-0.38 -0.62,-0.985 -0.225,-0.605 -0.225,-1.46 0,-0.86 0.24,-1.46 0.24,-0.605 0.645,-0.985 0.41,-0.38 0.915,-0.555 0.505,-0.175 1.035,-0.175 0.57,0 0.995,0.16 0.425,0.16 0.73,0.455 0.145,0.125 0.21,0.255 0.065,0.13 0.065,0.255 0,0.195 -0.15,0.32 -0.145,0.125 -0.325,0.125 -0.135,0 -0.265,-0.07 -0.13,-0.07 -0.23,-0.18 -0.165,-0.19 -0.41,-0.335 -0.245,-0.15 -0.615,-0.15 -0.43,0 -0.825,0.24 -0.395,0.235 -0.645,0.75 -0.25,0.515 -0.25,1.35 0,0.855 0.245,1.37 0.245,0.515 0.63,0.745 0.385,0.23 0.81,0.23 0.4,0 0.69,-0.18 0.29,-0.185 0.45,-0.55 0.165,-0.365 0.175,-0.915 h -0.98 q -0.25,0 -0.395,-0.09 -0.14,-0.095 -0.14,-0.3 0,-0.21 0.135,-0.3 0.14,-0.095 0.39,-0.095 h 1.47 q 0.325,0 0.47,0.16 0.145,0.155 0.145,0.455 0,0.89 -0.325,1.48 -0.325,0.585 -0.885,0.88 -0.56,0.29 -1.26,0.29 z m 7.825014,-0.925 h 2.17 q 0.285,0 0.45,0.11 0.165,0.105 0.165,0.3 0,0.195 -0.165,0.305 -0.165,0.105 -0.45,0.105 h -2.615 q -0.665,0 -0.665,-0.67 v -4.9 q 0,-0.67 0.555,-0.67 0.555,0 0.555,0.67 z m 7.859993,-4.965 q 0,0.415 -0.64,0.415 h -2.455 v 1.85 h 2.01 q 0.325,0 0.46,0.105 0.135,0.105 0.135,0.305 0,0.195 -0.135,0.305 -0.135,0.105 -0.46,0.105 h -2.01 v 1.88 h 2.455 q 0.64,0 0.64,0.41 0,0.41 -0.64,0.41 h -2.9 q -0.665,0 -0.665,-0.67 v -4.855 q 0,-0.665 0.665,-0.665 h 2.9 q 0.64,0 0.64,0.405 z m 1.560004,5.83 q -0.5,0 -0.5,-0.655 v -4.94 q 0,-0.325 0.195,-0.495 0.2,-0.17 0.52,-0.17 h 0.025 q 0.285,0 0.485,0.145 0.205,0.145 0.345,0.415 l 2.11,3.995 v -3.9 q 0,-0.655 0.505,-0.655 0.235,0 0.37,0.165 0.135,0.165 0.135,0.49 v 4.94 q 0,0.32 -0.17,0.495 -0.165,0.17 -0.485,0.17 h -0.01 q -0.29,0 -0.48,-0.145 -0.185,-0.145 -0.33,-0.415 l -2.225,-4.135 v 4.04 q 0,0.655 -0.49,0.655 z"
       id="paramTriggerLen--text"
       aria-label="TRG LEN" /><path
       style="font-weight:500;font-size:16px;line-height:1.25;font-family:Sono;-inkscape-font-specification:'Sono Medium';letter-spacing:0px;word-spacing:0px;fill:#bf9b30;stroke-width:0.781836"
       d="m 15.992911,184.79435 v 3.08 h 2.008 q 0.824,0 1.28,-0.408 0.464,-0.408 0.464,-1.176 0,-0.768 -0.48,-1.128 -0.472,-0.368 -1.32,-0.368 z m -1.776,7.64 v -7.888 q 0,-1.064 1.064,-1.064 h 2.952 q 0.552,0 1.128,0.112 0.576,0.104 1.064,0.4 0.496,0.296 0.8,0.832 0.304,0.528 0.304,1.384 0,1.072 -0.512,1.704 -0.512,0.624 -1.24,0.872 l 1.536,3.48 q 0.064,0.144 0.096,0.28 0.032,0.128 0.032,0.248 0,0.328 -0.216,0.52 -0.208,0.184 -0.6,0.184 -0.48,0 -0.688,-0.24 -0.208,-0.24 -0.384,-0.688 l -1.448,-3.384 h -2.112 v 3.248 q 0,1.064 -0.896,1.064 -0.88,0 -0.88,-1.064 z m 14.823999,-7.96 q 0,-1.072 0.888,-1.072 0.888,0 0.888,1.072 v 7.96 q 0,1.064 -0.888,1.064 -0.888,0 -0.888,-1.064 v -3.472 h -3.944 v 3.472 q 0,1.064 -0.888,1.064 -0.88,0 -0.88,-1.064 v -7.96 q 0,-0.528 0.224,-0.8 0.232,-0.272 0.656,-0.272 0.888,0 0.888,1.072 v 3.184 h 3.944 z"
       id="moduleNameShort--moduleName"
       transform="scale(0.99924857,1.000752)"
       aria-label="RH" /><path
       style="font-weight:500;font-size:6px;line-height:1.25;font-family:Sono;-inkscape-font-specification:'Sono Medium';letter-spacing:0px;word-spacing:0px;fill:#bf9b30;stroke-width:0.781836"
       d="m 4.4029167,198.02336 v 1.155 h 0.753 q 0.309,0 0.48,-0.153 0.174,-0.153 0.174,-0.441 0,-0.288 -0.18,-0.423 -0.177,-0.138 -0.495,-0.138 z m -0.666,2.865 v -2.958 q 0,-0.399 0.399,-0.399 h 1.107 q 0.207,0 0.423,0.042 0.216,0.039 0.399,0.15 0.186,0.111 0.3,0.312 0.114,0.198 0.114,0.519 0,0.402 -0.192,0.639 -0.192,0.234 -0.465,0.327 l 0.576,1.305 q 0.024,0.054 0.036,0.105 0.012,0.048 0.012,0.093 0,0.123 -0.081,0.195 -0.078,0.069 -0.225,0.069 -0.18,0 -0.258,-0.09 -0.078,-0.09 -0.144,-0.258 l -0.543,-1.269 h -0.792 v 1.218 q 0,0.399 -0.336,0.399 -0.33,0 -0.33,-0.399 z m 5.9399999,-3.114 q 0,0.249 -0.384,0.249 h -1.473 v 1.11 h 1.206 q 0.195,0 0.276,0.063 0.081,0.063 0.081,0.183 0,0.117 -0.081,0.183 -0.081,0.063 -0.276,0.063 h -1.206 v 1.128 h 1.473 q 0.384,0 0.384,0.246 0,0.246 -0.384,0.246 h -1.74 q -0.399,0 -0.399,-0.402 v -2.913 q 0,-0.399 0.399,-0.399 h 1.74 q 0.384,0 0.384,0.243 z m 2.1300024,3.534 q -0.45,0 -0.786,-0.126 -0.333,-0.126 -0.534,-0.327 -0.189,-0.15 -0.189,-0.351 0,-0.099 0.072,-0.183 0.072,-0.087 0.207,-0.087 0.12,0 0.204,0.057 0.087,0.054 0.162,0.132 0.138,0.162 0.348,0.276 0.21,0.114 0.528,0.114 0.216,0 0.399,-0.066 0.186,-0.066 0.297,-0.189 0.114,-0.123 0.114,-0.294 0,-0.255 -0.237,-0.393 -0.234,-0.141 -0.693,-0.255 -0.678,-0.168 -0.993,-0.444 -0.312,-0.279 -0.312,-0.708 0,-0.303 0.192,-0.519 0.195,-0.219 0.522,-0.333 0.33,-0.117 0.732,-0.117 0.357,0 0.663,0.111 0.309,0.108 0.501,0.306 0.084,0.066 0.132,0.15 0.051,0.081 0.051,0.18 0,0.12 -0.078,0.192 -0.075,0.069 -0.192,0.069 -0.117,0 -0.204,-0.063 -0.087,-0.063 -0.147,-0.129 -0.102,-0.138 -0.294,-0.228 -0.192,-0.093 -0.459,-0.093 -0.201,0 -0.369,0.057 -0.168,0.057 -0.27,0.162 -0.099,0.102 -0.099,0.246 0,0.222 0.216,0.363 0.216,0.138 0.663,0.258 0.426,0.111 0.729,0.258 0.303,0.147 0.465,0.36 0.162,0.213 0.162,0.531 0,0.336 -0.198,0.579 -0.198,0.243 -0.54,0.375 -0.339,0.129 -0.765,0.129 z m 4.671004,-3.534 q 0,0.249 -0.384,0.249 h -1.473 v 1.11 h 1.206 q 0.195,0 0.276,0.063 0.081,0.063 0.081,0.183 0,0.117 -0.081,0.183 -0.081,0.063 -0.276,0.063 h -1.206 v 1.128 h 1.473 q 0.384,0 0.384,0.246 0,0.246 -0.384,0.246 h -1.74 q -0.399,0 -0.399,-0.402 v -2.913 q 0,-0.399 0.399,-0.399 h 1.74 q 0.384,0 0.384,0.243 z m 3.093002,-0.243 q 0.372,0 0.372,0.243 0,0.12 -0.102,0.186 -0.099,0.063 -0.252,0.063 h -0.81 v 2.865 q 0,0.399 -0.333,0.399 -0.333,0 -0.333,-0.399 v -2.865 h -0.774 q -0.183,0 -0.285,-0.063 -0.099,-0.066 -0.099,-0.186 0,-0.117 0.099,-0.18 0.102,-0.063 0.285,-0.063 z m 4.998002,0.372 q 0,-0.402 0.333,-0.402 0.333,0 0.333,0.402 v 2.985 q 0,0.399 -0.333,0.399 -0.333,0 -0.333,-0.399 v -1.302 h -1.479 v 1.302 q 0,0.399 -0.333,0.399 -0.33,0 -0.33,-0.399 v -2.985 q 0,-0.198 0.084,-0.3 0.087,-0.102 0.246,-0.102 0.333,0 0.333,0.402 v 1.194 h 1.479 z m 3.950996,-0.129 q 0,0.249 -0.384,0.249 h -1.473 v 1.11 h 1.206 q 0.195,0 0.276,0.063 0.081,0.063 0.081,0.183 0,0.117 -0.081,0.183 -0.081,0.063 -0.276,0.063 h -1.206 v 1.128 h 1.473 q 0.384,0 0.384,0.246 0,0.246 -0.384,0.246 h -1.74 q -0.399,0 -0.399,-0.402 v -2.913 q 0,-0.399 0.399,-0.399 h 1.74 q 0.384,0 0.384,0.243 z m 1.308002,2.979 h 1.302 q 0.171,0 0.27,0.066 0.099,0.063 0.099,0.18 0,0.117 -0.099,0.183 -0.099,0.063 -0.27,0.063 h -1.569 q -0.399,0 -0.399,-0.402 v -2.94 q 0,-0.402 0.333,-0.402 0.333,0 0.333,0.402 z m 2.855996,-2.73 v 1.383 h 0.552 q 0.12,0 0.252,-0.021 0.135,-0.024 0.252,-0.093 0.117,-0.072 0.192,-0.213 0.075,-0.141 0.075,-0.381 0,-0.237 -0.075,-0.372 -0.075,-0.138 -0.192,-0.201 -0.117,-0.066 -0.252,-0.084 -0.132,-0.018 -0.252,-0.018 z m 0.651,1.875 h -0.651 v 0.945 q 0,0.402 -0.33,0.402 -0.333,0 -0.333,-0.402 v -2.913 q 0,-0.399 0.399,-0.399 h 0.915 q 0.135,0 0.309,0.021 0.177,0.018 0.357,0.081 0.18,0.063 0.333,0.192 0.153,0.126 0.246,0.339 0.096,0.21 0.096,0.534 0,0.321 -0.096,0.54 -0.093,0.216 -0.246,0.348 -0.153,0.132 -0.333,0.201 -0.18,0.066 -0.357,0.09 -0.174,0.021 -0.309,0.021 z m 4.518002,-2.124 q 0,0.249 -0.384,0.249 h -1.473 v 1.11 h 1.206 q 0.195,0 0.276,0.063 0.081,0.063 0.081,0.183 0,0.117 -0.081,0.183 -0.081,0.063 -0.276,0.063 h -1.206 v 1.128 h 1.473 q 0.384,0 0.384,0.246 0,0.246 -0.384,0.246 h -1.74 q -0.399,0 -0.399,-0.402 v -2.913 q 0,-0.399 0.399,-0.399 h 1.74 q 0.384,0 0.384,0.243 z m 1.368002,0.249 v 1.155 h 0.753 q 0.309,0 0.48,-0.153 0.174,-0.153 0.174,-0.441 0,-0.288 -0.18,-0.423 -0.177,-0.138 -0.495,-0.138 z m -0.666,2.865 v -2.958 q 0,-0.399 0.399,-0.399 h 1.107 q 0.207,0 0.423,0.042 0.216,0.039 0.399,0.15 0.186,0.111 0.3,0.312 0.114,0.198 0.114,0.519 0,0.402 -0.192,0.639 -0.192,0.234 -0.465,0.327 l 0.576,1.305 q 0.024,0.054 0.036,0.105 0.012,0.048 0.012,0.093 0,0.123 -0.081,0.195 -0.078,0.069 -0.225,0.069 -0.18,0 -0.258,-0.09 -0.078,-0.09 -0.144,-0.258 l -0.543,-1.269 h -0.792 v 1.218 q 0,0.399 -0.336,0.399 -0.33,0 -0.33,-0.399 z"
       id="moduleName--moduleName"
       transform="scale(0.99924857,1.000752)"
       aria-label="RESET HELPER" /></g><g
     id="Widgets"
     style="display:inline"
     inkscape:label="Widgets"
     transform="matrix(2.9527559,0,0,2.9573593,0,-0.02037044)"><path
       id="output_ResetTrigger--hidden"
       style="display:inline;vector-effect:none;fill:#0000ff;fill-rule:evenodd;stroke-width:1.01521"
       d="m 11.684,109.56411 a 4.0640001,4.0576739 0 0 1 -4.0640001,4.05767 4.0640001,4.0576739 0 0 1 -4.0640001,-4.05767 4.0640001,4.0576739 0 0 1 4.0640001,-4.05767 4.0640001,4.0576739 0 0 1 4.0640001,4.05767 z" /><path
       id="light_ResetTrigger--hidden"
       style="display:inline;fill:#ff00ff;stroke-width:0.133236;paint-order:stroke fill markers"
       d="m 12.107333,105.84455 a 0.76200002,0.76081389 0 0 1 -0.749831,0.76072 0.76200002,0.76081389 0 0 1 -0.77378,-0.73642 0.76200002,0.76081389 0 0 1 0.725117,-0.78424 0.76200002,0.76081389 0 0 1 0.79694,0.71137" /><path
       id="input_Reset4--hidden"
       style="display:inline;vector-effect:none;fill:#00ff00;fill-rule:evenodd;stroke-width:1.01521"
       d="M 11.684,90.628242 A 4.0640001,4.0576739 0 0 1 7.6199999,94.685916 4.0640001,4.0576739 0 0 1 3.5559998,90.628242 4.0640001,4.0576739 0 0 1 7.6199999,86.570569 4.0640001,4.0576739 0 0 1 11.684,90.628242 Z" /><path
       id="light_ResetInput4--hidden"
       style="display:inline;fill:#ff00ff;stroke-width:0.133236;paint-order:stroke fill markers"
       d="m 12.107333,86.908707 a 0.76200002,0.76081389 0 0 1 -0.749831,0.760717 0.76200002,0.76081389 0 0 1 -0.77378,-0.736421 0.76200002,0.76081389 0 0 1 0.725117,-0.784237 0.76200002,0.76081389 0 0 1 0.79694,0.711373" /><path
       id="input_Reset3--hidden"
       style="display:inline;vector-effect:none;fill:#00ff00;fill-rule:evenodd;stroke-width:1.74449"
       d="M 11.684,78.455231 A 4.0640001,4.0576739 0 0 1 7.6199999,82.512905 4.0640001,4.0576739 0 0 1 3.5559998,78.455231 4.0640001,4.0576739 0 0 1 7.6199999,74.397557 4.0640001,4.0576739 0 0 1 11.684,78.455231 Z" /><path
       id="light_ResetInput3--hidden"
       style="display:inline;fill:#ff00ff;stroke-width:0.133236;paint-order:stroke fill markers"
       d="m 12.107333,74.735695 a 0.76200002,0.76081389 0 0 1 -0.749831,0.760717 0.76200002,0.76081389 0 0 1 -0.77378,-0.736421 0.76200002,0.76081389 0 0 1 0.725117,-0.784237 0.76200002,0.76081389 0 0 1 0.79694,0.711373" /><path
       id="input_Reset2--hidden"
       style="display:inline;vector-effect:none;fill:#00ff00;fill-rule:evenodd;stroke-width:1.01521"
       d="M 11.684,66.282227 A 4.0640001,4.0576739 0 0 1 7.6199999,70.3399 4.0640001,4.0576739 0 0 1 3.5559998,66.282227 4.0640001,4.0576739 0 0 1 7.6199999,62.224553 4.0640001,4.0576739 0 0 1 11.684,66.282227 Z" /><path
       id="light_ResetInput2--hidden"
       style="display:inline;fill:#ff00ff;stroke-width:0.133236;paint-order:stroke fill markers"
       d="m 12.107333,62.562691 a 0.76200002,0.76081389 0 0 1 -0.749831,0.760717 0.76200002,0.76081389 0 0 1 -0.77378,-0.736421 0.76200002,0.76081389 0 0 1 0.725117,-0.784237 0.76200002,0.76081389 0 0 1 0.79694,0.711373" /><path
       id="input_Reset1--hidden"
       style="display:inline;vector-effect:none;fill:#00ff00;fill-rule:evenodd;stroke-width:1.01521"
       d="M 11.684,54.109211 A 4.0640001,4.0576739 0 0 1 7.6199999,58.166885 4.0640001,4.0576739 0 0 1 3.5559998,54.109211 4.0640001,4.0576739 0 0 1 7.6199999,50.051537 4.0640001,4.0576739 0 0 1 11.684,54.109211 Z" /><path
       id="light_ResetInput1--hidden"
       style="display:inline;fill:#ff00ff;stroke-width:0.133236;paint-order:stroke fill markers"
       d="m 12.107333,50.389675 a 0.76200002,0.76081389 0 0 1 -0.749831,0.760717 0.76200002,0.76081389 0 0 1 -0.77378,-0.73642 0.76200002,0.76081389 0 0 1 0.725117,-0.784238 0.76200002,0.76081389 0 0 1 0.79694,0.711373" /><path
       id="param_MergeTime--hidden"
       style="display:inline;fill:#ff0000;stroke-width:0.194169;paint-order:stroke fill markers"
       d="M 11.684,40.58363 A 4.0640001,4.0576739 0 0 1 7.6848995,44.640786 4.0640001,4.0576739 0 0 1 3.5580726,40.71321 4.0640001,4.0576739 0 0 1 7.4253672,36.530612 4.0640001,4.0576739 0 0 1 11.675711,40.3246" /><path
       id="param_TrigLen--hidden"
       style="display:inline;fill:#ff0000;stroke-width:0.194169;paint-order:stroke fill markers"
       d="M 11.684,25.705505 A 4.0640001,4.0576739 0 0 1 7.6848995,29.762662 4.0640001,4.0576739 0 0 1 3.5580726,25.835086 4.0640001,4.0576739 0 0 1 7.4253672,21.652488 4.0640001,4.0576739 0 0 1 11.675711,25.446476" /><path
       id="widgetLogo--hidden"
       style="fill:#ffff00;stroke-width:3.65802;paint-order:stroke fill markers"
       d="m 3.386667,117.51038 h 8.466666 v 8.45349 H 3.386667 Z" /></g></svg>
