<?xml version="1.0" encoding="UTF-8" standalone="no"?>
<!-- Created with Inkscape (http://www.inkscape.org/) -->

<svg
   width="30.48mm"
   height="128.5mm"
   viewBox="0 0 30.480002 128.50002"
   version="1.1"
   id="svg8"
   inkscape:version="1.4 (86a8ad7, 2024-10-11)"
   sodipodi:docname="ST-VCA.svg"
   xml:space="preserve"
   xmlns:inkscape="http://www.inkscape.org/namespaces/inkscape"
   xmlns:sodipodi="http://sodipodi.sourceforge.net/DTD/sodipodi-0.dtd"
   xmlns="http://www.w3.org/2000/svg"
   xmlns:svg="http://www.w3.org/2000/svg"
   xmlns:rdf="http://www.w3.org/1999/02/22-rdf-syntax-ns#"
   xmlns:cc="http://creativecommons.org/ns#"
   xmlns:dc="http://purl.org/dc/elements/1.1/"><defs
     id="defs2"><linearGradient
       id="uuid-f0636bc7-c65b-4b70-b857-f875576c11d6"
       x1="37.5"
       y1="0"
       x2="37.5"
       y2="380"
       gradientUnits="userSpaceOnUse"><stop
         offset="0"
         stop-color="#ebebeb"
         id="stop2" /><stop
         offset="1"
         stop-color="#e1e1e1"
         id="stop4" /></linearGradient></defs><sodipodi:namedview
     id="base"
     pagecolor="#ffffff"
     bordercolor="#666666"
     borderopacity="1.0"
     inkscape:pageopacity="0.0"
     inkscape:pageshadow="2"
     inkscape:zoom="8"
     inkscape:cx="48.5625"
     inkscape:cy="304.125"
     inkscape:document-units="mm"
     inkscape:current-layer="svg8"
     showgrid="true"
     units="mm"
     inkscape:snap-bbox="true"
     inkscape:snap-page="true"
     inkscape:bbox-nodes="false"
     inkscape:snap-bbox-edge-midpoints="false"
     inkscape:window-width="1920"
     inkscape:window-height="1027"
     inkscape:window-x="-8"
     inkscape:window-y="22"
     inkscape:window-maximized="1"
     inkscape:snap-bbox-midpoints="true"
     inkscape:snap-nodes="false"
     inkscape:showpageshadow="2"
     inkscape:pagecheckerboard="0"
     inkscape:deskcolor="#d1d1d1"><inkscape:grid
       id="grid1"
       units="px"
       originx="0"
       originy="0"
       spacingx="0.26458336"
       spacingy="0.26458338"
       empcolor="#3f3fff"
       empopacity="0.25098039"
       color="#3f3fff"
       opacity="0.1254902"
       empspacing="5"
       dotted="false"
       gridanglex="30"
       gridanglez="30"
       visible="true" /></sodipodi:namedview><metadata
     id="metadata5"><rdf:RDF><cc:Work
         rdf:about=""><dc:format>image/svg+xml</dc:format><dc:type
           rdf:resource="http://purl.org/dc/dcmitype/StillImage" /></cc:Work></rdf:RDF></metadata><g
     inkscape:label="Layer 1"
     inkscape:groupmode="layer"
     id="layer1"
     transform="translate(0,-168.49998)"
     style="display:inline"><path
       id="bg--background-fill"
       style="display:inline;opacity:1;vector-effect:none;fill:#1f1f1f;fill-rule:evenodd;stroke-width:0.649358"
       d="m 0,168.49997 h 30.48 v 128.5 H 0 Z" /><path
       id="rect2--hidden"
       style="display:inline;fill:#e15b5b;stroke-width:0.270917;paint-order:stroke fill markers"
       d="M 4.6302085,168.49998 H 29.765625 v 11.90625 H 4.6302085 Z" /><path
       style="font-size:4.93889px;line-height:1.25;font-family:Nunito;-inkscape-font-specification:Nunito;text-align:center;letter-spacing:0px;word-spacing:0px;text-anchor:middle;fill:#ffffff;stroke-width:0.265"
       d="m 12.728069,176.27263 q 0.631831,0 1.005624,-0.28215 0.376204,-0.28457 0.376204,-0.7717 0,-0.20981 -0.0627,-0.36897 -0.0627,-0.16158 -0.195337,-0.27975 -0.130224,-0.11816 -0.296622,-0.20016 -0.163987,-0.082 -0.405144,-0.15916 -0.01206,-0.005 -0.352088,-0.1037 -0.340031,-0.0989 -0.352089,-0.10369 -0.180868,-0.0603 -0.270096,-0.15434 -0.08682,-0.0965 -0.08682,-0.2484 0,-0.11816 0.05788,-0.20257 0.05788,-0.0844 0.161575,-0.13022 0.103698,-0.0458 0.224276,-0.0651 0.12299,-0.0217 0.272507,-0.0217 0.450963,0 0.839226,0.22187 0.0627,0.0338 0.115755,0.0338 0.101286,0 0.173633,-0.0868 0.07235,-0.0892 0.07235,-0.19775 0,-0.10611 -0.07476,-0.17363 -0.173633,-0.14952 -0.499194,-0.24598 -0.325562,-0.0989 -0.670416,-0.0989 -0.590834,0 -0.964627,0.27009 -0.371381,0.2701 -0.371381,0.73071 0,0.35691 0.180867,0.56671 0.183279,0.2074 0.595657,0.34968 l 0.795818,0.26527 q 0.224275,0.0724 0.330384,0.17605 0.106109,0.1037 0.106109,0.28698 0,0.22186 -0.197748,0.3352 -0.195337,0.11335 -0.511252,0.11335 -0.494372,0 -0.945335,-0.2701 -0.041,-0.0241 -0.0844,-0.0241 -0.103697,0 -0.190514,0.11575 -0.0844,0.11334 -0.0844,0.23151 0,0.0892 0.05547,0.13023 0.465432,0.36173 1.251603,0.36173 z m 3.048221,-0.0603 q 0.142283,0 0.243569,-0.0989 0.103697,-0.10129 0.103697,-0.26286 v -2.57073 h 0.783759 q 0.120579,0 0.192926,-0.082 0.07235,-0.082 0.07235,-0.19292 0,-0.10852 -0.07476,-0.19052 -0.07235,-0.0844 -0.190514,-0.0844 h -2.26205 q -0.120578,0 -0.195337,0.0844 -0.07235,0.082 -0.07235,0.19293 0,0.11093 0.07235,0.19292 0.07235,0.0796 0.195337,0.0796 h 0.786171 v 2.57073 q 0,0.16157 0.101286,0.26286 0.103697,0.0989 0.243568,0.0989 z m 1.777326,-1.05144 h 0.967038 q 0.106109,0 0.178456,-0.0675 0.07235,-0.0675 0.07235,-0.1688 0,-0.1037 -0.06994,-0.16881 -0.06994,-0.0675 -0.180868,-0.0675 h -0.95498 q -0.110932,0 -0.180868,0.0675 -0.06994,0.0651 -0.06994,0.16881 0,0.10128 0.06752,0.1688 0.06994,0.0675 0.171221,0.0675 z m 2.978285,1.07556 q 0.233922,0 0.364147,-0.1254 0.132636,-0.12782 0.241156,-0.46785 l 0.880223,-2.49356 q 0.0217,-0.0651 0.0217,-0.12299 0,-0.13987 -0.101286,-0.22669 -0.09887,-0.0892 -0.231511,-0.0892 -0.110932,0 -0.202571,0.0675 -0.08923,0.0675 -0.130225,0.20016 l -0.841637,2.51768 -0.841637,-2.51768 q -0.041,-0.13264 -0.132636,-0.20016 -0.08923,-0.0675 -0.20016,-0.0675 -0.132636,0 -0.233922,0.0892 -0.09887,0.0868 -0.09887,0.22669 0,0.0579 0.0217,0.12299 l 0.880222,2.49356 q 0.10852,0.34003 0.238745,0.46785 0.132636,0.1254 0.366558,0.1254 z m 3.576355,0.0362 q 0.607715,0 1.029739,-0.28215 0.135048,-0.094 0.135048,-0.24357 0,-0.10611 -0.06994,-0.1881 -0.06752,-0.082 -0.166398,-0.082 -0.05064,0 -0.101285,0.0265 -0.385851,0.20981 -0.718648,0.20981 -0.501606,0 -0.76929,-0.32556 -0.265272,-0.32798 -0.265272,-0.93087 0,-0.63424 0.265272,-0.94775 0.265273,-0.3135 0.754821,-0.3135 0.09405,0 0.180868,0.0121 0.08682,0.0121 0.163986,0.0362 0.07717,0.0217 0.125402,0.041 0.05064,0.0169 0.118166,0.0482 0.06994,0.0314 0.08923,0.0386 0.05064,0.0193 0.09164,0.0193 0.108521,0 0.188102,-0.0868 0.07958,-0.0868 0.07958,-0.19775 0,-0.15916 -0.166398,-0.2508 -0.443729,-0.22186 -0.904338,-0.22186 -0.366558,0 -0.682473,0.13022 -0.313504,0.12781 -0.542603,0.36174 -0.229099,0.23392 -0.359324,0.58118 -0.130224,0.34727 -0.130224,0.76688 0,0.53778 0.214629,0.95016 0.217041,0.40997 0.590834,0.62942 0.376205,0.21945 0.848872,0.21945 z m 3.745163,-1.32877 h -1.191314 l 0.595657,-1.58923 z m 0.390674,1.04421 q 0.041,0.11816 0.125402,0.17845 0.08441,0.0579 0.188102,0.0579 0.130225,0 0.23151,-0.0868 0.101286,-0.0868 0.101286,-0.21945 0,-0.0603 -0.02411,-0.12299 L 27.8076,173.14483 q -0.101286,-0.26769 -0.233922,-0.35933 -0.130225,-0.0916 -0.315916,-0.0916 -0.18569,0 -0.318327,0.0916 -0.130224,0.0916 -0.23151,0.35933 l -1.058678,2.65031 q -0.02412,0.0627 -0.02412,0.12299 0,0.13264 0.101286,0.21945 0.101286,0.0868 0.23151,0.0868 0.103698,0 0.188103,-0.0579 0.08441,-0.0603 0.125401,-0.17845 l 0.217041,-0.57878 h 1.53858 z"
       id="moduleName--moduleName"
       aria-label="ST-VCA" /><path
       id="outBlock--output-fill"
       style="display:inline;fill:#e6e6e6;stroke-width:0.264583"
       d="M 3.9687505,271.87299 H 26.458332 c 0.586317,0 1.058333,0.59001 1.058333,1.3229 v 10.58335 c 0,0.73289 -0.472016,1.3229 -1.058333,1.3229 H 3.9687505 c -0.586317,0 -1.0583339,-0.59001 -1.0583339,-1.3229 v -10.58335 c 0,-0.73289 0.4720169,-1.3229 1.0583339,-1.3229 z" /><path
       style="font-size:2.82222px;line-height:1.25;font-family:Nunito;-inkscape-font-specification:Nunito;letter-spacing:0px;word-spacing:0px;fill:#ffffff;stroke-width:0.264583"
       d="m 8.4392671,248.78253 q 0.3472654,0 0.5884219,-0.16123 0.07717,-0.0537 0.07717,-0.13918 0,-0.0606 -0.039963,-0.10749 -0.038585,-0.0469 -0.095084,-0.0469 -0.028939,0 -0.057878,0.0152 -0.220486,0.11989 -0.4106551,0.11989 -0.2866317,0 -0.4395938,-0.18604 -0.1515841,-0.18741 -0.1515841,-0.53192 0,-0.36242 0.1515841,-0.54157 0.1515841,-0.17914 0.4313256,-0.17914 0.053743,0 0.1033528,0.007 0.049609,0.007 0.093706,0.0207 0.044097,0.0124 0.071658,0.0234 0.028939,0.01 0.067524,0.0276 0.039963,0.0179 0.050987,0.022 0.028939,0.011 0.052365,0.011 0.062012,0 0.1074869,-0.0496 0.045475,-0.0496 0.045475,-0.113 0,-0.091 -0.095085,-0.14332 -0.2535588,-0.12677 -0.5167639,-0.12677 -0.2094617,0 -0.3899845,0.0744 -0.1791449,0.073 -0.3100584,0.2067 -0.1309135,0.13367 -0.2053275,0.33211 -0.074414,0.19844 -0.074414,0.43822 0,0.3073 0.1226453,0.54294 0.1240233,0.23427 0.3376191,0.35967 0.2149738,0.1254 0.485069,0.1254 z m 1.7404609,-0.0207 q 0.13367,0 0.208084,-0.0717 0.07579,-0.073 0.137803,-0.26733 l 0.502984,-1.4249 q 0.0124,-0.0372 0.0124,-0.0703 0,-0.0799 -0.05788,-0.12954 -0.0565,-0.051 -0.132292,-0.051 -0.06339,0 -0.115755,0.0386 -0.05099,0.0386 -0.07441,0.11437 l -0.480935,1.43868 -0.4809348,-1.43868 q -0.023427,-0.0758 -0.075792,-0.11437 -0.050987,-0.0386 -0.1143771,-0.0386 -0.075792,0 -0.1336696,0.051 -0.056499,0.0496 -0.056499,0.12954 0,0.0331 0.012402,0.0703 l 0.5029836,1.4249 q 0.062012,0.1943 0.1364257,0.26733 0.075793,0.0717 0.2094615,0.0717 z"
       id="inCV--text"
       aria-label="CV" /><path
       style="font-size:2.82222px;line-height:1.25;font-family:Nunito;-inkscape-font-specification:Nunito;letter-spacing:0px;word-spacing:0px;fill:#ffffff;stroke-width:0.264583"
       d="m 17.211677,261.30224 q 0.0813,0 0.139182,-0.0537 0.05926,-0.0537 0.05926,-0.15021 v -0.6463 h 0.361045 0.0055 q 0.09646,0 0.158474,0.0179 0.06339,0.0179 0.101975,0.0606 0.03859,0.0413 0.0565,0.0992 0.01792,0.0579 0.02756,0.15021 l 0.03445,0.31832 q 0.0096,0.1006 0.0689,0.15296 0.05926,0.051 0.141937,0.051 0.07993,0 0.132292,-0.0524 0.05374,-0.0524 0.05374,-0.14608 0,-0.0234 -0.0014,-0.0358 l -0.03859,-0.32522 q -0.02205,-0.19568 -0.117133,-0.30868 -0.09371,-0.11438 -0.285253,-0.15159 v -0.006 q 0.22462,-0.0358 0.336241,-0.15709 0.111621,-0.12265 0.111621,-0.29904 0,-0.50574 -0.726226,-0.50574 H 17.22408 q -0.08682,0 -0.148828,0.0579 -0.06063,0.0565 -0.06063,0.14469 v 1.58061 q 0,0.0951 0.05788,0.15021 0.05788,0.0537 0.139181,0.0537 z m 0.19706,-1.14377 v -0.5457 h 0.336241 0.02894 q 0.04961,0 0.08131,0.001 0.03169,0.001 0.07717,0.007 0.04547,0.004 0.07304,0.0152 0.02894,0.01 0.06201,0.0289 0.03307,0.0193 0.05099,0.0469 0.01929,0.0276 0.03169,0.0703 0.0124,0.0413 0.0124,0.0951 0,0.0565 -0.01516,0.1006 -0.01516,0.0441 -0.03859,0.073 -0.02343,0.0289 -0.06339,0.0496 -0.03859,0.0207 -0.07579,0.0317 -0.03583,0.011 -0.08957,0.0179 -0.05236,0.006 -0.09233,0.007 -0.03859,0.001 -0.09646,0.001 z m 1.770777,1.14377 q 0.08131,0 0.14056,-0.0565 0.05926,-0.0565 0.05926,-0.14883 v -1.57785 q 0,-0.0923 -0.05926,-0.14883 -0.05926,-0.0565 -0.139182,-0.0565 -0.07993,0 -0.139181,0.0565 -0.05788,0.0565 -0.05788,0.14883 v 1.57785 q 0,0.0923 0.05788,0.14883 0.05788,0.0565 0.137803,0.0565 z m 1.60128,0.0372 q 0.208083,0 0.577397,-0.0813 0.103353,-0.0248 0.146072,-0.0827 0.0441,-0.0579 0.0441,-0.18328 v -0.57877 q 0,-0.18604 -0.150206,-0.18604 h -0.5333 q -0.06063,0 -0.09509,0.0441 -0.03307,0.0427 -0.03307,0.0978 0,0.0593 0.03583,0.1006 0.03583,0.04 0.09784,0.04 h 0.28801 v 0.46991 q -0.181901,0.0427 -0.35829,0.0427 -0.607714,0 -0.607714,-0.72347 0,-0.16674 0.03445,-0.29628 0.03445,-0.12953 0.107487,-0.226 0.07304,-0.0978 0.194303,-0.14882 0.121267,-0.0524 0.285254,-0.0524 0.194303,0 0.480934,0.0882 0.02067,0.011 0.04685,0.011 0.06063,0 0.09922,-0.0482 0.03859,-0.0496 0.03859,-0.11162 0,-0.0386 -0.02205,-0.0744 -0.02205,-0.0372 -0.06477,-0.0593 -0.253559,-0.12127 -0.593934,-0.12127 -0.252181,0 -0.450618,0.0813 -0.198437,0.0813 -0.322461,0.22462 -0.124023,0.14332 -0.187413,0.32936 -0.06339,0.18603 -0.06339,0.40514 0,0.33486 0.125401,0.57051 0.125401,0.23564 0.350021,0.35277 0.22462,0.11576 0.530545,0.11576 z m 1.339452,-0.0372 q 0.0813,0 0.139181,-0.0565 0.05926,-0.0565 0.05926,-0.14883 v -0.66145 h 0.854383 v 0.66145 q 0,0.0923 0.05926,0.14883 0.05926,0.0565 0.139181,0.0565 0.08131,0 0.139182,-0.0565 0.05788,-0.0565 0.05788,-0.14883 v -1.57371 q 0,-0.0923 -0.05788,-0.14883 -0.05788,-0.0565 -0.137804,-0.0565 -0.0813,0 -0.140559,0.0565 -0.05926,0.0565 -0.05926,0.14883 v 0.5898 h -0.854383 v -0.5898 q 0,-0.0923 -0.05926,-0.14883 -0.05788,-0.0565 -0.137803,-0.0565 -0.0813,0 -0.14056,0.0565 -0.05788,0.0565 -0.05788,0.14883 v 1.57371 q 0,0.0923 0.05788,0.14883 0.05926,0.0565 0.139182,0.0565 z m 2.422589,0.003 q 0.0813,0 0.139181,-0.0565 0.05926,-0.0579 0.05926,-0.15021 v -1.46899 h 0.447862 q 0.0689,0 0.110243,-0.0469 0.04134,-0.0469 0.04134,-0.11024 0,-0.062 -0.04272,-0.10887 -0.04134,-0.0482 -0.108865,-0.0482 h -1.292599 q -0.0689,0 -0.111621,0.0482 -0.04134,0.0469 -0.04134,0.11025 0,0.0634 0.04134,0.11024 0.04134,0.0455 0.111621,0.0455 h 0.44924 v 1.46899 q 0,0.0923 0.05788,0.15021 0.05926,0.0565 0.139182,0.0565 z"
       id="inRight--text"
       aria-label="RIGHT" /><path
       style="font-size:2.82222px;line-height:1.25;font-family:Nunito;-inkscape-font-specification:Nunito;letter-spacing:0px;word-spacing:0px;fill:#ffffff;stroke-width:0.264583"
       d="m 6.3104555,261.30362 h 0.9728942 q 0.067524,0 0.1074869,-0.0469 0.041341,-0.0469 0.041341,-0.10887 0,-0.0634 -0.041341,-0.11024 -0.039963,-0.0482 -0.1074869,-0.0482 H 6.5061368 l -0.00138,-1.46623 q 0,-0.0923 -0.057878,-0.14883 -0.057878,-0.0565 -0.1378037,-0.0565 -0.081304,0 -0.1405598,0.0565 -0.059256,0.0565 -0.059256,0.14883 v 1.53926 q 0,0.0992 0.0565,0.17088 0.0565,0.0703 0.1446939,0.0703 z m 1.5654502,0 h 1.0211255 q 0.066146,0 0.1047308,-0.0455 0.039963,-0.0469 0.039963,-0.10886 0,-0.062 -0.039963,-0.10887 -0.038585,-0.0469 -0.1047308,-0.0469 H 8.074343 v -0.55259 h 0.7372499 q 0.067524,0 0.1074869,-0.0455 0.041341,-0.0455 0.041341,-0.10748 0,-0.062 -0.039963,-0.10749 -0.039963,-0.0455 -0.1088649,-0.0455 H 8.074343 v -0.50711 h 0.7909934 q 0.067524,0 0.1074868,-0.0469 0.039963,-0.0469 0.039963,-0.10886 0,-0.062 -0.039963,-0.10887 -0.039963,-0.0469 -0.1074868,-0.0469 H 7.8855519 q -0.097841,0 -0.1515841,0.0661 -0.052365,0.0648 -0.052365,0.16674 v 1.53238 q 0,0.0868 0.0565,0.15434 0.0565,0.0675 0.1378037,0.0675 z m 1.7308146,0 q 0.081304,0 0.1405597,-0.0565 0.059256,-0.0565 0.059256,-0.14883 v -0.66283 h 0.7041774 q 0.06752,0 0.106108,-0.0441 0.03859,-0.0455 0.03859,-0.10887 0,-0.062 -0.03996,-0.10748 -0.03859,-0.0455 -0.10473,-0.0455 H 9.8065356 v -0.5016 h 0.7441404 q 0.06615,0 0.104731,-0.0469 0.03996,-0.0469 0.03996,-0.10886 0,-0.062 -0.03996,-0.10887 -0.03859,-0.0469 -0.104731,-0.0469 H 9.6191226 q -0.086816,0 -0.14745,0.0565 -0.060634,0.0551 -0.060634,0.14745 v 1.57785 q 0,0.0923 0.056499,0.14883 0.057878,0.0565 0.1391818,0.0565 z m 2.0202027,0.001 q 0.0813,0 0.139182,-0.0565 0.05926,-0.0579 0.05926,-0.15021 v -1.46899 h 0.447862 q 0.0689,0 0.110243,-0.0469 0.04134,-0.0469 0.04134,-0.11024 0,-0.062 -0.04272,-0.10887 -0.04134,-0.0482 -0.108865,-0.0482 h -1.292598 q -0.0689,0 -0.111621,0.0482 -0.04134,0.0469 -0.04134,0.11025 0,0.0634 0.04134,0.11024 0.04134,0.0455 0.111621,0.0455 h 0.44924 v 1.46899 q 0,0.0923 0.05788,0.15021 0.05926,0.0565 0.139182,0.0565 z"
       id="inLeft--text"
       aria-label="LEFT" /><path
       style="font-size:2.82222px;line-height:1.25;font-family:Nunito;-inkscape-font-specification:Nunito;letter-spacing:0px;word-spacing:0px;fill:#ffffff;stroke-width:0.264583"
       d="m 17.211677,274.84353 q 0.0813,0 0.139182,-0.0537 0.05926,-0.0537 0.05926,-0.15021 v -0.6463 h 0.361045 0.0055 q 0.09646,0 0.158474,0.0179 0.06339,0.0179 0.101975,0.0606 0.03859,0.0413 0.0565,0.0992 0.01792,0.0579 0.02756,0.15021 l 0.03445,0.31832 q 0.0096,0.1006 0.0689,0.15296 0.05926,0.051 0.141937,0.051 0.07993,0 0.132292,-0.0524 0.05374,-0.0524 0.05374,-0.14608 0,-0.0234 -0.0014,-0.0358 l -0.03859,-0.32522 q -0.02205,-0.19568 -0.117133,-0.30868 -0.09371,-0.11438 -0.285253,-0.15159 v -0.006 q 0.22462,-0.0358 0.336241,-0.15709 0.111621,-0.12265 0.111621,-0.29904 0,-0.50574 -0.726226,-0.50574 H 17.22408 q -0.08682,0 -0.148828,0.0579 -0.06063,0.0565 -0.06063,0.14469 v 1.58061 q 0,0.0951 0.05788,0.15021 0.05788,0.0537 0.139181,0.0537 z m 0.19706,-1.14377 v -0.5457 h 0.336241 0.02894 q 0.04961,0 0.08131,0.001 0.03169,0.001 0.07717,0.007 0.04547,0.004 0.07304,0.0152 0.02894,0.01 0.06201,0.0289 0.03307,0.0193 0.05099,0.0469 0.01929,0.0276 0.03169,0.0703 0.0124,0.0413 0.0124,0.0951 0,0.0565 -0.01516,0.1006 -0.01516,0.0441 -0.03859,0.073 -0.02343,0.0289 -0.06339,0.0496 -0.03859,0.0207 -0.07579,0.0317 -0.03583,0.011 -0.08957,0.0179 -0.05236,0.006 -0.09233,0.007 -0.03859,0.001 -0.09646,0.001 z m 1.770777,1.14377 q 0.08131,0 0.14056,-0.0565 0.05926,-0.0565 0.05926,-0.14883 v -1.57785 q 0,-0.0923 -0.05926,-0.14883 -0.05926,-0.0565 -0.139182,-0.0565 -0.07993,0 -0.139181,0.0565 -0.05788,0.0565 -0.05788,0.14883 v 1.57785 q 0,0.0923 0.05788,0.14883 0.05788,0.0565 0.137803,0.0565 z m 1.60128,0.0372 q 0.208083,0 0.577397,-0.0813 0.103353,-0.0248 0.146072,-0.0827 0.0441,-0.0579 0.0441,-0.18328 v -0.57877 q 0,-0.18604 -0.150206,-0.18604 h -0.5333 q -0.06063,0 -0.09509,0.0441 -0.03307,0.0427 -0.03307,0.0978 0,0.0593 0.03583,0.1006 0.03583,0.04 0.09784,0.04 h 0.28801 v 0.46991 q -0.181901,0.0427 -0.35829,0.0427 -0.607714,0 -0.607714,-0.72347 0,-0.16674 0.03445,-0.29628 0.03445,-0.12953 0.107487,-0.226 0.07304,-0.0978 0.194303,-0.14882 0.121267,-0.0524 0.285254,-0.0524 0.194303,0 0.480934,0.0882 0.02067,0.011 0.04685,0.011 0.06063,0 0.09922,-0.0482 0.03859,-0.0496 0.03859,-0.11162 0,-0.0386 -0.02205,-0.0744 -0.02205,-0.0372 -0.06477,-0.0593 -0.253559,-0.12127 -0.593934,-0.12127 -0.252181,0 -0.450618,0.0813 -0.198437,0.0813 -0.322461,0.22462 -0.124023,0.14332 -0.187413,0.32936 -0.06339,0.18603 -0.06339,0.40514 0,0.33486 0.125401,0.57051 0.125401,0.23564 0.350021,0.35277 0.22462,0.11576 0.530545,0.11576 z m 1.339452,-0.0372 q 0.0813,0 0.139181,-0.0565 0.05926,-0.0565 0.05926,-0.14883 v -0.66145 h 0.854383 v 0.66145 q 0,0.0923 0.05926,0.14883 0.05926,0.0565 0.139181,0.0565 0.08131,0 0.139182,-0.0565 0.05788,-0.0565 0.05788,-0.14883 v -1.57371 q 0,-0.0923 -0.05788,-0.14883 -0.05788,-0.0565 -0.137804,-0.0565 -0.0813,0 -0.140559,0.0565 -0.05926,0.0565 -0.05926,0.14883 v 0.5898 h -0.854383 v -0.5898 q 0,-0.0923 -0.05926,-0.14883 -0.05788,-0.0565 -0.137803,-0.0565 -0.0813,0 -0.14056,0.0565 -0.05788,0.0565 -0.05788,0.14883 v 1.57371 q 0,0.0923 0.05788,0.14883 0.05926,0.0565 0.139182,0.0565 z m 2.422589,0.003 q 0.0813,0 0.139181,-0.0565 0.05926,-0.0579 0.05926,-0.15021 v -1.46899 h 0.447862 q 0.0689,0 0.110243,-0.0469 0.04134,-0.0469 0.04134,-0.11024 0,-0.062 -0.04272,-0.10887 -0.04134,-0.0482 -0.108865,-0.0482 h -1.292599 q -0.0689,0 -0.111621,0.0482 -0.04134,0.0469 -0.04134,0.11025 0,0.0634 0.04134,0.11024 0.04134,0.0455 0.111621,0.0455 h 0.44924 v 1.46899 q 0,0.0923 0.05788,0.15021 0.05926,0.0565 0.139182,0.0565 z"
       id="outRight--text-output"
       aria-label="RIGHT" /><path
       style="font-size:2.82222px;line-height:1.25;font-family:Nunito;-inkscape-font-specification:Nunito;letter-spacing:0px;word-spacing:0px;fill:#ffffff;stroke-width:0.264583"
       d="m 6.310456,274.84491 h 0.9728942 q 0.067524,0 0.1074869,-0.0469 0.041341,-0.0469 0.041341,-0.10887 0,-0.0634 -0.041341,-0.11024 -0.039963,-0.0482 -0.1074869,-0.0482 h -0.777213 l -0.00138,-1.46623 q 0,-0.0923 -0.057878,-0.14883 -0.057878,-0.0565 -0.1378037,-0.0565 -0.081304,0 -0.1405598,0.0565 -0.059256,0.0565 -0.059256,0.14883 v 1.53926 q 0,0.0992 0.0565,0.17088 0.0565,0.0703 0.1446939,0.0703 z m 1.5654502,0 h 1.0211255 q 0.066146,0 0.1047308,-0.0455 0.039963,-0.0468 0.039963,-0.10886 0,-0.062 -0.039963,-0.10887 -0.038585,-0.0469 -0.1047308,-0.0469 H 8.0743435 v -0.55259 h 0.7372499 q 0.067524,0 0.1074869,-0.0455 0.041341,-0.0455 0.041341,-0.10748 0,-0.062 -0.039963,-0.10749 -0.039963,-0.0455 -0.1088649,-0.0455 H 8.0743435 v -0.50711 h 0.7909933 q 0.067524,0 0.1074869,-0.0469 0.039963,-0.0469 0.039963,-0.10886 0,-0.062 -0.039963,-0.10887 -0.039963,-0.0469 -0.1074869,-0.0469 H 7.8855524 q -0.097841,0 -0.1515841,0.0661 -0.052365,0.0648 -0.052365,0.16674 v 1.53238 q 0,0.0868 0.0565,0.15434 0.0565,0.0675 0.1378038,0.0675 z m 1.7308145,0 q 0.081304,0 0.1405598,-0.0565 0.059256,-0.0565 0.059256,-0.14883 v -0.66283 h 0.7041769 q 0.06752,0 0.106109,-0.0441 0.03858,-0.0455 0.03858,-0.10887 0,-0.062 -0.03996,-0.10748 -0.03858,-0.0455 -0.104731,-0.0455 H 9.8065361 v -0.5016 h 0.7441399 q 0.06615,0 0.104731,-0.0469 0.03996,-0.0469 0.03996,-0.10886 0,-0.062 -0.03996,-0.10887 -0.03858,-0.0469 -0.104731,-0.0469 H 9.6191231 q -0.086816,0 -0.14745,0.0565 -0.060634,0.0551 -0.060634,0.14745 v 1.57785 q 0,0.0923 0.0565,0.14883 0.057878,0.0565 0.1391817,0.0565 z m 2.0202033,0.001 q 0.0813,0 0.139181,-0.0565 0.05926,-0.0579 0.05926,-0.15021 v -1.46899 h 0.447862 q 0.0689,0 0.110243,-0.0469 0.04134,-0.0469 0.04134,-0.11024 0,-0.062 -0.04272,-0.10887 -0.04134,-0.0482 -0.108865,-0.0482 h -1.292599 q -0.0689,0 -0.111621,0.0482 -0.04134,0.0469 -0.04134,0.11025 0,0.0634 0.04134,0.11024 0.04134,0.0455 0.111621,0.0455 h 0.44924 v 1.46899 q 0,0.0923 0.05788,0.15021 0.05925,0.0565 0.139182,0.0565 z"
       id="outLeft--text-output"
       aria-label="LEFT" /><path
       style="font-size:2.82222px;line-height:1.25;font-family:Nunito;-inkscape-font-specification:Nunito;letter-spacing:0px;word-spacing:0px;fill:#ffffff;stroke-width:0.264583"
       d="m 18.821657,248.7467 h 1.021126 q 0.06614,0 0.10473,-0.0455 0.03996,-0.0469 0.03996,-0.10887 0,-0.062 -0.03996,-0.10886 -0.03859,-0.0469 -0.10473,-0.0469 h -0.822689 v -0.5526 h 0.73725 q 0.06752,0 0.107487,-0.0455 0.04134,-0.0455 0.04134,-0.10749 0,-0.062 -0.03996,-0.10749 -0.03996,-0.0455 -0.108865,-0.0455 h -0.73725 v -0.50712 h 0.790994 q 0.06752,0 0.107487,-0.0469 0.03996,-0.0469 0.03996,-0.10887 0,-0.062 -0.03996,-0.10886 -0.03996,-0.0469 -0.107487,-0.0469 h -0.979785 q -0.09784,0 -0.151584,0.0661 -0.05236,0.0648 -0.05236,0.16674 v 1.53238 q 0,0.0868 0.0565,0.15434 0.0565,0.0675 0.137804,0.0675 z m 2.709221,-0.0703 q 0.06339,0.0882 0.157096,0.0882 0.07441,0 0.132292,-0.0524 0.05788,-0.0537 0.05788,-0.12815 0,-0.0593 -0.04134,-0.11438 l -0.551215,-0.7276 0.570508,-0.73036 q 0.03721,-0.0496 0.03721,-0.10336 0,-0.0648 -0.04685,-0.11162 -0.04685,-0.0482 -0.111621,-0.0482 -0.09371,0 -0.166743,0.1006 l -0.486447,0.62425 -0.482313,-0.63528 q -0.06477,-0.0896 -0.155718,-0.0896 -0.07441,0 -0.130914,0.0565 -0.0565,0.0551 -0.0565,0.13091 0,0.0606 0.03858,0.11438 l 0.534678,0.70418 -0.569129,0.70417 q -0.04961,0.0675 -0.04961,0.1323 0,0.0689 0.04823,0.11575 0.04961,0.0455 0.117133,0.0455 0.09371,0 0.158474,-0.0882 l 0.49885,-0.64079 z m 0.861273,0.0717 q 0.08131,0 0.139182,-0.0565 0.05926,-0.0565 0.05926,-0.14883 v -0.58566 h 0.384472 q 0.753786,0 0.753786,-0.60083 0,-0.16398 -0.05099,-0.28111 -0.05099,-0.11852 -0.150206,-0.18604 -0.09784,-0.0689 -0.227376,-0.0992 -0.128158,-0.0317 -0.299034,-0.0317 h -0.592556 q -0.101975,0 -0.158474,0.0689 -0.0565,0.0689 -0.0565,0.17363 v 1.54202 q 0,0.0923 0.05926,0.14883 0.05926,0.0565 0.139181,0.0565 z m 0.198438,-1.07762 v -0.61047 h 0.367936 q 0.09646,0 0.159852,0.011 0.06477,0.011 0.117133,0.0413 0.05374,0.0303 0.07855,0.091 0.02481,0.0606 0.02481,0.15296 0,0.0951 -0.02481,0.1571 -0.0248,0.062 -0.07855,0.0965 -0.05237,0.0331 -0.119889,0.0469 -0.06615,0.0138 -0.166743,0.0138 z"
       id="textExp--text"
       aria-label="EXP" /></g><g
     id="Widgets"
     style="display:inline"
     inkscape:label="Widgets"
     transform="matrix(1,0,0,1.0000544,0,-0.00689912)"><path
       id="param_Exp--hidden"
       style="display:inline;fill:#ff0000;stroke-width:0.264999;paint-order:stroke fill markers"
       inkscape:label="param_Exp--hidden"
       d="m 19.326101,82.497719 h 3.704 v 5.461 h -3.704 z" /><path
       id="input_3--hidden"
       style="display:inline;vector-effect:none;fill:#00ff00;fill-rule:evenodd"
       d="m 13.267467,85.228218 a 4,4 0 0 1 -3.9999995,4 4,4 0 0 1 -4,-4 4,4 0 0 1 4,-4 4,4 0 0 1 3.9999995,4 z" /><path
       id="input_2--hidden"
       style="display:inline;vector-effect:none;fill:#00ff00;fill-rule:evenodd"
       d="m 25.178101,97.785118 a 4,4 0 0 1 -4,4.000002 4,4 0 0 1 -4,-4.000002 4,4 0 0 1 4,-4 4,4 0 0 1 4,4 z" /><path
       id="input_1--hidden"
       style="display:inline;vector-effect:none;fill:#00ff00;fill-rule:evenodd"
       d="m 13.267467,97.776993 a 4,4 0 0 1 -3.9999995,3.999997 4,4 0 0 1 -4,-3.999997 4,4 0 0 1 4,-4 4,4 0 0 1 3.9999995,4 z" /><path
       id="output_2--hidden"
       style="display:inline;vector-effect:none;fill:#0000ff;fill-rule:evenodd"
       d="m 25.166636,111.31683 a 4,4 0 0 1 -4,4 4,4 0 0 1 -4,-4 4,4 0 0 1 4,-4 4,4 0 0 1 4,4 z" /><path
       id="output_1--hidden"
       style="display:inline;vector-effect:none;fill:#0000ff;fill-rule:evenodd"
       d="m 13.256,111.30872 a 4,4 0 0 1 -4.0000004,4 4,4 0 0 1 -4,-4 4,4 0 0 1 4,-4 4,4 0 0 1 4.0000004,4 z" /><path
       id="display--hidden"
       style="display:inline;fill:#ffff00;stroke-width:19.0223;paint-order:stroke fill markers"
       d="M 0,11.90625 H 30.48 V 75.406254 H 0 Z" /><path
       id="widgetLogo--hidden"
       style="fill:#ffff00;stroke-width:3.76997;paint-order:stroke fill markers"
       d="m 10.8805,118.193 h 8.719 v 8.719 h -8.719 z" /></g></svg>
