<?xml version="1.0" encoding="UTF-8" standalone="no"?>
<!-- Created with Inkscape (http://www.inkscape.org/) -->

<svg
   width="90"
   height="380.00003"
   viewBox="0 0 90.000003 380.00004"
   version="1.1"
   id="svg8"
   inkscape:version="1.4.2 (ebf0e94, 2025-05-08)"
   sodipodi:docname="ST-VCA.svg"
   xml:space="preserve"
   xmlns:inkscape="http://www.inkscape.org/namespaces/inkscape"
   xmlns:sodipodi="http://sodipodi.sourceforge.net/DTD/sodipodi-0.dtd"
   xmlns="http://www.w3.org/2000/svg"
   xmlns:svg="http://www.w3.org/2000/svg"
   xmlns:rdf="http://www.w3.org/1999/02/22-rdf-syntax-ns#"
   xmlns:cc="http://creativecommons.org/ns#"
   xmlns:dc="http://purl.org/dc/elements/1.1/"><defs
     id="defs2"><linearGradient
       id="uuid-f0636bc7-c65b-4b70-b857-f875576c11d6"
       x1="37.5"
       y1="0"
       x2="37.5"
       y2="380"
       gradientUnits="userSpaceOnUse"><stop
         offset="0"
         stop-color="#ebebeb"
         id="stop2" /><stop
         offset="1"
         stop-color="#e1e1e1"
         id="stop4" /></linearGradient></defs><sodipodi:namedview
     id="base"
     pagecolor="#ffffff"
     bordercolor="#666666"
     borderopacity="1.0"
     inkscape:pageopacity="0.0"
     inkscape:pageshadow="2"
     inkscape:zoom="4.0000001"
     inkscape:cx="19.624999"
     inkscape:cy="248.74999"
     inkscape:document-units="px"
     inkscape:current-layer="layer1"
     showgrid="true"
     units="mm"
     inkscape:snap-bbox="true"
     inkscape:snap-page="true"
     inkscape:bbox-nodes="false"
     inkscape:snap-bbox-edge-midpoints="false"
     inkscape:window-width="1920"
     inkscape:window-height="1027"
     inkscape:window-x="-8"
     inkscape:window-y="22"
     inkscape:window-maximized="1"
     inkscape:snap-bbox-midpoints="true"
     inkscape:snap-nodes="false"
     inkscape:showpageshadow="2"
     inkscape:pagecheckerboard="0"
     inkscape:deskcolor="#d1d1d1"><inkscape:grid
       id="grid1"
       units="px"
       originx="7.5355287e-16"
       originy="0"
       spacingx="1"
       spacingy="1"
       empcolor="#3f3fff"
       empopacity="0.25098039"
       color="#3f3fff"
       opacity="0.1254902"
       empspacing="5"
       dotted="false"
       gridanglex="30"
       gridanglez="30"
       visible="true" /></sodipodi:namedview><metadata
     id="metadata5"><rdf:RDF><cc:Work
         rdf:about=""><dc:format>image/svg+xml</dc:format><dc:type
           rdf:resource="http://purl.org/dc/dcmitype/StillImage" /></cc:Work></rdf:RDF></metadata><g
     inkscape:label="Layer 1"
     inkscape:groupmode="layer"
     id="layer1"
     transform="translate(0,-168.49997)"
     style="display:inline"><path
       id="bg--background-fill"
       style="display:inline;opacity:1;vector-effect:none;fill:#1f1f1f;fill-rule:evenodd;stroke-width:1.91884"
       d="m 0,168.49997 h 90 v 380 H 0 Z" /><path
       id="header--hidden"
       style="display:inline;fill:#707070;stroke-width:0.878945;paint-order:stroke fill markers"
       d="m 0,168.50002 h 90 v 35 H 0 Z" /><path
       id="footer--hidden"
       style="display:inline;fill:#707070;stroke-width:0.878945;paint-order:stroke fill markers"
       d="m 0,513.5 h 90 v 35 H 0 Z" /><path
       id="outBlock--output-fill"
       style="display:inline;fill:#bf9b30;stroke-width:0.817548"
       d="m 12,471.5 h 66 c 2.216,0 4,1.784 4,4 v 34 c 0,2.216 -1.784,4 -4,4 H 12 c -2.216,0 -4,-1.784 -4,-4 v -34 c 0,-2.216 1.784,-4 4,-4 z" /><path
       style="font-weight:500;font-size:10px;line-height:1.25;font-family:Sono;-inkscape-font-specification:'Sono Medium';text-align:center;letter-spacing:0px;word-spacing:0px;text-anchor:middle"
       d="m 51.482499,476.13003 v 1.925 h 1.255 q 0.515,0 0.8,-0.255 0.29,-0.255 0.29,-0.735 0,-0.48 -0.3,-0.705 -0.295,-0.23 -0.825,-0.23 z m -1.11,4.775 v -4.93 q 0,-0.665 0.665,-0.665 h 1.845 q 0.345,0 0.705,0.07 0.36,0.065 0.665,0.25 0.31,0.185 0.5,0.52 0.19,0.33 0.19,0.865 0,0.67 -0.32,1.065 -0.32,0.39 -0.775,0.545 l 0.96,2.175 q 0.04,0.09 0.06,0.175 0.02,0.08 0.02,0.155 0,0.205 -0.135,0.325 -0.13,0.115 -0.375,0.115 -0.3,0 -0.43,-0.15 -0.13,-0.15 -0.24,-0.43 l -0.905,-2.115 h -1.32 v 2.03 q 0,0.665 -0.56,0.665 -0.55,0 -0.55,-0.665 z m 6.15,0.595 q -0.265,0 -0.41,-0.105 -0.145,-0.11 -0.145,-0.305 0,-0.2 0.145,-0.305 0.145,-0.105 0.41,-0.105 h 0.825 v -4.55 h -0.825 q -0.265,0 -0.41,-0.105 -0.145,-0.11 -0.145,-0.31 0,-0.195 0.145,-0.3 0.145,-0.105 0.41,-0.105 h 2.69 q 0.27,0 0.41,0.105 0.145,0.105 0.145,0.3 0,0.2 -0.145,0.31 -0.14,0.105 -0.41,0.105 h -0.8 v 4.55 h 0.8 q 0.27,0 0.41,0.105 0.145,0.105 0.145,0.305 0,0.195 -0.145,0.305 -0.14,0.105 -0.41,0.105 z m 6.984995,0.105 q -0.53,0 -1.02,-0.175 -0.49,-0.18 -0.88,-0.56 -0.39,-0.38 -0.62,-0.985 -0.225,-0.605 -0.225,-1.46 0,-0.86 0.24,-1.46 0.24,-0.605 0.645,-0.985 0.41,-0.38 0.915,-0.555 0.505,-0.175 1.035,-0.175 0.57,0 0.995,0.16 0.425,0.16 0.73,0.455 0.145,0.125 0.21,0.255 0.065,0.13 0.065,0.255 0,0.195 -0.15,0.32 -0.145,0.125 -0.325,0.125 -0.135,0 -0.265,-0.07 -0.13,-0.07 -0.23,-0.18 -0.165,-0.19 -0.41,-0.335 -0.245,-0.15 -0.615,-0.15 -0.43,0 -0.825,0.24 -0.395,0.235 -0.645,0.75 -0.25,0.515 -0.25,1.35 0,0.855 0.245,1.37 0.245,0.515 0.63,0.745 0.385,0.23 0.81,0.23 0.4,0 0.69,-0.18 0.29,-0.185 0.45,-0.55 0.165,-0.365 0.175,-0.915 h -0.98 q -0.25,0 -0.395,-0.09 -0.14,-0.095 -0.14,-0.3 0,-0.21 0.135,-0.3 0.14,-0.095 0.39,-0.095 h 1.47 q 0.325,0 0.47,0.16 0.145,0.155 0.145,0.455 0,0.89 -0.325,1.48 -0.325,0.585 -0.885,0.88 -0.56,0.29 -1.26,0.29 z m 7.135006,-5.675 q 0,-0.67 0.555,-0.67 0.555,0 0.555,0.67 v 4.975 q 0,0.665 -0.555,0.665 -0.555,0 -0.555,-0.665 v -2.17 h -2.465 v 2.17 q 0,0.665 -0.555,0.665 -0.55,0 -0.55,-0.665 v -4.975 q 0,-0.33 0.14,-0.5 0.145,-0.17 0.41,-0.17 0.555,0 0.555,0.67 v 1.99 h 2.465 z m 6.364993,-0.62 q 0.62,0 0.62,0.405 0,0.2 -0.17,0.31 -0.165,0.105 -0.42,0.105 h -1.35 v 4.775 q 0,0.665 -0.555,0.665 -0.555,0 -0.555,-0.665 v -4.775 h -1.29 q -0.305,0 -0.475,-0.105 -0.165,-0.11 -0.165,-0.31 0,-0.195 0.165,-0.3 0.17,-0.105 0.475,-0.105 z"
       id="outRight--text-output"
       aria-label="RIGHT" /><path
       style="font-weight:500;font-size:10px;line-height:1.25;font-family:Sono;-inkscape-font-specification:'Sono Medium';letter-spacing:0px;word-spacing:0px"
       d="m 17.145006,480.68003 h 2.17 q 0.285,0 0.45,0.11 0.165,0.105 0.165,0.3 0,0.195 -0.165,0.305 -0.165,0.105 -0.45,0.105 h -2.615 q -0.665,0 -0.665,-0.67 v -4.9 q 0,-0.67 0.555,-0.67 0.555,0 0.555,0.67 z m 7.859993,-4.965 q 0,0.415 -0.64,0.415 h -2.455 v 1.85 h 2.01 q 0.325,0 0.46,0.105 0.135,0.105 0.135,0.305 0,0.195 -0.135,0.305 -0.135,0.105 -0.46,0.105 h -2.01 v 1.88 h 2.455 q 0.64,0 0.64,0.41 0,0.41 -0.64,0.41 h -2.9 q -0.665,0 -0.665,-0.67 v -4.855 q 0,-0.665 0.665,-0.665 h 2.9 q 0.64,0 0.64,0.405 z m 5.240004,0 q 0,0.2 -0.165,0.31 -0.165,0.105 -0.455,0.105 h -2.34 v 2.295 h 1.935 q 0.575,0 0.575,0.415 0,0.405 -0.575,0.405 h -1.935 v 1.66 q 0,0.665 -0.555,0.665 -0.555,0 -0.555,-0.665 v -4.93 q 0,-0.665 0.665,-0.665 h 2.785 q 0.29,0 0.455,0.105 0.165,0.1 0.165,0.3 z m 5.099994,-0.405 q 0.62,0 0.62,0.405 0,0.2 -0.17,0.31 -0.165,0.105 -0.42,0.105 h -1.35 v 4.775 q 0,0.665 -0.555,0.665 -0.555,0 -0.555,-0.665 v -4.775 h -1.29 q -0.305,0 -0.475,-0.105 -0.165,-0.11 -0.165,-0.31 0,-0.195 0.165,-0.3 0.17,-0.105 0.475,-0.105 z"
       id="outLeft--text-output"
       aria-label="LEFT" /><path
       style="font-weight:500;font-size:10px;line-height:1.25;font-family:Sono;-inkscape-font-specification:'Sono Medium';letter-spacing:0px;word-spacing:0px;fill:#bf9b30"
       d="m 51.482499,434.13 v 1.925 h 1.255 q 0.515,0 0.8,-0.255 0.29,-0.255 0.29,-0.735 0,-0.48 -0.3,-0.705 -0.295,-0.23 -0.825,-0.23 z m -1.11,4.775 v -4.93 q 0,-0.665 0.665,-0.665 h 1.845 q 0.345,0 0.705,0.07 0.36,0.065 0.665,0.25 0.31,0.185 0.5,0.52 0.19,0.33 0.19,0.865 0,0.67 -0.32,1.065 -0.32,0.39 -0.775,0.545 l 0.96,2.175 q 0.04,0.09 0.06,0.175 0.02,0.08 0.02,0.155 0,0.205 -0.135,0.325 -0.13,0.115 -0.375,0.115 -0.3,0 -0.43,-0.15 -0.13,-0.15 -0.24,-0.43 l -0.905,-2.115 h -1.32 v 2.03 q 0,0.665 -0.56,0.665 -0.55,0 -0.55,-0.665 z m 6.15,0.595 q -0.265,0 -0.41,-0.105 -0.145,-0.11 -0.145,-0.305 0,-0.2 0.145,-0.305 0.145,-0.105 0.41,-0.105 h 0.825 v -4.55 h -0.825 q -0.265,0 -0.41,-0.105 -0.145,-0.11 -0.145,-0.31 0,-0.195 0.145,-0.3 0.145,-0.105 0.41,-0.105 h 2.69 q 0.27,0 0.41,0.105 0.145,0.105 0.145,0.3 0,0.2 -0.145,0.31 -0.14,0.105 -0.41,0.105 h -0.8 v 4.55 h 0.8 q 0.27,0 0.41,0.105 0.145,0.105 0.145,0.305 0,0.195 -0.145,0.305 -0.14,0.105 -0.41,0.105 z m 6.984995,0.105 q -0.53,0 -1.02,-0.175 -0.49,-0.18 -0.88,-0.56 -0.39,-0.38 -0.62,-0.985 -0.225,-0.605 -0.225,-1.46 0,-0.86 0.24,-1.46 0.24,-0.605 0.645,-0.985 0.41,-0.38 0.915,-0.555 0.505,-0.175 1.035,-0.175 0.57,0 0.995,0.16 0.425,0.16 0.73,0.455 0.145,0.125 0.21,0.255 0.065,0.13 0.065,0.255 0,0.195 -0.15,0.32 -0.145,0.125 -0.325,0.125 -0.135,0 -0.265,-0.07 -0.13,-0.07 -0.23,-0.18 -0.165,-0.19 -0.41,-0.335 -0.245,-0.15 -0.615,-0.15 -0.43,0 -0.825,0.24 -0.395,0.235 -0.645,0.75 -0.25,0.515 -0.25,1.35 0,0.855 0.245,1.37 0.245,0.515 0.63,0.745 0.385,0.23 0.81,0.23 0.4,0 0.69,-0.18 0.29,-0.185 0.45,-0.55 0.165,-0.365 0.175,-0.915 h -0.98 q -0.25,0 -0.395,-0.09 -0.14,-0.095 -0.14,-0.3 0,-0.21 0.135,-0.3 0.14,-0.095 0.39,-0.095 h 1.47 q 0.325,0 0.47,0.16 0.145,0.155 0.145,0.455 0,0.89 -0.325,1.48 -0.325,0.585 -0.885,0.88 -0.56,0.29 -1.26,0.29 z M 70.6425,433.93 q 0,-0.67 0.555,-0.67 0.555,0 0.555,0.67 v 4.975 q 0,0.665 -0.555,0.665 -0.555,0 -0.555,-0.665 v -2.17 h -2.465 v 2.17 q 0,0.665 -0.555,0.665 -0.55,0 -0.55,-0.665 v -4.975 q 0,-0.33 0.14,-0.5 0.145,-0.17 0.41,-0.17 0.555,0 0.555,0.67 v 1.99 h 2.465 z m 6.364993,-0.62 q 0.62,0 0.62,0.405 0,0.2 -0.17,0.31 -0.165,0.105 -0.42,0.105 h -1.35 v 4.775 q 0,0.665 -0.555,0.665 -0.555,0 -0.555,-0.665 v -4.775 h -1.29 q -0.305,0 -0.475,-0.105 -0.165,-0.11 -0.165,-0.31 0,-0.195 0.165,-0.3 0.17,-0.105 0.475,-0.105 z"
       id="inRight--text"
       aria-label="RIGHT" /><path
       style="font-weight:500;font-size:10px;line-height:1.25;font-family:Sono;-inkscape-font-specification:'Sono Medium';letter-spacing:0px;word-spacing:0px;fill:#bf9b30"
       d="m 17.145006,438.68 h 2.17 q 0.285,0 0.45,0.11 0.165,0.105 0.165,0.3 0,0.195 -0.165,0.305 -0.165,0.105 -0.45,0.105 h -2.615 q -0.665,0 -0.665,-0.67 v -4.9 q 0,-0.67 0.555,-0.67 0.555,0 0.555,0.67 z m 7.859993,-4.965 q 0,0.415 -0.64,0.415 h -2.455 v 1.85 h 2.01 q 0.325,0 0.46,0.105 0.135,0.105 0.135,0.305 0,0.195 -0.135,0.305 -0.135,0.105 -0.46,0.105 h -2.01 v 1.88 h 2.455 q 0.64,0 0.64,0.41 0,0.41 -0.64,0.41 h -2.9 q -0.665,0 -0.665,-0.67 v -4.855 q 0,-0.665 0.665,-0.665 h 2.9 q 0.64,0 0.64,0.405 z m 5.240004,0 q 0,0.2 -0.165,0.31 -0.165,0.105 -0.455,0.105 h -2.34 v 2.295 h 1.935 q 0.575,0 0.575,0.415 0,0.405 -0.575,0.405 h -1.935 v 1.66 q 0,0.665 -0.555,0.665 -0.555,0 -0.555,-0.665 v -4.93 q 0,-0.665 0.665,-0.665 h 2.785 q 0.29,0 0.455,0.105 0.165,0.1 0.165,0.3 z m 5.099994,-0.405 q 0.62,0 0.62,0.405 0,0.2 -0.17,0.31 -0.165,0.105 -0.42,0.105 h -1.35 v 4.775 q 0,0.665 -0.555,0.665 -0.555,0 -0.555,-0.665 v -4.775 h -1.29 q -0.305,0 -0.475,-0.105 -0.165,-0.11 -0.165,-0.31 0,-0.195 0.165,-0.3 0.17,-0.105 0.475,-0.105 z"
       id="inLeft--text"
       aria-label="LEFT" /><path
       style="font-weight:500;font-size:10px;line-height:1.25;font-family:Sono;-inkscape-font-specification:'Sono Medium';letter-spacing:0px;word-spacing:0px;fill:#bf9b30"
       d="m 23.409999,400.59997 q -0.51,0 -1.01,-0.17 -0.5,-0.17 -0.91,-0.545 -0.41,-0.375 -0.655,-0.98 -0.245,-0.61 -0.245,-1.48 0,-0.87 0.245,-1.475 0.245,-0.61 0.655,-0.985 0.41,-0.375 0.91,-0.545 0.5,-0.17 1.01,-0.17 0.48,0 0.875,0.145 0.4,0.14 0.69,0.375 0.295,0.235 0.45,0.515 0.16,0.28 0.16,0.555 0,0.22 -0.14,0.35 -0.14,0.125 -0.33,0.125 -0.235,0 -0.335,-0.105 -0.095,-0.105 -0.16,-0.26 -0.055,-0.185 -0.195,-0.385 -0.14,-0.205 -0.385,-0.345 -0.245,-0.145 -0.625,-0.145 -0.425,0 -0.815,0.25 -0.385,0.245 -0.63,0.765 -0.245,0.515 -0.245,1.335 0,0.82 0.245,1.34 0.245,0.52 0.63,0.765 0.39,0.245 0.815,0.245 0.38,0 0.625,-0.14 0.245,-0.145 0.385,-0.345 0.14,-0.205 0.195,-0.39 0.065,-0.16 0.16,-0.265 0.1,-0.105 0.335,-0.105 0.19,0 0.33,0.135 0.14,0.13 0.14,0.345 0,0.275 -0.16,0.555 -0.16,0.28 -0.455,0.515 -0.29,0.235 -0.69,0.38 -0.395,0.14 -0.87,0.14 z m 5.504993,-0.075 h -0.14 q -0.335,0 -0.54,-0.145 -0.2,-0.15 -0.29,-0.44 l -1.625,-4.94 q -0.02,-0.065 -0.03,-0.13 -0.01,-0.065 -0.01,-0.11 0,-0.245 0.155,-0.37 0.16,-0.13 0.39,-0.13 0.275,0 0.395,0.15 0.12,0.145 0.195,0.445 l 1.43,4.71 1.435,-4.71 q 0.08,-0.3 0.2,-0.445 0.125,-0.15 0.4,-0.15 0.235,0 0.38,0.135 0.15,0.13 0.15,0.37 0,0.05 -0.01,0.11 -0.005,0.06 -0.025,0.125 l -1.63,4.94 q -0.09,0.29 -0.295,0.44 -0.205,0.145 -0.535,0.145 z"
       id="inCV--text"
       aria-label="CV" /><path
       style="font-size:8.3396px;line-height:1.25;font-family:Nunito;-inkscape-font-specification:Nunito;letter-spacing:0px;word-spacing:0px;fill:#bf9b30;stroke-width:0.781836"
       d="m 57.084884,400.19904 h 3.017404 q 0.195459,0 0.309477,-0.13438 0.11809,-0.13845 0.11809,-0.3217 0,-0.18324 -0.11809,-0.32169 -0.114018,-0.13845 -0.309477,-0.13845 h -2.431026 v -1.6329 h 2.178558 q 0.199531,0 0.317621,-0.13438 0.122162,-0.13438 0.122162,-0.31762 0,-0.18324 -0.11809,-0.31762 -0.11809,-0.13438 -0.321693,-0.13438 h -2.178558 v -1.49852 h 2.337368 q 0.199532,0 0.317622,-0.13845 0.11809,-0.13845 0.11809,-0.3217 0,-0.18324 -0.11809,-0.32169 -0.11809,-0.13845 -0.317622,-0.13845 h -2.895241 q -0.289117,0 -0.447928,0.19546 -0.154739,0.19139 -0.154739,0.49272 v 4.52814 q 0,0.25654 0.166955,0.45607 0.166955,0.19954 0.407207,0.19954 z m 8.00569,-0.20768 q 0.187315,0.26061 0.464216,0.26061 0.219892,0 0.390919,-0.15474 0.171027,-0.15881 0.171027,-0.3787 0,-0.1751 -0.122163,-0.33798 l -1.628828,-2.15005 1.685837,-2.1582 q 0.109946,-0.1466 0.109946,-0.30541 0,-0.19138 -0.13845,-0.32983 -0.13845,-0.14253 -0.329838,-0.14253 -0.2769,0 -0.49272,0.29727 l -1.437441,1.84464 -1.425224,-1.87722 q -0.191388,-0.26469 -0.460144,-0.26469 -0.219892,0 -0.386847,0.16696 -0.166955,0.16288 -0.166955,0.38685 0,0.17917 0.114018,0.33798 l 1.579963,2.08083 -1.681765,2.08082 q -0.146594,0.19953 -0.146594,0.39092 0,0.20361 0.142522,0.34206 0.146595,0.13437 0.346126,0.13437 0.276901,0 0.468288,-0.26061 l 1.47409,-1.89351 z m 2.545043,0.21175 q 0.240252,0 0.411279,-0.16696 0.175099,-0.16695 0.175099,-0.43978 v -1.73063 h 1.136108 q 2.227422,0 2.227422,-1.77542 0,-0.48458 -0.150666,-0.83071 -0.150667,-0.35019 -0.443856,-0.54972 -0.289117,-0.20361 -0.671892,-0.29319 -0.378702,-0.0937 -0.883639,-0.0937 h -1.75099 q -0.301333,0 -0.468288,0.2036 -0.166955,0.20361 -0.166955,0.51308 v 4.55665 q 0,0.27283 0.175099,0.43978 0.175099,0.16696 0.411279,0.16696 z m 0.586378,-3.18436 v -1.80393 h 1.087243 q 0.285045,0 0.47236,0.0326 0.191388,0.0326 0.346126,0.12216 0.158811,0.0896 0.232108,0.26876 0.0733,0.17917 0.0733,0.452 0,0.28097 -0.0733,0.46421 -0.0733,0.18325 -0.232108,0.28505 -0.154738,0.0977 -0.35427,0.13845 -0.195459,0.0407 -0.49272,0.0407 z"
       id="textExp--text"
       transform="scale(0.99924857,1.000752)"
       aria-label="EXP" /><path
       style="font-weight:500;font-size:16px;line-height:1.25;font-family:Sono;-inkscape-font-specification:'Sono Medium';letter-spacing:0px;word-spacing:0px;fill:#bf9b30;stroke-width:0.781836"
       d="m 37.070845,190.94425 q -1.2,0 -2.096,-0.336 -0.888,-0.336 -1.424,-0.872 -0.504,-0.4 -0.504,-0.936 0,-0.264 0.192,-0.488 0.192,-0.232 0.552,-0.232 0.32,0 0.544,0.152 0.232,0.144 0.432,0.352 0.368,0.432 0.928,0.736 0.56,0.304 1.408,0.304 0.576,0 1.064,-0.176 0.496,-0.176 0.792,-0.504 0.304,-0.328 0.304,-0.784 0,-0.68 -0.632,-1.048 -0.624,-0.376 -1.848,-0.68 -1.808,-0.448 -2.648,-1.184 -0.832,-0.744 -0.832,-1.888 0,-0.808 0.512,-1.384 0.52,-0.584 1.392,-0.888 0.88,-0.312 1.952,-0.312 0.952,0 1.768,0.296 0.824,0.288 1.336,0.816 0.224,0.176 0.352,0.4 0.136,0.216 0.136,0.48 0,0.32 -0.208,0.512 -0.2,0.184 -0.512,0.184 -0.312,0 -0.544,-0.168 -0.232,-0.168 -0.392,-0.344 -0.272,-0.368 -0.784,-0.608 -0.512,-0.248 -1.224,-0.248 -0.536,0 -0.984,0.152 -0.448,0.152 -0.72,0.432 -0.264,0.272 -0.264,0.656 0,0.592 0.576,0.968 0.576,0.368 1.768,0.688 1.136,0.296 1.944,0.688 0.808,0.392 1.24,0.96 0.432,0.568 0.432,1.416 0,0.896 -0.528,1.544 -0.528,0.648 -1.44,1 -0.904,0.344 -2.04,0.344 z m 12.104011,-10.072 q 0.992,0 0.992,0.648 0,0.32 -0.272,0.496 -0.264,0.168 -0.672,0.168 h -2.16 v 7.64 q 0,1.064 -0.888,1.064 -0.888,0 -0.888,-1.064 v -7.64 h -2.064 q -0.488,0 -0.76,-0.168 -0.264,-0.176 -0.264,-0.496 0,-0.312 0.264,-0.48 0.272,-0.168 0.76,-0.168 z m 2.095992,5.272 q 0,-0.328 0.232,-0.504 0.232,-0.184 0.752,-0.184 h 2.976 q 0.528,0 0.76,0.184 0.232,0.176 0.232,0.504 0,0.328 -0.232,0.504 -0.232,0.176 -0.76,0.176 h -2.976 q -0.52,0 -0.752,-0.176 -0.232,-0.176 -0.232,-0.504 z m 10.231999,4.672 h -0.224 q -0.536,0 -0.864,-0.232 -0.32,-0.24 -0.464,-0.704 l -2.6,-7.904 q -0.032,-0.104 -0.048,-0.208 -0.016,-0.104 -0.016,-0.176 0,-0.392 0.248,-0.592 0.256,-0.208 0.624,-0.208 0.44,0 0.632,0.24 0.192,0.232 0.312,0.712 l 2.288,7.536 2.296,-7.536 q 0.128,-0.48 0.32,-0.712 0.2,-0.24 0.64,-0.24 0.376,0 0.608,0.216 0.24,0.208 0.24,0.592 0,0.08 -0.016,0.176 -0.008,0.096 -0.04,0.2 l -2.608,7.904 q -0.144,0.464 -0.472,0.704 -0.328,0.232 -0.856,0.232 z m 9.607996,0.12 q -0.816,0 -1.616,-0.272 -0.8,-0.272 -1.456,-0.872 -0.656,-0.6 -1.048,-1.568 -0.392,-0.976 -0.392,-2.368 0,-1.392 0.392,-2.36 0.392,-0.976 1.048,-1.576 0.656,-0.6 1.456,-0.872 0.8,-0.272 1.616,-0.272 0.768,0 1.4,0.232 0.64,0.224 1.104,0.6 0.472,0.376 0.72,0.824 0.256,0.448 0.256,0.888 0,0.352 -0.224,0.56 -0.224,0.2 -0.528,0.2 -0.376,0 -0.536,-0.168 -0.152,-0.168 -0.256,-0.416 -0.088,-0.296 -0.312,-0.616 -0.224,-0.328 -0.616,-0.552 -0.392,-0.232 -1,-0.232 -0.68,0 -1.304,0.4 -0.616,0.392 -1.008,1.224 -0.392,0.824 -0.392,2.136 0,1.312 0.392,2.144 0.392,0.832 1.008,1.224 0.624,0.392 1.304,0.392 0.608,0 1,-0.224 0.392,-0.232 0.616,-0.552 0.224,-0.328 0.312,-0.624 0.104,-0.256 0.256,-0.424 0.16,-0.168 0.536,-0.168 0.304,0 0.528,0.216 0.224,0.208 0.224,0.552 0,0.44 -0.256,0.888 -0.256,0.448 -0.728,0.824 -0.464,0.376 -1.104,0.608 -0.632,0.224 -1.392,0.224 z m 5.343989,-0.008 q -0.352,0 -0.576,-0.2 -0.216,-0.2 -0.216,-0.576 0,-0.088 0.016,-0.192 0.016,-0.104 0.048,-0.216 l 2.736,-7.92 q 0.152,-0.456 0.456,-0.72 0.312,-0.272 0.736,-0.272 h 0.408 q 0.432,0 0.736,0.272 0.312,0.264 0.456,0.72 l 2.736,7.92 q 0.04,0.112 0.056,0.216 0.016,0.104 0.016,0.192 0,0.376 -0.224,0.576 -0.224,0.2 -0.584,0.2 -0.44,0 -0.648,-0.232 -0.208,-0.232 -0.344,-0.712 l -0.608,-1.768 h -3.592 l -0.608,1.768 q -0.128,0.48 -0.344,0.712 -0.208,0.232 -0.656,0.232 z m 1.976,-4.024 h 2.864 l -1.352,-4.08 q -0.024,-0.088 -0.048,-0.176 -0.024,-0.096 -0.04,-0.168 -0.008,0.072 -0.032,0.168 -0.016,0.088 -0.04,0.176 z"
       id="moduleName--moduleName"
       transform="scale(0.99924857,1.000752)"
       aria-label="ST-VCA" /></g><g
     id="Widgets"
     style="display:inline"
     inkscape:label="Widgets"
     transform="matrix(2.9527559,0,0,2.9573593,0,-0.02037044)"><path
       id="param_Exp--hidden"
       style="display:inline;fill:#ff0000;stroke-width:0.276285;paint-order:stroke fill markers"
       inkscape:label="param_Exp--hidden"
       d="m 19.642666,81.16037 h 4.064 v 5.410232 h -4.064 z" /><path
       id="input_3--hidden"
       style="display:inline;vector-effect:none;fill:#00ff00;fill-rule:evenodd;stroke-width:1.01521"
       d="M 12.869332,83.865486 A 4.0640001,4.0576739 0 0 1 8.8053322,87.92316 4.0640001,4.0576739 0 0 1 4.7413321,83.865486 4.0640001,4.0576739 0 0 1 8.8053322,79.807812 4.0640001,4.0576739 0 0 1 12.869332,83.865486 Z" /><path
       id="input_2--hidden"
       style="display:inline;vector-effect:none;fill:#00ff00;fill-rule:evenodd;stroke-width:1.01521"
       d="m 25.738666,97.05294 a 4.0640001,4.0576739 0 0 1 -4.064001,4.05767 4.0640001,4.0576739 0 0 1 -4.064,-4.05767 4.0640001,4.0576739 0 0 1 4.064,-4.057674 4.0640001,4.0576739 0 0 1 4.064001,4.057674 z" /><path
       id="input_1--hidden"
       style="display:inline;vector-effect:none;fill:#00ff00;fill-rule:evenodd;stroke-width:1.01521"
       d="M 12.869332,97.05294 A 4.0640001,4.0576739 0 0 1 8.8053322,101.11061 4.0640001,4.0576739 0 0 1 4.7413321,97.05294 4.0640001,4.0576739 0 0 1 8.8053322,92.995266 4.0640001,4.0576739 0 0 1 12.869332,97.05294 Z" /><path
       id="output_2--hidden"
       style="display:inline;vector-effect:none;fill:#0000ff;fill-rule:evenodd;stroke-width:1.01521"
       d="m 25.738666,111.25481 a 4.0640001,4.0576739 0 0 1 -4.064001,4.05767 4.0640001,4.0576739 0 0 1 -4.064,-4.05767 4.0640001,4.0576739 0 0 1 4.064,-4.05768 4.0640001,4.0576739 0 0 1 4.064001,4.05768 z" /><path
       id="output_1--hidden"
       style="display:inline;vector-effect:none;fill:#0000ff;fill-rule:evenodd;stroke-width:1.01521"
       d="m 12.869332,111.25481 a 4.0640001,4.0576739 0 0 1 -4.0639998,4.05767 4.0640001,4.0576739 0 0 1 -4.0640001,-4.05767 4.0640001,4.0576739 0 0 1 4.0640001,-4.05768 4.0640001,4.0576739 0 0 1 4.0639998,4.05768 z" /><path
       id="display--hidden"
       style="display:inline;fill:#ffff00;stroke-width:18.9313;paint-order:stroke fill markers"
       d="M 0,11.841786 H 30.48 V 74.735734 H 0 Z" /><path
       id="widgetLogo--hidden"
       style="fill:#ffff00;stroke-width:3.65802;paint-order:stroke fill markers"
       d="m 11.006667,118.35572 h 8.466666 v 8.45349 h -8.466666 z" /></g></svg>
