<?xml version="1.0" encoding="UTF-8" standalone="no"?>
<!-- Created with Inkscape (http://www.inkscape.org/) -->

<svg
   width="75"
   height="380.00003"
   viewBox="0 0 75.000003 380.00004"
   version="1.1"
   id="svg8"
   inkscape:version="1.4.2 (ebf0e94, 2025-05-08)"
   sodipodi:docname="Warp.svg"
   xml:space="preserve"
   xmlns:inkscape="http://www.inkscape.org/namespaces/inkscape"
   xmlns:sodipodi="http://sodipodi.sourceforge.net/DTD/sodipodi-0.dtd"
   xmlns="http://www.w3.org/2000/svg"
   xmlns:svg="http://www.w3.org/2000/svg"
   xmlns:rdf="http://www.w3.org/1999/02/22-rdf-syntax-ns#"
   xmlns:cc="http://creativecommons.org/ns#"
   xmlns:dc="http://purl.org/dc/elements/1.1/"><defs
     id="defs2"><linearGradient
       id="uuid-f0636bc7-c65b-4b70-b857-f875576c11d6"
       x1="37.5"
       y1="0"
       x2="37.5"
       y2="380"
       gradientUnits="userSpaceOnUse"><stop
         offset="0"
         stop-color="#ebebeb"
         id="stop2" /><stop
         offset="1"
         stop-color="#e1e1e1"
         id="stop4" /></linearGradient></defs><sodipodi:namedview
     id="base"
     pagecolor="#ffffff"
     bordercolor="#666666"
     borderopacity="1.0"
     inkscape:pageopacity="0.0"
     inkscape:pageshadow="2"
     inkscape:zoom="2.8284272"
     inkscape:cx="-2.4748737"
     inkscape:cy="219.55665"
     inkscape:document-units="px"
     inkscape:current-layer="layer1"
     showgrid="true"
     units="mm"
     inkscape:snap-bbox="true"
     inkscape:snap-page="true"
     inkscape:bbox-nodes="false"
     inkscape:snap-bbox-edge-midpoints="false"
     inkscape:window-width="1920"
     inkscape:window-height="1027"
     inkscape:window-x="-8"
     inkscape:window-y="22"
     inkscape:window-maximized="1"
     inkscape:snap-bbox-midpoints="true"
     inkscape:snap-nodes="false"
     inkscape:showpageshadow="2"
     inkscape:pagecheckerboard="0"
     inkscape:deskcolor="#d1d1d1"><inkscape:grid
       id="grid1"
       units="px"
       originx="7.5355286e-16"
       originy="0"
       spacingx="1"
       spacingy="1"
       empcolor="#3f3fff"
       empopacity="0.25098039"
       color="#3f3fff"
       opacity="0.1254902"
       empspacing="5"
       dotted="false"
       gridanglex="30"
       gridanglez="30"
       visible="true" /></sodipodi:namedview><metadata
     id="metadata5"><rdf:RDF><cc:Work
         rdf:about=""><dc:format>image/svg+xml</dc:format><dc:type
           rdf:resource="http://purl.org/dc/dcmitype/StillImage" /></cc:Work></rdf:RDF></metadata><g
     inkscape:label="Layer 1"
     inkscape:groupmode="layer"
     id="layer1"
     transform="translate(0,-168.49997)"
     style="display:inline"><path
       id="bg--background-fill"
       style="display:inline;opacity:1;vector-effect:none;fill:#1f1f1f;fill-rule:evenodd;stroke-width:1.75165"
       d="m 0,168.49997 h 75 v 380 H 0 Z" /><path
       id="header--hidden"
       style="display:inline;fill:#707070;stroke-width:0.802364;paint-order:stroke fill markers"
       d="m 0,168.50002 h 75 v 35 H 0 Z" /><path
       id="footer--hidden"
       style="display:inline;fill:#707070;stroke-width:0.802363;paint-order:stroke fill markers"
       d="m 0,513.5 h 75 v 35 H 0 Z" /><path
       id="outBlock--output-fill"
       style="display:inline;fill:#bf9b30;stroke-width:0.570227"
       d="m 23.5,471.5 h 28 c 2.216,0 4,1.784 4,4 v 34 c 0,2.216 -1.784,4 -4,4 h -28 c -2.216,0 -4,-1.784 -4,-4 v -34 c 0,-2.216 1.784,-4 4,-4 z" /><path
       style="font-weight:500;font-size:10px;line-height:1.25;font-family:Sono;-inkscape-font-specification:'Sono Medium';letter-spacing:0px;word-spacing:0px"
       d="m 31.562506,481.60503 q -0.495,0 -0.975,-0.17 -0.48,-0.175 -0.875,-0.55 -0.39,-0.375 -0.625,-0.98 -0.235,-0.61 -0.235,-1.48 0,-0.87 0.235,-1.475 0.235,-0.61 0.625,-0.98 0.395,-0.375 0.875,-0.545 0.48,-0.175 0.975,-0.175 0.485,0 0.965,0.175 0.48,0.17 0.87,0.545 0.395,0.37 0.63,0.98 0.235,0.605 0.235,1.475 0,0.87 -0.235,1.48 -0.235,0.605 -0.63,0.98 -0.39,0.375 -0.87,0.55 -0.48,0.17 -0.965,0.17 z m 0,-0.825 q 0.425,0 0.78,-0.255 0.355,-0.26 0.57,-0.78 0.215,-0.525 0.215,-1.32 0,-0.79 -0.215,-1.31 -0.215,-0.525 -0.57,-0.78 -0.355,-0.26 -0.78,-0.26 -0.43,0 -0.79,0.26 -0.36,0.255 -0.575,0.78 -0.215,0.52 -0.215,1.31 0,0.795 0.215,1.32 0.215,0.52 0.575,0.78 0.36,0.255 0.79,0.255 z m 6.254997,0.825 q -0.68,0 -1.24,-0.275 -0.56,-0.28 -0.895,-0.88 -0.33,-0.6 -0.33,-1.575 v -2.9 q 0,-0.665 0.555,-0.665 0.555,0 0.555,0.665 v 2.84 q 0,0.95 0.36,1.46 0.36,0.505 0.995,0.505 0.64,0 0.995,-0.505 0.355,-0.51 0.355,-1.46 v -2.84 q 0,-0.665 0.555,-0.665 0.555,0 0.555,0.665 v 2.9 q 0,0.975 -0.33,1.575 -0.33,0.6 -0.885,0.88 -0.555,0.275 -1.245,0.275 z m 7.709994,-6.295 q 0.62,0 0.62,0.405 0,0.2 -0.17,0.31 -0.165,0.105 -0.42,0.105 h -1.35 v 4.775 q 0,0.665 -0.555,0.665 -0.555,0 -0.555,-0.665 v -4.775 h -1.29 q -0.305,0 -0.475,-0.105 -0.165,-0.11 -0.165,-0.31 0,-0.195 0.165,-0.3 0.17,-0.105 0.475,-0.105 z"
       id="out--text-output"
       aria-label="OUT" /><path
       id="NormalInMod--silkscreen"
       style="display:inline;fill:#bf9b30;stroke-width:0.264999;paint-order:stroke fill markers"
       transform="matrix(0,-1.0183186,-1.007874,0,49.833329,462.97159)"
       d="m 13.229166,9.260416 3.437038,5.953125 -6.8740763,0 z" /><path
       style="font-weight:500;font-size:10px;line-height:1.25;font-family:Sono;-inkscape-font-specification:'Sono Medium';letter-spacing:0px;word-spacing:0px;fill:#bf9b30"
       d="m 46.525004,431.44529 q -0.245,0 -0.395,-0.145 -0.15,-0.15 -0.15,-0.425 0,-0.09 0,-0.375 0,-0.29 0,-0.705 0,-0.415 0,-0.89 0,-0.48 0,-0.96 0,-0.48 0,-0.9 0,-0.42 0,-0.715 0,-0.3 0,-0.405 0,-0.265 0.1,-0.445 0.1,-0.185 0.27,-0.275 0.175,-0.095 0.38,-0.095 h 0.035 q 0.305,0 0.515,0.195 0.215,0.195 0.34,0.49 l 1.2,2.76 1.205,-2.76 q 0.13,-0.295 0.34,-0.49 0.215,-0.195 0.52,-0.195 h 0.03 q 0.205,0 0.375,0.095 0.17,0.095 0.27,0.275 0.1,0.18 0.1,0.445 0,0.105 0,0.405 0,0.295 0,0.715 0,0.42 0,0.9 0,0.48 0,0.96 0,0.475 0,0.89 0,0.415 0,0.705 0,0.285 0,0.375 0,0.275 -0.135,0.425 -0.135,0.145 -0.38,0.145 -0.56,0 -0.56,-0.645 v -3.585 l -1.16,2.64 q -0.125,0.29 -0.24,0.44 -0.11,0.15 -0.365,0.15 -0.255,0 -0.365,-0.15 -0.11,-0.15 -0.24,-0.44 l -1.17,-2.675 v 3.62 q 0,0.32 -0.125,0.485 -0.125,0.16 -0.395,0.16 z m 8.854995,0.055 q -0.495,0 -0.975,-0.17 -0.48,-0.175 -0.875,-0.55 -0.39,-0.375 -0.625,-0.98 -0.235,-0.61 -0.235,-1.48 0,-0.87 0.235,-1.475 0.235,-0.61 0.625,-0.98 0.395,-0.375 0.875,-0.545 0.48,-0.175 0.975,-0.175 0.485,0 0.965,0.175 0.48,0.17 0.87,0.545 0.395,0.37 0.63,0.98 0.235,0.605 0.235,1.475 0,0.87 -0.235,1.48 -0.235,0.605 -0.63,0.98 -0.39,0.375 -0.87,0.55 -0.48,0.17 -0.965,0.17 z m 0,-0.825 q 0.425,0 0.78,-0.255 0.355,-0.26 0.57,-0.78 0.215,-0.525 0.215,-1.32 0,-0.79 -0.215,-1.31 -0.215,-0.525 -0.57,-0.78 -0.355,-0.26 -0.78,-0.26 -0.43,0 -0.79,0.26 -0.36,0.255 -0.575,0.78 -0.215,0.52 -0.215,1.31 0,0.795 0.215,1.32 0.215,0.52 0.575,0.78 0.36,0.255 0.79,0.255 z m 5.679997,-5.47 q 0.315,0 0.705,0.065 0.39,0.065 0.785,0.25 0.395,0.18 0.73,0.525 0.335,0.345 0.535,0.895 0.205,0.55 0.205,1.36 0,0.805 -0.205,1.355 -0.2,0.55 -0.535,0.895 -0.335,0.345 -0.73,0.53 -0.395,0.18 -0.785,0.25 -0.39,0.065 -0.705,0.065 h -1.25 q -0.665,0 -0.665,-0.67 v -4.855 q 0,-0.665 0.665,-0.665 z m -0.015,5.37 q 0.365,0 0.695,-0.125 0.335,-0.125 0.595,-0.395 0.265,-0.27 0.415,-0.705 0.15,-0.435 0.15,-1.05 0,-0.62 -0.15,-1.055 -0.15,-0.435 -0.415,-0.705 -0.26,-0.27 -0.595,-0.39 -0.33,-0.125 -0.695,-0.125 h -0.795 v 4.55 z"
       id="inModulator--text"
       aria-label="MOD" /><path
       style="font-weight:500;font-size:10px;line-height:1.25;font-family:Sono;-inkscape-font-specification:'Sono Medium';letter-spacing:0px;word-spacing:0px;fill:#bf9b30"
       d="m 15.779999,431.50003 q -0.265,0 -0.41,-0.105 -0.145,-0.11 -0.145,-0.305 0,-0.2 0.145,-0.305 0.145,-0.105 0.41,-0.105 h 0.825 v -4.55 h -0.825 q -0.265,0 -0.41,-0.105 -0.145,-0.11 -0.145,-0.31 0,-0.195 0.145,-0.3 0.145,-0.105 0.41,-0.105 h 2.69 q 0.27,0 0.41,0.105 0.145,0.105 0.145,0.3 0,0.2 -0.145,0.31 -0.14,0.105 -0.41,0.105 h -0.8 v 4.55 h 0.8 q 0.27,0 0.41,0.105 0.145,0.105 0.145,0.305 0,0.195 -0.145,0.305 -0.14,0.105 -0.41,0.105 z m 4.804995,0.045 q -0.5,0 -0.5,-0.655 v -4.94 q 0,-0.325 0.195,-0.495 0.2,-0.17 0.52,-0.17 h 0.025 q 0.285,0 0.485,0.145 0.205,0.145 0.345,0.415 l 2.11,3.995 v -3.9 q 0,-0.655 0.505,-0.655 0.235,0 0.37,0.165 0.135,0.165 0.135,0.49 v 4.94 q 0,0.32 -0.17,0.495 -0.165,0.17 -0.485,0.17 h -0.01 q -0.29,0 -0.48,-0.145 -0.185,-0.145 -0.33,-0.415 l -2.225,-4.135 v 4.04 q 0,0.655 -0.49,0.655 z"
       id="inInput--text"
       aria-label="IN" /><path
       id="silkBiasCVLine--silkscreen"
       style="display:inline;fill:#bf9b30;stroke-width:0"
       d="m 25,322.50037 h 27 v 2 H 25 Z" /><path
       id="silkAmountCVLine--silkscreen"
       style="display:inline;fill:#bf9b30;stroke-width:0"
       d="m 25,276.50037 h 27 v 2 H 25 Z" /><path
       style="font-weight:500;font-size:10px;line-height:1.25;font-family:Sono;-inkscape-font-specification:'Sono Medium';letter-spacing:0px;word-spacing:0px;fill:#bf9b30"
       d="m 22.619997,302.14496 q 0.09,0 0.31,0.06 0.225,0.06 0.47,0.225 0.25,0.16 0.425,0.46 0.175,0.295 0.175,0.77 0,0.58 -0.265,0.965 -0.26,0.385 -0.75,0.58 -0.485,0.19 -1.175,0.19 h -1.78 q -0.665,0 -0.665,-0.67 v -4.855 q 0,-0.665 0.665,-0.665 h 1.52 q 0.59,0 1.1,0.125 0.51,0.12 0.82,0.445 0.315,0.325 0.315,0.945 0,0.44 -0.15,0.72 -0.145,0.28 -0.35,0.435 -0.205,0.15 -0.395,0.21 -0.19,0.06 -0.27,0.06 z m -2.145,-2.12 v 1.815 h 1.105 q 0.32,0 0.57,-0.105 0.255,-0.105 0.395,-0.315 0.145,-0.21 0.145,-0.525 0,-0.365 -0.17,-0.55 -0.165,-0.185 -0.45,-0.25 -0.28,-0.07 -0.625,-0.07 z m 1.01,4.55 q 0.685,0 1.035,-0.245 0.35,-0.245 0.35,-0.77 0,-0.535 -0.365,-0.755 -0.365,-0.22 -0.88,-0.22 h -1.15 v 1.99 z m 4.215007,0.82 q -0.265,0 -0.41,-0.105 -0.145,-0.11 -0.145,-0.305 0,-0.2 0.145,-0.305 0.145,-0.105 0.41,-0.105 h 0.825 v -4.55 h -0.825 q -0.265,0 -0.41,-0.105 -0.145,-0.11 -0.145,-0.31 0,-0.195 0.145,-0.3 0.145,-0.105 0.41,-0.105 h 2.69 q 0.27,0 0.41,0.105 0.145,0.105 0.145,0.3 0,0.2 -0.145,0.31 -0.14,0.105 -0.41,0.105 h -0.8 v 4.55 h 0.8 q 0.27,0 0.41,0.105 0.145,0.105 0.145,0.305 0,0.195 -0.145,0.305 -0.14,0.105 -0.41,0.105 z m 4.484996,0.095 q -0.22,0 -0.36,-0.125 -0.135,-0.125 -0.135,-0.36 0,-0.055 0.01,-0.12 0.01,-0.065 0.03,-0.135 l 1.71,-4.95 q 0.095,-0.285 0.285,-0.45 0.195,-0.17 0.46,-0.17 h 0.255 q 0.27,0 0.46,0.17 0.195,0.165 0.285,0.45 l 1.71,4.95 q 0.025,0.07 0.035,0.135 0.01,0.065 0.01,0.12 0,0.235 -0.14,0.36 -0.14,0.125 -0.365,0.125 -0.275,0 -0.405,-0.145 -0.13,-0.145 -0.215,-0.445 l -0.38,-1.105 H 31.19 l -0.38,1.105 q -0.08,0.3 -0.215,0.445 -0.13,0.145 -0.41,0.145 z m 1.235,-2.515 h 1.79 l -0.845,-2.55 q -0.015,-0.055 -0.03,-0.11 -0.015,-0.06 -0.025,-0.105 -0.005,0.045 -0.02,0.105 -0.01,0.055 -0.025,0.11 z m 6.739997,2.525 q -0.75,0 -1.31,-0.21 -0.555,-0.21 -0.89,-0.545 -0.315,-0.25 -0.315,-0.585 0,-0.165 0.12,-0.305 0.12,-0.145 0.345,-0.145 0.2,0 0.34,0.095 0.145,0.09 0.27,0.22 0.23,0.27 0.58,0.46 0.35,0.19 0.88,0.19 0.36,0 0.665,-0.11 0.31,-0.11 0.495,-0.315 0.19,-0.205 0.19,-0.49 0,-0.425 -0.395,-0.655 -0.39,-0.235 -1.155,-0.425 -1.13,-0.28 -1.655,-0.74 -0.52,-0.465 -0.52,-1.18 0,-0.505 0.32,-0.865 0.325,-0.365 0.87,-0.555 0.55,-0.195 1.22,-0.195 0.595,0 1.105,0.185 0.515,0.18 0.835,0.51 0.14,0.11 0.22,0.25 0.085,0.135 0.085,0.3 0,0.2 -0.13,0.32 -0.125,0.115 -0.32,0.115 -0.195,0 -0.34,-0.105 -0.145,-0.105 -0.245,-0.215 -0.17,-0.23 -0.49,-0.38 -0.32,-0.155 -0.765,-0.155 -0.335,0 -0.615,0.095 -0.28,0.095 -0.45,0.27 -0.165,0.17 -0.165,0.41 0,0.37 0.36,0.605 0.36,0.23 1.105,0.43 0.71,0.185 1.215,0.43 0.505,0.245 0.775,0.6 0.27,0.355 0.27,0.885 0,0.56 -0.33,0.965 -0.33,0.405 -0.9,0.625 -0.565,0.215 -1.275,0.215 z m 9.475014,-0.005 q -0.51,0 -1.01,-0.17 -0.5,-0.17 -0.91,-0.545 -0.41,-0.375 -0.655,-0.98 -0.245,-0.61 -0.245,-1.48 0,-0.87 0.245,-1.475 0.245,-0.61 0.655,-0.985 0.41,-0.375 0.91,-0.545 0.5,-0.17 1.01,-0.17 0.48,0 0.875,0.145 0.4,0.14 0.69,0.375 0.295,0.235 0.45,0.515 0.16,0.28 0.16,0.555 0,0.22 -0.14,0.35 -0.14,0.125 -0.33,0.125 -0.235,0 -0.335,-0.105 -0.095,-0.105 -0.16,-0.26 -0.055,-0.185 -0.195,-0.385 -0.14,-0.205 -0.385,-0.345 -0.245,-0.145 -0.625,-0.145 -0.425,0 -0.815,0.25 -0.385,0.245 -0.63,0.765 -0.245,0.515 -0.245,1.335 0,0.82 0.245,1.34 0.245,0.52 0.63,0.765 0.39,0.245 0.815,0.245 0.38,0 0.625,-0.14 0.245,-0.145 0.385,-0.345 0.14,-0.205 0.195,-0.39 0.065,-0.16 0.16,-0.265 0.1,-0.105 0.335,-0.105 0.19,0 0.33,0.135 0.14,0.13 0.14,0.345 0,0.275 -0.16,0.555 -0.16,0.28 -0.455,0.515 -0.29,0.235 -0.69,0.38 -0.395,0.14 -0.87,0.14 z m 5.504993,-0.075 h -0.14 q -0.335,0 -0.54,-0.145 -0.2,-0.15 -0.29,-0.44 l -1.625,-4.94 q -0.02,-0.065 -0.03,-0.13 -0.01,-0.065 -0.01,-0.11 0,-0.245 0.155,-0.37 0.16,-0.13 0.39,-0.13 0.275,0 0.395,0.15 0.12,0.145 0.195,0.445 l 1.43,4.71 1.435,-4.71 q 0.08,-0.3 0.2,-0.445 0.125,-0.15 0.4,-0.15 0.235,0 0.38,0.135 0.15,0.13 0.15,0.37 0,0.05 -0.01,0.11 -0.005,0.06 -0.025,0.125 l -1.63,4.94 q -0.09,0.29 -0.295,0.44 -0.205,0.145 -0.535,0.145 z"
       id="inBiasCV--text"
       aria-label="BIAS CV" /><path
       style="font-weight:500;font-size:10px;line-height:1.25;font-family:Sono;-inkscape-font-specification:'Sono Medium';letter-spacing:0px;word-spacing:0px;fill:#bf9b30"
       d="m 21.865002,259.49499 q -0.22,0 -0.36,-0.125 -0.135,-0.125 -0.135,-0.36 0,-0.055 0.01,-0.12 0.01,-0.065 0.03,-0.135 l 1.71,-4.95 q 0.095,-0.285 0.285,-0.45 0.195,-0.17 0.46,-0.17 h 0.255 q 0.27,0 0.46,0.17 0.195,0.165 0.285,0.45 l 1.71,4.95 q 0.025,0.07 0.035,0.135 0.01,0.065 0.01,0.12 0,0.235 -0.14,0.36 -0.14,0.125 -0.365,0.125 -0.275,0 -0.405,-0.145 -0.13,-0.145 -0.215,-0.445 l -0.38,-1.105 h -2.245 l -0.38,1.105 q -0.08,0.3 -0.215,0.445 -0.13,0.145 -0.41,0.145 z m 1.235,-2.515 h 1.79 l -0.845,-2.55 q -0.015,-0.055 -0.03,-0.11 -0.015,-0.06 -0.025,-0.105 -0.005,0.045 -0.02,0.105 -0.01,0.055 -0.025,0.11 z m 4.819997,2.47 q -0.245,0 -0.395,-0.145 -0.15,-0.15 -0.15,-0.425 0,-0.09 0,-0.375 0,-0.29 0,-0.705 0,-0.415 0,-0.89 0,-0.48 0,-0.96 0,-0.48 0,-0.9 0,-0.42 0,-0.715 0,-0.3 0,-0.405 0,-0.265 0.1,-0.445 0.1,-0.185 0.27,-0.275 0.175,-0.095 0.38,-0.095 h 0.035 q 0.305,0 0.515,0.195 0.215,0.195 0.34,0.49 l 1.2,2.76 1.205,-2.76 q 0.13,-0.295 0.34,-0.49 0.215,-0.195 0.52,-0.195 h 0.03 q 0.205,0 0.375,0.095 0.17,0.095 0.27,0.275 0.1,0.18 0.1,0.445 0,0.105 0,0.405 0,0.295 0,0.715 0,0.42 0,0.9 0,0.48 0,0.96 0,0.475 0,0.89 0,0.415 0,0.705 0,0.285 0,0.375 0,0.275 -0.135,0.425 -0.135,0.145 -0.38,0.145 -0.56,0 -0.56,-0.645 v -3.585 l -1.16,2.64 q -0.125,0.29 -0.24,0.44 -0.11,0.15 -0.365,0.15 -0.255,0 -0.365,-0.15 -0.11,-0.15 -0.24,-0.44 l -1.17,-2.675 v 3.62 q 0,0.32 -0.125,0.485 -0.125,0.16 -0.395,0.16 z m 10.304995,-6.24 q 0.62,0 0.62,0.405 0,0.2 -0.17,0.31 -0.165,0.105 -0.42,0.105 h -1.35 v 4.775 q 0,0.665 -0.555,0.665 -0.555,0 -0.555,-0.665 v -4.775 h -1.29 q -0.305,0 -0.475,-0.105 -0.165,-0.11 -0.165,-0.31 0,-0.195 0.165,-0.3 0.17,-0.105 0.475,-0.105 z m 7.405003,6.29 q -0.51,0 -1.01,-0.17 -0.5,-0.17 -0.91,-0.545 -0.41,-0.375 -0.655,-0.98 -0.245,-0.61 -0.245,-1.48 0,-0.87 0.245,-1.475 0.245,-0.61 0.655,-0.985 0.41,-0.375 0.91,-0.545 0.5,-0.17 1.01,-0.17 0.48,0 0.875,0.145 0.4,0.14 0.69,0.375 0.295,0.235 0.45,0.515 0.16,0.28 0.16,0.555 0,0.22 -0.14,0.35 -0.14,0.125 -0.33,0.125 -0.235,0 -0.335,-0.105 -0.095,-0.105 -0.16,-0.26 -0.055,-0.185 -0.195,-0.385 -0.14,-0.205 -0.385,-0.345 -0.245,-0.145 -0.625,-0.145 -0.425,0 -0.815,0.25 -0.385,0.245 -0.63,0.765 -0.245,0.515 -0.245,1.335 0,0.82 0.245,1.34 0.245,0.52 0.63,0.765 0.39,0.245 0.815,0.245 0.38,0 0.625,-0.14 0.245,-0.145 0.385,-0.345 0.14,-0.205 0.195,-0.39 0.065,-0.16 0.16,-0.265 0.1,-0.105 0.335,-0.105 0.19,0 0.33,0.135 0.14,0.13 0.14,0.345 0,0.275 -0.16,0.555 -0.16,0.28 -0.455,0.515 -0.29,0.235 -0.69,0.38 -0.395,0.14 -0.87,0.14 z m 5.504993,-0.075 h -0.14 q -0.335,0 -0.54,-0.145 -0.2,-0.15 -0.29,-0.44 l -1.625,-4.94 q -0.02,-0.065 -0.03,-0.13 -0.01,-0.065 -0.01,-0.11 0,-0.245 0.155,-0.37 0.16,-0.13 0.39,-0.13 0.275,0 0.395,0.15 0.12,0.145 0.195,0.445 l 1.43,4.71 1.435,-4.71 q 0.08,-0.3 0.2,-0.445 0.125,-0.15 0.4,-0.15 0.235,0 0.38,0.135 0.15,0.13 0.15,0.37 0,0.05 -0.01,0.11 -0.005,0.06 -0.025,0.125 l -1.63,4.94 q -0.09,0.29 -0.295,0.44 -0.205,0.145 -0.535,0.145 z"
       id="inAmount--text"
       aria-label="AMT CV" /><path
       style="font-weight:500;font-size:10px;line-height:1.25;font-family:Sono;-inkscape-font-specification:'Sono Medium';letter-spacing:0px;word-spacing:0px;fill:#bf9b30"
       d="m 11.757505,213.49002 q -0.22,0 -0.36,-0.125 -0.135,-0.125 -0.135,-0.36 0,-0.055 0.01,-0.12 0.01,-0.065 0.03,-0.135 l 1.71,-4.95 q 0.095,-0.285 0.285,-0.45 0.195,-0.17 0.46,-0.17 h 0.255 q 0.27,0 0.46,0.17 0.195,0.165 0.285,0.45 l 1.71,4.95 q 0.025,0.07 0.035,0.135 0.01,0.065 0.01,0.12 0,0.235 -0.14,0.36 -0.14,0.125 -0.365,0.125 -0.275,0 -0.405,-0.145 -0.13,-0.145 -0.215,-0.445 l -0.38,-1.105 h -2.245 l -0.38,1.105 q -0.08,0.3 -0.215,0.445 -0.13,0.145 -0.41,0.145 z m 1.235,-2.515 h 1.79 l -0.845,-2.55 q -0.015,-0.055 -0.03,-0.11 -0.015,-0.06 -0.025,-0.105 -0.005,0.045 -0.02,0.105 -0.01,0.055 -0.025,0.11 z m 4.819997,2.47 q -0.245,0 -0.395,-0.145 -0.15,-0.15 -0.15,-0.425 0,-0.09 0,-0.375 0,-0.29 0,-0.705 0,-0.415 0,-0.89 0,-0.48 0,-0.96 0,-0.48 0,-0.9 0,-0.42 0,-0.715 0,-0.3 0,-0.405 0,-0.265 0.1,-0.445 0.1,-0.185 0.27,-0.275 0.175,-0.095 0.38,-0.095 h 0.035 q 0.305,0 0.515,0.195 0.215,0.195 0.34,0.49 l 1.2,2.76 1.205,-2.76 q 0.13,-0.295 0.34,-0.49 0.215,-0.195 0.52,-0.195 h 0.03 q 0.205,0 0.375,0.095 0.17,0.095 0.27,0.275 0.1,0.18 0.1,0.445 0,0.105 0,0.405 0,0.295 0,0.715 0,0.42 0,0.9 0,0.48 0,0.96 0,0.475 0,0.89 0,0.415 0,0.705 0,0.285 0,0.375 0,0.275 -0.135,0.425 -0.135,0.145 -0.38,0.145 -0.56,0 -0.56,-0.645 v -3.585 l -1.16,2.64 q -0.125,0.29 -0.24,0.44 -0.11,0.15 -0.365,0.15 -0.255,0 -0.365,-0.15 -0.11,-0.15 -0.24,-0.44 l -1.17,-2.675 v 3.62 q 0,0.32 -0.125,0.485 -0.125,0.16 -0.395,0.16 z m 10.304995,-6.24 q 0.62,0 0.62,0.405 0,0.2 -0.17,0.31 -0.165,0.105 -0.42,0.105 h -1.35 v 4.775 q 0,0.665 -0.555,0.665 -0.555,0 -0.555,-0.665 v -4.775 h -1.29 q -0.305,0 -0.475,-0.105 -0.165,-0.11 -0.165,-0.31 0,-0.195 0.165,-0.3 0.17,-0.105 0.475,-0.105 z"
       id="paramAmount--text"
       aria-label="AMT" /><path
       style="font-weight:500;font-size:10px;line-height:1.25;font-family:Sono;-inkscape-font-specification:'Sono Medium';letter-spacing:0px;word-spacing:0px;fill:#bf9b30"
       d="m 47.604998,210.14502 q 0.09,0 0.31,0.06 0.225,0.06 0.47,0.225 0.25,0.16 0.425,0.46 0.175,0.295 0.175,0.77 0,0.58 -0.265,0.965 -0.26,0.385 -0.75,0.58 -0.485,0.19 -1.175,0.19 h -1.78 q -0.665,0 -0.665,-0.67 v -4.855 q 0,-0.665 0.665,-0.665 h 1.52 q 0.59,0 1.1,0.125 0.51,0.12 0.82,0.445 0.315,0.325 0.315,0.945 0,0.44 -0.15,0.72 -0.145,0.28 -0.35,0.435 -0.205,0.15 -0.395,0.21 -0.19,0.06 -0.27,0.06 z m -2.145,-2.12 v 1.815 h 1.105 q 0.32,0 0.57,-0.105 0.255,-0.105 0.395,-0.315 0.145,-0.21 0.145,-0.525 0,-0.365 -0.17,-0.55 -0.165,-0.185 -0.45,-0.25 -0.28,-0.07 -0.625,-0.07 z m 1.01,4.55 q 0.685,0 1.035,-0.245 0.35,-0.245 0.35,-0.77 0,-0.535 -0.365,-0.755 -0.365,-0.22 -0.88,-0.22 h -1.15 v 1.99 z m 4.215007,0.82 q -0.265,0 -0.41,-0.105 -0.145,-0.11 -0.145,-0.305 0,-0.2 0.145,-0.305 0.145,-0.105 0.41,-0.105 h 0.825 v -4.55 h -0.825 q -0.265,0 -0.41,-0.105 -0.145,-0.11 -0.145,-0.31 0,-0.195 0.145,-0.3 0.145,-0.105 0.41,-0.105 h 2.69 q 0.27,0 0.41,0.105 0.145,0.105 0.145,0.3 0,0.2 -0.145,0.31 -0.14,0.105 -0.41,0.105 h -0.8 v 4.55 h 0.8 q 0.27,0 0.41,0.105 0.145,0.105 0.145,0.305 0,0.195 -0.145,0.305 -0.14,0.105 -0.41,0.105 z m 4.484995,0.095 q -0.22,0 -0.36,-0.125 -0.135,-0.125 -0.135,-0.36 0,-0.055 0.01,-0.12 0.01,-0.065 0.03,-0.135 l 1.71,-4.95 q 0.095,-0.285 0.285,-0.45 0.195,-0.17 0.46,-0.17 h 0.255 q 0.27,0 0.46,0.17 0.195,0.165 0.285,0.45 l 1.71,4.95 q 0.025,0.07 0.035,0.135 0.01,0.065 0.01,0.12 0,0.235 -0.14,0.36 -0.14,0.125 -0.365,0.125 -0.275,0 -0.405,-0.145 -0.13,-0.145 -0.215,-0.445 l -0.38,-1.105 h -2.245 l -0.38,1.105 q -0.08,0.3 -0.215,0.445 -0.13,0.145 -0.41,0.145 z m 1.235,-2.515 h 1.79 l -0.845,-2.55 q -0.015,-0.055 -0.03,-0.11 -0.015,-0.06 -0.025,-0.105 -0.005,0.045 -0.02,0.105 -0.01,0.055 -0.025,0.11 z m 6.739997,2.525 q -0.75,0 -1.31,-0.21 -0.555,-0.21 -0.89,-0.545 -0.315,-0.25 -0.315,-0.585 0,-0.165 0.12,-0.305 0.12,-0.145 0.345,-0.145 0.2,0 0.34,0.095 0.145,0.09 0.27,0.22 0.23,0.27 0.58,0.46 0.35,0.19 0.88,0.19 0.36,0 0.665,-0.11 0.31,-0.11 0.495,-0.315 0.19,-0.205 0.19,-0.49 0,-0.425 -0.395,-0.655 -0.39,-0.235 -1.155,-0.425 -1.13,-0.28 -1.655,-0.74 -0.52,-0.465 -0.52,-1.18 0,-0.505 0.32,-0.865 0.325,-0.365 0.87,-0.555 0.55,-0.195 1.22,-0.195 0.595,0 1.105,0.185 0.515,0.18 0.835,0.51 0.14,0.11 0.22,0.25 0.085,0.135 0.085,0.3 0,0.2 -0.13,0.32 -0.125,0.115 -0.32,0.115 -0.195,0 -0.34,-0.105 -0.145,-0.105 -0.245,-0.215 -0.17,-0.23 -0.49,-0.38 -0.32,-0.155 -0.765,-0.155 -0.335,0 -0.615,0.095 -0.28,0.095 -0.45,0.27 -0.165,0.17 -0.165,0.41 0,0.37 0.36,0.605 0.36,0.23 1.105,0.43 0.71,0.185 1.215,0.43 0.505,0.245 0.775,0.6 0.27,0.355 0.27,0.885 0,0.56 -0.33,0.965 -0.33,0.405 -0.9,0.625 -0.565,0.215 -1.275,0.215 z"
       id="paramBias--text"
       aria-label="BIAS" /><path
       style="font-weight:500;font-size:16px;line-height:1.25;font-family:Sono;-inkscape-font-specification:'Sono Medium';letter-spacing:0px;word-spacing:0px;fill:#bf9b30;stroke-width:0.781836"
       d="m 35.251538,190.92825 q -0.496,0 -0.824,-0.264 -0.328,-0.264 -0.416,-0.8 -0.024,-0.16 -0.112,-0.648 -0.08,-0.488 -0.208,-1.192 -0.128,-0.704 -0.272,-1.504 -0.144,-0.808 -0.288,-1.608 -0.136,-0.808 -0.256,-1.488 -0.112,-0.688 -0.184,-1.144 -0.072,-0.464 -0.072,-0.584 0,-0.448 0.232,-0.672 0.24,-0.232 0.632,-0.232 0.44,0 0.6,0.256 0.16,0.256 0.24,0.776 l 1.016,6.664 1.456,-6.008 q 0.12,-0.488 0.304,-0.752 0.184,-0.272 0.664,-0.272 0.48,0 0.664,0.264 0.184,0.264 0.304,0.76 l 1.456,5.976 1,-6.632 q 0.08,-0.52 0.264,-0.776 0.192,-0.256 0.632,-0.256 0.392,0 0.6,0.232 0.216,0.224 0.216,0.672 0,0.096 -0.072,0.544 -0.064,0.448 -0.184,1.136 -0.112,0.68 -0.256,1.488 -0.144,0.808 -0.288,1.624 -0.144,0.808 -0.272,1.52 -0.12,0.712 -0.208,1.208 -0.088,0.488 -0.112,0.648 -0.08,0.536 -0.408,0.8 -0.32,0.264 -0.816,0.264 h -0.048 q -0.488,0 -0.808,-0.304 -0.312,-0.304 -0.448,-0.88 l -1.216,-5.344 -1.208,5.344 q -0.128,0.576 -0.448,0.88 -0.32,0.304 -0.808,0.304 z m 8.656007,0 q -0.352,0 -0.576,-0.2 -0.216,-0.2 -0.216,-0.576 0,-0.088 0.016,-0.192 0.016,-0.104 0.048,-0.216 l 2.736,-7.92 q 0.152,-0.456 0.456,-0.72 0.312,-0.272 0.736,-0.272 h 0.408 q 0.432,0 0.736,0.272 0.312,0.264 0.456,0.72 l 2.736,7.92 q 0.04,0.112 0.056,0.216 0.016,0.104 0.016,0.192 0,0.376 -0.224,0.576 -0.224,0.2 -0.584,0.2 -0.44,0 -0.648,-0.232 -0.208,-0.232 -0.344,-0.712 l -0.608,-1.768 h -3.592 l -0.608,1.768 q -0.128,0.48 -0.344,0.712 -0.208,0.232 -0.656,0.232 z m 1.976,-4.024 h 2.864 l -1.352,-4.08 q -0.024,-0.088 -0.048,-0.176 -0.024,-0.096 -0.04,-0.168 -0.008,0.072 -0.032,0.168 -0.016,0.088 -0.04,0.176 z m 8.751995,-4.72 v 3.08 h 2.008 q 0.824,0 1.28,-0.408 0.464,-0.408 0.464,-1.176 0,-0.768 -0.48,-1.128 -0.472,-0.368 -1.32,-0.368 z m -1.776,7.64 v -7.888 q 0,-1.064 1.064,-1.064 h 2.952 q 0.552,0 1.128,0.112 0.576,0.104 1.064,0.4 0.496,0.296 0.8,0.832 0.304,0.528 0.304,1.384 0,1.072 -0.512,1.704 -0.512,0.624 -1.24,0.872 l 1.536,3.48 q 0.064,0.144 0.096,0.28 0.032,0.128 0.032,0.248 0,0.328 -0.216,0.52 -0.208,0.184 -0.6,0.184 -0.48,0 -0.688,-0.24 -0.208,-0.24 -0.384,-0.688 l -1.448,-3.384 h -2.112 v 3.248 q 0,1.064 -0.896,1.064 -0.88,0 -0.88,-1.064 z m 10.88,-7.64 v 3.688 h 1.472 q 0.32,0 0.672,-0.056 0.36,-0.064 0.672,-0.248 0.312,-0.192 0.512,-0.568 0.2,-0.376 0.2,-1.016 0,-0.632 -0.2,-0.992 -0.2,-0.368 -0.512,-0.536 -0.312,-0.176 -0.672,-0.224 -0.352,-0.048 -0.672,-0.048 z m 1.736,5 h -1.736 v 2.52 q 0,1.072 -0.88,1.072 -0.888,0 -0.888,-1.072 v -7.768 q 0,-1.064 1.064,-1.064 h 2.44 q 0.36,0 0.824,0.056 0.472,0.048 0.952,0.216 0.48,0.168 0.888,0.512 0.408,0.336 0.656,0.904 0.256,0.56 0.256,1.424 0,0.856 -0.256,1.44 -0.248,0.576 -0.656,0.928 -0.408,0.352 -0.888,0.536 -0.48,0.176 -0.952,0.24 -0.464,0.056 -0.824,0.056 z"
       id="moduleName--moduleName"
       transform="scale(0.99924857,1.000752)"
       aria-label="WARP" /></g><g
     id="Widgets"
     style="display:inline"
     inkscape:label="Widgets"
     transform="matrix(2.9527559,0,0,2.9573593,0,-0.02037044)"><path
       id="output_Signal--hidden"
       style="display:inline;vector-effect:none;fill:#0000ff;fill-rule:evenodd;stroke-width:1.01521"
       d="M 16.764,111.25481 A 4.0640001,4.0576739 0 0 1 12.7,115.31248 4.0640001,4.0576739 0 0 1 8.6359997,111.25481 4.0640001,4.0576739 0 0 1 12.7,107.19713 a 4.0640001,4.0576739 0 0 1 4.064,4.05768 z" /><path
       id="input_BiasCV--hidden"
       style="display:inline;vector-effect:none;fill:#00ff00;fill-rule:evenodd;stroke-width:1.01521"
       d="M 12.530665,52.418633 A 4.0640001,4.0576739 0 0 1 8.4666653,56.476306 4.0640001,4.0576739 0 0 1 4.4026651,52.418633 4.0640001,4.0576739 0 0 1 8.4666653,48.360959 4.0640001,4.0576739 0 0 1 12.530665,52.418633 Z" /><path
       id="input_AmountCV--hidden"
       style="display:inline;vector-effect:none;fill:#00ff00;fill-rule:evenodd;stroke-width:1.01521"
       d="M 12.530665,36.86422 A 4.0640001,4.0576739 0 0 1 8.4666653,40.921894 4.0640001,4.0576739 0 0 1 4.4026651,36.86422 4.0640001,4.0576739 0 0 1 8.4666653,32.806546 4.0640001,4.0576739 0 0 1 12.530665,36.86422 Z" /><path
       id="input_Modulator--hidden"
       style="display:inline;vector-effect:none;fill:#00ff00;fill-rule:evenodd;stroke-width:1.01521"
       d="m 22.690665,95.024132 a 4.0640001,4.0576739 0 0 1 -4.064,4.057674 4.0640001,4.0576739 0 0 1 -4.064,-4.057674 4.0640001,4.0576739 0 0 1 4.064,-4.057674 4.0640001,4.0576739 0 0 1 4.064,4.057674 z" /><path
       id="input_Signal--hidden"
       style="display:inline;vector-effect:none;fill:#00ff00;fill-rule:evenodd;stroke-width:1.01521"
       d="M 10.837334,95.02417 A 4.0640001,4.0576739 0 0 1 6.7733335,99.081844 4.0640001,4.0576739 0 0 1 2.7093334,95.02417 4.0640001,4.0576739 0 0 1 6.7733335,90.966496 4.0640001,4.0576739 0 0 1 10.837334,95.02417 Z" /><path
       id="param_BiasCVAtten--hidden"
       style="display:inline;fill:#ff0000;stroke-width:0.145627;paint-order:stroke fill markers"
       d="m 20.658666,52.418633 a 3.0480001,3.0432556 0 0 1 -2.999325,3.042867 3.0480001,3.0432556 0 0 1 -3.09512,-2.945682 3.0480001,3.0432556 0 0 1 2.900471,-3.136949 3.0480001,3.0432556 0 0 1 3.187758,2.845492" /><path
       id="param_Bias--hidden"
       style="display:inline;fill:#ff0000;stroke-width:0.194169;paint-order:stroke fill markers"
       d="m 22.690665,21.309692 a 4.0640001,4.0576739 0 0 1 -3.9991,4.057157 4.0640001,4.0576739 0 0 1 -4.126827,-3.927576 4.0640001,4.0576739 0 0 1 3.867294,-4.182598 4.0640001,4.0576739 0 0 1 4.250344,3.793988" /><path
       id="param_AmountCVAtten--hidden"
       style="display:inline;fill:#ff0000;stroke-width:0.145627;paint-order:stroke fill markers"
       d="m 20.658666,36.86422 a 3.0480001,3.0432556 0 0 1 -2.999325,3.042867 3.0480001,3.0432556 0 0 1 -3.09512,-2.945682 3.0480001,3.0432556 0 0 1 2.900471,-3.136949 3.0480001,3.0432556 0 0 1 3.187758,2.845492" /><path
       id="param_Amount--hidden"
       style="display:inline;fill:#ff0000;stroke-width:0.194169;paint-order:stroke fill markers"
       d="m 10.837334,21.309692 a 4.0640001,4.0576739 0 0 1 -3.9991008,4.057157 4.0640001,4.0576739 0 0 1 -4.126827,-3.927576 4.0640001,4.0576739 0 0 1 3.8672946,-4.182598 4.0640001,4.0576739 0 0 1 4.2503442,3.793988" /><path
       id="widgetLogo--hidden"
       style="fill:#ffff00;stroke-width:3.65802;paint-order:stroke fill markers"
       d="m 8.4666672,118.35572 h 8.4666658 v 8.45349 H 8.4666672 Z" /></g></svg>
